<?xml version="1.0" encoding="UTF-8"?>
<svg id="Graphics" xmlns="http://www.w3.org/2000/svg" xmlns:xlink="http://www.w3.org/1999/xlink" viewBox="0 0 1028.1 702.07">
  <defs>
    <style>
      .cls-1, .cls-2, .cls-3, .cls-4, .cls-5, .cls-6, .cls-7, .cls-8, .cls-9, .cls-10, .cls-11, .cls-12, .cls-13, .cls-14, .cls-15, .cls-16, .cls-17, .cls-18, .cls-19, .cls-20, .cls-21, .cls-22, .cls-23, .cls-24, .cls-25, .cls-26, .cls-27, .cls-28, .cls-29, .cls-30, .cls-31, .cls-32, .cls-33, .cls-34, .cls-35, .cls-36, .cls-37, .cls-38, .cls-39, .cls-40, .cls-41, .cls-42, .cls-43, .cls-44, .cls-45, .cls-46, .cls-47, .cls-48, .cls-49, .cls-50, .cls-51, .cls-52, .cls-53, .cls-54, .cls-55, .cls-56, .cls-57, .cls-58, .cls-59, .cls-60, .cls-61, .cls-62, .cls-63, .cls-64, .cls-65, .cls-66, .cls-67, .cls-68, .cls-69, .cls-70, .cls-71, .cls-72, .cls-73, .cls-74, .cls-75, .cls-76, .cls-77, .cls-78, .cls-79, .cls-80, .cls-81, .cls-82, .cls-83, .cls-84, .cls-85, .cls-86, .cls-87, .cls-88, .cls-89, .cls-90, .cls-91, .cls-92, .cls-93, .cls-94, .cls-95, .cls-96, .cls-97, .cls-98, .cls-99, .cls-100, .cls-101, .cls-102, .cls-103, .cls-104, .cls-105, .cls-106, .cls-107, .cls-108, .cls-109, .cls-110, .cls-111, .cls-112, .cls-113, .cls-114, .cls-115, .cls-116, .cls-117, .cls-118, .cls-119, .cls-120, .cls-121, .cls-122, .cls-123, .cls-124, .cls-125, .cls-126, .cls-127, .cls-128, .cls-129, .cls-130, .cls-131, .cls-132, .cls-133, .cls-134, .cls-135, .cls-136, .cls-137 {
        stroke-width: 0px;
      }

      .cls-1, .cls-4, .cls-5, .cls-6, .cls-8, .cls-10, .cls-11, .cls-19, .cls-21, .cls-23, .cls-24, .cls-31, .cls-33, .cls-34, .cls-35, .cls-37, .cls-38, .cls-39, .cls-43, .cls-46, .cls-48, .cls-50, .cls-53, .cls-54, .cls-57, .cls-61, .cls-65, .cls-67, .cls-70, .cls-71, .cls-75, .cls-77, .cls-78, .cls-82, .cls-83, .cls-84, .cls-86, .cls-92, .cls-93, .cls-96, .cls-99, .cls-103, .cls-107, .cls-108, .cls-110, .cls-113, .cls-114, .cls-121, .cls-123, .cls-124, .cls-133, .cls-134 {
        fill: #5c629e;
      }

      .cls-1, .cls-132 {
        opacity: .84;
      }

      .cls-2 {
        fill: #48486a;
      }

      .cls-3, .cls-7, .cls-12, .cls-14, .cls-17, .cls-18, .cls-20, .cls-26, .cls-28, .cls-29, .cls-36, .cls-40, .cls-42, .cls-44, .cls-47, .cls-49, .cls-55, .cls-58, .cls-60, .cls-62, .cls-63, .cls-64, .cls-66, .cls-69, .cls-73, .cls-74, .cls-76, .cls-79, .cls-80, .cls-81, .cls-90, .cls-91, .cls-97, .cls-98, .cls-100, .cls-101, .cls-102, .cls-104, .cls-105, .cls-106, .cls-111, .cls-112, .cls-117, .cls-119, .cls-125, .cls-129, .cls-130, .cls-131, .cls-132, .cls-135, .cls-136, .cls-137 {
        fill: #99a7d8;
      }

      .cls-3, .cls-21 {
        opacity: .88;
      }

      .cls-4, .cls-131 {
        opacity: .08;
      }

      .cls-5, .cls-26 {
        opacity: .61;
      }

      .cls-7, .cls-24 {
        opacity: .76;
      }

      .cls-8, .cls-119 {
        opacity: .98;
      }

      .cls-9 {
        fill: #b7a092;
      }

      .cls-10, .cls-36 {
        opacity: .47;
      }

      .cls-11, .cls-80 {
        opacity: .22;
      }

      .cls-12, .cls-103 {
        opacity: .96;
      }

      .cls-13 {
        fill: #7d81b1;
      }

      .cls-14, .cls-38 {
        opacity: .14;
      }

      .cls-15 {
        fill: url(#linear-gradient);
      }

      .cls-16 {
        fill: #1e327a;
      }

      .cls-17, .cls-39 {
        opacity: .63;
      }

      .cls-18, .cls-110 {
        opacity: .67;
      }

      .cls-19, .cls-63 {
        opacity: .25;
      }

      .cls-20, .cls-37 {
        opacity: .51;
      }

      .cls-22 {
        fill: #1b2a79;
      }

      .cls-22, .cls-138 {
        opacity: .3;
      }

      .cls-23, .cls-64 {
        opacity: .02;
      }

      .cls-25 {
        fill: #a58877;
      }

      .cls-27 {
        fill: #515171;
      }

      .cls-28, .cls-96 {
        opacity: .43;
      }

      .cls-29, .cls-31 {
        opacity: .57;
      }

      .cls-30 {
        fill: #edbd6a;
      }

      .cls-32 {
        fill: #d6dcef;
      }

      .cls-33, .cls-81 {
        opacity: .31;
      }

      .cls-34, .cls-55 {
        opacity: .65;
      }

      .cls-35, .cls-40 {
        opacity: .12;
      }

      .cls-41 {
        fill: #312075;
      }

      .cls-42, .cls-48 {
        opacity: .82;
      }

      .cls-43, .cls-125 {
        opacity: .8;
      }

      .cls-44, .cls-65 {
        opacity: .39;
      }

      .cls-45 {
        fill: #f2b1b5;
      }

      .cls-46, .cls-98 {
        opacity: .59;
      }

      .cls-47, .cls-114 {
        opacity: .78;
      }

      .cls-49, .cls-107 {
        opacity: .49;
      }

      .cls-50, .cls-62 {
        opacity: .24;
      }

      .cls-51 {
        fill: url(#linear-gradient-5);
      }

      .cls-52 {
        fill: #f1f5fe;
      }

      .cls-53, .cls-60 {
        opacity: .41;
      }

      .cls-54, .cls-129 {
        opacity: .53;
      }

      .cls-56 {
        fill: #8d91bb;
      }

      .cls-57, .cls-106 {
        opacity: .55;
      }

      .cls-58, .cls-77 {
        opacity: .69;
      }

      .cls-59 {
        fill: #f3f5fa;
      }

      .cls-61, .cls-101 {
        opacity: .9;
      }

      .cls-67, .cls-105 {
        opacity: .27;
      }

      .cls-68 {
        fill: #242435;
        opacity: .33;
      }

      .cls-69, .cls-70 {
        opacity: .71;
      }

      .cls-71, .cls-137 {
        opacity: .94;
      }

      .cls-72 {
        fill: #56408b;
      }

      .cls-73, .cls-133 {
        opacity: .29;
      }

      .cls-74, .cls-123 {
        opacity: .73;
      }

      .cls-75, .cls-100 {
        opacity: .18;
      }

      .cls-76, .cls-124 {
        opacity: .86;
      }

      .cls-78, .cls-130 {
        opacity: .1;
      }

      .cls-79, .cls-93 {
        opacity: .37;
      }

      .cls-82, .cls-111 {
        opacity: .75;
      }

      .cls-83, .cls-104 {
        opacity: .2;
      }

      .cls-84, .cls-102 {
        opacity: .33;
      }

      .cls-85 {
        fill: #231f20;
        opacity: .1;
      }

      .cls-86, .cls-112 {
        opacity: 0;
      }

      .cls-87 {
        fill: url(#linear-gradient-2);
      }

      .cls-88 {
        fill: #2842a2;
      }

      .cls-89 {
        fill: #6c72a8;
      }

      .cls-90, .cls-92 {
        opacity: .06;
      }

      .cls-91, .cls-121 {
        opacity: .16;
      }

      .cls-94 {
        fill: url(#linear-gradient-3);
      }

      .cls-95 {
        fill: #f1ca88;
      }

      .cls-97, .cls-134 {
        opacity: .45;
      }

      .cls-99, .cls-135 {
        opacity: .35;
      }

      .cls-108, .cls-117 {
        opacity: .04;
      }

      .cls-109 {
        fill: #efc479;
      }

      .cls-113, .cls-136 {
        opacity: .92;
      }

      .cls-115 {
        fill: #eff4fe;
      }

      .cls-116 {
        fill: #faf9fa;
      }

      .cls-118 {
        fill: #fff;
      }

      .cls-120 {
        fill: #6d6d88;
      }

      .cls-122 {
        fill: #dce1f1;
      }

      .cls-126 {
        fill: #5a5a79;
      }

      .cls-127 {
        fill: #ae9485;
      }

      .cls-128 {
        fill: url(#linear-gradient-4);
      }
    </style>
    <linearGradient id="linear-gradient" x1="0" y1="401.33" x2="1028.1" y2="401.33" gradientUnits="userSpaceOnUse">
      <stop offset="0" stop-color="#99a7d8"/>
      <stop offset=".27" stop-color="#acb8df"/>
      <stop offset=".73" stop-color="#c8d0e9"/>
      <stop offset="1" stop-color="#d3daed"/>
    </linearGradient>
    <linearGradient id="linear-gradient-2" x1="7569.87" y1="221.86" x2="7720.2" y2="221.86" gradientTransform="translate(8332.39) rotate(-180) scale(1 -1)" gradientUnits="userSpaceOnUse">
      <stop offset="0" stop-color="#99a7d8"/>
      <stop offset="1" stop-color="#d3daed"/>
    </linearGradient>
    <linearGradient id="linear-gradient-3" x1="7720.2" y1="205.02" x2="7929.04" y2="205.02" xlink:href="#linear-gradient-2"/>
    <linearGradient id="linear-gradient-4" y1="103.64" x2="7929.04" y2="103.64" xlink:href="#linear-gradient-2"/>
    <linearGradient id="linear-gradient-5" x1="366.08" y1="378.57" x2="421.83" y2="378.57" gradientUnits="userSpaceOnUse">
      <stop offset=".48" stop-color="#ffc107"/>
      <stop offset="1" stop-color="#ff9800"/>
    </linearGradient>
  </defs>
  <path class="cls-15" d="M1028.1,401.33l-.03-48.31-484.52-244.72c-17.59-10.24-39.31-10.28-56.93-.1L0,353.01v48.26H0c0,7.1,3.5,14.19,10.53,18.25l476.21,274.94c17.56,10.14,39.19,10.14,56.75,0l474.09-273.71c7.41-4.28,10.91-11.95,10.49-19.43h.04Z"/>
  <path class="cls-115" d="M486.62,59.87L10.53,334.75c-14.03,8.1-14.03,28.36,0,36.46l476.21,274.94c17.56,10.14,39.19,10.14,56.75,0l474.09-273.71c14-8.09,14.04-28.29.07-36.42L543.55,59.98c-17.59-10.24-39.31-10.28-56.93-.1Z"/>
  <g>
    <g class="cls-138">
      <polygon class="cls-112" points="698.06 160.33 998.28 338.71 767.36 471.38 467.1 293.03 698.06 160.33"/>
      <polygon class="cls-64" points="698.06 160.33 992.59 335.33 761.67 468 467.1 293.03 698.06 160.33"/>
      <polygon class="cls-117" points="698.06 160.33 986.9 331.95 755.99 464.63 467.1 293.03 698.06 160.33"/>
      <polygon class="cls-90" points="698.06 160.33 981.21 328.58 750.3 461.25 467.1 293.03 698.06 160.33"/>
      <polygon class="cls-131" points="698.06 160.33 975.53 325.2 744.61 457.87 467.1 293.03 698.06 160.33"/>
      <polygon class="cls-130" points="698.06 160.33 969.84 321.82 738.93 454.5 467.1 293.03 698.06 160.33"/>
      <polygon class="cls-40" points="698.06 160.33 964.15 318.45 733.24 451.12 467.1 293.03 698.06 160.33"/>
      <polygon class="cls-14" points="698.06 160.33 958.47 315.07 727.55 447.75 467.1 293.03 698.06 160.33"/>
      <polygon class="cls-91" points="698.06 160.33 952.78 311.69 721.86 444.37 467.1 293.03 698.06 160.33"/>
      <polygon class="cls-100" points="698.06 160.33 947.09 308.32 716.18 440.99 467.1 293.03 698.06 160.33"/>
      <polygon class="cls-104" points="698.06 160.33 941.4 304.94 710.49 437.62 467.1 293.03 698.06 160.33"/>
      <polygon class="cls-80" points="698.06 160.33 935.72 301.57 704.8 434.24 467.1 293.03 698.06 160.33"/>
      <polygon class="cls-62" points="698.06 160.33 930.03 298.19 699.12 430.86 467.1 293.03 698.06 160.33"/>
      <polygon class="cls-63" points="698.06 160.33 924.34 294.81 693.43 427.49 467.1 293.03 698.06 160.33"/>
      <polygon class="cls-105" points="698.06 160.33 918.66 291.44 687.74 424.11 467.1 293.03 698.06 160.33"/>
      <polygon class="cls-73" points="698.06 160.33 912.97 288.06 682.05 420.73 467.1 293.03 698.06 160.33"/>
      <polygon class="cls-81" points="698.06 160.33 907.28 284.68 676.37 417.36 467.1 293.03 698.06 160.33"/>
      <polygon class="cls-102" points="698.06 160.33 901.59 281.31 670.68 413.98 467.1 293.03 698.06 160.33"/>
      <polygon class="cls-135" points="698.06 160.33 895.91 277.93 664.99 410.6 467.1 293.03 698.06 160.33"/>
      <polygon class="cls-79" points="698.06 160.33 890.22 274.55 659.31 407.23 467.1 293.03 698.06 160.33"/>
      <polygon class="cls-44" points="698.06 160.33 884.53 271.18 653.62 403.85 467.1 293.03 698.06 160.33"/>
      <polygon class="cls-60" points="698.06 160.33 878.85 267.8 647.93 400.48 467.1 293.03 698.06 160.33"/>
      <polygon class="cls-28" points="698.06 160.33 873.16 264.42 642.24 397.1 467.1 293.03 698.06 160.33"/>
      <polygon class="cls-97" points="698.06 160.33 867.47 261.05 636.56 393.72 467.1 293.03 698.06 160.33"/>
      <polygon class="cls-36" points="698.06 160.33 861.78 257.67 630.87 390.35 467.1 293.03 698.06 160.33"/>
      <polygon class="cls-49" points="698.06 160.33 856.1 254.3 625.18 386.97 467.1 293.03 698.06 160.33"/>
      <polygon class="cls-20" points="698.06 160.33 850.41 250.92 619.49 383.59 467.1 293.03 698.06 160.33"/>
      <polygon class="cls-129" points="698.06 160.33 844.72 247.54 613.81 380.22 467.1 293.03 698.06 160.33"/>
      <polygon class="cls-106" points="698.06 160.33 839.04 244.17 608.12 376.84 467.1 293.03 698.06 160.33"/>
      <polygon class="cls-29" points="698.06 160.33 833.35 240.79 602.43 373.46 467.1 293.03 698.06 160.33"/>
      <polygon class="cls-98" points="698.06 160.33 827.66 237.41 596.75 370.09 467.1 293.03 698.06 160.33"/>
      <polygon class="cls-26" points="698.06 160.33 821.97 234.04 591.06 366.71 467.1 293.03 698.06 160.33"/>
      <polygon class="cls-17" points="698.06 160.33 816.29 230.66 585.37 363.34 467.1 293.03 698.06 160.33"/>
      <polygon class="cls-55" points="698.06 160.33 810.6 227.28 579.68 359.96 467.1 293.03 698.06 160.33"/>
      <polygon class="cls-18" points="698.06 160.33 804.91 223.91 574 356.58 467.1 293.03 698.06 160.33"/>
      <polygon class="cls-58" points="698.06 160.33 799.23 220.53 568.31 353.21 467.1 293.03 698.06 160.33"/>
      <polygon class="cls-69" points="698.06 160.33 793.54 217.16 562.62 349.83 467.1 293.03 698.06 160.33"/>
      <polygon class="cls-74" points="698.06 160.33 787.85 213.78 556.94 346.45 467.1 293.03 698.06 160.33"/>
      <polygon class="cls-111" points="698.06 160.33 782.16 210.4 551.25 343.08 467.1 293.03 698.06 160.33"/>
      <polygon class="cls-7" points="698.06 160.33 776.48 207.03 545.56 339.7 467.1 293.03 698.06 160.33"/>
      <polygon class="cls-47" points="698.06 160.33 770.79 203.65 539.87 336.32 467.1 293.03 698.06 160.33"/>
      <polygon class="cls-125" points="698.06 160.33 765.1 200.27 534.19 332.95 467.1 293.03 698.06 160.33"/>
      <polygon class="cls-42" points="698.06 160.33 759.42 196.9 528.5 329.57 467.1 293.03 698.06 160.33"/>
      <polygon class="cls-132" points="698.06 160.33 753.73 193.52 522.81 326.2 467.1 293.03 698.06 160.33"/>
      <polygon class="cls-76" points="698.06 160.33 748.04 190.14 517.13 322.82 467.1 293.03 698.06 160.33"/>
      <polygon class="cls-3" points="698.06 160.33 742.35 186.77 511.44 319.44 467.1 293.03 698.06 160.33"/>
      <polygon class="cls-101" points="698.06 160.33 736.67 183.39 505.75 316.07 467.1 293.03 698.06 160.33"/>
      <polygon class="cls-136" points="698.06 160.33 730.98 180.02 500.06 312.69 467.1 293.03 698.06 160.33"/>
      <polygon class="cls-137" points="698.06 160.33 725.29 176.64 494.38 309.31 467.1 293.03 698.06 160.33"/>
      <polygon class="cls-12" points="698.06 160.33 719.61 173.26 488.69 305.94 467.1 293.03 698.06 160.33"/>
      <polygon class="cls-119" points="698.06 160.33 713.92 169.89 483 302.56 467.1 293.03 698.06 160.33"/>
      <polygon class="cls-66" points="698.06 160.33 708.23 166.51 477.32 299.18 467.1 293.03 698.06 160.33"/>
    </g>
    <polygon class="cls-30" points="809.23 292.84 708.79 234.98 583.51 307.31 683.95 365.17 809.23 292.84"/>
    <polygon class="cls-2" points="627.94 361.6 691.17 395.54 696.92 308.79 641.16 308.79 641.29 341.13 635.12 342.84 627.94 361.6"/>
    <polygon class="cls-2" points="431.49 247.7 493.94 285.22 500.48 194.89 444.72 194.89 441.9 220.28 438.68 228.94 431.49 247.7"/>
    <polygon class="cls-16" points="514.22 282.62 539.17 268.1 539.17 210.35 514.22 223.19 514.22 282.62"/>
    <path class="cls-88" d="M496.42,214.99c15.37,8.88,27.95,30.66,27.95,48.41s-12.58,25.3-27.95,16.78c-15.37-8.52-27.95-30.31-27.95-48.41s12.58-25.65,27.95-16.78Z"/>
    <polygon class="cls-2" points="683.89 414.18 708.84 399.66 708.84 341.92 683.89 354.76 683.89 414.18"/>
    <path class="cls-2" d="M483.79,297.84l17.33-10.09c4.72-2.75,7.62-7.8,7.62-13.26v-48.92l-24.95,12.84v59.43Z"/>
    <path class="cls-6" d="M465.99,230.2c15.37,8.88,27.95,30.66,27.95,48.41s-12.58,25.3-27.95,16.78c-15.37-8.52-27.95-30.31-27.95-48.41s12.58-25.65,27.95-16.78Z"/>
    <path class="cls-118" d="M465.99,244.92c8.41,4.85,15.29,16.77,15.29,26.48s-6.88,13.84-15.29,9.17c-8.41-4.66-15.29-16.57-15.29-26.47s6.88-14.03,15.29-9.18Z"/>
    <polygon class="cls-87" points="612.19 207.27 612.19 323.24 762.52 236.44 762.52 120.48 612.19 207.27"/>
    <polygon class="cls-94" points="612.19 323.24 403.34 202.76 403.34 86.8 612.19 207.27 612.19 323.24"/>
    <polygon class="cls-6" points="612.19 283.02 727.83 217.06 727.83 202.76 612.19 268.72 612.19 283.02"/>
    <polygon class="cls-59" points="873.7 330.58 873.7 351.39 741.39 427.52 741.39 406.45 873.7 330.58"/>
    <polygon class="cls-116" points="741.35 427.52 703.59 406.45 703.59 384.63 741.39 406.45 741.35 427.52"/>
    <polygon class="cls-109" points="866.67 210.79 741.39 283.12 741.39 398.85 866.67 326.52 866.67 210.79"/>
    <polygon class="cls-66" points="866.67 219.25 749.87 286.32 749.87 360.03 866.67 292.96 866.67 219.25"/>
    <polygon class="cls-118" points="774.05 356.55 746.54 372.35 746.54 389.71 774.05 373.91 774.05 356.55"/>
    <polygon class="cls-115" points="828.26 328.54 779.8 357.49 779.8 364.03 828.26 335.08 828.26 328.54"/>
    <polygon class="cls-118" points="861.16 305.69 833.66 321.49 833.66 338.85 861.16 323.05 861.16 305.69"/>
    <path class="cls-30" d="M698.04,403.21c.28-1.81.43-3.74.43-5.79,0-20.48-14.51-45.62-32.25-55.86-10.02-5.78-19-5.52-24.93-.44l-.34-115.87,100.44,57.86v123.33l-37.8-21.82v21.82l-5.55-3.24Z"/>
    <path class="cls-6" d="M666.22,346.56c15.37,8.88,27.95,30.66,27.95,48.41,0,17.75-12.58,25.3-27.95,16.78-15.37-8.52-27.95-30.31-27.95-48.41s12.58-25.65,27.95-16.78Z"/>
    <path class="cls-118" d="M666.22,361.28c8.41,4.85,15.29,16.77,15.29,26.48s-6.88,13.84-15.29,9.17c-8.41-4.66-15.29-16.58-15.29-26.48s6.88-14.03,15.29-9.17Z"/>
    <polygon class="cls-95" points="866.67 210.79 766.23 152.93 640.95 225.26 741.39 283.12 866.67 210.79"/>
    <path class="cls-66" d="M732.7,290.94l-83.06-46.91v28.03c0,12.27,6.54,23.61,17.16,29.75l10.73,6.2c8.39,4.85,13.56,13.8,13.59,23.48h0c.03,11.29,6.07,21.72,15.85,27.37l25.41,14.68.32-82.61Z"/>
    <path class="cls-30" d="M444.36,226.34l-.23,1.02c-4.39,3.96-7.37,10.52-7.37,19.42,0,1.41.08,2.84.21,4.28l-25.22-14.72v-28.93l32.61,18.93Z"/>
    <path class="cls-30" d="M495.31,284.68c.23-1.59.36-3.29.36-5.08,0-9.16-3.17-19.32-8.29-28.44l153.91,89.43v.88c-4.39,3.96-7.37,10.52-7.37,19.42,0,1.41.08,2.84.21,4.28l-138.81-80.49Z"/>
    <polygon class="cls-32" points="866.67 326.52 873.7 330.58 741.39 406.45 734.28 402.35 866.67 326.52"/>
    <polygon class="cls-32" points="703.59 384.65 709.59 381.12 746.54 402.59 740.52 406.07 703.59 384.65"/>
    <g>
      <polygon class="cls-122" points="785.52 265.85 796.4 259.6 843.23 306.42 832.34 312.67 785.52 265.85"/>
      <polygon class="cls-122" points="839.29 234.97 866.67 262.34 866.67 292.96 853.1 300.75 806.28 253.93 839.29 234.97"/>
    </g>
    <g>
      <polygon class="cls-122" points="692.6 268.3 700.21 272.59 732.52 338.3 732.47 349.39 692.6 268.3"/>
      <polygon class="cls-122" points="732.69 294.59 732.56 328.22 707.13 276.5 730.2 289.53 732.69 294.59"/>
    </g>
    <polygon class="cls-6" points="474.98 127.83 403.34 86.8 403.57 168.03 474.98 127.83"/>
    <polygon class="cls-6" points="612.19 207.27 612.19 224.23 411.75 108.4 411.75 91.61 612.19 207.27"/>
    <polygon class="cls-115" points="612.19 323.24 607.57 320.67 607.57 204.71 612.19 207.27 612.19 323.24"/>
    <polygon class="cls-115" points="407.96 205.02 403.34 202.45 403.34 86.49 407.96 89.05 407.96 205.02"/>
    <g>
      <polygon class="cls-120" points="412.54 134.77 500.44 84.01 550.01 112.63 462.11 163.39 412.54 134.77"/>
      <polygon class="cls-126" points="412.54 134.77 412.54 192.24 462.11 220.86 462.11 163.39 412.54 134.77"/>
      <polygon class="cls-118" points="414.84 139.91 414.84 145.32 427.33 152.52 427.33 147.12 414.84 139.91"/>
      <polygon class="cls-2" points="462.11 220.86 550.01 170.25 550.01 112.78 462.11 163.39 462.11 220.86"/>
      <polygon class="cls-118" points="432.37 203.68 432.37 146.22 442.28 151.94 442.28 209.41 432.37 203.68"/>
      <polygon class="cls-118" points="432.37 146.22 520.29 95.58 530.54 101.15 442.28 151.94 432.37 146.22"/>
    </g>
    <g>
      <polygon class="cls-9" points="470.62 167.39 558.52 116.64 608.09 145.25 520.19 196.01 470.62 167.39"/>
      <polygon class="cls-127" points="470.62 167.39 470.62 224.86 520.19 253.48 520.19 196.01 470.62 167.39"/>
      <polygon class="cls-118" points="472.92 172.53 472.92 177.94 485.41 185.15 485.41 179.74 472.92 172.53"/>
      <polygon class="cls-25" points="520.19 253.48 608.09 202.87 608.09 145.4 520.19 196.01 520.19 253.48"/>
      <polygon class="cls-118" points="490.45 236.31 490.45 178.84 500.36 184.56 500.36 242.03 490.45 236.31"/>
      <polygon class="cls-118" points="490.45 178.84 578.37 128.2 588.62 133.78 500.36 184.56 490.45 178.84"/>
    </g>
    <polygon class="cls-128" points="612.19 207.27 403.34 86.8 553.68 0 762.52 120.48 612.19 207.27"/>
    <path class="cls-6" d="M469.52,48l29.54-17.98,117.69,68.81,26.52-15.31c1.29-.74,2.9.19,2.9,1.68v51.07c0,1.12-.94,2-2.06,1.93l-79.81-5c-1.91-.12-2.51-2.65-.85-3.61l23.87-13.78-117.81-67.82Z"/>
    <polygon class="cls-115" points="612.19 207.27 612.19 212.47 403.34 91.83 403.34 86.8 612.19 207.27"/>
  </g>
  <g>
    <g>
      <g class="cls-138">
        <path class="cls-86" d="M273.71,426.48l129.72-75.23c5.76-3.34,5.76-11.65,0-14.99l-148.96-86.5c-6.24-3.62-13.95-3.62-20.19,0l-129.84,75.39c-5.76,3.34-5.75,11.66,0,14.99l149.1,86.35c6.24,3.61,13.93,3.61,20.16,0Z"/>
        <path class="cls-23" d="M273.61,426l129.01-74.83c5.72-3.32,5.73-11.59,0-14.91l-148.15-86.03c-6.21-3.6-13.87-3.6-20.08,0l-129.14,74.98c-5.73,3.32-5.72,11.6,0,14.91l148.29,85.88c6.2,3.59,13.85,3.59,20.05,0Z"/>
        <path class="cls-108" d="M273.5,425.52l128.31-74.42c5.69-3.3,5.7-11.52,0-14.83l-147.34-85.56c-6.17-3.58-13.8-3.58-19.97,0l-128.43,74.57c-5.69,3.31-5.69,11.53,0,14.83l147.47,85.41c6.17,3.57,13.78,3.57,19.94,0Z"/>
        <path class="cls-92" d="M273.39,425.04l127.6-74.01c5.66-3.28,5.66-11.46,0-14.75l-146.53-85.08c-6.14-3.56-13.72-3.57-19.86,0l-127.72,74.16c-5.66,3.29-5.66,11.47,0,14.75l146.66,84.94c6.13,3.55,13.7,3.55,19.83,0Z"/>
        <path class="cls-4" d="M273.28,424.55l126.9-73.6c5.63-3.27,5.63-11.4,0-14.67l-145.72-84.61c-6.11-3.55-13.64-3.55-19.75,0l-127.02,73.75c-5.63,3.27-5.63,11.41,0,14.67l145.85,84.47c6.1,3.53,13.62,3.53,19.72,0Z"/>
        <path class="cls-78" d="M273.18,424.07l126.19-73.19c5.6-3.25,5.6-11.33,0-14.58l-144.91-84.14c-6.07-3.53-13.57-3.53-19.64,0l-126.31,73.34c-5.6,3.25-5.6,11.34,0,14.59l145.04,84c6.07,3.51,13.55,3.51,19.61,0Z"/>
        <path class="cls-35" d="M273.07,423.59l125.49-72.78c5.57-3.23,5.57-11.27,0-14.5l-144.1-83.67c-6.04-3.51-13.49-3.51-19.53,0l-125.6,72.93c-5.57,3.23-5.56,11.28,0,14.51l144.23,83.53c6.03,3.49,13.47,3.49,19.5,0Z"/>
        <path class="cls-38" d="M272.96,423.11l124.78-72.37c5.54-3.21,5.54-11.21,0-14.42l-143.29-83.2c-6-3.49-13.42-3.49-19.42,0l-124.9,72.52c-5.54,3.22-5.53,11.21,0,14.42l143.42,83.06c6,3.47,13.4,3.47,19.39,0Z"/>
        <path class="cls-121" d="M272.85,422.63l124.07-71.96c5.51-3.19,5.51-11.14,0-14.34l-142.48-82.73c-5.97-3.47-13.34-3.47-19.31,0l-124.19,72.11c-5.51,3.2-5.5,11.15,0,14.34l142.61,82.59c5.96,3.45,13.32,3.45,19.28,0Z"/>
        <path class="cls-75" d="M272.75,422.15l123.37-71.55c5.47-3.17,5.48-11.08,0-14.26l-141.67-82.26c-5.94-3.45-13.26-3.45-19.2,0l-123.48,71.7c-5.48,3.18-5.47,11.09,0,14.26l141.8,82.12c5.93,3.43,13.25,3.43,19.17,0Z"/>
        <path class="cls-83" d="M272.64,421.67l122.66-71.14c5.44-3.16,5.45-11.02,0-14.18l-140.85-81.79c-5.9-3.43-13.19-3.43-19.09,0l-122.78,71.29c-5.44,3.16-5.44,11.02,0,14.18l140.99,81.65c5.9,3.41,13.17,3.41,19.06,0Z"/>
        <path class="cls-11" d="M272.53,421.19l121.96-70.73c5.41-3.14,5.41-10.95,0-14.09l-140.04-81.32c-5.87-3.41-13.11-3.41-18.98,0l-122.07,70.88c-5.41,3.14-5.41,10.96,0,14.1l140.17,81.18c5.86,3.4,13.09,3.39,18.95,0Z"/>
        <path class="cls-50" d="M272.42,420.71l121.25-70.32c5.38-3.12,5.38-10.89,0-14.01l-139.23-80.85c-5.83-3.39-13.04-3.39-18.87,0l-121.37,70.47c-5.38,3.12-5.38,10.9,0,14.02l139.36,80.71c5.83,3.38,13.02,3.37,18.84,0Z"/>
        <path class="cls-19" d="M272.32,420.23l120.55-69.91c5.35-3.1,5.35-10.83,0-13.93l-138.42-80.38c-5.8-3.37-12.96-3.37-18.76,0l-120.66,70.06c-5.35,3.11-5.35,10.83,0,13.93l138.55,80.24c5.79,3.36,12.94,3.35,18.73,0Z"/>
        <path class="cls-67" d="M272.21,419.75l119.84-69.51c5.32-3.08,5.32-10.76,0-13.85l-137.61-79.91c-5.77-3.35-12.89-3.35-18.65,0l-119.95,69.65c-5.32,3.09-5.31,10.77,0,13.85l137.74,79.77c5.76,3.34,12.87,3.33,18.62,0Z"/>
        <path class="cls-133" d="M272.1,419.27l119.13-69.1c5.29-3.07,5.29-10.7,0-13.77l-136.8-79.44c-5.73-3.33-12.81-3.33-18.54,0l-119.25,69.24c-5.29,3.07-5.28,10.71,0,13.77l136.93,79.3c5.73,3.32,12.79,3.31,18.51,0Z"/>
        <path class="cls-33" d="M271.99,418.79l118.43-68.69c5.26-3.05,5.26-10.64,0-13.69l-135.99-78.97c-5.7-3.31-12.73-3.31-18.43,0l-118.54,68.83c-5.26,3.05-5.25,10.64,0,13.69l136.12,78.83c5.69,3.3,12.71,3.29,18.41,0Z"/>
        <path class="cls-84" d="M271.89,418.31l117.72-68.28c5.22-3.03,5.23-10.57,0-13.61l-135.18-78.5c-5.66-3.29-12.66-3.29-18.32,0l-117.83,68.42c-5.22,3.03-5.22,10.58,0,13.61l135.31,78.36c5.66,3.28,12.64,3.27,18.3,0Z"/>
        <path class="cls-99" d="M271.78,417.82l117.02-67.87c5.19-3.01,5.19-10.51,0-13.52l-134.37-78.03c-5.63-3.27-12.58-3.27-18.21,0l-117.13,68.01c-5.19,3.02-5.19,10.52,0,13.53l134.5,77.89c5.62,3.26,12.56,3.26,18.19,0Z"/>
        <path class="cls-93" d="M271.67,417.34l116.31-67.46c5.16-2.99,5.16-10.45,0-13.44l-133.56-77.56c-5.6-3.25-12.51-3.25-18.1,0l-116.42,67.6c-5.16,3-5.16,10.45,0,13.45l133.69,77.42c5.59,3.24,12.49,3.24,18.08,0Z"/>
        <path class="cls-65" d="M271.56,416.86l115.61-67.05c5.13-2.98,5.13-10.38,0-13.36l-132.75-77.08c-5.56-3.23-12.43-3.23-17.99,0l-115.71,67.19c-5.13,2.98-5.13,10.39,0,13.36l132.87,76.95c5.56,3.22,12.41,3.22,17.97,0Z"/>
        <path class="cls-53" d="M271.45,416.38l114.9-66.64c5.1-2.96,5.1-10.32,0-13.28l-131.94-76.61c-5.53-3.21-12.35-3.21-17.88,0l-115.01,66.78c-5.1,2.96-5.1,10.33,0,13.28l132.06,76.48c5.52,3.2,12.34,3.2,17.86,0Z"/>
        <path class="cls-96" d="M271.35,415.9l114.19-66.23c5.07-2.94,5.07-10.26,0-13.2l-131.13-76.14c-5.49-3.19-12.28-3.19-17.77,0l-114.3,66.37c-5.07,2.94-5.06,10.26,0,13.2l131.25,76.01c5.49,3.18,12.26,3.18,17.75,0Z"/>
        <path class="cls-134" d="M271.24,415.42l113.49-65.82c5.04-2.92,5.04-10.19,0-13.12l-130.32-75.67c-5.46-3.17-12.2-3.17-17.66,0l-113.59,65.96c-5.04,2.92-5.03,10.2,0,13.12l130.44,75.54c5.46,3.16,12.18,3.16,17.64,0Z"/>
        <path class="cls-10" d="M271.13,414.94l112.78-65.41c5-2.9,5.01-10.13,0-13.03l-129.51-75.2c-5.43-3.15-12.13-3.15-17.55,0l-112.89,65.55c-5.01,2.91-5,10.14,0,13.04l129.63,75.07c5.42,3.14,12.11,3.14,17.53,0Z"/>
        <path class="cls-107" d="M271.02,414.46l112.08-65c4.97-2.88,4.98-10.07,0-12.95l-128.7-74.73c-5.39-3.13-12.05-3.13-17.44,0l-112.18,65.14c-4.97,2.89-4.97,10.07,0,12.96l128.82,74.6c5.39,3.12,12.03,3.12,17.42,0Z"/>
        <path class="cls-37" d="M270.92,413.98l111.37-64.59c4.94-2.87,4.94-10,0-12.87l-127.89-74.26c-5.36-3.11-11.97-3.11-17.33,0l-111.48,64.73c-4.94,2.87-4.94,10.01,0,12.87l128.01,74.13c5.35,3.1,11.96,3.1,17.31,0Z"/>
        <path class="cls-54" d="M270.81,413.5l110.67-64.18c4.91-2.85,4.91-9.94,0-12.79l-127.08-73.79c-5.32-3.09-11.9-3.09-17.22,0l-110.77,64.32c-4.91,2.85-4.91,9.95,0,12.79l127.2,73.66c5.32,3.08,11.88,3.08,17.2,0Z"/>
        <path class="cls-57" d="M270.7,413.02l109.96-63.77c4.88-2.83,4.88-9.88,0-12.71l-126.27-73.32c-5.29-3.07-11.82-3.07-17.11,0l-110.06,63.91c-4.88,2.83-4.88,9.88,0,12.71l126.39,73.19c5.29,3.06,11.81,3.06,17.09,0Z"/>
        <path class="cls-31" d="M270.59,412.54l109.25-63.37c4.85-2.81,4.85-9.81,0-12.63l-125.46-72.85c-5.26-3.05-11.75-3.05-17,0l-109.36,63.5c-4.85,2.82-4.84,9.82,0,12.63l125.57,72.72c5.25,3.04,11.73,3.04,16.98,0Z"/>
        <path class="cls-46" d="M270.49,412.06l108.55-62.96c4.82-2.79,4.82-9.75,0-12.55l-124.65-72.38c-5.22-3.03-11.67-3.03-16.89,0l-108.65,63.09c-4.82,2.8-4.81,9.76,0,12.55l124.76,72.25c5.22,3.02,11.65,3.02,16.87,0Z"/>
        <path class="cls-5" d="M270.38,411.58l107.84-62.55c4.79-2.78,4.79-9.69,0-12.46l-123.84-71.91c-5.19-3.01-11.6-3.01-16.78,0l-107.94,62.68c-4.79,2.78-4.78,9.69,0,12.47l123.95,71.78c5.18,3,11.58,3,16.76,0Z"/>
        <path class="cls-39" d="M270.27,411.09l107.14-62.14c4.75-2.76,4.76-9.62,0-12.38l-123.03-71.44c-5.15-2.99-11.52-2.99-16.67,0l-107.24,62.26c-4.76,2.76-4.75,9.63,0,12.38l123.14,71.31c5.15,2.98,11.5,2.98,16.65,0Z"/>
        <path class="cls-34" d="M270.16,410.61l106.43-61.73c4.72-2.74,4.72-9.56,0-12.3l-122.22-70.97c-5.12-2.97-11.44-2.97-16.56,0l-106.53,61.85c-4.72,2.74-4.72,9.57,0,12.3l122.33,70.84c5.12,2.96,11.43,2.96,16.54,0Z"/>
        <path class="cls-110" d="M270.06,410.13l105.73-61.32c4.69-2.72,4.69-9.5,0-12.22l-121.41-70.5c-5.09-2.95-11.37-2.95-16.45,0l-105.82,61.44c-4.69,2.72-4.69,9.5,0,12.22l121.52,70.37c5.08,2.94,11.35,2.94,16.43,0Z"/>
        <path class="cls-77" d="M269.95,409.65l105.02-60.91c4.66-2.7,4.66-9.43,0-12.14l-120.6-70.03c-5.05-2.93-11.29-2.93-16.34,0l-105.12,61.03c-4.66,2.71-4.66,9.44,0,12.14l120.71,69.91c5.05,2.92,11.27,2.92,16.32,0Z"/>
        <path class="cls-70" d="M269.84,409.17l104.31-60.5c4.63-2.68,4.63-9.37,0-12.06l-119.79-69.56c-5.02-2.91-11.22-2.91-16.23,0l-104.41,60.62c-4.63,2.69-4.63,9.38,0,12.06l119.9,69.44c5.01,2.9,11.2,2.9,16.21,0Z"/>
        <path class="cls-123" d="M269.73,408.69l103.61-60.09c4.6-2.67,4.6-9.31,0-11.97l-118.97-69.09c-4.99-2.89-11.14-2.89-16.12,0l-103.71,60.21c-4.6,2.67-4.59,9.31,0,11.98l119.09,68.97c4.98,2.88,11.12,2.88,16.1,0Z"/>
        <path class="cls-82" d="M269.63,408.21l102.9-59.68c4.57-2.65,4.57-9.24,0-11.89l-118.16-68.61c-4.95-2.88-11.06-2.88-16.01,0l-103,59.8c-4.57,2.65-4.56,9.25,0,11.9l118.27,68.5c4.95,2.86,11.05,2.86,15.99,0Z"/>
        <path class="cls-24" d="M269.52,407.73l102.2-59.27c4.54-2.63,4.54-9.18,0-11.81l-117.35-68.14c-4.92-2.86-10.99-2.86-15.91,0l-102.29,59.39c-4.54,2.63-4.53,9.18,0,11.81l117.46,68.03c4.91,2.84,10.97,2.84,15.88,0Z"/>
        <path class="cls-114" d="M269.41,407.25l101.49-58.86c4.5-2.61,4.51-9.12,0-11.73l-116.54-67.67c-4.88-2.84-10.91-2.84-15.8,0l-101.59,58.98c-4.5,2.62-4.5,9.12,0,11.73l116.65,67.56c4.88,2.83,10.9,2.82,15.77,0Z"/>
        <path class="cls-43" d="M269.3,406.77l100.79-58.45c4.47-2.59,4.47-9.05,0-11.65l-115.73-67.2c-4.85-2.82-10.84-2.82-15.69,0l-100.88,58.57c-4.47,2.6-4.47,9.06,0,11.65l115.84,67.09c4.85,2.81,10.82,2.8,15.66,0Z"/>
        <path class="cls-48" d="M269.2,406.29l100.08-58.04c4.44-2.58,4.44-8.99,0-11.57l-114.92-66.73c-4.82-2.8-10.76-2.8-15.58,0l-100.17,58.16c-4.44,2.58-4.44,8.99,0,11.57l115.03,66.62c4.81,2.79,10.74,2.78,15.55,0Z"/>
        <path class="cls-1" d="M269.09,405.81l99.37-57.64c4.41-2.56,4.41-8.93,0-11.49l-114.11-66.26c-4.78-2.78-10.68-2.78-15.47,0l-99.47,57.75c-4.41,2.56-4.41,8.93,0,11.49l114.22,66.15c4.78,2.77,10.67,2.76,15.44,0Z"/>
        <path class="cls-124" d="M268.98,405.33l98.67-57.23c4.38-2.54,4.38-8.86,0-11.4l-113.3-65.79c-4.75-2.76-10.61-2.76-15.36,0l-98.76,57.34c-4.38,2.54-4.38,8.87,0,11.41l113.41,65.68c4.74,2.75,10.59,2.74,15.33,0Z"/>
        <path class="cls-21" d="M268.87,404.85l97.96-56.82c4.35-2.52,4.35-8.8,0-11.32l-112.49-65.32c-4.71-2.74-10.53-2.74-15.25,0l-98.06,56.93c-4.35,2.52-4.34,8.8,0,11.32l112.6,65.21c4.71,2.73,10.52,2.73,15.22,0Z"/>
        <path class="cls-61" d="M268.77,404.36l97.26-56.41c4.32-2.5,4.32-8.73,0-11.24l-111.68-64.85c-4.68-2.72-10.46-2.72-15.14,0l-97.35,56.52c-4.32,2.51-4.31,8.74,0,11.24l111.79,64.74c4.68,2.71,10.44,2.71,15.11,0Z"/>
        <path class="cls-113" d="M268.66,403.88l96.55-56c4.28-2.48,4.29-8.67,0-11.16l-110.87-64.38c-4.65-2.7-10.38-2.7-15.03,0l-96.64,56.11c-4.28,2.49-4.28,8.68,0,11.16l110.97,64.27c4.64,2.69,10.37,2.69,15.01,0Z"/>
        <path class="cls-71" d="M268.55,403.4l95.85-55.59c4.25-2.47,4.26-8.61,0-11.08l-110.06-63.91c-4.61-2.68-10.31-2.68-14.92,0l-95.94,55.7c-4.25,2.47-4.25,8.61,0,11.08l110.16,63.8c4.61,2.67,10.29,2.67,14.9,0Z"/>
        <path class="cls-103" d="M268.44,402.92l95.14-55.18c4.22-2.45,4.22-8.54,0-11l-109.25-63.44c-4.58-2.66-10.23-2.66-14.81,0l-95.23,55.29c-4.22,2.45-4.22,8.55,0,11l109.35,63.33c4.57,2.65,10.21,2.65,14.79,0Z"/>
        <path class="cls-8" d="M268.34,402.44l94.43-54.77c4.19-2.43,4.19-8.48,0-10.91l-108.44-62.97c-4.54-2.64-10.15-2.64-14.7,0l-94.52,54.88c-4.19,2.43-4.19,8.49,0,10.92l108.54,62.86c4.54,2.63,10.14,2.63,14.68,0Z"/>
        <path class="cls-6" d="M268.23,401.96l93.73-54.36c4.16-2.41,4.16-8.42,0-10.83l-107.63-62.5c-4.51-2.62-10.08-2.62-14.59,0l-93.82,54.47c-4.16,2.42-4.16,8.42,0,10.83l107.73,62.39c4.51,2.61,10.06,2.61,14.57,0Z"/>
      </g>
      <polygon class="cls-66" points="261.65 409.86 382.67 339.67 246.39 260.53 125.25 330.87 261.65 409.86"/>
      <polygon class="cls-13" points="125.25 330.87 125.25 335.77 261.62 414.5 261.65 409.86 125.25 330.87"/>
      <polygon class="cls-89" points="134.93 319.02 154.22 330.15 154.22 341.01 134.93 329.87 134.93 319.02"/>
      <polygon class="cls-13" points="154.22 341.01 267.64 275.81 267.64 264.79 154.22 330.15 154.22 341.01"/>
      <polygon class="cls-89" points="170.54 339.72 189.84 350.86 189.84 361.71 170.54 350.57 170.54 339.72"/>
      <polygon class="cls-13" points="189.84 361.71 303.25 296.52 303.25 285.5 189.84 350.86 189.84 361.71"/>
      <polygon class="cls-89" points="206.16 360.43 225.45 371.57 225.45 382.42 206.16 371.28 206.16 360.43"/>
      <polygon class="cls-13" points="225.45 382.42 338.87 317.23 338.87 306.2 225.45 371.57 225.45 382.42"/>
      <polygon class="cls-89" points="241.78 381.14 261.07 392.28 261.07 403.13 241.78 391.99 241.78 381.14"/>
      <polygon class="cls-13" points="261.07 403.13 374.49 337.93 374.49 326.91 261.07 392.28 261.07 403.13"/>
      <polygon class="cls-66" points="236.15 377.09 356.59 308.69 381.14 323.19 261.62 391.8 236.15 377.09"/>
      <polygon class="cls-56" points="261.25 396.59 381.14 327.37 381.14 323.19 261.62 391.8 261.25 396.59"/>
      <polygon class="cls-66" points="200.53 356.78 320.97 288.38 345.52 302.88 226.01 371.49 200.53 356.78"/>
      <polygon class="cls-56" points="225.63 376.28 345.52 307.06 345.52 302.88 226.01 371.49 225.63 376.28"/>
      <polygon class="cls-66" points="164.91 336.47 285.36 268.06 309.91 282.56 190.39 351.18 164.91 336.47"/>
      <polygon class="cls-56" points="190.01 355.97 309.91 286.75 309.91 282.56 190.39 351.18 190.01 355.97"/>
      <polygon class="cls-66" points="129.3 316.16 249.74 247.75 274.29 262.25 154.77 330.87 129.3 316.16"/>
      <polygon class="cls-56" points="154.4 335.66 274.29 266.44 274.29 262.25 154.77 330.87 154.4 335.66"/>
      <polygon class="cls-56" points="382.67 339.67 382.67 343.06 261.62 414.5 261.65 409.86 382.67 339.67"/>
      <polygon class="cls-13" points="129.3 316.16 129.3 321.17 261.25 396.59 261.62 391.8 129.3 316.16"/>
    </g>
    <g>
      <polygon class="cls-9" points="152.53 257.23 245.78 203.38 298.37 233.74 205.12 287.59 152.53 257.23"/>
      <polygon class="cls-127" points="152.53 257.23 152.53 318.2 205.12 348.56 205.12 287.59 152.53 257.23"/>
      <polygon class="cls-118" points="154.97 262.68 154.97 268.42 168.22 276.06 168.22 270.33 154.97 262.68"/>
      <polygon class="cls-25" points="205.12 348.56 298.37 294.87 298.37 233.9 205.12 287.59 205.12 348.56"/>
      <polygon class="cls-118" points="173.57 330.34 173.57 269.37 184.08 275.44 184.08 336.41 173.57 330.34"/>
      <polygon class="cls-118" points="173.57 269.37 266.84 215.65 277.73 221.56 184.08 275.44 173.57 269.37"/>
    </g>
    <g>
      <polygon class="cls-95" points="212.52 292.14 305.77 238.29 358.36 268.65 265.11 322.5 212.52 292.14"/>
      <polygon class="cls-109" points="212.52 292.14 212.52 353.11 265.11 383.47 265.11 322.5 212.52 292.14"/>
      <polygon class="cls-118" points="214.96 297.59 214.96 303.33 228.2 310.98 228.2 305.24 214.96 297.59"/>
      <polygon class="cls-30" points="265.11 383.47 358.36 329.78 358.36 268.81 265.11 322.5 265.11 383.47"/>
      <polygon class="cls-118" points="233.55 365.25 233.55 304.28 244.07 310.36 244.07 371.33 233.55 365.25"/>
      <polygon class="cls-118" points="233.55 304.28 326.83 250.56 337.71 256.47 244.07 310.36 233.55 304.28"/>
    </g>
    <g>
      <polygon class="cls-120" points="184.73 213.6 277.99 159.75 330.58 190.11 237.32 243.96 184.73 213.6"/>
      <polygon class="cls-126" points="184.73 213.6 184.73 274.57 237.32 304.93 237.32 243.96 184.73 213.6"/>
      <polygon class="cls-118" points="187.17 219.05 187.17 224.79 200.42 232.44 200.42 226.7 187.17 219.05"/>
      <polygon class="cls-2" points="237.32 304.93 330.58 251.24 330.58 190.27 237.32 243.96 237.32 304.93"/>
      <polygon class="cls-118" points="205.77 286.72 205.77 225.74 216.29 231.82 216.29 292.79 205.77 286.72"/>
      <polygon class="cls-118" points="205.77 225.74 299.05 172.02 309.93 177.93 216.29 231.82 205.77 225.74"/>
    </g>
  </g>
  <g>
    <g class="cls-138">
      <polygon class="cls-112" points="440.26 387.93 736.45 559.95 627.94 623.06 333.32 449.67 440.26 387.93"/>
      <polygon class="cls-64" points="440.26 387.93 730.88 556.71 622.41 619.81 333.32 449.67 440.26 387.93"/>
      <polygon class="cls-117" points="440.26 387.93 725.32 553.48 616.88 616.55 333.32 449.67 440.26 387.93"/>
      <polygon class="cls-90" points="440.26 387.93 719.75 550.25 611.35 613.3 333.32 449.67 440.26 387.93"/>
      <polygon class="cls-131" points="440.26 387.93 714.18 547.01 605.82 610.04 333.32 449.67 440.26 387.93"/>
      <polygon class="cls-130" points="440.26 387.93 708.61 543.78 600.29 606.79 333.32 449.67 440.26 387.93"/>
      <polygon class="cls-40" points="440.26 387.93 703.05 540.54 594.75 603.53 333.32 449.67 440.26 387.93"/>
      <polygon class="cls-14" points="440.26 387.93 697.48 537.31 589.22 600.28 333.32 449.67 440.26 387.93"/>
      <polygon class="cls-91" points="440.26 387.93 691.91 534.08 583.69 597.02 333.32 449.67 440.26 387.93"/>
      <polygon class="cls-100" points="440.26 387.93 686.35 530.84 578.16 593.77 333.32 449.67 440.26 387.93"/>
      <polygon class="cls-104" points="440.26 387.93 680.78 527.61 572.63 590.51 333.32 449.67 440.26 387.93"/>
      <polygon class="cls-80" points="440.26 387.93 675.21 524.37 567.1 587.26 333.32 449.67 440.26 387.93"/>
      <polygon class="cls-62" points="440.26 387.93 669.65 521.14 561.57 584 333.32 449.67 440.26 387.93"/>
      <polygon class="cls-63" points="440.26 387.93 664.08 517.91 556.04 580.75 333.32 449.67 440.26 387.93"/>
      <polygon class="cls-105" points="440.26 387.93 658.51 514.67 550.51 577.49 333.32 449.67 440.26 387.93"/>
      <polygon class="cls-73" points="440.26 387.93 652.94 511.44 544.98 574.24 333.32 449.67 440.26 387.93"/>
      <polygon class="cls-81" points="440.26 387.93 647.38 508.2 539.44 570.98 333.32 449.67 440.26 387.93"/>
      <polygon class="cls-102" points="440.26 387.93 641.81 504.97 533.91 567.73 333.32 449.67 440.26 387.93"/>
      <polygon class="cls-135" points="440.26 387.93 636.24 501.74 528.38 564.47 333.32 449.67 440.26 387.93"/>
      <polygon class="cls-79" points="440.26 387.93 630.68 498.5 522.85 561.22 333.32 449.67 440.26 387.93"/>
      <polygon class="cls-44" points="440.26 387.93 625.11 495.27 517.32 557.96 333.32 449.67 440.26 387.93"/>
      <polygon class="cls-60" points="440.26 387.93 619.54 492.03 511.79 554.71 333.32 449.67 440.26 387.93"/>
      <polygon class="cls-28" points="440.26 387.93 613.97 488.8 506.26 551.45 333.32 449.67 440.26 387.93"/>
      <polygon class="cls-97" points="440.26 387.93 608.41 485.57 500.73 548.2 333.32 449.67 440.26 387.93"/>
      <polygon class="cls-36" points="440.26 387.93 602.84 482.33 495.2 544.94 333.32 449.67 440.26 387.93"/>
      <polygon class="cls-49" points="440.26 387.93 597.27 479.1 489.67 541.69 333.32 449.67 440.26 387.93"/>
      <polygon class="cls-20" points="440.26 387.93 591.71 475.86 484.14 538.43 333.32 449.67 440.26 387.93"/>
      <polygon class="cls-129" points="440.26 387.93 586.14 472.63 478.6 535.18 333.32 449.67 440.26 387.93"/>
      <polygon class="cls-106" points="440.26 387.93 580.57 469.4 473.07 531.92 333.32 449.67 440.26 387.93"/>
      <polygon class="cls-29" points="440.26 387.93 575 466.16 467.54 528.67 333.32 449.67 440.26 387.93"/>
      <polygon class="cls-98" points="440.26 387.93 569.44 462.93 462.01 525.41 333.32 449.67 440.26 387.93"/>
      <polygon class="cls-26" points="440.26 387.93 563.87 459.69 456.48 522.16 333.32 449.67 440.26 387.93"/>
      <polygon class="cls-17" points="440.26 387.93 558.3 456.46 450.95 518.9 333.32 449.67 440.26 387.93"/>
      <polygon class="cls-55" points="440.26 387.93 552.74 453.23 445.42 515.65 333.32 449.67 440.26 387.93"/>
      <polygon class="cls-18" points="440.26 387.93 547.17 449.99 439.89 512.39 333.32 449.67 440.26 387.93"/>
      <polygon class="cls-58" points="440.26 387.93 541.6 446.76 434.36 509.14 333.32 449.67 440.26 387.93"/>
      <polygon class="cls-69" points="440.26 387.93 536.03 443.52 428.83 505.88 333.32 449.67 440.26 387.93"/>
      <polygon class="cls-74" points="440.26 387.93 530.47 440.29 423.29 502.63 333.32 449.67 440.26 387.93"/>
      <polygon class="cls-111" points="440.26 387.93 524.9 437.05 417.76 499.37 333.32 449.67 440.26 387.93"/>
      <polygon class="cls-7" points="440.26 387.93 519.33 433.82 412.23 496.12 333.32 449.67 440.26 387.93"/>
      <polygon class="cls-47" points="440.26 387.93 513.77 430.59 406.7 492.86 333.32 449.67 440.26 387.93"/>
      <polygon class="cls-125" points="440.26 387.93 508.2 427.35 401.17 489.61 333.32 449.67 440.26 387.93"/>
      <polygon class="cls-42" points="440.26 387.93 502.63 424.12 395.64 486.35 333.32 449.67 440.26 387.93"/>
      <polygon class="cls-132" points="440.26 387.93 497.07 420.88 390.11 483.1 333.32 449.67 440.26 387.93"/>
      <polygon class="cls-76" points="440.26 387.93 491.5 417.65 384.58 479.84 333.32 449.67 440.26 387.93"/>
      <polygon class="cls-3" points="440.26 387.93 485.93 414.42 379.05 476.59 333.32 449.67 440.26 387.93"/>
      <polygon class="cls-101" points="440.26 387.93 480.36 411.18 373.52 473.33 333.32 449.67 440.26 387.93"/>
      <polygon class="cls-136" points="440.26 387.93 474.8 407.95 367.98 470.08 333.32 449.67 440.26 387.93"/>
      <polygon class="cls-137" points="440.26 387.93 469.23 404.71 362.45 466.82 333.32 449.67 440.26 387.93"/>
      <polygon class="cls-12" points="440.26 387.93 463.66 401.48 356.92 463.57 333.32 449.67 440.26 387.93"/>
      <polygon class="cls-119" points="440.26 387.93 458.1 398.25 351.39 460.31 333.32 449.67 440.26 387.93"/>
      <polygon class="cls-66" points="440.26 387.93 452.53 395.01 345.86 457.06 333.32 449.67 440.26 387.93"/>
    </g>
    <g>
      <g>
        <polygon class="cls-30" points="421.1 377.3 514.14 430.38 434.31 476.47 341.82 423.07 421.1 377.3"/>
        <polygon class="cls-85" points="421.1 377.3 514.14 430.38 434.31 476.47 341.82 423.07 421.1 377.3"/>
        <polygon class="cls-51" points="421.83 347.22 421.83 377.73 366.08 409.91 366.08 378.15 421.83 347.22"/>
        <polygon class="cls-109" points="421.83 347.22 421.83 377.73 366.08 409.91 366.08 378.15 421.83 347.22"/>
        <polygon class="cls-30" points="335.41 374.61 402.08 336.12 421.83 347.22 368.37 378.15 335.41 374.61"/>
        <polygon class="cls-2" points="391.29 462.71 417.45 468.83 434.77 456.59 409.54 442.82 391.29 462.71"/>
        <path class="cls-2" d="M363.01,439.94l-.04-.19c1.96-1.99,3.12-5.16,3.11-9.3-.03-10.43-7.41-23.22-16.4-28.41-4.14-2.39-7.93-2.77-10.82-1.47h0c-.55.24-1.06.55-1.53.91l-17.21,10.25,16.48,16.97,1.2-1.67c1.89,3.42,4.28,6.59,6.97,9.14l-2.23,15.52,17.52-10.04c.86-.31,1.64-.76,2.34-1.34l.63-.36Z"/>
        <path class="cls-2" d="M452.44,491.05l-.04-.19c1.96-1.99,3.12-5.16,3.11-9.3-.03-10.43-7.41-23.22-16.4-28.41-4.14-2.39-7.94-2.77-10.82-1.47h0c-.55.24-1.06.55-1.53.91l-17.21,10.25,16.48,16.97,1.2-1.67c1.89,3.42,4.28,6.59,6.97,9.14l-2.23,15.52,17.52-10.04c.85-.31,1.64-.76,2.34-1.34l.63-.36Z"/>
        <g>
          <circle class="cls-41" cx="425.81" cy="413.7" r="8.1" transform="translate(-74.39 733.48) rotate(-76.76)"/>
          <path class="cls-72" d="M457.34,452.29c-1.76-1.01-1.76-2.67,0-3.69s4.63-1.01,6.39,0c1.76,1.01,1.76,2.67,0,3.69-1.76,1.01-4.63,1.01-6.39,0Z"/>
          <path class="cls-72" d="M444.6,459.88c-1.76-1.01-1.76-2.67,0-3.69,1.76-1.01,4.63-1.01,6.39,0,1.76,1.01,1.76,2.67,0,3.69-1.76,1.01-4.63,1.01-6.39,0Z"/>
          <path class="cls-2" d="M460.43,453.28c-3.05,0-5.52-2.47-5.52-5.52v-8.39c0-5.02-2.7-9.69-7.05-12.19l-20.81-11.02c-4.26-2.45-5.24-7.03-5.24-11.94v-1.2c0-3.05,2.47-5.52,5.52-5.52s5.52,2.47,5.52,5.52v1.2c0,.97.52,1.88,1.37,2.36l19.15,11.02c7.76,4.47,12.58,12.81,12.58,21.76v8.39c0,3.05-2.47,5.52-5.52,5.52Z"/>
          <path class="cls-2" d="M447.72,460.46c-3.05,0-5.52-2.47-5.52-5.52v-8.39c0-5.02-2.7-9.69-7.05-12.19l-21.36-9.92c-4.26-2.45-4.69-8.13-4.69-13.04v-1.2c0-3.05,2.47-5.52,5.52-5.52s5.52,2.47,5.52,5.52v1.2c0,.97.52,1.88,1.37,2.36l19.15,11.02c7.76,4.47,12.58,12.81,12.58,21.76v8.39c0,3.05-2.47,5.52-5.52,5.52Z"/>
          <path class="cls-2" d="M439.8,417.62c-1.83,0-3.31-1.48-3.31-3.31v-12.9c0-7.66-1.06-11.33-3.14-18.71l-3.86-13.68c-.5-1.76.53-3.59,2.29-4.09,1.76-.5,3.59.53,4.09,2.29l3.86,13.68c2.25,7.96,3.39,12.24,3.39,20.51v12.9c0,1.83-1.48,3.31-3.31,3.31Z"/>
          <path class="cls-2" d="M422.11,357.66l-2.73,1.57c-9.05,5.22-15.15,14.37-16.46,24.73-1.51,11.9,3.14,33.86,3.14,33.86,13.66-.77,27.59-14.52,27.59-14.52-2.41-15.36,2.5-23.14,2.6-33.45.05-5.45-7.6-15.97-14.14-12.2Z"/>
          <path class="cls-45" d="M419.47,353.49h2.77c.97,0,1.76.79,1.76,1.76v9.2c0,1.25-1.02,2.27-2.27,2.27h-1.75c-1.25,0-2.27-1.02-2.27-2.27v-9.2c0-.97.79-1.76,1.76-1.76Z"/>
          <path class="cls-45" d="M427.74,427.47c-.99,0-1.97-.44-2.62-1.28l-9.91-12.75c-5.4-6.94-8.13-15.6-7.71-24.38l.79-12.45c.09-1.83,1.65-3.25,3.47-3.15,1.83.09,3.24,1.64,3.15,3.47l-.79,12.45c-.35,7.2,1.9,14.3,6.32,19.99l9.91,12.75c1.12,1.45.86,3.53-.58,4.65-.61.47-1.32.7-2.03.7Z"/>
          <path class="cls-45" d="M429.87,420.65l-9.48-3.55c-.67-.25-1.01-1-.76-1.67h0c.25-.67,1-1.01,1.67-.76l9.48,3.55c.67.25,1.01,1,.76,1.67h0c-.25.67-1,1.01-1.67.76Z"/>
          <path class="cls-68" d="M418.6,400.99c-2.15-3.88-4.09-8.35-3.94-11.59,0,0-.36-12.53-2.49-12.63-2.1-.09-3.23-2.32-3.34-.19l-.79,12.45c-.42,8.86,2.32,17.59,7.72,24.61l1.09,1.27c2.92-1.33,5.65-2.95,8.03-4.57-2.33-2.95-4.46-6.06-6.28-9.35Z"/>
          <path class="cls-2" d="M424.31,413.77l-3.23-4.46s-6.75-12.84-6.41-19.91l.79-12.45c.1-2.13-1.54-3.95-3.68-4.05-2.1-.09-3.94,1.54-4.05,3.68l-.79,12.45c-.43,8.86,2.32,17.59,7.72,24.61l4.4,5.11,5.24-4.98Z"/>
          <path class="cls-45" d="M414.85,339.12h17.67v11.74c0,4.27-3.47,7.74-7.74,7.74h-9.27c-.37,0-.67-.3-.67-.67v-18.8h0Z" transform="translate(76.49 -76.19) rotate(11.29)"/>
          <path class="cls-2" d="M437.08,340.14c-.29-1.41-1.5-2.48-2.95-2.51-1.24-.03-2.74-.38-3.85-1.61-1.59-1.76-4.09-2.52-6.42-2.97-2.33-.45-5,.11-6.46,1.99-.95-1.23-2.97-1.12-4.18-.15-1.22.97-1.81,2.51-2.27,3.99-.92,2.96-1.52,6.12-.84,9.14.17.76.42,1.5.68,2.24.64,1.87.86,3.82,1.6,5.66.1.24.21.49.42.64.31.22.74.15,1.05-.07.3-.22.5-.56.66-.89.77-1.63-.08-2.53-.02-4.19.03-.89.45-1.83,1.25-2.23,1.07-.54,2.34.02,3.52.22,2.78.49,8.75-2.44,7.04-6.01,3.85,1.05,9.33,1.57,10.77-3.25h0Z"/>
        </g>
        <path class="cls-30" d="M357.52,371.89l10.85,6.26v23.03c0,4.63,2.47,8.92,6.48,11.23l42.4,24.48c7.64,4.41,17.19-1.1,17.19-9.92v-10.67l26.43,15.26,6.15,80.06-19.03-10.99v-13.96c0-10.24-5.47-19.71-14.34-24.83l-10.82-6.25c-6.44-3.72-14.48.93-14.48,8.36v13.62l-52.85-30.35v-13.75c0-10.35-5.58-19.91-14.61-24.99l-12.15-6.84v-13.13c0-14.78,16-24.01,28.8-16.63Z"/>
        <path class="cls-13" d="M422.73,462.66c-9-5.19-16.36-.92-16.36,9.5s7.38,23.2,16.4,28.41c9.02,5.21,16.38.94,16.36-9.5-.03-10.43-7.41-23.22-16.4-28.41Z"/>
        <path class="cls-52" d="M422.74,471.79c-4.67-2.69-8.48-.48-8.48,4.93s3.83,12.03,8.51,14.74c4.68,2.7,8.5.48,8.48-4.93-.01-5.41-3.84-12.04-8.51-14.74Z"/>
        <path class="cls-22" d="M422.74,474.46c4.28,2.47,7.85,8.25,8.42,13.37.05-.42.09-.85.09-1.31-.01-5.41-3.84-12.04-8.51-14.74-4.67-2.69-8.48-.48-8.48,4.93,0,.45.04.92.09,1.39.57-4.45,4.12-6.11,8.39-3.64Z"/>
        <path class="cls-13" d="M333.3,411.56c-9-5.2-16.36-.92-16.36,9.5s7.38,23.2,16.4,28.41c9.02,5.21,16.38.94,16.36-9.5-.03-10.43-7.41-23.22-16.4-28.41Z"/>
        <path class="cls-52" d="M333.31,420.68c-4.67-2.69-8.48-.48-8.48,4.93s3.83,12.03,8.51,14.74c4.68,2.7,8.5.48,8.48-4.93-.01-5.41-3.84-12.04-8.51-14.74Z"/>
        <path class="cls-22" d="M333.31,423.36c4.28,2.47,7.85,8.25,8.42,13.37.05-.42.09-.85.09-1.31-.01-5.41-3.84-12.04-8.51-14.74-4.67-2.69-8.48-.48-8.48,4.93,0,.45.04.92.09,1.39.57-4.45,4.12-6.11,8.4-3.64Z"/>
        <polygon class="cls-95" points="434.44 416.3 487.89 385.36 514.32 400.62 460.86 431.55 434.44 416.3"/>
        <polygon class="cls-109" points="467.01 511.61 460.86 431.55 514.32 400.62 519.86 481.62 467.01 511.61"/>
        <polygon class="cls-2" points="364.61 376.28 364.61 308.47 368.16 310.51 368.16 378.29 364.61 376.28"/>
        <polygon class="cls-126" points="368.16 310.51 371.7 308.47 371.7 376.28 368.16 378.29 368.16 310.51"/>
        <polygon class="cls-2" points="447.51 423.91 422.39 300 430.83 304.87 455.95 428.68 447.51 423.91"/>
        <polygon class="cls-126" points="430.83 304.87 439.26 300 464.39 423.91 455.95 428.68 430.83 304.87"/>
        <polygon class="cls-2" points="489.08 399.96 471.17 310.97 479.61 315.84 497.51 404.73 489.08 399.96"/>
        <polygon class="cls-126" points="479.61 315.84 488.04 310.97 505.95 399.96 497.51 404.73 479.61 315.84"/>
        <polygon class="cls-2" points="361.2 308.38 431.24 267.94 501.29 308.38 431.55 349 361.2 308.38"/>
        <polygon class="cls-30" points="374.26 309.12 433.99 275.24 444.81 281.48 385.13 315.39 374.26 309.12"/>
        <polygon class="cls-30" points="395.56 321.46 455.28 287.58 466.1 293.82 406.42 327.73 395.56 321.46"/>
        <polygon class="cls-30" points="416.85 333.8 476.58 299.92 487.39 306.17 427.71 340.07 416.85 333.8"/>
        <polygon class="cls-126" points="361.2 308.47 361.2 313.8 431.24 354.45 431.55 349.09 361.2 308.47"/>
        <polygon class="cls-27" points="431.24 354.45 501.29 314.01 501.29 308.47 431.55 349.09 431.24 354.45"/>
        <polygon class="cls-2" points="462.44 443.4 538.4 399.55 538.4 412.07 462.44 455.93 462.44 443.4"/>
        <polygon class="cls-126" points="462.44 443.4 459.89 441.79 459.89 454.32 462.44 455.93 462.44 443.4"/>
        <polygon class="cls-120" points="459.89 441.93 535.85 398.08 538.4 399.55 462.44 443.4 459.89 441.93"/>
        <polygon class="cls-2" points="462.44 471.17 538.4 427.32 538.4 439.84 462.44 483.7 462.44 471.17"/>
        <polygon class="cls-126" points="462.44 471.17 459.89 469.56 459.89 482.09 462.44 483.7 462.44 471.17"/>
        <polygon class="cls-120" points="459.89 469.7 535.85 425.85 538.4 427.32 462.44 471.17 459.89 469.7"/>
        <polygon class="cls-2" points="513.49 343.18 513.49 500.24 522.11 505.5 522.11 357.52 513.49 343.18"/>
        <polygon class="cls-126" points="522.11 357.52 531.15 352.78 531.15 500.24 522.11 505.5 522.11 357.52"/>
        <polygon class="cls-120" points="513.49 343.18 522.11 337.96 531.15 352.78 522.11 357.52 513.49 343.18"/>
        <polygon class="cls-2" points="471.49 366.92 471.49 523.98 480.11 529.23 480.11 381.26 471.49 366.92"/>
        <polygon class="cls-126" points="480.11 381.26 489.15 376.52 489.15 523.98 480.11 529.23 480.11 381.26"/>
        <polygon class="cls-120" points="471.49 366.92 480.11 361.7 489.15 376.52 480.11 381.26 471.49 366.92"/>
        <path class="cls-120" d="M477.28,517.8l85.64,50.13c4.52,2.65,10.13,2.61,14.62-.1h0c3.32-2.01,3.26-6.84-.1-8.77l-86.5-49.67-13.66,5.81v2.61Z"/>
        <path class="cls-120" d="M518.91,493.8l85.64,50.21c4.52,2.65,10.13,2.61,14.62-.1h0c3.32-2.01,3.26-6.84-.1-8.77l-86.5-49.67-13.66,5.81v2.53Z"/>
        <path class="cls-2" d="M477.28,515.2l86.36,50.6c4.52,2.65,10.13,2.61,14.62-.1h0c3.32-2.01,3.26-6.84-.1-8.77l-86.5-49.67-14.37,7.94Z"/>
        <path class="cls-2" d="M518.91,491.28l86.36,50.6c4.52,2.65,10.13,2.61,14.62-.1h0c3.32-2.01,3.26-6.84-.1-8.77l-86.5-49.67-14.37,7.94Z"/>
      </g>
      <g>
        <polygon class="cls-9" points="464.29 468.35 575.28 404.26 637.87 440.4 526.88 504.49 464.29 468.35"/>
        <polygon class="cls-127" points="464.29 468.35 464.29 540.92 526.88 577.05 526.88 504.49 464.29 468.35"/>
        <polygon class="cls-118" points="467.2 474.84 467.2 481.67 482.97 490.77 482.97 483.94 467.2 474.84"/>
        <polygon class="cls-25" points="526.88 577.05 637.87 513.15 637.87 440.59 526.88 504.49 526.88 577.05"/>
        <polygon class="cls-118" points="489.33 555.37 489.33 482.81 501.85 490.03 501.85 562.6 489.33 555.37"/>
        <polygon class="cls-118" points="489.33 482.81 600.35 418.87 613.3 425.91 501.85 490.03 489.33 482.81"/>
      </g>
    </g>
  </g>
</svg>