<?xml version="1.0" encoding="UTF-8"?>
<svg xmlns="http://www.w3.org/2000/svg" xmlns:xlink="http://www.w3.org/1999/xlink" viewBox="0 0 1028.1 805.3">
  <defs>
    <style>
      .cls-1 {
        opacity: .02;
      }

      .cls-1, .cls-2, .cls-3, .cls-4, .cls-5, .cls-6, .cls-7, .cls-8, .cls-9, .cls-10, .cls-11, .cls-12, .cls-13, .cls-14, .cls-15, .cls-16, .cls-17, .cls-18, .cls-19, .cls-20, .cls-21, .cls-22, .cls-23, .cls-24, .cls-25, .cls-26, .cls-27, .cls-28, .cls-29, .cls-30, .cls-31, .cls-32, .cls-33, .cls-34, .cls-35, .cls-36, .cls-37, .cls-38, .cls-39, .cls-40, .cls-41, .cls-42, .cls-43, .cls-44, .cls-45, .cls-46, .cls-47, .cls-48, .cls-49, .cls-50, .cls-51, .cls-52, .cls-53, .cls-54, .cls-55, .cls-56, .cls-57, .cls-58, .cls-59, .cls-60, .cls-61, .cls-62, .cls-63, .cls-64, .cls-65, .cls-66, .cls-67, .cls-68, .cls-69, .cls-70, .cls-71, .cls-72, .cls-73, .cls-74, .cls-75, .cls-76, .cls-77, .cls-78, .cls-79, .cls-80, .cls-81, .cls-82, .cls-83, .cls-84, .cls-85, .cls-86, .cls-87, .cls-88, .cls-89, .cls-90, .cls-91, .cls-92, .cls-93, .cls-94, .cls-95, .cls-96, .cls-97, .cls-98, .cls-99, .cls-100, .cls-101, .cls-102, .cls-103, .cls-104, .cls-105, .cls-106 {
        stroke-width: 0px;
      }

      .cls-1, .cls-5, .cls-12, .cls-16, .cls-17, .cls-18, .cls-20, .cls-21, .cls-22, .cls-30, .cls-31, .cls-34, .cls-35, .cls-40, .cls-41, .cls-42, .cls-45, .cls-48, .cls-49, .cls-59, .cls-61, .cls-63, .cls-67, .cls-72, .cls-73, .cls-75, .cls-76, .cls-78, .cls-80, .cls-86, .cls-89, .cls-96, .cls-99, .cls-103 {
        fill: #99a7d8;
      }

      .cls-2 {
        fill: #48486a;
      }

      .cls-3 {
        fill: #535373;
        opacity: .94;
      }

      .cls-4 {
        fill: #b7b7c5;
        opacity: .39;
      }

      .cls-5 {
        opacity: .34;
      }

      .cls-6, .cls-50 {
        fill: #363650;
      }

      .cls-7 {
        fill: #5c629e;
      }

      .cls-8 {
        fill: #a2a2b3;
        opacity: .51;
      }

      .cls-9 {
        fill: #b7a092;
      }

      .cls-10 {
        fill: #d8d8df;
        opacity: .22;
      }

      .cls-11 {
        fill: #7e7e96;
        opacity: .71;
      }

      .cls-12 {
        opacity: .71;
      }

      .cls-13 {
        fill: #7d81b1;
      }

      .cls-14 {
        fill: url(#linear-gradient);
      }

      .cls-15 {
        fill: #c2c2cd;
        opacity: .33;
      }

      .cls-16 {
        opacity: .63;
      }

      .cls-17 {
        opacity: .73;
      }

      .cls-18 {
        opacity: .54;
      }

      .cls-19 {
        fill: #89899f;
        opacity: .65;
      }

      .cls-107, .cls-50 {
        opacity: .5;
      }

      .cls-20 {
        opacity: .32;
      }

      .cls-21 {
        opacity: .05;
      }

      .cls-22 {
        opacity: .24;
      }

      .cls-23 {
        fill: #dfdfe5;
        opacity: .18;
      }

      .cls-24, .cls-80 {
        opacity: 0;
      }

      .cls-24, .cls-84 {
        fill: #fff;
      }

      .cls-25 {
        fill: #a58877;
      }

      .cls-26 {
        fill: #c6c6d0;
        opacity: .31;
      }

      .cls-27 {
        fill: #dbdbe2;
        opacity: .2;
      }

      .cls-28 {
        fill: #edbd6a;
      }

      .cls-29 {
        fill: #fbfbfc;
        opacity: .02;
      }

      .cls-30 {
        opacity: .07;
      }

      .cls-31 {
        opacity: .51;
      }

      .cls-32 {
        fill: #d6dcef;
      }

      .cls-108 {
        isolation: isolate;
      }

      .cls-33 {
        fill: #6c6c87;
        opacity: .8;
      }

      .cls-34 {
        opacity: .61;
      }

      .cls-35 {
        opacity: .27;
      }

      .cls-36 {
        fill: #f2b1b5;
      }

      .cls-37 {
        fill: #656581;
        opacity: .84;
      }

      .cls-38 {
        fill: #8c8ca2;
        opacity: .63;
      }

      .cls-39 {
        fill: #85859c;
        opacity: .67;
      }

      .cls-40 {
        opacity: .68;
      }

      .cls-41 {
        opacity: .46;
      }

      .cls-43 {
        fill: #e9e9ed;
        opacity: .12;
      }

      .cls-44 {
        fill: #f6f8fb;
      }

      .cls-45 {
        opacity: .12;
      }

      .cls-46 {
        fill: #565676;
        opacity: .92;
      }

      .cls-47 {
        fill: #bebeca;
        opacity: .35;
      }

      .cls-48 {
        opacity: .49;
      }

      .cls-49 {
        opacity: .15;
      }

      .cls-51 {
        fill: #777790;
        opacity: .75;
      }

      .cls-52 {
        fill: #7a7a93;
        opacity: .73;
      }

      .cls-53 {
        fill: #e2e2e8;
        opacity: .16;
      }

      .cls-109, .cls-74 {
        opacity: .3;
      }

      .cls-54 {
        fill: #f8f8f9;
        opacity: .04;
      }

      .cls-55 {
        fill: #ededf0;
        opacity: .1;
      }

      .cls-56 {
        fill: #f3f8fe;
      }

      .cls-57 {
        fill: #fafbfd;
      }

      .cls-58 {
        fill: url(#linear-gradient-2);
      }

      .cls-59 {
        opacity: .1;
      }

      .cls-60 {
        fill: #9e9eb0;
        opacity: .53;
      }

      .cls-61 {
        opacity: .66;
      }

      .cls-62 {
        fill: #e6e6eb;
        opacity: .14;
      }

      .cls-63 {
        opacity: .59;
      }

      .cls-64 {
        fill: #fdfeff;
      }

      .cls-65 {
        fill: #686884;
        opacity: .82;
      }

      .cls-66 {
        fill: #73738d;
        opacity: .76;
      }

      .cls-67 {
        opacity: .41;
      }

      .cls-68 {
        fill: #eef1f8;
      }

      .cls-69 {
        fill: #9b9bad;
        opacity: .55;
      }

      .cls-70 {
        opacity: .9;
      }

      .cls-70, .cls-95 {
        fill: #5a5a79;
      }

      .cls-71 {
        fill: #d4d4dc;
        opacity: .24;
      }

      .cls-72 {
        opacity: .56;
      }

      .cls-73 {
        opacity: .39;
      }

      .cls-74 {
        fill: #151617;
      }

      .cls-75 {
        opacity: .22;
      }

      .cls-76 {
        opacity: .29;
      }

      .cls-77 {
        fill: #9797aa;
        opacity: .57;
      }

      .cls-78 {
        opacity: .37;
      }

      .cls-79 {
        fill: #4c4c6d;
        opacity: .98;
      }

      .cls-110 {
        mix-blend-mode: multiply;
        opacity: .6;
      }

      .cls-81 {
        fill: #b0b0bf;
        opacity: .43;
      }

      .cls-82 {
        fill: #eff4fe;
      }

      .cls-83 {
        fill: #b4b4c2;
        opacity: .41;
      }

      .cls-85 {
        fill: #6f6f8a;
        opacity: .78;
      }

      .cls-86 {
        opacity: .2;
      }

      .cls-87 {
        fill: #cdcdd6;
        opacity: .27;
      }

      .cls-88 {
        fill: #d0d0d9;
        opacity: .25;
      }

      .cls-89 {
        opacity: .15;
      }

      .cls-90 {
        fill: #f4f4f6;
        opacity: .06;
      }

      .cls-91 {
        fill: #bbbbc7;
        opacity: .37;
      }

      .cls-92 {
        fill: #c9c9d3;
        opacity: .29;
      }

      .cls-93 {
        fill: #9393a7;
        opacity: .59;
      }

      .cls-94 {
        fill: #5e5e7c;
        opacity: .88;
      }

      .cls-96 {
        opacity: .78;
      }

      .cls-97 {
        fill: #f1f1f3;
        opacity: .08;
      }

      .cls-98 {
        fill: #4f4f70;
        opacity: .96;
      }

      .cls-99 {
        opacity: .17;
      }

      .cls-100 {
        fill: #acacbc;
        opacity: .45;
      }

      .cls-101 {
        fill: #818199;
        opacity: .69;
      }

      .cls-102 {
        fill: #a9a9b9;
        opacity: .47;
      }

      .cls-103 {
        opacity: .44;
      }

      .cls-104 {
        fill: #61617e;
        opacity: .86;
      }

      .cls-105 {
        fill: #a5a5b6;
        opacity: .49;
      }

      .cls-106 {
        fill: #9090a4;
        opacity: .61;
      }
    </style>
    <linearGradient id="linear-gradient" x1="0" y1="504.56" x2="1028.1" y2="504.56" gradientUnits="userSpaceOnUse">
      <stop offset="0" stop-color="#99a7d8"/>
      <stop offset=".27" stop-color="#acb8df"/>
      <stop offset=".73" stop-color="#c8d0e9"/>
      <stop offset="1" stop-color="#d3daed"/>
    </linearGradient>
    <linearGradient id="linear-gradient-2" x1="-2767.71" y1="427.82" x2="-2237.64" y2="427.82" gradientTransform="translate(-1997.55) rotate(-180) scale(1 -1)" gradientUnits="userSpaceOnUse">
      <stop offset="0" stop-color="#d3daed"/>
      <stop offset=".24" stop-color="#cbd3ea"/>
      <stop offset=".59" stop-color="#b8c2e3"/>
      <stop offset="1" stop-color="#99a7d8"/>
    </linearGradient>
  </defs>
  <g class="cls-108">
    <g id="Graphics">
      <path class="cls-14" d="M1028.1,504.56l-.03-48.31-484.52-244.72c-17.59-10.24-39.31-10.28-56.93-.1L0,456.24v48.26H0c0,7.1,3.5,14.19,10.53,18.25l476.21,274.94c17.56,10.14,39.19,10.14,56.75,0l474.09-273.71c7.41-4.28,10.91-11.95,10.49-19.43h.04Z"/>
      <path class="cls-82" d="M486.62,163.1L10.53,437.98c-14.03,8.1-14.03,28.36,0,36.46l476.21,274.94c17.56,10.14,39.19,10.14,56.75,0l474.09-273.71c14.01-8.09,14.04-28.29.07-36.42l-474.09-276.04c-17.59-10.24-39.31-10.28-56.93-.1Z"/>
      <g>
        <path class="cls-2" d="M232.5,482.15v-6.41l341.77-200.75c6.42-3.7,13.96-5.97,20.38-2.26l179.43,103.01c1.71.98,3.09,2.46,3.95,4.24l1,2.06c3.8,7.83.91,17.26-6.63,21.61l-335.47,193.61c-6.42,3.7-16.92,3.7-23.33,0l-171.7-98.83c-5.83-3.35-9.42-9.57-9.42-16.29Z"/>
        <path class="cls-56" d="M237.31,480.66c-6.42-3.71-6.42-9.77,0-13.47l336.01-194c6.41-3.7,16.91-3.7,23.33,0l176.3,101.79c6.42,3.7,6.42,9.77,0,13.47l-336.01,194c-6.42,3.71-16.92,3.71-23.33,0l-176.3-101.79Z"/>
        <path class="cls-58" d="M244.73,480.15c-6.18-3.57-6.18-9.4,0-12.97l328.63-189.68c6.18-3.57,16.28-3.57,22.46,0l30.82,18.26c1.88,1.1,2,3.78.21,5.04l-3.4,2.39c-2.27,1.31-2.27,4.59,0,5.9l83.87,48.13c2.23,1.29,4.96,1.33,7.23.11l7.28-3.92c1.67-.9,3.69-.87,5.33.08l38.39,22.02c6.18,3.57,6.18,9.4,0,12.97l-328.63,189.68c-6.18,3.57-16.28,3.57-22.46,0l-169.72-97.99Z"/>
        <path class="cls-13" d="M688.38,338.41c-.18,0-.36-.05-.52-.14l-36.99-21.3c-.5-.29-.67-.92-.38-1.42.29-.5.92-.67,1.42-.38l36.98,21.3c.5.29.67.92.38,1.42-.19.33-.54.52-.9.52Z"/>
      </g>
      <g class="cls-110">
        <path class="cls-24" d="M422.03,494.24c43.69,25.23,115.19,25.23,158.89,0,43.69-25.23,43.69-66.51,0-91.73-43.69-25.23-115.19-25.23-158.89,0-43.69,25.23-43.69,66.51,0,91.73Z"/>
        <path class="cls-29" d="M423.42,493.44c42.93,24.78,113.18,24.78,156.1,0,42.93-24.78,42.93-65.34,0-90.13-42.93-24.78-113.18-24.78-156.1,0-42.93,24.79-42.93,65.34,0,90.13Z"/>
        <path class="cls-54" d="M424.82,492.64c42.16,24.34,111.16,24.34,153.32,0,42.16-24.34,42.16-64.18,0-88.52-42.16-24.34-111.16-24.34-153.32,0-42.16,24.34-42.16,64.18,0,88.52Z"/>
        <path class="cls-90" d="M426.21,491.83c41.4,23.9,109.14,23.9,150.54,0,41.4-23.9,41.4-63.01,0-86.91-41.4-23.9-109.14-23.9-150.54,0-41.4,23.9-41.4,63.01,0,86.91Z"/>
        <path class="cls-97" d="M427.6,491.03c40.63,23.46,107.12,23.46,147.75,0,40.63-23.46,40.63-61.84,0-85.3-40.63-23.46-107.12-23.46-147.75,0-40.63,23.46-40.63,61.85,0,85.3Z"/>
        <path class="cls-55" d="M428.99,490.23c39.87,23.02,105.1,23.02,144.97,0,39.87-23.02,39.87-60.68,0-83.7-39.87-23.02-105.1-23.02-144.97,0-39.87,23.02-39.87,60.68,0,83.7Z"/>
        <path class="cls-43" d="M430.38,489.42c39.1,22.57,103.08,22.57,142.18,0,39.1-22.57,39.1-59.51,0-82.09-39.1-22.57-103.08-22.57-142.18,0-39.1,22.57-39.1,59.52,0,82.09Z"/>
        <path class="cls-62" d="M431.78,488.62c38.34,22.13,101.06,22.13,139.4,0,38.33-22.13,38.33-58.35,0-80.48-38.34-22.13-101.06-22.13-139.4,0-38.33,22.13-38.33,58.35,0,80.48Z"/>
        <path class="cls-53" d="M433.17,487.81c37.57,21.69,99.05,21.69,136.62,0,37.57-21.69,37.57-57.18,0-78.87-37.57-21.69-99.05-21.69-136.62,0-37.57,21.69-37.57,57.18,0,78.87Z"/>
        <path class="cls-23" d="M434.56,487.01c36.8,21.25,97.03,21.25,133.83,0,36.8-21.25,36.8-56.02,0-77.27-36.8-21.25-97.03-21.25-133.83,0-36.8,21.25-36.8,56.02,0,77.27Z"/>
        <path class="cls-27" d="M435.95,486.21c36.04,20.81,95.01,20.81,131.05,0,36.04-20.81,36.04-54.85,0-75.66-36.04-20.81-95.01-20.81-131.05,0-36.04,20.81-36.04,54.85,0,75.66Z"/>
        <path class="cls-10" d="M437.34,485.4c35.27,20.36,92.99,20.36,128.26,0,35.27-20.36,35.27-53.69,0-74.05-35.27-20.36-92.99-20.36-128.26,0-35.27,20.36-35.27,53.69,0,74.05Z"/>
        <path class="cls-71" d="M438.74,484.6c34.51,19.92,90.97,19.92,125.48,0,34.51-19.92,34.51-52.52,0-72.44-34.51-19.92-90.97-19.92-125.48,0-34.51,19.92-34.51,52.52,0,72.44Z"/>
        <path class="cls-88" d="M440.13,483.8c33.74,19.48,88.95,19.48,122.7,0,33.74-19.48,33.74-51.36,0-70.84-33.74-19.48-88.95-19.48-122.7,0-33.74,19.48-33.74,51.36,0,70.84Z"/>
        <path class="cls-87" d="M441.52,482.99c32.98,19.04,86.94,19.04,119.91,0,32.97-19.04,32.97-50.19,0-69.23-32.98-19.04-86.94-19.04-119.91,0-32.98,19.04-32.98,50.19,0,69.23Z"/>
        <path class="cls-92" d="M442.91,482.19c32.21,18.6,84.92,18.6,117.13,0,32.21-18.6,32.21-49.03,0-67.62-32.21-18.6-84.92-18.6-117.13,0-32.21,18.6-32.21,49.03,0,67.62Z"/>
        <path class="cls-26" d="M444.31,481.38c31.44,18.15,82.9,18.15,114.34,0,31.44-18.15,31.44-47.86,0-66.02-31.44-18.15-82.9-18.15-114.34,0-31.44,18.15-31.44,47.86,0,66.02Z"/>
        <path class="cls-15" d="M445.7,480.58c30.68,17.71,80.88,17.71,111.56,0,30.68-17.71,30.68-46.7,0-64.41-30.68-17.71-80.88-17.71-111.56,0-30.68,17.71-30.68,46.7,0,64.41Z"/>
        <path class="cls-47" d="M447.09,479.78c29.91,17.27,78.86,17.27,108.77,0,29.91-17.27,29.91-45.53,0-62.8-29.91-17.27-78.86-17.27-108.77,0-29.91,17.27-29.91,45.53,0,62.8Z"/>
        <path class="cls-91" d="M448.48,478.97c29.15,16.83,76.84,16.83,105.99,0,29.15-16.83,29.15-44.36,0-61.19-29.15-16.83-76.84-16.83-105.99,0-29.15,16.83-29.15,44.37,0,61.19Z"/>
        <path class="cls-4" d="M449.87,478.17c28.38,16.39,74.82,16.39,103.21,0,28.38-16.39,28.38-43.2,0-59.59-28.38-16.39-74.82-16.39-103.21,0-28.38,16.39-28.38,43.2,0,59.59Z"/>
        <path class="cls-83" d="M451.27,477.37c27.62,15.94,72.81,15.94,100.42,0,27.62-15.94,27.62-42.03,0-57.98-27.62-15.94-72.81-15.94-100.42,0-27.62,15.94-27.62,42.03,0,57.98Z"/>
        <path class="cls-81" d="M452.66,476.56c26.85,15.5,70.79,15.5,97.64,0,26.85-15.5,26.85-40.87,0-56.37-26.85-15.5-70.79-15.5-97.64,0-26.85,15.5-26.85,40.87,0,56.37Z"/>
        <path class="cls-100" d="M454.05,475.76c26.09,15.06,68.77,15.06,94.85,0,26.08-15.06,26.08-39.7,0-54.76-26.08-15.06-68.77-15.06-94.85,0-26.08,15.06-26.08,39.7,0,54.76Z"/>
        <path class="cls-102" d="M455.44,474.96c25.32,14.62,66.75,14.62,92.07,0,25.32-14.62,25.32-38.54,0-53.16-25.32-14.62-66.75-14.62-92.07,0-25.32,14.62-25.32,38.54,0,53.16Z"/>
        <path class="cls-105" d="M456.83,474.15c24.55,14.18,64.73,14.18,89.29,0,24.55-14.18,24.55-37.37,0-51.55-24.55-14.18-64.73-14.18-89.29,0-24.55,14.18-24.55,37.37,0,51.55Z"/>
        <path class="cls-8" d="M458.23,473.35c23.79,13.73,62.71,13.73,86.5,0,23.79-13.73,23.79-36.21,0-49.94-23.79-13.73-62.71-13.73-86.5,0-23.79,13.73-23.79,36.21,0,49.94Z"/>
        <path class="cls-60" d="M459.62,472.54c23.02,13.29,60.69,13.29,83.72,0,23.02-13.29,23.02-35.04,0-48.33-23.02-13.29-60.69-13.29-83.72,0-23.02,13.29-23.02,35.04,0,48.33Z"/>
        <path class="cls-69" d="M461.01,471.74c22.26,12.85,58.68,12.85,80.93,0,22.26-12.85,22.26-33.88,0-46.73-22.26-12.85-58.68-12.85-80.93,0-22.26,12.85-22.26,33.88,0,46.73Z"/>
        <path class="cls-77" d="M462.4,470.94c21.49,12.41,56.66,12.41,78.15,0,21.49-12.41,21.49-32.71,0-45.12-21.49-12.41-56.66-12.41-78.15,0-21.49,12.41-21.49,32.71,0,45.12Z"/>
        <path class="cls-93" d="M463.79,470.13c20.73,11.97,54.64,11.97,75.36,0,20.73-11.97,20.73-31.55,0-43.51-20.73-11.97-54.64-11.97-75.36,0-20.72,11.97-20.72,31.55,0,43.51Z"/>
        <path class="cls-106" d="M465.19,469.33c19.96,11.52,52.62,11.52,72.58,0,19.96-11.52,19.96-30.38,0-41.9-19.96-11.52-52.62-11.52-72.58,0-19.96,11.52-19.96,30.38,0,41.9Z"/>
        <path class="cls-38" d="M466.58,468.53c19.19,11.08,50.6,11.08,69.8,0,19.19-11.08,19.19-29.22,0-40.3-19.19-11.08-50.6-11.08-69.8,0-19.19,11.08-19.19,29.22,0,40.3Z"/>
        <path class="cls-19" d="M467.97,467.72c18.43,10.64,48.58,10.64,67.01,0,18.43-10.64,18.43-28.05,0-38.69-18.43-10.64-48.58-10.64-67.01,0-18.43,10.64-18.43,28.05,0,38.69Z"/>
        <path class="cls-39" d="M469.36,466.92c17.66,10.2,46.57,10.2,64.23,0,17.66-10.2,17.66-26.88,0-37.08-17.66-10.2-46.57-10.2-64.23,0-17.66,10.2-17.66,26.88,0,37.08Z"/>
        <path class="cls-101" d="M470.75,466.11c16.9,9.76,44.55,9.76,61.44,0,16.9-9.76,16.9-25.72,0-35.47-16.9-9.76-44.55-9.76-61.44,0-16.9,9.76-16.9,25.72,0,35.47Z"/>
        <path class="cls-11" d="M472.15,465.31c16.13,9.31,42.53,9.31,58.66,0,16.13-9.31,16.13-24.55,0-33.87-16.13-9.31-42.53-9.31-58.66,0-16.13,9.31-16.13,24.55,0,33.87Z"/>
        <path class="cls-52" d="M473.54,464.51c15.37,8.87,40.51,8.87,55.88,0,15.37-8.87,15.37-23.39,0-32.26-15.37-8.87-40.51-8.87-55.88,0-15.37,8.87-15.37,23.39,0,32.26Z"/>
        <path class="cls-51" d="M474.93,463.7c14.6,8.43,38.49,8.43,53.09,0,14.6-8.43,14.6-22.22,0-30.65-14.6-8.43-38.49-8.43-53.09,0-14.6,8.43-14.6,22.22,0,30.65Z"/>
        <path class="cls-66" d="M476.32,462.9c13.83,7.99,36.47,7.99,50.31,0,13.83-7.99,13.83-21.06,0-29.04-13.83-7.99-36.47-7.99-50.31,0-13.83,7.99-13.83,21.06,0,29.04Z"/>
        <path class="cls-85" d="M477.71,462.1c13.07,7.55,34.45,7.55,47.52,0,13.07-7.55,13.07-19.89,0-27.44-13.07-7.55-34.45-7.55-47.52,0-13.07,7.55-13.07,19.89,0,27.44Z"/>
        <path class="cls-33" d="M479.11,461.29c12.3,7.1,32.44,7.1,44.74,0,12.3-7.1,12.3-18.73,0-25.83-12.3-7.1-32.44-7.1-44.74,0-12.3,7.1-12.3,18.73,0,25.83Z"/>
        <path class="cls-65" d="M480.5,460.49c11.54,6.66,30.42,6.66,41.96,0,11.54-6.66,11.54-17.56,0-24.22-11.54-6.66-30.42-6.66-41.96,0-11.54,6.66-11.54,17.56,0,24.22Z"/>
        <path class="cls-37" d="M481.89,459.69c10.77,6.22,28.4,6.22,39.17,0,10.77-6.22,10.77-16.4,0-22.62-10.77-6.22-28.4-6.22-39.17,0-10.77,6.22-10.77,16.4,0,22.62Z"/>
        <path class="cls-104" d="M483.28,458.88c10.01,5.78,26.38,5.78,36.39,0,10.01-5.78,10.01-15.23,0-21.01-10.01-5.78-26.38-5.78-36.39,0-10.01,5.78-10.01,15.23,0,21.01Z"/>
        <path class="cls-94" d="M484.67,458.08c9.24,5.34,24.36,5.34,33.6,0,9.24-5.34,9.24-14.07,0-19.4-9.24-5.33-24.36-5.33-33.6,0-9.24,5.34-9.24,14.07,0,19.4Z"/>
        <path class="cls-70" d="M486.07,457.27c8.48,4.89,22.34,4.89,30.82,0,8.48-4.89,8.48-12.9,0-17.79-8.48-4.89-22.34-4.89-30.82,0-8.48,4.89-8.48,12.9,0,17.79Z"/>
        <path class="cls-46" d="M487.46,456.47c7.71,4.45,20.33,4.45,28.03,0,7.71-4.45,7.71-11.73,0-16.19-7.71-4.45-20.33-4.45-28.03,0-7.71,4.45-7.71,11.73,0,16.19Z"/>
        <path class="cls-3" d="M488.85,455.67c6.94,4.01,18.31,4.01,25.25,0,6.94-4.01,6.94-10.57,0-14.58-6.94-4.01-18.31-4.01-25.25,0-6.94,4.01-6.94,10.57,0,14.58Z"/>
        <path class="cls-98" d="M490.24,454.86c6.18,3.57,16.29,3.57,22.47,0,6.18-3.57,6.18-9.4,0-12.97-6.18-3.57-16.29-3.57-22.47,0-6.18,3.57-6.18,9.4,0,12.97Z"/>
        <path class="cls-79" d="M491.64,454.06c5.41,3.12,14.27,3.12,19.68,0,5.41-3.12,5.41-8.24,0-11.36-5.41-3.12-14.27-3.12-19.68,0-5.41,3.12-5.41,8.24,0,11.36Z"/>
        <path class="cls-2" d="M493.03,453.26c4.65,2.68,12.25,2.68,16.9,0,4.65-2.68,4.65-7.07,0-9.76-4.65-2.68-12.25-2.68-16.9,0-4.65,2.68-4.65,7.07,0,9.76Z"/>
      </g>
      <g>
        <path class="cls-36" d="M643.31,162.09c-.85,1.56-.38,3.47,1.06,4.26,1.44.79,3.31.16,4.16-1.4l5.39-9.81c.85-1.56.38-3.47-1.06-4.26-1.44-.79-3.31-.16-4.16,1.4l-5.39,9.81Z"/>
        <path class="cls-36" d="M640.99,147.05c.14,3.05,1.59,5.48,3.22,5.41,1.64-.07,2.86-2.63,2.72-5.68l-.87-19.23c-.14-3.05-1.6-4.35-3.23-4.28-1.64.07-2.85,1.5-2.71,4.55l.87,19.23Z"/>
        <path class="cls-36" d="M628.83,146.34c.67,2.98,2.53,5.12,4.12,4.76,1.6-.36,2.36-3.09,1.68-6.07l-4.23-18.77c-.67-2.98-2.34-4.01-3.94-3.65-1.6.36-2.54,1.98-1.87,4.96l4.23,18.77Z"/>
        <path class="cls-36" d="M625.3,154.1c1.08,2.86,3.21,4.72,4.74,4.14,1.53-.58,1.9-3.39.83-6.24l-6.8-18.01c-1.08-2.86-2.87-3.64-4.4-3.06-1.53.58-2.25,2.31-1.17,5.17l6.8,18.01Z"/>
        <path class="cls-36" d="M634.23,143.99c.36,3.03,1.99,5.35,3.62,5.16s2.66-2.83,2.3-5.86l-2.29-19.11c-.36-3.03-1.92-4.22-3.54-4.03-1.63.19-2.73,1.71-2.37,4.74l2.29,19.11Z"/>
        <path class="cls-36" d="M709.5,275.03c4.21.36,8.48-1.62,10.82-5.54,3.17-5.3,1.35-12.19-3.81-15.59l-53.69-35.34-15.14-54.48-.82-15.64c-1.34-6.17-7.43-10.09-13.61-8.74-6.17,1.34-10.09,7.44-8.74,13.61l6.06,16.01,11.08,58.99c.51,2.71,2.09,5.09,4.39,6.6l58.16,38.28c1.64,1.08,3.46,1.68,5.29,1.84Z"/>
        <path class="cls-42" d="M710.61,276.81c4.54.39,9.15-1.75,11.68-5.98,3.42-5.72,1.46-13.16-4.11-16.83l-37.86-24.92c-.63-.41-1.47-.23-1.87.41l-11.72,18.64c-.39.62-.21,1.43.4,1.83l37.77,24.86c1.77,1.17,3.74,1.82,5.71,1.99Z"/>
        <g class="cls-109">
          <polygon class="cls-80" points="706.37 569.54 556.4 656.4 598.93 681.51 733.37 603.27 706.37 569.54"/>
          <polygon class="cls-1" points="706.37 569.54 560.98 653.75 603.5 678.85 733.37 603.27 706.37 569.54"/>
          <polygon class="cls-21" points="706.37 569.54 565.57 651.1 608.07 676.2 733.37 603.27 706.37 569.54"/>
          <polygon class="cls-30" points="706.37 569.54 570.15 648.46 612.65 673.55 733.37 603.27 706.37 569.54"/>
          <polygon class="cls-59" points="706.37 569.54 574.73 645.81 617.22 670.89 733.37 603.27 706.37 569.54"/>
          <polygon class="cls-45" points="706.37 569.54 579.32 643.16 621.79 668.24 733.37 603.27 706.37 569.54"/>
          <polygon class="cls-89" points="706.37 569.54 583.9 640.51 626.37 665.59 733.37 603.27 706.37 569.54"/>
          <polygon class="cls-99" points="706.37 569.54 588.48 637.87 630.94 662.93 733.37 603.27 706.37 569.54"/>
          <polygon class="cls-86" points="706.37 569.54 593.07 635.22 635.51 660.28 733.37 603.27 706.37 569.54"/>
          <polygon class="cls-75" points="706.37 569.54 597.65 632.57 640.09 657.63 733.37 603.27 706.37 569.54"/>
          <polygon class="cls-22" points="706.37 569.54 602.23 629.92 644.66 654.97 733.37 603.27 706.37 569.54"/>
          <polygon class="cls-35" points="706.37 569.54 606.82 627.28 649.23 652.32 733.37 603.27 706.37 569.54"/>
          <polygon class="cls-76" points="706.37 569.54 611.4 624.63 653.81 649.66 733.37 603.27 706.37 569.54"/>
          <polygon class="cls-20" points="706.37 569.54 615.98 621.98 658.38 647.01 733.37 603.27 706.37 569.54"/>
          <polygon class="cls-5" points="706.37 569.54 620.57 619.34 662.95 644.36 733.37 603.27 706.37 569.54"/>
          <polygon class="cls-78" points="706.37 569.54 625.15 616.69 667.53 641.7 733.37 603.27 706.37 569.54"/>
          <polygon class="cls-73" points="706.37 569.54 629.73 614.04 672.1 639.05 733.37 603.27 706.37 569.54"/>
          <polygon class="cls-67" points="706.37 569.54 634.32 611.39 676.67 636.4 733.37 603.27 706.37 569.54"/>
          <polygon class="cls-103" points="706.37 569.54 638.9 608.75 681.25 633.74 733.37 603.27 706.37 569.54"/>
          <polygon class="cls-41" points="706.37 569.54 643.49 606.1 685.82 631.09 733.37 603.27 706.37 569.54"/>
          <polygon class="cls-48" points="706.37 569.54 648.07 603.45 690.39 628.44 733.37 603.27 706.37 569.54"/>
          <polygon class="cls-31" points="706.37 569.54 652.65 600.8 694.97 625.78 733.37 603.27 706.37 569.54"/>
          <polygon class="cls-18" points="706.37 569.54 657.24 598.16 699.54 623.13 733.37 603.27 706.37 569.54"/>
          <polygon class="cls-72" points="706.37 569.54 661.82 595.51 704.11 620.48 733.37 603.27 706.37 569.54"/>
          <polygon class="cls-63" points="706.37 569.54 666.4 592.86 708.69 617.82 733.37 603.27 706.37 569.54"/>
          <polygon class="cls-34" points="706.37 569.54 670.99 590.21 713.26 615.17 733.37 603.27 706.37 569.54"/>
          <polygon class="cls-16" points="706.37 569.54 675.57 587.57 717.83 612.52 733.37 603.27 706.37 569.54"/>
          <polygon class="cls-61" points="706.37 569.54 680.15 584.92 722.41 609.86 733.37 603.27 706.37 569.54"/>
          <polygon class="cls-40" points="706.37 569.54 684.74 582.27 726.98 607.21 733.37 603.27 706.37 569.54"/>
          <polygon class="cls-12" points="706.37 569.54 689.32 579.62 731.55 604.56 733.37 603.27 706.37 569.54"/>
          <polygon class="cls-17" points="701.98 572.32 693.9 576.98 733.37 603.27 733.37 603.27 701.98 572.32"/>
          <polygon class="cls-96" points="706.79 569.54 703.07 571.68 687.5 629.87 733.37 603.27 706.79 569.54"/>
        </g>
        <path class="cls-2" d="M669.3,604.35l-8.67-.94c-3.62-.39-7.18-1.25-10.59-2.56l-5.87-1.02c-.94-.36-1.97-.43-2.95-.21h0c-2.14.49-3.73,1.05-3.97,3.23l-.43,4.02c-.26,2.37.94,5.65,2.66,7.31,4.5,4.36,12.43,10.63,19.88,11.73l7.51.99c1.63,1.75,3.2,2.52,4.49,2.81l8,2.32c5.59,1.24,10.95-2.87,11.21-8.59l.28-6.32c.14-3.06-.75-6.09-2.51-8.59l-.99-1.41-12.07-3.35-5.97.57Z"/>
        <path class="cls-44" d="M690.56,619.74c-.26,5.72-5.61,9.83-11.21,8.59l-8-2.32c-1.29-.29-2.86-1.06-4.49-2.81l-7.51-.99c-7.44-1.09-15.37-7.36-19.88-11.73-1.2-1.16-2.13-3.11-2.5-4.99l-.15,1.4c-.26,2.37.94,5.65,2.66,7.31,4.5,4.36,12.43,10.63,19.88,11.73l7.51.99c1.63,1.75,3.2,2.52,4.49,2.81l8,2.32c5.59,1.24,10.95-2.87,11.21-8.59l.28-6.32c.03-.68,0-1.35-.08-2.02l-.21,4.62Z"/>
        <path class="cls-2" d="M725.22,576.5s-9.2-5.59-16.45-7.68c-4.17-1.2-8.48,1.68-8.78,6.01-.44,6.3,1,16.04,13.1,19.35,0,0-.25,9.35,7.33,11.87h8.55c3.19,0,5.77-2.59,5.77-5.77v-13.23l-9.53-10.55Z"/>
        <path class="cls-44" d="M728.97,602.35h-8.55c-7.58-2.53-7.33-11.87-7.33-11.87-9.91-2.72-12.67-9.73-13.1-15.65,0,0,0,0,0,0-.44,6.3,1,16.04,13.1,19.35,0,0-.25,9.35,7.33,11.87h8.55c3.19,0,5.77-2.59,5.77-5.77v-3.71c0,3.19-2.59,5.77-5.77,5.77Z"/>
        <path class="cls-36" d="M675.27,597.69h12.07v16.52c0,1.3-1.06,2.36-2.36,2.36h-7.35c-1.3,0-2.36-1.06-2.36-2.36v-16.52h0Z"/>
        <path class="cls-36" d="M727.1,592.19h0c-3.41,0-6.17-2.76-6.17-6.17v-12.71h12.07v12.98c0,3.26-2.64,5.9-5.9,5.9Z"/>
        <path class="cls-2" d="M725.24,578.39c-7.02.07-8.32,3.4-9.48-3.83l-24.7-102.21,2.48-99.65c0-8.2,6.65-14.86,14.86-14.86s16.09,10.37,16.09,18.57l4.46,15.6c1.13,10.41-.86,20.92-5.7,30.2h0l-1.24,48.9,11.94,98.72c1.3,8.09,1.99,7.06-6.1,8.36-.86.14-1.74.19-2.61.19Z"/>
        <path class="cls-50" d="M693.76,370.22c-.14.81-.22,1.63-.22,2.48l-2.48,99.65,19.85,82.15-2.67-70.36,4.66-90.4c.3-7.35-10.91-20.62-19.14-23.53Z"/>
        <path class="cls-2" d="M679.17,601.72c-7.45.02-8.94,1.67-9.7-5.95l-14.34-105.03,1.68-94.09c.34-8.2,10.01-27.36,18.14-27.03,8.2.34,46.31,6.65,45.97,14.84l-9.3,35.48-7.28,5.4c-2.16,1.6-3.62,3.98-4.07,6.64l-9.21,54.61-1.93,106.22c.81,8.16-.19,8.02-8.34,8.83-.53.03-1.09.05-1.62.08Z"/>
        <g class="cls-109">
          <path class="cls-7" d="M677.51,392.12c-1.31-7.23-4.11-14.31-6.39-21.38-7.06,4.19-14.03,18.97-14.31,25.9l-1.68,94.09,14.34,105.03c.65,6.46,1.82,6.26,6.69,6.03,7.56-44.59-17.41-90.7-10.84-135.92,3.61-24.85,16.68-49.05,12.2-73.76Z"/>
        </g>
        <path class="cls-42" d="M654.36,289.89l2.72,20.05c2.31,17.02,2.62,34.25.94,51.34l-3.65,37.09c18.35,10.59,65.09,4.36,73.39-15.14l-5.46-38.01c-2.04-14.17-1.91-28.56.37-42.68l5.09-31.61c0-21.01-22.75-34.15-40.94-23.64l-11.78,6.8c-12.79,7.38-20.67,21.03-20.67,35.79Z"/>
        <rect class="cls-36" x="673.37" y="212.1" width="24.12" height="48.02"/>
        <path class="cls-57" d="M672.33,254.63s24.75,7.93,25.16-11.94c0,0,2.18-1.89,6.94-1.23,4.76.66,8.23,27.75-41.17,21.44l9.07-8.27Z"/>
        <path class="cls-36" d="M662.62,204.3l-6.58,26.66c-1.3,5.28,2.67,10.4,8.11,10.44l14.84.12c4.49.04,8.69-2.23,11.13-6l12.76-19.75c.63-.98.71-2.21.21-3.26h0c-4.37-9.13-13.87-14.67-23.97-13.97l-10.53.73c-2.87.2-5.28,2.23-5.97,5.02Z"/>
        <path class="cls-2" d="M711.1,213.25c.04-4.33-.2-8.94-2.65-12.51-1.34-1.96-3.25-3.45-5.13-4.91-3.31-2.57-6.61-5.14-9.92-7.71-2.65-2.06-5.31-4.13-8.3-5.65-4.45-2.28-9.56-3.27-14.54-2.83-1.66.15-3.33.45-4.84,1.15-9.94,4.6-7.44,15.61-.61,21.22,1.46,1.2,3.1,2.26,4.16,3.83,1.8,2.66,1.56,6.21.83,9.19-.77,3.12-1.82,6.45-2.88,9.51-.31.88-.67,1.79-1.37,2.41-4.38,3.89-3.69-4.49-6.14-5.2-1.49-.43-2.75,1.11-3.48,2.47-1.64,3.05-3.04,6.51-2.38,9.91.67,3.5,3.52,6.34,6.85,7.61,3.33,1.27,7.07,1.13,10.53.25,1.35-.34,2.76-.86,3.58-1.98.83-1.14.85-2.81.05-3.97-.92-1.32-1.73-1.7-2.1-3.29-.41-1.78-.43-3.76-.44-5.58,0-1.04.02-2.09.23-3.11.52-2.56,2.27-4.75,4.26-6.37,1.95-1.59,5.57-1.37,6.29,1.03.24.81.1,1.68-.05,2.51-1.26,6.81-4.38,11.59-2.19,18.63.42,1.35.97,2.72,2,3.68,1.69,1.58,4.28,1.7,6.55,1.31,3.82-.65,7.43-2.51,10.17-5.25,1.96-1.96,3.46-4.31,4.94-6.65,2.43-3.83,4.9-7.76,5.92-12.18.56-2.46.66-5.01.68-7.54Z"/>
        <g class="cls-107">
          <path class="cls-7" d="M673.79,330.76c6.76-18.98,4.66-40.91-5.58-58.26-1.55-2.63-3.5-5.31-6.23-6.51-4.88,6.88-7.62,15.2-7.62,23.91l2.72,20.05c2.31,17.02,2.62,34.25.94,51.34l-3.65,37.09c5.85,3.38,14.6,5.04,24.06,5.11.04-3.78-.23-7.57-.92-11.37-2.74-15.11-11.99-29.55-9.38-44.68,1-5.8,3.69-11.14,5.67-16.68Z"/>
        </g>
        <path class="cls-36" d="M595.1,189.01c-.72,1.62-.08,3.49,1.42,4.15,1.5.66,3.31-.13,4.03-1.75l4.52-10.24c.72-1.62.08-3.49-1.42-4.15-1.5-.66-3.31.13-4.03,1.75l-4.52,10.24Z"/>
        <path class="cls-36" d="M591.49,174.23c.4,3.03,2.06,5.32,3.68,5.11s2.62-2.87,2.22-5.89l-2.53-19.08c-.4-3.03-1.97-4.2-3.59-3.99-1.62.21-2.71,1.74-2.31,4.77l2.53,19.08Z"/>
        <path class="cls-36" d="M579.31,174.57c.93,2.91,2.96,4.88,4.52,4.38,1.56-.5,2.08-3.28,1.15-6.19l-5.84-18.34c-.93-2.91-2.68-3.79-4.24-3.29-1.56.5-2.36,2.19-1.44,5.1l5.84,18.34Z"/>
        <path class="cls-36" d="M576.46,182.61c1.32,2.75,3.61,4.42,5.08,3.71s1.6-3.54.28-6.29l-8.33-17.35c-1.32-2.75-3.17-3.38-4.65-2.67-1.48.71-2.04,2.5-.72,5.25l8.33,17.35Z"/>
        <path class="cls-36" d="M584.48,171.77c.62,2.99,2.44,5.16,4.05,4.82,1.6-.33,2.4-3.05,1.78-6.04l-3.93-18.84c-.62-2.99-2.27-4.04-3.88-3.71-1.6.33-2.58,1.94-1.95,4.92l3.93,18.84Z"/>
        <path class="cls-36" d="M670.79,295.82c4.22,0,8.31-2.35,10.31-6.45,2.7-5.55.29-12.27-5.14-15.2l-56.54-30.57-19.78-52.97-2.17-15.51c-1.87-6.03-8.28-9.41-14.31-7.54-6.03,1.87-9.41,8.28-7.54,14.31l7.42,15.43,16.14,57.81c.74,2.65,2.53,4.89,4.95,6.2l61.24,33.12c1.73.93,3.59,1.38,5.43,1.38Z"/>
        <path class="cls-42" d="M672.06,297.49c4.56,0,8.97-2.53,11.12-6.97,2.91-6,.32-13.24-5.55-16.41l-39.87-21.56c-.66-.36-1.49-.1-1.83.57l-10.06,19.58c-.33.65-.09,1.45.56,1.79l39.77,21.51c1.87,1.01,3.88,1.49,5.86,1.49Z"/>
      </g>
      <g>
        <path class="cls-28" d="M552.42,224.12l6.96-3.3-20.13-10.77c-1.11-.68-2.25-1.3-3.44-1.84h-.02s0-.01,0-.01c-12.54-5.75-29.07-4.14-47.14,6.29-38.91,22.46-70.74,77.6-70.74,122.52,0,7.62.12,13.09.82,18.12,1.1,7.93,4.55,15.36,9.63,21.55h0l52.71,63.76,24.49,13.09,12.7-44.42h-11.46l42.74-106.66h-.01c6.25-15.77,9.87-32.02,9.87-47.13,0-12.59-2.5-23.09-6.96-31.2ZM488.64,340.02c-20.89,12.06-37.99,2.19-37.99-21.93s17.09-53.74,37.99-65.8c20.89-12.06,37.99-2.19,37.99,21.93s-17.09,53.74-37.99,65.8Z"/>
        <path class="cls-74" d="M552.42,224.12l6.96-3.3-20.13-10.77c-1.11-.68-2.25-1.3-3.44-1.84h-.02s0-.01,0-.01c-12.54-5.75-29.07-4.14-47.14,6.29-38.91,22.46-70.74,77.6-70.74,122.52,0,7.62.12,13.09.82,18.12,1.1,7.93,4.55,15.36,9.63,21.55h0l52.71,63.76,24.49,13.09,12.7-44.42h-11.46l42.74-106.66h-.01c6.25-15.77,9.87-32.02,9.87-47.13,0-12.59-2.5-23.09-6.96-31.2ZM488.64,340.02c-20.89,12.06-37.99,2.19-37.99-21.93s17.09-53.74,37.99-65.8c20.89-12.06,37.99-2.19,37.99,21.93s-17.09,53.74-37.99,65.8Z"/>
        <path class="cls-28" d="M579.06,265.68c-.07-46.9-30.6-64.12-71.11-40.49-38.74,22.6-70.36,77.52-70.36,122.3,0,14.89,3.51,26.84,9.61,35.38h-.03l57.86,70.15c1.5,1.82,4.41,1.4,5.33-.78l58.86-139.3h-.02c6.27-15.82,9.89-32.12,9.87-47.27ZM508.33,350.52c-20.89,12.06-37.99,2.19-37.99-21.93s17.1-53.74,37.99-65.8c20.89-12.06,37.99-2.19,37.99,21.93s-17.1,53.74-37.99,65.8Z"/>
      </g>
      <g>
        <g>
          <polygon class="cls-25" points="264.98 139.91 332.62 100.86 400.25 139.91 332.62 178.96 264.98 139.91"/>
          <polygon class="cls-9" points="264.98 139.91 264.98 218.01 332.62 257.06 332.62 178.96 264.98 139.91"/>
          <polygon class="cls-25" points="332.62 257.06 400.25 218.01 400.25 139.91 332.62 178.96 332.62 257.06"/>
          <polygon class="cls-2" points="364.46 160.66 364.46 238.76 365.27 239.47 366.38 239.63 371.17 234.92 371.17 156.51 364.46 160.66"/>
          <polygon class="cls-95" points="366.38 159.43 366.38 239.63 364.36 238.73 362.6 239.75 366.38 241.64 373.09 237.8 373.09 155.28 366.38 159.43"/>
          <polygon class="cls-2" points="300.71 160.66 300.71 238.76 299.91 239.47 298.8 239.63 294 234.92 294 156.51 300.71 160.66"/>
          <polygon class="cls-95" points="298.8 159.43 298.8 239.63 300.82 238.73 302.58 239.75 298.8 241.64 292.09 237.8 292.09 155.28 298.8 159.43"/>
        </g>
        <g>
          <path class="cls-32" d="M463,184.55c-6.76-2.11-15.43-1.52-21.12,1.77-6.94,4.01-6.94,10.57,0,14.57,6.94,4.01,18.3,4.01,25.24,0,3.31-1.91,5.04-4.4,5.19-6.92h.01v-9.42h-9.33Z"/>
          <path class="cls-32" d="M463.3,44.45c-6.8-2.22-15.64-1.66-21.42,1.67-6.94,4.01-6.94,10.57,0,14.57,6.94,4.01,18.3,4.01,25.24,0,3.27-1.89,5-4.34,5.19-6.83h.02v-9.42h-9.03Z"/>
          <path class="cls-32" d="M224.43,46.13c-5.91-3.41-15.02-3.92-21.88-1.52h-8.57v9.42h.04c.25,2.43,1.97,4.82,5.17,6.67,6.94,4.01,18.3,4.01,25.24,0,6.94-4.01,6.94-10.57,0-14.57Z"/>
          <path class="cls-32" d="M224.43,186.32c-5.69-3.29-14.36-3.88-21.12-1.77h-9.33v9.42h.01c.15,2.52,1.88,5.01,5.19,6.92,6.94,4.01,18.3,4.01,25.24,0,6.94-4.01,6.94-10.57,0-14.57Z"/>
          <path class="cls-32" d="M441.95,196.92l-55.2-24.04c-9.93-4.33-20.65,5.85-31.48,5.85h-45.09c-11.32,0-22.51-9.97-32.81-5.25l-56.8,26.6-8.76-8.04,43.51-33.17c7.11-5.45,11.29-13.89,11.29-22.85v-17.32c0-9.35-4.54-18.11-12.18-23.51l-44.15-32.1v-13.77l67.1,34.98c10.3,4.71,21.49,7.15,32.81,7.15h45.09c10.83,0,21.55-2.23,31.48-6.56l67.74-35.58v13.77l-44.79,32.1c-7.64,5.39-12.18,14.16-12.18,23.51v17.32c0,8.96,4.17,17.41,11.29,22.85l43.32,32.18-10.18,5.88Z"/>
          <path class="cls-68" d="M441.95,183.15l-55.2-24.04c-9.93-4.33-20.65-6.56-31.48-6.56h-45.09c-11.32,0-22.51,2.44-32.81,7.15l-56.8,26.6-8.76-8.04,43.51-33.17c7.11-5.45,11.29-13.89,11.29-22.85v-17.32c0-9.35-4.54-18.11-12.18-23.51l-44.15-32.1,10.29-4.96,56.8,26.17c10.3,4.71,21.49,7.15,32.81,7.15h45.09c10.83,0,21.55-2.23,31.48-6.56l61.01-26.77,6.73,4.96-44.79,32.1c-7.64,5.39-12.18,14.16-12.18,23.51v17.32c0,8.96,4.17,17.41,11.29,22.85l43.32,32.18-10.18,5.88Z"/>
          <path class="cls-68" d="M441.87,191.84c6.94,4.01,18.3,4.01,25.24,0,6.94-4.01,6.94-10.57,0-14.57-6.94-4.01-18.3-4.01-25.24,0-6.94,4.01-6.94,10.57,0,14.57Z"/>
          <path class="cls-68" d="M441.87,51.64c6.94,4.01,18.3,4.01,25.24,0,6.94-4.01,6.94-10.57,0-14.57-6.94-4.01-18.3-4.01-25.24,0-6.94,4.01-6.94,10.57,0,14.57Z"/>
          <path class="cls-68" d="M199.19,51.64c6.94,4.01,18.3,4.01,25.24,0,6.94-4.01,6.94-10.57,0-14.57-6.94-4.01-18.3-4.01-25.24,0-6.94,4.01-6.94,10.57,0,14.57Z"/>
          <path class="cls-68" d="M199.19,191.84c6.94,4.01,18.3,4.01,25.24,0,6.94-4.01,6.94-10.57,0-14.57-6.94-4.01-18.3-4.01-25.24,0-6.94,4.01-6.94,10.57,0,14.57Z"/>
          <path class="cls-28" d="M332.39,141.86c-11.68,0-23.36-2.57-32.25-7.7-8.65-4.99-13.41-11.68-13.41-18.83,0-7.15,4.76-13.84,13.41-18.83,17.78-10.27,46.71-10.27,64.5,0,8.65,4.99,13.41,11.68,13.41,18.83,0,7.15-4.76,13.84-13.41,18.83-8.89,5.13-20.57,7.7-32.25,7.7ZM332.39,89.53c-11.55,0-23.09,2.54-31.88,7.61-8.41,4.85-13.04,11.31-13.04,18.19,0,6.87,4.63,13.33,13.04,18.19,17.58,10.15,46.18,10.15,63.75,0,8.41-4.85,13.04-11.31,13.04-18.19,0-6.87-4.63-13.33-13.04-18.19-8.79-5.07-20.33-7.61-31.88-7.61Z"/>
          <path class="cls-28" d="M332.39,138.6c-10.23,0-20.46-2.25-28.25-6.75h0c-7.59-4.38-11.76-10.25-11.76-16.53,0-6.28,4.18-12.15,11.76-16.53,15.58-8.99,40.93-8.99,56.51,0,7.59,4.38,11.76,10.25,11.76,16.53,0,6.28-4.18,12.15-11.76,16.53-7.79,4.5-18.02,6.75-28.25,6.75ZM332.39,92.79c-10.1,0-20.19,2.22-27.88,6.66-7.35,4.24-11.39,9.88-11.39,15.88,0,6,4.05,11.64,11.39,15.88,15.37,8.88,40.39,8.88,55.76,0,7.35-4.24,11.39-9.88,11.39-15.88,0-6-4.05-11.64-11.39-15.88-7.69-4.44-17.78-6.66-27.88-6.66Z"/>
          <g>
            <path class="cls-2" d="M340.72,166.01c0,4.6-3.73,8.34-8.34,8.34s-8.34-3.73-8.34-8.34,3.73-8.34,8.34-8.34,8.34,3.73,8.34,8.34Z"/>
            <path class="cls-84" d="M338.73,166.01c0,3.5-2.84,6.34-6.34,6.34s-6.34-2.84-6.34-6.34,2.84-6.34,6.34-6.34,6.34,2.84,6.34,6.34Z"/>
            <path class="cls-2" d="M337.22,166.01c0,2.67-2.16,4.84-4.84,4.84s-4.83-2.17-4.83-4.84,2.16-4.83,4.83-4.83,4.84,2.17,4.84,4.83Z"/>
            <path class="cls-84" d="M332.39,163.59c0,1.34-1.08,2.42-2.42,2.42s-2.42-1.08-2.42-2.42,1.08-2.42,2.42-2.42,2.42,1.08,2.42,2.42Z"/>
          </g>
          <rect class="cls-28" x="310.82" y="164.46" width="3.39" height="3.1"/>
          <rect class="cls-7" x="304.61" y="164.46" width="3.39" height="3.1"/>
          <g>
            <path class="cls-2" d="M205.85,180.45c3.44-1.99,9.07-1.99,12.52,0,3.44,1.99,3.44,5.24,0,7.23-3.44,1.99-9.07,1.99-12.52,0-3.44-1.99-3.44-5.24,0-7.23Z"/>
            <path class="cls-6" d="M205.85,181.44c3.44-1.99,9.07-1.99,12.52,0,1.5.87,2.35,1.98,2.54,3.12.25-1.47-.6-2.99-2.54-4.11-3.44-1.99-9.07-1.99-12.52,0-1.94,1.12-2.79,2.64-2.54,4.11.19-1.14,1.04-2.25,2.54-3.12Z"/>
            <path class="cls-2" d="M212.1,160.24h0c.88,0,1.63.63,1.79,1.5l3.91,22.32h-11.39l3.91-22.32c.15-.87.91-1.5,1.79-1.5Z"/>
            <path class="cls-49" d="M174.32,193.81c.11.06.22.12.32.18l37.54-21.4-38.7-22.34c-20.15,12.16-19.87,31.62.83,43.57Z"/>
            <path class="cls-49" d="M249.77,194.29c.29-.16.58-.31.87-.48,20.7-11.95,20.98-31.4.85-43.56l-39.3,22.33,37.58,21.7Z"/>
            <path class="cls-7" d="M212.48,203.52c-13.93,0-27.86-3.06-38.46-9.18-10.34-5.97-16.04-13.98-16.04-22.55,0-8.57,5.7-16.58,16.04-22.56h0c21.21-12.24,55.71-12.24,76.92,0,10.35,5.98,16.04,13.99,16.04,22.56,0,8.57-5.7,16.58-16.04,22.55-10.6,6.12-24.53,9.18-38.46,9.18ZM174.62,150.27c-9.96,5.75-15.44,13.39-15.44,21.51,0,8.12,5.48,15.76,15.44,21.5,20.87,12.05,54.84,12.05,75.71,0,9.95-5.75,15.44-13.38,15.44-21.5,0-8.12-5.48-15.76-15.44-21.51-20.87-12.05-54.84-12.05-75.71,0h0Z"/>
            <path class="cls-6" d="M206.64,169.49c3.01-1.74,7.93-1.74,10.94,0,3.01,1.74,3.01,4.58,0,6.31-3.01,1.74-7.93,1.74-10.94,0-3.01-1.74-3.01-4.58,0-6.31Z"/>
            <path class="cls-64" d="M206.64,168.62c3.01-1.74,7.93-1.74,10.94,0,3.01,1.74,3.01,4.58,0,6.31-3.01,1.74-7.93,1.74-10.94,0-3.01-1.74-3.01-4.58,0-6.31Z"/>
            <path class="cls-2" d="M209.08,170.03c1.67-.96,4.39-.96,6.06,0,1.67.96,1.67,2.53,0,3.5-1.67.96-4.39.96-6.06,0-1.67-.96-1.67-2.53,0-3.5Z"/>
            <path class="cls-2" d="M212.1,160.24h0c.88,0,1.63.63,1.79,1.5l1.76,10.04h-7.09s1.76-10.04,1.76-10.04c.15-.87.91-1.5,1.79-1.5Z"/>
          </g>
          <g>
            <path class="cls-2" d="M449.03,180.45c3.44-1.99,9.07-1.99,12.52,0,3.44,1.99,3.44,5.24,0,7.23-3.44,1.99-9.07,1.99-12.52,0-3.44-1.99-3.44-5.24,0-7.23Z"/>
            <path class="cls-6" d="M449.03,181.44c3.44-1.99,9.07-1.99,12.52,0,1.5.87,2.35,1.98,2.54,3.12.25-1.47-.6-2.99-2.54-4.11-3.44-1.99-9.07-1.99-12.52,0-1.94,1.12-2.79,2.64-2.54,4.11.19-1.14,1.04-2.25,2.54-3.12Z"/>
            <path class="cls-2" d="M455.29,160.24h0c.88,0,1.63.63,1.79,1.5l3.91,22.32h-11.39l3.91-22.32c.15-.87.91-1.5,1.79-1.5Z"/>
            <path class="cls-49" d="M417.51,193.81c.11.06.22.12.32.18l37.54-21.4-38.7-22.34c-20.15,12.16-19.87,31.62.83,43.57Z"/>
            <path class="cls-49" d="M492.96,194.29c.29-.16.58-.31.87-.48,20.7-11.95,20.98-31.4.85-43.56l-39.3,22.33,37.58,21.7Z"/>
            <path class="cls-7" d="M455.66,203.52c-13.93,0-27.86-3.06-38.46-9.18-10.34-5.97-16.04-13.98-16.04-22.55,0-8.57,5.7-16.58,16.04-22.56h0c21.21-12.24,55.71-12.24,76.92,0,10.35,5.98,16.04,13.99,16.04,22.56,0,8.57-5.7,16.58-16.04,22.55-10.6,6.12-24.53,9.18-38.46,9.18ZM417.81,150.27c-9.96,5.75-15.44,13.39-15.44,21.51,0,8.12,5.48,15.76,15.44,21.5,20.87,12.05,54.84,12.05,75.71,0,9.95-5.75,15.44-13.38,15.44-21.5,0-8.12-5.48-15.76-15.44-21.51-20.87-12.05-54.84-12.05-75.71,0h0Z"/>
            <path class="cls-6" d="M449.82,169.49c3.01-1.74,7.93-1.74,10.94,0,3.01,1.74,3.01,4.58,0,6.31-3.01,1.74-7.93,1.74-10.94,0-3.01-1.74-3.01-4.58,0-6.31Z"/>
            <path class="cls-64" d="M449.82,168.62c3.01-1.74,7.93-1.74,10.94,0,3.01,1.74,3.01,4.58,0,6.31-3.01,1.74-7.93,1.74-10.94,0-3.01-1.74-3.01-4.58,0-6.31Z"/>
            <path class="cls-2" d="M452.26,170.03c1.67-.96,4.39-.96,6.06,0,1.67.96,1.67,2.53,0,3.5-1.67.96-4.39.96-6.06,0-1.67-.96-1.67-2.53,0-3.5Z"/>
            <path class="cls-2" d="M455.29,160.24h0c.88,0,1.63.63,1.79,1.5l1.76,10.04h-7.09s1.76-10.04,1.76-10.04c.15-.87.91-1.5,1.79-1.5Z"/>
          </g>
          <g>
            <path class="cls-2" d="M205.85,40.4c3.44-1.99,9.07-1.99,12.52,0,3.44,1.99,3.44,5.24,0,7.23-3.44,1.99-9.07,1.99-12.52,0-3.44-1.99-3.44-5.24,0-7.23Z"/>
            <path class="cls-6" d="M205.85,41.4c3.44-1.99,9.07-1.99,12.52,0,1.5.87,2.35,1.98,2.54,3.12.25-1.47-.6-2.99-2.54-4.11-3.44-1.99-9.07-1.99-12.52,0-1.94,1.12-2.79,2.64-2.54,4.11.19-1.14,1.04-2.25,2.54-3.12Z"/>
            <path class="cls-2" d="M212.1,20.2h0c.88,0,1.63.63,1.79,1.5l3.91,22.32h-11.39l3.91-22.32c.15-.87.91-1.5,1.79-1.5Z"/>
            <path class="cls-49" d="M174.32,53.77c.11.06.22.12.32.18l37.54-21.4-38.7-22.34c-20.15,12.16-19.87,31.62.83,43.57Z"/>
            <path class="cls-49" d="M249.77,54.24c.29-.16.58-.31.87-.48,20.7-11.95,20.98-31.4.85-43.56l-39.3,22.33,37.58,21.7Z"/>
            <path class="cls-7" d="M212.48,63.47c-13.93,0-27.86-3.06-38.46-9.18-10.34-5.97-16.04-13.98-16.04-22.55,0-8.57,5.7-16.58,16.04-22.56h0c21.21-12.24,55.71-12.24,76.92,0,10.35,5.98,16.04,13.99,16.04,22.56,0,8.57-5.7,16.58-16.04,22.55-10.6,6.12-24.53,9.18-38.46,9.18ZM174.62,10.23c-9.96,5.75-15.44,13.39-15.44,21.51,0,8.12,5.48,15.76,15.44,21.5,20.87,12.05,54.84,12.05,75.71,0,9.95-5.75,15.44-13.38,15.44-21.5,0-8.12-5.48-15.76-15.44-21.51-20.87-12.05-54.84-12.05-75.71,0h0Z"/>
            <path class="cls-6" d="M206.64,29.45c3.01-1.74,7.93-1.74,10.94,0,3.01,1.74,3.01,4.58,0,6.31-3.01,1.74-7.93,1.74-10.94,0-3.01-1.74-3.01-4.58,0-6.31Z"/>
            <path class="cls-64" d="M206.64,28.58c3.01-1.74,7.93-1.74,10.94,0,3.01,1.74,3.01,4.58,0,6.31-3.01,1.74-7.93,1.74-10.94,0-3.01-1.74-3.01-4.58,0-6.31Z"/>
            <path class="cls-2" d="M209.08,29.99c1.67-.96,4.39-.96,6.06,0,1.67.96,1.67,2.53,0,3.5-1.67.96-4.39.96-6.06,0-1.67-.96-1.67-2.53,0-3.5Z"/>
            <path class="cls-2" d="M212.1,20.2h0c.88,0,1.63.63,1.79,1.5l1.76,10.04h-7.09s1.76-10.04,1.76-10.04c.15-.87.91-1.5,1.79-1.5Z"/>
          </g>
          <g>
            <path class="cls-2" d="M449.03,40.4c3.44-1.99,9.07-1.99,12.52,0,3.44,1.99,3.44,5.24,0,7.23-3.44,1.99-9.07,1.99-12.52,0-3.44-1.99-3.44-5.24,0-7.23Z"/>
            <path class="cls-6" d="M449.03,41.4c3.44-1.99,9.07-1.99,12.52,0,1.5.87,2.35,1.98,2.54,3.12.25-1.47-.6-2.99-2.54-4.11-3.44-1.99-9.07-1.99-12.52,0-1.94,1.12-2.79,2.64-2.54,4.11.19-1.14,1.04-2.25,2.54-3.12Z"/>
            <path class="cls-2" d="M455.29,20.2h0c.88,0,1.63.63,1.79,1.5l3.91,22.32h-11.39l3.91-22.32c.15-.87.91-1.5,1.79-1.5Z"/>
            <path class="cls-49" d="M417.51,53.77c.11.06.22.12.32.18l37.54-21.4-38.7-22.34c-20.15,12.16-19.87,31.62.83,43.57Z"/>
            <path class="cls-49" d="M492.96,54.24c.29-.16.58-.31.87-.48,20.7-11.95,20.98-31.4.85-43.56l-39.3,22.33,37.58,21.7Z"/>
            <path class="cls-7" d="M455.66,63.47c-13.93,0-27.86-3.06-38.46-9.18-10.34-5.97-16.04-13.98-16.04-22.55,0-8.57,5.7-16.58,16.04-22.56h0c21.21-12.24,55.71-12.24,76.92,0,10.35,5.98,16.04,13.99,16.04,22.56,0,8.57-5.7,16.58-16.04,22.55-10.6,6.12-24.53,9.18-38.46,9.18ZM417.81,10.23c-9.96,5.75-15.44,13.39-15.44,21.51,0,8.12,5.48,15.76,15.44,21.5,20.87,12.05,54.84,12.05,75.71,0,9.95-5.75,15.44-13.38,15.44-21.5,0-8.12-5.48-15.76-15.44-21.51-20.87-12.05-54.84-12.05-75.71,0h0Z"/>
            <path class="cls-6" d="M449.82,29.45c3.01-1.74,7.93-1.74,10.94,0,3.01,1.74,3.01,4.58,0,6.31-3.01,1.74-7.93,1.74-10.94,0-3.01-1.74-3.01-4.58,0-6.31Z"/>
            <path class="cls-64" d="M449.82,28.58c3.01-1.74,7.93-1.74,10.94,0,3.01,1.74,3.01,4.58,0,6.31-3.01,1.74-7.93,1.74-10.94,0-3.01-1.74-3.01-4.58,0-6.31Z"/>
            <path class="cls-2" d="M452.26,29.99c1.67-.96,4.39-.96,6.06,0,1.67.96,1.67,2.53,0,3.5-1.67.96-4.39.96-6.06,0-1.67-.96-1.67-2.53,0-3.5Z"/>
            <path class="cls-2" d="M455.29,20.2h0c.88,0,1.63.63,1.79,1.5l1.76,10.04h-7.09s1.76-10.04,1.76-10.04c.15-.87.91-1.5,1.79-1.5Z"/>
          </g>
        </g>
      </g>
    </g>
  </g>
</svg>