<?xml version="1.0" encoding="UTF-8"?>
<svg id="Graphics" xmlns="http://www.w3.org/2000/svg" xmlns:xlink="http://www.w3.org/1999/xlink" viewBox="0 0 1028.1 819.94">
  <defs>
    <style>
      .cls-1, .cls-2, .cls-3, .cls-4, .cls-5, .cls-6, .cls-7, .cls-8, .cls-9, .cls-10, .cls-11, .cls-12, .cls-13, .cls-14, .cls-15, .cls-16, .cls-17, .cls-18, .cls-19, .cls-20, .cls-21, .cls-22, .cls-23, .cls-24, .cls-25, .cls-26, .cls-27, .cls-28, .cls-29, .cls-30, .cls-31, .cls-32, .cls-33, .cls-34, .cls-35, .cls-36, .cls-37, .cls-38, .cls-39, .cls-40, .cls-41, .cls-42, .cls-43, .cls-44, .cls-45, .cls-46, .cls-47, .cls-48, .cls-49, .cls-50, .cls-51, .cls-52, .cls-53, .cls-54, .cls-55, .cls-56, .cls-57, .cls-58, .cls-59, .cls-60, .cls-61, .cls-62, .cls-63, .cls-64, .cls-65, .cls-66, .cls-67, .cls-68, .cls-69, .cls-70, .cls-71, .cls-72, .cls-73, .cls-74, .cls-75, .cls-76, .cls-77, .cls-78, .cls-79, .cls-80, .cls-81, .cls-82, .cls-83, .cls-84, .cls-85, .cls-86, .cls-87, .cls-88, .cls-89, .cls-90, .cls-91, .cls-92, .cls-93, .cls-94, .cls-95, .cls-96, .cls-97, .cls-98, .cls-99, .cls-100, .cls-101, .cls-102, .cls-103, .cls-104, .cls-105, .cls-106, .cls-107, .cls-108, .cls-109, .cls-110, .cls-111, .cls-112, .cls-113, .cls-114, .cls-115, .cls-116, .cls-117, .cls-118, .cls-119, .cls-120, .cls-121, .cls-122, .cls-123, .cls-124, .cls-125, .cls-126, .cls-127, .cls-128, .cls-129, .cls-130, .cls-131, .cls-132, .cls-133 {
        stroke-width: 0px;
      }

      .cls-1, .cls-4, .cls-5, .cls-7, .cls-14, .cls-15, .cls-17, .cls-19, .cls-20, .cls-22, .cls-23, .cls-24, .cls-25, .cls-27, .cls-31, .cls-33, .cls-35, .cls-38, .cls-40, .cls-43, .cls-44, .cls-46, .cls-47, .cls-50, .cls-51, .cls-54, .cls-58, .cls-63, .cls-66, .cls-69, .cls-73, .cls-75, .cls-77, .cls-79, .cls-86, .cls-88, .cls-89, .cls-92, .cls-93, .cls-94, .cls-95, .cls-100, .cls-103, .cls-104, .cls-105, .cls-110, .cls-111, .cls-114, .cls-115, .cls-121, .cls-128, .cls-132 {
        fill: #6e8fe4;
      }

      .cls-1, .cls-72 {
        opacity: .31;
      }

      .cls-2, .cls-85 {
        fill: #48486a;
      }

      .cls-3, .cls-8, .cls-10, .cls-12, .cls-16, .cls-18, .cls-21, .cls-28, .cls-29, .cls-30, .cls-36, .cls-37, .cls-39, .cls-41, .cls-45, .cls-49, .cls-53, .cls-55, .cls-56, .cls-57, .cls-59, .cls-60, .cls-61, .cls-62, .cls-65, .cls-67, .cls-68, .cls-70, .cls-71, .cls-72, .cls-76, .cls-78, .cls-80, .cls-83, .cls-87, .cls-90, .cls-96, .cls-97, .cls-98, .cls-99, .cls-101, .cls-102, .cls-107, .cls-112, .cls-118, .cls-122, .cls-123, .cls-124, .cls-125, .cls-130, .cls-131, .cls-133 {
        fill: #99a7d8;
      }

      .cls-3, .cls-46 {
        opacity: .88;
      }

      .cls-4, .cls-62 {
        opacity: .71;
      }

      .cls-5, .cls-112 {
        opacity: .98;
      }

      .cls-6 {
        fill: #5c629e;
      }

      .cls-7, .cls-49 {
        opacity: .49;
      }

      .cls-8, .cls-22 {
        opacity: .76;
      }

      .cls-9 {
        fill: #b7a092;
      }

      .cls-10, .cls-44 {
        opacity: .96;
      }

      .cls-11 {
        fill: #7d81b1;
      }

      .cls-12, .cls-33 {
        opacity: .14;
      }

      .cls-13 {
        fill: url(#linear-gradient);
      }

      .cls-14, .cls-124 {
        opacity: .08;
      }

      .cls-15, .cls-102 {
        opacity: 0;
      }

      .cls-16, .cls-114 {
        opacity: .63;
      }

      .cls-17, .cls-101 {
        opacity: .75;
      }

      .cls-18, .cls-58 {
        opacity: .67;
      }

      .cls-19, .cls-78 {
        opacity: .16;
      }

      .cls-20, .cls-71 {
        opacity: .22;
      }

      .cls-134, .cls-109 {
        opacity: .5;
      }

      .cls-21, .cls-92 {
        opacity: .51;
      }

      .cls-23, .cls-56 {
        opacity: .41;
      }

      .cls-24, .cls-36 {
        opacity: .47;
      }

      .cls-25, .cls-125 {
        opacity: .84;
      }

      .cls-26 {
        fill: #a58877;
      }

      .cls-27, .cls-76 {
        opacity: .06;
      }

      .cls-28, .cls-93 {
        opacity: .61;
      }

      .cls-29, .cls-105 {
        opacity: .43;
      }

      .cls-30, .cls-88 {
        opacity: .57;
      }

      .cls-31, .cls-70 {
        opacity: .37;
      }

      .cls-32 {
        fill: #edbd6a;
      }

      .cls-34, .cls-109 {
        fill: #d6dcef;
      }

      .cls-35, .cls-130 {
        opacity: .35;
      }

      .cls-37, .cls-86 {
        opacity: .12;
      }

      .cls-38, .cls-59 {
        opacity: .25;
      }

      .cls-39, .cls-77 {
        opacity: .82;
      }

      .cls-40, .cls-107 {
        opacity: .04;
      }

      .cls-41, .cls-75 {
        opacity: .39;
      }

      .cls-42 {
        fill: #f2b1b5;
      }

      .cls-43, .cls-65 {
        opacity: .29;
      }

      .cls-45, .cls-121 {
        opacity: .78;
      }

      .cls-47, .cls-53 {
        opacity: .65;
      }

      .cls-48 {
        fill: #231f20;
      }

      .cls-48, .cls-52, .cls-135, .cls-85 {
        opacity: .3;
      }

      .cls-51, .cls-96 {
        opacity: .33;
      }

      .cls-52 {
        fill: #02126a;
      }

      .cls-54, .cls-90 {
        opacity: .9;
      }

      .cls-55, .cls-69 {
        opacity: .69;
      }

      .cls-57, .cls-79 {
        opacity: .24;
      }

      .cls-60, .cls-63 {
        opacity: .02;
      }

      .cls-64 {
        fill: #fcfdfe;
      }

      .cls-66, .cls-118 {
        opacity: .8;
      }

      .cls-67, .cls-100 {
        opacity: .73;
      }

      .cls-68, .cls-128 {
        opacity: .86;
      }

      .cls-73, .cls-131 {
        opacity: .92;
      }

      .cls-74 {
        fill: url(#linear-gradient-2);
      }

      .cls-80, .cls-104 {
        opacity: .45;
      }

      .cls-81 {
        fill: #e9ecf6;
      }

      .cls-82 {
        fill: #e5e9f4;
      }

      .cls-83, .cls-115 {
        opacity: .59;
      }

      .cls-84 {
        fill: #88889e;
      }

      .cls-87, .cls-89 {
        opacity: .18;
      }

      .cls-91 {
        opacity: .2;
      }

      .cls-91, .cls-108 {
        fill: #fff;
      }

      .cls-94, .cls-97 {
        opacity: .2;
      }

      .cls-95, .cls-98 {
        opacity: .27;
      }

      .cls-99, .cls-132 {
        opacity: .55;
      }

      .cls-103, .cls-122 {
        opacity: .53;
      }

      .cls-106 {
        fill: #eff4fe;
      }

      .cls-110, .cls-133 {
        opacity: .94;
      }

      .cls-111, .cls-123 {
        opacity: .1;
      }

      .cls-113 {
        fill: #6d6d88;
      }

      .cls-116 {
        fill: #9da1c5;
      }

      .cls-117 {
        fill: #6e73a9;
      }

      .cls-119 {
        fill: #5a5a79;
      }

      .cls-120 {
        fill: #ae9485;
      }

      .cls-126 {
        fill: #c2cae8;
      }

      .cls-127 {
        fill: #eaedff;
      }

      .cls-129 {
        fill: #d3daed;
      }
    </style>
    <linearGradient id="linear-gradient" x1="0" y1="519.2" x2="1028.1" y2="519.2" gradientUnits="userSpaceOnUse">
      <stop offset="0" stop-color="#99a7d8"/>
      <stop offset=".27" stop-color="#acb8df"/>
      <stop offset=".73" stop-color="#c8d0e9"/>
      <stop offset="1" stop-color="#d3daed"/>
    </linearGradient>
    <linearGradient id="linear-gradient-2" x1="1510.85" y1="419.93" x2="1555.58" y2="419.93" gradientTransform="translate(1745.25) rotate(-180) scale(1 -1)" gradientUnits="userSpaceOnUse">
      <stop offset="0" stop-color="#d3daed"/>
      <stop offset="1" stop-color="#fff"/>
    </linearGradient>
  </defs>
  <g id="_03" data-name="03">
    <g>
      <path class="cls-13" d="M1028.1,519.2l-.03-48.31-484.52-244.72c-17.59-10.24-39.31-10.28-56.93-.1L0,470.88v48.26H0c0,7.1,3.5,14.19,10.53,18.25l476.21,274.94c17.56,10.14,39.19,10.14,56.75,0l474.09-273.71c7.41-4.28,10.91-11.95,10.49-19.43h.04Z"/>
      <path class="cls-106" d="M486.62,177.74L10.53,452.62c-14.03,8.1-14.03,28.36,0,36.46l476.21,274.94c17.56,10.14,39.19,10.14,56.75,0l474.09-273.71c14-8.09,14.04-28.29.07-36.42l-474.09-276.04c-17.59-10.24-39.31-10.28-56.93-.1Z"/>
    </g>
    <g>
      <path class="cls-42" d="M222.54,521.01c.28,0,.57-.02.86-.07,2.78-.47,3.7-1.67,3.23-4.45l-3.99-20.92,10.22-77.76c.25-2.81-3.46-7.44-6.28-7.7-2.81-.26-12.5,1.85-12.76,4.66l.28,43.73-.28,37.54-2.37,2.87,6.05,17.83c.42,2.49,2.58,4.26,5.03,4.26Z"/>
      <path class="cls-6" d="M213.82,496.05h0c-.63.99-.83,2.18-.56,3.32,1.23,5.06,4.73,19.22,5.38,19.83,0,0,5.71,3.6,7.98-2.71l3.27,9.23c.26.74.18,1.58-.29,2.21-1.01,1.34-3.97,2.18-12.61-4.37-.69-.53-1.19-1.27-1.4-2.12l-2.77-11.17-.8,9.65-1.38-.23v-10.54s-5.01-9.26,3.16-13.09Z"/>
      <path class="cls-42" d="M200.67,530.08c3.17-.15,3.57-2.75,3.41-5.92l-1.16-19.55,11.11-48.1-1.99-40.53c-.83-3.06-12.3-2.31-15.37-1.48-3.06.83-5.95,2.37-5.12,5.43l7.32,36.26-4.07,47.96-.15,20.47c.15,3.17,2.85,5.62,6.02,5.46Z"/>
      <path class="cls-6" d="M203.99,522.57s1.59,7.67,2.11,12.99c.33,3.37-2.64,6.2-5.97,5.57-2.59-.49-5.6-2.47-8.11-7.92-.37-.81-.52-1.71-.45-2.6.32-3.93,1.18-15.56.71-19.09-.06-.43-.03-.86.09-1.28.48-1.71,1.71-5.86,2.43-5.56,0,0,.2,11.5.05,17.12-.06,2.25.91,4.4,2.66,5.81,2.47,1.99,5.76,2.95,6.48-5.05Z"/>
      <path class="cls-74" d="M231.73,382.78s5.11,56.75,1.17,64.36c-4.52,8.72-26.54,12.59-35.24,8.02-1.13-.59-10.19-48.54-7.51-60.53l41.57-11.85Z"/>
      <g class="cls-135">
        <path class="cls-61" d="M232.02,386.11c1.02,12.26,4.25,54.53.89,61.02-1.61,3.12-5.47,5.61-10.14,7.32-.52-1.98-.54-4.13-.31-6.18.33-3.03,1.12-6.01,1.31-9.05.17-2.75-.17-5.51-.51-8.25-.41-3.33-.82-6.69-1.85-9.89-.56-1.76-1.31-3.46-1.87-5.22-1.72-5.44-1.59-11.32-.76-16.97.66-4.44,1.74-8.8,2.68-13.19l5.62-1.6,4.94,2.01Z"/>
      </g>
      <path class="cls-2" d="M214.11,312.16c1.79-4.87,1.4-10.22,1.4-15.41,0-5.19.56-10.73,3.81-14.77,3.62,1.81,10.11,3.37,10.62,7.91.85,7.56-4.54,16.41-5.29,24.03-.88-.51-10.33-2.33-10.54-1.76Z"/>
      <path class="cls-42" d="M280.52,339.3c1.09-1.38,1.43-3.29.73-5.04-1.04-2.62-4.04-3.17-6.63-2.87l-7.2,1.17-35.91,11.23c-.48.19-5.84-10.92-6.22-10.61-1.71,1.37-2.38,15.59-1.53,17.73,1.04,2.62,4.24,5.12,6.87,4.08l38.15-14.94,8.56.56c.92.06,1.85-.17,2.59-.73.22-.17.42-.36.6-.59Z"/>
      <path class="cls-61" d="M214.26,303.83l-16.13,10.42c-.29.17-.57.34-.84.51-8.11,5.18-11.39,15.42-8.26,24.52,0,0,5.68,27.84,4.09,29.86,0,0-2.14,10.71-3.13,17.78l-1.41,10.11c-.36,2.56,1.56,4.91,4.15,5,14.98.55,37.61-7.1,39.33-18.57l-3.89-18.93c-.3-1.44-.47-2.91-.53-4.39l-.65-17.26h0c3.76-6.16,5.61-9.74,2.46-16.23l-1.48-4.07c-1.06-2.18-1.64-4.56-1.7-6.98l-.13-4.95c-.02-6.08-6.6-9.87-11.87-6.83Z"/>
      <path class="cls-42" d="M226.07,287.28l-2.95,16.69c-.52,2.93-3.4,4.82-6.3,4.12l-13.14-3.18v-20.44c0-2.6,2.28-4.63,4.86-4.32l13.43,1.6c2.7.32,4.58,2.85,4.11,5.53Z"/>
      <polygon class="cls-42" points="201.23 312.49 217.05 330.58 219.54 303.65 215.04 297.89 203.68 297.89 201.23 312.49"/>
      <path class="cls-2" d="M195.01,276.6c1.09-1.68,2.34-3.27,3.79-4.74,2.7-2.75,6.75-3.9,10.59-3.62,7.21.52,23.34,8.47,20.58,18.08-1.23,4.28-10.48,1.89-13.97,1.47-2.74-.32-5.74-2.02-5.96-4.77-3.05,6.27-6.17,12.8-6.31,19.77-.1,5.01,1.35,9.95,3.32,14.56,1.02,2.38,2.2,4.83,2.02,7.41-7.98-.68-14.06-7.22-20.12-11.85-.43-.33-.88-.67-1.16-1.14-.42-.71-.39-1.59-.35-2.41.53-10.97,1.43-23.31,7.57-32.76Z"/>
      <polygon class="cls-85" points="219.13 308.12 210.38 306.34 218.43 315.71 219.13 308.12"/>
      <g class="cls-135">
        <path class="cls-6" d="M221.37,388.61c.92-4.54,2.65-8.98,2.6-13.61-.05-4.09-1.49-8.09-1.3-12.18.16-3.31,1.38-6.6.79-9.86-.37-2.08-1.5-4.02-3.13-5.37-.59-.49-1.3-.99-1.4-1.75-.1-.75.46-1.45,1.13-1.8.67-.36,1.43-.47,2.16-.68,3.41-1.02,5.58-4.27,7.46-7.28.08.44.19.88.3,1.32-.71,1.68-1.75,3.45-3,5.5l.65,17.26c.06,1.47.23,2.94.53,4.39l3.89,18.93c-.74,4.91-5.32,9.12-11.49,12.29.07-2.4.33-4.8.8-7.16Z"/>
      </g>
      <rect class="cls-42" x="266.34" y="330.12" width="8.98" height="2.39" rx=".64" ry=".64" transform="translate(-154.48 284.12) rotate(-44.4)"/>
      <path class="cls-42" d="M196.55,395.05c.99,0,1.99-.29,2.86-.88,2.34-1.58,2.94-4.76,1.36-7.1l-6.24-6.84-13.36-22.03,17.8-28.8c1.48-2.4.74-5.55-1.66-7.03-2.4-1.48-5.55-.74-7.03,1.66l-19.14,30.97c-1.29,2.1-1.2,4.76.25,6.76l17.74,24.48,5.13,7.26c.99,1.46.66,1.56,2.3,1.56Z"/>
      <path class="cls-61" d="M186.42,345.4c1.82,0,3.6-.91,4.62-2.58l8.2-13.26c1.58-2.55.79-5.9-1.76-7.47-2.55-1.58-5.9-.79-7.47,1.76l-8.2,13.26c-1.58,2.55-.79,5.9,1.76,7.47.89.55,1.88.81,2.85.81Z"/>
      <path class="cls-42" d="M194.01,393c-1.95,3.03-3.86,2.6-.83,4.55,3.03,1.95,7.07,1.07,9.01-1.96,1.95-3.03,1.07-7.07-1.96-9.01-3.03-1.95-4.28,3.39-6.22,6.42Z"/>
    </g>
    <g>
      <path class="cls-2" d="M317.66,423.46s1.72,15.95,4.59,18.15c0,0,4.45,6.2,12.82,3.72,1.73-.51,2.91-2.19,2.68-3.98-.1-.83-.38-1.84-.93-3.05,0,0-7.06-12.14-6.62-17.88l-12.54,3.04Z"/>
      <path class="cls-108" d="M337.68,440.89c-.31,1.27-1.3,2.32-2.61,2.71-8.37,2.48-12.82-3.72-12.82-3.72-2.3-1.77-3.86-12.32-4.39-16.48l-.2.05s1.72,15.95,4.59,18.15c0,0,4.45,6.2,12.82,3.72,1.73-.51,2.91-2.19,2.68-3.98-.02-.15-.04-.3-.07-.46Z"/>
      <path class="cls-2" d="M357.7,405.61v4.18c0,1.51.8,2.91,2.11,3.66,1.91,1.08,4.92,2.42,8.24,2.47,1.3.02,2.55.46,3.65,1.14,2.06,1.27,6.39,3.01,14.56,2.87,1.61-.03,2.96-1.27,3.03-2.88.04-.89-.09-1.91-.55-2.93-.45-.97-1.29-1.7-2.29-2.08l-15.72-6.01-13.03-.44Z"/>
      <path class="cls-108" d="M386.27,418.4c-8.17.13-12.5-1.61-14.56-2.87-1.11-.68-2.35-1.12-3.65-1.14-3.32-.06-6.33-1.39-8.24-2.47-1.31-.74-2.11-2.15-2.11-3.66v1.53c0,1.51.8,2.91,2.11,3.66,1.91,1.08,4.92,2.42,8.24,2.47,1.3.02,2.55.46,3.65,1.14,2.06,1.27,6.39,3.01,14.56,2.87,1.61-.03,2.96-1.27,3.03-2.88.01-.36,0-.74-.05-1.13-.26,1.4-1.51,2.45-2.98,2.47Z"/>
      <path class="cls-6" d="M364.64,407.06s-.1,0-.15,0c-4.57-.08-6.89,1.45-6.81-3.13l-.43-50.03-7.19-50.34c.28-4.56,14.72-12.22,19.27-11.96,4.56.28,10.59-3.14,10.31,1.42l-5.86,61.7-2.87,49.5c-.08,4.52-1.78,2.83-6.29,2.83Z"/>
      <path class="cls-6" d="M323.86,425.64c-.6,0-1.21-.07-1.83-.2-4.46-1-6.27-2.78-5.27-7.25l10.54-48.31,2.97-38.69,3.43-19.98c.43-4.55,2.86-7.42,7.42-7,4.55.43,28.13-4.04,27.71.52l-7.48,24.66-18.32,43.76-12.43,48.68c-.87,3.85-2.96,3.81-6.74,3.81Z"/>
      <path class="cls-85" d="M367.8,362.16l-4.59-36.65-7.52,17.41,1.57,10.99.43,50.03c-.07,4.1-1.09,3.59,2.59,3.44l7.52-45.21Z"/>
    </g>
    <g>
      <g>
        <polygon class="cls-2" points="757.65 283.47 285.26 556 285.26 648.07 757.65 375.39 757.65 283.47"/>
        <polygon class="cls-6" points="650.69 166.74 153.49 453.56 153.49 492.47 650.69 205.51 650.69 166.74"/>
        <polygon class="cls-6" points="606.09 181.65 606.09 196.3 725.31 265.21 738.06 257.85 606.09 181.65"/>
        <polygon class="cls-61" points="612.54 195.23 159.8 457.37 276.89 525.73 730.08 263.09 612.54 195.23"/>
        <polygon class="cls-6" points="782.45 243.8 285.26 530.61 285.26 569.52 782.45 282.56 782.45 243.8"/>
        <polygon class="cls-129" points="285.26 530.61 276.28 525.37 772.42 238.01 782.45 243.8 285.26 530.61"/>
        <polygon class="cls-129" points="153.49 453.56 144.69 448.55 640.77 160.81 650.8 166.6 153.49 453.56"/>
        <polygon class="cls-129" points="772.42 238.01 640.22 160.13 606.09 181.65 738.06 257.85 772.42 238.01"/>
        <polygon class="cls-2" points="144.69 448.55 144.69 566.74 285.26 648.02 285.26 530.61 144.69 448.55"/>
      </g>
      <g>
        <polygon class="cls-81" points="659.08 432.09 659.08 151.6 521.7 74.44 521.7 232.58 649.81 308.64 649.48 437.48 659.08 432.09"/>
        <polygon class="cls-2" points="649.48 308.64 649.48 206.7 527.06 135.26 527.06 237.16 649.48 308.64"/>
        <polygon class="cls-129" points="788.93 79.06 788.93 357.4 659.08 432.09 659.08 151.6 788.93 79.06"/>
        <polygon class="cls-2" points="785 89.74 785 353.51 663.01 423.68 663.01 157.89 785 89.74"/>
        <polygon class="cls-84" points="621.72 190.43 532.76 241.06 648.45 309.42 649.48 308.64 649.48 206.66 621.72 190.43"/>
        <polygon class="cls-6" points="527.06 244.31 527.06 237.16 615.96 187.06 621.72 190.43 527.06 244.31"/>
        <g>
          <path class="cls-126" d="M598.89,164.15c.23,0,.41-.18.41-.41v-28.02c0-.23-.18-.41-.41-.41s-.41.18-.41.41v28.02c0,.23.18.41.41.41Z"/>
          <path class="cls-126" d="M592.74,160.47c.23,0,.41-.18.41-.41v-34.15c0-.23-.18-.41-.41-.41s-.41.18-.41.41v34.15c0,.23.18.41.41.41Z"/>
          <path class="cls-126" d="M586.59,167c.23,0,.41-.18.41-.41v-36.19c0-.23-.18-.41-.41-.41s-.41.18-.41.41v36.19c0,.23.18.41.41.41Z"/>
          <path class="cls-126" d="M580.45,153.12c.23,0,.41-.18.41-.41v-38.23c0-.23-.18-.41-.41-.41s-.41.18-.41.41v38.23c0,.23.18.41.41.41Z"/>
          <path class="cls-126" d="M574.3,151.49c.23,0,.41-.18.41-.41v-28.02c0-.23-.18-.41-.41-.41s-.41.18-.41.41v28.02c0,.23.18.41.41.41Z"/>
          <path class="cls-126" d="M568.15,145.78c.23,0,.41-.18.41-.41v-32.11c0-.23-.18-.41-.41-.41s-.41.18-.41.41v32.11c0,.23.18.41.41.41Z"/>
          <path class="cls-126" d="M562.01,148.23c.23,0,.41-.18.41-.41v-32.11c0-.23-.18-.41-.41-.41s-.41.18-.41.41v32.11c0,.23.18.41.41.41Z"/>
          <path class="cls-126" d="M555.86,138.43c.23,0,.41-.18.41-.41v-32.11c0-.23-.18-.41-.41-.41s-.41.18-.41.41v32.11c0,.23.18.41.41.41Z"/>
          <path class="cls-126" d="M549.71,140.88c.23,0,.41-.18.41-.41v-36.19c0-.23-.18-.41-.41-.41s-.41.18-.41.41v36.19c0,.23.18.41.41.41Z"/>
          <path class="cls-32" d="M598.89,156.39c.45,0,.82-.37.82-.82v-11.7c0-.45-.37-.82-.82-.82s-.82.37-.82.82v11.7c0,.45.37.82.82.82Z"/>
          <path class="cls-32" d="M592.74,152.72c.45,0,.82-.37.82-.82v-17.82c0-.45-.37-.82-.82-.82s-.82.37-.82.82v17.82c0,.45.37.82.82.82Z"/>
          <path class="cls-32" d="M586.59,159.25c.45,0,.82-.37.82-.82v-23.94c0-.45-.37-.82-.82-.82s-.82.37-.82.82v23.94c0,.45.37.82.82.82Z"/>
          <path class="cls-32" d="M580.45,149.45c.45,0,.82-.37.82-.82v-30.07c0-.45-.37-.82-.82-.82s-.82.37-.82.82v30.07c0,.45.37.82.82.82Z"/>
          <path class="cls-32" d="M574.3,143.74c.45,0,.82-.37.82-.82v-13.74c0-.45-.37-.82-.82-.82s-.82.37-.82.82v13.74c0,.45.37.82.82.82Z"/>
          <path class="cls-32" d="M568.15,140.06c.45,0,.82-.37.82-.82v-17.82c0-.45-.37-.82-.82-.82s-.82.37-.82.82v17.82c0,.45.37.82.82.82Z"/>
          <path class="cls-32" d="M562.01,142.51c.45,0,.82-.37.82-.82v-19.86c0-.45-.37-.82-.82-.82s-.82.37-.82.82v19.86c0,.45.37.82.82.82Z"/>
          <path class="cls-32" d="M555.86,132.71c.45,0,.82-.37.82-.82v-19.86c0-.45-.37-.82-.82-.82s-.82.37-.82.82v19.86c0,.45.37.82.82.82Z"/>
          <path class="cls-32" d="M549.71,135.16c.45,0,.82-.37.82-.82v-23.94c0-.45-.37-.82-.82-.82s-.82.37-.82.82v23.94c0,.45.37.82.82.82Z"/>
          <polygon class="cls-109" points="633.81 150.17 611.08 137.05 611.08 141.38 633.81 154.51 633.81 150.17"/>
          <polygon class="cls-109" points="633.81 161.74 603.88 144.46 603.88 147.09 633.81 164.38 633.81 161.74"/>
          <polygon class="cls-109" points="633.81 167.8 603.88 150.51 603.88 153.15 633.81 170.43 633.81 167.8"/>
          <polygon class="cls-109" points="633.81 173.85 603.88 156.57 603.88 159.2 633.81 176.48 633.81 173.85"/>
          <polygon class="cls-109" points="633.81 179.9 603.88 162.62 603.88 165.25 633.81 182.54 633.81 179.9"/>
          <polygon class="cls-109" points="619.76 177.65 603.68 168.18 603.68 170.81 619.76 180.29 619.76 177.65"/>
        </g>
        <path class="cls-64" d="M523.15,72.15L646.14,1.21c2.78-1.6,6.2-1.61,8.99-.03l132.34,75.23c1.94,1.1,1.95,3.89.03,5.01l-123.87,72.07c-2.81,1.64-6.28,1.64-9.09,0l-131.39-76.35c-1.92-1.12-1.92-3.89,0-5.01Z"/>
        <polygon class="cls-117" points="677.41 171.18 772.18 115.82 772.18 204.28 677.41 259.64 677.41 171.18"/>
        <polygon class="cls-6" points="680.89 312.99 723.05 288.36 723.05 327.19 680.89 351.82 680.89 312.99"/>
        <polygon class="cls-108" points="730.02 287.81 773.3 263.11 773.3 267.85 730.02 292.27 730.02 287.81"/>
        <polygon class="cls-108" points="730.52 297.23 773.8 272.53 773.8 277.27 730.52 301.69 730.52 297.23"/>
        <polygon class="cls-108" points="751.1 295.45 774.29 281.96 774.29 286.7 751.1 299.91 751.1 295.45"/>
        <polygon class="cls-108" points="678.78 280.34 771.69 226.89 771.69 231.63 678.78 284.8 678.78 280.34"/>
        <polygon class="cls-108" points="679.28 289.76 772.18 236.31 772.18 241.05 679.28 294.22 679.28 289.76"/>
        <polygon class="cls-108" points="699.86 287.98 772.68 245.73 772.68 250.48 699.86 292.44 699.86 287.98"/>
        <polygon class="cls-2" points="677.41 253.7 677.41 230.76 682.79 208.1 694.63 219.03 703.7 201.03 715.9 209.58 720.21 198.29 727.5 187.8 734.61 192.06 745.85 184.12 757.33 183 762.71 176.7 772.18 176.27 772.18 199.02 677.41 253.7"/>
        <polygon class="cls-32" points="677.41 259.64 677.41 245.61 688.72 229.54 694.63 233.88 706.58 210.17 710.93 217.79 717.27 217.79 727.5 202.65 733.47 198.97 745.85 198.97 753.75 187.49 762.71 191.55 772.18 191.12 772.18 204.96 677.41 259.64"/>
        <polygon class="cls-108" points="754.84 146.46 765.33 140.48 765.33 144.62 754.84 150.6 754.84 146.46"/>
        <polygon class="cls-108" points="727.97 168.2 765.5 146.51 765.5 150.65 727.97 172.35 727.97 168.2"/>
        <g>
          <polygon class="cls-91" points="663.01 358.02 785 124.83 785 175.42 663.01 408.62 663.01 358.02"/>
          <polygon class="cls-91" points="727.96 121.61 784.8 89.85 663.01 322.67 663.01 245.76 727.96 121.61"/>
        </g>
      </g>
    </g>
    <g>
      <polygon class="cls-9" points="222.89 435.21 288.24 397.48 353.58 435.21 288.24 472.94 222.89 435.21"/>
      <polygon class="cls-120" points="222.89 435.21 222.89 463.51 288.24 501.23 288.24 472.94 222.89 435.21"/>
      <polygon class="cls-108" points="225.93 441.98 225.93 449.11 242.38 458.62 242.38 451.49 225.93 441.98"/>
      <polygon class="cls-26" points="288.24 501.23 353.58 463.51 353.58 435.21 288.24 472.94 288.24 501.23"/>
      <polygon class="cls-32" points="249.03 478.6 249.03 450.3 262.1 457.84 262.1 486.14 249.03 478.6"/>
      <polygon class="cls-32" points="249.03 450.3 314.4 412.73 327.92 420.08 262.1 457.84 249.03 450.3"/>
    </g>
    <g>
      <polygon class="cls-9" points="376.1 341.81 441.44 304.09 506.78 341.81 441.44 379.54 376.1 341.81"/>
      <polygon class="cls-120" points="376.1 341.81 376.1 370.11 441.44 407.84 441.44 379.54 376.1 341.81"/>
      <polygon class="cls-108" points="379.13 348.59 379.13 355.72 395.59 365.22 395.59 358.09 379.13 348.59"/>
      <polygon class="cls-26" points="441.44 407.84 506.78 370.11 506.78 341.81 441.44 379.54 441.44 407.84"/>
      <polygon class="cls-32" points="402.23 385.2 402.23 356.9 415.3 364.45 415.3 392.75 402.23 385.2"/>
      <polygon class="cls-32" points="402.23 356.9 467.61 319.33 481.13 326.68 415.3 364.45 402.23 356.9"/>
    </g>
    <g>
      <polygon class="cls-9" points="516.18 261.8 581.61 224.03 647.04 261.8 581.61 299.58 516.18 261.8"/>
      <polygon class="cls-84" points="542.35 246.68 581.61 224.03 647.04 261.8 607.78 284.45 542.35 246.68"/>
      <polygon class="cls-120" points="516.18 261.8 516.18 290.14 581.61 327.92 581.61 299.58 516.18 261.8"/>
      <polygon class="cls-108" points="519.22 268.59 519.22 275.73 535.7 285.24 535.7 278.1 519.22 268.59"/>
      <polygon class="cls-26" points="581.61 327.92 647.04 290.14 647.04 261.8 581.61 299.58 581.61 327.92"/>
      <polygon class="cls-84" points="607.56 312.79 647.04 290.14 647.04 261.8 607.56 284.45 607.56 312.79"/>
      <polygon class="cls-32" points="542.35 305.25 542.35 276.91 555.44 284.47 555.44 312.81 542.35 305.25"/>
      <polygon class="cls-32" points="542.35 276.91 607.81 239.3 621.35 246.65 555.44 284.47 542.35 276.91"/>
    </g>
    <g>
      <path class="cls-42" d="M416.86,302.42c-.66,0-1.34-.11-2-.35l-10.45-5.7-29.13-8.37-9.1-50.72c-.58-3.24,1.57-6.34,4.81-6.92,3.24-.58,6.34,1.57,6.92,4.81l7.88,43.91,22.03,9.82,11.03,1.94c3.1,1.1,4.72,4.51,3.62,7.61-.87,2.44-3.17,3.96-5.62,3.96Z"/>
      <path class="cls-2" d="M376.29,266.17c-2.99,0-5.64-2.14-6.19-5.18l-4.24-23.66c-.61-3.42,1.66-6.69,5.08-7.3,3.42-.61,6.69,1.66,7.3,5.08l4.24,23.66c.61,3.42-1.66,6.69-5.08,7.3-.38.07-.75.1-1.12.1Z"/>
      <path class="cls-2" d="M339.72,239.47l20.21-11.78c8.67-5.06,19.56,1.18,19.59,11.22l.13,65.71c-5.42,12.71-36.17,20.69-48.14,13.8l4.14-16.17c1.85-8.55,1.91-17.4.16-25.98l-4.5-22.07c-.04-6.06,3.17-11.68,8.4-14.73Z"/>
      <polygon class="cls-42" points="366.32 240.22 364.43 243.96 350.07 241.15 350.07 221.92 365.53 221.92 366.32 240.22"/>
      <path class="cls-6" d="M350.07,233.44l-5.75,3.12s3.88,12.7,14.98,13.69c0,0,1.49-6.79,5.13-6.29,0,0-12.26-2.08-14.36-10.52Z"/>
      <path class="cls-6" d="M364.43,243.96s5.63-1.32,7.62,1.82c0,0-2.47-8.28-5.62-12.92l-2,11.09Z"/>
      <path class="cls-42" d="M372.91,211.03l-1.66,20.92c-.13,1.63-.97,3.13-2.29,4.1h0c-1.7,1.24-3.95,1.44-5.85.53l-8.57-4.11c-2.73-1.31-4.46-4.06-4.46-7.09v-18.68h18.85c2.34,0,4.18,1.99,3.99,4.32Z"/>
      <path class="cls-2" d="M373.26,199.98c-4.89-1.79-10.22,1.79-15.39,1.14-1.87-.24-3.63-1.02-5.47-1.45-1.84-.42-3.94-.42-5.42.75-1.04.82-1.62,2.08-2.15,3.3-.67,1.52-1.35,3.05-2.02,4.57-.87,1.98-1.77,4.18-1.12,6.25.67,2.13,2.8,3.51,3.66,5.58.62,1.49.51,3.17.81,4.76.31,1.66,1.71,3.37,3.35,3.89.46.15.97-.16,1.21-.57.24-.42.28-.92.3-1.4.1-2.78-1.15-5.53.77-7.86.56-.67,1.45-1.26,2.26-.94.68.27.99,1.06,1.09,1.78.3,2.21-.59,4.71.67,6.55.23.33.6.65.99.56.33-.08.53-.41.66-.72.9-2.24-.18-4.75-.27-7.17-.1-2.48,1.05-6.97,4.16-6.07,1.29.37,2.59,2.05,3.98,2.59,1.62.63,3.38.88,5.1.64,3.7-.52,7.02-3.44,7.75-7.11.73-3.67-1.4-7.77-4.91-9.06Z"/>
      <polygon class="cls-48" points="365.66 237.14 360.15 235.34 364.87 241.54 365.66 237.14"/>
      <path class="cls-42" d="M378.2,320.27c-.58,0-1.17-.09-1.75-.26l-12.16-5.71-31.49-7.67c-2.82-.86-4.67-3.56-4.47-6.5l3.41-49.25c.23-3.28,3.08-5.76,6.36-5.54,3.28.23,5.76,3.07,5.54,6.36l-3.1,44.83,29.56,11.38,9.85.7c3.15.96,4.92,4.3,3.95,7.45-.79,2.57-3.15,4.22-5.7,4.22Z"/>
      <path class="cls-2" d="M336.25,278.56c-.15,0-.29,0-.44-.02-3.47-.24-6.08-3.25-5.84-6.71l1.45-20.99c.24-3.47,3.25-6.08,6.71-5.84,3.47.24,6.08,3.25,5.84,6.71l-1.45,20.99c-.23,3.32-2.99,5.86-6.27,5.86Z"/>
    </g>
    <g>
      <g>
        <path class="cls-2" d="M539.91,696.01c0-11.61,8.22-25.85,18.28-31.65,5.05-2.92,9.64-3.17,12.95-1.22v-.03s7.93,4.57,7.93,4.57l-3.4,1.55c.52,1.65.8,3.55.8,5.68,0,11.61-8.22,25.85-18.28,31.65-1.32.76-2.6,1.33-3.84,1.74l-.38,4.47-8.5-4.86h0c-3.42-1.87-5.55-6-5.55-11.91Z"/>
        <path class="cls-11" d="M566.69,669.21c10.05-5.8,18.28-1.06,18.28,10.55,0,11.61-8.22,25.85-18.28,31.65-10.05,5.8-18.28,1.05-18.28-10.55s8.22-25.85,18.28-31.65Z"/>
        <path class="cls-2" d="M566.69,675.87c6.88-3.97,12.5-.72,12.5,7.22,0,7.94-5.63,17.69-12.5,21.66-6.88,3.97-12.5.72-12.5-7.22s5.63-17.69,12.5-21.66Z"/>
        <path class="cls-108" d="M566.69,681.45c4.22-2.44,7.67-.44,7.67,4.43,0,4.87-3.45,10.85-7.67,13.28-4.22,2.44-7.67.44-7.67-4.43s3.45-10.85,7.67-13.28Z"/>
      </g>
      <g>
        <path class="cls-2" d="M635.31,642.84c0-11.61,8.22-25.85,18.28-31.65,5.05-2.92,9.64-3.17,12.95-1.22v-.03s7.93,4.57,7.93,4.57l-3.4,1.55c.52,1.65.8,3.55.8,5.68,0,11.61-8.22,25.85-18.28,31.65-1.32.76-2.6,1.33-3.84,1.74l-.38,4.47-8.5-4.86h0c-3.42-1.87-5.55-6-5.55-11.91Z"/>
        <path class="cls-11" d="M662.09,616.04c10.05-5.8,18.28-1.06,18.28,10.55,0,11.61-8.22,25.85-18.28,31.65-10.05,5.8-18.28,1.05-18.28-10.55s8.22-25.85,18.28-31.65Z"/>
        <path class="cls-2" d="M662.09,622.7c6.88-3.97,12.5-.72,12.5,7.22,0,7.94-5.63,17.69-12.5,21.66-6.88,3.97-12.5.72-12.5-7.22s5.63-17.69,12.5-21.66Z"/>
        <path class="cls-108" d="M662.09,628.28c4.22-2.44,7.67-.44,7.67,4.43,0,4.87-3.45,10.85-7.67,13.28-4.22,2.44-7.67.44-7.67-4.43s3.45-10.85,7.67-13.28Z"/>
      </g>
      <path class="cls-126" d="M403.27,644.78l2.94,1.53c.39-.33.81-.63,1.27-.9l191.36-110.48c6.29-3.63,14.05-3.61,20.33.05l97.78,57.72c.62.36,1.17.79,1.66,1.26l2.52-2.45v9.18l-.04.05c-.23,2.57-1.63,5.05-4.19,6.52l-191.43,109.74c-6.26,3.59-13.95,3.57-20.19-.03l-97.78-56.98c-2.81-1.62-4.21-4.45-4.21-7.29v-7.92Z"/>
      <g class="cls-135">
        <polygon class="cls-15" points="741.06 531.3 655.27 580.87 686.12 598.81 771.46 548.85 741.06 531.3"/>
        <polygon class="cls-63" points="741.43 531.08 656.89 579.94 687.72 597.87 771.46 548.85 741.43 531.08"/>
        <polygon class="cls-40" points="741.8 530.85 658.5 579 689.33 596.94 771.46 548.85 741.8 530.85"/>
        <polygon class="cls-27" points="742.17 530.63 660.11 578.07 690.93 596 771.46 548.85 742.17 530.63"/>
        <polygon class="cls-14" points="742.54 530.41 661.73 577.14 692.53 595.06 771.46 548.85 742.54 530.41"/>
        <polygon class="cls-111" points="742.91 530.19 663.34 576.21 694.14 594.12 771.46 548.85 742.91 530.19"/>
        <polygon class="cls-86" points="743.28 529.97 664.95 575.27 695.74 593.18 771.46 548.85 743.28 529.97"/>
        <polygon class="cls-33" points="743.65 529.74 666.57 574.34 697.34 592.24 771.46 548.85 743.65 529.74"/>
        <polygon class="cls-19" points="744.02 529.52 668.18 573.41 698.95 591.31 771.46 548.85 744.02 529.52"/>
        <polygon class="cls-89" points="744.39 529.3 669.8 572.48 700.55 590.37 771.46 548.85 744.39 529.3"/>
        <polygon class="cls-94" points="744.76 529.08 671.41 571.54 702.15 589.43 771.46 548.85 744.76 529.08"/>
        <polygon class="cls-20" points="745.13 528.86 673.02 570.61 703.76 588.49 771.46 548.85 745.13 528.86"/>
        <polygon class="cls-79" points="745.5 528.63 674.64 569.68 705.36 587.55 771.46 548.85 745.5 528.63"/>
        <polygon class="cls-38" points="745.87 528.41 676.25 568.75 706.96 586.61 771.46 548.85 745.87 528.41"/>
        <polygon class="cls-95" points="746.24 528.19 677.86 567.81 708.57 585.67 771.46 548.85 746.24 528.19"/>
        <polygon class="cls-43" points="746.61 527.97 679.48 566.88 710.17 584.74 771.46 548.85 746.61 527.97"/>
        <polygon class="cls-1" points="746.98 527.75 681.09 565.95 711.77 583.8 771.46 548.85 746.98 527.75"/>
        <polygon class="cls-51" points="747.35 527.52 682.7 565.02 713.38 582.86 771.46 548.85 747.35 527.52"/>
        <polygon class="cls-35" points="747.72 527.3 684.32 564.08 714.98 581.92 771.46 548.85 747.72 527.3"/>
        <polygon class="cls-31" points="748.09 527.08 685.93 563.15 716.59 580.98 771.46 548.85 748.09 527.08"/>
        <polygon class="cls-75" points="748.45 526.86 687.55 562.22 718.19 580.04 771.46 548.85 748.45 526.86"/>
        <polygon class="cls-23" points="748.82 526.64 689.16 561.29 719.79 579.1 771.46 548.85 748.82 526.64"/>
        <polygon class="cls-105" points="749.19 526.41 690.77 560.35 721.4 578.17 771.46 548.85 749.19 526.41"/>
        <polygon class="cls-104" points="749.56 526.19 692.39 559.42 723 577.23 771.46 548.85 749.56 526.19"/>
        <polygon class="cls-24" points="749.93 525.97 694 558.49 724.6 576.29 771.46 548.85 749.93 525.97"/>
        <polygon class="cls-7" points="750.3 525.75 695.61 557.56 726.21 575.35 771.46 548.85 750.3 525.75"/>
        <polygon class="cls-92" points="750.67 525.53 697.23 556.62 727.81 574.41 771.46 548.85 750.67 525.53"/>
        <polygon class="cls-103" points="751.04 525.31 698.84 555.69 729.41 573.47 771.46 548.85 751.04 525.31"/>
        <polygon class="cls-132" points="751.41 525.08 700.45 554.76 731.02 572.54 771.46 548.85 751.41 525.08"/>
        <polygon class="cls-88" points="751.78 524.86 702.07 553.83 732.62 571.6 771.46 548.85 751.78 524.86"/>
        <polygon class="cls-115" points="752.15 524.64 703.68 552.89 734.22 570.66 771.46 548.85 752.15 524.64"/>
        <polygon class="cls-93" points="752.52 524.42 705.3 551.96 735.83 569.72 771.46 548.85 752.52 524.42"/>
        <polygon class="cls-114" points="752.89 524.2 706.91 551.03 737.43 568.78 771.46 548.85 752.89 524.2"/>
        <polygon class="cls-47" points="753.26 523.97 708.52 550.1 739.03 567.84 771.46 548.85 753.26 523.97"/>
        <polygon class="cls-58" points="753.63 523.75 710.14 549.16 740.64 566.9 771.46 548.85 753.63 523.75"/>
        <polygon class="cls-69" points="754 523.53 711.75 548.23 742.24 565.97 771.46 548.85 754 523.53"/>
        <polygon class="cls-4" points="754.37 523.31 713.36 547.3 743.84 565.03 771.46 548.85 754.37 523.31"/>
        <polygon class="cls-100" points="754.74 523.09 714.98 546.37 745.45 564.09 771.46 548.85 754.74 523.09"/>
        <polygon class="cls-17" points="755.11 522.86 716.59 545.43 747.05 563.15 771.46 548.85 755.11 522.86"/>
        <polygon class="cls-22" points="755.48 522.64 718.21 544.5 748.65 562.21 771.46 548.85 755.48 522.64"/>
        <polygon class="cls-121" points="755.85 522.42 719.82 543.57 750.26 561.27 771.46 548.85 755.85 522.42"/>
        <polygon class="cls-66" points="756.22 522.2 721.43 542.64 751.86 560.33 771.46 548.85 756.22 522.2"/>
        <polygon class="cls-77" points="756.59 521.98 723.05 541.7 753.46 559.4 771.46 548.85 756.59 521.98"/>
        <polygon class="cls-25" points="756.96 521.75 724.66 540.77 755.07 558.46 771.46 548.85 756.96 521.75"/>
        <polygon class="cls-128" points="757.33 521.53 726.27 539.84 756.67 557.52 771.46 548.85 757.33 521.53"/>
        <polygon class="cls-46" points="757.7 521.31 727.89 538.91 758.27 556.58 771.46 548.85 757.7 521.31"/>
        <polygon class="cls-54" points="758.07 521.09 729.5 537.97 759.88 555.64 771.46 548.85 758.07 521.09"/>
        <polygon class="cls-73" points="758.44 520.87 731.11 537.04 761.48 554.7 771.46 548.85 758.44 520.87"/>
        <polygon class="cls-110" points="758.81 520.64 732.73 536.11 763.08 553.77 771.46 548.85 758.81 520.64"/>
        <polygon class="cls-44" points="759.18 520.42 734.34 535.18 764.69 552.83 771.46 548.85 759.18 520.42"/>
        <polygon class="cls-5" points="759.55 520.2 735.96 534.24 766.29 551.89 771.46 548.85 759.55 520.2"/>
        <polygon class="cls-50" points="759.92 519.98 737.57 533.31 767.89 550.95 771.46 548.85 759.92 519.98"/>
      </g>
      <path class="cls-82" d="M716.88,599.54l-191.43,109.74c-6.26,3.59-13.95,3.57-20.19-.03l-97.78-56.98c-5.61-3.24-5.61-11.33,0-14.57l191.36-110.48c6.29-3.63,14.05-3.61,20.33.05l97.78,57.72c5.59,3.26,5.56,11.35-.06,14.56Z"/>
      <path class="cls-2" d="M603.34,548.09c1.55,0,2.81-1.26,2.81-2.81v-82.41c0-3.59,1.86-6.82,4.96-8.62,3.11-1.81,6.83-1.82,9.95-.04l48.69,27.74c2.82,1.61,5.46,3.54,7.85,5.74,1.14,1.05,2.92.98,3.97-.16,1.05-1.14.98-2.92-.16-3.97-2.7-2.49-5.68-4.67-8.88-6.49l-48.69-27.74c-4.88-2.78-10.69-2.76-15.55.07-4.86,2.82-7.76,7.86-7.76,13.48v82.41c0,1.55,1.26,2.81,2.81,2.81Z"/>
      <path class="cls-42" d="M651.47,465.07c-2.03.27-3.34-.3-4.48-2.15-1.55-2.51-.56-4.73,1.96-6.28l26.46-17.5,8.01,7.62-29.84,17.55c-.66.41-1.38.65-2.1.75Z"/>
      <path class="cls-42" d="M647.91,456.03c3.35,2.59,4.84,6.27,3.33,8.22-1.51,1.95-5.45,1.43-8.8-1.17-3.35-2.59-4.84-6.27-3.33-8.22,1.51-1.95,5.45-1.43,8.8,1.17Z"/>
      <path class="cls-42" d="M641.02,454.69h0c-.69-.51-1.67-.37-2.18.33l-4.11,5.55c-.51.69-.37,1.67.33,2.18h0c.69.51,1.67.37,2.18-.33l4.11-5.55c.51-.69.37-1.67-.33-2.18Z"/>
      <path class="cls-42" d="M643.44,457.32h0c-.69-.51-1.67-.37-2.18.33l-4.11,5.55c-.51.69-.37,1.67.33,2.18h0c.69.51,1.67.37,2.18-.33l4.11-5.55c.51-.69.37-1.67-.33-2.18Z"/>
      <path class="cls-42" d="M645.71,459.93h0c-.69-.51-1.67-.37-2.18.33l-4.11,5.55c-.51.69-.37,1.67.33,2.18h0c.69.51,1.67.37,2.18-.33l4.11-5.55c.51-.69.37-1.67-.33-2.18Z"/>
      <path class="cls-42" d="M648.99,461.8h0c-.69-.51-1.67-.37-2.18.33l-4.11,5.55c-.51.69-.37,1.67.33,2.18h0c.69.51,1.67.37,2.18-.33l4.11-5.55c.51-.69.37-1.67-.33-2.18Z"/>
      <path class="cls-2" d="M720.4,547.85l-3.31,7.83-4.9,3.87c-1.19.08-2.11,1.07-2.11,2.26h0c0,1.57,1.27,2.83,2.83,2.83h8.13c2.04,0,3.99-.79,5.45-2.21l10.52-10.22c2.14-2.08,1.84-5.6-.62-7.29l-2.72-1.87-2.86-1.62-10.42,6.42Z"/>
      <path class="cls-6" d="M724.39,548.55c-2.86,0-5.71-1.2-7.73-3.53l-26.37-29.45c-3.16-2.54-3.97-7.02-1.9-10.5l19.08-32.1c3.1-5.22,10.13-6.66,15.08-2.81,4.09,3.19,20.69,3.76,20.69,3.76l-33.4,35.01,21.16,32.47c1.29,1.5,1.17,3.83-.41,5.04-1.84,1.42-4.03,2.11-6.21,2.11Z"/>
      <path class="cls-2" d="M767.37,532.57l-1.45,9.13-3.66,5.05c-1.12.4-1.74,1.6-1.42,2.74h0c.42,1.5,1.99,2.38,3.49,1.96l7.82-2.2c1.96-.55,3.62-1.84,4.65-3.6l7.35-12.68c1.5-2.58.26-5.89-2.57-6.85l-3.12-1.06-3.19-.78-7.89,8.29Z"/>
      <path class="cls-6" d="M658.89,461.53c-2.23.16-4.46-.92-5.65-2.99-1.66-2.87-.68-6.55,2.2-8.21l46.85-27.2c2.87-1.66,6.55-.68,8.21,2.2,1.66,2.87.68,6.55-2.2,8.21l-46.85,27.2c-.81.47-1.69.73-2.56.79Z"/>
      <path class="cls-6" d="M766.66,532.55c-1.96,0-25.66-9.36-25.66-9.36-2.12-.99-3.77-2.77-4.61-4.95l-22.55-36.65c-2-5.22,9.02-10.68,14.18-12.83,5.34-2.22,13.17-.2,15.22,5.15l11.21,34.42,18.05,14.27c4.67,3.15,3.03,2.81-.12,7.47-1.97,2.92-2.44,2.48-5.71,2.48Z"/>
      <path class="cls-42" d="M672.23,480.39c-2.04,0-3.27-.73-4.16-2.72-1.21-2.69.07-4.76,2.76-5.97l28.53-13.88,15.38-20.91c1.75-2.38,5.09-2.89,7.47-1.14,2.38,1.75,2.89,5.09,1.14,7.47l-17.05,23.18-31.89,13.49c-.71.32-1.45.47-2.18.47Z"/>
      <path class="cls-6" d="M743.24,473.91c-12.25,7.07-30.43,14.28-35.97,1.26l-2.17-7.96-24.27,10.76c-.76.34-1.55.5-2.32.5-2.18,0-4.09-2.28-5.04-4.39-1.28-2.87,0-6.24,2.88-7.53l24.36-10.8.92-1.26-7.82-28.68c0-9.07,9.82-14.73,17.67-10.2l11.15,5.78c9.64,5.57,12.53,14.95,15.58,26.99l5.02,25.52Z"/>
      <path class="cls-42" d="M669.89,470.96c2.98,3.01,3.98,6.85,2.23,8.59-1.75,1.74-5.59.7-8.57-2.31-2.98-3.01-3.98-6.85-2.23-8.59,1.75-1.73,5.59-.7,8.57,2.31Z"/>
      <polygon class="cls-42" points="703.13 434.74 717.8 418.89 714.51 412.49 706.64 412.05 703.13 434.74"/>
      <path class="cls-42" d="M710.98,420.08l4.9-1.69c2.15-.74,3.29-3.09,2.55-5.24l-6.61-19.15-20.91,7.22,3.77,10.93c2.31,6.69,9.61,10.25,16.3,7.93Z"/>
      <path class="cls-32" d="M696.1,398.94c-.29-1.57-.18-3.22.35-4.71,1.32-3.7,5.37-5.15,9.1-4.89,3.17.22,6.55-.81,9.53.66,5.38,2.66,7.43,10.27,6.94,15.81-.09.97-.27,1.93-.46,2.89-.47,2.42-.43,4.88-1.03,7.3-.08.32-.17.65-.41.87-.34.32-.9.31-1.31.09-.41-.22-.71-.61-.97-1-1.23-1.89-.33-3.15-.68-5.2-.31-1.8-1.92-3.11-3.8-2.77-2.4.43-2.05,2.59-2.3,4.58-.1.79-.5,1.63-1.27,1.87-.93.28-1.88-.5-2.27-1.38-.39-.89-.43-1.89-.76-2.8-1.2-3.36-5.48-4.27-8.14-6.65-1.35-1.21-2.19-2.88-2.52-4.65Z"/>
      <path class="cls-52" d="M722.08,440.73c.05-2.91,1.01-4.54.13-4.94-1.8-.83-5.26,14.21-9.74,23.83-2.18,4.68-7.37,7.61-7.37,7.61l1.25,4.58h0c3.33-2.09,6.03-5.05,7.82-8.55l7.9-22.52Z"/>
      <path class="cls-42" d="M663.23,468.73h0c-.62-.6-1.61-.58-2.21.04l-4.8,4.97c-.6.62-.58,1.61.04,2.21h0c.62.6,1.61.58,2.21-.04l4.8-4.97c.6-.62.58-1.61-.04-2.21Z"/>
      <path class="cls-42" d="M665.29,471.66h0c-.62-.6-1.61-.58-2.21.04l-4.8,4.97c-.6.62-.58,1.61.04,2.21h0c.62.6,1.61.58,2.21-.04l4.8-4.97c.6-.62.58-1.61-.04-2.21Z"/>
      <path class="cls-42" d="M667.2,474.54h0c-.62-.6-1.61-.58-2.21.04l-4.8,4.97c-.6.62-.58,1.61.04,2.21h0c.62.6,1.61.58,2.21-.04l4.8-4.97c.6-.62.58-1.61-.04-2.21Z"/>
      <path class="cls-42" d="M670.2,476.82h0c-.62-.6-1.61-.58-2.21.04l-4.8,4.97c-.6.62-.58,1.61.04,2.21h0c.62.6,1.61.58,2.21-.04l4.8-4.97c.6-.62.58-1.61-.04-2.21Z"/>
      <polygon class="cls-2" points="715.64 484.47 705.6 509.7 729.99 539.85 709.84 508.92 722.58 495.57 715.64 484.47"/>
      <path class="cls-2" d="M694.21,601.1c1.55,0,2.81-1.26,2.81-2.81v-79.06c0-13.51-5.69-26.51-15.62-35.66-1.14-1.05-2.92-.98-3.97.16-1.05,1.14-.98,2.92.16,3.97,8.78,8.1,13.81,19.59,13.81,31.54v79.06c0,1.55,1.26,2.81,2.81,2.81Z"/>
      <path class="cls-2" d="M692.72,531.59c.98,0,1.93-.51,2.44-1.42.76-1.35.29-3.06-1.06-3.83l-89.38-50.64c-1.35-.76-3.06-.29-3.83,1.06-.76,1.35-.29,3.06,1.06,3.83l89.38,50.64c.44.25.91.37,1.38.37Z"/>
      <path class="cls-2" d="M692.72,560.7c.98,0,1.93-.51,2.44-1.42.76-1.35.29-3.06-1.06-3.83l-89.38-50.64c-1.35-.76-3.06-.29-3.83,1.06-.76,1.35-.29,3.06,1.06,3.83l89.38,50.64c.44.25.91.37,1.38.37Z"/>
      <path class="cls-2" d="M692.72,589.81c.98,0,1.93-.51,2.44-1.42.76-1.35.29-3.06-1.06-3.83l-89.38-50.64c-1.35-.76-3.06-.29-3.83,1.06-.76,1.35-.29,3.06,1.06,3.83l89.38,50.64c.44.25.91.37,1.38.37Z"/>
      <g>
        <polygon class="cls-116" points="532.17 535.12 599.95 495.99 667.73 535.12 599.95 574.25 532.17 535.12"/>
        <polygon class="cls-11" points="532.17 535.12 532.17 613.7 599.95 652.83 599.95 574.25 532.17 535.12"/>
        <polygon class="cls-108" points="535.32 542.15 535.32 549.54 552.39 559.4 552.39 552.01 535.32 542.15"/>
        <polygon class="cls-6" points="599.95 652.83 667.73 613.7 667.73 535.12 599.95 574.25 599.95 652.83"/>
        <polygon class="cls-108" points="559.29 629.35 559.29 550.78 572.84 558.6 572.84 637.18 559.29 629.35"/>
        <polygon class="cls-108" points="559.29 550.78 627.09 511.81 641.12 519.43 572.84 558.6 559.29 550.78"/>
      </g>
      <g>
        <polygon class="cls-113" points="451.09 581.72 518.86 542.59 586.64 581.72 518.86 620.85 451.09 581.72"/>
        <polygon class="cls-119" points="451.09 581.72 451.09 660.3 518.86 699.43 518.86 620.85 451.09 581.72"/>
        <polygon class="cls-108" points="454.23 588.75 454.23 596.14 471.3 606 471.3 598.6 454.23 588.75"/>
        <polygon class="cls-2" points="518.86 699.43 586.64 660.3 586.64 581.72 518.86 620.85 518.86 699.43"/>
        <polygon class="cls-108" points="478.2 675.95 478.2 597.37 491.75 605.2 491.75 683.78 478.2 675.95"/>
        <polygon class="cls-108" points="478.2 597.37 546 558.4 560.03 566.02 491.75 605.2 478.2 597.37"/>
      </g>
      <g>
        <polygon class="cls-9" points="494.41 477.66 562.19 438.53 629.97 477.66 562.19 516.79 494.41 477.66"/>
        <polygon class="cls-26" points="494.41 477.66 494.41 556.24 562.19 595.37 562.19 516.79 494.41 477.66"/>
        <polygon class="cls-108" points="497.56 484.69 497.56 492.08 514.63 501.94 514.63 494.55 497.56 484.69"/>
        <polygon class="cls-120" points="562.19 595.37 629.97 556.24 629.97 477.66 562.19 516.79 562.19 595.37"/>
        <polygon class="cls-108" points="521.52 571.89 521.52 493.31 535.08 501.14 535.08 579.72 521.52 571.89"/>
        <polygon class="cls-108" points="521.52 493.31 589.33 454.35 603.35 461.97 535.08 501.14 521.52 493.31"/>
      </g>
      <g>
        <path class="cls-6" d="M683.41,406.43l10.88,6.28c1.33.77,2.96.77,4.29,0l22.88-13.13v-3.3c0-11.41-12.34-18.55-22.23-12.87h0c-4.14,2.38-6.69,6.78-6.69,11.55v4.02l-9.13,5.26c-.84.48-.84,1.7,0,2.18Z"/>
        <path class="cls-32" d="M699.54,392.92c-1.06-.61-1.94-.11-1.94,1.12s.87,2.75,1.94,3.36c1.07.62,1.94.11,1.94-1.12,0-1.23-.88-2.75-1.94-3.36Z"/>
      </g>
      <polygon class="cls-2" points="717.8 418.89 720.03 425.6 712.16 427.69 701.48 452.73 703.13 434.74 717.8 418.89"/>
      <polygon class="cls-2" points="701.48 452.73 705.1 420.78 698.96 418.89 701.48 426.3 698.15 429.43 701.48 452.73"/>
    </g>
    <g>
      <g class="cls-135">
        <polygon class="cls-102" points="839.01 471.91 709.5 544.66 745.51 564.41 874.5 491.23 839.01 471.91"/>
        <polygon class="cls-60" points="839.01 471.91 711.96 543.28 747.96 563.02 874.5 491.23 839.01 471.91"/>
        <polygon class="cls-107" points="839.01 471.91 714.42 541.89 750.41 561.63 874.5 491.23 839.01 471.91"/>
        <polygon class="cls-76" points="839.01 471.91 716.87 540.51 752.86 560.24 874.5 491.23 839.01 471.91"/>
        <polygon class="cls-124" points="839.01 471.91 719.33 539.13 755.3 558.85 874.5 491.23 839.01 471.91"/>
        <polygon class="cls-123" points="839.01 471.91 721.79 537.74 757.75 557.46 874.5 491.23 839.01 471.91"/>
        <polygon class="cls-37" points="839.01 471.91 724.25 536.36 760.2 556.08 874.5 491.23 839.01 471.91"/>
        <polygon class="cls-12" points="839.01 471.91 726.71 534.98 762.65 554.69 874.5 491.23 839.01 471.91"/>
        <polygon class="cls-78" points="839.01 471.91 729.17 533.6 765.09 553.3 874.5 491.23 839.01 471.91"/>
        <polygon class="cls-87" points="839.01 471.91 731.63 532.21 767.54 551.91 874.5 491.23 839.01 471.91"/>
        <polygon class="cls-97" points="839.01 471.91 734.09 530.83 769.99 550.52 874.5 491.23 839.01 471.91"/>
        <polygon class="cls-71" points="839.01 471.91 736.55 529.45 772.44 549.13 874.5 491.23 839.01 471.91"/>
        <polygon class="cls-57" points="839.01 471.91 739.01 528.06 774.89 547.74 874.5 491.23 839.01 471.91"/>
        <polygon class="cls-59" points="839.01 471.91 741.47 526.68 777.33 546.35 874.5 491.23 839.01 471.91"/>
        <polygon class="cls-98" points="839.01 471.91 743.93 525.3 779.78 544.96 874.5 491.23 839.01 471.91"/>
        <polygon class="cls-65" points="839.01 471.91 746.39 523.91 782.23 543.57 874.5 491.23 839.01 471.91"/>
        <polygon class="cls-72" points="839.01 471.91 748.85 522.53 784.68 542.18 874.5 491.23 839.01 471.91"/>
        <polygon class="cls-96" points="839.01 471.91 751.31 521.15 787.12 540.79 874.5 491.23 839.01 471.91"/>
        <polygon class="cls-130" points="839.01 471.91 753.77 519.76 789.57 539.4 874.5 491.23 839.01 471.91"/>
        <polygon class="cls-70" points="839.01 471.91 756.23 518.38 792.02 538.01 874.5 491.23 839.01 471.91"/>
        <polygon class="cls-41" points="839.01 471.91 758.69 517 794.47 536.62 874.5 491.23 839.01 471.91"/>
        <polygon class="cls-56" points="839.01 471.91 761.15 515.62 796.91 535.23 874.5 491.23 839.01 471.91"/>
        <polygon class="cls-29" points="839.01 471.91 763.61 514.23 799.36 533.84 874.5 491.23 839.01 471.91"/>
        <polygon class="cls-80" points="839.01 471.91 766.07 512.85 801.81 532.45 874.5 491.23 839.01 471.91"/>
        <polygon class="cls-36" points="839.01 471.91 768.53 511.47 804.26 531.06 874.5 491.23 839.01 471.91"/>
        <polygon class="cls-49" points="839.01 471.91 770.99 510.08 806.7 529.67 874.5 491.23 839.01 471.91"/>
        <polygon class="cls-21" points="839.01 471.91 773.45 508.7 809.15 528.28 874.5 491.23 839.01 471.91"/>
        <polygon class="cls-122" points="839.01 471.91 775.91 507.32 811.6 526.89 874.5 491.23 839.01 471.91"/>
        <polygon class="cls-99" points="839.01 471.91 778.36 505.93 814.05 525.5 874.5 491.23 839.01 471.91"/>
        <polygon class="cls-30" points="839.01 471.91 780.82 504.55 816.49 524.11 874.5 491.23 839.01 471.91"/>
        <polygon class="cls-83" points="839.01 471.91 783.28 503.17 818.94 522.72 874.5 491.23 839.01 471.91"/>
        <polygon class="cls-28" points="839.01 471.91 785.74 501.78 821.39 521.33 874.5 491.23 839.01 471.91"/>
        <polygon class="cls-16" points="839.01 471.91 788.2 500.4 823.84 519.94 874.5 491.23 839.01 471.91"/>
        <polygon class="cls-53" points="839.01 471.91 790.66 499.02 826.28 518.55 874.5 491.23 839.01 471.91"/>
        <polygon class="cls-18" points="839.01 471.91 793.12 497.64 828.73 517.17 874.5 491.23 839.01 471.91"/>
        <polygon class="cls-55" points="839.01 471.91 795.58 496.25 831.18 515.78 874.5 491.23 839.01 471.91"/>
        <polygon class="cls-62" points="839.01 471.91 798.04 494.87 833.63 514.39 874.5 491.23 839.01 471.91"/>
        <polygon class="cls-67" points="839.01 471.91 800.5 493.49 836.08 513 874.5 491.23 839.01 471.91"/>
        <polygon class="cls-101" points="839.01 471.91 802.96 492.1 838.52 511.61 874.5 491.23 839.01 471.91"/>
        <polygon class="cls-8" points="839.01 471.91 805.42 490.72 840.97 510.22 874.5 491.23 839.01 471.91"/>
        <polygon class="cls-45" points="839.01 471.91 807.88 489.34 843.42 508.83 874.5 491.23 839.01 471.91"/>
        <polygon class="cls-118" points="839.01 471.91 810.34 487.95 845.87 507.44 874.5 491.23 839.01 471.91"/>
        <polygon class="cls-39" points="839.01 471.91 812.8 486.57 848.31 506.05 874.5 491.23 839.01 471.91"/>
        <polygon class="cls-125" points="839.01 471.91 815.26 485.19 850.76 504.66 874.5 491.23 839.01 471.91"/>
        <polygon class="cls-68" points="839.01 471.91 817.72 483.8 853.21 503.27 874.5 491.23 839.01 471.91"/>
        <polygon class="cls-3" points="839.01 471.91 820.18 482.42 855.66 501.88 874.5 491.23 839.01 471.91"/>
        <polygon class="cls-90" points="839.01 471.91 822.64 481.04 858.1 500.49 874.5 491.23 839.01 471.91"/>
        <polygon class="cls-131" points="839.01 471.91 825.1 479.66 860.55 499.1 874.5 491.23 839.01 471.91"/>
        <polygon class="cls-133" points="839.01 471.91 827.56 478.27 863 497.71 874.5 491.23 839.01 471.91"/>
        <polygon class="cls-10" points="839.01 471.91 830.02 476.89 865.45 496.32 874.5 491.23 839.01 471.91"/>
        <polygon class="cls-112" points="839.01 471.91 832.48 475.51 867.89 494.93 874.5 491.23 839.01 471.91"/>
        <polygon class="cls-61" points="839.01 471.91 834.94 474.12 870.34 493.54 874.5 491.23 839.01 471.91"/>
      </g>
      <polygon class="cls-6" points="870.5 470.97 873.78 478.44 871.65 482.42 862.34 482.42 855.63 479.68 858.97 471.56 862.34 470.14 870.5 470.97"/>
      <path class="cls-2" d="M872.93,478.68c.61-.5,1.56-.22,1.75.52.55,2.21,1.42,6.14,1.21,8.18v.88c.02,2.06-1.75,3.73-3.93,3.73h-.47c-1.75,0-3.48-.34-5.09-.99-4.65-1.9-14.77-5.95-18.97-7.02-1.01-.26-1.93-.68-2.78-1.26-2.55-1.73-7.35-5.3-7.35-7.66,0,0-.29-1.13-.25-2.45.06-2.34,2.36-4.05,4.81-3.68l17.12,2.63s-2.63,5.46.62,7c0,0,10.96,3.34,11.41,1.74l1.94-1.62Z"/>
      <path class="cls-127" d="M837.3,472.79c0,2.36,4.8,5.93,7.35,7.66.85.58,1.77,1,2.78,1.26,4.2,1.07,14.32,5.12,18.97,7.02,1.61.66,3.34.99,5.09.99h.47c2.18,0,3.95-1.68,3.93-3.73v-.02c.03.52.03,1,0,1.41v.88c.02,2.06-1.75,3.73-3.93,3.73h-.47c-1.75,0-3.48-.34-5.09-.99-4.65-1.9-14.77-5.95-18.97-7.02-1.01-.26-1.93-.68-2.78-1.26-2.55-1.73-7.35-5.3-7.35-7.66,0,0-.29-1.13-.25-2.45,0-.24.04-.48.09-.71.07.53.16.89.16.89Z"/>
      <polygon class="cls-6" points="856.67 477.65 857.82 484.05 857.82 489.1 848.51 489.1 838.27 486.61 842.89 479.33 848.51 476.83 856.67 477.65"/>
      <path class="cls-2" d="M856.86,486.45c.61-.5,1.56-.22,1.75.52.55,2.21,1.42,6.14,1.21,8.18v.88c.02,2.06-1.75,3.73-3.93,3.73h-.47c-1.75,0-3.48-.34-5.09-.99-4.65-1.9-14.77-5.95-18.97-7.02-1.01-.26-1.93-.68-2.78-1.26-2.55-1.73-7.35-5.3-7.35-7.66,0,0-.29-1.13-.25-2.45.06-2.34,2.36-4.05,4.81-3.68l17.12,2.63s-2.63,5.46.62,7c0,0,10.96,3.34,11.41,1.74l1.94-1.62Z"/>
      <path class="cls-127" d="M821.22,480.56c0,2.36,4.8,5.93,7.35,7.66.85.57,1.77,1,2.78,1.26,4.2,1.07,14.32,5.12,18.97,7.02,1.61.66,3.34.99,5.09.99h.47c2.18,0,3.95-1.68,3.93-3.73v-.02c.03.52.03,1,0,1.41v.88c.02,2.06-1.75,3.73-3.93,3.73h-.47c-1.75,0-3.48-.34-5.09-.99-4.65-1.9-14.77-5.95-18.97-7.02-1.01-.26-1.93-.68-2.78-1.26-2.55-1.73-7.35-5.3-7.35-7.66,0,0-.29-1.13-.25-2.45,0-.24.04-.48.09-.71.07.53.16.89.16.89Z"/>
      <path class="cls-6" d="M866.39,474.01c.07,0,.14,0,.21,0,3.81-.11,5.27-1.66,5.15-5.25l.56-29.6c.11-6-.66-11.98-2.29-17.78l-.63-6.35,1.31-22.8c.13-4.07.95-8.09,2.42-11.92l.65-1.69c2.01-5.22,1.31-10.73,1.32-16.29l-.87-13.79c.21-3.58-1.8-6.74-5.6-6.94-3.79-.23-21.61,2.55-21.82,6.13l4.73,67.6,8.73,53.81c.11,3.52,2.41,4.86,6.12,4.86Z"/>
      <path class="cls-52" d="M847.16,351.19c1.26-.37,2.46-.56,3.42-.5,3.8.2,2.71,7.07,2.5,10.65l12.97,11.36c-3.6,8.98-4.61,25.33-4.74,29.39l-.73,22.8,1.78,6.35c1.63,5.8,2.4,11.79,2.29,17.78l-.47,24.77c-2.4-.49-3.84-1.89-3.93-4.65l-6.45-53.96-6.66-63.99Z"/>
      <path class="cls-6" d="M851.95,483.88c.07,0,.14,0,.21,0,3.81-.11,5.27-1.66,5.15-5.25l.56-29.6c.11-6-.66-11.98-2.29-17.78l-1.78-6.35.73-22.8c.13-4.07.95-8.09,2.42-11.92l.65-1.69c2.01-5.22,8.8-9.9,8.76-19.13l.03-13.88c.21-3.58-8.41-3.81-12.21-4.01-3.79-.23-20.63,2.51-20.84,6.09l-2,10.37c-.64,11.27.59,26.85,3.29,37.84l2.81,20.1,8.38,53.13c.11,3.52,2.41,4.86,6.12,4.86Z"/>
      <g class="cls-134">
        <path class="cls-2" d="M833.34,357.57c.13-2.13,6.11-3.96,11.75-5.04.66,2.28,1.25,4.58,1.62,6.91,2.21,13.81-2.99,27.58-5.13,41.39-1.79,11.54-1.42,23.36,1.07,34.78,1.53,7.02,3.86,13.87,5.5,20.87,1.32,5.65,2.19,11.4,2.59,17.18.23,3.3.18,6.85-.61,10.08-2.63-.41-4.21-1.83-4.3-4.73l-8.38-53.13-2.81-20.1c-2.7-10.99-3.93-26.57-3.29-37.84l2-10.37Z"/>
      </g>
      <path class="cls-106" d="M874.87,327.5l-25.39-3.31c-3.31-.43-6.02-2.94-6.23-6.09-.29-4.32,3.67-7.56,7.93-7l14.88,1.94-4.7-27.75c-.6-3.53,1.68-7.11,5.4-7.85,3.95-.78,7.72,1.71,8.35,5.41l6.47,38.18c.63,3.73-2.74,6.98-6.71,6.47Z"/>
      <g>
        <path class="cls-2" d="M780.78,296.35l23.78-12.94c1.61-.87,3.58-.88,5.2-.03l39.5,20.98c1.84.98,1.86,3.48.02,4.47l-24.27,13.2c-1.62.88-3.62.88-5.25,0l-38.98-21.22c-1.82-.99-1.82-3.47,0-4.46Z"/>
        <path class="cls-61" d="M780.78,295.26l23.78-12.94c1.61-.87,3.58-.88,5.2-.03l39.5,20.98c1.84.98,1.86,3.48.02,4.47l-24.27,13.2c-1.62.88-3.62.88-5.25,0l-38.98-21.22c-1.82-.99-1.82-3.47,0-4.46Z"/>
        <path class="cls-108" d="M822.39,319.78c-.58,0-1.16-.15-1.66-.42l-38.98-21.22c-.35-.19-.4-.49-.4-.66s.05-.47.4-.66l23.78-12.94c.5-.27,1.08-.42,1.66-.42s1.14.14,1.63.4l39.5,20.98c.36.19.41.49.41.66,0,.16-.05.47-.4.66l-24.27,13.2c-.5.27-1.08.42-1.66.42Z"/>
        <polygon class="cls-34" points="790.25 297.84 791.64 298.48 809.67 288.47 808.31 287.82 790.25 297.84"/>
        <g>
          <polygon class="cls-32" points="811.67 290.95 813.07 291.58 814.39 290.86 813.04 290.2 811.67 290.95"/>
          <polygon class="cls-32" points="809.99 291.88 811.38 292.51 812.71 291.79 811.36 291.13 809.99 291.88"/>
          <polygon class="cls-32" points="808.31 292.81 809.7 293.44 811.02 292.72 809.67 292.07 808.31 292.81"/>
          <polygon class="cls-32" points="806.62 293.74 808.02 294.37 809.34 293.66 807.99 293 806.62 293.74"/>
          <polygon class="cls-32" points="804.94 294.67 806.34 295.3 807.66 294.59 806.31 293.93 804.94 294.67"/>
          <polygon class="cls-32" points="803.26 295.6 804.66 296.23 805.98 295.52 804.63 294.86 803.26 295.6"/>
          <polygon class="cls-6" points="801.58 296.53 802.97 297.17 804.3 296.45 802.95 295.79 801.58 296.53"/>
          <polygon class="cls-32" points="799.9 297.46 801.29 298.1 802.61 297.38 801.26 296.72 799.9 297.46"/>
          <polygon class="cls-32" points="798.21 298.39 799.61 299.03 800.93 298.31 799.58 297.65 798.21 298.39"/>
          <polygon class="cls-32" points="796.53 299.32 797.93 299.96 799.25 299.24 797.9 298.58 796.53 299.32"/>
          <polygon class="cls-32" points="794.85 300.26 796.25 300.89 797.57 300.17 796.22 299.51 794.85 300.26"/>
          <polygon class="cls-32" points="813.35 291.8 814.75 292.43 816.07 291.71 814.72 291.06 813.35 291.8"/>
          <polygon class="cls-32" points="811.67 292.73 813.07 293.36 814.39 292.65 813.04 291.99 811.67 292.73"/>
          <polygon class="cls-32" points="809.99 293.66 811.38 294.29 812.71 293.58 811.36 292.92 809.99 293.66"/>
          <polygon class="cls-32" points="808.31 294.59 809.7 295.22 811.02 294.51 809.67 293.85 808.31 294.59"/>
          <polygon class="cls-6" points="806.62 295.52 808.02 296.16 809.34 295.44 807.99 294.78 806.62 295.52"/>
          <polygon class="cls-6" points="804.94 296.45 806.34 297.09 807.66 296.37 806.31 295.71 804.94 296.45"/>
          <polygon class="cls-32" points="803.26 297.38 804.66 298.02 805.98 297.3 804.63 296.64 803.26 297.38"/>
          <polygon class="cls-6" points="801.58 298.32 802.97 298.95 804.3 298.23 802.95 297.57 801.58 298.32"/>
          <polygon class="cls-32" points="799.9 299.25 801.29 299.88 802.61 299.16 801.26 298.5 799.9 299.25"/>
          <polygon class="cls-6" points="798.21 300.18 799.61 300.81 800.93 300.09 799.58 299.44 798.21 300.18"/>
          <polygon class="cls-32" points="796.53 301.11 797.93 301.74 799.25 301.03 797.9 300.37 796.53 301.11"/>
          <polygon class="cls-32" points="815.03 292.65 816.43 293.28 817.75 292.57 816.4 291.91 815.03 292.65"/>
          <polygon class="cls-6" points="813.35 293.58 814.75 294.22 816.07 293.5 814.72 292.84 813.35 293.58"/>
          <polygon class="cls-6" points="811.67 294.51 813.07 295.15 814.39 294.43 813.04 293.77 811.67 294.51"/>
          <polygon class="cls-32" points="809.99 295.44 811.38 296.08 812.71 295.36 811.36 294.7 809.99 295.44"/>
          <polygon class="cls-32" points="808.31 296.38 809.7 297.01 811.02 296.29 809.67 295.63 808.31 296.38"/>
          <polygon class="cls-32" points="806.62 297.31 808.02 297.94 809.34 297.22 807.99 296.56 806.62 297.31"/>
          <polygon class="cls-32" points="804.94 298.24 806.34 298.87 807.66 298.15 806.31 297.5 804.94 298.24"/>
          <polygon class="cls-32" points="803.26 299.17 804.66 299.8 805.98 299.08 804.63 298.43 803.26 299.17"/>
          <polygon class="cls-32" points="801.58 300.1 802.97 300.73 804.3 300.02 802.95 299.36 801.58 300.1"/>
          <polygon class="cls-32" points="799.9 301.03 801.29 301.66 802.61 300.95 801.26 300.29 799.9 301.03"/>
          <polygon class="cls-32" points="798.21 301.96 799.61 302.59 800.93 301.88 799.58 301.22 798.21 301.96"/>
          <polygon class="cls-6" points="816.72 293.5 818.11 294.14 819.44 293.42 818.08 292.76 816.72 293.5"/>
          <polygon class="cls-32" points="815.03 294.43 816.43 295.07 817.75 294.35 816.4 293.69 815.03 294.43"/>
          <polygon class="cls-32" points="813.35 295.37 814.75 296 816.07 295.28 814.72 294.62 813.35 295.37"/>
          <polygon class="cls-32" points="811.67 296.3 813.07 296.93 814.39 296.21 813.04 295.56 811.67 296.3"/>
          <polygon class="cls-32" points="809.99 297.23 811.38 297.86 812.71 297.14 811.36 296.49 809.99 297.23"/>
          <polygon class="cls-6" points="808.31 298.16 809.7 298.79 811.02 298.08 809.67 297.42 808.31 298.16"/>
          <polygon class="cls-32" points="806.62 299.09 808.02 299.72 809.34 299.01 807.99 298.35 806.62 299.09"/>
          <polygon class="cls-6" points="804.94 300.02 806.34 300.65 807.66 299.94 806.31 299.28 804.94 300.02"/>
          <polygon class="cls-32" points="803.26 300.95 804.66 301.59 805.98 300.87 804.63 300.21 803.26 300.95"/>
          <polygon class="cls-6" points="801.58 301.88 802.97 302.52 804.3 301.8 802.95 301.14 801.58 301.88"/>
          <polygon class="cls-32" points="799.9 302.81 801.29 303.45 802.61 302.73 801.26 302.07 799.9 302.81"/>
          <polygon class="cls-6" points="818.4 294.36 819.8 294.99 821.12 294.27 819.77 293.61 818.4 294.36"/>
          <polygon class="cls-32" points="816.72 295.29 818.11 295.92 819.44 295.2 818.08 294.55 816.72 295.29"/>
          <polygon class="cls-6" points="815.03 296.22 816.43 296.85 817.75 296.14 816.4 295.48 815.03 296.22"/>
          <polygon class="cls-6" points="813.35 297.15 814.75 297.78 816.07 297.07 814.72 296.41 813.35 297.15"/>
          <polygon class="cls-32" points="811.67 298.08 813.07 298.71 814.39 298 813.04 297.34 811.67 298.08"/>
          <polygon class="cls-32" points="809.99 299.01 811.38 299.65 812.71 298.93 811.36 298.27 809.99 299.01"/>
          <polygon class="cls-32" points="808.31 299.94 809.7 300.58 811.02 299.86 809.67 299.2 808.31 299.94"/>
          <polygon class="cls-6" points="806.62 300.87 808.02 301.51 809.34 300.79 807.99 300.13 806.62 300.87"/>
          <polygon class="cls-32" points="804.94 301.8 806.34 302.44 807.66 301.72 806.31 301.06 804.94 301.8"/>
          <polygon class="cls-32" points="803.26 302.74 804.66 303.37 805.98 302.65 804.63 301.99 803.26 302.74"/>
          <polygon class="cls-32" points="801.58 303.67 802.97 304.3 804.3 303.58 802.95 302.93 801.58 303.67"/>
          <polygon class="cls-32" points="820.08 295.21 821.48 295.84 822.8 295.13 821.45 294.47 820.08 295.21"/>
          <polygon class="cls-32" points="818.4 296.14 819.8 296.77 821.12 296.06 819.77 295.4 818.4 296.14"/>
          <polygon class="cls-32" points="816.72 297.07 818.11 297.7 819.44 296.99 818.08 296.33 816.72 297.07"/>
          <polygon class="cls-32" points="815.03 298 816.43 298.64 817.75 297.92 816.4 297.26 815.03 298"/>
          <polygon class="cls-32" points="813.35 298.93 814.75 299.57 816.07 298.85 814.72 298.19 813.35 298.93"/>
          <polygon class="cls-32" points="811.67 299.86 813.07 300.5 814.39 299.78 813.04 299.12 811.67 299.86"/>
          <polygon class="cls-32" points="809.99 300.8 811.38 301.43 812.71 300.71 811.36 300.05 809.99 300.8"/>
          <polygon class="cls-32" points="808.31 301.73 809.7 302.36 811.02 301.64 809.67 300.98 808.31 301.73"/>
          <polygon class="cls-32" points="806.62 302.66 808.02 303.29 809.34 302.57 807.99 301.92 806.62 302.66"/>
          <polygon class="cls-32" points="804.94 303.59 806.34 304.22 807.66 303.51 806.31 302.85 804.94 303.59"/>
          <polygon class="cls-32" points="803.26 304.52 804.66 305.15 805.98 304.44 804.63 303.78 803.26 304.52"/>
          <polygon class="cls-32" points="821.76 296.06 823.16 296.7 824.48 295.98 823.13 295.32 821.76 296.06"/>
          <polygon class="cls-32" points="820.08 296.99 821.48 297.63 822.8 296.91 821.45 296.25 820.08 296.99"/>
          <polygon class="cls-6" points="818.4 297.92 819.8 298.56 821.12 297.84 819.77 297.18 818.4 297.92"/>
          <polygon class="cls-6" points="816.72 298.86 818.11 299.49 819.44 298.77 818.08 298.11 816.72 298.86"/>
          <polygon class="cls-32" points="815.03 299.79 816.43 300.42 817.75 299.7 816.4 299.04 815.03 299.79"/>
          <polygon class="cls-6" points="813.35 300.72 814.75 301.35 816.07 300.63 814.72 299.98 813.35 300.72"/>
          <polygon class="cls-32" points="811.67 301.65 813.07 302.28 814.39 301.57 813.04 300.91 811.67 301.65"/>
          <polygon class="cls-6" points="809.99 302.58 811.38 303.21 812.71 302.5 811.36 301.84 809.99 302.58"/>
          <polygon class="cls-32" points="808.31 303.51 809.7 304.14 811.02 303.43 809.67 302.77 808.31 303.51"/>
          <polygon class="cls-6" points="806.62 304.44 808.02 305.07 809.34 304.36 807.99 303.7 806.62 304.44"/>
          <polygon class="cls-32" points="804.94 305.37 806.34 306.01 807.66 305.29 806.31 304.63 804.94 305.37"/>
          <polygon class="cls-32" points="823.44 296.91 824.84 297.55 826.16 296.83 824.81 296.17 823.44 296.91"/>
          <polygon class="cls-6" points="821.76 297.85 823.16 298.48 824.48 297.76 823.13 297.1 821.76 297.85"/>
          <polygon class="cls-6" points="820.08 298.78 821.48 299.41 822.8 298.69 821.45 298.04 820.08 298.78"/>
          <polygon class="cls-32" points="818.4 299.71 819.8 300.34 821.12 299.62 819.77 298.97 818.4 299.71"/>
          <polygon class="cls-32" points="816.72 300.64 818.11 301.27 819.44 300.56 818.08 299.9 816.72 300.64"/>
          <polygon class="cls-32" points="815.03 301.57 816.43 302.2 817.75 301.49 816.4 300.83 815.03 301.57"/>
          <polygon class="cls-32" points="813.35 302.5 814.75 303.13 816.07 302.42 814.72 301.76 813.35 302.5"/>
          <polygon class="cls-32" points="811.67 303.43 813.07 304.07 814.39 303.35 813.04 302.69 811.67 303.43"/>
          <polygon class="cls-32" points="809.99 304.36 811.38 305 812.71 304.28 811.36 303.62 809.99 304.36"/>
          <polygon class="cls-32" points="808.31 305.29 809.7 305.93 811.02 305.21 809.67 304.55 808.31 305.29"/>
          <polygon class="cls-32" points="806.62 306.23 808.02 306.86 809.34 306.14 807.99 305.48 806.62 306.23"/>
          <polygon class="cls-32" points="825.13 297.77 826.52 298.4 827.85 297.68 826.49 297.03 825.13 297.77"/>
          <polygon class="cls-32" points="823.44 298.7 824.84 299.33 826.16 298.62 824.81 297.96 823.44 298.7"/>
          <polygon class="cls-6" points="821.76 299.63 823.16 300.26 824.48 299.55 823.13 298.89 821.76 299.63"/>
          <polygon class="cls-32" points="820.08 300.56 821.48 301.19 822.8 300.48 821.45 299.82 820.08 300.56"/>
          <polygon class="cls-6" points="818.4 301.49 819.8 302.13 821.12 301.41 819.77 300.75 818.4 301.49"/>
          <polygon class="cls-6" points="816.72 302.42 818.11 303.06 819.44 302.34 818.08 301.68 816.72 302.42"/>
          <polygon class="cls-32" points="815.03 303.35 816.43 303.99 817.75 303.27 816.4 302.61 815.03 303.35"/>
          <polygon class="cls-32" points="813.35 304.28 814.75 304.92 816.07 304.2 814.72 303.54 813.35 304.28"/>
          <polygon class="cls-6" points="811.67 305.22 813.07 305.85 814.39 305.13 813.04 304.47 811.67 305.22"/>
          <polygon class="cls-32" points="809.99 306.15 811.38 306.78 812.71 306.06 811.36 305.41 809.99 306.15"/>
          <polygon class="cls-32" points="808.31 307.08 809.7 307.71 811.02 306.99 809.67 306.34 808.31 307.08"/>
          <polygon class="cls-32" points="826.81 298.62 828.21 299.25 829.53 298.54 828.18 297.88 826.81 298.62"/>
          <polygon class="cls-32" points="825.13 299.55 826.52 300.18 827.85 299.47 826.49 298.81 825.13 299.55"/>
          <polygon class="cls-32" points="823.44 300.48 824.84 301.12 826.16 300.4 824.81 299.74 823.44 300.48"/>
          <polygon class="cls-32" points="821.76 301.41 823.16 302.05 824.48 301.33 823.13 300.67 821.76 301.41"/>
          <polygon class="cls-32" points="820.08 302.34 821.48 302.98 822.8 302.26 821.45 301.6 820.08 302.34"/>
          <polygon class="cls-32" points="818.4 303.28 819.8 303.91 821.12 303.19 819.77 302.53 818.4 303.28"/>
          <polygon class="cls-32" points="816.72 304.21 818.11 304.84 819.44 304.12 818.08 303.46 816.72 304.21"/>
          <polygon class="cls-32" points="815.03 305.14 816.43 305.77 817.75 305.05 816.4 304.4 815.03 305.14"/>
          <polygon class="cls-32" points="813.35 306.07 814.75 306.7 816.07 305.99 814.72 305.33 813.35 306.07"/>
          <polygon class="cls-6" points="811.67 307 813.07 307.63 814.39 306.92 813.04 306.26 811.67 307"/>
          <polygon class="cls-6" points="809.99 307.93 811.38 308.56 812.71 307.85 811.36 307.19 809.99 307.93"/>
          <polygon class="cls-32" points="828.49 299.47 829.89 300.11 831.21 299.39 829.86 298.73 828.49 299.47"/>
          <polygon class="cls-32" points="826.81 300.4 828.21 301.04 829.53 300.32 828.18 299.66 826.81 300.4"/>
          <polygon class="cls-32" points="825.13 301.34 826.52 301.97 827.85 301.25 826.49 300.59 825.13 301.34"/>
          <polygon class="cls-6" points="823.44 302.27 824.84 302.9 826.16 302.18 824.81 301.52 823.44 302.27"/>
          <polygon class="cls-6" points="821.76 303.2 823.16 303.83 824.48 303.11 823.13 302.46 821.76 303.2"/>
          <polygon class="cls-32" points="820.08 304.13 821.48 304.76 822.8 304.05 821.45 303.39 820.08 304.13"/>
          <polygon class="cls-6" points="818.4 305.06 819.8 305.69 821.12 304.98 819.77 304.32 818.4 305.06"/>
          <polygon class="cls-32" points="816.72 305.99 818.11 306.62 819.44 305.91 818.08 305.25 816.72 305.99"/>
          <polygon class="cls-6" points="815.03 306.92 816.43 307.55 817.75 306.84 816.4 306.18 815.03 306.92"/>
          <polygon class="cls-32" points="813.35 307.85 814.75 308.49 816.07 307.77 814.72 307.11 813.35 307.85"/>
          <polygon class="cls-32" points="811.67 308.78 813.07 309.42 814.39 308.7 813.04 308.04 811.67 308.78"/>
          <polygon class="cls-32" points="830.17 300.33 831.57 300.96 832.89 300.24 831.54 299.58 830.17 300.33"/>
          <polygon class="cls-32" points="828.49 301.26 829.89 301.89 831.21 301.17 829.86 300.52 828.49 301.26"/>
          <polygon class="cls-32" points="826.81 302.19 828.21 302.82 829.53 302.1 828.18 301.45 826.81 302.19"/>
          <polygon class="cls-32" points="825.13 303.12 826.52 303.75 827.85 303.04 826.49 302.38 825.13 303.12"/>
          <polygon class="cls-32" points="823.44 304.05 824.84 304.68 826.16 303.97 824.81 303.31 823.44 304.05"/>
          <polygon class="cls-32" points="821.76 304.98 823.16 305.61 824.48 304.9 823.13 304.24 821.76 304.98"/>
          <polygon class="cls-32" points="820.08 305.91 821.48 306.55 822.8 305.83 821.45 305.17 820.08 305.91"/>
          <polygon class="cls-32" points="818.4 306.84 819.8 307.48 821.12 306.76 819.77 306.1 818.4 306.84"/>
          <polygon class="cls-32" points="816.72 307.77 818.11 308.41 819.44 307.69 818.08 307.03 816.72 307.77"/>
          <polygon class="cls-32" points="815.03 308.71 816.43 309.34 817.75 308.62 816.4 307.96 815.03 308.71"/>
          <polygon class="cls-32" points="813.35 309.64 814.75 310.27 816.07 309.55 814.72 308.89 813.35 309.64"/>
          <polygon class="cls-32" points="831.85 301.18 833.25 301.81 834.57 301.1 833.22 300.44 831.85 301.18"/>
          <polygon class="cls-32" points="830.17 302.11 831.57 302.74 832.89 302.03 831.54 301.37 830.17 302.11"/>
          <polygon class="cls-32" points="828.49 303.04 829.89 303.67 831.21 302.96 829.86 302.3 828.49 303.04"/>
          <polygon class="cls-32" points="826.81 303.97 828.21 304.61 829.53 303.89 828.18 303.23 826.81 303.97"/>
          <polygon class="cls-32" points="825.13 304.9 826.52 305.54 827.85 304.82 826.49 304.16 825.13 304.9"/>
          <polygon class="cls-32" points="823.44 305.83 824.84 306.47 826.16 305.75 824.81 305.09 823.44 305.83"/>
          <polygon class="cls-32" points="821.76 306.76 823.16 307.4 824.48 306.68 823.13 306.02 821.76 306.76"/>
          <polygon class="cls-32" points="820.08 307.7 821.48 308.33 822.8 307.61 821.45 306.95 820.08 307.7"/>
          <polygon class="cls-32" points="818.4 308.63 819.8 309.26 821.12 308.54 819.77 307.89 818.4 308.63"/>
          <polygon class="cls-32" points="816.72 309.56 818.11 310.19 819.44 309.47 818.08 308.82 816.72 309.56"/>
          <polygon class="cls-32" points="815.03 310.49 816.43 311.12 817.75 310.41 816.4 309.75 815.03 310.49"/>
          <polygon class="cls-32" points="833.54 302.03 834.93 302.67 836.26 301.95 834.91 301.29 833.54 302.03"/>
          <polygon class="cls-32" points="831.85 302.96 833.25 303.6 834.57 302.88 833.22 302.22 831.85 302.96"/>
          <polygon class="cls-32" points="830.17 303.89 831.57 304.53 832.89 303.81 831.54 303.15 830.17 303.89"/>
          <polygon class="cls-32" points="828.49 304.82 829.89 305.46 831.21 304.74 829.86 304.08 828.49 304.82"/>
          <polygon class="cls-32" points="826.81 305.76 828.21 306.39 829.53 305.67 828.18 305.01 826.81 305.76"/>
          <polygon class="cls-32" points="825.13 306.69 826.52 307.32 827.85 306.6 826.49 305.95 825.13 306.69"/>
          <polygon class="cls-32" points="823.44 307.62 824.84 308.25 826.16 307.53 824.81 306.88 823.44 307.62"/>
          <polygon class="cls-32" points="821.76 308.55 823.16 309.18 824.48 308.47 823.13 307.81 821.76 308.55"/>
          <polygon class="cls-32" points="820.08 309.48 821.48 310.11 822.8 309.4 821.45 308.74 820.08 309.48"/>
          <polygon class="cls-32" points="818.4 310.41 819.8 311.04 821.12 310.33 819.77 309.67 818.4 310.41"/>
          <polygon class="cls-32" points="816.72 311.34 818.11 311.98 819.44 311.26 818.08 310.6 816.72 311.34"/>
          <polygon class="cls-32" points="833.54 303.82 834.93 304.45 836.26 303.73 834.91 303.07 833.54 303.82"/>
          <polygon class="cls-32" points="831.85 304.75 833.25 305.38 834.57 304.66 833.22 304 831.85 304.75"/>
          <polygon class="cls-32" points="830.17 305.68 831.57 306.31 832.89 305.59 831.54 304.94 830.17 305.68"/>
          <polygon class="cls-32" points="828.49 306.61 829.89 307.24 831.21 306.53 829.86 305.87 828.49 306.61"/>
          <polygon class="cls-32" points="826.81 307.54 828.21 308.17 829.53 307.46 828.18 306.8 826.81 307.54"/>
          <polygon class="cls-32" points="825.13 308.47 826.52 309.1 827.85 308.39 826.49 307.73 825.13 308.47"/>
          <polygon class="cls-32" points="823.44 309.4 824.84 310.04 826.16 309.32 824.81 308.66 823.44 309.4"/>
          <polygon class="cls-32" points="821.76 310.33 823.16 310.97 824.48 310.25 823.13 309.59 821.76 310.33"/>
          <polygon class="cls-32" points="820.08 311.26 821.48 311.9 822.8 311.18 821.45 310.52 820.08 311.26"/>
          <polygon class="cls-32" points="818.4 312.19 819.8 312.83 821.12 312.11 819.77 311.45 818.4 312.19"/>
          <polygon class="cls-32" points="833.54 305.6 834.93 306.23 836.26 305.52 834.91 304.86 833.54 305.6"/>
          <polygon class="cls-32" points="831.85 306.53 833.25 307.16 834.57 306.45 833.22 305.79 831.85 306.53"/>
          <polygon class="cls-32" points="830.17 307.46 831.57 308.09 832.89 307.38 831.54 306.72 830.17 307.46"/>
          <polygon class="cls-32" points="828.49 308.39 829.89 309.03 831.21 308.31 829.86 307.65 828.49 308.39"/>
          <polygon class="cls-32" points="826.81 309.32 828.21 309.96 829.53 309.24 828.18 308.58 826.81 309.32"/>
          <polygon class="cls-32" points="825.13 310.25 826.52 310.89 827.85 310.17 826.49 309.51 825.13 310.25"/>
          <polygon class="cls-32" points="823.44 311.19 824.84 311.82 826.16 311.1 824.81 310.44 823.44 311.19"/>
          <polygon class="cls-32" points="821.76 312.12 823.16 312.75 824.48 312.03 823.13 311.37 821.76 312.12"/>
          <polygon class="cls-32" points="820.08 313.05 821.48 313.68 822.8 312.96 821.45 312.31 820.08 313.05"/>
        </g>
      </g>
      <path class="cls-6" d="M855.03,275.16l-14.88,8.1c-5.45,2.97-8.81,8.45-8.81,14.38l2,29.9c.05.76.06,1.53.02,2.3l-2.02,38.11c9.23,6.59,38.7-2.46,44.58-11.86l-4.34-27.53c-.98-6.23-.92-12.57.19-18.79l3.73-20.94c1.13-6.35-2.64-12.71-9.11-14.76-3.56-1.13-7.65-.93-11.36,1.09Z"/>
      <g class="cls-134">
        <path class="cls-2" d="M841.41,339.65c1.42,6.68,4.23,13.06,5.31,19.79.55,3.42.64,6.84.44,10.25-6.53.97-12.48.63-15.81-1.75l2.02-38.11c.04-.76.04-1.53-.02-2.3l-2-29.9c0-3.9,1.46-7.61,4.01-10.53,1.42,2.76,2.45,5.73,3.16,8.73,3.35,14.32-.16,29.44,2.9,43.82Z"/>
      </g>
      <path class="cls-106" d="M871.77,309.77c-.51,2.87-.8,5.76-.86,8.66-.06.03-.05.03-.12.06l-4.12-2.24c-2.93-1.6-4.74-4.55-4.74-7.74v-26.58c0-2.45.87-4.86,2.57-6.72.69-.76,1.39-1.29,1.89-1.13,6.47,2.05,10.25,8.41,9.11,14.76l-3.73,20.94Z"/>
      <path class="cls-106" d="M841.26,285.65h0c3.96.04,7.15,3.09,7.15,6.83v24.32c0,5.57-3.08,10.74-8.14,13.63l-8.78,5.03-2.19-32.77c0-7.61,0-12.47,6.69-15.86,1.61-.81,3.44-1.2,5.27-1.18Z"/>
      <polygon class="cls-42" points="858.12 279.42 842.79 282.74 842.79 255.92 858.12 255.92 858.12 279.42"/>
      <path class="cls-42" d="M843,281.64s11.7,1.11,13.51-7.26c0,0,.87-1.09,3.09-.8,2.22.29-2.07,15.22-18.58,8.92l1.99-.86Z"/>
      <path class="cls-42" d="M833.96,254.27v16.45c0,3.26,3.23,5.66,6.59,4.91l9.18-2.06c2.78-.62,5.02-2.54,5.95-5.09l4.86-13.32c.24-.66.1-1.39-.37-1.92h0c-4.09-4.69-10.79-6.54-16.92-4.68l-6.38,1.94c-1.74.53-2.92,2.05-2.92,3.78Z"/>
      <path class="cls-2" d="M839.3,254.23c-1.68-.27-3.33-.86-4.77-1.68-1.67-.95-2.7-3.58-2.35-5.37.37-1.88,2.26-2.91,4.05-3.43,1.3-.38,2.89-.37,4.23-.46,3.11-.2,6.27-.14,9.35.38,3.3.55,6.66,1.67,9.12,3.9,3.07,2.8,3.91,6.79,3.37,10.66-.12.85-.36,1.69-.45,2.55-.11,1.07,0,2.15-.2,3.21-.2,1.06-.8,2.14-1.85,2.54-.14.05-.3.09-.44.05-.13-.04-.23-.14-.31-.25-.47-.63-.47-1.31-.69-2.01-.23-.72-.67-1.28-1.12-1.91-1.28-1.79-2.57-3.6-4.2-5.1-1.64-1.51-3.67-2.71-5.93-3.04-1.72-.25-3.46,0-5.2.1-.86.05-1.74,0-2.6-.14Z"/>
      <path class="cls-2" d="M838.86,256.56c.03,1.74.07,3.47.1,5.21.02.82-.27,3.29.66,3.82.25.15.59.13.86.01.63-.27.9-.98.95-1.63.05-.65-.07-1.31.06-1.95s.62-1.29,1.31-1.33c.61-.04,1.14.42,1.38.95.23.53.24,1.12.26,1.69.09,2.31,1.05,4.78,2.32,6.76,1.14,1.77,3.53,2.74,5.68,2.31,1.39-.28,2.6-1.07,3.74-1.86,2.43-1.68,4.92-3.67,5.59-6.44.25-1.04.21-2.16-.27-3.12-.91-1.81-3.8-2.65-5.59-3.44-4.33-1.9-8.34-4.3-13.29-4.29-1.41,0-3.08.34-3.59,1.58-.19.45-.18.95-.17,1.43,0,.1,0,.21,0,.31Z"/>
      <path class="cls-6" d="M827.94,241.72l5.5-2.99c1.16-.63,2.59-.63,3.75,0l.26.13c3.6-6.73,12.8-9.9,20.41-5.69,3.59,1.99,6.37,7.09,6.37,11.01v10.35h0c-.01.62-.34,1.23-1,1.57l-7.63,3.99c-4.17,2.18-9.25,2.12-13.36-.16l-14.35-7.98c-4.14-2.3-4.11-7.96.05-10.23Z"/>
      <path class="cls-42" d="M827.93,336.65l-35.69-20.28-9.31-3.1c-3.25-1.71-4.4-5.59-2.58-8.65,1.82-3.06,5.92-4.15,9.17-2.44l8.47,6.29,29.49,13.76,5-29.41c.51-2.99,3.12-5.39,6.33-5.51,4.42-.17,7.66,3.46,7,7.35l-6.27,36.9c-.87,5.09-6.92,7.75-11.61,5.08Z"/>
      <path class="cls-106" d="M829,337.7l-2.48-15.91,5.04-29.27c.69-4.07,4.84-6.81,9.19-5.96,4.09.8,6.61,4.74,5.95,8.62l-6.83,40.2c-.68,4.01-7.11,4.3-10.87,2.32Z"/>
      <path class="cls-42" d="M793.38,308.29c.14.99,1.05,1.69,2.01,1.57.96-.12,1.64-1.03,1.49-2.02l-.9-6.21c-.14-.99-1.05-1.69-2.01-1.57-.96.12-1.64,1.03-1.49,2.02l.9,6.21Z"/>
      <path class="cls-42" d="M786.06,304.64c.51.12,1.13-.5,1.37-1.39.24-.89.02-1.72-.5-1.84,0,0-4.12-.56-5.51-.91-.93-.24-1.93-1.27-1.93-1.27-.1.38-.09,1.15-.03,1.9.08,1.16.94,2.15,2.14,2.44l4.46,1.08Z"/>
    </g>
  </g>
</svg>