<?xml version="1.0" encoding="UTF-8"?>
<svg id="Graphics" xmlns="http://www.w3.org/2000/svg" xmlns:xlink="http://www.w3.org/1999/xlink" viewBox="0 0 1028.1 752.31">
  <defs>
    <style>
      .cls-1 {
        fill: #48486a;
      }

      .cls-1, .cls-2, .cls-3, .cls-4, .cls-5, .cls-6, .cls-7, .cls-8, .cls-9, .cls-10, .cls-11, .cls-12, .cls-13, .cls-14, .cls-15, .cls-16, .cls-17, .cls-18, .cls-19, .cls-20, .cls-21, .cls-22, .cls-23, .cls-24, .cls-25, .cls-26, .cls-27 {
        stroke-width: 0px;
      }

      .cls-2 {
        fill: #5c629e;
      }

      .cls-3 {
        fill: #7d81b1;
      }

      .cls-4 {
        fill: url(#linear-gradient);
      }

      .cls-5 {
        fill: #7c6659;
      }

      .cls-6 {
        fill: #1b2a79;
      }

      .cls-6, .cls-11 {
        opacity: .3;
      }

      .cls-7 {
        fill: #a58877;
      }

      .cls-8 {
        fill: #515171;
      }

      .cls-9 {
        fill: #edbd6a;
      }

      .cls-10 {
        fill: #f1f5fe;
      }

      .cls-11 {
        fill: #02126a;
      }

      .cls-12 {
        fill: #99a7d8;
      }

      .cls-13 {
        fill: #231f20;
        opacity: .1;
      }

      .cls-14 {
        fill: url(#linear-gradient-2);
      }

      .cls-15 {
        fill: #6c72a8;
      }

      .cls-16 {
        fill: #f1ca88;
      }

      .cls-17 {
        fill: #646aa3;
      }

      .cls-18 {
        fill: #edf0f8;
      }

      .cls-19 {
        fill: #b28e50;
      }

      .cls-20 {
        fill: #efc479;
      }

      .cls-21 {
        fill: #eff4fe;
      }

      .cls-22 {
        fill: #fff;
      }

      .cls-23 {
        fill: #6d6d88;
      }

      .cls-24 {
        fill: #dce1f1;
      }

      .cls-25 {
        fill: #eec071;
      }

      .cls-26 {
        fill: #5a5a79;
      }

      .cls-27 {
        fill: #d3daed;
      }
    </style>
    <linearGradient id="linear-gradient" x1="0" y1="451.56" x2="1028.1" y2="451.56" gradientUnits="userSpaceOnUse">
      <stop offset="0" stop-color="#99a7d8"/>
      <stop offset=".27" stop-color="#acb8df"/>
      <stop offset=".73" stop-color="#c8d0e9"/>
      <stop offset="1" stop-color="#d3daed"/>
    </linearGradient>
    <linearGradient id="linear-gradient-2" x1="4211.38" y1="495.89" x2="4254.57" y2="495.89" gradientTransform="translate(4844.1) rotate(-180) scale(1 -1)" gradientUnits="userSpaceOnUse">
      <stop offset=".48" stop-color="#ffc107"/>
      <stop offset="1" stop-color="#ff9800"/>
    </linearGradient>
  </defs>
  <g id="_01" data-name="01">
    <g>
      <path class="cls-4" d="M1028.1,451.56l-.03-48.31-484.52-244.72c-17.59-10.24-39.31-10.28-56.93-.1L0,403.25v48.26H0c0,7.1,3.5,14.19,10.53,18.25l476.21,274.94c17.56,10.14,39.19,10.14,56.75,0l474.09-273.71c7.41-4.28,10.91-11.95,10.49-19.43h.04Z"/>
      <path class="cls-21" d="M486.62,110.11L10.53,384.98c-14.03,8.1-14.03,28.36,0,36.46l476.21,274.94c17.56,10.14,39.19,10.14,56.75,0l474.09-273.71c14-8.09,14.04-28.29.07-36.42L543.55,110.21c-17.59-10.24-39.31-10.28-56.93-.1Z"/>
    </g>
    <g>
      <polygon class="cls-2" points="158.22 193.69 150.26 198.41 150.26 339.96 418.17 494.36 418.17 345.85 278.21 227.64 158.22 193.69"/>
      <polygon class="cls-2" points="746.9 155.28 754.45 159.61 754.45 299.42 418.17 494.36 418.17 345.85 746.9 155.28"/>
      <polygon class="cls-11" points="746.9 155.28 754.45 159.61 754.45 173.03 418.17 371.09 418.17 345.85 746.9 155.28"/>
      <g>
        <polygon class="cls-1" points="248.44 219.22 246.65 218.71 246.42 395.38 248.44 396.54 248.44 219.22"/>
        <polygon class="cls-1" points="306.14 251.23 304.34 249.71 304.15 428.65 306.14 429.8 306.14 251.23"/>
        <polygon class="cls-1" points="267.67 224.66 265.88 224.15 265.68 406.48 267.67 407.63 267.67 224.66"/>
        <polygon class="cls-1" points="229.21 213.78 227.41 213.27 227.19 384.3 229.21 385.46 229.21 213.78"/>
        <polygon class="cls-1" points="209.98 208.34 208.17 207.83 207.96 373.21 209.98 374.38 209.98 208.34"/>
        <polygon class="cls-1" points="190.75 202.9 188.94 202.38 188.74 362.13 190.75 363.29 190.75 202.9"/>
        <polygon class="cls-1" points="169.51 351.05 171.51 352.21 171.51 197.46 169.7 196.94 169.51 351.05"/>
        <polygon class="cls-1" points="284.92 417.57 286.91 418.71 286.91 234.99 285.12 233.47 284.92 417.57"/>
        <polygon class="cls-1" points="402.3 332.44 400.46 330.89 400.31 484.07 402.3 485.22 402.3 332.44"/>
        <polygon class="cls-1" points="150.28 339.97 152.28 341.12 152.28 197.21 150.46 198.29 150.28 339.97"/>
        <polygon class="cls-1" points="383.07 316.2 381.24 314.65 381.07 472.98 383.07 474.13 383.07 316.2"/>
        <polygon class="cls-1" points="344.6 283.72 342.79 282.18 342.62 450.82 344.6 451.96 344.6 283.72"/>
        <polygon class="cls-1" points="363.84 299.96 362.01 298.42 361.84 461.9 363.84 463.05 363.84 299.96"/>
        <polygon class="cls-1" points="325.37 267.47 323.56 265.95 323.38 439.73 325.37 440.88 325.37 267.47"/>
      </g>
      <g>
        <polygon class="cls-1" points="517.28 288.39 515.44 289.46 515.44 437.97 517.44 436.82 517.28 288.39"/>
        <polygon class="cls-1" points="497.93 299.61 496.09 300.68 496.09 449.19 498.09 448.03 497.93 299.61"/>
        <polygon class="cls-1" points="555.97 265.97 554.13 267.03 554.13 415.54 556.13 414.38 555.97 265.97"/>
        <polygon class="cls-1" points="536.62 277.18 534.78 278.25 534.78 426.76 536.78 425.6 536.62 277.18"/>
        <polygon class="cls-1" points="478.59 310.82 476.74 311.89 476.74 460.4 478.74 459.25 478.59 310.82"/>
        <polygon class="cls-1" points="418.71 494.05 420.71 492.89 420.56 344.46 418.71 345.53 418.71 494.05"/>
        <polygon class="cls-1" points="439.9 333.25 438.05 334.32 438.05 482.83 440.06 481.67 439.9 333.25"/>
        <polygon class="cls-1" points="459.25 322.03 457.4 323.11 457.4 471.62 459.4 470.46 459.25 322.03"/>
        <polygon class="cls-1" points="575.31 254.75 573.48 255.82 573.48 404.33 575.5 403.16 575.31 254.75"/>
        <polygon class="cls-1" points="633.34 221.11 631.51 222.17 631.51 370.69 633.53 369.52 633.34 221.11"/>
        <polygon class="cls-1" points="594.66 243.54 592.82 244.6 592.82 393.12 594.84 391.94 594.66 243.54"/>
        <polygon class="cls-1" points="693.39 187.63 691.56 188.15 691.56 335.87 693.57 334.71 693.39 187.63"/>
        <polygon class="cls-1" points="734.09 167.56 732.27 168.08 732.27 312.28 734.27 311.12 734.09 167.56"/>
        <polygon class="cls-1" points="752.62 300.48 754.45 299.42 754.45 159.61 752.62 158.56 752.62 300.48"/>
        <polygon class="cls-1" points="713.74 177.59 711.92 178.11 711.92 324.08 713.92 322.91 713.74 177.59"/>
        <polygon class="cls-1" points="614 232.32 612.17 233.39 612.17 381.9 614.19 380.73 614 232.32"/>
        <polygon class="cls-1" points="652.69 209.9 650.86 210.96 650.86 359.47 652.87 358.3 652.69 209.9"/>
        <polygon class="cls-1" points="673.04 198.1 671.21 199.16 671.21 347.67 673.22 346.51 673.04 198.1"/>
      </g>
      <polygon class="cls-11" points="418.17 371.09 418.5 358.62 276.69 232.54 267.8 237.69 418.17 371.09"/>
      <polygon class="cls-2" points="150.26 198.41 485.17 0 611.65 34.1 276.69 232.54 150.26 198.41"/>
      <polygon class="cls-11" points="276.69 232.54 150.26 198.41 150.26 206.7 267.8 237.69 276.69 232.54"/>
      <polygon class="cls-2" points="418.5 358.62 754.45 159.61 611.65 34.1 276.69 232.54 418.5 358.62"/>
      <g>
        <polygon class="cls-1" points="377.42 172.87 375.52 173.99 515.12 301.38 517.12 300.2 377.42 172.87"/>
        <polygon class="cls-1" points="396.62 161.49 394.73 162.61 534.32 290.01 536.32 288.82 396.62 161.49"/>
        <polygon class="cls-1" points="416.06 149.97 414.17 151.09 553.76 278.49 555.76 277.31 416.06 149.97"/>
        <polygon class="cls-1" points="358.15 184.28 356.26 185.4 495.85 312.8 497.85 311.61 358.15 184.28"/>
        <polygon class="cls-1" points="319.62 207.1 317.73 208.23 457.32 335.62 459.32 334.44 319.62 207.1"/>
        <polygon class="cls-1" points="435.18 138.65 433.28 139.77 572.88 267.17 574.88 265.98 435.18 138.65"/>
        <polygon class="cls-1" points="438.05 347.04 440.06 345.85 300.36 218.52 298.46 219.64 438.05 347.04"/>
        <polygon class="cls-1" points="338.89 195.69 336.99 196.81 476.59 324.21 478.59 323.02 338.89 195.69"/>
        <polygon class="cls-1" points="493.3 104.21 491.4 105.34 631 232.74 633 231.55 493.3 104.21"/>
        <polygon class="cls-1" points="574.12 56.34 572.22 57.46 711.82 184.86 713.82 183.68 574.12 56.34"/>
        <polygon class="cls-1" points="553.63 68.47 551.73 69.6 691.33 197 693.33 195.81 553.63 68.47"/>
        <polygon class="cls-1" points="594.72 44.13 592.83 45.25 732.43 172.65 734.43 171.47 594.72 44.13"/>
        <polygon class="cls-1" points="454.87 126.98 452.98 128.1 592.58 255.5 594.57 254.32 454.87 126.98"/>
        <polygon class="cls-1" points="611.02 34.47 609.14 35.59 752.39 160.83 754.38 159.65 611.02 34.47"/>
        <polygon class="cls-1" points="473.87 115.72 471.98 116.85 611.57 244.24 613.57 243.06 473.87 115.72"/>
        <polygon class="cls-1" points="533.3 80.52 531.4 81.64 671 209.04 673 207.85 533.3 80.52"/>
        <polygon class="cls-1" points="512.9 92.6 511 93.73 650.6 221.13 652.6 219.94 512.9 92.6"/>
      </g>
      <g>
        <polygon class="cls-1" points="270.63 127.1 268.62 128.29 394.82 162.56 396.58 161.51 270.63 127.1"/>
        <polygon class="cls-1" points="289.98 115.64 287.97 116.83 414.16 151.1 415.93 150.05 289.98 115.64"/>
        <polygon class="cls-1" points="251.28 138.56 249.27 139.75 375.47 174.02 377.23 172.98 251.28 138.56"/>
        <polygon class="cls-1" points="212.58 161.49 210.58 162.67 336.77 196.94 338.53 195.9 212.58 161.49"/>
        <polygon class="cls-1" points="232.11 149.92 230.11 151.11 356.3 185.38 358.06 184.33 232.11 149.92"/>
        <polygon class="cls-1" points="298.44 219.65 300.2 218.61 174.24 184.2 172.25 185.38 298.44 219.65"/>
        <polygon class="cls-1" points="193.41 172.84 191.41 174.03 317.61 208.3 319.36 207.26 193.41 172.84"/>
        <polygon class="cls-1" points="309.15 104.28 307.14 105.47 433.33 139.74 435.1 138.69 309.15 104.28"/>
        <polygon class="cls-1" points="386.72 58.32 384.71 59.52 510.9 93.79 512.68 92.74 386.72 58.32"/>
        <polygon class="cls-1" points="427.64 34.08 425.62 35.28 551.82 69.55 553.59 68.5 427.64 34.08"/>
        <polygon class="cls-1" points="468.29 10 466.28 11.19 592.47 45.46 594.24 44.41 468.29 10"/>
        <polygon class="cls-1" points="448.07 21.98 446.06 23.17 572.25 57.44 574.03 56.39 448.07 21.98"/>
        <polygon class="cls-1" points="506.55 5.76 485.17 0 483.24 1.14 609.43 35.41 611.21 34.36 506.55 5.76"/>
        <polygon class="cls-1" points="328.86 92.6 326.84 93.8 453.04 128.07 454.81 127.02 328.86 92.6"/>
        <polygon class="cls-1" points="347.84 81.35 345.83 82.55 472.03 116.82 473.8 115.77 347.84 81.35"/>
        <polygon class="cls-1" points="367.19 69.89 365.18 71.09 491.37 105.36 493.15 104.3 367.19 69.89"/>
        <polygon class="cls-1" points="407.33 46.11 405.32 47.31 531.51 81.58 533.29 80.52 407.33 46.11"/>
      </g>
      <g>
        <polygon class="cls-1" points="233.14 291.13 315.96 339.45 315.96 435.62 233.14 387.77 233.14 291.13"/>
        <polygon class="cls-27" points="212.7 264.35 233.55 276.09 233.55 395.47 212.7 383.73 212.7 264.35"/>
        <polygon class="cls-18" points="233.51 276.1 239.59 273.47 239.59 391.97 233.51 395.49 233.51 276.1"/>
        <polygon class="cls-27" points="313.8 322.32 334.65 334.07 334.65 453.45 313.8 441.71 313.8 322.32"/>
        <polygon class="cls-18" points="334.61 334.08 340.69 331.45 340.69 449.95 334.61 453.46 334.61 334.08"/>
        <polygon class="cls-22" points="212.7 264.35 334.65 334.07 340.69 331.45 218.42 261.04 212.7 264.35"/>
        <polygon class="cls-27" points="233.55 276 233.55 300.38 313.8 346.76 313.8 322.39 233.55 276"/>
      </g>
      <g>
        <polygon class="cls-1" points="435.7 378.19 435.7 398.2 736.09 223.81 736.57 204.57 435.7 378.19"/>
        <polygon class="cls-12" points="733.87 222.47 734.3 205.88 435.7 378.19 435.7 395.57 733.87 222.47"/>
        <polygon class="cls-1" points="470.78 357.91 470.78 376.09 472.98 374.85 472.98 356.67 470.78 357.91"/>
        <polygon class="cls-1" points="527.08 325.2 527.08 343.38 529.29 342.13 529.29 323.95 527.08 325.2"/>
        <polygon class="cls-1" points="580.53 294.41 580.53 312.59 582.74 311.35 582.74 293.17 580.53 294.41"/>
        <polygon class="cls-1" points="635.76 262.67 635.76 280.85 637.97 279.6 637.97 261.42 635.76 262.67"/>
        <polygon class="cls-1" points="694.88 228.61 694.88 246.79 697.09 245.55 697.09 227.37 694.88 228.61"/>
      </g>
      <g>
        <polygon class="cls-12" points="401.34 279.79 480.71 232.76 446.97 203.11 367.83 250 401.34 279.79"/>
        <g>
          <polygon class="cls-24" points="392.15 271.61 401.34 279.79 414.89 271.76 429.82 213.27 402.98 229.17 392.15 271.61"/>
          <polygon class="cls-24" points="442.7 205.64 434.9 210.26 419.97 268.75 427.76 264.13 442.7 205.64"/>
        </g>
        <polygon class="cls-1" points="446.97 207.17 477.96 234.4 480.71 232.76 446.97 203.11 367.83 250 370.57 252.43 446.97 207.17"/>
      </g>
      <g>
        <polygon class="cls-12" points="500.84 222.54 580.22 175.52 546.48 145.86 467.34 192.75 500.84 222.54"/>
        <g>
          <polygon class="cls-24" points="491.65 214.37 500.84 222.54 514.39 214.51 529.33 156.02 502.49 171.92 491.65 214.37"/>
          <polygon class="cls-24" points="542.21 148.39 534.41 153.01 519.47 211.5 527.27 206.88 542.21 148.39"/>
        </g>
        <polygon class="cls-1" points="546.48 149.92 577.46 177.15 580.22 175.52 546.48 145.86 467.34 192.75 470.07 195.18 546.48 149.92"/>
      </g>
      <g>
        <polygon class="cls-12" points="500.84 222.54 580.22 175.52 546.48 145.86 467.34 192.75 500.84 222.54"/>
        <g>
          <polygon class="cls-24" points="491.65 214.37 500.84 222.54 514.39 214.51 529.33 156.02 502.49 171.92 491.65 214.37"/>
          <polygon class="cls-24" points="542.21 148.39 534.41 153.01 519.47 211.5 527.27 206.88 542.21 148.39"/>
        </g>
        <polygon class="cls-1" points="546.48 149.92 577.46 177.15 580.22 175.52 546.48 145.86 467.34 192.75 470.07 195.18 546.48 149.92"/>
      </g>
      <g>
        <polygon class="cls-12" points="600.35 165.29 679.72 118.27 645.98 88.62 566.84 135.5 600.35 165.29"/>
        <g>
          <polygon class="cls-24" points="591.16 157.12 600.35 165.29 613.9 157.27 628.84 98.78 602 114.68 591.16 157.12"/>
          <polygon class="cls-24" points="641.71 91.15 633.91 95.77 618.98 154.26 626.78 149.64 641.71 91.15"/>
        </g>
        <polygon class="cls-1" points="645.98 92.67 676.97 119.91 679.72 118.27 645.98 88.62 566.84 135.5 569.58 137.94 645.98 92.67"/>
      </g>
      <g>
        <polygon class="cls-12" points="235.82 183.83 309.97 139.9 343.59 149.09 269.43 193.02 235.82 183.83"/>
        <g>
          <polygon class="cls-24" points="309.16 140.38 299.59 146.05 290.81 180.36 300.38 174.69 309.16 140.38"/>
          <polygon class="cls-24" points="258.59 190.06 269.43 193.02 286.23 183.07 295.01 148.76 264.54 166.81 258.59 190.06"/>
        </g>
        <polygon class="cls-1" points="309.97 143.76 339.14 151.73 343.59 149.09 309.97 139.9 235.82 183.83 240.28 185.05 309.97 143.76"/>
      </g>
      <g>
        <polygon class="cls-12" points="339.9 123.06 414.05 79.13 447.67 88.32 373.5 132.25 339.9 123.06"/>
        <g>
          <polygon class="cls-24" points="413.23 79.61 403.66 85.28 394.88 119.59 404.45 113.92 413.23 79.61"/>
          <polygon class="cls-24" points="362.66 129.28 373.5 132.25 390.3 122.3 399.08 87.99 368.61 106.04 362.66 129.28"/>
        </g>
        <polygon class="cls-1" points="414.05 82.99 443.21 90.96 447.67 88.32 414.05 79.13 339.9 123.06 344.35 124.28 414.05 82.99"/>
      </g>
      <g>
        <polygon class="cls-12" points="443.97 62.28 518.12 18.36 551.74 27.54 477.58 71.48 443.97 62.28"/>
        <g>
          <polygon class="cls-24" points="517.3 18.84 507.73 24.51 498.95 58.82 508.52 53.15 517.3 18.84"/>
          <polygon class="cls-24" points="466.74 68.51 477.58 71.48 494.37 61.53 503.15 27.22 472.68 45.27 466.74 68.51"/>
        </g>
        <polygon class="cls-1" points="518.12 22.21 547.28 30.18 551.74 27.54 518.12 18.36 443.97 62.28 448.42 63.5 518.12 22.21"/>
      </g>
    </g>
    <g>
      <polygon class="cls-20" points="798.04 225.85 634.43 320.31 716.24 367.54 879.84 273.08 798.04 225.85"/>
      <polygon class="cls-9" points="879.84 273.08 879.84 367.54 716.24 462 716.24 367.54 879.84 273.08"/>
      <g>
        <polygon class="cls-7" points="723.04 363.55 723.04 458.01 717.96 461.01 717.96 366.55 723.04 363.55"/>
        <polygon class="cls-5" points="716.05 367.58 716.05 459.81 717.96 461.01 717.96 366.55 716.05 367.58"/>
      </g>
      <g>
        <polygon class="cls-7" points="738.72 354.5 738.72 448.96 733.64 451.97 733.64 357.51 738.72 354.5"/>
        <polygon class="cls-5" points="731.73 358.53 731.73 450.76 733.64 451.97 733.64 357.51 731.73 358.53"/>
      </g>
      <g>
        <polygon class="cls-7" points="754.4 345.45 754.4 439.91 749.32 442.92 749.32 348.46 754.4 345.45"/>
        <polygon class="cls-5" points="747.41 349.49 747.41 441.71 749.32 442.92 749.32 348.46 747.41 349.49"/>
      </g>
      <g>
        <polygon class="cls-7" points="770.08 336.41 770.08 430.87 765 433.87 765 339.41 770.08 336.41"/>
        <polygon class="cls-5" points="763.09 340.44 763.09 432.67 765 433.87 765 339.41 763.09 340.44"/>
      </g>
      <g>
        <polygon class="cls-7" points="785.76 327.36 785.76 421.82 780.68 424.83 780.68 330.37 785.76 327.36"/>
        <polygon class="cls-5" points="778.77 331.39 778.77 423.62 780.68 424.83 780.68 330.37 778.77 331.39"/>
      </g>
      <g>
        <polygon class="cls-7" points="801.44 318.31 801.44 412.77 796.36 415.78 796.36 321.32 801.44 318.31"/>
        <polygon class="cls-5" points="794.45 322.35 794.45 414.57 796.36 415.78 796.36 321.32 794.45 322.35"/>
      </g>
      <g>
        <polygon class="cls-7" points="817.12 309.27 817.12 403.73 812.05 406.73 812.05 312.27 817.12 309.27"/>
        <polygon class="cls-5" points="810.14 313.3 810.14 405.53 812.05 406.73 812.05 312.27 810.14 313.3"/>
      </g>
      <g>
        <polygon class="cls-7" points="832.8 300.22 832.8 394.68 827.73 397.69 827.73 303.23 832.8 300.22"/>
        <polygon class="cls-5" points="825.82 304.25 825.82 396.48 827.73 397.69 827.73 303.23 825.82 304.25"/>
      </g>
      <g>
        <polygon class="cls-7" points="848.48 291.18 848.48 385.63 843.41 388.64 843.41 294.18 848.48 291.18"/>
        <polygon class="cls-5" points="841.5 295.21 841.5 387.43 843.41 388.64 843.41 294.18 841.5 295.21"/>
      </g>
      <g>
        <polygon class="cls-7" points="864.16 282.13 864.16 376.59 859.09 379.59 859.09 285.13 864.16 282.13"/>
        <polygon class="cls-5" points="857.18 286.16 857.18 378.39 859.09 379.59 859.09 285.13 857.18 286.16"/>
      </g>
      <g>
        <polygon class="cls-7" points="879.84 273.08 879.84 367.54 874.77 370.55 874.77 276.09 879.84 273.08"/>
        <polygon class="cls-5" points="872.86 277.11 872.86 369.34 874.77 370.55 874.77 276.09 872.86 277.11"/>
      </g>
      <polygon class="cls-19" points="716.24 367.54 634.43 320.31 634.43 414.77 716.24 462 716.24 367.54"/>
      <polygon class="cls-25" points="716.24 367.54 675.34 343.93 675.34 438.38 716.24 462 716.24 367.54"/>
      <polygon class="cls-25" points="673.73 343.03 634.43 320.56 634.43 415.01 673.73 437.49 673.73 343.03"/>
      <polygon class="cls-19" points="716.24 383.62 634.43 336.64 634.43 339.99 716.24 386.63 716.24 383.62"/>
      <polygon class="cls-19" points="716.24 410.53 634.43 363.55 634.43 366.9 716.24 413.54 716.24 410.53"/>
      <polygon class="cls-19" points="716.24 437.44 634.43 390.46 634.43 393.81 716.24 440.45 716.24 437.44"/>
    </g>
    <g>
      <polygon class="cls-15" points="892.17 280.02 728.57 374.48 810.37 421.71 973.97 327.25 892.17 280.02"/>
      <polygon class="cls-2" points="973.97 327.25 973.98 421.71 810.37 516.16 810.37 421.71 973.97 327.25"/>
      <g>
        <polygon class="cls-1" points="817.17 417.71 817.17 512.17 812.09 515.18 812.09 420.72 817.17 417.71"/>
        <polygon class="cls-3" points="810.18 421.75 810.18 513.97 812.09 515.18 812.09 420.72 810.18 421.75"/>
      </g>
      <g>
        <polygon class="cls-1" points="832.8 408.67 832.8 503.13 827.73 506.13 827.73 411.68 832.8 408.67"/>
        <polygon class="cls-3" points="825.82 412.7 825.82 504.93 827.73 506.13 827.73 411.68 825.82 412.7"/>
      </g>
      <g>
        <polygon class="cls-1" points="848.43 399.62 848.43 494.08 843.36 497.09 843.36 402.63 848.43 399.62"/>
        <polygon class="cls-3" points="841.45 403.65 841.45 495.88 843.36 497.09 843.36 402.63 841.45 403.65"/>
      </g>
      <g>
        <polygon class="cls-1" points="864.07 390.58 864.07 485.03 858.99 488.04 858.99 393.58 864.07 390.58"/>
        <polygon class="cls-3" points="857.08 394.61 857.08 486.83 858.99 488.04 858.99 393.58 857.08 394.61"/>
      </g>
      <g>
        <polygon class="cls-1" points="879.7 381.53 879.7 475.99 874.62 478.99 874.62 384.54 879.7 381.53"/>
        <polygon class="cls-3" points="872.71 385.56 872.71 477.79 874.62 478.99 874.62 384.54 872.71 385.56"/>
      </g>
      <g>
        <polygon class="cls-1" points="895.33 372.48 895.33 466.94 890.26 469.95 890.26 375.49 895.33 372.48"/>
        <polygon class="cls-3" points="888.35 376.51 888.35 468.74 890.26 469.95 890.26 375.49 888.35 376.51"/>
      </g>
      <g>
        <polygon class="cls-1" points="910.96 363.44 910.97 457.89 905.89 460.9 905.89 366.44 910.96 363.44"/>
        <polygon class="cls-3" points="903.98 367.47 903.98 459.69 905.89 460.9 905.89 366.44 903.98 367.47"/>
      </g>
      <g>
        <polygon class="cls-1" points="926.6 354.39 926.6 448.85 921.52 451.85 921.52 357.4 926.6 354.39"/>
        <polygon class="cls-3" points="919.61 358.42 919.61 450.65 921.52 451.85 921.52 357.4 919.61 358.42"/>
      </g>
      <g>
        <polygon class="cls-1" points="942.23 345.34 942.23 439.8 937.16 442.81 937.16 348.35 942.23 345.34"/>
        <polygon class="cls-3" points="935.25 349.38 935.25 441.6 937.16 442.81 937.16 348.35 935.25 349.38"/>
      </g>
      <g>
        <polygon class="cls-1" points="957.86 336.3 957.86 430.75 952.79 433.76 952.79 339.3 957.86 336.3"/>
        <polygon class="cls-3" points="950.88 340.33 950.88 432.55 952.79 433.76 952.79 339.3 950.88 340.33"/>
      </g>
      <g>
        <polygon class="cls-1" points="973.5 327.25 973.5 421.71 968.42 424.71 968.42 330.26 973.5 327.25"/>
        <polygon class="cls-3" points="966.51 331.28 966.51 423.51 968.42 424.71 968.42 330.26 966.51 331.28"/>
      </g>
      <polygon class="cls-2" points="810.37 421.71 728.57 374.48 728.57 468.94 810.37 516.16 810.37 421.71"/>
      <polygon class="cls-17" points="810.37 421.71 769.47 398.09 769.47 492.55 810.37 516.16 810.37 421.71"/>
      <polygon class="cls-17" points="767.87 397.2 728.57 374.72 728.57 469.18 767.87 491.66 767.87 397.2"/>
      <polygon class="cls-2" points="810.37 437.79 728.57 390.81 728.57 394.16 810.37 440.8 810.37 437.79"/>
      <polygon class="cls-2" points="810.37 464.7 728.57 417.71 728.57 421.06 810.37 467.7 810.37 464.7"/>
      <polygon class="cls-2" points="810.37 491.61 728.57 444.62 728.57 447.97 810.37 494.61 810.37 491.61"/>
    </g>
    <g>
      <polygon class="cls-15" points="844.47 158.02 680.86 252.47 762.67 299.7 926.27 205.25 844.47 158.02"/>
      <polygon class="cls-2" points="926.27 205.25 926.27 299.7 762.67 394.16 762.67 299.7 926.27 205.25"/>
      <g>
        <polygon class="cls-1" points="769.46 295.71 769.47 390.17 764.39 393.18 764.39 298.72 769.46 295.71"/>
        <polygon class="cls-3" points="762.48 299.74 762.48 391.97 764.39 393.18 764.39 298.72 762.48 299.74"/>
      </g>
      <g>
        <polygon class="cls-1" points="785.1 286.66 785.1 381.12 780.02 384.13 780.02 289.67 785.1 286.66"/>
        <polygon class="cls-3" points="778.11 290.7 778.11 382.92 780.02 384.13 780.02 289.67 778.11 290.7"/>
      </g>
      <g>
        <polygon class="cls-1" points="800.73 277.62 800.73 372.08 795.66 375.08 795.66 280.62 800.73 277.62"/>
        <polygon class="cls-3" points="793.75 281.65 793.75 373.88 795.66 375.08 795.66 280.62 793.75 281.65"/>
      </g>
      <g>
        <polygon class="cls-1" points="816.36 268.57 816.36 363.03 811.29 366.04 811.29 271.58 816.36 268.57"/>
        <polygon class="cls-3" points="809.38 272.6 809.38 364.83 811.29 366.04 811.29 271.58 809.38 272.6"/>
      </g>
      <g>
        <polygon class="cls-1" points="832 259.52 832 353.98 826.92 356.99 826.92 262.53 832 259.52"/>
        <polygon class="cls-3" points="825.01 263.56 825.01 355.78 826.92 356.99 826.92 262.53 825.01 263.56"/>
      </g>
      <g>
        <polygon class="cls-1" points="847.63 250.48 847.63 344.94 842.55 347.94 842.55 253.48 847.63 250.48"/>
        <polygon class="cls-3" points="840.64 254.51 840.64 346.74 842.55 347.94 842.55 253.48 840.64 254.51"/>
      </g>
      <g>
        <polygon class="cls-1" points="863.26 241.43 863.26 335.89 858.19 338.9 858.19 244.44 863.26 241.43"/>
        <polygon class="cls-3" points="856.28 245.46 856.28 337.69 858.19 338.9 858.19 244.44 856.28 245.46"/>
      </g>
      <g>
        <polygon class="cls-1" points="878.89 232.38 878.89 326.84 873.82 329.85 873.82 235.39 878.89 232.38"/>
        <polygon class="cls-3" points="871.91 236.42 871.91 328.64 873.82 329.85 873.82 235.39 871.91 236.42"/>
      </g>
      <g>
        <polygon class="cls-1" points="894.53 223.34 894.53 317.8 889.45 320.8 889.45 226.34 894.53 223.34"/>
        <polygon class="cls-3" points="887.54 227.37 887.54 319.6 889.45 320.8 889.45 226.34 887.54 227.37"/>
      </g>
      <g>
        <polygon class="cls-1" points="910.16 214.29 910.16 308.75 905.09 311.76 905.09 217.3 910.16 214.29"/>
        <polygon class="cls-3" points="903.18 218.32 903.18 310.55 905.09 311.76 905.09 217.3 903.18 218.32"/>
      </g>
      <g>
        <polygon class="cls-1" points="925.79 205.25 925.79 299.7 920.72 302.71 920.72 208.25 925.79 205.25"/>
        <polygon class="cls-3" points="918.81 209.28 918.81 301.5 920.72 302.71 920.72 208.25 918.81 209.28"/>
      </g>
      <polygon class="cls-2" points="762.67 299.7 680.86 252.47 680.86 346.93 762.67 394.16 762.67 299.7"/>
      <polygon class="cls-17" points="762.67 299.7 721.77 276.09 721.77 370.55 762.67 394.16 762.67 299.7"/>
      <polygon class="cls-17" points="720.16 275.2 680.86 252.72 680.86 347.18 720.16 369.65 720.16 275.2"/>
      <polygon class="cls-2" points="762.67 315.79 680.86 268.8 680.86 272.15 762.67 318.79 762.67 315.79"/>
      <polygon class="cls-2" points="762.67 342.69 680.86 295.71 680.86 299.06 762.67 345.7 762.67 342.69"/>
      <polygon class="cls-2" points="762.67 369.6 680.86 322.62 680.86 325.97 762.67 372.61 762.67 369.6"/>
    </g>
    <g>
      <polygon class="cls-9" points="590.1 494.91 518.01 536.04 579.86 571.75 651.52 530.37 590.1 494.91"/>
      <polygon class="cls-13" points="590.1 494.91 518.01 536.04 579.86 571.75 651.52 530.37 590.1 494.91"/>
      <polygon class="cls-14" points="589.53 471.61 589.53 495.25 632.72 520.18 632.72 495.57 589.53 471.61"/>
      <polygon class="cls-20" points="589.53 471.61 589.53 495.25 632.72 520.18 632.72 495.57 589.53 471.61"/>
      <polygon class="cls-16" points="656.48 492.83 604.83 463.01 589.53 471.61 630.95 495.57 656.48 492.83"/>
      <polygon class="cls-1" points="613.19 561.09 592.92 565.83 579.5 556.34 599.05 545.68 613.19 561.09"/>
      <path class="cls-1" d="M635.1,543.45l.03-.15c-1.52-1.54-2.42-4-2.41-7.21.02-8.08,5.74-17.99,12.71-22.01,3.21-1.85,6.15-2.15,8.39-1.14h0c.42.19.82.43,1.19.71l13.34,7.94-12.77,13.15-.93-1.29c-1.47,2.65-3.31,5.11-5.4,7.08l1.73,12.02-13.57-7.78c-.66-.24-1.27-.59-1.81-1.04l-.49-.28Z"/>
      <path class="cls-1" d="M565.81,583.04l.03-.15c-1.52-1.54-2.42-4-2.41-7.21.02-8.08,5.74-17.99,12.71-22.01,3.21-1.85,6.15-2.15,8.39-1.14h0c.42.19.82.43,1.19.71l13.34,7.94-12.77,13.15-.93-1.29c-1.47,2.65-3.31,5.11-5.4,7.08l1.73,12.02-13.57-7.78c-.66-.24-1.27-.59-1.81-1.04l-.49-.28Z"/>
      <path class="cls-9" d="M639.35,490.72l-8.4,4.85v17.84c0,3.59-1.92,6.91-5.02,8.7l-32.85,18.96c-5.92,3.42-13.31-.85-13.31-7.69v-8.27l-20.47,11.82-4.76,62.03,14.74-8.51v-10.82c0-7.94,4.23-15.27,11.11-19.24l8.38-4.84c4.99-2.88,11.22.72,11.22,6.48v10.55l40.95-23.51v-10.66c0-8.02,4.33-15.42,11.32-19.36l9.42-5.3v-10.17c0-11.45-12.39-18.61-22.31-12.88Z"/>
      <path class="cls-3" d="M588.83,561.05c6.97-4.02,12.67-.71,12.67,7.36s-5.72,17.98-12.71,22.01c-6.99,4.04-12.69.72-12.67-7.36.02-8.08,5.74-17.99,12.71-22.01Z"/>
      <path class="cls-10" d="M588.83,568.12c3.61-2.09,6.57-.37,6.57,3.82s-2.97,9.32-6.59,11.42c-3.63,2.09-6.58.38-6.57-3.82.01-4.19,2.98-9.33,6.59-11.42Z"/>
      <path class="cls-6" d="M588.83,570.19c-3.32,1.91-6.08,6.4-6.52,10.36-.04-.32-.07-.66-.07-1.01.01-4.19,2.98-9.33,6.59-11.42,3.62-2.09,6.57-.37,6.57,3.82,0,.35-.03.71-.07,1.08-.44-3.44-3.19-4.73-6.5-2.82Z"/>
      <path class="cls-3" d="M658.12,521.46c6.97-4.02,12.67-.71,12.67,7.36s-5.72,17.98-12.71,22.01c-6.99,4.04-12.69.72-12.67-7.36.02-8.08,5.74-17.99,12.71-22.01Z"/>
      <path class="cls-10" d="M658.11,528.53c3.62-2.09,6.57-.37,6.57,3.82s-2.97,9.32-6.59,11.42c-3.63,2.09-6.58.38-6.57-3.82.01-4.19,2.98-9.33,6.59-11.42Z"/>
      <path class="cls-6" d="M658.11,530.6c-3.32,1.91-6.08,6.4-6.52,10.36-.04-.32-.07-.66-.07-1.01.01-4.19,2.98-9.33,6.59-11.42,3.62-2.09,6.57-.37,6.57,3.82,0,.35-.03.71-.07,1.08-.44-3.44-3.19-4.73-6.5-2.82Z"/>
      <polygon class="cls-16" points="579.76 525.13 538.35 501.16 517.87 512.98 559.29 536.95 579.76 525.13"/>
      <polygon class="cls-20" points="554.53 598.97 559.29 536.95 517.87 512.98 513.58 575.74 554.53 598.97"/>
      <polygon class="cls-1" points="633.86 494.13 633.86 441.58 631.11 443.17 631.11 495.68 633.86 494.13"/>
      <polygon class="cls-26" points="631.11 443.17 628.36 441.58 628.36 494.13 631.11 495.68 631.11 443.17"/>
      <polygon class="cls-1" points="569.63 531.02 589.09 435.02 582.56 438.8 563.09 534.72 569.63 531.02"/>
      <polygon class="cls-26" points="582.56 438.8 576.02 435.02 556.56 531.02 563.09 534.72 582.56 438.8"/>
      <polygon class="cls-1" points="537.43 512.47 551.3 443.52 544.76 447.29 530.89 516.17 537.43 512.47"/>
      <polygon class="cls-26" points="544.76 447.29 538.23 443.52 524.35 512.47 530.89 516.17 544.76 447.29"/>
      <polygon class="cls-1" points="636.5 441.51 582.23 410.18 527.96 441.51 582 472.98 636.5 441.51"/>
      <polygon class="cls-9" points="626.38 442.09 580.11 415.84 571.73 420.68 617.96 446.95 626.38 442.09"/>
      <polygon class="cls-9" points="609.88 451.65 563.61 425.4 555.23 430.24 601.47 456.51 609.88 451.65"/>
      <polygon class="cls-9" points="593.39 461.21 547.11 434.96 538.73 439.8 584.97 466.07 593.39 461.21"/>
      <polygon class="cls-26" points="636.5 441.58 636.5 445.71 582.23 477.21 582 473.05 636.5 441.58"/>
      <polygon class="cls-8" points="582.23 477.21 527.96 445.88 527.96 441.58 582 473.05 582.23 477.21"/>
      <polygon class="cls-1" points="558.06 546.12 499.22 512.15 499.22 521.86 558.06 555.83 558.06 546.12"/>
      <polygon class="cls-26" points="558.06 546.12 560.04 544.88 560.04 554.58 558.06 555.83 558.06 546.12"/>
      <polygon class="cls-23" points="560.04 544.99 501.19 511.01 499.22 512.15 558.06 546.12 560.04 544.99"/>
      <polygon class="cls-1" points="558.06 567.64 499.22 533.66 499.22 543.37 558.06 577.35 558.06 567.64"/>
      <polygon class="cls-26" points="558.06 567.64 560.04 566.39 560.04 576.1 558.06 577.35 558.06 567.64"/>
      <polygon class="cls-23" points="560.04 566.5 501.19 532.53 499.22 533.66 558.06 567.64 560.04 566.5"/>
      <polygon class="cls-1" points="518.51 468.48 518.51 590.16 511.83 594.24 511.83 479.59 518.51 468.48"/>
      <polygon class="cls-26" points="511.83 479.59 504.83 475.92 504.83 590.16 511.83 594.24 511.83 479.59"/>
      <polygon class="cls-23" points="518.51 468.48 511.83 464.43 504.83 475.92 511.83 479.59 518.51 468.48"/>
      <polygon class="cls-1" points="551.06 486.87 551.06 608.55 544.37 612.63 544.37 497.98 551.06 486.87"/>
      <polygon class="cls-26" points="544.37 497.98 537.37 494.31 537.37 608.55 544.37 612.63 544.37 497.98"/>
      <polygon class="cls-23" points="551.06 486.87 544.37 482.82 537.37 494.31 544.37 497.98 551.06 486.87"/>
      <path class="cls-23" d="M544.37,601.44l-62.42,36.59c-2.18,1.28-4.89,1.26-7.06-.05h0c-1.6-.97-1.57-3.3.05-4.23l62.84-36.37,6.59,2.8v1.26Z"/>
      <path class="cls-1" d="M544.37,600.18l-62.77,36.82c-2.18,1.28-4.89,1.26-7.06-.05h0c-1.6-.97-1.57-3.3.05-4.23l62.84-36.37,6.94,3.83Z"/>
      <path class="cls-23" d="M511.83,583.86l-62.42,36.59c-2.18,1.28-4.89,1.26-7.06-.05h0c-1.6-.97-1.57-3.3.05-4.23l62.84-36.37,6.59,2.8v1.26Z"/>
      <path class="cls-1" d="M511.83,582.6l-62.77,36.82c-2.18,1.28-4.89,1.26-7.06-.05h0c-1.6-.97-1.57-3.3.05-4.23l62.84-36.37,6.94,3.83Z"/>
    </g>
  </g>
</svg>