<?xml version="1.0" encoding="UTF-8"?>
<svg id="Object" xmlns="http://www.w3.org/2000/svg" viewBox="0 0 1839.21 1278.78">
  <defs>
    <style>
      .cls-1 {
        fill: #6d217f;
      }

      .cls-1, .cls-2, .cls-3, .cls-4, .cls-5, .cls-6, .cls-7, .cls-8, .cls-9, .cls-10, .cls-11, .cls-12, .cls-13, .cls-14, .cls-15, .cls-16, .cls-17, .cls-18, .cls-19, .cls-20, .cls-21, .cls-22 {
        stroke-width: 0px;
      }

      .cls-2 {
        fill: #e54526;
      }

      .cls-3 {
        fill: #000;
      }

      .cls-4 {
        fill: #ffa883;
      }

      .cls-5 {
        fill: #ff623e;
      }

      .cls-6 {
        fill: #13574c;
      }

      .cls-7 {
        fill: #ff983c;
      }

      .cls-8, .cls-18 {
        fill: #f4f4f4;
      }

      .cls-9 {
        fill: #bde0fe;
      }

      .cls-10 {
        fill: #0b2933;
      }

      .cls-11 {
        fill: #ffae43;
      }

      .cls-12 {
        fill: #e55c2c;
      }

      .cls-13 {
        fill: #fc6f49;
      }

      .cls-14 {
        fill: #8e42a0;
      }

      .cls-15 {
        fill: #ddd;
      }

      .cls-16, .cls-18 {
        fill-rule: evenodd;
      }

      .cls-16, .cls-19 {
        fill: #bfbfbf;
      }

      .cls-17 {
        fill: #e46449;
      }

      .cls-20 {
        fill: #fff;
      }

      .cls-21 {
        fill: #ff7a45;
      }

      .cls-22 {
        fill: #ffcaae;
      }
    </style>
  </defs>
  <g id="Obejct">
    <path class="cls-18" d="M1762.56,1262.01H105.85c-49.64-42.91-39.78-137.46,10.97-179.04,50.78-41.61,126.61-32.32,185.22-61.89,61.65-31.1,94.94-101.36,103.27-169.91,8.32-68.55-3.77-137.67-9.42-206.49-5.65-68.82-4.06-141.41,28.74-202.17,32.81-60.76,104.92-104.94,171.26-85.78,50.62,14.62,85.75,61.02,107.55,108.99,21.8,47.97,34.13,100.13,59.53,146.29,58.34,105.99,188.36,167.23,307.22,144.71,70.63-13.38,134-52.53,203.92-69.24,69.92-16.71,157.64-1.82,189.3,62.71,18.25,37.19,13.14,80.9,12.29,122.32s5.57,87.95,38.24,113.41c44.33,34.54,108.75,11.52,164.22,20.58,46.38,7.58,87.84,40.41,105.83,83.82,18,43.42,5.97,133.5-21.45,171.67Z"/>
    <polygon class="cls-10" points="781.68 1110.68 725.11 1110.68 699.16 1110.68 678.12 1110.68 654.76 1110.68 654.76 1262.01 725.11 1262.01 781.68 1262.01 928.4 1262.01 928.4 1110.68 781.68 1110.68"/>
    <polygon class="cls-10" points="1208.97 989.26 1143.29 989.26 1113.15 989.26 1088.72 989.26 1061.6 989.26 1061.6 1176.09 1143.29 1176.09 1208.97 1176.09 1379.35 1176.09 1379.35 989.26 1208.97 989.26"/>
    <g>
      <path class="cls-19" d="M821.24,2.87h144.76c18.65,0,33.78,15.14,33.78,33.78v106.51c0,18.65-15.14,33.78-33.78,33.78h-144.76c-18.65,0-33.78-15.14-33.78-33.78V36.65c0-18.65,15.14-33.78,33.78-33.78Z"/>
      <polygon class="cls-16" points="999.78 96.28 999.78 64.34 1053.04 96.28 999.78 96.28"/>
    </g>
    <g>
      <rect class="cls-10" x="813.77" y="134.66" width="14.08" height="30.18" transform="translate(1288.19 840.91) rotate(-134.41)"/>
      <circle class="cls-10" cx="886.05" cy="85.84" r="85.84" transform="translate(198.82 651.67) rotate(-45)"/>
      <path class="cls-20" d="M841.86,129.12c23.87,24.37,63.11,24.77,87.48.91,24.37-23.87,24.77-63.11.91-87.48-23.87-24.37-63.11-24.77-87.48-.91-24.37,23.87-24.77,63.11-.91,87.48Z"/>
      <path class="cls-13" d="M705.69,262.51h0c9.95,10.16,26.26,10.33,36.42.38l81.64-79.96-36.04-36.79-81.64,79.96c-10.16,9.95-10.33,26.26-.38,36.42Z"/>
      <rect class="cls-20" x="789.51" y="154.27" width="41.04" height="12.07" transform="translate(1262.33 851.15) rotate(-134.41)"/>
    </g>
    <g>
      <path class="cls-1" d="M1452.46,535.32l139.88,347.63c.19-2.57,5.25-85.47-18.25-172.67l-27.15-16.72,23.09,2.61c-11.07-36.34-27.41-72.7-51.4-103.62l-12.39,15.87,4.75-25.22c-16.15-18.8-35.47-35.22-58.53-47.88Z"/>
      <path class="cls-6" d="M1593.93,1067.3c-2.33-39.42,15.65-98.9,15.83-99.5l2.14.65c-.18.59-18.05,59.7-15.74,98.71l-2.24.13Z"/>
      <path class="cls-6" d="M1568.81,1073.36c-1.96-72.34-13.98-110.76-23.71-130.25-10.51-21.05-20.67-25.1-20.77-25.14l.78-2.1c.44.16,10.89,4.22,21.79,25.82,9.93,19.68,22.18,58.49,24.16,131.61l-2.24.06Z"/>
      <path class="cls-6" d="M1568.05,1069.62c-9.08-103.64,22.68-169.32,23-169.97l2.01.99c-.32.65-31.8,65.81-22.78,168.78l-2.23.2Z"/>
      <rect class="cls-10" x="1474.54" y="1023.1" width="219.84" height="53.68"/>
      <rect class="cls-10" x="1489.88" y="1076.78" width="189.17" height="170.63"/>
      <polygon class="cls-10" points="1679.05 1124.07 1489.88 1090.42 1489.88 1076.78 1679.05 1076.78 1679.05 1124.07"/>
      <path class="cls-14" d="M1682.84,621.28c.54,217.22-98.48,301.96-98.48,301.96-18.17-78.43-23.76-146.2-21.58-204.05l20.91,9.29-19.41-35c4.99-62.01,18.92-111.5,34.83-149.51l6.59,11.32v-26.26c27.29-58.44,57.34-85.15,57.34-85.15,10.32,49.53,16.12,94.63,18.52,135.6v.02l-20.42,51.71,21.7-9.93Z"/>
      <path class="cls-14" d="M1532.6,923.24s-65.56-51.01-101.99-99.08c-18.04-23.8-32.51-86.2-42.51-143.11l23.14-12.59h-25.3c-8.84-52.81-13.61-97.82-13.61-97.82,128.22,65.56,160.28,352.61,160.28,352.61Z"/>
      <path class="cls-1" d="M1786.12,746.93l-179.2,237.47c.39-2.01,13.68-66.59,49.75-128.56l24.27-7.19-18.24-2.78c16.01-25.56,36.07-50.05,60.85-68.77l6.21,14.73,1.58-20.31c16.27-11.07,34.48-19.65,54.78-24.57Z"/>
    </g>
    <g>
      <g>
        <polygon class="cls-8" points="899.35 1228.35 819.95 998.1 988.91 998.1 1086.72 1262.01 930.99 1262.01 899.35 1228.35"/>
        <polygon class="cls-19" points="993.7 979.01 1092.38 1262.01 1055.22 1262.13 956.94 979.1 993.7 979.01"/>
        <polygon class="cls-19" points="1264.88 1009.91 1342.96 598.65 1323.8 577.99 699.67 598.65 594.74 989.26 613.89 1009.91 1264.88 1009.91"/>
        <polygon class="cls-15" points="1245.73 989.26 1323.8 577.99 680.51 577.99 594.74 989.26 1245.73 989.26"/>
        <polygon class="cls-8" points="1299.61 605.48 1239.13 916.68 636.53 916.68 695.91 605.48 1299.61 605.48"/>
        <g>
          <polygon class="cls-20" points="922.94 771.07 1205.18 771.07 1227.27 657.44 945.02 657.44 922.94 771.07"/>
          <polygon class="cls-15" points="943.31 666.24 1225.56 666.24 1230.12 642.78 947.87 642.78 943.31 666.24"/>
          <polygon class="cls-8" points="1041.26 692.27 1181.64 692.27 1183.42 683.1 1043.04 683.1 1041.26 692.27"/>
          <polygon class="cls-8" points="1036.62 716.09 1177.01 716.09 1178.79 706.93 1038.41 706.93 1036.62 716.09"/>
          <polygon class="cls-8" points="1031.99 739.92 1172.38 739.92 1174.16 730.75 1033.77 730.75 1031.99 739.92"/>
          <path class="cls-10" d="M1204.93,654.51c-.5,2.58,1.18,4.67,3.77,4.67s5.08-2.09,5.58-4.67-1.18-4.67-3.77-4.67-5.08,2.09-5.58,4.67Z"/>
          <path class="cls-13" d="M1188.98,654.51c-.5,2.58,1.18,4.67,3.76,4.67s5.08-2.09,5.58-4.67c.5-2.58-1.18-4.67-3.77-4.67s-5.08,2.09-5.58,4.67Z"/>
          <path class="cls-14" d="M1173.04,654.51c-.5,2.58,1.18,4.67,3.77,4.67s5.08-2.09,5.58-4.67-1.18-4.67-3.77-4.67-5.08,2.09-5.58,4.67Z"/>
        </g>
        <g>
          <polygon class="cls-20" points="714.06 899.05 961.09 899.05 993.7 731.26 746.68 731.26 714.06 899.05"/>
          <polygon class="cls-15" points="744.68 741.51 991.71 741.51 997.87 709.82 750.84 709.82 744.68 741.51"/>
          <path class="cls-10" d="M965.36,725.2c-.48,2.49,1.14,4.51,3.63,4.51s4.9-2.02,5.38-4.51c.48-2.49-1.14-4.51-3.63-4.51s-4.9,2.02-5.38,4.51Z"/>
          <path class="cls-13" d="M947.75,725.2c-.48,2.49,1.14,4.51,3.63,4.51s4.9-2.02,5.38-4.51-1.14-4.51-3.63-4.51-4.9,2.02-5.38,4.51Z"/>
          <path class="cls-14" d="M930.15,725.2c-.48,2.49,1.14,4.51,3.63,4.51s4.9-2.02,5.38-4.51-1.14-4.51-3.63-4.51-4.9,2.02-5.38,4.51Z"/>
          <g>
            <path class="cls-17" d="M819.95,872.72c7.11,3.74,15.47,5.83,24.72,5.83,33.23,0,65.4-26.94,71.86-60.17,4.65-23.95-5.31-44.62-23.68-54.31l-36.48,54.31-36.42,54.34Z"/>
            <path class="cls-9" d="M830.91,769.41l25.46,48.96,36.48-54.31c-7.12-3.76-15.5-5.86-24.79-5.86-13.04,0-25.93,4.15-37.15,11.2Z"/>
            <path class="cls-8" d="M796.2,818.37c-4.66,23.97,5.34,44.68,23.75,54.34h0l36.42-54.34-25.46-48.96c-17.38,10.91-30.79,28.78-34.71,48.96Z"/>
          </g>
        </g>
        <rect class="cls-8" x="777.39" y="1228.35" width="181.89" height="19.79" transform="translate(1736.66 2476.48) rotate(180)"/>
        <polygon class="cls-19" points="959.27 1228.35 1066.66 1228.35 1073.91 1248.13 959.27 1248.13 959.27 1228.35"/>
      </g>
      <g>
        <polygon class="cls-4" points="503.15 554.74 493.79 659.29 359.78 628.52 382.82 541.35 503.15 554.74"/>
        <path class="cls-22" d="M571.77,931.79s87.97,105.57,167.88,105.57,163.85-157.99,175.59-177.78c11.72-19.79,3.66-65.25,3.66-65.25,20.16,1.47,38.86-12.45,40.32-42.14,1.47-29.69-26.76-30.43-26.76-30.43-7.9-14.73-31.7-3.72-32.59-3.3-.02.02-.03.02-.03.02-1.48-.91-2.95-1.65-4.38-2.25-13.68-5.71-24.08,2.22-24.56,2.59,5.68-14.5,18.17-28.34,31.87-40.12,7.4-6.37-.66-17.92-9.22-13.22-63.45,34.8-62.98,86.35-62.98,86.35-15.75,32.25-4.4,86.14-4.4,86.14l-80.63,77.71-55.72-65.98c-52.06,68.91-118.04,82.09-118.04,82.09Z"/>
        <path class="cls-13" d="M689.81,849.7s-118.03-156.16-152.12-181.08c-34.09-24.93-204.88-31.98-204.88-31.98,0,0-123.91,17.3-135.46,157.69s-29,453.79-29,453.79h426.39l-22.97-316.34s110.71-19.23,118.04-82.09Z"/>
        <polygon class="cls-12" points="571.77 931.79 474.22 816.36 575.94 989.26 571.77 931.79"/>
        <path class="cls-22" d="M371.74,556.31s28.13,44.52,106.59,50.8c78.46,6.28,130.88-94.98,107.14-161.19-23.74-66.21-225.02-61.2-225.28-59.08-.26,2.12,1.17,94.03.49,98.53-.68,4.5,11.06,70.94,11.06,70.94Z"/>
        <polygon class="cls-19" points="311.5 642.12 355.22 609.2 499.82 625.26 516.56 659.29 311.5 642.12"/>
        <path class="cls-4" d="M587.19,499.72l4.47,47.94c1.26,13.53-11.05,24.36-24.31,21.38l-14.55-3.27,34.39-66.06Z"/>
        <path class="cls-4" d="M419.99,483.45c-3-2.7-5.75-5.58-8.26-8.63-.08-.12-.17-.23-.27-.33-3.36-4.12-6.3-8.56-8.8-13.35-1.68-3.23-7.5-1.07-5.67,2.43,2.33,4.47,5.07,8.74,8.16,12.73-1.89,2.31-3.78,4.63-5.67,6.94-1.01,1.24-.53,3.2.81,3.99,1.44.84,3.31.66,4.39-.67,1.5-1.83,2.99-3.66,4.49-5.49,1.91,2.12,3.92,4.14,6.04,6.05,1.23,1.1,3.07,1.43,4.45.37,1.19-.92,1.55-2.94.33-4.03Z"/>
        <circle class="cls-4" cx="460.67" cy="500.99" r="22.82" transform="translate(-153.47 794.32) rotate(-72.93)"/>
        <path class="cls-10" d="M564.24,454.06c-14.56-3.58-29.42-3.42-44.01.2-11.2,2.78-5.94,18.12,5.28,15.34,11.57-2.87,22.91-2.74,34.42.1,11.2,2.76,15.46-12.9,4.31-15.64Z"/>
        <circle class="cls-10" cx="540.49" cy="497.83" r="15.33" transform="translate(-76.17 897.44) rotate(-75.59)"/>
        <path class="cls-10" d="M339.88,406.73l108.12,10.8-16.87,47.32s-27.14-38.7-47.35-5.85c-20.21,32.85,31.22,45.09,31.22,45.09-11.66,27.63-43.25,52.23-43.25,52.23-75.65-45.08-47.76-142.86-47.76-142.86l15.9-6.73Z"/>
        <path class="cls-13" d="M456.58,307.55c135.17,1.45,131.46,146.79,131.46,146.79,0,0-58.96-12.57-142.02-10.67-41.79.96-127.06-2.55-127.06-2.55,0,0-14.24-135.2,137.62-133.57Z"/>
        <path class="cls-20" d="M486.89,529.99l40.51,39.55s-16.04,30.78-44.2,14.51c-32.32-18.67,3.68-54.06,3.68-54.06Z"/>
        <path class="cls-19" d="M503.15,444.53s132.02-76.6,173.84-32.4c41.82,44.2-85.8,66.04-85.8,66.04l-3.16-23.83-84.89-9.81Z"/>
        <path class="cls-10" d="M434.38,307.53c-64.16,1.15-52.34,115.79-52.34,115.79l39.71.62s-11.13-110.27,46.61-116.41h-33.98Z"/>
        <polygon class="cls-10" points="469.92 600.72 436.17 578.89 410.28 505.75 419.71 502.42 444.46 572.34 475.35 592.33 469.92 600.72"/>
        <rect class="cls-20" x="360.48" y="423.06" width="79.84" height="100.75" rx="25.19" ry="25.19"/>
        <circle class="cls-10" cx="400.4" cy="475.69" r="20.35" transform="translate(-70.61 69.8) rotate(-9.16)"/>
        <rect class="cls-10" x="461.77" y="586.49" width="31.76" height="23.1" rx="6.98" ry="6.98" transform="translate(363.01 -158.7) rotate(30)"/>
      </g>
    </g>
    <g>
      <path class="cls-15" d="M1050.85,270.35v237.25c0,11.87,9.63,21.49,21.5,21.49h448.35c11.87,0,21.49-9.62,21.49-21.49v-237.25h-491.34Z"/>
      <path class="cls-19" d="M1050.85,218.21v52.13h491.34v-52.13c0-11.87-9.62-21.49-21.49-21.49h-448.35c-11.87,0-21.5,9.62-21.5,21.49Z"/>
      <circle class="cls-20" cx="1478.53" cy="233.54" r="12.13"/>
      <circle class="cls-13" cx="1439.38" cy="233.54" r="12.13"/>
      <circle class="cls-3" cx="1400.23" cy="233.54" r="12.13"/>
    </g>
    <path class="cls-10" d="M1823.52,1247.42H15.68c-8.66,0-15.68,7.02-15.68,15.68h0c0,8.66,7.02,15.68,15.68,15.68h1807.84c8.66,0,15.68-7.02,15.68-15.68h0c0-8.66-7.02-15.68-15.68-15.68Z"/>
    <g>
      <rect class="cls-21" x="1135.16" y="1041.3" width="165.8" height="206.12"/>
      <rect class="cls-11" x="1227.06" y="1041.3" width="265.58" height="206.12"/>
      <rect class="cls-20" x="1253.84" y="1183.36" width="55.68" height="36.9"/>
      <rect class="cls-11" x="1165.68" y="1041.3" width="27.49" height="50.83"/>
      <rect class="cls-21" x="1419.83" y="1183.36" width="31.05" height="8.66"/>
      <rect class="cls-21" x="1419.83" y="1194.97" width="31.05" height="8.66"/>
      <rect class="cls-21" x="1419.83" y="1206.57" width="31.05" height="8.66"/>
    </g>
    <g>
      <rect class="cls-5" x="894.41" y="1082.88" width="172.1" height="164.53"/>
      <rect class="cls-7" x="989.81" y="1082.88" width="169.33" height="164.53"/>
      <rect class="cls-5" x="989.81" y="1154.84" width="169.33" height="20.38"/>
      <rect class="cls-2" x="894.41" y="1154.84" width="94.85" height="20.38"/>
      <rect class="cls-5" x="992.23" y="1154.94" width="164.5" height="20.38" transform="translate(2239.61 90.65) rotate(90)"/>
      <rect class="cls-2" x="856.34" y="1154.94" width="164.5" height="20.38" transform="translate(2103.72 226.54) rotate(90)"/>
    </g>
    <g>
      <g>
        <path class="cls-10" d="M1371.35,96.4c5.18.25,9.4,4.61,11.28,9.44s1.97,10.14,2.39,15.32c.41,5.17,1.28,10.56,4.4,14.71,3.66,4.87,9.72,7.15,15.02,10.16,19.21,10.91,29.99,34.88,25.42,56.49-5.42,0-10.9.07-16.32.07h-219.41c-.29-13.69,1.3-30.01,10.52-40.13,6.28-6.89,16.3-10.85,19.46-19.63,1.98-5.5.7-11.7,2.29-17.32,2.28-8.07,10.17-13.51,18.32-15.5,8.15-1.99,16.67-1.19,25.05-.76,33.87,1.72,67.7-14.5,101.57-12.84Z"/>
        <rect class="cls-4" x="1277.76" y="169.82" width="63.31" height="63.31" transform="translate(2618.82 402.94) rotate(180)"/>
        <circle class="cls-4" cx="1385.37" cy="118.14" r="17.55" transform="translate(1046.85 1466.7) rotate(-80.78)"/>
        <circle class="cls-4" cx="1234.75" cy="118.14" r="17.55" transform="translate(836.09 1292.72) rotate(-76.72)"/>
        <path class="cls-22" d="M1233.45,114.7c0,41.95,34.01,75.96,75.96,75.96,36.6,0,67.15-25.88,74.35-60.34,1.06-5.04,1.61-10.27,1.61-15.63,0-2.22-.1-4.41-.29-6.59-3.04-35.5-30.51-64.02-65.51-68.69-3.32-.45-6.72-.68-10.16-.68-.55,0-1.08,0-1.62.02-3.64.07-7.23.4-10.73.98-3.97.65-7.84,1.61-11.58,2.86-22.15,7.34-39.79,24.62-47.62,46.54-1.32,3.7-2.37,7.54-3.11,11.49-.86,4.56-1.31,9.27-1.31,14.09Z"/>
        <path class="cls-10" d="M1307.79,38.76c.63,7.33,2.3,14.37,4.87,20.96,11.03,28.33,38.58,48.41,70.8,48.41.54,0,1.08,0,1.62-.02-3.04-35.5-30.51-64.02-65.51-68.69-3.32-.45-6.72-.68-10.16-.68-.55,0-1.08,0-1.62.02Z"/>
        <path class="cls-10" d="M1234.75,100.62c3.32.45,6.72.68,10.16.68,29.58,0,55.21-16.9,67.74-41.58,3.21-6.31,5.57-13.13,6.91-20.3-3.32-.45-6.72-.68-10.16-.68-.55,0-1.08,0-1.62.02-3.64.07-7.23.4-10.73.98-3.97.65-7.84,1.61-11.58,2.86-22.15,7.34-39.79,24.62-47.62,46.54-1.32,3.7-2.37,7.54-3.11,11.49Z"/>
        <circle class="cls-10" cx="1329.77" cy="121.54" r="9.36" transform="translate(-2.3 214.58) rotate(-9.22)"/>
        <circle class="cls-10" cx="1267.9" cy="121.54" r="9.36" transform="translate(-3.1 204.66) rotate(-9.22)"/>
        <path class="cls-4" d="M1292.85,134.55c1.96-5.26,2.7-10.55,2.25-16.14-.21-2.64,2.49-4.88,4.96-4.85,2.85.03,4.63,2.31,4.85,4.96.51,6.31-.39,12.7-2.6,18.63-.93,2.48-3.31,4.17-6.03,3.43-2.38-.65-4.36-3.54-3.43-6.03Z"/>
        <path class="cls-10" d="M1341.74,93.19c7.17,3.43,13.52,8.39,18.58,14.53,3.98,4.84-2.92,11.81-6.93,6.93-4.6-5.58-10.07-9.88-16.59-13-5.69-2.72-.72-11.18,4.95-8.47Z"/>
        <path class="cls-10" d="M1262.83,98.55c6.61-4.9,14.18-7.71,22.36-8.5,6.28-.61,6.92,9.18.63,9.79-6.48.63-12.2,2.93-17.43,6.8-5.08,3.77-10.62-4.33-5.56-8.08Z"/>
        <path class="cls-20" d="M1324.73,147.58h-38.54s-3.4,22.24,19.27,22.24,19.27-22.24,19.27-22.24Z"/>
        <circle class="cls-4" cx="1356.01" cy="143.85" r="15.53" transform="translate(904.46 1430.53) rotate(-76.72)"/>
        <circle class="cls-4" cx="1256.7" cy="143.85" r="15.53" transform="translate(40.61 491.87) rotate(-22.5)"/>
        <path class="cls-20" d="M1336.06,135.25h-12.76c-8.67,0-15.73-7.06-15.73-15.73v-1.13c0-8.67,7.06-15.73,15.73-15.73h12.76c8.67,0,15.73,7.06,15.73,15.73v1.13c0,8.67-7.06,15.73-15.73,15.73ZM1323.3,107.76c-5.86,0-10.63,4.77-10.63,10.63v1.13c0,5.86,4.77,10.63,10.63,10.63h12.76c5.86,0,10.63-4.77,10.63-10.63v-1.13c0-5.86-4.77-10.63-10.63-10.63h-12.76Z"/>
        <path class="cls-20" d="M1275.77,135.25h-12.76c-8.67,0-15.73-7.06-15.73-15.73v-1.13c0-8.67,7.06-15.73,15.73-15.73h12.76c8.67,0,15.73,7.06,15.73,15.73v1.13c0,8.67-7.06,15.73-15.73,15.73ZM1263.01,107.76c-5.86,0-10.63,4.77-10.63,10.63v1.13c0,5.86,4.77,10.63,10.63,10.63h12.76c5.86,0,10.63-4.77,10.63-10.63v-1.13c0-5.86-4.77-10.63-10.63-10.63h-12.76Z"/>
        <path class="cls-20" d="M1289.65,115.82l-2.37-4.52c13.54-7.09,24.67-.19,25.14.11l-2.73,4.31c-.37-.23-9.2-5.59-20.05.1Z"/>
        <path class="cls-20" d="M1250.58,112.36c-.44,0-.88-.11-1.28-.35l-15.82-9.23c-1.22-.71-1.63-2.27-.92-3.49.71-1.22,2.27-1.62,3.49-.92l15.82,9.23c1.22.71,1.63,2.27.92,3.49-.47.81-1.33,1.26-2.2,1.26Z"/>
        <path class="cls-20" d="M1351.2,114.73c-1.07,0-2.07-.68-2.42-1.75-.44-1.34.29-2.78,1.62-3.22l32.99-10.88c1.34-.44,2.78.29,3.22,1.62.44,1.34-.29,2.78-1.62,3.22l-32.99,10.88c-.27.09-.53.13-.8.13Z"/>
        <path class="cls-20" d="M1442.82,293.97s37.45,163.05-22.01,150.62c-59.46-12.43-26.91-163.11-26.91-163.11l48.92,12.49Z"/>
        <path class="cls-22" d="M1127.83,293.97c2.36-12.47-5.66-35.4-13.55-47.26-2.31-3.47-4.41-5.68-12.03-7.8-6.61-1.84-27.72-19.28-43.87-26.98-3.95-1.88-2.76-7.82,1.61-7.99,7.48-.3,16.18.28,22.25,3.61,0,0-25.15-26.48-33.17-51.92-.74-2.35,2.32-3.98,3.86-2.05,7.63,9.6,20.48,25.08,26.37,28.12,0,0-15.16-21.55-21.56-37.68-1-2.52,2.26-4.54,4.08-2.53l30.86,34.15s-13.24-22.35-17.8-36.65c-.73-2.28,2.27-3.87,3.77-2l28.35,35.34s-4.63-11.45-6.84-22.45c-.6-3,3.31-4.71,5.09-2.22,12.1,16.96,37.81,53.64,44.38,60.14,12.56,12.42,19.96,55.34,27.14,73.68,0,0-25.41,17.94-48.92,12.49Z"/>
        <path class="cls-14" d="M1153.97,426.48c7.15,5.12,15.46,8.3,25.15,8.91,45.72,2.85,63.61-49.02,70.57-93.05,5.04-31.83,4.36-59.55,4.36-59.55l-7.68-53.87c-55.77,18.09-65.61,102.55-65.61,102.55l-1.94-59.47-66.41,13.19s1.48,112.6,41.56,141.3Z"/>
        <path class="cls-1" d="M1153.97,426.48c7.15,5.12,15.46,8.3,25.15,8.91,45.72,2.85,63.61-49.02,70.57-93.05-5.91-9.44-21.82-36.44-24.57-39.86-3.07-3.83-18.36-14.22-18.36-14.22,0,0-7.52,107.54-52.79,138.22Z"/>
        <path class="cls-14" d="M1194.77,482.78h235.16s1.6-114.67,1.6-181.54c0-30.22-12.99-50.6-27.22-63.85-15.71-14.63-38.51-15.99-61.01-15.99l-73.45,1.49s-66.08,4.04-66.73,74.85c-.56,60.59-8.34,185.04-8.34,185.04Z"/>
        <path class="cls-22" d="M1442.82,293.97c-3.05-16.12,24.23-51.6,25.59-55.05,2.5-6.39,27.72-19.28,43.87-26.98,3.95-1.88,2.76-7.82-1.61-7.99-7.48-.3-16.18.28-22.25,3.61,0,0,25.15-26.48,33.17-51.92.74-2.35-2.32-3.98-3.86-2.05-7.63,9.6-20.48,25.08-26.37,28.12,0,0,15.16-21.55,21.56-37.68,1-2.52-2.26-4.54-4.08-2.53l-30.86,34.15s13.24-22.35,17.8-36.65c.73-2.28-2.27-3.87-3.77-2l-28.35,35.34s4.63-11.45,6.84-22.45c.6-3-3.31-4.71-5.09-2.22-12.1,16.96-37.81,53.64-44.38,60.14-12.56,12.42-19.96,55.34-27.14,73.68,0,0,25.41,17.94,48.92,12.49Z"/>
        <path class="cls-14" d="M1446.21,288.26s34.06,168.76-25.4,156.33c-59.46-12.43-26.91-163.11-26.91-163.11l52.32,6.78Z"/>
        <path class="cls-1" d="M1393.9,281.48s-59.18,152.49,36.07,163.79l-.32,19.92s-108.73-23.33-35.75-183.71Z"/>
      </g>
      <path class="cls-10" d="M1461.57,499.28h-296.84c-4.56,0-8.25-3.69-8.25-8.25h0c0-4.56,3.69-8.25,8.25-8.25h296.84c4.56,0,8.25,3.69,8.25,8.25h0c0,4.56-3.69,8.25-8.25,8.25Z"/>
    </g>
    <g>
      <path class="cls-19" d="M644.58,519.74l25.59-12.57c4.02-1.98,7.1,4.27,3.07,6.25l-25.59,12.57c-4.02,1.98-7.1-4.27-3.07-6.25Z"/>
      <path class="cls-19" d="M650.08,540.33l27.88,5.97c4.38.94,2.93,7.75-1.46,6.81l-27.88-5.97c-4.38-.94-2.93-7.75,1.46-6.81Z"/>
    </g>
    <g>
      <rect class="cls-21" x="838.35" y="61.06" width="42.63" height="52.99"/>
      <rect class="cls-11" x="861.98" y="61.06" width="68.28" height="52.99"/>
      <rect class="cls-20" x="868.86" y="97.58" width="14.32" height="9.49"/>
      <rect class="cls-11" x="846.2" y="61.06" width="7.07" height="13.07"/>
      <rect class="cls-21" x="911.53" y="97.58" width="7.98" height="2.23"/>
      <rect class="cls-21" x="911.53" y="100.56" width="7.98" height="2.23"/>
      <rect class="cls-21" x="911.53" y="103.55" width="7.98" height="2.23"/>
    </g>
  </g>
</svg>