<svg xmlns="http://www.w3.org/2000/svg" xmlns:xlink="http://www.w3.org/1999/xlink" viewBox="0 0 4680 3120"><defs><style>.cls-1{fill:#ffd56c;}.cls-2{fill:#e89c4f;}.cls-3{fill:#1d64cc;}.cls-4{fill:#601c11;}.cls-5{fill:#ffd28e;}.cls-6{fill:#133787;}.cls-7{fill:#085db2;}.cls-8{fill:#2289dd;}.cls-9{fill:#fcb8a5;}.cls-10{fill:#f0f5ff;}.cls-11{fill:#e54a4a;}.cls-12{fill:#ffeed7;}.cls-13{fill:#ffcd92;}.cls-14{fill:#677b99;}.cls-15{fill:#d4e8ff;}.cls-16{fill:#c9d3e2;}.cls-17{fill:#ff9c97;}.cls-18{fill:#4690e8;}.cls-19{fill:#f86748;}.cls-20{fill:#5b9fdd;}.cls-21,.cls-30{fill:#fff;}.cls-21{opacity:0;}.cls-22{fill:#a7bfd8;}.cls-23{clip-path:url(#clip-path);}.cls-24{fill:#344058;}.cls-25{clip-path:url(#clip-path-2);}.cls-26{fill:#c67d3c;}.cls-27{clip-path:url(#clip-path-3);}.cls-28{fill:#043e84;}.cls-29{clip-path:url(#clip-path-4);}.cls-31{clip-path:url(#clip-path-5);}.cls-32{fill:#afcdf9;}.cls-33{clip-path:url(#clip-path-6);}.cls-34{opacity:0.43;}.cls-35{fill:#7186a8;}.cls-36{fill:#29486d;}.cls-37{fill:#495870;}.cls-38{fill:#212c3f;}.cls-39{fill:#798daa;}.cls-40{clip-path:url(#clip-path-7);}.cls-41{opacity:0.47;}.cls-42{fill:#fc5438;}.cls-43{clip-path:url(#clip-path-8);}.cls-44{fill:#166dc4;}.cls-45{fill:#00325b;}.cls-46{clip-path:url(#clip-path-9);}.cls-47{fill:#e54438;}.cls-48{fill:#3488c6;}.cls-49{clip-path:url(#clip-path-10);}.cls-50{opacity:0.69;}.cls-51{fill:#0e547f;}.cls-52{clip-path:url(#clip-path-11);}.cls-53{fill:#1c5599;}.cls-54{fill:#cc3b23;}.cls-55{fill:#82c3ed;}.cls-56{opacity:0.8;}.cls-57{clip-path:url(#clip-path-12);}.cls-58{opacity:0.59;}.cls-59{fill:#cbdeff;}.cls-60{fill:#ffbab3;}.cls-61{clip-path:url(#clip-path-13);}.cls-62{opacity:0.51;}.cls-63{clip-path:url(#clip-path-14);}.cls-64{clip-path:url(#clip-path-15);}.cls-65{clip-path:url(#clip-path-16);}.cls-66{fill:#061f4c;}.cls-67{clip-path:url(#clip-path-17);}.cls-68{fill:#cc6202;}.cls-69{clip-path:url(#clip-path-18);}.cls-70{fill:#02458e;}.cls-71{clip-path:url(#clip-path-19);}.cls-72{clip-path:url(#clip-path-20);}.cls-73{opacity:0.6;}.cls-74{fill:#1053bf;}.cls-75{fill:#e88a74;}.cls-76{clip-path:url(#clip-path-21);}.cls-77{opacity:0.57;}.cls-78{fill:#ea937f;}.cls-79{fill:#2457b2;}.cls-80{clip-path:url(#clip-path-22);}.cls-81{clip-path:url(#clip-path-23);}.cls-82{clip-path:url(#clip-path-24);}.cls-83{fill:#eaa242;}.cls-84{clip-path:url(#clip-path-25);}.cls-85{fill:#ce2929;}.cls-86{clip-path:url(#clip-path-26);}.cls-87{fill:#ffa488;}.cls-88{fill:#ffae4d;}.cls-89{clip-path:url(#clip-path-27);}.cls-90{fill:#ff7443;}.cls-91{clip-path:url(#clip-path-28);}.cls-92{clip-path:url(#clip-path-29);}.cls-93{clip-path:url(#clip-path-30);}.cls-94{clip-path:url(#clip-path-31);}.cls-95{clip-path:url(#clip-path-32);}.cls-96{clip-path:url(#clip-path-33);}.cls-97{fill:#ffc248;}.cls-98{fill:#e85049;}.cls-99{fill:#ff8308;}.cls-100{clip-path:url(#clip-path-34);}.cls-101{fill:#2f415b;}.cls-102{opacity:0.4;}</style><clipPath id="clip-path"><path class="cls-1" d="M664.23,2653.45S485.87,2515.77,384.7,2307.16s-68.85-280.58-22.95-286.84,122,125.16,164.8,252.42S682,2615.9,682,2615.9Z"/></clipPath><clipPath id="clip-path-2"><path class="cls-2" d="M694.48,2611.73s-87.61-97-100.13-291S661.11,1989,661.11,1989s81.35,224.25,86.57,358.81-13.56,242-13.56,242Z"/></clipPath><clipPath id="clip-path-3"><path class="cls-1" d="M634.33,2692.05s-33.37,3.47-30.94-31,34.77-34.07,40.33-31.64c-8-29.9-7.65-57,17-73.71s50.76-7.65,59.1,7c-.69-22.95,14.26-41,38.94-28.51-27.46-30.95-24.33-68.15-16.34-90.4s45.9-50.07,72.32-37.55c17.39-32.34,53.89-44.5,77.88-34.07s44.16,38.59,38.94,61.54c29.91-21.91,73.71-3.83,71.28,30.24,22.25-46.93,74.4-33.37,95.61-19.81s41.38,40.68,23.65,77.18c19.12-14.6,41.72,1.74,33,27.82,31.29-42.42,78.83-25.82,91.09-17s30.25,32.85,22.16,61c20.08-5,27.12.78,31.56,7.56s5.73,16.69-1.57,27.38c30-4.69,80.06,26.08,57.63,64.15Z"/></clipPath><clipPath id="clip-path-4"><rect class="cls-10" x="802.18" y="743.59" width="880.74" height="1911.18" rx="73.02"/></clipPath><clipPath id="clip-path-5"><path class="cls-15" d="M3877.78,2648.1s-.83-232.72,105.11-447.49,185.13-234,219.33-200.59-24.68,178.87-101.32,294.43-181.26,344.3-181.26,344.3Z"/></clipPath><clipPath id="clip-path-6"><path class="cls-16" d="M942.31,2453.79c-20.66,22.87-134.57,149.9-134.57,149.9s625.15,99.17,752.72,100.31,361.88,58.67,843.38-129.84,947.09-365.66,1603.47-27.25c-154-164.58,63.28-200.43,74.5-343.1-7.38-53.94-77.36-86.25-145.86-117-158.7-65.72-419.22-148.58-805.33-98.61s-813.09,258.92-1087.91,322.51-865.33-18.17-865.33-18.17S1069.5,2313,942.31,2453.79Z"/></clipPath><clipPath id="clip-path-7"><path class="cls-17" d="M1774,1275.33l12.85-22.88,433.94-48.85a29.79,29.79,0,0,1,28.1,13l186.89,279.11a49,49,0,0,0,15.2,14.57l199.92,122a63.34,63.34,0,0,1,30,47l43.28,384.46-440.11,49.54Z"/></clipPath><clipPath id="clip-path-8"><path class="cls-18" d="M2741.68,2139.84l-301.11,33.9-10.21-90.65,301.11-33.9a45.6,45.6,0,0,1,50.43,40.22h0A45.61,45.61,0,0,1,2741.68,2139.84Z"/></clipPath><clipPath id="clip-path-9"><path class="cls-19" d="M1008.7,2238.65c1.75-.19,32.94-6.93,34.62-7.12a23.26,23.26,0,0,0,20.55-25.37h0a23.27,23.27,0,0,0-25.31-20.93l-11.88,1.1a17,17,0,0,1-18.57-15.52l-3.31-38.42a17.05,17.05,0,0,1,15.11-18.41l9-1a29.7,29.7,0,0,0,26.34-31.76h0a29.7,29.7,0,0,0-31.17-27.4l-9.75.51a30.53,30.53,0,0,1-32-27.15h0a30.55,30.55,0,0,1,27.21-33.72l22.08-2.28a21.55,21.55,0,0,0,19.26-23.12h0a21.55,21.55,0,0,0-23.18-19.78l-83.55,6.61a36,36,0,0,1-38.75-33.19h0a36,36,0,0,1,33.48-38.64l52.31-3.53a25.74,25.74,0,0,0,24-27.22h0a25.76,25.76,0,0,0-28.11-24.11l-17.6,1.66a20.76,20.76,0,0,1-22.59-18.53h0a20.76,20.76,0,0,1,18.78-22.81l62.31-5.6a16.54,16.54,0,0,0,15-17.23v-.42a17.08,17.08,0,0,0-17.94-16.35l-16.41.87a17.06,17.06,0,0,1-17.92-16.19L989.34,1705a17.06,17.06,0,0,0-17.81-16.19l-48.38,2.2a39.46,39.46,0,0,1-41-35.14h0a39.46,39.46,0,0,1,36.29-43.63l89.43-6.68a27.25,27.25,0,0,0,25.16-29h0a27.24,27.24,0,0,0-28.68-25.42L958,1553.74a31.27,31.27,0,0,1-32.88-28.57l-3.21-37.79a27.51,27.51,0,0,1,24.88-29.73h0a35.53,35.53,0,0,0,32.15-37.89l-2-27.64A31.49,31.49,0,0,0,943,1363l-41,3.26a29.21,29.21,0,0,1-31.35-26h0a29.21,29.21,0,0,1,26.5-32.23l101.69-8.88a17,17,0,0,0,15.55-17.75l-1.12-25.2A17.05,17.05,0,0,0,994.36,1240h0a39.37,39.37,0,0,1-43.52-34.71l-.6-5.3A39.37,39.37,0,0,1,985,1156.46l699.89-71.89,20,177.17,300.71-33.85a39.27,39.27,0,0,1,37.71,18.24L2245,1569.94a39.27,39.27,0,0,0,10.26,11l173.3,125.82a39.22,39.22,0,0,1,16,27.37L2483,2075.5l33.86-3.81a45.14,45.14,0,0,1,49.91,39.81l.1.91a45.14,45.14,0,0,1-39.81,49.91l-135.43,15.24C2378.05,2064.35,2285.44,1982,2184,1993.45s-173.39,112.25-161.42,225.64l-726.22,81.73-199.74,20.85-79.19,6.86A43.79,43.79,0,0,1,969,2289.91l-.15-1.35A45.14,45.14,0,0,1,1008.7,2238.65Z"/></clipPath><clipPath id="clip-path-10"><rect class="cls-20" x="1667.24" y="1039.77" width="76.65" height="1132.77" transform="translate(-168.98 200.89) rotate(-6.42)"/></clipPath><clipPath id="clip-path-11"><rect class="cls-3" x="949.7" y="2154.53" width="1673.22" height="97.66" transform="translate(-235.29 213.68) rotate(-6.42)"/></clipPath><clipPath id="clip-path-12"><polygon class="cls-4" points="1980.29 1333.29 1741.62 1360.16 1769.63 1608.99 2129.33 1568.49 1980.29 1333.29"/></clipPath><clipPath id="clip-path-13"><ellipse class="cls-5" cx="2519.45" cy="1857.98" rx="38.17" ry="61.32" transform="translate(-192.05 293.53) rotate(-6.42)"/></clipPath><clipPath id="clip-path-14"><ellipse class="cls-5" cx="2678.53" cy="1829.6" rx="35.84" ry="57.58" transform="translate(-187.87 311.15) rotate(-6.42)"/></clipPath><clipPath id="clip-path-15"><polygon class="cls-4" points="2095.31 1289.44 2258.94 1271.02 2416.42 1507.56 2240.38 1527.37 2095.31 1289.44"/></clipPath><clipPath id="clip-path-16"><path class="cls-6" d="M3131.38,720.09s20.06-35.58,21.95-74.57-46.18-81-113.56-70.4-103.71,39.36-103.71,85.17,45,114.31,66.62,118.1C3081,752.27,3131.38,720.09,3131.38,720.09Z"/></clipPath><clipPath id="clip-path-17"><path class="cls-1" d="M3297.07,2485.55s3.68,32.45,6.62,42.55,50.08,47.59,91.32,70,92.79,44,97.21,55.53,5.16,36.78-.73,41.83-50.08,5.77-99.42,5.05-201.05,1.44-212.83-5.77,2.94-105.29,12.52-123.32v-70Z"/></clipPath><clipPath id="clip-path-18"><path class="cls-7" d="M3144.82,1540.76s6,42.58,11.92,73.25,119.24,362.82,132.87,424.14,34.92,468.44,34.92,468.44-53.66,58.77-149.05,29c-26.4-154.16-43.15-342.39-55.08-470.14-91.13-145.64-256.64-471.28-256.64-471.28Z"/></clipPath><clipPath id="clip-path-19"><path class="cls-1" d="M2659.35,2525.9s-12.12,31.79-9.85,39,62.65,46.18,89.34,62.64,53.94,40.32,38,73.82c-15.33,14.19-125.48,8.52-155,2.84s-39.74-31.23-92.55-51.67-67.83-44.74-52.43-68.9c33.31-52.23,66.62-59.8,66.62-59.8l35.21-50.16Z"/></clipPath><clipPath id="clip-path-20"><path class="cls-8" d="M3044.32,1579.37s-45.43,458.78-63.6,524.65-297.53,449.7-297.53,449.7-97.66,25-122.64-97.66c86.3-140.82,184-318,240.75-392.92-15.9-159-52.24-288.45-65.87-348.63s-1.13-119.24-1.13-119.24Z"/></clipPath><clipPath id="clip-path-21"><path class="cls-9" d="M3345.3,1106.51l25.2,34.2,36-222.91,79.21,6s-25.21,266.42-41.41,318.62-33.93,59.71-41.13,67.81-32.69,17.81-55.17,1.49c-29.43-21.36-99.27-132.08-99.27-132.08Z"/></clipPath><clipPath id="clip-path-22"><polygon class="cls-10" points="3457.11 668.79 3531.32 722.19 3460.51 886.6 3385.71 833.8 3457.11 668.79"/></clipPath><clipPath id="clip-path-23"><path class="cls-9" d="M3476.4,942.4s.6.6,9.31-18.6,26.7-38.8,34.3-54.8,12.2-75.41,12.8-85.31-18-31.5-35.7-46.8-23.41-6.3-23.41,1.5,10.2,19.2,10.2,19.2-21.3-10.5-26.4-6.9-5.1,15.6,6,23.1,15.9,9.3,15.9,9.3-18-5.1-20.4-1.8-7.5,17.4,16.2,24.6c-10.8-1.2-20.4,8.11-5.7,21.31s25.51,20.7,24,27.3-11.71,38.4-17.41,43.2-19.2,41.4-19.2,41.4Z"/></clipPath><clipPath id="clip-path-24"><path class="cls-1" d="M3169.23,946.84l26.16-68.3,165.76,211.38s-28.39,114.7-115.83,119.24c-75-103.34-81.76-123.78-81.76-123.78Z"/></clipPath><clipPath id="clip-path-25"><path class="cls-11" d="M2959.87,863.82l-23.57-19S2846,856.65,2809.08,876s-31.86,133.1-31,170.54-3.9,288.88-7.72,308.84-48.38,235.9-38.61,246.71c53.1,44.51,345.15,68.43,425.85,9.37,23.79-13.31-17.76-220-14.48-249.55,5.11-46,35.3-221.41,47.7-263.46,26.12-88.58,7.13-190.84,5.43-222.45,0,0-50-10.5-74.12-14.14C3085.49,877.34,2959.87,863.82,2959.87,863.82Z"/></clipPath><clipPath id="clip-path-26"><polygon class="cls-12" points="3354.4 1174.58 3363.17 1160.79 3131.32 1160.79 2851.84 1248.57 2917.01 1279.23 3160.14 1276.09 3287.65 1209.46 3354.4 1174.58"/></clipPath><clipPath id="clip-path-27"><polygon class="cls-13" points="3363.17 1160.79 3081.81 1250.4 3081.81 1536.14 3363.8 1424.6 3363.17 1160.79"/></clipPath><clipPath id="clip-path-28"><path class="cls-9" d="M2900,1492.61l37-4.53s21-7.47,38.77-6.8,52.36,8.73,89.62,7.72,40,4.7,34.57,16.12-63.77,11.41-67.13,18.12,19.14,8.73,44,5.71,58.41-29.54,73.18-21.48-37.6,66.46-82.91,84.25c-32.89,12.08-93.27,5.38-131.24-9.07-45-17.12-65.79-38.26-65.79-38.26Z"/></clipPath><clipPath id="clip-path-29"><path class="cls-9" d="M2758.14,1189l-52.8,69.83s190.78,204.41,238.48,228.26c-3.41,22.15,8.8,62.46-67.86,62.46-155-122.65-232.8-161.26-300.93-236.21-49.4-40.88,81.76-204.41,81.76-204.41Z"/></clipPath><clipPath id="clip-path-30"><path class="cls-1" d="M2838.8,964.59c-3.48-51.25-5.74-84.32-20.47-89.77s-43.42,20.43-76,72.28-115.08,172.17-115.08,172.17,41.39,100.79,137.47,84.83c41.95-89.75,60-126.55,67.3-156.27S2840.07,983.29,2838.8,964.59Z"/></clipPath><clipPath id="clip-path-31"><path class="cls-9" d="M2989.4,738.44c.32.94-1.28,62.1-2.87,78s-26,25.22-50.23,28.34c50.34,61.48,116.51,123.94,116.51,123.94l71-105.78s-40.38-7.8-46.11-14.36-5.1-48.68-5.1-48.68l-63.1-59Z"/></clipPath><clipPath id="clip-path-32"><path class="cls-9" d="M3135,665.73s1.27,55.55,1.27,94.24-19.54,63.66-55.66,57-79.45-17.89-83.27-63.24c-26.35,3.54-35.85-34.79-33.62-48.21s32.5-27.31,39.51,4.83c4.14-27.77,1.65-33.33,15.46-41,5-2.79,28.57,4.21,37.68-20.6,20.31,10.93,42,.31,58-12.74C3126.52,636.33,3132.05,651.58,3135,665.73Z"/></clipPath><clipPath id="clip-path-33"><path class="cls-1" d="M2942.6,664.26c16-2.09,49.17-6.1,89.55-9.12,54,18.83,206.13-16.61,209.59-24.17s-3.58-13.73-42.43-10.42-38.37,1.36-38.37,1.36-11.37-111.85-121-101.07c-95.61,9.4-117.17,67.84-109.05,134.37A10.43,10.43,0,0,0,2942.6,664.26Z"/></clipPath><clipPath id="clip-path-34"><rect class="cls-14" x="500.56" y="2696.41" width="3702.07" height="63.59" rx="31.8"/></clipPath></defs><title>04</title><g id="_04" data-name="04"><rect id="_04-2" data-name="04" class="cls-21" width="4680" height="3120"/><path class="cls-10" d="M3450.46,655.92c-149.63-111.29-281.36-288.44-410.82-254.37S3011.25,679.77,3220.2,782c241.07,117.92,516.7,255.51,607.55,166.94S3600.09,767.21,3450.46,655.92Z"/><path class="cls-10" d="M4022.07,1309.1c-215.26-186.65-325.35-241.89-642.18-378.16s-472.52-246.83-789.35-417.17-1006.72-255.51-1497.3,49.4-357,585.81-435.4,836.21-289.58,437.77-298.1,795.49,233.37,519.54,233.37,519.54,3238.18,8.51,3548.2,8.51C4505.84,2211.9,4235.57,1494.2,4022.07,1309.1Z"/><path class="cls-22" d="M782.41,2724.43a5,5,0,0,1-3.69-1.62c-.16-.18-4.08-4.47-10.91-12.69a5,5,0,1,1,7.69-6.39c6.66,8,10.56,12.28,10.6,12.32a5,5,0,0,1-3.69,8.38Z"/><path class="cls-22" d="M3961.46,2711.25a5,5,0,0,1-3.4-1.34,5,5,0,0,1-.26-7.07c7.18-7.71,14.4-16.06,21.47-24.8a5,5,0,0,1,7.78,6.28c-7.21,8.92-14.59,17.45-21.92,25.33A5,5,0,0,1,3961.46,2711.25ZM751.07,2685.94a5,5,0,0,1-4-2c-6.56-8.64-13.19-17.7-19.7-26.92a5,5,0,1,1,8.17-5.77c6.44,9.13,13,18.09,19.49,26.64a5,5,0,0,1-4,8Zm3252.12-26.17a5,5,0,0,1-4.07-7.9c6.24-8.75,12.42-17.92,18.37-27.28a5,5,0,1,1,8.44,5.37c-6,9.5-12.33,18.83-18.67,27.71A5,5,0,0,1,4003.19,2659.77Zm-3290.4-28a5,5,0,0,1-4.18-2.25c-6.05-9.19-12.07-18.65-17.89-28.11a5,5,0,0,1,8.52-5.24C705,2605.52,711,2614.89,717,2624a5,5,0,0,1-4.18,7.75Zm3326-27.88a4.92,4.92,0,0,1-2.47-.66,5,5,0,0,1-1.88-6.82c5.34-9.38,10.6-19.13,15.62-29A5,5,0,1,1,4059,2572c-5.09,10-10.42,19.86-15.83,29.38A5,5,0,0,1,4038.79,2603.87ZM678,2575.26a5,5,0,0,1-4.34-2.52c-5.51-9.59-10.94-19.4-16.15-29.14a5,5,0,0,1,8.82-4.72c5.16,9.66,10.54,19.38,16,28.89a5,5,0,0,1-4.33,7.49Zm3390.9-30.41a5,5,0,0,1-4.54-7.08c4.5-9.85,8.92-20,13.11-30.23a5,5,0,0,1,9.25,3.8c-4.24,10.34-8.71,20.63-13.27,30.59A5,5,0,0,1,4068.94,2544.85Zm-3422.15-28.1a5,5,0,0,1-4.49-2.78c-4.92-9.94-9.74-20.06-14.32-30.08a5,5,0,1,1,9.09-4.16c4.54,9.93,9.32,19.95,14.19,29.8a5,5,0,0,1-4.47,7.22Zm3447.35-33.2a5,5,0,0,1-4.69-6.72c3.74-10.18,7.38-20.66,10.82-31.15a5,5,0,0,1,9.5,3.12c-3.47,10.6-7.15,21.19-10.93,31.48A5,5,0,0,1,4094.14,2483.55ZM619.22,2456.43a5,5,0,0,1-4.62-3.06c-4.29-10.24-8.46-20.64-12.39-30.94a5,5,0,0,1,9.34-3.56c3.89,10.19,8,20.49,12.27,30.63a5,5,0,0,1-2.67,6.54A4.9,4.9,0,0,1,619.22,2456.43Zm3495.6-35.85a4.88,4.88,0,0,1-1.4-.2,5,5,0,0,1-3.4-6.2c3-10.42,6-21.12,8.72-31.81a5,5,0,0,1,9.68,2.49c-2.77,10.79-5.74,21.6-8.8,32.12A5,5,0,0,1,4114.82,2420.58Zm-3519.26-26.1a5,5,0,0,1-4.73-3.37c-3.61-10.5-7.08-21.16-10.31-31.69a5,5,0,1,1,9.56-2.93c3.19,10.42,6.63,21,10.21,31.36a5,5,0,0,1-3.1,6.36A5.16,5.16,0,0,1,595.56,2394.48Zm3535.8-38.08a5.22,5.22,0,0,1-1.1-.12,5,5,0,0,1-3.78-6c2.39-10.59,4.68-21.45,6.8-32.29a5,5,0,1,1,9.81,1.92c-2.14,10.94-4.45,21.89-6.86,32.57A5,5,0,0,1,4131.36,2356.4ZM576.12,2331.09a5,5,0,0,1-4.83-3.7c-2.89-10.72-5.61-21.6-8.09-32.33a5,5,0,0,1,9.74-2.26c2.46,10.62,5.15,21.38,8,32a5,5,0,0,1-3.53,6.13A4.89,4.89,0,0,1,576.12,2331.09Zm3568-39.73a4.73,4.73,0,0,1-.83-.07,5,5,0,0,1-4.11-5.76c1.8-10.7,3.5-21.68,5-32.62a5,5,0,0,1,9.9,1.4c-1.56,11-3.27,22.09-5.08,32.88A5,5,0,0,1,4144.12,2291.36ZM561.18,2266.5a5,5,0,0,1-4.91-4.05c-2.1-10.9-4-21.95-5.71-32.84a5,5,0,1,1,9.88-1.53c1.67,10.77,3.57,21.7,5.65,32.47a5,5,0,0,1-4,5.86A5.17,5.17,0,0,1,561.18,2266.5Zm3592.25-40.76a3.77,3.77,0,0,1-.58,0,5,5,0,0,1-4.39-5.54c.55-4.71,1.08-9.49,1.58-14.2.66-6.14,1.28-12.41,1.86-18.66a5,5,0,0,1,10,.93c-.59,6.29-1.22,12.61-1.87,18.78-.51,4.76-1,9.57-1.6,14.31A5,5,0,0,1,4153.43,2225.74ZM551,2201a5,5,0,0,1-5-4.42c-1.28-11-2.36-22.18-3.21-33.19a5,5,0,0,1,10-.77c.84,10.88,1.9,21.91,3.17,32.81a5,5,0,0,1-4.39,5.54Zm3608.54-41.27h-.36a5,5,0,0,1-4.64-5.34c.77-10.86,1.43-21.95,2-33a5,5,0,0,1,10,.49c-.55,11.1-1.21,22.27-2,33.19A5,5,0,0,1,4159.58,2159.72ZM545.94,2134.91a5,5,0,0,1-5-4.81c-.4-10.55-.6-21.23-.6-31.75v-1.59a5,5,0,1,1,10,0v1.57c0,10.39.2,21,.6,31.37a5,5,0,0,1-4.81,5.18Zm3616.89-41.41h-.15a5,5,0,0,1-4.85-5.14c.31-10.93.52-22.05.62-33.05a5,5,0,1,1,10,.09c-.09,11.06-.3,22.25-.62,33.25A5,5,0,0,1,4162.83,2093.5ZM546.08,2068.63h-.21a5,5,0,0,1-4.79-5.2c.47-11.06,1.16-22.26,2.07-33.29a5,5,0,0,1,10,.82c-.9,10.89-1.59,22-2,32.89A5,5,0,0,1,546.08,2068.63Zm3617.33-41.44a5,5,0,0,1-5-4.94c-.11-11-.34-22.09-.67-33.06a5,5,0,0,1,10-.3c.33,11,.55,22.22.67,33.25a5,5,0,0,1-4.94,5ZM551.53,2002.57c-.21,0-.41,0-.62,0a5,5,0,0,1-4.35-5.57l.06-.55c1.35-10.87,2.84-21.79,4.45-32.42a5,5,0,1,1,9.88,1.49c-1.58,10.55-3.07,21.37-4.4,32.17l-.07.53A5,5,0,0,1,551.53,2002.57Zm3609.9-41.68a5,5,0,0,1-5-4.76c-.54-11-1.19-22.07-1.94-33a5,5,0,0,1,10-.68c.75,11,1.41,22.19,2,33.21a5,5,0,0,1-4.75,5.24ZM561.41,1937a4.53,4.53,0,0,1-.89-.08,5,5,0,0,1-4-5.8c2-11,4.13-22,6.39-32.75a5,5,0,0,1,9.79,2.06c-2.25,10.65-4.38,21.57-6.33,32.46A5,5,0,0,1,561.41,1937Zm3595.5-42.33a5,5,0,0,1-5-4.56c-1-11-2-22-3.2-32.92a5,5,0,0,1,9.94-1.07c1.17,11,2.26,22.1,3.22,33.12a5,5,0,0,1-4.54,5.41A3.39,3.39,0,0,1,4156.91,1894.7ZM575.12,1872.06a5.44,5.44,0,0,1-1.19-.14,5,5,0,0,1-3.67-6c2.64-10.83,5.47-21.68,8.42-32.25a5,5,0,1,1,9.63,2.68c-2.92,10.47-5.72,21.22-8.34,31.93A5,5,0,0,1,575.12,1872.06Zm3574.74-43.32a5,5,0,0,1-5-4.37c-1.38-10.93-2.89-21.95-4.48-32.76a5,5,0,1,1,9.89-1.46c1.6,10.88,3.12,22,4.51,33a5,5,0,0,1-4.33,5.59A4.44,4.44,0,0,1,4149.86,1828.74ZM592.94,1808.2a5,5,0,0,1-1.51-.23,5,5,0,0,1-3.26-6.27c3.35-10.59,6.91-21.21,10.58-31.56a5,5,0,0,1,9.43,3.35c-3.64,10.24-7.16,20.74-10.47,31.22A5,5,0,0,1,592.94,1808.2Zm3547.26-45.08a5,5,0,0,1-4.92-4.18c-1.82-10.86-3.78-21.81-5.8-32.55a5,5,0,1,1,9.82-1.85c2,10.8,4,21.82,5.84,32.75a5,5,0,0,1-4.1,5.76A4.76,4.76,0,0,1,4140.2,1763.12ZM615.09,1745.85a5,5,0,0,1-4.64-6.84c4.08-10.29,8.39-20.6,12.82-30.65a5,5,0,0,1,9.15,4c-4.38,9.94-8.64,20.13-12.68,30.31A5,5,0,0,1,615.09,1745.85Zm3512.8-47.91a5,5,0,0,1-4.89-4c-2.27-10.77-4.68-21.63-7.16-32.27a5,5,0,0,1,9.73-2.27c2.5,10.71,4.93,21.64,7.21,32.48a5,5,0,0,1-3.86,5.93A5.14,5.14,0,0,1,4127.89,1697.94ZM641.76,1685.31a5,5,0,0,1-4.5-7.19c4.85-9.95,9.94-19.94,15.15-29.67a5,5,0,0,1,8.82,4.71c-5.15,9.62-10.19,19.49-15,29.34A5,5,0,0,1,641.76,1685.31Zm3471.05-52a5,5,0,0,1-4.84-3.76c-2.74-10.67-5.62-21.41-8.58-31.92a5,5,0,0,1,9.63-2.7c3,10.58,5.88,21.39,8.64,32.13a5,5,0,0,1-3.6,6.09A4.93,4.93,0,0,1,4112.81,1633.36ZM673,1626.9a5,5,0,0,1-4.31-7.52c5.59-9.54,11.44-19.1,17.39-28.42a5,5,0,1,1,8.43,5.38c-5.89,9.21-11.67,18.66-17.19,28.09A5,5,0,0,1,673,1626.9Zm35.65-55.82a5,5,0,0,1-4.1-7.85c6.29-9.06,12.86-18.15,19.52-27a5,5,0,1,1,8,6c-6.58,8.75-13.08,17.73-19.29,26.69A5,5,0,0,1,708.64,1571.08Zm3386.23-1.57a5,5,0,0,1-4.78-3.53c-3.23-10.54-6.61-21.13-10.05-31.48a5,5,0,1,1,9.49-3.15c3.47,10.42,6.87,21.09,10.12,31.7a5,5,0,0,1-3.32,6.24A4.93,4.93,0,0,1,4094.87,1569.51ZM748.45,1518.14a4.94,4.94,0,0,1-3.15-1.12,5,5,0,0,1-.73-7c6.94-8.54,14.17-17.11,21.48-25.46a5,5,0,0,1,7.52,6.58c-7.23,8.27-14.37,16.74-21.23,25.18A5,5,0,0,1,748.45,1518.14Zm3325.49-11.55a5,5,0,0,1-4.7-3.31c-3.73-10.36-7.63-20.76-11.58-30.93a5,5,0,1,1,9.32-3.63c4,10.25,7.91,20.74,11.67,31.17a5,5,0,0,1-3,6.4A5.08,5.08,0,0,1,4073.94,1506.59Zm-3281.87-38.3a5,5,0,0,1-3.65-8.43c7.53-8,15.34-16,23.23-23.86a5,5,0,1,1,7,7.1c-7.8,7.75-15.53,15.69-23,23.61A5,5,0,0,1,792.07,1468.29Zm3257.84-23.5a5,5,0,0,1-4.61-3.07c-4.25-10.15-8.68-20.33-13.17-30.28a5,5,0,0,1,9.12-4.11c4.52,10,9,20.3,13.27,30.53a5,5,0,0,1-2.68,6.54A4.86,4.86,0,0,1,4049.91,1444.79ZM839.07,1421.61a5,5,0,0,1-3.4-8.66c8-7.46,16.37-15,24.76-22.25a5,5,0,1,1,6.56,7.54c-8.31,7.23-16.56,14.65-24.52,22A5,5,0,0,1,839.07,1421.61Zm3183.54-37.36a5,5,0,0,1-4.5-2.82c-4.82-9.94-9.81-19.89-14.86-29.59a5,5,0,1,1,8.88-4.62c5.08,9.79,10.12,19.83,15,29.85a5,5,0,0,1-4.5,7.18ZM889,1378.11a5,5,0,0,1-3.17-8.87c8.49-6.94,17.26-13.89,26.07-20.67a5,5,0,1,1,6.1,7.93c-8.74,6.72-17.43,13.61-25.84,20.49A5,5,0,0,1,889,1378.11Zm52.5-40.4a5,5,0,0,1-2.94-9c8.87-6.43,18-12.88,27.2-19.16a5,5,0,1,1,5.64,8.25c-9.09,6.23-18.17,12.63-27,19A5,5,0,0,1,941.54,1337.71Zm3050.39-12.46a5,5,0,0,1-4.37-2.56c-5.38-9.65-10.95-19.29-16.55-28.68a5,5,0,0,1,8.58-5.13c5.66,9.47,11.28,19.21,16.7,28.94a5,5,0,0,1-4.36,7.43Zm-2995.73-25a5,5,0,0,1-2.72-9.19c9.18-6,18.64-11.91,28.13-17.73a5,5,0,1,1,5.23,8.52c-9.42,5.78-18.81,11.7-27.92,17.6A5,5,0,0,1,996.2,1300.26Zm2961.67-32a5,5,0,0,1-4.22-2.31c-5.92-9.26-12.05-18.52-18.2-27.51a5,5,0,0,1,8.25-5.65c6.21,9.08,12.4,18.42,18.38,27.77a5,5,0,0,1-4.21,7.7Zm-2905.19-2.65a5,5,0,0,1-2.52-9.33c9.45-5.5,19.18-11,28.92-16.39a5,5,0,0,1,4.84,8.75c-9.68,5.35-19.34,10.83-28.73,16.29A5,5,0,0,1,1052.68,1265.61Zm58-32.06a5,5,0,0,1-2.33-9.43c9.69-5.08,19.64-10.18,29.58-15.15a5,5,0,1,1,4.48,8.94c-9.89,4.94-19.78,10-29.41,15.07A4.94,4.94,0,0,1,1110.67,1233.55Zm2809.74-20a5,5,0,0,1-4-2c-6.49-8.85-13.2-17.7-19.93-26.28a5,5,0,0,1,7.87-6.17c6.8,8.67,13.57,17.6,20.12,26.54a5,5,0,0,1-4,8Zm-2750.47-9.66a5,5,0,0,1-2.15-9.52c9.89-4.71,20-9.42,30.13-14a5,5,0,0,1,4.13,9.11c-10,4.56-20.13,9.25-30,13.94A5,5,0,0,1,1169.94,1203.91Zm60.34-27.43a5,5,0,0,1-2-9.59c10-4.35,20.34-8.71,30.59-13a5,5,0,0,1,3.83,9.24c-10.21,4.23-20.44,8.57-30.44,12.9A5,5,0,0,1,1230.28,1176.48Zm2649.23-15a5,5,0,0,1-3.83-1.78c-7-8.4-14.33-16.77-21.62-24.89a5,5,0,0,1,7.43-6.69c7.38,8.2,14.72,16.67,21.84,25.15a5,5,0,0,1-3.82,8.21Zm-2588-10.32a5,5,0,0,1-1.84-9.65c10.16-4,20.58-8.07,31-12a5,5,0,1,1,3.55,9.35c-10.35,3.92-20.72,7.94-30.84,11.94A5,5,0,0,1,1291.5,1151.11Zm62-23.5a5,5,0,0,1-1.71-9.7c10.27-3.73,20.8-7.47,31.3-11.11a5,5,0,0,1,3.28,9.44c-10.45,3.64-20.94,7.36-31.17,11.07A5.08,5.08,0,0,1,1353.48,1127.61Zm2481.73-15.46a5,5,0,0,1-3.6-1.53c-7.6-7.89-15.43-15.75-23.27-23.35a5,5,0,0,1,7-7.18c7.93,7.68,15.84,15.62,23.51,23.59a5,5,0,0,1-.13,7.07A5,5,0,0,1,3835.21,1112.15Zm-2419.13-6.31a5,5,0,0,1-1.58-9.74c10.37-3.46,21-6.92,31.57-10.3a5,5,0,0,1,3,9.53c-10.54,3.36-21.12,6.82-31.45,10.26A5.06,5.06,0,0,1,1416.08,1105.84Zm63.14-20.17a5,5,0,0,1-1.46-9.78c10.47-3.21,21.17-6.43,31.79-9.55a5,5,0,1,1,2.83,9.59c-10.59,3.12-21.26,6.32-31.69,9.52A5,5,0,0,1,1479.22,1085.67Zm63.59-18.71a5,5,0,0,1-1.35-9.82c10.52-3,21.28-6,32-8.85a5,5,0,1,1,2.62,9.65c-10.68,2.89-21.41,5.86-31.9,8.83A4.91,4.91,0,0,1,1542.81,1067Zm2244.82-.93a5,5,0,0,1-3.35-1.29c-8.12-7.34-16.47-14.63-24.83-21.67a5,5,0,0,1,6.45-7.65c8.44,7.12,16.89,14.48,25.09,21.9a5,5,0,0,1-3.36,8.71ZM1606.8,1049.6a5,5,0,0,1-1.26-9.84q5.63-1.47,11.3-2.93,10.46-2.68,20.79-5.38a5,5,0,0,1,2.52,9.68q-10.35,2.7-20.83,5.39l-11.26,2.91A5,5,0,0,1,1606.8,1049.6Zm64.14-16.73a5,5,0,0,1-1.28-9.84c10.53-2.79,21.29-5.68,32-8.57a5,5,0,1,1,2.61,9.65c-10.71,2.9-21.49,5.79-32,8.59A5.19,5.19,0,0,1,1670.94,1032.87Zm2066-9.53a5.05,5.05,0,0,1-3.09-1.06c-8.59-6.75-17.43-13.44-26.28-19.89a5,5,0,0,1,5.9-8.08c8.93,6.52,17.87,13.28,26.55,20.1a5,5,0,0,1-3.08,8.93Zm-2002-7.78a5,5,0,0,1-1.33-9.82c10.53-2.9,21.27-5.88,31.92-8.86a5,5,0,0,1,2.69,9.63c-10.66,3-21.41,6-32,8.87A4.73,4.73,0,0,1,1734.93,1015.56Zm63.83-17.87a5,5,0,0,1-1.37-9.81q16.08-4.57,31.84-9.13a5,5,0,1,1,2.77,9.61q-15.78,4.56-31.87,9.14A5,5,0,0,1,1798.76,997.69ZM3683.44,984.3a5,5,0,0,1-2.8-.86c-9-6.13-18.32-12.18-27.6-18a5,5,0,1,1,5.33-8.47c9.37,5.89,18.75,12,27.88,18.2a5,5,0,0,1-2.81,9.14Zm-1821-5a5,5,0,0,1-1.4-9.8q16-4.71,31.77-9.37a5,5,0,0,1,2.85,9.59q-15.75,4.66-31.81,9.37A4.92,4.92,0,0,1,1862.43,979.3ZM1926,960.45a5,5,0,0,1-1.43-9.79q16-4.8,31.71-9.56a5,5,0,1,1,2.9,9.57q-15.72,4.76-31.74,9.57A5.12,5.12,0,0,1,1926,960.45Zm1701.37-11.4a5,5,0,0,1-2.51-.68c-9.43-5.49-19.11-10.9-28.76-16.09a5,5,0,1,1,4.73-8.81c9.76,5.24,19.53,10.71,29.06,16.26a5,5,0,0,1-2.52,9.32Zm-1637.93-7.81a5,5,0,0,1-1.46-9.78q16-4.87,31.68-9.7a5,5,0,1,1,2.93,9.56q-15.69,4.83-31.69,9.71A5.31,5.31,0,0,1,1989.42,941.24Zm63.36-19.44a5,5,0,0,1-1.47-9.78l31.67-9.76a5,5,0,1,1,2.94,9.56l-31.67,9.76A5,5,0,0,1,2052.78,921.8ZM3569,917.68a4.93,4.93,0,0,1-2.22-.53C3557,912.31,3547,907.55,3537,903a5,5,0,0,1,4.15-9.1c10.08,4.59,20.2,9.4,30.06,14.3a5,5,0,0,1-2.22,9.48Zm-1452.89-15.4a5,5,0,0,1-1.47-9.78l31.68-9.74a5,5,0,0,1,2.93,9.57q-15.71,4.8-31.67,9.73A5,5,0,0,1,2116.12,902.28Zm1392.62-12.09a5.08,5.08,0,0,1-1.93-.39c-10-4.2-20.35-8.32-30.61-12.25a5,5,0,1,1,3.57-9.34c10.36,4,20.76,8.12,30.9,12.36a5,5,0,0,1-1.93,9.62Zm-1329.26-7.32a5,5,0,0,1-1.45-9.79q16-4.86,31.74-9.59a5,5,0,0,1,2.87,9.58q-15.72,4.73-31.7,9.58A4.88,4.88,0,0,1,2179.48,882.87Zm1267.38-16.35a5,5,0,0,1-1.64-.28c-10.28-3.57-20.81-7.07-31.3-10.38a5,5,0,1,1,3-9.54c10.58,3.35,21.21,6.87,31.58,10.48a5,5,0,0,1-1.65,9.72ZM2243,863.81a5,5,0,0,1-1.42-9.8c10.92-3.23,21.63-6.36,31.83-9.32a5,5,0,0,1,2.78,9.61c-10.18,3-20.87,6.08-31.77,9.3A5,5,0,0,1,2243,863.81Zm1140.73-17.23a5,5,0,0,1-1.37-.2c-6-1.71-12.19-3.42-18.32-5q-6.81-1.83-13.57-3.6a5,5,0,1,1,2.55-9.67q6.76,1.79,13.61,3.61c6.17,1.65,12.39,3.36,18.47,5.1a5,5,0,0,1-1.37,9.81Zm-1077.08-1.2a5,5,0,0,1-1.35-9.81c10.88-3.07,21.63-6.06,32-8.89a5,5,0,0,1,2.64,9.65c-10.3,2.82-21,5.8-31.89,8.86A4.91,4.91,0,0,1,2306.61,845.38Zm1013-15.74a4.72,4.72,0,0,1-1.23-.16c-10.77-2.71-21.58-5.36-32.14-7.89a5,5,0,0,1,2.34-9.73c10.59,2.54,21.43,5.21,32.24,7.93a5,5,0,0,1-1.21,9.85Zm-949.07-1.72a5,5,0,0,1-1.27-9.84c10.85-2.86,21.67-5.64,32.14-8.28a5,5,0,0,1,2.44,9.7c-10.44,2.63-21.22,5.4-32,8.25A5,5,0,0,1,2370.54,827.92Zm884.59-13.73a4.8,4.8,0,0,1-1.11-.13c-10.81-2.45-21.68-4.85-32.31-7.13a5,5,0,0,1,2.1-9.78c10.67,2.29,21.58,4.7,32.43,7.16a5,5,0,0,1-1.11,9.88Zm-820.33-2.42a5,5,0,0,1-1.15-9.86c10.88-2.6,21.76-5.11,32.34-7.48a5,5,0,1,1,2.19,9.76c-10.54,2.36-21.38,4.86-32.22,7.44A4.55,4.55,0,0,1,2434.8,811.77Zm755.51-11.45a4.75,4.75,0,0,1-1-.1c-10.87-2.18-21.8-4.28-32.48-6.27a5,5,0,0,1,1.83-9.83c10.72,2,21.7,4.11,32.61,6.29a5,5,0,0,1-1,9.91Zm-690.76-3a5,5,0,0,1-1-9.9c10.95-2.27,21.92-4.45,32.62-6.49a5,5,0,1,1,1.87,9.83c-10.64,2-21.57,4.19-32.46,6.45A4.49,4.49,0,0,1,2499.55,797.31Zm625.57-9.08a4.84,4.84,0,0,1-.84-.07c-10.93-1.86-21.91-3.64-32.64-5.3a5,5,0,0,1,1.52-9.88c10.78,1.66,21.82,3.45,32.8,5.32a5,5,0,0,1-.84,9.93Zm-560.42-3.3a5,5,0,0,1-.84-9.92c10.95-1.88,22-3.67,32.77-5.31a5,5,0,1,1,1.51,9.89c-10.74,1.63-21.7,3.4-32.59,5.27A5,5,0,0,1,2564.7,784.93Zm494.9-6.79a4,4,0,0,1-.68,0c-11-1.5-22-2.92-32.79-4.21a5,5,0,1,1,1.18-9.93c10.86,1.3,22,2.73,33,4.24a5,5,0,0,1-.68,9.95ZM2630.12,775a5,5,0,0,1-.65-10c11-1.45,22.1-2.79,33-4a5,5,0,0,1,1.1,9.94c-10.82,1.2-21.85,2.53-32.78,4A5.14,5.14,0,0,1,2630.12,775Zm363.66-4.72-.51,0c-11-1.11-22.06-2.12-32.92-3a5,5,0,0,1,.82-10c10.92.9,22.06,1.92,33.1,3a5,5,0,0,1-.49,10ZM2696,767.72a5,5,0,0,1-.43-10c11-1,22.16-1.84,33.13-2.58a5,5,0,0,1,.67,10c-10.9.73-22,1.59-32.92,2.56A3.39,3.39,0,0,1,2696,767.72Zm231.75-2.85h-.32c-11-.69-22.12-1.26-33-1.72a5,5,0,1,1,.42-10c11,.46,22.12,1,33.2,1.73a5,5,0,0,1-.3,10Zm-165.64-1.57a5,5,0,0,1-.23-10c11-.5,22.2-.88,33.22-1.13a5,5,0,1,1,.23,10c-10.95.25-22.05.62-33,1.12Zm99.4-1.18h-.11c-10.53-.22-21.17-.33-31.62-.33h-1.42a5,5,0,0,1,0-10h1.43c10.52,0,21.23.11,31.83.33a5,5,0,0,1-.1,10Z"/><path class="cls-22" d="M3924.2,2745.8a5,5,0,0,1-2.89-9.09s4.61-3.27,12.32-10.1a5,5,0,1,1,6.63,7.48,169.53,169.53,0,0,1-13.19,10.8A4.93,4.93,0,0,1,3924.2,2745.8Z"/><path class="cls-1" d="M664.23,2653.45S485.87,2515.77,384.7,2307.16s-68.85-280.58-22.95-286.84,122,125.16,164.8,252.42S682,2615.9,682,2615.9Z"/><g class="cls-23"><path class="cls-24" d="M673,2632.76c-2.14-2.31-4.22-4.69-6.33-7l-12.66-14c-4.18-4.71-8.23-9.54-12.35-14.3-8.34-9.42-16.2-19.27-24.25-28.94-2-2.4-3.91-4.93-5.89-7.38l-5.86-7.38c-3.92-4.93-7.86-9.83-11.61-14.88l-11.39-15c-3.76-5-7.44-10.14-11.16-15.2L565.9,2501l-5.42-7.72-10.8-15.46q-21.31-31.12-41.17-63.21t-38.11-65.1c-12.32-21.94-23.86-44.3-35.17-66.78-2.86-5.61-5.54-11.3-8.32-16.95-1.4-2.82-2.74-5.66-4.08-8.51l-4.07-8.52c-2.7-5.68-5.31-11.41-8-17.12s-5.19-11.47-7.74-17.24c-10.21-23-20-46.27-28.78-69.92,6.94,24.29,15.61,48,24.73,71.62s19.23,46.76,29.93,69.67c2.7,5.72,5.33,11.47,8.11,17.15s5.56,11.36,8.4,17l8.63,16.89,8.88,16.77c12,22.26,24.75,44.14,37.91,65.76,6.77,10.69,13.45,21.43,20.5,31.94,6.89,10.62,14.13,21,21.32,31.41L553.81,2498l5.59,7.68,5.73,7.56c3.84,5,7.61,10.11,11.5,15.1l11.88,14.8c3.91,5,8,9.79,12.08,14.63s8.08,9.73,12.28,14.45l12.63,14.16c4.16,4.76,8.51,9.35,12.85,13.94s8.66,9.21,13.08,13.73l13.41,13.38c2.26,2.22,4.47,4.47,6.75,6.65l6.92,6.48,13.89,12.86-12.93-13.82Z"/></g><path class="cls-2" d="M694.48,2611.73s-87.61-97-100.13-291S661.11,1989,661.11,1989s81.35,224.25,86.57,358.81-13.56,242-13.56,242Z"/><g class="cls-25"><path class="cls-26" d="M578.56,2163.86l10.73,365.62,79.66,69.7,69.95,32.43s24.51-86.81,88.86-198.13C620.44,2426.33,578.56,2163.86,578.56,2163.86Z"/><path class="cls-24" d="M723.5,2605.14l-1.9-3.8-1-1.9-.89-1.92-3.59-7.7c-1.24-2.55-2.33-5.16-3.43-7.77l-3.32-7.81c-1.15-2.58-2.09-5.26-3.14-7.88l-3.09-7.9c-1.07-2.62-1.95-5.31-2.89-8l-2.79-8c-1.93-5.31-3.51-10.75-5.22-16.13l-2.54-8.09c-.84-2.69-1.5-5.45-2.27-8.16-6.25-21.73-10.84-43.88-15-66.07-.83-5.59-1.75-11.16-2.63-16.74s-1.88-11.14-2.43-16.77l-2-16.83c-.32-2.8-.68-5.6-1-8.42l-.76-8.47c-1.07-11.29-2.2-22.57-3-33.88l-1.35-17-1.13-17c-.87-11.31-1.4-22.64-2.07-34-.33-5.66-.49-11.33-.78-17s-.58-11.33-.75-17l-.6-17-.43-17c-.2-5.67-.23-11.35-.34-17s-.14-11.35-.18-17c-.21-22.71,0-45.42.76-68.15-2.78,22.59-4.14,45.33-5.16,68.08-.86,22.75-1.34,45.53-1,68.3.14,22.78.94,45.55,2.11,68.31l.95,17.06,1.25,17c.76,11.36,1.82,22.71,2.83,34.05l.8,8.51c.31,2.84.69,5.67,1,8.51l2.11,17c.6,5.69,1.66,11.31,2.57,17s1.84,11.28,2.83,16.91l3.58,16.78,1.79,8.39c.59,2.8,1.38,5.55,2.07,8.33l4.26,16.61c1.59,5.49,3.31,10.95,5,16.42.86,2.73,1.62,5.48,2.55,8.19l2.81,8.1c1.91,5.39,3.65,10.83,5.86,16.11l3.16,8c1.07,2.65,2.07,5.32,3.27,7.92l3.45,7.84,1.73,3.92.86,2,.94,1.93c5,10.28,10.1,20.49,15.94,30.3a229.93,229.93,0,0,0,19.07,28.35c-3.21-4.7-6.09-9.6-8.9-14.52S726,2610.24,723.5,2605.14Z"/></g><path class="cls-1" d="M634.33,2692.05s-33.37,3.47-30.94-31,34.77-34.07,40.33-31.64c-8-29.9-7.65-57,17-73.71s50.76-7.65,59.1,7c-.69-22.95,14.26-41,38.94-28.51-27.46-30.95-24.33-68.15-16.34-90.4s45.9-50.07,72.32-37.55c17.39-32.34,53.89-44.5,77.88-34.07s44.16,38.59,38.94,61.54c29.91-21.91,73.71-3.83,71.28,30.24,22.25-46.93,74.4-33.37,95.61-19.81s41.38,40.68,23.65,77.18c19.12-14.6,41.72,1.74,33,27.82,31.29-42.42,78.83-25.82,91.09-17s30.25,32.85,22.16,61c20.08-5,27.12.78,31.56,7.56s5.73,16.69-1.57,27.38c30-4.69,80.06,26.08,57.63,64.15Z"/><g class="cls-27"><path class="cls-26" d="M1071.07,2590.75c-10-55.14-68.93-65.1-120.25-35.23-65.11-57.45-144.77-23-197.62,27.58-30.64-19.92-73.53-1.54-72,46.72-52.08,32.93-12.25,95.74-12.25,95.74s394.46,11.49,520.08-15.32C1215.84,2655.1,1153.8,2591.52,1071.07,2590.75Z"/></g><rect class="cls-28" x="707.24" y="704.39" width="961.61" height="1989.27" rx="106.03"/><rect class="cls-3" x="761.75" y="704.39" width="961.61" height="1989.27" rx="106.03"/><rect class="cls-10" x="802.18" y="743.59" width="880.74" height="1911.18" rx="73.02"/><g class="cls-29"><polygon class="cls-30" points="703.33 2277.01 703.33 2633.94 1308.18 656.97 1150.02 667.65 703.33 2277.01"/><polygon class="cls-30" points="835.84 2708.74 1023.92 2672.41 1628.77 695.44 1470.61 706.12 835.84 2708.74"/><path class="cls-28" d="M843.05,682.35c-2.4-.8-45.15,59.57-45.15,59.57H1582a68.66,68.66,0,0,1,68.66,68.66V2678.29h66.26V652.16S845.46,683.15,843.05,682.35Z"/></g><path class="cls-15" d="M3877.78,2648.1s-.83-232.72,105.11-447.49,185.13-234,219.33-200.59-24.68,178.87-101.32,294.43-181.26,344.3-181.26,344.3Z"/><g class="cls-31"><path class="cls-24" d="M4086.9,2121.25c-1.79,2.73-3.53,5.49-5.27,8.25s-3.46,5.53-5.17,8.31c-3.44,5.54-6.8,11.13-10.16,16.73q-20,33.67-37.79,68.6c-2.94,5.83-6,11.62-8.83,17.49s-5.73,11.73-8.54,17.63l-8.29,17.75-8,17.87c-10.51,23.93-20.29,48.17-29.57,72.6-4.42,12.3-8.94,24.56-13,37-4.3,12.35-8.17,24.83-12.09,37.29l-5.49,18.82-2.72,9.42-2.53,9.47c-1.67,6.32-3.42,12.61-5,18.94l-4.55,19.07c-1.58,6.34-2.91,12.74-4.27,19.12s-2.82,12.76-4,19.18L3908,2574c-1.25,6.4-2.23,12.86-3.24,19.31s-2,12.9-2.9,19.36l-2.43,19.43c-.38,3.24-.82,6.47-1.14,9.71l-.91,9.74-1.71,19.49,3.06-19.31,1.47-9.66c.51-3.21,1.14-6.41,1.7-9.62l3.4-19.22c1.18-6.39,2.55-12.76,3.81-19.14,2.39-12.78,5.42-25.43,8.2-38.13.67-3.18,1.54-6.31,2.28-9.48l2.3-9.47c1.53-6.31,3-12.64,4.76-18.9l5-18.82c1.72-6.27,3.55-12.5,5.31-18.75l2.67-9.37,2.86-9.31,5.75-18.62q11.87-37.11,25.43-73.65t28.93-72.35c10.08-24,21-47.55,32.17-71,2.77-5.88,5.71-11.68,8.55-17.53,1.42-2.92,2.89-5.82,4.36-8.72l4.38-8.71c2.92-5.81,5.94-11.57,8.91-17.36s6.07-11.5,9.16-17.22c12.31-22.93,25.1-45.61,38.82-67.78-3.85,5.26-7.59,10.61-11.27,16S4090.44,2115.78,4086.9,2121.25Z"/></g><path class="cls-32" d="M3969.08,2647.61c6.66-24.91,6.37-47.49-14.19-61.39s-42.27-6.37-49.22,5.79c.58-19.11-11.87-34.17-32.43-23.74,22.87-25.77,20.27-56.76,13.61-75.29s-38.22-41.7-60.23-31.27c-14.48-26.93-44.88-37.06-64.86-28.38s-36.78,32.14-32.43,51.25c-24.9-18.24-61.39-3.18-59.36,25.2-18.53-39.1-62-27.8-79.63-16.51s-34.46,33.88-19.69,64.28c-15.93-12.16-34.75,1.45-27.51,23.17-26.06-35.33-65.66-21.5-75.86-14.12s-25.19,27.36-18.46,50.82c-16.72-4.13-22.59.65-26.28,6.3s-4.78,13.9,1.3,22.8c-25-3.91-66.67,21.72-48,53.42l601.05-.21s27.8,2.89,25.77-25.78S3973.71,2645.58,3969.08,2647.61Z"/><path class="cls-16" d="M942.31,2453.79c-20.66,22.87-134.57,149.9-134.57,149.9s625.15,99.17,752.72,100.31,361.88,58.67,843.38-129.84,947.09-365.66,1603.47-27.25c-154-164.58,63.28-200.43,74.5-343.1-7.38-53.94-77.36-86.25-145.86-117-158.7-65.72-419.22-148.58-805.33-98.61s-813.09,258.92-1087.91,322.51-865.33-18.17-865.33-18.17S1069.5,2313,942.31,2453.79Z"/><g class="cls-33"><path class="cls-30" d="M1850.23,2499.78,1182.49,2464S1552.13,2511.7,1850.23,2499.78Z"/><path class="cls-30" d="M1831.47,2462.62c-252.12,8.06-553-25.22-627.08-34a17.35,17.35,0,0,0-19.27,15l-5.23,40.54a17.37,17.37,0,0,0,15.18,19.47c67.37,8,318.57,35.84,555,35.84,28.39,0,56.58-.4,84.21-1.29a17.36,17.36,0,0,0,16.79-18.06l-1.63-40.83A17.38,17.38,0,0,0,1831.47,2462.62Z"/><path class="cls-30" d="M2175.58,2441.86l718.84-228.25s-216.34,37.47-354.31,88.57S2175.58,2441.86,2175.58,2441.86Z"/><path class="cls-30" d="M2907.11,2198.13a17.37,17.37,0,0,0-20.27-14.12c-54.7,10.09-225.34,43.43-343.7,87.26-115.4,42.74-294.55,112.39-349,133.6a17.37,17.37,0,0,0-9.86,22.51l14.88,38.07a17.37,17.37,0,0,0,22.49,9.86c54.27-21.16,232.87-90.59,347.72-133.13,111.15-41.17,277.68-73.85,330.76-83.72a17.37,17.37,0,0,0,13.94-20Z"/><path class="cls-30" d="M4003.09,2291.32c-89.56-60.39-188.43-107.56-294.15-140.32-88.94-27.56-182.89-45-279.23-51.9-128.69-9.19-226.4,2.89-265,9a17.35,17.35,0,0,0-14.27,20.65l8.24,40.12a17.37,17.37,0,0,0,19.65,13.67c36-5.53,128.59-16.68,248.51-7.87,138.07,10.15,341.27,49.61,533.41,178.93a17.36,17.36,0,0,0,23.92-4.47l23.4-33.52A17.36,17.36,0,0,0,4003.09,2291.32Z"/><g class="cls-34"><path class="cls-35" d="M1088,2204.35,857.21,2482.19s164.57,42.75,613.4,100.45,756.59-51.29,914.75-115.41,408.22-286.39,384.71-371.88S1088,2204.35,1088,2204.35Z"/></g><g class="cls-34"><path class="cls-36" d="M3047.91,2341.67c-403.94,54.5-626.75,198.76-961.77,294.94s-663.62,41.68-908.87,1.6-392.72-67.32-392.72-67.32-41.68,44.88-49.69,52.9,158.69,86.56,185.94,129.84,367.07,41.67,386.31,51.29S2309,2684.7,2309,2684.7s1606.16-99.38,1657.45-83.36,67.33-6.41,73.74-91.36C3714.74,2380.14,3451.85,2287.17,3047.91,2341.67Z"/></g></g><rect class="cls-20" x="1680.32" y="1063.6" width="426.99" height="1094.72" transform="translate(-168.34 221.98) rotate(-6.42)"/><ellipse class="cls-24" cx="2423.76" cy="2128.07" rx="170.34" ry="200.15" transform="translate(-222.86 284.52) rotate(-6.42)"/><ellipse class="cls-37" cx="2382.01" cy="2132.77" rx="170.34" ry="200.15" transform="translate(-223.66 279.89) rotate(-6.42)"/><ellipse class="cls-38" cx="2382.01" cy="2132.77" rx="69.84" ry="82.06" transform="translate(-223.66 279.89) rotate(-6.42)"/><ellipse class="cls-39" cx="2382.01" cy="2132.77" rx="44.86" ry="52.71" transform="translate(-223.65 279.87) rotate(-6.42)"/><path class="cls-17" d="M1774,1275.33l12.85-22.88,433.94-48.85a29.79,29.79,0,0,1,28.1,13l186.89,279.11a49,49,0,0,0,15.2,14.57l199.92,122a63.34,63.34,0,0,1,30,47l43.28,384.46-440.11,49.54Z"/><g class="cls-40"><g class="cls-41"><polygon class="cls-42" points="2444.53 1734.13 2390.7 1777.43 2435.59 2043.52 2467.64 2126.87 2749.76 2078.78 2703.28 1711.71 2444.53 1734.13"/></g></g><path class="cls-18" d="M2741.68,2139.84l-301.11,33.9-10.21-90.65,301.11-33.9a45.6,45.6,0,0,1,50.43,40.22h0A45.61,45.61,0,0,1,2741.68,2139.84Z"/><g class="cls-43"><polygon class="cls-44" points="2521.08 2127.41 2505.05 2179.77 2783.96 2161.6 2803.2 2128.47 2833.12 2071.84 2567.03 2108.17 2521.08 2127.41"/></g><rect class="cls-45" x="1146.74" y="1938.78" width="1327.25" height="305.14" transform="translate(-222.61 215.66) rotate(-6.42)"/><ellipse class="cls-24" cx="2249.89" cy="2202.88" rx="170.34" ry="200.15" transform="translate(-232.32 265.53) rotate(-6.42)"/><ellipse class="cls-37" cx="2208.14" cy="2207.58" rx="170.34" ry="200.15" transform="translate(-233.11 260.89) rotate(-6.42)"/><ellipse class="cls-38" cx="2208.14" cy="2207.58" rx="69.84" ry="82.06" transform="translate(-233.12 260.91) rotate(-6.42)"/><ellipse class="cls-39" cx="2208.14" cy="2207.58" rx="44.86" ry="52.71" transform="translate(-233.11 260.89) rotate(-6.42)"/><path class="cls-19" d="M1008.7,2238.65c1.75-.19,32.94-6.93,34.62-7.12a23.26,23.26,0,0,0,20.55-25.37h0a23.27,23.27,0,0,0-25.31-20.93l-11.88,1.1a17,17,0,0,1-18.57-15.52l-3.31-38.42a17.05,17.05,0,0,1,15.11-18.41l9-1a29.7,29.7,0,0,0,26.34-31.76h0a29.7,29.7,0,0,0-31.17-27.4l-9.75.51a30.53,30.53,0,0,1-32-27.15h0a30.55,30.55,0,0,1,27.21-33.72l22.08-2.28a21.55,21.55,0,0,0,19.26-23.12h0a21.55,21.55,0,0,0-23.18-19.78l-83.55,6.61a36,36,0,0,1-38.75-33.19h0a36,36,0,0,1,33.48-38.64l52.31-3.53a25.74,25.74,0,0,0,24-27.22h0a25.76,25.76,0,0,0-28.11-24.11l-17.6,1.66a20.76,20.76,0,0,1-22.59-18.53h0a20.76,20.76,0,0,1,18.78-22.81l62.31-5.6a16.54,16.54,0,0,0,15-17.23v-.42a17.08,17.08,0,0,0-17.94-16.35l-16.41.87a17.06,17.06,0,0,1-17.92-16.19L989.34,1705a17.06,17.06,0,0,0-17.81-16.19l-48.38,2.2a39.46,39.46,0,0,1-41-35.14h0a39.46,39.46,0,0,1,36.29-43.63l89.43-6.68a27.25,27.25,0,0,0,25.16-29h0a27.24,27.24,0,0,0-28.68-25.42L958,1553.74a31.27,31.27,0,0,1-32.88-28.57l-3.21-37.79a27.51,27.51,0,0,1,24.88-29.73h0a35.53,35.53,0,0,0,32.15-37.89l-2-27.64A31.49,31.49,0,0,0,943,1363l-41,3.26a29.21,29.21,0,0,1-31.35-26h0a29.21,29.21,0,0,1,26.5-32.23l101.69-8.88a17,17,0,0,0,15.55-17.75l-1.12-25.2A17.05,17.05,0,0,0,994.36,1240h0a39.37,39.37,0,0,1-43.52-34.71l-.6-5.3A39.37,39.37,0,0,1,985,1156.46l699.89-71.89,20,177.17,300.71-33.85a39.27,39.27,0,0,1,37.71,18.24L2245,1569.94a39.27,39.27,0,0,0,10.26,11l173.3,125.82a39.22,39.22,0,0,1,16,27.37L2483,2075.5l33.86-3.81a45.14,45.14,0,0,1,49.91,39.81l.1.91a45.14,45.14,0,0,1-39.81,49.91l-135.43,15.24C2378.05,2064.35,2285.44,1982,2184,1993.45s-173.39,112.25-161.42,225.64l-726.22,81.73-199.74,20.85-79.19,6.86A43.79,43.79,0,0,1,969,2289.91l-.15-1.35A45.14,45.14,0,0,1,1008.7,2238.65Z"/><g class="cls-46"><polygon class="cls-47" points="1754.33 1806.28 1773.57 2218.24 2528.56 2109.24 2478.86 1730.94 1754.33 1806.28"/><path class="cls-48" d="M891.5,1085l-128.69,151.2,201,1084.24s805.75-110.21,812.54-109.65S1643.83,1026.2,1643.83,1026.2Z"/><rect class="cls-20" x="1667.24" y="1039.77" width="76.65" height="1132.77" transform="translate(-168.98 200.89) rotate(-6.42)"/><g class="cls-49"><g class="cls-50"><path class="cls-51" d="M1546.48,1283.19l161.37,893.37,166.7-12.82s-59.84-461.65-93-711.71C1630.9,1424.25,1549.69,1284.25,1546.48,1283.19Z"/></g></g><rect class="cls-3" x="949.7" y="2154.53" width="1673.22" height="97.66" transform="translate(-235.29 213.68) rotate(-6.42)"/><g class="cls-52"><polygon class="cls-53" points="976.9 2358.23 2592.67 2187.25 2633.28 2099.62 910.64 2296.25 976.9 2358.23"/></g><polygon class="cls-54" points="2217.84 2014.21 2170.35 1592.43 2134.2 1589.24 2134.99 1580.28 2178.47 1584.12 2226.78 2013.21 2217.84 2014.21"/><path class="cls-55" d="M932,1228.69l-109,84.42S793.1,1486.23,791,1518.29s27.78,205.17,32.06,245.78,51.29,218,51.29,218l98.58,229,705-83.62L1556.1,1155Z"/><g class="cls-56"><path class="cls-30" d="M1527.93,1258.3a33.93,33.93,0,0,0-37.52-29.92l-775,87.24a33.94,33.94,0,0,0-29.92,37.52L716.8,1631a33.94,33.94,0,0,0,37.52,29.93l775-87.25a33.93,33.93,0,0,0,29.92-37.52Z"/></g></g><polygon class="cls-54" points="1737.91 1334.87 1769.01 1633.92 2174.41 1588.28 1995.2 1305.9 1737.91 1334.87"/><polygon class="cls-4" points="1980.29 1333.29 1741.62 1360.16 1769.63 1608.99 2129.33 1568.49 1980.29 1333.29"/><g class="cls-57"><g class="cls-58"><polygon class="cls-30" points="1847.6 1335.03 2056.19 1619.53 2100.77 1614.51 1888.77 1314.97 1847.6 1335.03"/></g><g class="cls-58"><polygon class="cls-30" points="1751.12 1345.9 1959.71 1630.39 2004.28 1625.37 1792.29 1325.83 1751.12 1345.9"/></g></g><path class="cls-59" d="M1908.15,1659.39l-103.82,11.69a10.79,10.79,0,1,0,2.42,21.44l103.82-11.69a10.79,10.79,0,0,0-2.42-21.44Z"/><path class="cls-54" d="M2113.42,1417a15.16,15.16,0,0,0-16.75-13.36l-32.56,3.67a15.15,15.15,0,0,0-13.36,16.74l32.57,289.26a15.15,15.15,0,0,0,16.74,13.36l32.56-3.67a15.14,15.14,0,0,0,13.36-16.75Z"/><path class="cls-60" d="M2129.5,1415.16a15.16,15.16,0,0,0-16.75-13.36l-32.56,3.67a15.15,15.15,0,0,0-13.36,16.74l32.57,289.26a15.15,15.15,0,0,0,16.75,13.36l32.55-3.67a15.14,15.14,0,0,0,13.36-16.75Z"/><ellipse class="cls-5" cx="2519.45" cy="1857.98" rx="38.17" ry="61.32" transform="translate(-192.05 293.53) rotate(-6.42)"/><g class="cls-61"><g class="cls-62"><ellipse class="cls-30" cx="2506.4" cy="1860.17" rx="38.17" ry="61.32" transform="translate(-192.37 292.08) rotate(-6.42)"/></g></g><ellipse class="cls-5" cx="2678.53" cy="1829.6" rx="35.84" ry="57.58" transform="translate(-187.87 311.15) rotate(-6.42)"/><g class="cls-63"><g class="cls-62"><ellipse class="cls-30" cx="2666.67" cy="1831.65" rx="35.84" ry="57.58" transform="translate(-188.18 309.84) rotate(-6.42)"/></g></g><path class="cls-20" d="M992,2072.37,911,2077.28a12.35,12.35,0,0,0-11.57,13.07h0a12.34,12.34,0,0,0,13.06,11.56l81-4.91a12.34,12.34,0,1,0-1.5-24.63Z"/><path class="cls-20" d="M974.31,1762.93a12.65,12.65,0,0,0-13.4-11.87L929.43,1753a12.66,12.66,0,1,0,1.53,25.28l31.48-1.91a12.66,12.66,0,0,0,11.87-13.41Z"/><path class="cls-20" d="M962.33,1581.15a17.13,17.13,0,0,0-18.14-16.06l-71.37,4.33a17.13,17.13,0,1,0,2.07,34.19l71.38-4.33a17.13,17.13,0,0,0,16.06-18.13Z"/><path class="cls-20" d="M953.49,1414.64a40,40,0,0,0-42.39-37.54l-25.64,1.56a40,40,0,0,0-37.54,42.39h0a40,40,0,0,0,42.39,37.54L916,1457a40,40,0,0,0,37.54-42.39Z"/><polygon class="cls-4" points="2095.31 1289.44 2258.94 1271.02 2416.42 1507.56 2240.38 1527.37 2095.31 1289.44"/><g class="cls-64"><g class="cls-58"><polygon class="cls-30" points="2159.22 1253.1 2350.93 1534.93 2395.97 1544.14 2201.78 1245.45 2159.22 1253.1"/></g></g><path class="cls-6" d="M3131.38,720.09s20.06-35.58,21.95-74.57-46.18-81-113.56-70.4-103.71,39.36-103.71,85.17,45,114.31,66.62,118.1C3081,752.27,3131.38,720.09,3131.38,720.09Z"/><g class="cls-65"><path class="cls-66" d="M2954.94,647l-30.63,19.59s18.08,18.63,67.68,13.9,179.53-25.65,179.53-25.65V631l-31.35-8.19Z"/></g><path class="cls-30" d="M3321.21,2508c-6.87,1,1.47,54.81,1.47,54.81l3.44,1.93s23.56-40.87,24.05-49S3328.08,2507.06,3321.21,2508Z"/><path d="M3326.86,2567.46l-6-3.36-.15-1c-1.25-8.09-7.24-48.77-2.17-55.59a3.58,3.58,0,0,1,2.4-1.51h0c4.59-.64,22.8-1.09,29.05,4.68a6.3,6.3,0,0,1,2.19,5.12c-.5,8.4-21.88,45.69-24.32,49.91Zm-2.35-5.9.86.48c9.35-16.33,22.48-41,22.81-46.44a2.29,2.29,0,0,0-.91-1.94c-4.13-3.81-19-4.55-25.58-3.68C3319.6,2512.5,3320.09,2532.65,3324.51,2561.56Z"/><path class="cls-30" d="M3348.7,2526.29c-2.94,3.85-15.71,40.39-15.71,40.39l4.91,2.88c2-2.88,37.31-20.67,32.9-33.17S3351.65,2522.45,3348.7,2526.29Z"/><path d="M3338.45,2572.3l-1.56-1-6.33-3.72.54-1.55c1.32-3.77,13-37,16-40.94,1.69-2.2,5.46-3.14,9.85-2.44a20,20,0,0,1,15.72,13.08c3.86,10.93-15.65,23.5-27.31,31a59.67,59.67,0,0,0-5.86,4Zm-3-6.51,2.23,1.3c1.09-.84,2.84-2,5.56-3.72,9.25-6,28.51-18.37,25.7-26.31a15.89,15.89,0,0,0-12.58-10.47c-3.28-.52-5.51.22-6,.92C3348.36,2530,3340.38,2551.68,3335.42,2565.79Z"/><path class="cls-1" d="M3297.07,2485.55s3.68,32.45,6.62,42.55,50.08,47.59,91.32,70,92.79,44,97.21,55.53,5.16,36.78-.73,41.83-50.08,5.77-99.42,5.05-201.05,1.44-212.83-5.77,2.94-105.29,12.52-123.32v-70Z"/><g class="cls-67"><path class="cls-68" d="M3428.89,2679.54c-47.13-2.16-242.29,2.17-259.23-10.09l.74,20.91,11,17.31,303.41,7.21s28.72-1.44,23.56-41.83C3508.42,2673.05,3476,2681.71,3428.89,2679.54Z"/><ellipse class="cls-30" cx="3260.61" cy="2615.72" rx="28.35" ry="27.76"/><path d="M3452.83,2596.08a58.24,58.24,0,0,0-8,2.39,65.47,65.47,0,0,0-14.77,7.91,58.46,58.46,0,0,0-12.2,11.68c-.84,1.16-1.66,2.32-2.44,3.5a41.45,41.45,0,0,0-2.07,3.75c-.31.64-.63,1.27-.92,1.92s-.52,1.34-.75,2a37.36,37.36,0,0,0-1.15,4.14c4.74-3.37,8.69-6.69,12.9-9.78s8.25-6.13,12.46-9.11,8.39-6,12.65-9.13,8.52-6.36,12.8-10.2a27.78,27.78,0,0,0-4.29.22C3455.59,2595.55,3454.2,2595.79,3452.83,2596.08Z"/><path class="cls-30" d="M3383.15,2621.13l35.35-33.66C3417.19,2587.79,3395.26,2604.14,3383.15,2621.13Z"/><path d="M3383.15,2626.13a5,5,0,0,1-4.07-7.91c12-16.76,34.64-34.73,38.23-35.6a5,5,0,0,1,4.63,8.47l-35.34,33.66A5,5,0,0,1,3383.15,2626.13Z"/><path class="cls-30" d="M3355.33,2606.7l34-39.1S3362.53,2590.36,3355.33,2606.7Z"/><path d="M3355.32,2611.7a5,5,0,0,1-4.57-7c7.58-17.2,34.25-39.94,35.38-40.9a5,5,0,0,1,7,7.09l-34,39.11A5,5,0,0,1,3355.32,2611.7Z"/><path class="cls-30" d="M3322.27,2594.52l33.06-42.62S3329.47,2576.57,3322.27,2594.52Z"/><path d="M3322.27,2599.52a5,5,0,0,1-4.64-6.86c7.52-18.74,33.16-43.34,34.24-44.38a5,5,0,0,1,7.41,6.68l-33.06,42.63A5,5,0,0,1,3322.27,2599.52Z"/><path class="cls-30" d="M3288.88,2573.69l32.73-41S3296.41,2556.06,3288.88,2573.69Z"/><path d="M3309.45,2539.31a59.39,59.39,0,0,0-9.77,9.31,52.84,52.84,0,0,0-7.45,11.42,41,41,0,0,0-2.45,6.55,31.73,31.73,0,0,0-.71,3.49,25.69,25.69,0,0,0-.19,3.61c3.69-3.17,6.78-6.1,9.81-9.17s5.91-6.19,8.64-9.47a119.39,119.39,0,0,0,7.81-10.36,63.36,63.36,0,0,0,6.47-12,33.64,33.64,0,0,0-6.45,2.88A50.32,50.32,0,0,0,3309.45,2539.31Z"/></g><path class="cls-7" d="M3144.82,1540.76s6,42.58,11.92,73.25,119.24,362.82,132.87,424.14,34.92,468.44,34.92,468.44-53.66,58.77-149.05,29c-26.4-154.16-43.15-342.39-55.08-470.14-91.13-145.64-256.64-471.28-256.64-471.28Z"/><g class="cls-69"><path class="cls-70" d="M3091.19,1881.62c-107.4-211.59-68.93-219.6-67.32-224.41l-89.77,72.13-24,251.66s104.19,395.93,149.07,519.36,163.5,105.79,163.5,105.79,1.61-101-17.63-339.82S3198.59,2093.21,3091.19,1881.62Z"/><path class="cls-24" d="M3152.9,1561c-5.61-1.6-172.31,40.88-172.31,40.88l1.6,300.55,59.31,57.71s-1.6-188.35,7.21-297.35c128.24-26.45,122.63-52.9,125-54.5C3173.74,1608.32,3158.52,1562.63,3152.9,1561Z"/></g><path class="cls-1" d="M2659.35,2525.9s-12.12,31.79-9.85,39,62.65,46.18,89.34,62.64,53.94,40.32,38,73.82c-15.33,14.19-125.48,8.52-155,2.84s-39.74-31.23-92.55-51.67-67.83-44.74-52.43-68.9c33.31-52.23,66.62-59.8,66.62-59.8l35.21-50.16Z"/><g class="cls-71"><path class="cls-68" d="M2613.35,2678.07c-31.22-25.55-46.56-30.1-99.93-59.05s-41.45-66.44-41.45-66.44l-23.85,61.89,56.78,43.16s118.11,63,119.81,62.46,143.65-1.14,143.65-1.14,18.17-5.11,18.17-27.82C2749.06,2703.05,2644.58,2703.62,2613.35,2678.07Z"/><path class="cls-1" d="M2536.13,2494.67c1.14,1.7,9.09,28.39,9.09,28.39s23.28,55.93,122.64,39.46c5.68-25,18.74-19.59,18.74-19.59l-114.13-79.49Z"/><circle class="cls-30" cx="2552.88" cy="2589.77" r="29.24"/><path d="M2667.64,2565.43a68.23,68.23,0,0,0-6.89,1.25c-1.12.32-2.25.66-3.36,1l-1.68.55c-.55.22-1.08.46-1.63.69-1.08.47-2.15,1-3.23,1.47s-2.06,1.18-3.09,1.78a39.42,39.42,0,0,0-10.7,9.5,30.13,30.13,0,0,0-3.64,6.23,17.71,17.71,0,0,0-1.61,7,45.43,45.43,0,0,1,4.47-5.08c1.52-1.56,3.16-3,4.77-4.34a90.2,90.2,0,0,1,10.38-7.31c.92-.55,1.81-1.13,2.73-1.67s1.89-1,2.82-1.56c.46-.27.92-.56,1.4-.81s1-.49,1.45-.74q1.44-.75,2.88-1.56c2-1,3.95-2,5.92-3.09a57.22,57.22,0,0,0,6-3.37A51.69,51.69,0,0,0,2667.64,2565.43Z"/><path d="M2673.7,2587.19c-1,.55-1.92,1.14-2.87,1.74a38.28,38.28,0,0,0-10,9,32,32,0,0,0-3.73,6.06,19.72,19.72,0,0,0-2,6.76c1.53-1.74,3.11-3.27,4.7-4.76s3.26-2.89,4.92-4.24a101.67,101.67,0,0,1,10.36-7.34c.9-.56,1.78-1.14,2.69-1.67s1.85-1.05,2.77-1.59c.46-.27.91-.55,1.38-.81s.95-.5,1.42-.76c.95-.5,1.91-1,2.86-1.56,1.93-1,3.89-2,5.86-3s4-2,6.07-3.18a37.37,37.37,0,0,0-7.25-.11,52,52,0,0,0-5.4.91q-.87.2-1.71.42c-1.16.35-2.32.73-3.46,1.13-.57.21-1.15.41-1.71.63s-1.11.5-1.66.75C2675.87,2586.08,2674.79,2586.64,2673.7,2587.19Z"/><path d="M2696.55,2604c-.9.54-1.78,1.11-2.65,1.69a40.35,40.35,0,0,0-9.32,8.56,35.61,35.61,0,0,0-3.83,5.89,22.72,22.72,0,0,0-2.29,6.57c1.65-1.58,3.3-3,4.95-4.45s3.36-2.81,5.05-4.14c3.36-2.65,6.81-5.08,10.35-7.36.88-.57,1.76-1.14,2.65-1.69l2.71-1.61c.46-.27.91-.55,1.37-.81l1.39-.77,2.85-1.57c1.89-1,3.83-2,5.79-3s4-1.88,6.09-3a31,31,0,0,0-7.46-.28,42.51,42.51,0,0,0-5.58.95c-.59.14-1.18.3-1.76.46-1.19.37-2.38.78-3.55,1.24-.58.22-1.17.45-1.74.7s-1.14.54-1.7.82C2698.74,2602.74,2697.64,2603.35,2696.55,2604Z"/><path d="M2719.41,2620.74c-.83.53-1.65,1.08-2.44,1.66a43.48,43.48,0,0,0-8.63,8.07,41.45,41.45,0,0,0-3.92,5.73,26.74,26.74,0,0,0-2.63,6.38c1.77-1.43,3.49-2.8,5.19-4.14s3.46-2.72,5.19-4c3.4-2.61,6.83-5.07,10.33-7.39.87-.57,1.73-1.14,2.61-1.69s1.77-1.1,2.66-1.64l1.35-.81,1.37-.79c.93-.53,1.87-1,2.82-1.57,1.86-1,3.78-1.94,5.73-2.92s4-1.8,6.12-2.83a26.74,26.74,0,0,0-7.68-.46,36.32,36.32,0,0,0-5.76,1c-.6.15-1.21.32-1.8.51-1.24.39-2.45.84-3.64,1.33-.6.25-1.19.51-1.78.78s-1.16.58-1.73.88C2721.62,2619.4,2720.5,2620.06,2719.41,2620.74Z"/><path d="M2754.83,2631.61a42.22,42.22,0,0,0-12.57,5.9,50.41,50.41,0,0,0-10.16,9.22,38.57,38.57,0,0,0-7,11.75c3.82-2.59,7.28-5.22,10.76-7.77s6.86-5.05,10.31-7.41,7-4.56,10.65-6.56c1.84-1,3.73-1.94,5.68-2.87s4-1.71,6.13-2.65A27.34,27.34,0,0,0,2754.83,2631.61Z"/><path class="cls-24" d="M2539.84,2473.74l10.72,39.06s-6.89,16.85,104.94,56.68c10.72-13.79,15.32-31.4,15.32-31.4L2570.48,2463Z"/></g><path class="cls-8" d="M3044.32,1579.37s-45.43,458.78-63.6,524.65-297.53,449.7-297.53,449.7-97.66,25-122.64-97.66c86.3-140.82,184-318,240.75-392.92-15.9-159-52.24-288.45-65.87-348.63s-1.13-119.24-1.13-119.24Z"/><g class="cls-72"><g class="cls-73"><path class="cls-74" d="M3011.58,1593.09s-53.43,369.75-74.81,474.47-171,320.59-256.47,367.61-141.06-8.55-141.06-8.55l-72.66,113.28s62,34.19,166.7,64.12,106.87-6.42,106.87-6.42,83.35-34.19,138.92-100.45,160.29-339.82,160.29-339.82l8.55-262.89s25.65-284.25,25.65-290.66S3011.58,1593.09,3011.58,1593.09Z"/></g><path class="cls-30" d="M2566.51,2511.65a2.51,2.51,0,0,1-2.15-3.78L2833.88,2053c-2.81-15.83-40.87-230-62.86-344a2.5,2.5,0,0,1,1.75-2.87c30.5-8.92,51.39-23.46,62.1-43.2,11.4-21,7.44-41.68,6.31-46.38l-63.74-32.7a2.5,2.5,0,0,1,2.29-4.45l64.73,33.21a2.52,2.52,0,0,1,1.25,1.5c.31,1,7.48,25.45-6.4,51.12-11.09,20.52-32.26,35.67-62.95,45,22.8,118.47,62.2,340.52,62.6,342.76a2.44,2.44,0,0,1-.31,1.71l-270,455.66A2.5,2.5,0,0,1,2566.51,2511.65Z"/></g><path class="cls-75" d="M3447.6,795.39c-3.3-4.8-26.8-12.8-26.8-12.8s2.4-35.1-12-39-13.5,21-17.7,45.9-5.6,33.51-8,60.81,24.3,68.4,24.3,68.4l17.4,14.7,34.2,2.4s12.9,4.2,18-21,13.21-50.7,9.91-61.2S3450.9,800.19,3447.6,795.39Z"/><path class="cls-9" d="M3345.3,1106.51l25.2,34.2,36-222.91,79.21,6s-25.21,266.42-41.41,318.62-33.93,59.71-41.13,67.81-32.69,17.81-55.17,1.49c-29.43-21.36-99.27-132.08-99.27-132.08Z"/><g class="cls-76"><g class="cls-77"><path class="cls-78" d="M3411.78,1210c-43.81,33.67-41.28-69.27-41.28-69.27l-2-65.91h-52.9s-88.16,48.63-100.45,78,8,32.6,70.53,128.24,66.26,72.13,109.54,53.43,44.35-23.51,44.35-23.51,34.73-114.34,35.79-122.89,8.55-127.17,9.09-176.86.53-80.15.53-80.15-6.94,35.27-15.49,105.8S3455.6,1176.32,3411.78,1210Z"/></g></g><path class="cls-6" d="M3454.91,657l1.2,6.4s4.8,112,2.8,133.2,3.3,101.11,3.3,101.11l19.9-6.3L3559.32,715l-84-60Z"/><polygon class="cls-79" points="3376.41 837.4 3463.31 897.8 3541.42 717.99 3454.91 656.99 3376.41 837.4"/><polygon class="cls-10" points="3457.11 668.79 3531.32 722.19 3460.51 886.6 3385.71 833.8 3457.11 668.79"/><g class="cls-80"><path class="cls-30" d="M3365.16,828.56c-.29.29-.43.46-.4.46S3365,828.85,3365.16,828.56Z"/><path class="cls-30" d="M3377.58,799.1s-10.11,25.74-12.42,29.46c8.22-8.46,144.4-133.92,144.4-133.92l-14.43-7.75Z"/><path class="cls-30" d="M3379.72,851.19c.08,0,.2-.15.37-.41C3379.82,851.05,3379.69,851.19,3379.72,851.19Z"/><path class="cls-30" d="M3392.55,821.27s-10.2,26-12.46,29.51c8.17-8.08,150.58-134,150.58-134l-14.43-7.75Z"/><polygon class="cls-6" points="3379.19 837.57 3385.87 845.05 3464.68 664.18 3456.13 661.78 3379.19 837.57"/><path class="cls-6" d="M3381.59,838.37c.14.67,78.95,53,78.95,53l5.07-6s-85.75-59.45-86-59.85C3379.59,825.54,3381.46,837.7,3381.59,838.37Z"/></g><path class="cls-9" d="M3476.4,942.4s.6.6,9.31-18.6,26.7-38.8,34.3-54.8,12.2-75.41,12.8-85.31-18-31.5-35.7-46.8-23.41-6.3-23.41,1.5,10.2,19.2,10.2,19.2-21.3-10.5-26.4-6.9-5.1,15.6,6,23.1,15.9,9.3,15.9,9.3-18-5.1-20.4-1.8-7.5,17.4,16.2,24.6c-10.8-1.2-20.4,8.11-5.7,21.31s25.51,20.7,24,27.3-11.71,38.4-17.41,43.2-19.2,41.4-19.2,41.4Z"/><g class="cls-81"><path class="cls-24" d="M3500.62,766.47c-2.66-1.81-5.34-3.58-8-5.34s-5.49-3.45-8.31-5a29.7,29.7,0,0,1-6.79-6.08,183.74,183.74,0,0,1-11.58-15.27,85.3,85.3,0,0,0,9.77,16.75,38.07,38.07,0,0,0,3.22,3.76,20.42,20.42,0,0,0,1.85,1.74c.33.27.64.56,1,.81l1.11.74c2.77,1.62,5.43,3.31,8.12,5.07l8.1,5.18c2.72,1.7,5.4,3.45,8.15,5.12,5.45,3.39,10.94,6.72,16.6,9.83-4.95-4.14-10.09-8-15.3-11.77C3505.92,770.11,3503.26,768.31,3500.62,766.47Z"/><path class="cls-24" d="M3500.56,792.08c-3.19-2.14-6.53-4.06-9.94-5.89-1.71-.89-3.47-1.72-5.26-2.49-.9-.38-1.8-.76-2.73-1.08a23.34,23.34,0,0,0-3-.86l.11,0c-1.92-.47-3.83-1-5.75-1.4s-3.84-.91-5.77-1.32-3.86-.83-5.8-1.21-3.89-.74-5.85-1.06q2.78,1.1,5.56,2.09t5.6,1.94c1.87.65,3.75,1.23,5.63,1.84s3.77,1.17,5.65,1.74l.11,0a21.06,21.06,0,0,1,2.48.86c.86.33,1.72.7,2.57,1.08,1.7.76,3.38,1.6,5,2.48,3.36,1.71,6.63,3.61,9.9,5.52l4.89,2.91q2.43,1.5,4.87,3c1.61,1,3.25,2,4.88,3s3.26,2,4.93,3q-4.24-3.88-8.79-7.41C3506.89,796.44,3503.78,794.18,3500.56,792.08Z"/><path class="cls-24" d="M3499.89,819.19a74.15,74.15,0,0,0-7.51-5.7,88.1,88.1,0,0,0-8.12-4.78,83.27,83.27,0,0,0-8.58-3.93l-.24-.09h-.16l-3.38,0-3.39,0c-2.27.06-4.53.11-6.81.31,2.23.51,4.47.86,6.7,1.22l3.36.48,3.09.38-.12-.06.39.09-.27,0c2.68,1.34,5.36,2.8,8,4.23s5.36,3,8,4.57c1.33.77,2.64,1.58,3.94,2.39s2.6,1.65,3.91,2.47c2.59,1.67,5.1,3.46,7.68,5.27A48.82,48.82,0,0,0,3499.89,819.19Z"/><path class="cls-24" d="M3474.73,807l.12.06.27,0Z"/></g><path class="cls-1" d="M3169.23,946.84l26.16-68.3,165.76,211.38s-28.39,114.7-115.83,119.24c-75-103.34-81.76-123.78-81.76-123.78Z"/><g class="cls-82"><path class="cls-83" d="M3235.46,1109c-65.72-72.13-54.5-238.84-59.31-238.84,0,0-30.46,166.71-46.49,222.81s28.86,52.9,72.13,136.25,76.95,44.88,76.95,44.88l54.5-73.73S3301.18,1181.13,3235.46,1109Z"/><path class="cls-24" d="M3158.52,841.31l12.82,195.56s-5.61,92.17,0,101,23.24,19.24,23.24,19.24,24.85-105,18.44-184.34S3160.92,841.31,3158.52,841.31Z"/></g><path class="cls-11" d="M2959.87,863.82l-23.57-19S2846,856.65,2809.08,876s-31.86,133.1-31,170.54-3.9,288.88-7.72,308.84-48.38,235.9-38.61,246.71c53.1,44.51,345.15,68.43,425.85,9.37,23.79-13.31-17.76-220-14.48-249.55,5.11-46,35.3-221.41,47.7-263.46,26.12-88.58,7.13-190.84,5.43-222.45,0,0-50-10.5-74.12-14.14C3085.49,877.34,2959.87,863.82,2959.87,863.82Z"/><g class="cls-84"><path class="cls-24" d="M2823.5,892.6s-7.48,40.07-5.34,62-51.83,197.16-51.83,197.16l-10.16,93.51s59.85-110.6,69.47-140.53,22.79-59.48,19.94-124S2823.5,892.6,2823.5,892.6Z"/><path class="cls-85" d="M3135.54,1432.79c-118.62,50.23-269.3-57.7-363.34-121.82s-48.62-170.55-50.22-167.78c-35.27,60.92-24.58,109-49.16,166.71s-10.68,208.39-10.68,208.39L2691,1625.15s107.93,26.71,146.4,35.26,280,0,346.24-28.85,31-59.84,39.54-72.67S3254.16,1382.57,3135.54,1432.79Z"/></g><polygon class="cls-12" points="3354.4 1174.58 3363.17 1160.79 3131.32 1160.79 2851.84 1248.57 2917.01 1279.23 3160.14 1276.09 3287.65 1209.46 3354.4 1174.58"/><g class="cls-86"><polygon class="cls-87" points="2938.94 1208.84 3206.51 1209.36 3241.39 1237.24 3261.45 1192.96 3004.53 1192.96 2938.94 1208.84"/></g><path class="cls-88" d="M2851.84,1248.57v285.12l230,2.45s17.55-25.06,18.18-33.21l14.41-242.5-32.59-10Z"/><polygon class="cls-13" points="3363.17 1160.79 3081.81 1250.4 3081.81 1536.14 3363.8 1424.6 3363.17 1160.79"/><g class="cls-89"><polygon class="cls-90" points="3206.51 1363.19 3262.91 1340.71 3262.91 1188.68 3206.51 1209.36 3206.51 1363.19"/></g><path class="cls-9" d="M2900,1492.61l37-4.53s21-7.47,38.77-6.8,52.36,8.73,89.62,7.72,40,4.7,34.57,16.12-63.77,11.41-67.13,18.12,19.14,8.73,44,5.71,58.41-29.54,73.18-21.48-37.6,66.46-82.91,84.25c-32.89,12.08-93.27,5.38-131.24-9.07-45-17.12-65.79-38.26-65.79-38.26Z"/><g class="cls-91"><g class="cls-77"><path class="cls-78" d="M2818.28,1624.4c-.09,0-.13,0-.12,0S2818.22,1624.44,2818.28,1624.4Z"/></g><g class="cls-77"><path class="cls-78" d="M3174.72,1480.17s-87.27-8.19-81.21-1.42,8.55,18.88-42,32.41-16,10.33,18.88,17.1c17.81,1.78,60.2,29.92-28.85,46.31s-163.5-17.81-168.84-17.81c0,0-51.51,65.82-54.38,67.64,6.32-.76,262.4,8.94,262.4,8.94s86.21-63.76,91.91-110.42S3174.72,1480.17,3174.72,1480.17Z"/></g></g><path class="cls-9" d="M2758.14,1189l-52.8,69.83s190.78,204.41,238.48,228.26c-3.41,22.15,8.8,62.46-67.86,62.46-155-122.65-232.8-161.26-300.93-236.21-49.4-40.88,81.76-204.41,81.76-204.41Z"/><g class="cls-92"><g class="cls-77"><path class="cls-78" d="M2731.6,1245.78l38.47-63-134.65-93-16,50.23s23.51,44.88,69.46,71.6c-6.41,23.51-28.85,59.84-28.85,59.84l274.64,224.41s12.82-15,4.27-25.64Z"/></g><path class="cls-24" d="M2718.05,1217.06l-7.15,38.81,42.9-62.81-126.54-73.79S2627.67,1196.12,2718.05,1217.06Z"/></g><path class="cls-1" d="M2838.8,964.59c-3.48-51.25-5.74-84.32-20.47-89.77s-43.42,20.43-76,72.28-115.08,172.17-115.08,172.17,41.39,100.79,137.47,84.83c41.95-89.75,60-126.55,67.3-156.27S2840.07,983.29,2838.8,964.59Z"/><g class="cls-93"><path class="cls-83" d="M2796.25,1070.53c-65.72,118.62-113.81,141.06-113.81,141.06l83.35,19.23,52.9-33.66s78.54-83.35,80.15-177.93-40.08-179.53-40.08-179.53S2862,951.91,2796.25,1070.53Z"/></g><path class="cls-9" d="M2989.4,738.44c.32.94-1.28,62.1-2.87,78s-26,25.22-50.23,28.34c50.34,61.48,116.51,123.94,116.51,123.94l71-105.78s-40.38-7.8-46.11-14.36-5.1-48.68-5.1-48.68l-63.1-59Z"/><g class="cls-94"><path class="cls-24" d="M3110.25,852.53c-5,.71-7.48-.72-8.55-.36s-39.18,42.75-54.14,66.61c-11.76-29.92-98-85.13-97.61-86.56,0,0-12.82,8.2-15.31,8.2s120,108.28,120.4,107.22,36.69-60.92,47.73-75.17S3115.24,851.81,3110.25,852.53Z"/><path class="cls-30" d="M3104.51,856.45s-41.74,56.48-53.53,77.7c-28.36-36.2-94.32-94.55-94.32-94.55l-19.44,3.74,3.82,41.19,80,80.82s38.23,17.17,41.1,17.48,66-113.28,66-113.28l-6.06-9Z"/><path class="cls-24" d="M2986.41,718.06l-26.18,26.72s47.56,70,125.57,72.13c-5.88-36.87-12.83-50.22-17.64-58.77S2986.41,718.06,2986.41,718.06Z"/></g><path class="cls-9" d="M3135,665.73s1.27,55.55,1.27,94.24-19.54,63.66-55.66,57-79.45-17.89-83.27-63.24c-26.35,3.54-35.85-34.79-33.62-48.21s32.5-27.31,39.51,4.83c4.14-27.77,1.65-33.33,15.46-41,5-2.79,28.57,4.21,37.68-20.6,20.31,10.93,42,.31,58-12.74C3126.52,636.33,3132.05,651.58,3135,665.73Z"/><g class="cls-95"><g class="cls-77"><g class="cls-77"><ellipse class="cls-78" cx="3033.49" cy="748.17" rx="19.97" ry="19.56"/></g><g class="cls-77"><path class="cls-78" d="M3145.33,711.57a19.57,19.57,0,1,0,21.36,18.1A19.7,19.7,0,0,0,3145.33,711.57Z"/></g></g><path class="cls-24" d="M3055.85,696.54c-4.46.38-7.69,5.09-7.22,10.53s4.48,9.55,8.94,9.17,7.69-5.08,7.22-10.52S3060.31,696.17,3055.85,696.54Z"/><path class="cls-24" d="M3112.54,691.79c-4.46.37-7.69,5.09-7.21,10.53s4.47,9.54,8.94,9.17,7.69-5.09,7.21-10.53S3117,691.42,3112.54,691.79Z"/><path class="cls-24" d="M3093,696.1s7,22.89,13,35c3.39,6.88,3.11,11-2.22,18.53,7.38-1.67,13.65-12.42,8.48-18.9S3093,696.1,3093,696.1Z"/><path class="cls-24" d="M3066.35,673.07c-4.14,0-17.6-.06-24.77,2.67s-12.35,6.56-11.47,8.36,6.61-.54,12.43-2.35,19-1.85,23.42-1.91,6.05-.87,6.45-2.46C3073.35,673.64,3070.5,673,3066.35,673.07Z"/><path class="cls-24" d="M3120.54,669c-5.45-1.59-14.49.54-17.29,1.11s-4.58,1.61-3.1,5.11c.63,1.49,1.89,2,4.9,1.43s11.88-2.53,16.21-1.64,8.72,2.31,8.9.42S3126,670.56,3120.54,669Z"/><path class="cls-24" d="M3109.33,769.85c-2.16.27-4.19.72-6.28.86a84,84,0,0,1-12.12.64,93.56,93.56,0,0,1-12.16-1c-4.15-.55-8.3-1.36-12.88-2.23a22.42,22.42,0,0,0,5.05,4.82c.95.68,1.94,1.29,2.95,1.88s2.07,1.08,3.14,1.55a35.73,35.73,0,0,0,13.76,2.92l1.78,0,1.77-.13,1.77-.18a11.49,11.49,0,0,0,1.76-.26c1.16-.27,2.32-.51,3.46-.82a23.55,23.55,0,0,0,3.33-1.18,31.52,31.52,0,0,0,6.17-3.3,19.61,19.61,0,0,0,2.72-2.19,31.72,31.72,0,0,0,2.45-2.47c-1.19.11-2.33.26-3.43.46S3110.43,769.77,3109.33,769.85Z"/></g><path class="cls-1" d="M2942.6,664.26c16-2.09,49.17-6.1,89.55-9.12,54,18.83,206.13-16.61,209.59-24.17s-3.58-13.73-42.43-10.42-38.37,1.36-38.37,1.36-11.37-111.85-121-101.07c-95.61,9.4-117.17,67.84-109.05,134.37A10.43,10.43,0,0,0,2942.6,664.26Z"/><g class="cls-96"><path class="cls-97" d="M3161.19,602.47c-41.15,26.18-113.81,34.73-169.92,29.38s-72.13-50.22-72.13-50.22c-48.62,65.72,7,100.45,7,100.45l253.8-24S3200.19,625.44,3161.19,602.47Z"/><path class="cls-66" d="M2940,613.41c-6.61,6.52-5.84,32.68-5.84,32.68,6.54,6.79,16.31-.41,16.31-.41C2949.69,633.59,2946.58,606.88,2940,613.41Z"/><path class="cls-98" d="M3277.31,621.35c0-4.28-60.91-17.1-116.37.56-62.94,25.85-128.79,33.23-128.79,33.23L3018,673.71s51.65,9.26,77.3,16.38S3143,689,3244.18,673.71,3277.31,625.62,3277.31,621.35Z"/></g><path class="cls-99" d="M3686.45,1474.59l0,.12c-41.37-8.31-75.28-2.16-87.75.8-3.15.87-6.3,1.78-9.42,2.76-92.12,28.81-152.43,129.76-143.87,236.54,8.69,108.35,45.77,205.28,94.6,296.85,16,29.95,42.37,73.63,64.67,109.46,19.64,31.56,61.51,32,81.3.56l.39-.63c58.77-93.65,110.2-191.65,139.49-302.23,14.83-56,24.2-112.87,13.66-171.64C3823.94,1560.45,3763.42,1492.9,3686.45,1474.59Zm-44.81,317.91c-50.11,0-90.74-45.44-90.74-101.49s40.63-101.48,90.74-101.48,90.73,45.43,90.73,101.48S3691.75,1792.5,3641.64,1792.5Z"/><path class="cls-88" d="M3634.68,1474.59l0,.12c-41.37-8.31-75.27-2.16-87.75.8-3.15.87-6.3,1.78-9.42,2.76-92.12,28.81-152.43,129.76-143.87,236.54,8.69,108.35,45.77,205.28,94.6,296.85,16,29.95,42.37,73.63,64.67,109.46,19.64,31.56,61.51,32,81.3.56.13-.21.26-.42.4-.63,58.76-93.65,110.19-191.65,139.48-302.23,14.83-56,24.2-112.87,13.66-171.64C3772.17,1560.45,3711.65,1492.9,3634.68,1474.59Zm-44.81,317.91c-50.11,0-90.74-45.44-90.74-101.49s40.63-101.48,90.74-101.48S3680.6,1635,3680.6,1691,3640,1792.5,3589.87,1792.5Z"/><rect class="cls-14" x="500.56" y="2696.41" width="3702.07" height="63.59" rx="31.8"/><g class="cls-100"><rect class="cls-101" x="436.52" y="2725.48" width="3783.83" height="36.77"/></g><circle class="cls-30" cx="4214.22" cy="1839.52" r="30.55" transform="matrix(0.99, -0.16, 0.16, 0.99, -240.24, 698.8)"/><g class="cls-102"><path class="cls-24" d="M2833.49,1003.85c-4.93,7-8.83,15-13.15,22.47-3.7,6.35-5.93,13.48-10.11,19.56-4.45,6.48-10.36,11.77-14.66,18.38a130.92,130.92,0,0,1-15.25,19.1c-5.61,5.9-11.23,11.79-16.24,18.22a70.48,70.48,0,0,1-7.14,8.39c-2.45,2.3-5.16,4.16-7.28,6.8a198.65,198.65,0,0,1-36.35,34.35c-1,.74,0,2.43,1,1.7a195.84,195.84,0,0,0,18.76-15.26c5.67-5.15,12.29-10.14,17-16.2,2.77-3.55,5.94-6,9.24-9a72.22,72.22,0,0,0,7.26-8.27c5.3-6.58,11.23-12.58,17.12-18.61a115.28,115.28,0,0,0,14.63-17.64c4.35-6.64,10.13-12,14.9-18.28s7.08-14,11-21c4.34-7.68,9.12-15.17,12-23.59C2836.76,1003.31,2834.4,1002.56,2833.49,1003.85Z"/></g><g class="cls-102"><path class="cls-24" d="M3091.57,1093.54c-18.43,4.7-37.06,9.18-55.09,15.28-8.77,3-17.05,6.92-25.59,10.45-8.76,3.61-17.63,7-26.44,10.44-8.1,3.21-16.31,6.3-23.93,10.58-7.89,4.42-15.32,9.61-23.1,14.2-16.41,9.68-32.18,20-47.84,30.86-1.67,1.16-.1,3.9,1.6,2.74,15.74-10.7,31.6-20.91,48.08-30.43,7.32-4.23,14.33-9,21.68-13.15,8.37-4.75,17.4-8.11,26.35-11.59s17.67-6.69,26.39-10.3c8-3.3,15.76-6.9,24-9.63,18.11-6,36.35-11.46,54.73-16.6A1.48,1.48,0,0,0,3091.57,1093.54Z"/></g><g class="cls-102"><path class="cls-24" d="M3137.85,1108.29c-8.58-.64-18.06,2.52-26.3,4.62-9.15,2.33-18.31,4.71-27.36,7.39-18.79,5.55-37.1,12.44-55.66,18.68-17.32,5.82-33.09,15-49.21,23.46-8.15,4.31-16.58,8.38-24.59,12.88-6.51,3.67-13.55,7.06-19,12.29-.66.64.33,1.62,1,1,6.23-5.69,15.1-9.87,22.81-13.17,7.53-3.23,14.7-7.29,22-11,8.32-4.23,16.59-8.54,24.94-12.7a169.47,169.47,0,0,1,25.77-9.93c17.76-5.55,35.17-12.14,53.06-17.3,8.48-2.45,17-4.61,25.59-6.76,4.25-1.07,8.52-2.1,12.82-3,4.83-1,9.88-1.27,14.61-2.62A2,2,0,0,0,3137.85,1108.29Z"/></g><g class="cls-102"><path class="cls-24" d="M3203.7,948.46c-.85-2.36-4.6-1.38-3.8,1,9.53,28.77,17.12,57.73,18.35,88.16.62,15.38.75,30.76.82,46.14.07,15.6-2.33,31.81-.32,47.3.32,2.49,4.51,3.77,4.94.67,2.15-15.68,2.53-32.14,2.66-48,.13-15.68-.71-31.45-1.67-47.1C3222.82,1006.28,3213.93,977,3203.7,948.46Z"/></g><g class="cls-102"><path class="cls-24" d="M3172.89,2120.48c-3.85-23.07-8.58-46-17.22-67.84-4.14-10.45-8.84-20.67-13.83-30.74s-9.62-20.2-15.56-29.63c-2.78-4.43-6.47-8.26-9.07-12.78-2.91-5.06-5.35-10-8.95-14.66-7-9-14-18-19.68-27.89-13.86-24.09-27.74-48.19-41.36-72.42-.83-1.48-3.06-.17-2.27,1.32,11.45,21.4,23.85,42.39,34.88,64,5.14,10.08,10.08,19.89,16.52,29.24,3.1,4.5,6.5,8.85,9.36,13.51s4.7,10.12,8,14.65c6.4,8.77,11.19,18.23,15.94,28,4.93,10.1,10,20.15,14.39,30.49a255.26,255.26,0,0,1,11.78,33.2c3,10.95,4.23,22.13,6.62,33.19,2.8,13,3.91,25.88,4.47,39.14.61,14.49,1.6,29,2.3,43.44.21,4.36,6.6,4.38,6.78,0,.57-13.19.06-26.42-.43-39.6C3175.13,2143.5,3174.8,2131.92,3172.89,2120.48Z"/></g><g class="cls-102"><path class="cls-24" d="M3202.49,2485.9c-2.34-10.82-4.53-21.69-6.24-32.63-1.81-11.54-3.71-23.12-5.08-34.72a245.64,245.64,0,0,0-5-30.2c-1.26-5.1-1.67-10.5-2.55-15.69-1-6.08-.88-11.84-1.32-17.92-.77-10.47-2.41-20.95-2.71-31.47-.67-22.91-3.16-45.73-3.46-68.65-.16-12.55-.49-25.1-.47-37.65,0-12.2,0-24.39-2.35-36.4-.19-1-1.63-.55-1.48.41,3.64,22.53.36,46.06.09,68.77-.14,11.8.16,23.4.68,35.18.49,11.2,1.2,22.53,1.37,33.74.08,5.14.4,10.17.88,15.3.52,5.43.31,10.88,1.07,16.28.79,5.6.37,11.15,1,16.75.65,5.85,1.82,11.63,2.53,17.48.53,4.35,2,8.46,2.64,12.79.81,5.8,1.77,11.59,2.5,17.4,1.43,11.38,3.44,22.67,4.76,34,1.38,11.81,3.92,23.57,6.43,35.18,1.46,6.72,2.87,13.34,3.79,20.16.75,5.5,1.28,11,4.2,15.83a2.53,2.53,0,0,0,4.6-1.94C3205.67,2507.41,3204.8,2496.53,3202.49,2485.9Z"/></g><g class="cls-102"><path class="cls-24" d="M3158.7,1785.68c-3.25.06-6.36-1.46-9.41-2.42-3.75-1.17-7.52-2.28-11.28-3.41-7.11-2.14-14.66-3.54-21.45-6.62a135.36,135.36,0,0,0-16.2-5.85c-6.44-2-11.67-6.09-18-8.29-3.54-1.24-12.13-3.69-11.92-8.75.09-2.18,2.73-5,4-6.68,4.19-5.88,9.86-11.69,12.34-18.58,1.49-4.12.27-8.19-4.71-8.06-7.08.17-13.81,3.76-20.93,3.89-.6,0-1.16,0-1.74-.06-1.34.47-1-.1-.4,0l.4,0,.46-.18c2.67-1.11,4.33-3,6.59-4.75,6.4-4.88,13.59-8.87,20.23-13.45,4-2.73,21.62-12.78,16-19.44-3.67-4.39-11.33-2.09-15.82-.85-6.34,1.74-12.44,2.83-18.31,6-6.32,3.41-12.41,6.57-19,9.55a34.59,34.59,0,0,0-12.53,9.65c-.8,1,.47,2.29,1.39,1.39,8-7.84,19.28-10.36,29-15.67,5.8-3.18,11.36-4.57,17.67-6.06,3.11-.74,6.54-2.31,9.78-2.18h1.43c2.91.84,3.43,2,1.57,3.35a20.3,20.3,0,0,1-3.46,3.28c-10.27,9.11-22.31,16.09-33.21,24.34-2,1.55-7.48,2.45-6.24,6,.77,2.21,3.36,2.61,5.39,2.67,6.86.19,13.5-2.65,20.22-3.54,2.51-.33,3.51-.24,2.67,2.47-1.09,3.5-3.82,6.77-6,9.69-3.46,4.71-9,9.79-10.74,15.5-2.27,7.37,7.12,12.06,12.49,14.15,5.83,2.27,10.85,5.91,16.71,8.06,3.88,1.42,8,2.17,11.85,3.49,3,1,5.74,2.56,8.66,3.76,6.58,2.69,13.74,4.13,20.61,5.92,4.43,1.15,8.89,2.25,13.29,3.5,2.87.82,5.54,1.73,8.55,1.45C3160.77,1788.78,3160.85,1785.65,3158.7,1785.68Z"/><path class="cls-24" d="M3059.34,1720.85l-.4,0C3058.39,1720.75,3058,1721.32,3059.34,1720.85Z"/></g><g class="cls-102"><path class="cls-24" d="M3125.7,1847.52q-5.07-6.93-10.27-13.76c-6.94-9.08-13.68-18.31-20.6-27.4-6.43-8.45-14.64-15.5-22-23.14-8.24-8.59-16.29-17.36-24.33-26.14-1.29-1.41-3.33.67-2.09,2.09,7.63,8.74,15.26,17.47,23.08,26s16.66,16.6,23.4,26.17c6.49,9.2,13.21,18.22,19.89,27.28,3.38,4.58,6.64,9.24,9.94,13.87,2.93,4.1,5.72,8.83,9.75,11.91,2,1.56,4.13-1.35,3.22-3.22C3133.28,1856.27,3129,1852,3125.7,1847.52Z"/></g><g class="cls-102"><path class="cls-24" d="M3021.4,1768.75c-.64-12.94-2.1-25.89-3-38.86-.48-6.55-.26-13.11-.45-19.68-.2-6.88-.89-13.74-1.27-20.62-.74-13.49-1.48-27-4-40.27-.33-1.75-2.89-1-2.64.73,2,13.43,2,27,2.39,40.52s0,26.91.69,40.29c.33,6.46.88,12.89.87,19.37,0,5.94,1.29,11.74,1.14,17.68-.12,4.92,1.91,9.1,3.68,13.61.92,2.32,1.62,4.65,2.46,7s2.71,4.59,2.81,7.15c.12,2.75,4.51,3.67,5,.69.75-4.11-.7-8.24-2-12.1C3025.41,1779.33,3021.65,1774,3021.4,1768.75Z"/></g><g class="cls-102"><path class="cls-24" d="M3018.36,1781.76c-1.79,17.88-2.13,35.92-4.69,53.72-1.25,8.66-2.34,17.41-3.74,26s-4.16,16.72-6.43,25c-9.39,34.21-16.08,69.09-25.91,103.2q-4,13.92-8,27.86c-1.82,6.3-5.81,13.38-5.46,20,.07,1.39,2.34,1.89,2.58.35.92-5.89,4.5-11.8,6.38-17.48,2.74-8.29,5.39-16.6,8.07-24.91,5.42-16.76,9.38-34,13.78-51,4.47-17.26,7.74-34.81,12.2-52.08,2.23-8.64,4.82-17.22,6.51-26,1.67-8.61,2.07-17.53,3.29-26.22,2.72-19.37,2.55-39,4-58.47C3021.11,1780.07,3018.53,1780.1,3018.36,1781.76Z"/></g><g class="cls-102"><path class="cls-24" d="M2571.55,2511.48c-3,2.05-6.76,3-9.9,4.87-4.3,2.58-8.42,5.46-12.6,8.23-7.74,5.13-15.31,10-22.39,16.05s-14.87,11.41-21.22,18.29c-6.83,7.4-12.58,15.72-18.81,23.62-.94,1.19.71,2.91,1.7,1.7,6-7.3,11.58-15,18-21.91,6.61-7.13,14.66-12.53,22.15-18.65,7.65-6.25,15.82-11.25,24.13-16.54,4-2.54,7.83-5.23,11.78-7.81,2.94-1.91,6.6-2.81,9.06-5.36C2574.68,2512.72,2573.08,2510.42,2571.55,2511.48Z"/></g><g class="cls-102"><path class="cls-24" d="M3205.51,2552c-.61-2.18-1.68-4.73,0-6.67s-.45-5-2.78-3.6a8.17,8.17,0,0,0-4.05,8.56c.28,2.08.92,4,1.14,6.14.24,2.28.57,3.92,2.37,5.51s4.73.08,4-2.34S3206.22,2554.57,3205.51,2552Z"/></g><g class="cls-102"><path class="cls-24" d="M3204.54,2569.89c-10.24,14.89-13.53,32.63-16.21,50.15a226,226,0,0,0-2.38,30.19c-.19,9.69-1.6,21.39,2.05,30.59a1.65,1.65,0,0,0,3.22-.44c.59-19.67-1.13-39.33,1.36-59,2.2-17.29,4.12-35.59,12.9-51A.54.54,0,0,0,3204.54,2569.89Z"/></g></g></svg>