<svg xmlns="http://www.w3.org/2000/svg" viewBox="0 0 48 48"><defs><style>.cls-1,.cls-2{fill:none;stroke:#474747;stroke-linejoin:round;stroke-width:2px;}.cls-1{stroke-linecap:round;}.cls-2{stroke-linecap:square;}</style></defs><title>Asset 2</title><g id="Layer_2" data-name="Layer 2"><g id="Layer_1-2" data-name="Layer 1"><g id="tracking_code" data-name="tracking code"><g id="package"><polyline class="cls-1" points="19.55 1.04 15.84 8.46 15.84 15.13 18.81 14.39 21.77 15.13 24.74 14.39 27.71 15.13 27.71 8.46 24.74 1.04"/><polyline class="cls-1" points="1.04 8.42 9.2 1 34.42 1 42.59 8.42"/><path class="cls-2" d="M20.29,42.55H1.74A.74.74,0,0,1,1,41.81V9.16a.74.74,0,0,1,.74-.74H41.81a.74.74,0,0,1,.74.74V20.29"/><line class="cls-2" x1="26.97" y1="29.19" x2="26.97" y2="35.13"/><line class="cls-2" x1="29.94" y1="29.19" x2="29.94" y2="35.13"/><line class="cls-2" x1="34.39" y1="29.19" x2="34.39" y2="35.13"/><line class="cls-2" x1="37.35" y1="29.19" x2="37.35" y2="35.13"/></g><circle class="cls-2" cx="32.16" cy="32.16" r="10.39"/><path class="cls-1" d="M44.07,38.88l1.85,1.85a3.67,3.67,0,0,1,0,5.19h0a3.67,3.67,0,0,1-5.19,0l-4.08-4.08"/></g></g></g></svg>