<svg xmlns="http://www.w3.org/2000/svg" viewBox="0 0 48 48"><defs><style>.cls-1,.cls-2{fill:none;stroke:#474747;stroke-linejoin:round;stroke-width:2px;}.cls-1{stroke-linecap:round;}.cls-2{stroke-linecap:square;}</style></defs><title>Asset 4</title><g id="Layer_2" data-name="Layer 2"><g id="Layer_1-2" data-name="Layer 1"><g id="shipping_order_ok" data-name="shipping order ok"><g id="package"><polyline class="cls-1" points="19.55 1.04 15.84 8.46 15.84 15.13 18.81 14.39 21.77 15.13 24.74 14.39 27.71 15.13 27.71 8.46 24.74 1.04"/><polyline class="cls-1" points="1.04 8.42 9.2 1 34.42 1 42.59 8.42"/><path class="cls-2" d="M22.52,42.55H1.74A.74.74,0,0,1,1,41.81V9.16a.74.74,0,0,1,.74-.74H41.81a.74.74,0,0,1,.74.74V22.52"/></g><circle class="cls-1" cx="36.61" cy="36.61" r="10.39"/><polyline class="cls-1" points="32.16 36.61 35.87 40.32 41.06 32.9"/></g></g></g></svg>