<?xml version="1.0" encoding="UTF-8"?><svg id="Courier" xmlns="http://www.w3.org/2000/svg" viewBox="0 0 2000 2000"><path d="M1067.68017,1153.02535c-183.25137,33.20249-329.33962,171.3173-372.73958,352.42477-23.82878-82.2098-47.65816-164.41976-71.48694-246.62956l-164.51774,67.5698c-11.76134,89.89915-11.78295,163.65526-9.7315,213.57945,5.77444,140.54716,10.02199,243.92975,83.17686,296.47452,42.11,30.24647,89.45846,31.01037,109.67889,31.33672,97.24654,1.5692,167.79838-61.9127,205.64702-95.96873,189.01633-170.07506,217.34835-575.65964,219.97298-618.78696Z" fill="#fa0" stroke-width="0"/><path d="M1537.07611,676.54805c1.36297-133.9551-53.55457-235.66381-177.93999-288.26589-108.35478-45.82305-209.43481-37.11174-264.08211-31.15599-65.79988,7.17204-127.02436,14.61237-186.59202,58.71728-19.36716,14.33947-53.35895,40.14634-71.95085,85.20537-17.98017,43.57495-2.35133,58.60792-9.46766,123.07499-10.13764,91.83263-45.94161,98.37812-46.46748,176.26478-.13952,20.70712-.17989,69.74874,29.73426,119.12919,20.01925,33.04687,49.58333,59.43224,82.77176,78.81574,37.19197,21.72104,78.92511,34.45225,121.15038,41.94573,28.58594,5.07317,76.76338,15.48013,138.0962,12.33055,47.50439-2.43974,170.16799-8.73942,268.14085-100.14072,11.17865-10.42894,53.16475-51.0066,83.38246-118.40351,6.48723-14.46877,32.382-74.66911,33.2242-157.51753Z" fill="#fa0" stroke-width="0"/><rect x="1088.36514" y="837.32665" width="260.15355" height="446.17094" fill="#fa0" stroke-width="0"/><path d="M1278.29203,992.41764c-11.089-1.60106-15.01606,7.03496-43.14618,22.47535-28.67948,15.7453-61.72321,25.55152-94.20286,29.48845-7.98.9669-16.01213,1.46262-24.03251,1.95884-8.49718.52587-17.29537-.8187-25.6929.09148-3.0857.33422-3.72605,4.27747-.7308,5.39666,8.00811,2.99065,17.96433,3.13374,26.4237,4.01121,48.56188,5.03615,107.95923-12.21458,147.54495-38.44404,7.32739-4.85495,17.04291-9.92556,17.96689-19.55318.20902-2.18268-1.88116-5.10025-4.13028-5.42477Z" fill="#1b136a" stroke-width="0"/><path d="M1067.95777,662.7324c-1.02516-.7216-2.39221-.50849-3.43373,0-4.75478,2.32322-4.71032,10.09931-5.89391,14.61493-4.97897,18.9948-14.37223,34.67485-27.58633,46.90596-8.52631,7.89159-19.06411,14.09928-24.81952,24.56706-5.73037,10.4223-5.4539,23.51635,1.10795,33.53185,6.41978,9.79831,19.25115,16.32898,31.01648,13.88413,4.94234-1.0272,12.07962-5.7222,8.63465-11.69429-3.05913-5.30314-10.21328-3.29881-15.23892-3.9458-10.29913-1.32566-16.90493-11.88134-13.65569-21.75579,3.49454-10.61547,15.38865-17.13081,23.04312-24.49858,15.87547-15.28118,25.96396-36.25369,28.9452-53.83882.93368-5.50347,3.24259-13.99349-2.11931-17.77064Z" fill="#1b136a" stroke-width="0"/><path d="M1232.13066,616.29558c-11.21785-19.76514-47.49903-26.5234-68.69905-18.99256-3.16951,1.12584-6.86234,2.29614-7.99176,5.78301-.37817,1.16621.25552,2.48982,1.26229,3.10308,2.64109,1.60827,5.80447.54989,8.64079.03884,8.48385-1.53001,18.71289-1.99931,27.78921-.19726,16.59789,3.29468,24.86796,10.3878,34.34493,14.91951,2.96816,1.41918,6.42642-1.53059,4.6536-4.65462Z" fill="#1b136a" stroke-width="0"/><path d="M946.93236,568.01202c18.16526-13.65739,54.13426-5.3973,70.57699,9.95819,2.4583,2.29567,5.37885,4.84066,5.02514,8.48878-.1179,1.22031-1.22658,2.18174-2.39434,2.34299-3.06323.42253-5.54278-1.80882-7.94049-3.40784-7.17134-4.78419-16.36601-9.29102-25.40862-11.25528-16.53594-3.59272-26.94764-.38289-37.44551-.00327-3.28785.11877-5.28411-3.96481-2.41318-6.12356Z" fill="#1b136a" stroke-width="0"/><ellipse cx="878.1209" cy="715.68625" rx="36.41599" ry="59.92595" transform="translate(76.36313 1515.99094) rotate(-84.12876)" fill="#ff6a00" stroke-width="0"/><ellipse cx="1251.67472" cy="766.25527" rx="36.41599" ry="59.92595" transform="translate(361.40116 1932.98135) rotate(-84.12876)" fill="#ff6a00" stroke-width="0"/><circle cx="984.94777" cy="630.56206" r="30.164" fill="#1b136a" stroke-width="0"/><circle cx="1168.31214" cy="659.11216" r="30.164" fill="#1b136a" stroke-width="0"/><path d="M1159.41215,1133.81369c-127.53615,17.41461-294.42539,79.98729-346.95838,198.30519-15.99869,36.03276,3.63536,20.1286-13.22041,174.80021-3.81541,35.01169-14.74849,126.91383-23.50228,236.49429-5.92749,74.1977-6.77436,105.41109,14.68907,124.85727,17.18107,15.5658,39.09944,14.93305,108.68798,13.32874,69.54953-1.60341,109.21194-1.01447,139.5576-3.04642,93.53496-6.26284,131.04389-.98296,215.92949-1.46882,245.55552-1.40565,368.33298-2.10832,421.57652-59.24605,118.1824-126.82605-8.20701-411.75124-15.64878-428.16061-17.79086-39.22833-41.63825-92.19533-94.52107-142.47318-146.58523-139.36389-353.43984-120.64633-406.58975-113.39062Z" fill="#4a53e2" stroke-width="0"/><path d="M1348.51868,1141.32196s240.23846,1.14063,348.76215,158.67501c108.52369,157.53439,201.29394,378.08253,98.0214,504.11004-103.27254,126.02751-446.78355,24.50535-446.78355,24.50535l58.19873-192.54203,130.38917-87.5191-188.5879-407.22927Z" fill="#fa0" stroke-width="0"/><path d="M1282.43689,1132.36753c55.42583-6.09539,244.28011-20.67133,357.74501,89.57535,40.01173,38.87707,80.43459,102.78435,86.91245,113.11394,39.53818,63.04931,62.97984,121.01965,77.04771,162.83465-72.305,17.38003-123.04635,34.81768-160.28639,50.15706-23.74595,9.78101-72.04392,30.00415-116.69272,13.48569-2.16009-.79915-4.00027-1.66238-5.6604-2.50925-35.29723-18.00903-46.66905-57.50399-58.32235-93.23531-19.08847-58.52957-49.86026-140.46539-101.35484-242.37001-26.46302-30.35076-52.92544-60.70136-79.38846-91.05212Z" fill="#4a53e2" stroke-width="0"/><path d="M1105.74548,1143.60895c-204.54905,12.19899-370.78959,160.87374-410.80489,361.84116,13.5241,5.79229,33.6479,15.31642,56.30811,29.8679,55.42223,35.58967,58.90394,58.1537,77.36281,59.73565.0006,0,49.84526,4.27186,173.33094-348.13145,34.60101-34.43776,69.20202-68.87551,103.80302-103.31327Z" fill="#4a53e2" stroke-width="0"/><path d="M1088.54304,1142.1105s56.61831,91.59153,83.79313,91.59153,176.18251-104.42524,176.18251-104.42524l-35.16727-49.81018c-110.976,11.0976-65.22198,5.87595-202.70942,23.50254l-22.09896,39.14135Z" fill="#fa0" stroke-width="0"/><path d="M1423.21288,692.35675c-6.23058,3.74122-22.38412,12.25042-41.78589,8.78334-.0006-.00008-18.58731-3.32146-34.29071-20.48219-40.60592-44.37362,18.97384-147.77256-17.97152-195.39231-31.4362-40.51844-93.00979,2.47954-240.62195-9.52053-117.44716-9.54784-214.59107-85.94052-260.76376,60.22061,0,0-25.60775-175.52993,223.37186-213.72154,134.38335-20.61341,415.38855-17.61778,508.24289,194.63044,66.29589,151.54079-3.60415,315.78941-74.18,400.03281-47.99487,57.28913-120.36409,106.30162-136.69529,93.03095-20.42635-16.59829,58.63725-114.05903,74.69436-317.58158Z" fill="#1b136a" stroke-width="0"/><circle cx="1459.31922" cy="695.99525" r="78.05066" fill="#fa0" stroke-width="0"/><path d="M1489.00876,651.82801c-13.14455-7.69981-30.81984-5.19815-43.43581,2.44276-13.12152,7.94751-21.49572,22.89672-22.36028,38.08596-.21474,3.77473,3.58933,5.97527,6.75811,3.93855,7.04435-4.5277,17.99667-1.50968,21.54317,6.12952,3.7828,8.14808-1.63573,16.97456-9.05712,20.50415-4.19003,1.99246-2.7912,9.57847,2.25401,8.33721,13.47489-3.31417,20.90725-20.26221,14.82049-32.69578-4.91918-10.0484-16.48834-14.45802-26.83776-12.21187,2.37134-10.21907,8.44126-19.278,17.45808-25.08367,11.37453-7.32409,24.64188-6.90784,37.32521-3.90035,3.48037.82537,4.08204-4.05211,1.53191-5.54648Z" fill="#1b136a" stroke-width="0"/><path d="M1088.36515,1079.46655s-20.81102-9.79272-29.62482,18.11661c-11.02791,34.92061-36.25033,38.29203-42.1082,67.5698-4.53144,22.65031,6.02172,42.96707,27.12803,83.60045,12.50738,24.07891,19.25953,29.09035,29.42496,54.72181,9.92896,25.03531,8.68596,33.36176,15.18003,35.9882,19.04706,7.7033,57.5145-50.81727,83.97091-105.76145,6.36563-13.22011-64.1388-75.89354-83.97091-154.23542Z" fill="#b4b2fa" stroke-width="0"/><path d="M1348.08098,1060.28085c-30.31865,66.58533-67.87739,99.66441-97.40319,117.60261-35.58772,21.62098-76.64138,31.65737-78.2805,56.19303-.39553,5.91758,1.54309,12.06549,23.44166,37.81713,33.06452,38.88232,49.59678,58.3234,61.69423,60.71502,25.58494,5.05781,30.82521-23.13211,122.40894-107.72002.0006-.0003,52.04976-48.07364,57.89922-91.95105.3258-2.44351.49996-5.52267.49996-7.47868-2.62343-11.42719-22.47295-16.05166-40.67074-47.9314-10.03399-17.57809-17.02382-20.75955-26.79312-22.45494-9.27595-1.60971-17.6114,2.13773-22.79645,5.20831Z" fill="#b4b2fa" stroke-width="0"/><polygon points="1584.10489 1882.93878 852.95684 1882.93878 802.82097 1233.70204 1634.24075 1233.70204 1584.10489 1882.93878" fill="#ff6a00" stroke-width="0"/><polygon points="1383.04094 1233.70204 1383.04094 1882.93878 1584.10489 1882.93878 1634.24075 1233.70204 1383.04094 1233.70204" fill="#1b136a" stroke-width="0"/><rect x="1036.03636" y="1233.70204" width="120.6234" height="206.59016" fill="#1b136a" stroke-width="0"/><path d="M1559.3938,516.87457s1.40685-349.1107-365.42205-379.46813c-366.8289-30.35747-315.85108,261.65846-315.85108,261.65846,0,0,524.34481,37.99899,681.27314,117.80968Z" fill="#4a53e2" stroke-width="0"/><ellipse cx="1181.31521" cy="136.05993" rx="43.16722" ry="21.6664" fill="#b4b2fa" stroke-width="0"/><path d="M645.39243,1095.02305c-19.55422-19.07257-45.42485,4.31477-56.73665,20.65587-4.06509,5.87227-7.71846,12.34323-10.80164,19.1755-18.92522-22.37002-43.58467-44.6248-74.89843-40.77427-21.54505,2.64924-39.9205,22.81986-36.86613,43.96129-15.00958-4.62477-32.81184.25928-42.20543,13.36775-9.19913,12.83748-8.15659,29.95493.08043,42.58655-24.72907,2.27001-37.83651,27.58404-25.21822,49.31979-12.66178,4.09182-22.09224,21.39349-13.06015,39.67172,5.37411,10.87426,15.31807,18.72296,24.54901,26.18213,10.43012,8.42848,21.0607,16.6472,32.19604,24.12798,41.93714,28.17296,101.93703,47.81841,147.60676,15.98368,18.5501-12.93111,35.72997-35.98295,34.22769-59.69409,13.03855-11.73283,15.69139-34.59801,13.65915-50.74975-1.8942-15.06269-6.66332-29.72026-7.5552-44.91229-.90029-15.32888,3.90244-27.38971,11.42764-40.41206,9.81972-16.99171,20.63036-41.87352,3.59514-58.48981Z" fill="#fa0" stroke-width="0"/><path d="M1473.68787,1709.22148c.54363-36.30665.95766-60.84157-11.34018-83.25973-3.88781-7.08733-12.32079-17.7167-8.68461-29.95729,2.7502-9.25825,8.4167-17.46757,9.11528-27.32212,1.23853-17.46364-14.47654-27.76592-30.46494-21.05687-18.53688,7.77795-39.85838,36.44993-42.08977,70.5042-21.86035-8.09965-61.99189-12.54688-98.99823-4.50148-14.33998,3.11788-33.83259,8.61782-35.87803,26.00036-.99249,8.43451,3.45852,14.72154,9.63818,19.26643-17.45572,10.21642-15.7754,33.7086.40424,47.01636-18.33099,7.25204-22.46404,28.37637-10.69389,43.20859-1.64938.63767-7.43635,3.10006-9.59403,8.86581-2.49965,6.67868,1.57874,13.22521,3.08786,15.6471,7.72784,12.40423,24.62687,14.4988,39.84487,17.51,33.35821,6.60049,23.40791,10.63392,61.84185,19.11383,36.11902,7.96924,57.15661,12.29597,79.6655,1.82726,9.36133-4.35388,15.48792-9.64417,17.62043-11.57247,25.504-23.06458,26.04786-59.39371,26.52546-91.28998Z" fill="#fa0" stroke-width="0"/><path d="M1675.66896,1644.20643c-72.79236-.32635-145.58532-.65286-218.37767-.97921-13.70956,50.92215-27.41972,101.8443-41.12928,152.76645,118.41647,107.13093,273.34196,115.30193,356.11969,43.19139,62.27221-54.24766,67.28441-139.61717,67.81317-165.59958-54.80884-9.79302-109.61707-19.58603-164.42591-29.37905Z" fill="#fa0" stroke-width="0"/><path d="M1726.61016,1654.48395c-18.57891-10.24196-40.01353-14.83192-60.983-17.05863-21.27437-2.25912-44.06482-1.98393-64.4293,4.84864-3.20382,1.07494-2.93013,6.62101.84747,6.26239,56.39256-5.35397,66.33726-5.5935,122.49297,10.86196,2.90612.85167,4.75951-3.43279,2.07186-4.91436Z" fill="#1b136a" stroke-width="0"/><path d="M1364.08476,1662.87775c-29.96069-14.94823-84.63305-13.30154-101.5705-5.52623-2.74202,1.2587-1.38134,4.96697,1.399,4.8302,13.13859-.6461,21.36434-5.4857,49.38098-3.7316,24.6384,1.5415,35.62134,6.76994,48.44608,10.19345,3.81668,1.01897,6.00331-3.94051,2.34443-5.76582Z" fill="#1b136a" stroke-width="0"/><path d="M1359.17727,1715.02863c-10.34376-4.9172-48.86689-13.3459-87.64852-13.08564-3.59983.02396-7.59464-.53946-10.79502,1.23999-1.96268,1.0915-1.95836,3.64684.05959,4.6728,3.81976,1.94226,5.49984.5475,23.0024,1.61057,47.6072,2.89464,58.70904,9.76294,73.90238,11.31395,3.44082.35134,4.49979-4.31576,1.47917-5.75167Z" fill="#1b136a" stroke-width="0"/><path d="M1353.00638,1764.06164c-6.422-5.13003-15.7873-8.10797-23.47149-10.87922-23.88919-8.6159-50.25486-12.62057-75.65244-9.37974-3.53287.45096-2.53518,5.38408.81347,5.31725,25.5562-.51041,48.84026,2.28964,72.14737,10.68276,7.78034,2.8016,15.16894,7.44171,23.00454,9.82527,3.40145,1.03474,6.14914-3.17729,3.15855-5.56632Z" fill="#1b136a" stroke-width="0"/><path d="M570.72524,1133.13109c-6.61891,8.75949-11.88258,18.42406-16.0275,28.57299-2.99903-11.71835-8.87796-20.54421-16.333-30.15629-4.57886-5.90348-9.07669-12.95992-14.65306-17.907-3.68997-3.27314-8.65415.78085-6.63631,5.12053,4.89466,10.52489,34.25461,34.44018,30.19681,60.24657-1.39664,8.88313-7.39795,18.48708-16.81795,20.27745-8.06657,1.53289-17.25369-3.08558-19.83331-11.09873-.60499-1.8783-2.1955-2.36625-3.54113-1.92151-3.17621-5.43653-6.83137-10.61618-10.3797-15.50263-8.15659-11.23287-17.49677-24.01304-29.04864-31.93316-4.15512-2.84911-7.51979,3.06638-4.93417,6.39503,6.89379,8.87442,15.47652,16.38791,22.41353,25.31365,12.41971,15.98051,29.23947,39.78925,18.28062,56.73005-4.94617,7.64643-16.52326,9.97337-22.77425,2.60873-.68542-.80726-1.58751-1.00922-2.46859-.88168-12.6788-15.59726-40.86133-37.6807-51.32773-41.90413-3.70018-1.49328-6.80316,4.16202-3.88624,6.67682,4.14972,3.57834,9.07969,6.24949,13.55831,9.39809,11.62024,8.17128,27.7997,21.71907,36.95136,33.18636,14.49016,18.15511,7.72265,33.71444-2.93373,35.88182-7.86408,1.5999-10.95691-5.69376-14.62845-2.76838-7.8658-5.5789-28.51099-17.32991-47.56033-25.49851-3.20922-1.37594-6.925-3.67857-10.49554-3.24913-3.09518.37182-4.49783,3.50662-2.47159,5.9671,1.64332,1.99533,3.95526,2.68165,6.2744,3.66537,16.47725,6.98764,37.61571,18.14267,50.80976,27.38911,6.24439,4.37539,14.02166,11.71963,10.45533,20.13731-2.98895,7.05434-11.67731,10.77193-18.94323,10.48564-5.58178-.21967-10.9925-2.40286-15.82583-5.06981-5.08722-2.80709-9.53463-7.01413-14.84932-9.31556-3.22963-1.39844-5.9785,2.02504-3.72418,4.82644,3.62335,4.50233,9.26575,7.89761,14.20292,10.81124,5.04881,2.97905,10.56756,5.38881,16.37921,6.34192,22.51894,3.69353,41.39186-17.779,26.67849-36.50511,5.36751.22717,11.17856-1.63942,14.69988-4.53684,7.54462-6.20814,11.26847-19.48393,4.25655-34.10405,17.8259,5.41907,34.85622-12.70943,28.68012-37.37569,8.98208,5.57254,20.3576,5.5857,29.8643-2.57542-1.7598,12.60329-3.08231,31.7562.623,43.93038,1.16977,3.84392,6.49827,2.91873,6.79116-.91889,1.56464-20.56501-6.27298-48.07493,23.95302-107.83211,1.71114-3.38358-2.77588-5.81855-4.97498-2.90793Z" fill="#1b136a" stroke-width="0"/><path d="M704.59182,1518.42456c-1.51728-4.27636-2.8383-9.14811-6.07393-12.42485-1.99864-2.02444-5.56017-.50356-5.57337,2.30863-.02711,5.72985,2.72861,7.95703,7.51319,25.80911,8.59418,32.05297,7.55128,54.10024,6.42865,84.32023-.14525,3.90904,5.9809,4.79042,6.86558.9291,7.08243-30.89171,1.53402-70.7919-9.16011-100.94221Z" fill="#1b136a" stroke-width="0"/><path d="M1036.03647,852.95423s63.83091,16.64765,120.62337-37.21236c0,0,25.4559,56.79787-36.23833,86.17602-61.69423,29.37815-84.38505-48.96365-84.38505-48.96365Z" fill="#e5e5ff" stroke-width="0"/><path d="M533.78164,1043.33293c-6.63177-12.46259-11.35242-18.69478-50.63899-75.88263-11.78277-17.15125-30.90898-44.75566-38.58646-55.35822-4.28389-5.91667-8.32372-12.81539-13.61478-17.87229-1.48158-1.41663-4.6416-.01548-3.74453,2.18,3.99226,9.77694,71.00244,108.50447,74.75623,113.99544,8.53987,12.49193,16.65658,25.53082,26.47355,37.06962,2.5958,3.05119,7.1065-.84074,5.35499-4.13193Z" fill="#1b136a" stroke-width="0"/><path d="M607.7641,940.52847c-3.84043-17.65183-7.28713-35.54745-11.98403-52.98998-1.17816-4.37319-7.31453-2.44689-6.63868,1.83015,2.77187,17.53487,6.84215,34.96801,10.44512,52.35219,3.59891,17.36617,6.81323,34.94493,12.07993,51.90138.98839,3.18184,6.55902,2.81373,6.12368-.82882-2.10617-17.62062-6.25814-34.94518-10.02602-52.26492Z" fill="#1b136a" stroke-width="0"/><path d="M715.99889,921.94051c-15.86404,29.65311-29.22462,60.71574-43.14434,91.30828-2.40553,5.28649,5.42805,9.91338,7.85084,4.58908,14.07143-30.92513,28.85981-61.73966,40.93212-93.52025,1.24564-3.28002-4.00685-5.4278-5.63862-2.37712Z" fill="#1b136a" stroke-width="0"/><path d="M425.25081,293.53705c-89.31323,0-161.71618,72.4027-161.71618,161.71618,0,30.51567,8.46173,59.05075,23.15269,83.40493,38.10976,73.42936,87.5387,139.81698,146.96637,197.37196,20.23672-22.38552,40.82456-48.6381,62.03546-77.93248,32.88696-45.41947,69.51134-103.74567,84.46309-155.37204l-.27095-.03247c31.79125-103.75047-45.83294-209.15608-154.63049-209.15608ZM425.25081,366.0359c32.27352,0,58.43655,26.16303,58.43655,58.43655s-26.16303,58.43655-58.43655,58.43655-58.43655-26.16278-58.43655-58.43655,26.16303-58.43655,58.43655-58.43655Z" fill="#ff6a00" stroke-width="0"/><path d="M306.09245,536.85097c-26.18291-35.07801-33.78406-79.15182-20.85875-120.92664.84928-2.74489-3.19244-3.70308-4.21022-1.16079-16.29859,40.70999-7.21464,91.87966,21.68151,124.70102,1.59293,1.80931,4.86325-.63639,3.38745-2.61358Z" fill="#1b136a" stroke-width="0"/><path d="M387.01248,645.1145c-13.42512-8.29966-22.56124-17.44854-26.95451-32.60827-1.04387-3.60218-6.68017-2.07007-5.63054,1.55225,4.37748,15.10512,15.63404,29.92091,30.70012,35.52679,2.67277.99456,4.16501-3.06134,1.88493-4.47077Z" fill="#1b136a" stroke-width="0"/><path d="M1837.81698,809.70469c-104.79423,64.33021-247.12983,157.42449-268.48412,170.98746-2.35733,1.49731-.17657,5.26467,2.19649,3.75722,80.75396-51.29063,218.33283-137.11736,268.87684-170.3144,2.74092-1.80047.2471-6.17163-2.58921-4.43027Z" fill="#1b136a" stroke-width="0"/><path d="M1782.42325,1053.24199c-25.78454-2.14815-36.23724-2.1497-163.97254-6.38651-4.60152-.15247-4.58782,6.96798,0,7.14404,128.46169,4.93224,137.99295,5.65249,163.97254,5.34738,3.97996-.04693,3.86834-5.78272,0-6.10491Z" fill="#1b136a" stroke-width="0"/><path d="M1682.52638,755.57131c-16.49625,18.22264-32.49829,36.86058-48.4496,55.55991-15.6144,18.30407-32.59115,36.0901-46.74884,55.55356-2.31674,3.18463,2.68206,6.80739,5.35499,4.13193,8.53125-8.53886,16.10556-18.15972,23.94219-27.33003,27.70446-32.41945,49.73195-57.94801,70.30946-83.50666,2.46185-3.05829-1.66525-7.43909-4.4082-4.40871Z" fill="#1b136a" stroke-width="0"/><path d="M289.98281,1380.51799c-16.91332,1.35397-33.61607-.19737-49.18329-7.3678-48.30958-22.25152-62.36215-74.90696-37.51384-118.01448,12.24838,4.62638,25.64042,6.2688,38.52101,4.1573,15.55808-2.55014,42.35078-15.6621,33.2198-35.72834-10.12496-22.24954-39.11059-10.77188-53.37737-.20752-8.28618,6.13561-15.39521,13.75837-21.19924,22.29368-13.98974-6.6912-25.76574-17.90654-31.72453-32.19132-14.45451-34.65166,8.30597-74.55073,42.04939-86.67912,3.48171-1.25148,2.13307-6.3718-1.53638-5.57367-53.28778,11.58685-78.68456,98.69125-12.85319,130.96965-12.55637,22.01157-16.69717,48.91742-9.02595,73.25816,12.7786,40.54676,60.80403,72.81952,103.49578,61.52579,3.47866-.9204,2.89719-6.74397-.8722-6.44232ZM253.13416,1218.26195c9.61706-.00761,19.70143,8.40135,14.26323,18.4294-4.09108,7.54361-13.27229,11.57888-21.15104,13.74746-12.63045,3.47689-26.28988,2.50777-38.77064-1.90474,10.20837-14.56836,28.0198-30.25834,45.65846-30.27212Z" fill="#1b136a" stroke-width="0"/><path d="M1693.38298,370.36621c-19.03928-2.44638-41.75359,3.74859-54.02277,19.27649-2.64248,3.34395,1.33799,7.39977,4.68422,4.68422,11.62581-9.43567,24.61854-15.68315,39.81891-16.09642,51.13293-1.38923,76.13623,63.05469,36.80502,97.0565-37.53289-45.64161-74.39064-5.63726-55.32321,13.71423,13.26301,13.46038,38.91599,7.22373,54.60373-3.51621,9.33211,13.41633,14.24468,29.4128,14.22466,45.4073-.04313,34.61944-25.98088,66.65068-59.55839,74.74329-2.96468.7144-1.7094,5.28725,1.26036,4.57158,56.72229-13.67074,83.95287-78.47315,49.40857-128.78483,43.93738-37.16209,19.41337-104.46172-31.9011-111.05614ZM1683.462,488.88148c-6.50828-.62307-14.63768-3.59815-15.83512-10.93805-1.2294-7.53626,5.91515-14.47354,12.79433-15.99571,13.22663-2.92662,26.0925,7.03749,34.90028,17.50138-9.32785,6.4101-20.73701,10.49713-31.85949,9.43237Z" fill="#1b136a" stroke-width="0"/><path d="M1475.67384,344.45612c-11.07504-41.07549-49.48284-100.30771-105.89573-141.19279-13.91769-10.0869-28.7081-18.89569-44.17434-26.3911-3.81861-1.8507-7.18159,3.8521-3.34319,5.72006,53.08258,25.82993,97.66892,67.77861,126.91992,119.04676,8.26436,14.48394,14.63108,29.77158,21.62646,44.86896,1.2908,2.78633,5.63456.79457,4.86688-2.05188Z" fill="#1b136a" stroke-width="0"/><path d="M1517.69634,423.63957c-.4605-.15961-3.129-1.5083-4.18901-2.51843-1.97214-1.88274-2.93644-4.13659-3.33761-6.70084-.05936-.39323-.04972-.31991.02841.21995-.17809-.0789-.11771-2.01408-.04668-2.7876.10038-.40152.18106-1.07108.58248-2.15641.14055-.35822.11112-.29581-.08829.18723-.09096-.30164,1.06921-1.85941,1.28065-2.09298,1.23143-1.38213,1.46433-3.66158,0-5.00565-1.3456-1.23549-3.69024-1.4765-5.0054,0-8.88868,9.97735-1.17497,26.96328,9.95549,26.91422,3.38523-.01467,4.37374-4.78125.81994-6.0595Z" fill="#1b136a" stroke-width="0"/><path d="M1738.82478,1408.32268c-2.20309-3.31376-7.46877-.32701-5.3834,3.14683,48.99353,81.6174,75.58784,174.5435,73.01842,270.01136-1.23626,45.88125-6.82197,59.39161-8.33235,79.99426-.27044,3.69405,5.11449,4.05912,6.18711.83719,3.76889-11.3125,4.96227-23.62887,6.43167-35.42593,14.47465-116.14938-15.86003-234.23552-71.92144-318.56371Z" fill="#1b136a" stroke-width="0"/><path d="M1587.51414,1855.97008c-2.67394,0-2.67902,4.15653,0,4.15653,2.67496,0,2.67902-4.15653,0-4.15653Z" fill="#1b136a" stroke-width="0"/><path d="M1636.69236,1863.21154c-6.02487-1.36479-8.88953-1.40448-45.51791-3.77904-4.11696-.26714-4.0307,5.99912,0,6.36469,36.24632,3.28626,38.68215,3.69022,44.72334,3.28256,3.18945-.21513,4.26258-5.08252.79457-5.86821Z" fill="#1b136a" stroke-width="0"/><path d="M607.88209,1819.20489c-38.6372-4.79838-67.08906-33.99966-81.23508-68.90222-14.53827-35.87076-16.32284-67.39095-36.04545-209.51075-.39779-2.86726-5.46814-2.21881-5.10282.69056,6.14855,48.9882,11.68721,98.10248,18.7724,146.96688,5.94356,40.9887,16.62817,83.75934,48.42119,112.68257,15.11716,13.75228,34.39796,23.99394,55.18977,24.11292,3.99518.02309,3.74555-5.57469,0-6.03996Z" fill="#1b136a" stroke-width="0"/><path d="M878.21159,1647.8412c-4.79143-42.94799-19.28057-174.57472-29.15714-252.20224-.38054-2.99487-5.09774-3.12019-4.80599,0,7.54094,80.57043,38.36349,369.1436,45.524,414.52552.46578,2.95351,5.41892,2.27437,5.23017-.70781-3.41828-53.98497-10.7942-107.86212-16.79104-161.61547Z" fill="#1b136a" stroke-width="0"/><path d="M940.13949,1862.46162c-7.34305-1.37706-14.31356-1.28305-41.8165-.85926-5.01402.07712-5.02214,7.71587,0,7.7935,20.71457.31843,33.61952.67764,41.8165-.85952,3.00527-.56346,3.0073-5.51076,0-6.07472Z" fill="#1b136a" stroke-width="0"/><ellipse cx="1072.19188" cy="304.78072" rx="134.33859" ry="71.19574" fill="#e5e5ff" stroke-width="0"/><path d="M1138.14799,425.28123c-13.28943-19.56615-133.72314-191.33585-311.73978-181.62374-106.34783,5.80205-226.6213,76.01201-219.91776,133.01796,5.62859,47.8668,100.94671,87.80463,227.2623,96.86632,2.05445-3.27539,6.18317-9.46591,12.48577-16.15804,48.75659-51.77265,221.64733-39.5772,291.90947-32.10249Z" fill="#b4b2fa" stroke-width="0"/><path d="M744.27954,447.22227c-21.32466-7.99397-57.97179-12.75458-84.17693-37.57473-19.63344-18.59658-31.63472-49.78556-17.83981-75.12307,1.71802-3.15546-3.04332-5.95295-4.82274-2.81906-14.80816,26.07931-4.82578,58.79122,14.57882,79.62869,11.11132,11.93228,25.66021,20.3963,40.54651,26.71558,15.74632,6.6846,33.10919,12.64059,50.07427,15.12198,3.89574.5698,5.42095-4.53226,1.63988-5.9494Z" fill="#1b136a" stroke-width="0"/></svg>