<?xml version="1.0" encoding="UTF-8"?>
<svg id="Layer_1" data-name="Layer 1" xmlns="http://www.w3.org/2000/svg" viewBox="0 0 287.78 186.5">
  <defs>
    <style>
      .cls-1 {
        fill: #ffb026;
      }

      .cls-1, .cls-2, .cls-3, .cls-4, .cls-5, .cls-6, .cls-7, .cls-8, .cls-9, .cls-10 {
        stroke-width: 0px;
      }

      .cls-2 {
        fill: #e07707;
      }

      .cls-3 {
        fill: #ff4a4a;
      }

      .cls-4 {
        fill: #380101;
      }

      .cls-5 {
        fill: #ab6238;
      }

      .cls-6 {
        fill: #a32c2c;
      }

      .cls-7 {
        fill: #ade4ff;
      }

      .cls-8 {
        fill: #7a7a7a;
      }

      .cls-9 {
        fill: #e8974f;
      }

      .cls-10 {
        fill: #fff;
      }
    </style>
  </defs>
  <path class="cls-9" d="M182.88,35.98s.38-23.4-5.23-27.09C164.35.17,19.82,5.77,9.64,17.08c-10.18,11.31,0,95.06,0,95.06l183.56,10.72-10.32-86.88Z"/>
  <g>
    <circle class="cls-8" cx="55.36" cy="154.18" r="26.58" transform="translate(-42.3 22.66) rotate(-16.85)"/>
    <circle class="cls-8" cx="226.05" cy="154.18" r="26.58"/>
  </g>
  <path class="cls-3" d="M182.72,109.21s-126.04-1.29-148.41,0c-22.37,1.29-30.11,2.58-30.54,9.03-.43,6.45.72,26.24,4.02,30.97,3.3,4.73,20.5,4.97,20.5,4.97,0,0,5.65-25.09,27.56-22.77s24.49,22.77,24.49,22.77l119.16,2.78s2.58-24.66,27.1-24.16c24.52.5,27.53,21.38,27.53,21.38,0,0,15.62,8.14,24.59-7.55s3.12-37.88,0-43.88c-6.88-13.23-27.6-14.54-30.18-24.48-2.58-9.94-1.96-31.87-12.59-38.54s-48.36-10.45-54.08-2.76c-5.73,7.69.86,72.23.86,72.23Z"/>
  <path class="cls-1" d="M282.26,112.84c-5.65.31-11.3.62-16.95.93-2.5.14-5.21.35-7.11,1.99-2.24,1.93-2.65,5.18-2.9,8.12-.16,1.79-.31,3.61-.04,5.39.27,1.78,1.01,3.55,2.38,4.72,1.99,1.71,4.85,1.84,7.48,1.84,6.41,0,12.83-.25,19.22-.75l-2.07-22.22Z"/>
  <g>
    <path class="cls-7" d="M196.3,82.37c-.02-.07-.03-.14-.05-.21l-.15-.1.2.31Z"/>
    <path class="cls-7" d="M231.13,69.05c-.71-3.37-1.5-6.75-2.96-9.87-1.46-3.12-3.66-5.98-6.65-7.69-4.2-2.4-9.41-2.24-14.13-1.16-2.51.57-5.03,1.42-6.97,3.09-2.51,2.16-3.76,5.45-4.52,8.67-1.54,6.58-1.42,13.54.34,20.07l5.3,3.47c5.73.25,11.47.5,17.2.75,3.23.14,6.73.21,9.39-1.64,2.32-1.62,3.55-4.46,3.84-7.28.28-2.82-.26-5.64-.84-8.41Z"/>
  </g>
  <path class="cls-1" d="M143.79,24.15c-.53-5.42-2.29-14.19-.68-19.39l-88.07,1.62c-3.36,9.42-3.61,19.92-.72,29.49,1.25,4.13,4.22,8.8,8.5,8.28,4.53-.55,6.29-6.37,10.26-8.63,3.8-2.16,8.61-.54,12.42,1.61s7.62,4.88,12,4.89c7.8.03,13.67-8.53,21.47-8.38,6.5.13,12.49,6.4,18.64,4.29,5.15-1.77,6.72-8.37,6.19-13.79Z"/>
  <g>
    <path class="cls-6" d="M200.22,148.26c.47-1.07.5-2.36-.06-3.37-1.41-2.5-4.33-3.97-6.06-6.33-1.72-2.35-2.32-5.38-4.05-7.64-1.56-2.04-5.65-2.41-6.22.81-.52,2.87.42,5.78,1.83,8.38-.03.03-.06.04-.09.08-1.3,1.59-2.84,4.24-3.61,6.91-.11,0-.21-.02-.32-.03.15-.23.32-.42.46-.66.75-1.29.56-2.99-.23-4.23.5-.57.98-1.15,1.39-1.74,1.44-2.1.07-4.16-1.84-4.86-.01-2.72-3.24-4.78-6.04-2.56-12.33,9.77-32.02,9.29-46.98,10-16.42.78-32.69-.24-49.09-.4-5.27-.05-5.07,7.57,0,8.06.18.02.36.03.55.04.22,1.43,1.3,2.73,3.23,2.85,19.77,1.17,39.64.82,59.45.92,8.13.04,20.08,2.06,29.2-.53,3.64.38,7.28.76,10.93,1.11.5.05.94,0,1.35-.11,2.17,1.19,4.89-.03,7.35-1.62.68.57,1.49,1.01,2.33,1.23.59.15,1.32.22,1.93.21.53,0,1.29.31.3-.17,3.55,1.69,6.69-1.68,5.15-5.15-.2-.44-.5-.84-.85-1.2Z"/>
    <path class="cls-6" d="M275.33,145.06c-3.26-.28-6.64.47-9.93.57-3.33.1-6.66-.34-9.98-.13-3.81.25-4.37,5.17-.88,6.49,6.32,2.37,16.39,2.23,22.39-1.01,2.97-1.61,1.33-5.67-1.6-5.92Z"/>
    <path class="cls-6" d="M27.89,137.6c-2.58.66-4.55,2.7-6.95,3.84-2.36,1.12-5.12,1.27-7.34,2.62-2.51,1.53-1.8,5,.78,5.93,2.17.78,4.73.34,7.07-.43.85,1.09,2.31,1.72,3.69,1.26.79-.26,1.57-.52,2.32-.9,1.02-.5,1.9-1.94,1.77-3.09-.04-.4-.12-.72-.21-1.03,1.33-1.06,2.42-2.35,3.05-4.03.94-2.53-1.86-4.77-4.18-4.18Z"/>
  </g>
  <g>
    <path class="cls-10" d="M220.19,66.33c-.69-1.12-1.52-2.6-2.54-3.41-1.06-.84-2.52-1.29-3.77-.49-1.2.77-1.75,2.12-1.43,3.51.3,1.33,1.2,2.64,1.94,3.78.84,1.29,2.29,1.9,3.79,1.54.94-.22,1.45-.82,2.01-1.54.7-.9.56-2.47,0-3.39Z"/>
    <path class="cls-10" d="M209.93,67.33c-2.28-2.42-6.29.1-5.47,3.19.45,1.7,1.42,3.29,2.47,4.68,1.31,1.75,2.85,3.98,5.33,3.82,1.85-.12,3.26-1.43,3.33-3.33.08-2.18-1.6-3.44-2.89-4.94-1.03-1.19-1.69-2.29-2.76-3.42Z"/>
  </g>
  <path class="cls-10" d="M275.84,122.23c-.38-1.66-2.37-2.79-3.99-2.27-1.84.59-2.54,2.19-2.27,3.99.22,1.44.37,2.95,1.23,4.17.71,1,1.71,1.59,2.97,1.42,1.13-.15,2.2-.99,2.48-2.14.43-1.75-.02-3.47-.42-5.19Z"/>
  <g>
    <path class="cls-2" d="M78.61,23.47c-4.66.59-7.85,3-10.58,6.67-2.36,3.17,2.59,6.54,5.27,4.07,1.8-1.66,4.37-2.79,6.81-2.93,2.51-.14,4.72,1.14,7.18,1.38,2.5.25,4.5-3.19,3-5.23-2.65-3.6-7.4-4.51-11.68-3.97Z"/>
    <path class="cls-2" d="M124.38,25.66c-4.8-3.55-12.17-2.54-17.1.12-3.41,1.84-1.09,7.62,2.67,6.34,4.56-1.56,8.13-.8,12.76-.28,3.65.41,3.97-4.48,1.67-6.18Z"/>
  </g>
  <g>
    <path class="cls-5" d="M66.14,53.1c5.79-.77,11.29-2.91,17.16-3.24,6.5-.37,12.71,1.72,19.13,1.8,6.46.08,11.95-2.15,18.73-1.16,4.73.69,9.33,2.2,14.15,1.69,8.1-.86,16.21-5.57,16.7-14.31.21-3.81-5.88-5.72-7.48-2.03-3.02,6.95-8.67,7.68-14.77,7.04-.1-1.2-.66-2.41-1.66-3.16-6.26-4.7-16.22-2.47-22.62.66-.81.4-1.29,1.02-1.53,1.73-2.43.18-4.89.25-7.42-.05-1.93-.23-3.83-.43-5.73-.58-.09-.31-.21-.61-.39-.89-2.21-3.29-6.28-4.74-10.15-4.71-3.98.04-8.62,1.54-9.17,5.97-.06.46.03.88.2,1.28-7.35,1.75-14.64,3.34-20.59-2.95-2.89-3.05-6.98.81-5.45,4.2,3.64,8.05,12.88,9.76,20.89,8.7Z"/>
    <path class="cls-5" d="M182.94,84.93c-.45-5.15-.44-10.28-.64-15.44-.08-1.94-1.66-3.2-3.31-3.42,1.81-8.1,1.88-16.74,1.03-24.62-.5-4.58-6.73-4.64-7.17,0-1.62,16.86-.75,35-18.1,44.14-12.29,6.47-27.68,7.46-41.23,9.11-29.66,3.62-59.56,4.03-89.23,7.29-5.14.56-5.42,8.36,0,8.24,21.92-.47,44.06-1.8,66.05-3.99.49,1.02,1.45,1.83,2.88,1.95,10.74.92,22.1,2.6,32.83,1.12,1-.14,1.66-.73,2-1.5,5.36.3,10.66-.29,15.98-.92.75.96,1.84,1.64,3.21,1.69,5.32.2,10.45-.2,15.7-1.06.33-.05.62-.15.9-.27,1.41,1.36,3.9,1.18,5.61-.02,1.11.52,2.4.61,3.51.23,2.33,2.72,7.66.87,7.49-2.97-.01-.31-.03-.63-.04-.95,1.64-.13,3.26-1.37,3.45-3.43.47-5.05-.49-10.16-.93-15.2Z"/>
  </g>
  <g>
    <path class="cls-4" d="M285.95,117.12c-1.62-10.44-5.27-21.09-14.11-27.6-4.97-3.66-12.07-4.32-16.28-8.96-4.53-5-5.29-13.22-6.17-19.57-1.38-9.95-3.38-20.37-12.11-26.57-8.98-6.38-20.87-5.61-31.33-5.62-5.3,0-12.9-1-19.1.47,0-8.31-.62-17.45-6.59-23.25C172.23-1.78,158.38.28,148.21.16c-29.11-.36-58.26-.07-87.31,1.93-13.45.93-27.01,1.98-40.35,4.01-9.38,1.43-15.8,5.26-17.54,15.05-2.46,13.87-1.53,29.2-1.23,43.23.32,14.93,1.26,29.89,3.2,44.7-.41.25-.82.5-1.19.81C.39,112.74.1,116.94.03,121.07c-.14,7.93.31,16.06.73,23.98.69,13.01,12.74,11.06,23.15,11.65.4,7.58,3.59,15.04,9.27,20.54,11.01,10.66,28.98,12.41,41.59,3.52,7.53-5.31,11.75-13.96,11.38-22.43,18.27.93,36.59.92,54.87,1.31,10.76.23,21.52.51,32.28.93,7.25.28,15.07,1.51,22.4.97,1.87,10.01,8.86,18.89,18.86,22.79,15.06,5.87,33.51-.5,40.94-15.05,1.45-2.85,2.34-5.84,2.75-8.85,9.12-.67,19.25-2,25.06-9.93,6.77-9.23,4.26-22.93,2.64-33.38ZM127.65,8.88c3.52,0,7.05-.01,10.58-.01.77,5.36,3.75,27.94-5.42,27.32-2.65-.18-6.73-4.59-9.27-5.7-2.39-1.04-5.06-1.82-7.71-1.68-5.26.27-7.18,3.17-10.9,6.08-7.77,6.07-10.74-.19-17.08-4.33-3.76-2.44-7.33-3.22-11.57-1.38-4.55,1.97-6.44,6.95-10.46,9.33-12.37,7.32-10.01-20.41-9.3-27.24,1.47-.11,2.94-.23,4.41-.33,22.21-1.53,44.49-2.06,66.75-2.06ZM258.05,151.58s-.05,0-.07.01c-1.56-7.46-6.47-13.99-14.46-17.04-4.16-1.59-5.92,4.45-2.82,6.69,22.29,16.16-3.13,45.69-25.11,33.87-9.67-5.2-14.88-17.58-9.8-27.82,4.99-10.04,15.82-11.76,25.87-10.5,4.49.56,5.06-6.41,1.03-7.64-14.25-4.35-30.57,3.07-35.77,17.26-.84,2.29-1.33,4.61-1.56,6.93-3.08-.65-6.38-.92-9.69-1.04,3.26-18.6,2.69-40.05.14-58.31-.56-4-6.52-2.73-6.73.91-.2,3.61-.27,7.23-.3,10.86-10.32-.65-20.64-.75-30.99-.89-11.42-.16-23.22-1.03-34.57.32-3.42.41-5.08,6.09-.91,6.7,11.1,1.63,22.55,1.23,33.75,1.38,10.91.15,21.79.37,32.69-.01,0,4.07.02,8.15-.06,12.21-.18,8.86-1.14,17.83-1.01,26.7-1.49-.02-2.97-.04-4.38-.1-10.75-.45-21.51-.75-32.28-.97-18.68-.38-37.55-.92-56.21.5-1.06-2.91-2.71-5.69-5.1-8.15-2.92-3.01-7.8.83-5.75,4.44,12.93,22.74-17.58,39.44-34.52,23.1-7.79-7.51-9.29-20.28-2.28-28.8,8.18-9.95,20.35-8.06,30.22-1.99,3.69,2.27,8.11-3.18,4.72-6.11-12.12-10.46-30.82-10.09-41.48,2.36-2.93,3.42-4.84,7.36-5.87,11.49,0,0-.02,0-.03,0-2.66-.19-13.65.57-15.28-1.05-1.37-1.36-.27-10.56-.35-13.01-.13-4.02-1.88-11.17-.43-14.92,2.04-5.25,14.4-4.11,18.9-4.49,23.55-2.02,46.92-2.58,70.51-3.35,4.82-.16,4.67-6.94,0-7.38-17.01-1.58-34.6-.45-51.61.66-9.17.6-18.33,1.4-27.48,2.2-1.71.15-3.62.19-5.56.33-2.08-22.34-3.37-44.62-2.69-67.08.15-5.04.15-10.17.72-15.18,1.01-8.72,8.01-9.58,15.36-10.49,7.02-.87,14.05-1.58,21.1-2.19-2.52,10.41-2.14,25.66,5.3,33.45,4.37,4.57,10.4,5.1,15.74,1.77,3.82-2.38,6.24-7.56,10.56-8.85,4.4-1.32,6.36,2.3,10,4.85,5.01,3.51,11.11,5.57,16.77,2.3,5.93-3.42,5.77-9.64,15.39-6.03,3.59,1.35,6.08,4.75,9.96,5.79,18.06,4.84,16.88-24.09,15.45-36.35,4.95.04,9.9.12,14.83.34,6.32.28,12.19,1.09,14.65,7.66,2.01,5.36,1.21,12.41,1.68,18.16-.18.3-.38.59-.54.92-2.45,5.11-1.37,11.53-1.18,16.94.29,8.18.48,16.37,1.23,24.53.42,4.51,7.02,4.67,7.14,0,.14-5.26.03-10.51-.12-15.77-.13-4.8-1.32-11.01-.48-15.77,1.57-8.84,7.81-8.9,15.15-8.78,4.76.08,9.52.1,14.28.19,10.6.2,20.65,1.78,24.55,13.07,2.68,7.75,2.34,16.16,4.6,24.02,1.61,5.61,4.3,11.04,8.94,14.72,7.45,5.91,16.23,6.04,21.26,15.32.95,1.75,1.71,3.64,2.38,5.6-8.11-.28-23.71,1.22-22.59,10.48.39,3.21,5.32,4.6,6.16.83,1.16-5.2,13.15-4.2,18.25-4.42,1.03,5.29,1.41,10.77,1.45,15.79-6.05.61-18.33,3.16-19.47-2.64-.69-3.49-6.36-2.7-6.2.84.5,11.02,15.35,11.86,24.77,9.69-2.55,8.04-10.18,10.25-19.77,10.94Z"/>
    <path class="cls-4" d="M215,47.18c-5-.83-11.86-1.46-16.66.62-5.78,2.51-6.17,8.09-6.5,13.68-.69,11.74-3.06,29.72,13.7,28.55,3.6-.25,5.02-6.21.92-6.79-9.42-1.32-7.33-12.07-6.99-19.16.23-4.8.57-8.66,6.26-9.75,2.82-.54,7.16.09,9.86.78,7.46,1.9,9.87,8.48,11.67,15.19.87,3.24,2.6,7.5-.15,10.39-2.17,2.27-6.79,2.32-9.64,2.65-4.1.48-4.19,6.06,0,6.45,11.78,1.1,20.51-5.17,18.06-17.51-2.36-11.94-7.45-22.93-20.53-25.11Z"/>
  </g>
</svg>