<?xml version="1.0" encoding="UTF-8" standalone="no"?><!DOCTYPE svg PUBLIC "-//W3C//DTD SVG 1.1//EN" "http://www.w3.org/Graphics/SVG/1.1/DTD/svg11.dtd"><svg width="100%" height="100%" viewBox="0 0 267 267" version="1.1" xmlns="http://www.w3.org/2000/svg" xmlns:xlink="http://www.w3.org/1999/xlink" xml:space="preserve" xmlns:serif="http://www.serif.com/" style="fill-rule:evenodd;clip-rule:evenodd;stroke-linejoin:round;stroke-miterlimit:2;"><path d="M51.413,124.306l0,49.68c0,1.15 -0.932,2.083 -2.083,2.083l-20.075,0c-3.531,0 -6.849,-1.688 -8.928,-4.542c-2.079,-2.854 -2.669,-6.53 -1.586,-9.891c2.958,-9.185 7.026,-21.813 9.797,-30.418c2.127,-6.602 8.271,-11.078 15.208,-11.078l14.322,0c4.584,0.009 6.113,1.046 5.731,2.083c0.382,1.037 -1.147,2.074 -5.731,2.083l-6.655,0Z" style="fill:#fc7731;"/><path d="M51.86,120.14l6.208,0c4.584,0.009 6.113,1.046 5.731,2.083c0.382,1.037 -1.147,2.074 -5.731,2.083l-6.655,0l0,49.68c0,1.15 -0.932,2.083 -2.083,2.083l-11.715,0l14.245,-55.929Z" style="fill:#f3581d;"/><path d="M101.313,122.388c0.086,1.083 0.99,1.918 2.077,1.918l9.291,0c0.599,0 1.17,-0.258 1.565,-0.709c0.396,-0.45 0.578,-1.049 0.501,-1.644c-0.582,-4.451 -1.003,-9.075 -1.244,-13.828c3.988,0.109 7.974,0.202 11.966,0.279c4.095,0.079 8.188,0.147 12.283,0.135c4.096,-0.011 8.189,-0.104 12.283,-0.203c3.945,-0.096 7.881,-0.21 11.82,-0.335c-0.235,4.797 -0.655,9.462 -1.238,13.954c-0.077,0.594 0.105,1.193 0.501,1.643c0.395,0.45 0.966,0.708 1.565,0.708l9.55,0c1.086,0 1.99,-0.834 2.077,-1.916c0.385,-4.793 0.592,-9.753 0.607,-14.833c13.163,-0.465 26.272,-0.941 39.483,-1.087c0.027,0.001 0.055,0.002 0.083,0.002c1.143,0.011 2.082,-0.902 2.102,-2.045c0.009,-0.49 0.014,-0.976 0.014,-1.463c-0,-0.491 -0.005,-0.982 -0.014,-1.474c-0.019,-1.029 -0.786,-1.89 -1.806,-2.026c-9.195,-1.233 -18.315,-2.415 -27.531,-3.395c-4.267,-0.454 -8.519,-0.868 -12.782,-1.24c-0.495,-6.997 -1.341,-13.715 -2.493,-20.033c9.192,-2.8 17.395,-6.581 24.21,-11.102c1.854,-1.231 3.608,-2.514 5.252,-3.844c0.859,-0.695 1.026,-1.939 0.382,-2.836c-1.006,-1.399 -2.055,-2.763 -3.147,-4.09c-0.694,-0.844 -1.922,-1.008 -2.814,-0.376c-1.484,1.052 -3.059,2.059 -4.716,3.019c-6.156,3.565 -13.442,6.447 -21.52,8.476c-1.393,-5.405 -3.03,-10.408 -4.87,-14.911c-4.999,-12.234 -11.571,-20.812 -18.573,-24.427c-0.235,-0.121 -0.491,-0.197 -0.755,-0.222c-2.526,-0.245 -5.086,-0.37 -7.675,-0.37c-2.567,-0 -5.105,0.123 -7.611,0.363c-0.264,0.026 -0.521,0.101 -0.757,0.223c-7.003,3.616 -13.563,12.213 -18.545,24.47c-1.652,4.064 -3.14,8.534 -4.435,13.341c-7.738,-2.369 -14.677,-5.514 -20.511,-9.243c-1.486,-0.949 -2.899,-1.936 -4.23,-2.958c-0.866,-0.665 -2.099,-0.548 -2.825,0.268c-2.513,2.823 -4.828,5.831 -6.921,8.999c-0.609,0.923 -0.391,2.162 0.497,2.821c1.737,1.289 3.579,2.521 5.524,3.692c7.206,4.338 15.829,7.858 25.436,10.299c-0.996,5.799 -1.737,11.918 -2.187,18.269c-7.403,0.66 -14.771,1.471 -22.172,2.358c-6.132,0.735 -12.19,1.586 -18.309,2.45c-1.013,0.143 -1.773,1.001 -1.791,2.024c-0.009,0.493 -0.014,0.984 -0.014,1.475c0,0.487 0.004,0.973 0.013,1.463c0.021,1.143 0.96,2.056 2.103,2.045c0.022,0 0.044,-0 0.067,-0.001c6.15,0.136 12.235,0.358 18.38,0.539c7.109,0.21 14.177,0.476 21.262,0.719c0.013,5.019 0.216,9.92 0.592,14.659Zm59.74,-44.829c0.588,5.2 0.945,10.66 1.043,16.309c-3.968,-0.273 -7.937,-0.507 -11.916,-0.68c-4.14,-0.18 -8.281,-0.311 -12.426,-0.324c-4.143,-0.013 -8.286,0.092 -12.427,0.248c-4.028,0.153 -8.047,0.357 -12.065,0.614c0.099,-5.22 0.418,-10.278 0.936,-15.117c7.483,1.185 15.403,1.748 23.59,1.59c0.006,0 0.012,-0 0.018,-0c8.1,-0.228 15.904,-1.14 23.246,-2.64l0.001,0Zm-1.749,-11.462c-6.814,1.021 -14.034,1.469 -21.498,1.26c-0.006,-0.001 -0.012,-0.001 -0.018,-0.001c-7.505,-0.144 -14.724,-0.959 -21.499,-2.34c0.925,-4.519 2.044,-8.74 3.333,-12.595c2.322,-6.939 5.12,-12.69 8.368,-16.729c2.902,-3.609 6.118,-5.82 9.71,-5.984c3.649,0.156 6.866,2.378 9.764,6.006c3.231,4.045 6.01,9.799 8.317,16.737c1.38,4.153 2.564,8.729 3.523,13.646Z" style="fill:#c4d4ff;"/><path d="M205.485,98.238c0.484,2.734 0.82,5.524 0.998,8.357c2.637,-0.053 5.275,-0.095 7.917,-0.125c0.027,0.001 0.055,0.002 0.083,0.002c1.143,0.011 2.082,-0.902 2.102,-2.045c0.009,-0.49 0.014,-0.976 0.014,-1.463c-0,-0.491 -0.005,-0.982 -0.014,-1.474c-0.019,-1.029 -0.786,-1.89 -1.806,-2.026c-3.104,-0.417 -6.2,-0.827 -9.294,-1.226Zm-20.528,-39.493c2.4,2.418 4.637,5.002 6.691,7.731c1.571,-0.892 3.085,-1.82 4.535,-2.782c1.854,-1.231 3.608,-2.514 5.252,-3.844c0.679,-0.549 0.926,-1.44 0.681,-2.232c-1.417,-1.848 -2.905,-3.638 -4.461,-5.367c-0.593,-0.177 -1.258,-0.086 -1.799,0.297c-1.484,1.052 -3.059,2.059 -4.716,3.019c-1.951,1.129 -4.015,2.191 -6.183,3.178Zm-110.595,5.047c3.292,-3.983 6.991,-7.619 11.03,-10.845c-1.305,-0.851 -2.552,-1.731 -3.734,-2.638c-0.866,-0.665 -2.099,-0.548 -2.825,0.268c-2.513,2.823 -4.828,5.831 -6.921,8.999c-0.609,0.923 -0.391,2.162 0.497,2.821c0.637,0.473 1.288,0.938 1.953,1.395Zm41.86,-25.483c3.957,-6.513 8.458,-11.183 13.157,-13.61c0.236,-0.122 0.493,-0.197 0.757,-0.223c2.506,-0.24 5.044,-0.363 7.611,-0.363c2.589,-0 5.149,0.125 7.675,0.37c0.264,0.025 0.52,0.101 0.755,0.222c5.748,2.968 11.205,9.278 15.739,18.208c-3.937,-1.728 -8.051,-3.127 -12.306,-4.161c-0.691,-1.098 -1.407,-2.113 -2.146,-3.038c-2.898,-3.628 -6.115,-5.85 -9.764,-6.006c-3.592,0.164 -6.808,2.375 -9.71,5.984c-0.286,0.356 -0.569,0.725 -0.848,1.108c-3.72,0.237 -7.365,0.746 -10.92,1.509Z" style="fill:#a9bff9;"/><path d="M51.58,122.687c0.216,0.947 1.059,1.619 2.031,1.619l9.809,0c0.644,0 1.252,-0.298 1.647,-0.808c0.395,-0.509 0.531,-1.173 0.369,-1.797c-1.549,-5.985 -2.373,-12.266 -2.373,-18.737c-0,-41.22 33.465,-74.685 74.684,-74.685c41.22,0 74.685,33.465 74.685,74.685c0,6.471 -0.824,12.75 -2.373,18.737c-0.162,0.624 -0.026,1.288 0.369,1.797c0.395,0.51 1.003,0.808 1.647,0.808l9.809,0c0.972,0 1.815,-0.672 2.031,-1.619c1.448,-6.344 2.213,-12.945 2.213,-19.723c0,-48.779 -39.602,-88.381 -88.381,-88.381c-48.778,0 -88.38,39.602 -88.38,88.381c-0,6.779 0.765,13.38 2.213,19.723Z" style="fill:#0000ad;"/><path d="M117.501,121.584c-0.277,-0.861 -1.079,-1.444 -1.983,-1.444l-66.188,-0c-1.151,-0 -2.083,0.932 -2.083,2.083l-0,111.105c-0,10.358 8.397,18.755 18.755,18.755c33.738,0 109.753,0 143.491,0c10.358,0 18.755,-8.397 18.755,-18.755c0,-0 0,-59.342 0,-59.342c0,-1.151 -0.933,-2.084 -2.083,-2.084l-81.829,0c-6.334,0 -11.945,-4.087 -13.887,-10.116c0,0 -12.948,-40.202 -12.948,-40.202Z" style="fill:#ff9100;"/><path d="M138.165,170.534c2.429,1.985 5.369,3.374 8.608,3.946l81.475,14.373l0,-14.867c0,-1.151 -0.933,-2.084 -2.083,-2.084l-81.829,0c-2.183,0 -4.28,-0.485 -6.171,-1.368Z" style="fill:#dc7206;"/><path d="M228.248,213.526l-181.001,-0l-0,19.802c-0,10.358 8.397,18.755 18.755,18.755c33.738,0 109.753,0 143.491,0c10.358,0 18.755,-8.397 18.755,-18.755l0,-19.802Z" style="fill:#feb452;"/><path d="M66.002,140.978l24.643,0c1.15,0 2.084,-0.933 2.084,-2.083c-0,-1.15 -0.934,-2.083 -2.084,-2.083l-24.643,-0c-1.15,-0 -2.083,0.933 -2.083,2.083c-0,1.15 0.933,2.083 2.083,2.083Z" style="fill:#feb452;"/><path d="M66.002,158.992l38.725,-0c1.149,-0 2.083,-0.934 2.083,-2.084c-0,-1.15 -0.934,-2.083 -2.083,-2.083l-38.725,-0c-1.15,-0 -2.083,0.933 -2.083,2.083c-0,1.15 0.933,2.084 2.083,2.084Z" style="fill:#feb452;"/><path d="M238.128,131.218c-2.126,-6.602 -8.27,-11.078 -15.207,-11.078c-28.507,-0 -107.403,-0 -107.403,-0c-0.666,-0 -1.292,0.318 -1.684,0.856c-0.392,0.539 -0.503,1.232 -0.299,1.866c-0,-0 8.035,24.945 12.948,40.202c2.497,7.751 9.71,13.005 17.853,13.005c22.505,0 70.451,0 93.075,0c3.531,0 6.849,-1.688 8.929,-4.542c2.079,-2.854 2.668,-6.53 1.586,-9.891l-9.798,-30.418Z" style="fill:#feb452;"/></svg>