<?xml version="1.0" encoding="UTF-8"?>
<svg id="Layer_1" data-name="Layer 1" xmlns="http://www.w3.org/2000/svg" viewBox="0 0 328.75 242.35">
  <defs>
    <style>
      .cls-1 {
        fill: #ffb026;
      }

      .cls-1, .cls-2, .cls-3, .cls-4, .cls-5, .cls-6, .cls-7, .cls-8, .cls-9 {
        stroke-width: 0px;
      }

      .cls-2 {
        fill: #e07707;
      }

      .cls-3 {
        fill: #380101;
      }

      .cls-4 {
        fill: #ab6238;
      }

      .cls-5 {
        fill: #ade4ff;
      }

      .cls-6 {
        fill: #7a7a7a;
      }

      .cls-7 {
        fill: #e8974f;
      }

      .cls-8 {
        fill: #fff;
      }

      .cls-9 {
        fill: #c2c2c2;
      }
    </style>
  </defs>
  <path class="cls-9" d="M41.86,202.44s-8.55-8.18-14.88-30.5c-6.32-22.32-9.05-43.56,4.77-46.14,13.82-2.58,149.66,3.73,167.81-3.32,18.15-7.06,19.68-23.43,27.13-24.55,7.46-1.12,80.03-.88,88.5,7.02,8.47,7.91,4.87,45.79-13.72,72.94-18.6,27.15-33.1,26.78-33.1,26.78,0,0-30.13,8.93-54.67-4.46,0,0-49.47,23.06-84.06-1.49,0,0-40.54,19.71-78.11-1.86l-9.67,5.58Z"/>
  <path class="cls-7" d="M47.11,125.15s-.41-45.53,1.31-51.93c1.72-6.41,45.34-4.41,45.34-4.41,0,0-2.88-54.5,0-58.83s69.64-6.06,79.11-.61c0,0,59.01-9.12,70.8,0,6.03,6.5,4.51,56.41,4.51,56.41,0,0,18.03-.92,15.93,30.28,0,0-29.88-4.45-39.31,3.15-9.44,7.6-13.56,22.87-29.87,24.41-16.31,1.55-147.83,1.52-147.83,1.52Z"/>
  <g>
    <path class="cls-1" d="M67.82,68.08c-.97,5.98-1.49,12.02-1.58,18.07-.05,3.2.22,6.82,2.68,8.86,2.53,2.11,6.3,1.62,9.45.64,3.15-.98,6.41-2.35,9.62-1.63,2.84.64,5.14,2.82,7.99,3.4,3.97.8,8.02-1.85,9.98-5.39,1.96-3.54,2.23-7.76,2.13-11.8-.11-4.04-.55-8.13.15-12.11l-40.4-.04Z"/>
    <path class="cls-1" d="M139.85,69.46c-.85,5.04-.59,10.26.77,15.19.7,2.53,1.86,5.18,4.2,6.37,2.28,1.16,5.06.59,7.42-.38,2.37-.97,4.62-2.33,7.14-2.75,3.69-.61,7.37.85,10.82,2.27,1.37.56,2.76,1.13,4.24,1.24s3.06-.31,4.02-1.44c.93-1.09,1.11-2.61,1.21-4.04.36-4.96.29-9.96-.22-14.91l-39.62-1.56Z"/>
    <path class="cls-1" d="M142.77,24.34c1.68.31,3.19,1.21,4.76,1.88,1.57.67,3.39,1.12,4.97.48,2.25-.9,3.18-3.56,3.6-5.94.81-4.52.76-9.2-.13-13.7l-38.64-.21c-.62,4.47-1.24,9.1.02,13.44s4.91,8.32,9.43,8.45c5.61.16,10.47-5.42,15.99-4.41Z"/>
    <path class="cls-1" d="M219.82,28.39c2.39,1.13,5.21,2.05,7.61.95,2.85-1.31,3.82-4.87,4.02-8,.34-5.47-.67-11.02-2.93-16.02l-34.74,2.51c-.09,5.42.51,10.86,1.77,16.13.58,2.43,1.54,5.11,3.83,6.12,2.13.94,4.6.05,6.63-1.1,2.02-1.15,4-2.59,6.31-2.82,2.63-.26,5.11,1.11,7.5,2.23Z"/>
    <path class="cls-1" d="M247.3,66.49l-33.65,1.71c-.3,3.63-.59,7.28-.14,10.89.45,3.61,1.69,7.22,4.13,9.92,2.44,2.7,6.2,4.35,9.78,3.67,2.74-.51,5.29-2.31,8.05-1.97,2.35.29,4.46,2.11,6.8,1.75,2.76-.42,4.13-3.56,4.75-6.28,1.47-6.45,1.56-13.21.28-19.69Z"/>
  </g>
  <path class="cls-5" d="M32.78,205.3s-14.41,6.81-27.78,2.1c4.98,21.79,37.74,12.06,35.38,28.83,14.88,3.43,35.51-11.52,48.97-12.11,13.45-.6,29.32,10.31,38.87,11.06,19.73,1.56,31.42-4.43,49.63-2.99,29.86,2.36,33.58,3.52,49.93-2.7,22.12-8.42,33.71,5.05,49.53-3.07,23.32-11.96,30.89.39,46.42-16.38,0,0-33.23-12.61-40.98-11.68s-24.79,12.9-42.72,9.31c-17.94-3.59-20.45-6.97-30.11-5.88s-31.81,11.03-45.55,8.15c-13.74-2.87-26.72-10.36-38.17-9.76-11.45.6-20.97,10.02-41.34,6.29-20.37-3.74-26.72-9.44-37.13-7.41s-14.95,6.24-14.95,6.24Z"/>
  <path class="cls-6" d="M253.82,153c-41.44,1.18-82.64,4.44-124.15,4.34-9.83-.02-19.66-.14-29.49-.34-10.59-.21-21.64-1.56-32.2-.57-13.82,1.29-20.98,12.22-19.4,25.59.67,5.66,2.11,12.36,4.5,18.72,6.36-.08,12.26.33,18.9,2.79,9.76,3.62,21.29,4.32,31.58,2.59,8.75-1.47,16.94-5.72,25.93-5.71,8.03,0,15.43,3.06,22.79,5.93,10.9,4.25,20.78,5.84,32.44,3.73,9.57-1.73,18.43-6.18,27.88-7.97,9.27-1.76,17.08,2.38,25.93,4.13,4.31.85,8.7,1.2,13.1,1.37,11.65-7.26,23.21-18.94,26.73-32.34,4.12-15.68-11.6-22.63-24.54-22.26Z"/>
  <g>
    <path class="cls-4" d="M108.38,116.15c-15.03-1.06-31.63-.3-46.68.59-3.68.22-5.05,6.21-.93,6.87,15.21,2.42,33.46,2.73,48.52-.73,3.95-.91,2.78-6.47-.91-6.73Z"/>
    <path class="cls-4" d="M178.65,92.3c-4.38,3.76-11.09.18-16.94.38-.29-1.89-1.86-3.49-4.32-2.75-2.9.88-5.88,2.02-8.6,3.52-.62-.38-1.38-.59-2.3-.55-1.96.09-3.76.67-5.41,1.58-.86-1.62-1.21-3.48-1.51-5.79-.2-1.53.23-2.94-.5-4.44-.08-.17-.18-.3-.26-.45.8-.33,1.58-.76,2.31-1.36,2.16-1.75.84-5.4-1.59-6.04-2.4-.64-4.67.05-7.09.27-2.35.22-4.88.04-7.13.79-2.13.72-3.25,3.62-1.99,5.41-.02.08-.05.15-.06.24-.89,5.56-1.31,11.12-1.6,16.74-.29,5.48-1.72,12.36-.63,17.74,1.05,5.22,6.15,6.48,11.54,6.64.33.06.67.09,1.03.11.57.02,1.12-.02,1.66-.1,3.04-.07,5.98-.34,8.12-.29,1.4.03,2.48-.53,3.21-1.39,2.76,1.89,5.94,3.32,9.05,4.36,3.37,1.12,5.4-1.58,5.27-4.29,5.35,1.98,11.49,2.53,16.48,1.86,5-.67,5.03-7.16,0-7.81-5.57-.72-11.54-.05-16.4-3.39-5.66-3.88-5.36-12.66,2.69-12.98,4.43-.18,8.48,2.29,13.01,1.5,3.79-.66,6.44-2.54,7.78-6.12,1.32-3.54-3.44-5.43-5.82-3.39Z"/>
    <path class="cls-4" d="M216.51,93.21c-.18-.2-.38-.38-.59-.53-.06-1.06-.53-2.05-1.31-2.74-.3-1.19-1.21-2.26-2.38-2.79-.07-.82-.37-1.61-.87-2.23.32-.83.34-1.73.13-2.56.06-.04.12-.07.17-.11,1.58-1.16,2.66-3.97.71-5.48-1.91-1.47-3.81-1.65-6.15-1.66-2.09,0-4.19-.04-6.08.97-2.23,1.19-2.22,4.46-.29,5.87-.18.19-.35.37-.53.58-1.63,1.91-1.07,4.79.74,5.97-.56.53-.94,1.26-.98,2.14-.42,9.09.15,18.57,1.33,27.6.66,5,8.26,5.38,8.12,0-.04-1.3-.12-2.62-.18-3.93,1.58-.12,3.12-1.04,3.8-2.95,1.6-4.5,3.58-8.02,6.99-11.41,2.71-2.69.45-6.48-2.62-6.76Z"/>
    <path class="cls-4" d="M262.96,91.09c-1.57-1.48-3.72-2.01-5.18-3.61-1.47-1.6-2.17-3.71-2.49-5.84-.49-3.24-5.66-3.02-6.33,0-.37,1.67-.43,3.31-.21,4.9-1.03.38-1.89,1.2-2.17,2.32-.43,1.74-1.2,3.61-1.13,5.42.05,1.2.65,2.7,1.85,3.22.66.29,1.13.53,1.88.51,1.82-.05,2.95-1.16,3.6-2.74.11-.28.18-.58.25-.88,2.27,2.08,5.28,3.51,8.32,2.77,2.62-.64,3.57-4.22,1.6-6.07Z"/>
    <path class="cls-4" d="M212.98,39.1c6.81,1.06,13.53,2.67,19.15-2.33,3.45-3.07-.94-7.58-4.59-5.95-5.78,2.59-10.93.22-16.86-.18-5.2-.35-10.16,2.14-15.18.2-3.43-1.32-5.27,3.36-3.29,5.65,5.24,6.06,14.01,1.55,20.77,2.61Z"/>
    <path class="cls-4" d="M245.45,59.42c-9.2-.4-18.41.33-27.62.17-6.63-.12-26.19,1.54-29.4-5.72-2.99-6.77.17-18.7-.04-26-.2-7-1.13-13.84-4.84-19.89-2.15-3.5-7.43-1.2-6.54,2.76,2.63,11.7,2.18,22.28,2.12,34.16,0,.65,0,1.32,0,2-.92.48-1.64,1.41-1.76,2.82-.39,4.92-1.2,11.2.33,15.95.82,2.56,4.01,2.97,5.53,1.15.73.44,1.52.83,2.4,1.14,2.13.73,4.99,1.23,6.61-.75.07-.08.12-.17.19-.26,6.11,1.26,13.24,1,18.49,1.25,11.8.58,23.9.66,35.42-2.22,3.75-.94,2.79-6.39-.89-6.55Z"/>
    <path class="cls-4" d="M117.88,37.35c6.87,4.3,12.84.61,19.84-.76,7.11-1.39,13.74,3.46,20.55-.8,5-3.13,6.38-8.5,5.62-13.98-.55-4-6.4-2.66-6.66.9-.81,10.99-11.35,4.39-17.72,5.03-8.49.86-18.78,7.73-21.58-5.24-.67-3.12-5.99-3.32-6.51,0-.94,5.98,1.11,11.49,6.47,14.84Z"/>
    <path class="cls-4" d="M102.25,67.27c10.63,1.73,21.49,1.8,32.25,1.9,10.74.1,21.64.37,32.27-1.42,4.21-.71,2.75-6.63-.94-6.96-10.38-.94-20.91-.17-31.32-.23-10.42-.06-20.9-.77-31.31-.2-3.71.2-5.06,6.24-.93,6.91Z"/>
  </g>
  <g>
    <path class="cls-2" d="M88.64,86.15c-2.49-.65-5.26-.4-7.8-.23-4.1.27-4.11,6.12,0,6.38,2.54.16,5.31.41,7.8-.25,2.9-.77,2.92-5.13,0-5.9Z"/>
    <path class="cls-2" d="M164,83.68c-3.44-2.24-8.77-1.51-12.33,0-1.45.61-1.88,2.7-1.31,3.99.66,1.5,2.18,2.2,3.77,1.85,1.35-.3,2.61-.52,4.01-.48,1.45.05,2.79.56,4.23.62,3.35.16,4.14-4.34,1.62-5.98Z"/>
    <path class="cls-2" d="M235.64,81.92c-1.69-1.99-4.69-2.26-7.1-1.76-2.43.5-4.28,1.94-5.61,4-1.94,3.01,2.57,6.55,4.99,3.85.55-.61,1.32-1.07,1.98-1.19.22-.04.75-.05.89-.04.61.07,1.19.29,1.8.38,3.09.46,5.19-2.73,3.05-5.24Z"/>
    <path class="cls-2" d="M216.4,20.58c-3.57-1.7-7.89-1.48-11.54-.14-3.79,1.4-2.35,7.06,1.69,6.13,2.84-.66,5.4-.23,8.25-.08,3.05.16,4.44-4.55,1.6-5.91Z"/>
    <path class="cls-2" d="M139.65,17.81c-1.86-.51-4.03.33-5.86.76-1.64.38-2.77,2.36-2.25,3.97.56,1.74,2.2,2.63,3.97,2.25,1.92-.41,3.95-.58,5.49-1.89,1.79-1.52.73-4.52-1.34-5.09Z"/>
  </g>
  <g>
    <path class="cls-8" d="M63.44,203.82c-9.53-6.19-23.21-.29-32.09,4.5-3.48,1.88-1.04,7.04,2.61,6.2,4.84-1.11,9.35-3.29,14.19-4.38,4.65-1.04,8.88-.51,13.56.05,3.62.44,4.29-4.71,1.73-6.37Z"/>
    <path class="cls-8" d="M139.71,206.31c-4.63-3.05-10.18-3.98-15.65-3.45-6.24.61-11.69,4.73-17.96,4.63-3.61-.05-4.62,5.88-.88,6.47,5.11.81,8.99-.38,13.9-1.82,6.36-1.87,11.66-1.14,17.98.35,3.78.89,5.82-4.07,2.61-6.19Z"/>
    <path class="cls-8" d="M228.02,209.31c-14.92-9-28.49-1.02-43.62,2.16-3.75.79-2.99,7.24.92,6.8,5.9-.67,11.2-2.33,16.93-3.73,8.08-1.98,15.12-.97,23.08,1.16,3.84,1.03,6.1-4.33,2.69-6.39Z"/>
    <path class="cls-8" d="M288.36,201.89c-8.49-3.25-17.52,1.87-24.8,5.82-3.22,1.75-.99,7.48,2.55,6.06,3.29-1.32,6.72-2.52,10.12-3.51,3.76-1.1,7.35-1.18,11.2-1.58,3.92-.4,4.65-5.37.92-6.8Z"/>
  </g>
  <g>
    <path class="cls-3" d="M324.47,204.17c-8.32-.08-16.26-2.09-23.97-5.13-2.64-1.04-5.16-2.27-7.74-3.24,7.4-6.32,14.03-14.92,15.79-23.61.6-2.96-3.19-5.89-5.51-3.21-3.82,4.43-6.67,9.64-10.49,14.11-3.68,4.31-7.94,7.84-12.28,11.44-5.12,1.08-9.37,3.93-14.48,5.91-6.29,2.43-13.08,3.42-19.8,3.35-6.07-.06-12.23-.98-17.97-3.03-6.33-2.26-11.36-5.3-18.39-4.38-6.04.79-11.35,4.4-17.08,6.25-7.2,2.32-14.71,3.38-22.26,3.28-7.54-.09-15.04-1.36-22.16-3.87-5.7-2.01-10.83-5.73-16.88-6.63-7.72-1.15-13.79,2.41-20.96,4.51-7.14,2.09-14.57,2.95-22,2.65-7.4-.3-14.77-1.79-21.69-4.44-6.34-2.43-11.68-5.27-18.72-4.04-6.67,1.17-11.58,5.79-17.83,8.08-8.41,3.08-16.88,3.05-25.54,1.23-4.6-.97-6.43,5.57-1.94,7.05,11.78,3.9,24.75,2.59,35.86-2.84,4.46-2.18,8.14-5.24,13.42-5.1,4.52.12,8.32,2.57,12.41,4.12,5.86,2.22,11.96,3.63,18.18,4.33,7.22.82,14.48.62,21.65-.57,6.89-1.14,12.91-4.35,19.58-5.91,8.48-1.98,16.82,4.54,24.75,6.97,6.17,1.88,12.62,2.92,19.06,3.24,13.93.69,25.56-3.18,38.36-7.93,8.65-3.21,13.98.84,21.95,3.24,5.45,1.64,11.22,2.45,16.9,2.62,6.11.19,12.36-.44,18.29-1.99,6.61-1.73,12.9-6.69,19.56-7.45,7.05-.8,14.2,4.15,20.81,6.3,6.88,2.24,13.88,3.49,21.11,3.57,5.71.06,5.71-8.81,0-8.86Z"/>
    <path class="cls-3" d="M131.39,231.1c-4.31-1.36-8.82-1.82-13.16-3.13-4.92-1.49-9.21-3.95-13.86-6.02-6.32-2.81-13.19-3.52-19.95-2.06-8,1.72-13.84,7.38-21.21,10.54-9.44,4.06-18.9,4.22-28.95,3.19-3.98-.41-4.32,5.49-.9,6.65,15.92,5.41,31.02-.45,44.69-8.51,18.61-10.98,33.35,8.78,52.33,6.81,4.13-.43,5.31-6.1,1.01-7.45Z"/>
    <path class="cls-3" d="M264.46,230.41c-7.23-3.83-15.95-9.46-24.42-9.35-9.49.12-17.09,7.38-26.28,9.29-3.93.82-3.01,7.02.94,6.95,3.63-.06,7.08-.55,10.51-1.79,4.39-1.59,8.23-5.03,12.85-5.72,8.64-1.29,15.98,6.36,24.57,7.44,3.67.46,4.88-5.2,1.84-6.81Z"/>
    <path class="cls-3" d="M312.48,145.06c-1.31,3.8-2.39,7.59-3.97,11.32-1.62,3.82,3.22,6.86,5.65,3.3,2.69-3.93,4.6-8.94,4.77-13.75.14-3.86-5.29-4.25-6.46-.87Z"/>
    <path class="cls-3" d="M37,187.31c-5.28-13.41-10.02-25.61-11.72-40.05-1.11-9.39-.4-17.16,11.13-17.79,4.63-.25,9.35,0,13.99,0,23.75.01,47.5.03,71.26.04,19.02.01,38.05.08,57.07.03,10.71-.03,21.91-.94,31.14-6.97,3.66-2.4,6.84-5.48,9.27-9.12,2.03-3.03,3.22-6.46,6.05-8.9,4.58-3.94,10.17-3.52,15.84-3.5,20.46.04,41.19.89,61.49,3.56,6.27.83,12.1,1.38,12.67,8.93.12,1.59-.16,3.36-.23,4.95-.18,3.91-.2,7.81-.15,11.73.05,3.75,6.25,4.92,6.81.92.99-7.09,3.42-16.24,1.22-23.28-1.52-4.88-5.4-8.68-10.22-10.32-9.22-3.14-20.88-2.87-30.55-3.66-4.44-.36-8.88-.65-13.33-.89-.02-12.88,1.37-29.39-15.04-29.93-.41-.01-.83,0-1.24-.01.29-12.46.42-25-.16-37.45-.39-8.19-.36-18.28-8.71-22.59-8.84-4.57-23.1-2.61-32.67-2.45-12.19.21-24.65.94-36.63,3.4-3.29-1.75-7.35-2.02-11.27-2.35-10.12-.85-20.3-1.13-30.44-1-9.58.13-19.2.6-28.72,1.65-5.35.59-11.32,1.31-14.1,6.6-3.7,7.04-1.12,18.7-.97,26.3.19,9.66.12,19.41.8,29.06-11.24-.32-22.75-.69-33.59.77-13.29,1.79-11.49,12.81-11.64,23.35-.06,4.09,5.77,4.69,6.96.94,1.18-3.71-.44-9.96,1.22-12.91,1.79-3.17,6.57-3.59,10.96-3.51-2.87,13.07,1.25,35.65,17.95,26,2.9-1.67,3.65-2.57,6.93-1.18,2.56,1.08,4.36,2.39,7.25,2.84,3.61.56,7.62.01,10.46-2.42,2.3-1.97,3.07-4.47,3.51-7.38.88-5.92.85-12.31.45-18.39,2.89-.16,5.62-.09,6.73.76,3.03,2.32,1.27,12.54,1.25,15.77-.06,10.61-.05,21.21-.02,31.82-21.82-.01-43.63-.03-65.45-.04.01-2.98-.34-6.01-.44-8.98-.12-3.47.08-7.16-1.01-10.48-1.14-3.49-5.56-3.19-6.81,0-1.36,3.47-1.16,7.59-1.01,11.27.11,2.69.18,5.48.59,8.18-.44,0-.88,0-1.31,0-12.74,0-27.09,3.25-26.93,19.02.17,17.29,5.26,35.93,14.19,50.69,2.21,3.65,8.86,1.26,7.18-3.03ZM212.05,108.19c-2.15,3.29-5,5.75-8.23,7.61-.13-2.07-.35-4.15-.47-6.26-.22-4.12-5.93-4.01-6.33,0-.31,3.16-.99,6.29-1.06,9.47-1.42.39-2.86.73-4.32.98-9.55,1.61-19.94.71-29.6.71-11.95,0-23.9-.01-35.84-.02.12-8.39.26-16.77.31-25.16.04-7.22,1.11-15.16.01-22.27-.02-.14-.06-.24-.09-.38,3.47.34,6.98.53,10.53.59-1.26,6.52-1.92,15.5,1.5,20.59,5.72,8.52,14.05-.45,21.08-.45,7.06,0,13.85,7.34,20.73,1.91,5.55-4.38,4.67-14.61,4.03-21.98.98.02,1.95.03,2.93.05,1.99.04,5.53-.55,7.08.89,1.16,1.08.31,9.47.41,11.3.17,3.04.48,5.98.92,8.99.6,4.1,6.48,2.68,6.79-.92.42-4.99,2.07-14.9-.1-21.58,2.33-.15,4.67-.27,7.01-.36-.86,7.64-.3,16.95,4.94,22.65,1.4,1.52,3.26,2.76,5.29,3.27-3.06,2.87-4.95,6.44-7.51,10.36ZM175.97,73.39c.47,5.07,1,12.41-1.67,14.54-2.58,2.06-10.64-2.68-14.75-2.65-2.01.01-4.4.4-6.32.98-.92.28-4.43,2.54-5.52,2.51-4.46-.13-3.41-10.34-3.08-15.3,6.72-.08,13.42-.31,19.86-.23,3.83.05,7.65.1,11.48.15ZM243.83,70.66c.43,4.71,1.08,9.77-.58,14.13-2.42,6.33-4.66,1.95-8.3-.02-1.38-.74-2.8-1.15-4.33-1.14-4.37.03-5.48,4.55-9.22,4.53-5.17-.04-4.69-10.93-4.87-16.46,6.1-.12,12.2-.14,18.3-.24,2.29-.04,5.64-.51,9.01-.81ZM260.6,92.61c-3.1-.12-6.2-.22-9.3-.29-1.01-.02-2.05-.06-3.1-.11,4.51-5.89,4.57-14.24,3.6-21.57.7.12,1.35.29,1.91.51,8.1,3.32,7.02,13.87,6.9,21.45ZM224.88,9.46c1.54,4.82,3.54,11.8-.85,14.99-3.49,2.54-10.81-1.92-14.85-1.62-1.5.11-2.94.52-4.34,1.04-2.84,1.07-3.16,2.97-5.77.46-1.93-1.86-1.57-9.66-1.35-14.18,9.04-.57,18.08-.96,27.16-.7ZM152,9.79c.47,4.92,1.15,12.23-1.19,13.76-1.99,1.3-9.74-1.66-13.16-1.15-3.46.52-6.32,3.43-9.44,3.95-7.3,1.22-6.87-11.16-6.78-16.53,3.72-.18,7.44-.3,11.16-.35,6.47-.08,12.95.03,19.41.32ZM103.05,81.09c-.03,2.58.76,7.96-.52,10.36-4.08,7.67-11.98-2.74-17.26-2.76-4.82-.02-10.35,8.48-14.04.96-2.19-4.48-1.46-11.49-.43-16.59,10.28-.08,20.56-.11,30.84-.08.37,0,.85-.02,1.39-.06.02,2.72.05,5.45.02,8.17ZM101.64,64.45c-1.23,0-2.48-.03-3.73-.05.47-13.16-.24-26.43-.48-39.57-.08-4.5-1.75-10.72,3.52-13.38,2.74-1.39,8.37-.87,11.35-1.09.56-.04,1.12-.06,1.68-.1-.6,6.96-.07,16.9,4.64,22.07,5.08,5.57,10.68,1.66,16.03-.77,6.72-3.04,8.83.02,15.13.82,2.61.33,5.39-.2,7.31-2.14,4.33-4.39,3.36-13.59,2.62-20.24,6.03.29,11.86,1.54,12.42,8.48.9,11.08.04,22.26,1.64,33.28.45,3.11,5.81,3.1,6.27,0,1.13-7.58,1.39-15.36,1.34-23.02-.04-5.17.4-12-1.3-17.39,3.27-.22,6.53-.45,9.79-.68-.64,6.82-.63,15.97,3.38,21.04,1.96,2.47,4.41,3.61,7.59,3.14,1.72-.26,2.47-.85,4.16-1.59,4.25-1.85,6.53-2.08,11.02-.49,6.09,2.15,11.94.78,15.82-4.67,3.89-5.48,3.49-11.97,1.86-18.13,6.19.79,8.93,4.34,9.48,10.84.4,4.76.48,9.55.55,14.32.14,9.3-.15,18.59-.02,27.89-6.4.11-12.81.4-19.17.5-9.58.15-19.28-.04-28.63,2.24-4.38-1.22-9.94-1.05-15.1-.82-.02-.16-.03-.33-.04-.49-.18-1.45-.3-3.06-1.14-4.3-1.39-2.06-4.27-2.15-5.64,0-.8,1.26-.92,2.84-1.07,4.3-.02.21-.02.43-.04.64-17.16-.36-35.5-2.41-52.51-.39-.32.04-.62.13-.91.24-5.28-1.6-12.41-.49-17.8-.51Z"/>
  </g>
</svg>