<?xml version="1.0" encoding="UTF-8" standalone="no"?><!DOCTYPE svg PUBLIC "-//W3C//DTD SVG 1.1//EN" "http://www.w3.org/Graphics/SVG/1.1/DTD/svg11.dtd"><svg width="100%" height="100%" viewBox="0 0 267 267" version="1.1" xmlns="http://www.w3.org/2000/svg" xmlns:xlink="http://www.w3.org/1999/xlink" xml:space="preserve" xmlns:serif="http://www.serif.com/" style="fill-rule:evenodd;clip-rule:evenodd;stroke-linejoin:round;stroke-miterlimit:2;"><path d="M28.903,136.739l0.695,-0.28c-0.02,0.019 -0.07,0.06 -0.07,0.06c-0,-0 0.553,-0.248 0.993,-0.376c1.244,-0.361 3.066,-0.677 5.344,-0.965c9.334,-1.18 25.961,-1.77 42.583,-1.775c16.62,-0.004 33.233,0.578 42.541,1.766c2.268,0.289 4.08,0.609 5.315,0.974c0.391,0.115 0.874,0.33 0.954,0.366c0.808,0.742 2.063,0.731 2.858,-0.041c0.817,-0.793 0.846,-2.095 0.065,-2.923c0,-0 -6.812,-7.231 -13.397,-13.816c-0,-0 -0.001,-0 -0.001,-0c-0.759,-0.759 -2.04,-1.487 -3.807,-2.071c-3.326,-1.098 -8.645,-1.848 -14.953,-2.266c-14.331,-0.948 -33.884,-0.255 -46.139,1.318c-5.605,0.719 -9.759,1.698 -11.451,2.698c-0,0 -0.001,0 -0.001,0c-7.869,4.651 -14.059,14.458 -14.059,14.458c-0.403,0.642 -0.425,1.452 -0.058,2.115c0.366,0.664 1.065,1.076 1.823,1.076l0.765,-0.318Z" style="fill:#db5f05;"/><path d="M96.788,115.315c4.274,1.663 13.282,5.357 21.526,9.968c2.605,1.457 4.93,2.497 7.016,3.176c-2.44,-2.535 -5.517,-5.701 -8.546,-8.73c-0,-0 -0.001,-0 -0.001,-0c-0.759,-0.759 -2.04,-1.487 -3.807,-2.071c-3.326,-1.098 -8.645,-1.848 -14.953,-2.266c-0.408,-0.027 -0.821,-0.052 -1.235,-0.077Z" style="fill:#c63307;"/><path d="M138.72,136.739l0.695,-0.28c-0.02,0.019 -0.07,0.06 -0.07,0.06c0,-0 0.553,-0.248 0.993,-0.376c1.245,-0.361 3.066,-0.677 5.344,-0.965c9.334,-1.18 25.962,-1.77 42.583,-1.775c16.62,-0.004 33.233,0.578 42.541,1.766c2.268,0.289 4.08,0.609 5.315,0.974c0.392,0.115 0.874,0.33 0.954,0.366c0.808,0.742 2.063,0.731 2.858,-0.041c0.817,-0.793 0.846,-2.095 0.066,-2.923c-0,-0 -6.813,-7.231 -13.398,-13.816c-0,-0 -0,-0 -0,-0c-0.76,-0.759 -2.041,-1.487 -3.808,-2.071c-3.326,-1.098 -8.645,-1.848 -14.952,-2.266c-14.332,-0.948 -33.885,-0.255 -46.14,1.318c-5.605,0.719 -9.759,1.698 -11.451,2.698c-0,0 -0,0 -0,0c-7.87,4.651 -14.059,14.458 -14.059,14.458c-0.404,0.642 -0.426,1.452 -0.059,2.115c0.367,0.664 1.065,1.076 1.823,1.076l0.765,-0.318Z" style="fill:#db5f05;"/><path d="M170.461,115.828c-4.63,1.841 -12.742,5.27 -20.224,9.455c-4.279,2.393 -7.803,3.661 -10.749,4.053c2.562,-3.197 6.404,-7.352 10.762,-9.928c-0,0 -0,0 -0,0c1.692,-1 5.846,-1.979 11.451,-2.698c2.626,-0.337 5.588,-0.634 8.76,-0.882Z" style="fill:#c63307;"/><path d="M239.955,133.5c-0.37,-0.371 -1.002,-0.78 -1.93,-1.117c-1.383,-0.502 -3.686,-0.964 -6.704,-1.349c-9.439,-1.203 -26.286,-1.804 -43.129,-1.797c-16.842,0.006 -33.68,0.618 -43.102,1.816c-3.011,0.382 -5.307,0.841 -6.682,1.336c-0.929,0.335 -1.559,0.744 -1.926,1.111c-0.867,0.867 -1.854,3.281 -2.566,6.9c-1.406,7.147 -2.394,19.543 -2.618,32.096c-0.224,12.586 0.326,25.328 1.947,33.121c0.796,3.827 1.953,6.559 3.237,7.843c-0,-0 0,0 0,0c1.261,1.261 4.475,2.507 9.161,3.392c9.661,1.825 26.105,2.754 42.554,2.759c16.449,0.006 32.901,-0.914 42.576,-2.743c4.691,-0.887 7.912,-2.138 9.182,-3.408c0,0 0.001,-0 0.001,-0c1.292,-1.293 2.456,-4.028 3.258,-7.854c1.636,-7.798 2.195,-20.529 1.973,-33.105c-0.223,-12.544 -1.218,-24.931 -2.641,-32.086c-0.719,-3.618 -1.712,-6.037 -2.591,-6.915Z" style="fill:#ff9100;"/><path d="M131.921,157.692c-0.317,4.685 -0.532,9.732 -0.623,14.804c-0.224,12.586 0.326,25.328 1.947,33.121c0.796,3.827 1.953,6.559 3.237,7.843c-0,-0 0,0 0,0c0.745,0.745 2.172,1.485 4.182,2.148c-0.113,-6.8 -0.728,-14.771 -1.647,-22.651c-1.454,-12.461 -3.661,-24.691 -5.78,-31.671c-0.423,-1.395 -0.87,-2.599 -1.316,-3.594Z" style="fill:#fe6d19;"/><path d="M230.69,182.953c-0.421,-0.421 -1.586,-0.983 -3.392,-1.261c-2.793,-0.431 -7.641,-0.621 -12.47,-0.594c-5.552,0.032 -11.076,0.358 -13.463,0.877c-1.144,0.249 -1.848,0.68 -2.146,0.978c-0.385,0.384 -0.851,1.193 -1.159,2.39c-0.45,1.753 -0.765,4.655 -0.826,7.602c-0.062,2.978 0.141,5.997 0.655,7.942c0.323,1.222 0.817,2.114 1.33,2.627c0.485,0.486 1.658,1.061 3.421,1.387c2.834,0.523 7.638,0.767 12.426,0.743c4.777,-0.024 9.537,-0.314 12.298,-0.814c1.753,-0.317 2.893,-0.883 3.326,-1.316c0.461,-0.461 0.942,-1.317 1.26,-2.524c0.491,-1.862 0.747,-4.829 0.739,-7.792c-0.007,-2.959 -0.276,-5.911 -0.76,-7.751c-0.316,-1.203 -0.794,-2.049 -1.239,-2.494l-0,-0Z" style="fill:#ffe7c8;"/><path d="M208.089,195.317l13.731,-0c1.149,-0 2.083,-0.934 2.083,-2.083c0,-1.15 -0.934,-2.084 -2.083,-2.084l-13.731,0c-1.15,0 -2.083,0.934 -2.083,2.084c-0,1.149 0.933,2.083 2.083,2.083Z" style="fill:#ff9100;"/><path d="M147.221,189.863l25.058,0c1.15,0 2.083,-0.933 2.083,-2.083c0,-1.15 -0.933,-2.084 -2.083,-2.084l-25.058,0c-1.15,0 -2.084,0.934 -2.084,2.084c0,1.15 0.934,2.083 2.084,2.083Z" style="fill:#ffe7c8;"/><path d="M147.221,200.771l18.247,-0c1.15,-0 2.083,-0.934 2.083,-2.084c0,-1.15 -0.933,-2.083 -2.083,-2.083l-18.247,-0c-1.15,-0 -2.084,0.933 -2.084,2.083c0,1.15 0.934,2.084 2.084,2.084Z" style="fill:#ffe7c8;"/><path d="M214.654,147.055l8.333,-0c1.15,-0 2.083,-0.934 2.083,-2.083c0,-1.15 -0.933,-2.084 -2.083,-2.084l-8.333,0c-1.15,0 -2.084,0.934 -2.084,2.084c0,1.149 0.934,2.083 2.084,2.083Zm-65.255,-4.167c-1.055,0 -2.132,1.367 -2.132,2.084c-0,1.149 0.933,2.083 2.083,2.083l4.167,-0c1.149,-0 2.083,-0.934 2.083,-2.083c-0,-1.15 -0.934,-2.084 -2.083,-2.084l-4.118,0Zm12.451,4.167l8.333,-0c1.15,-0 2.084,-0.934 2.084,-2.083c-0,-1.15 -0.934,-2.084 -2.084,-2.084l-8.333,0c-1.15,0 -2.083,0.934 -2.083,2.084c-0,1.149 0.933,2.083 2.083,2.083Zm39.133,-2.8c-0.551,-0.632 -0.913,0 -0.913,0.717c0,1.149 0.934,2.083 2.084,2.083l4.166,-0c1.15,-0 2.084,-0.934 2.084,-2.083c-0,-1.15 -0.934,-2.084 -2.084,-2.084l-4.117,0c-1.055,0 -1.309,0.612 -1.22,1.367Z" style="fill:#ffe7c8;"/><path d="M130.138,133.5c-0.37,-0.371 -1.002,-0.78 -1.931,-1.117c-1.383,-0.502 -3.686,-0.964 -6.703,-1.349c-9.439,-1.203 -26.286,-1.804 -43.129,-1.797c-16.843,0.006 -33.68,0.618 -43.102,1.816c-3.011,0.382 -5.307,0.841 -6.682,1.336c-0.929,0.335 -1.559,0.744 -1.926,1.111c-0.867,0.867 -1.854,3.281 -2.566,6.9c-1.406,7.147 -2.395,19.543 -2.618,32.096c-0.224,12.586 0.326,25.328 1.947,33.121c0.796,3.827 1.953,6.559 3.236,7.843c0,-0 0.001,0 0.001,0c1.261,1.261 4.475,2.507 9.161,3.392c9.66,1.825 26.105,2.754 42.553,2.759c16.449,0.006 32.902,-0.914 42.577,-2.743c4.691,-0.887 7.912,-2.138 9.182,-3.408c0,0 0,-0 0,-0c1.293,-1.293 2.456,-4.028 3.259,-7.854c1.636,-7.798 2.195,-20.529 1.972,-33.105c-0.222,-12.544 -1.217,-24.931 -2.64,-32.086c-0.719,-3.618 -1.712,-6.037 -2.591,-6.915Z" style="fill:#feb452;"/><path d="M67.959,115.357c-0.982,0.05 -1.796,0.781 -1.951,1.753l-2.233,14c-0.097,0.609 0.08,1.23 0.485,1.695c0.405,0.466 0.995,0.728 1.611,0.716c8.194,-0.154 16.864,-0.157 25.061,-0.008c0.616,0.011 1.206,-0.251 1.61,-0.716c0.405,-0.466 0.582,-1.086 0.485,-1.695l-2.287,-14.337c-0.159,-0.996 -1.008,-1.735 -2.016,-1.755c-6.759,-0.133 -14,0.002 -20.765,0.347Z" style="fill:#902c0a;"/><path d="M177.776,115.357c-0.982,0.05 -1.796,0.781 -1.951,1.753l-2.233,14c-0.097,0.609 0.08,1.23 0.485,1.695c0.405,0.466 0.995,0.728 1.611,0.716c8.195,-0.154 16.865,-0.157 25.061,-0.008c0.616,0.011 1.206,-0.251 1.61,-0.716c0.405,-0.466 0.582,-1.086 0.485,-1.695l-2.287,-14.337c-0.159,-0.996 -1.008,-1.735 -2.016,-1.755c-6.759,-0.133 -14,0.002 -20.765,0.347Z" style="fill:#902c0a;"/><path d="M119.065,236.827c0.537,-0.615 0.664,-1.488 0.326,-2.231c-0.338,-0.744 -1.08,-1.221 -1.896,-1.221l-82.104,0c-1.151,0 -2.084,0.933 -2.084,2.083l0,6.006c0,5.753 4.664,10.417 10.417,10.417c15.142,0 46.609,0 57.48,0c3.01,0 5.874,-1.302 7.852,-3.572l10.009,-11.482Zm30.107,-3.452c-0.817,0 -1.558,0.477 -1.896,1.221c-0.338,0.743 -0.211,1.616 0.326,2.231l10.009,11.482c1.978,2.27 4.841,3.572 7.852,3.572l57.48,0c5.753,0 10.416,-4.664 10.416,-10.417c0,-3.157 0,-6.006 0,-6.006c0,-1.15 -0.933,-2.083 -2.083,-2.083l-82.104,0Z" style="fill:#963c00;"/><path d="M252.083,222.011c0,-3.624 -2.942,-6.566 -6.566,-6.566c0,-0 -224.368,-0 -224.368,-0c-3.624,-0 -6.566,2.942 -6.566,6.566l0,8.965c0,3.624 2.942,6.566 6.566,6.566c0,-0 224.368,-0 224.368,-0c3.624,-0 6.566,-2.942 6.566,-6.566l0,-8.965Z" style="fill:#bf5108;"/><path d="M174.901,129.369c-1.094,0.022 -1.985,0.888 -2.039,1.981l-0.979,20.072c-0.09,1.455 0.422,2.883 1.418,3.949c1.003,1.073 2.406,1.682 3.875,1.682c-0,0 -0,0 -0,0c1.533,0 3.625,-0.824 5.798,-1.408c1.41,-0.379 2.888,-0.721 4.132,0.065c3.663,2.313 6.483,2.275 8.871,1.886c1.21,-0.197 2.271,-0.543 3.285,-0.543c1.468,0 2.871,-0.609 3.874,-1.682c0.996,-1.066 1.509,-2.494 1.418,-3.949c0,-0 -0.979,-20.08 -0.979,-20.08c-0.054,-1.094 -0.945,-1.96 -2.041,-1.982c-8.687,-0.168 -17.942,-0.165 -26.633,0.009Z" style="fill:#aa2f05;"/><path d="M120.873,182.953c-0.422,-0.421 -1.586,-0.983 -3.392,-1.261c-2.793,-0.431 -7.641,-0.621 -12.47,-0.594c-5.552,0.032 -11.077,0.358 -13.464,0.877c-1.143,0.249 -1.847,0.68 -2.145,0.978c-0.385,0.384 -0.851,1.193 -1.159,2.39c-0.45,1.753 -0.765,4.655 -0.826,7.602c-0.062,2.978 0.141,5.997 0.655,7.942c0.322,1.222 0.817,2.114 1.33,2.627c0.485,0.486 1.658,1.061 3.421,1.387c2.834,0.523 7.638,0.767 12.425,0.743c4.778,-0.024 9.538,-0.314 12.299,-0.814c1.752,-0.317 2.893,-0.883 3.326,-1.316c0.461,-0.461 0.942,-1.317 1.26,-2.524c0.491,-1.862 0.746,-4.829 0.739,-7.792c-0.008,-2.959 -0.277,-5.911 -0.76,-7.751c-0.316,-1.203 -0.794,-2.049 -1.239,-2.494l-0,-0Z" style="fill:#ffe7c8;"/><path d="M98.272,195.317l13.73,-0c1.15,-0 2.084,-0.934 2.084,-2.083c-0,-1.15 -0.934,-2.084 -2.084,-2.084l-13.73,0c-1.15,0 -2.084,0.934 -2.084,2.084c0,1.149 0.934,2.083 2.084,2.083Z" style="fill:#feb452;"/><path d="M37.403,189.863l25.059,0c1.149,0 2.083,-0.933 2.083,-2.083c-0,-1.15 -0.934,-2.084 -2.083,-2.084l-25.059,0c-1.149,0 -2.083,0.934 -2.083,2.084c0,1.15 0.934,2.083 2.083,2.083Z" style="fill:#ffe7c8;"/><path d="M37.403,200.771l18.248,-0c1.149,-0 2.083,-0.934 2.083,-2.084c-0,-1.15 -0.934,-2.083 -2.083,-2.083l-18.248,-0c-1.149,-0 -2.083,0.933 -2.083,2.083c0,1.15 0.934,2.084 2.083,2.084Z" style="fill:#ffe7c8;"/><path d="M104.836,147.055l8.334,-0c1.15,-0 2.083,-0.934 2.083,-2.083c0,-1.15 -0.933,-2.084 -2.083,-2.084l-8.334,0c-1.149,0 -2.083,0.934 -2.083,2.084c0,1.149 0.934,2.083 2.083,2.083Zm-65.254,-4.167c-1.055,0 -2.133,1.367 -2.133,2.084c0,1.149 0.934,2.083 2.084,2.083l4.166,-0c1.15,-0 2.084,-0.934 2.084,-2.083c-0,-1.15 -0.934,-2.084 -2.084,-2.084l-4.117,0Zm12.451,4.167l8.333,-0c1.15,-0 2.083,-0.934 2.083,-2.083c0,-1.15 -0.933,-2.084 -2.083,-2.084l-8.333,0c-1.15,0 -2.084,0.934 -2.084,2.084c0,1.149 0.934,2.083 2.084,2.083Zm39.133,-2.8c-0.551,-0.632 -0.913,0 -0.913,0.717c0,1.149 0.934,2.083 2.083,2.083l4.167,-0c1.15,-0 2.083,-0.934 2.083,-2.083c0,-1.15 -0.933,-2.084 -2.083,-2.084l-4.117,0c-1.055,0 -1.309,0.612 -1.22,1.367Z" style="fill:#ffe7c8;"/><path d="M65.084,129.369c-1.095,0.022 -1.986,0.888 -2.039,1.981l-0.979,20.072c-0.09,1.455 0.422,2.883 1.418,3.949c1.003,1.073 2.406,1.682 3.875,1.682c-0,0 -0,0 -0,0c2.787,0 6.915,-1.021 11.042,-1.021c4.128,-0 8.256,1.021 11.043,1.021c1.469,0 2.872,-0.609 3.875,-1.682c0.996,-1.066 1.508,-2.494 1.418,-3.949c-0,-0 -0.979,-20.08 -0.979,-20.08c-0.054,-1.094 -0.946,-1.96 -2.041,-1.982c-8.687,-0.168 -17.942,-0.165 -26.633,0.009Z" style="fill:#aa2f05;"/><path d="M83.812,36.565l0.695,-0.28c-0.02,0.019 -0.07,0.06 -0.07,0.06c-0,-0 0.553,-0.248 0.992,-0.376c1.245,-0.361 3.067,-0.678 5.345,-0.965c9.333,-1.18 25.961,-1.771 42.582,-1.775c16.62,-0.004 33.234,0.578 42.541,1.766c2.269,0.289 4.081,0.608 5.315,0.973c0.392,0.116 0.875,0.331 0.954,0.367c0.809,0.742 2.064,0.731 2.859,-0.041c0.817,-0.793 0.846,-2.095 0.065,-2.924c0,0 -6.812,-7.23 -13.398,-13.815c0,-0 0,-0 0,-0c-0.759,-0.76 -2.04,-1.487 -3.808,-2.071c-3.326,-1.098 -8.645,-1.848 -14.952,-2.266c-14.331,-0.949 -33.884,-0.255 -46.14,1.318c-5.604,0.719 -9.758,1.698 -11.451,2.698c0,0 0,0 0,0c-7.87,4.651 -14.059,14.457 -14.059,14.457c-0.403,0.642 -0.426,1.453 -0.059,2.116c0.367,0.664 1.065,1.075 1.823,1.075l0.766,-0.317Z" style="fill:#db5f05;"/><path d="M185.047,33.326c-0.371,-0.371 -1.002,-0.78 -1.931,-1.117c-1.383,-0.502 -3.686,-0.964 -6.703,-1.349c-9.439,-1.204 -26.286,-1.804 -43.13,-1.798c-16.842,0.006 -33.68,0.619 -43.101,1.816c-3.011,0.383 -5.307,0.841 -6.683,1.337c-0.929,0.335 -1.558,0.743 -1.926,1.111c-0.867,0.867 -1.854,3.281 -2.566,6.9c-1.406,7.147 -2.394,19.543 -2.617,32.096c-0.224,12.586 0.326,25.328 1.946,33.121c0.796,3.827 1.954,6.559 3.237,7.842c0,0.001 0,0.001 0,0.001c1.262,1.261 4.475,2.507 9.161,3.392c9.661,1.825 26.105,2.754 42.554,2.759c16.449,0.005 32.901,-0.914 42.576,-2.743c4.691,-0.887 7.912,-2.138 9.183,-3.408c-0,-0 -0,-0 -0,-0c1.292,-1.293 2.456,-4.028 3.259,-7.855c1.636,-7.797 2.195,-20.528 1.972,-33.104c-0.222,-12.544 -1.218,-24.931 -2.64,-32.086c-0.72,-3.618 -1.713,-6.037 -2.591,-6.915Z" style="fill:#ff9100;"/><path d="M175.781,82.779c-0.421,-0.421 -1.585,-0.983 -3.391,-1.262c-2.794,-0.43 -7.642,-0.62 -12.471,-0.593c-5.551,0.032 -11.076,0.358 -13.463,0.877c-1.144,0.249 -1.847,0.679 -2.146,0.978c-0.384,0.384 -0.85,1.193 -1.158,2.39c-0.451,1.753 -0.766,4.655 -0.827,7.602c-0.061,2.978 0.142,5.997 0.655,7.942c0.323,1.222 0.818,2.114 1.33,2.627c0.486,0.485 1.659,1.061 3.421,1.386c2.835,0.524 7.638,0.768 12.426,0.744c4.778,-0.024 9.538,-0.314 12.298,-0.814c1.753,-0.318 2.893,-0.883 3.326,-1.316c0.461,-0.461 0.943,-1.317 1.261,-2.524c0.491,-1.863 0.746,-4.829 0.739,-7.792c-0.008,-2.959 -0.277,-5.911 -0.76,-7.751c-0.316,-1.203 -0.794,-2.049 -1.24,-2.494Z" style="fill:#ffe7c8;"/><path d="M153.18,95.143l13.731,-0c1.15,-0 2.083,-0.934 2.083,-2.084c0,-1.149 -0.933,-2.083 -2.083,-2.083l-13.731,0c-1.149,0 -2.083,0.934 -2.083,2.083c0,1.15 0.934,2.084 2.083,2.084Z" style="fill:#ff9100;"/><path d="M92.312,89.689l25.058,0c1.15,0 2.084,-0.933 2.084,-2.083c-0,-1.15 -0.934,-2.084 -2.084,-2.084l-25.058,0c-1.15,0 -2.083,0.934 -2.083,2.084c-0,1.15 0.933,2.083 2.083,2.083Z" style="fill:#ffe7c8;"/><path d="M92.312,100.596l18.247,0c1.15,0 2.084,-0.933 2.084,-2.083c-0,-1.15 -0.934,-2.083 -2.084,-2.083l-18.247,-0c-1.15,-0 -2.083,0.933 -2.083,2.083c-0,1.15 0.933,2.083 2.083,2.083Z" style="fill:#ffe7c8;"/><path d="M159.745,46.881l8.333,-0c1.15,-0 2.084,-0.934 2.084,-2.084c-0,-1.149 -0.934,-2.083 -2.084,-2.083l-8.333,0c-1.15,0 -2.083,0.934 -2.083,2.083c-0,1.15 0.933,2.084 2.083,2.084Zm-65.254,-4.167c-1.055,0 -2.133,1.367 -2.133,2.083c-0,1.15 0.933,2.084 2.083,2.084l4.167,-0c1.15,-0 2.083,-0.934 2.083,-2.084c0,-1.149 -0.933,-2.083 -2.083,-2.083l-4.117,0Zm12.45,4.167l8.334,-0c1.149,-0 2.083,-0.934 2.083,-2.084c-0,-1.149 -0.934,-2.083 -2.083,-2.083l-8.334,0c-1.15,0 -2.083,0.934 -2.083,2.083c-0,1.15 0.933,2.084 2.083,2.084Zm39.134,-2.8c-0.551,-0.632 -0.913,0 -0.913,0.716c-0,1.15 0.933,2.084 2.083,2.084l4.167,-0c1.15,-0 2.083,-0.934 2.083,-2.084c0,-1.149 -0.933,-2.083 -2.083,-2.083l-4.117,0c-1.056,0 -1.309,0.612 -1.22,1.367Z" style="fill:#ffe7c8;"/><path d="M122.868,15.183c-0.983,0.05 -1.796,0.781 -1.951,1.753l-2.234,14c-0.097,0.609 0.081,1.23 0.486,1.695c0.404,0.466 0.994,0.728 1.611,0.716c8.194,-0.154 16.864,-0.157 25.06,-0.008c0.617,0.011 1.206,-0.251 1.611,-0.716c0.404,-0.466 0.582,-1.086 0.485,-1.695l-2.287,-14.337c-0.159,-0.996 -1.009,-1.735 -2.017,-1.755c-6.758,-0.133 -13.999,0.002 -20.764,0.347Z" style="fill:#902c0a;"/><path d="M119.993,29.195c-1.095,0.022 -1.986,0.887 -2.039,1.981l-0.979,20.072c-0.091,1.455 0.422,2.883 1.418,3.949c1.003,1.073 2.406,1.682 3.874,1.682c0,0 0,0 0,0c2.527,0 6.761,0.469 10.016,2.314c3.237,1.834 5.968,1.072 8.347,-0.24c0.916,-0.506 1.766,-1.098 2.564,-1.566c0.422,-0.247 0.784,-0.508 1.159,-0.508c1.469,0 2.871,-0.609 3.874,-1.682c0.996,-1.066 1.509,-2.494 1.419,-3.949c-0,-0 -0.98,-20.08 -0.98,-20.08c-0.053,-1.094 -0.945,-1.96 -2.04,-1.982c-8.688,-0.168 -17.942,-0.165 -26.633,0.009Z" style="fill:#aa2f05;"/></svg>