<?xml version="1.0" encoding="UTF-8"?>
<svg id="Layer_1" data-name="Layer 1" xmlns="http://www.w3.org/2000/svg" viewBox="0 0 342.67 350.37">
  <defs>
    <style>
      .cls-1 {
        fill: #ffb026;
      }

      .cls-1, .cls-2, .cls-3, .cls-4, .cls-5, .cls-6, .cls-7, .cls-8 {
        stroke-width: 0px;
      }

      .cls-2 {
        fill: #e07707;
      }

      .cls-3 {
        fill: #ff4a4a;
      }

      .cls-4 {
        fill: #380101;
      }

      .cls-5 {
        fill: #a32c2c;
      }

      .cls-6 {
        fill: #ade4ff;
      }

      .cls-7 {
        fill: #e8974f;
      }

      .cls-8 {
        fill: #7ba8bf;
      }
    </style>
  </defs>
  <g>
    <path class="cls-6" d="M115.28,200.79c-8.75-.35-17.58,1.39-25.54,5.05-4.3-4.55-10.42-7.31-16.67-7.53-6.25-.22-12.55,2.12-17.15,6.36-4.61,4.25-7.61,10.33-13.08,13.4-4.05,2.27-8.95-.18-13.59-.3-4.64-.12-9.12-.05-13.65.93s-9.17,5.94-10.74,10.3c-1.84,5.09,1.37,11.4,6.57,12.92,1.77.52,3.65.53,5.5.54,9.59.05,19.19.1,28.78.15,22.12.11,44.25.23,66.37.34l14.13-36.63c-1.49-4.08-6.59-5.36-10.93-5.54Z"/>
    <path class="cls-6" d="M310.57,303.66c-2.71-2.94-6.74-4.22-10.64-5.06-3.9-.84-7.96-1.37-11.48-3.26-4.86-2.6-8.09-7.42-12.34-10.93-7.98-6.58-19.84-8.02-29.16-3.54l-13.09,41.41c23.04-1.69,46.08-3.39,69.12-5.08,2.98-.22,6.24-.57,8.31-2.72,2.77-2.88,1.98-7.91-.73-10.84Z"/>
  </g>
  <path class="cls-7" d="M124.95,202.17l-28.32,90.62c-2.23,7.12,1.64,14.72,8.71,17.11l106.14,35.89c7.39,2.5,15.38-1.65,17.58-9.14l28.53-96.97c2.08-7.06-1.78-14.5-8.75-16.88l-98.41-33.56c-10.62-3.62-22.14,2.22-25.49,12.93Z"/>
  <path class="cls-1" d="M221.91,212.52l-56.03-20.23c-4.21,10.27-6.66,21.25-7.2,32.33-.22,4.36.25,9.49,3.93,11.84,3.3,2.1,7.63.96,11.28-.44,3.65-1.39,7.69-2.99,11.34-1.59,4.48,1.71,6.27,7.08,9.93,10.17,4.53,3.82,11.62,3.53,16.58.28,4.96-3.25,7.96-8.88,9.27-14.66,1.31-5.78,1.12-11.78.92-17.7Z"/>
  <path class="cls-3" d="M264.38,8.55c-47.13-14.17-106.4,6.08-129.34,33.31-22.95,27.23-29.06,47.13-20.2,54.57,8.86,7.44,34.37-1.06,58.47,13.47,0,0,40.04,2.87,52.8,7.28,12.76,4.41,36.5,19.79,45,22.38,8.5,2.59,31.89,5.74,38.63,12.67,6.73,6.93,10.37,15.37,18.78,15.08,8.41-.29,11.34-25.87,10.28-42.17-1.06-16.3-10.28-93.91-74.42-116.59Z"/>
  <g>
    <path class="cls-8" d="M121.05,214.99c-3.8-1.12-7.71-.97-11.1,1.3-1.8,1.2-2.51,3.18-4.08,4.4-4.85,3.75-9.24,3.88-15.02,2.77-10.71-2.05-21.06-5.23-29.69,4.46-5.07,5.69.98,7.9,6.18,8.04,15.7.42,31.51-.59,47.11-2.3,3.56-.39,3.88-5.62.79-6.07.05-.07.1-.14.15-.21.93-1.31,1.87-2.59,2.76-3.93.52-.78.61-1.58.43-2.32.24.04.48.06.74.12,4.07.85,5.77-5.07,1.73-6.26Z"/>
    <path class="cls-8" d="M54,216.39c-2.2.82-4.02,2.3-6.13,3.33-2.07,1.01-4.38,1.67-6.65,2.01-3.55.54-2.67,6.31.84,6.21,5.3-.15,12.66-2,15.33-7.14,1.1-2.12-.77-5.39-3.39-4.41Z"/>
    <path class="cls-8" d="M99.72,212.73c1.04.91,2.64,1.3,3.88.5,1.23-.79,1.81-2.18,1.47-3.62-.3-1.27-1.19-2.38-1.89-3.46-.92-1.43-2.92-2.14-4.44-1.16-1.5.97-2.05,2.85-1.16,4.44.62,1.11,1.18,2.45,2.14,3.3Z"/>
    <path class="cls-8" d="M280.84,304.12c-.81-1.99-2.6-2.74-4.39-3.57-4.71-2.19-8.46-4.75-12.61-7.84-5.7-4.25-12.66-6.69-18.99-2.31-2.16,1.49-1.79,4.19-.31,5.51-3.06,3-5.62,7.1-2.93,10.03-.77.05-1.55.09-2.32.15-4,.35-4.04,5.95,0,6.26,10.79.81,21.98.09,32.77-.68,4.14-.29,11.26-1.43,8.78-7.54Z"/>
  </g>
  <path class="cls-2" d="M188.63,224.34c-3.66-1.41-8.63-1.41-11.62,1.38-2.35,2.2-.46,6.03,2.54,6.12,2.25.07,4.23-.83,6.44.12,1.95.83,2.84,2.88,4.75,3.7,2.48,1.06,5.14-.16,5.3-3.04.23-4-4.07-7-7.41-8.28Z"/>
  <g>
    <path class="cls-5" d="M132.57,88.85c-4.02,1.26-3.37,7.45,1.01,7.45,5.07,0,10.08-.25,15.06.91,4.76,1.11,8.8,3.54,13.34,5.16,3.82,1.36,6.64-4.01,3.88-6.67-7.9-7.61-23.05-10.07-33.29-6.86Z"/>
    <path class="cls-5" d="M147.1,81.6c1.88.07,3.78.07,5.64.32,2.09.28,3.9,1,6.01.32,2.66-.85,3.19-3.77,1.53-5.81-1.7-2.09-4.49-2.34-6.99-2.62-2.41-.27-4.81-.13-7.18.43-4.22,1-3.13,7.2,1,7.36Z"/>
    <path class="cls-5" d="M156.78,68.02c1.6.01,3.46.24,5-.25,3.03-.97,3.03-5.18,0-6.15-1.54-.49-3.39-.26-5-.25-1.74.01-3.41,1.52-3.33,3.33.08,1.81,1.46,3.32,3.33,3.33Z"/>
    <path class="cls-5" d="M196.5,103.34c-3.22,1.46-1.6,6.81,1.79,6.62,2.92-.17,5.76-.41,8.58-.55.02,1.26.73,2.47,2.32,2.84,3.79.9,7.61,1.59,11.3,2.84,3.7,1.25,6.99,3.45,10.7,4.55,2.27.67,4.11-1.15,4.28-3.13,2.5,1.54,4.96,3.19,7.57,4.84,4.06,2.56,7.48-2.94,4.8-6.22-11.01-13.5-35.64-18.91-51.34-11.79Z"/>
    <path class="cls-5" d="M212.57,83.46c-3.85,1.19-2.94,6.52.92,6.81,5.41.41,10.64.23,15.96,1.52,5.35,1.29,9.89,3.85,14.79,6.22,3.8,1.84,8.54-3.15,4.84-6.28-9.21-7.78-24.84-11.87-36.52-8.27Z"/>
    <path class="cls-5" d="M249.23,71.17c-2.94-2.18-6.91-3.08-10.42-3.9-3.52-.82-7.05-1.48-10.64-.89-3.66.59-2.6,5.32,0,6.41,3.1,1.3,6.6,1.62,9.84,2.49,3.17.85,6.17,2.09,9.44,2.45,3.87.42,4.21-4.75,1.77-6.55Z"/>
    <path class="cls-5" d="M238.6,59.76c2.2.54,4.81,1.58,7.09,1.46,3-.16,4.6-4.42,1.62-5.98-2.07-1.09-4.72-1.26-6.99-1.7-1.71-.33-3.48.48-3.97,2.25-.45,1.65.55,3.55,2.25,3.97Z"/>
    <path class="cls-5" d="M322.17,148.43c-5.29-10.49-24.15-16.79-35.08-14.51-3.58.74-3.34,6.12,0,7.01,5.22,1.38,10.53,1.73,15.59,3.78,5.37,2.17,9.36,6.42,14.52,8.69,3.29,1.45,6.7-1.54,4.97-4.97Z"/>
    <path class="cls-5" d="M296.8,124.17c2.61.5,5.23,1.01,7.77,1.79,2.51.77,4.87,2.46,7.45,2.82,2.55.36,5.98-2.36,3.92-5.09-3.77-5-12.28-6.72-18.24-6.1-3.44.36-4.91,5.81-.89,6.58Z"/>
    <path class="cls-5" d="M301,107.7c1.04.36,2.04.82,3.03,1.29,1.32.62,2.62,1.47,4.12,1.4,2.19-.1,3.9-2.52,2.61-4.55-1.61-2.52-5.41-3.28-8.12-4.08-1.6-.47-3.35.57-3.79,2.15-.47,1.7.58,3.24,2.15,3.79Z"/>
  </g>
  <g>
    <path class="cls-4" d="M333.51,150.41c-.62,2.79-1.59,10.89-4.32,12.32-3.94,2.07-6.43-3.14-8.14-5.38-3.18-4.19-7.22-7.54-11.67-10.33-11.09-6.96-22.27-6.99-34.66-9.43-.25-.05-.49-.12-.74-.17,7.22-16.9,10.44-36.54,9.23-54.68-.29-4.27-6.2-4.2-6.59,0-1.7,18.15-5.42,34.74-10.74,51.93-9.58-4.37-17.74-11.77-27.16-16.54-11.39-5.78-23.91-9.06-36.67-9.63-7.83-.35-15.88.76-23.6-1.02-.11-.02-.21-.06-.31-.08,1.11-3.73,1.84-7.59,3.06-11.29,1.51-4.57,3.71-8.92,4.93-13.57.81-3.06-3.5-6.16-5.73-3.33-5.11,6.47-9.03,16.66-9.92,25.51-3.42-1.49-6.77-3.18-10.21-4.56-5.86-2.34-11.92-3.89-18.17-4.77-6.46-.9-14.08.63-20.2-1.06-14.13-3.9,1.66-29.77,6.58-37.2,7.61-11.48,17.7-20.65,29.38-27.85,4.71-2.9.48-10.2-4.35-7.44-19.81,11.34-34.89,29.72-42.94,51.02-3.29,8.7-6.38,18.55,1.12,26.01,1.34,1.33,2.85,2.3,4.45,3.04,14.04,15.9,29.29,30.3,42.11,47.36,10.97,14.59,20.61,30.06,28.99,46.24-.54-.16-1.08-.34-1.62-.51-12.14-3.69-24.74-8.34-37.33-10.1-8.72-1.22-16.16.88-21.69,7.93-1.56,1.99-2.95,4.17-4.2,6.47-9.66-3.63-20.46-2.51-29.89,2.63-4.96-4.02-10.68-6.97-17.17-7.74-11.86-1.4-19.02,4.5-25.25,13.66-5.16,7.58-12.47,5.33-20.27,4.64-6.2-.55-12.76-.22-18.39,2.72-8.21,4.29-13.65,13.68-10.58,22.92,2.62,7.91,10.64,10.36,18.2,10.93,13.31.99,27.01.12,40.35,0,13.5-.13,32.23-.48,46.45-1.27-.7,2.46-1.4,4.93-2.1,7.39-1.49,5.24,6.27,7.23,8.07,2.22,5.2-14.53,8.53-29.66,14.17-44.04,3.62-9.21,7.59-20.14,19.27-19.97,4.84.07,10.08,1.42,15.23,3.05-5.04,11.88-10.64,25.88-5.36,38.31,1.81,4.26,4.83,8.29,9.65,9.09,6.17,1.02,10.38-4.02,16.11-4.59,6.07-.6,8.7,8.03,13.96,10.7,5.16,2.62,11.48,2.54,16.69.11,12.48-5.82,15.09-19.83,15.5-32.43,7.6,2.43,18.71,4.3,24.36,10.06,7.28,7.4.91,20.6-1.59,29.01-4.72,15.9-9.49,31.79-14.25,47.68-3.82,12.76-6.25,41.5-25.22,36.24-22.65-6.27-44.93-14.59-67.28-21.86-9.92-3.23-19.84-6.45-29.75-9.69-4.4-1.44-8.6-2.22-11.33-6.21-4.61-6.75,2.99-20.69,5.36-27.95,1.77-5.44-6.78-7.76-8.55-2.36-4.49,13.74-15.4,34.05,3.07,41.94,8.36,3.57,17.46,5.87,26.1,8.68,14.53,4.73,29.07,9.46,43.61,14.18,12.96,4.21,27.15,10.99,40.69,12.82,19.01,2.57,23.51-15.52,27.77-29.78,3.69-12.36,7.4-24.71,11.09-37.07,5.31-2.45,11.41-2.71,16.58.45,4.51,2.76,6.68,7.92,10.68,11.24,6.55,5.44,14.94,4.72,22.49,7.59,2.15.82,5.97,3.16,6.25,5.73.49,4.51-3.4,4.51-6.36,5.09-5.84,1.15-11.87,1.66-17.78,2.26-11.28,1.15-22.68,1.21-33.9,2.9-4.32.65-2.7,6.64.95,7.04,17.28,1.93,37.15-.26,54.15-3.85,9.95-2.1,15.6-11.38,9.25-20.63-2.89-4.2-7.76-6.45-12.53-7.76-3.43-.94-7.03-1.22-10.45-2.19-5.5-1.57-8.09-4.95-11.66-9.01-6.48-7.37-15.8-10.47-24.81-8.43,1.6-5.36,3.21-10.72,4.8-16.08,4.64-15.65,9.42-32.38-8.4-41.09-8.86-4.33-18.91-6.8-28.24-9.88-3.63-1.2-7.27-2.37-10.91-3.56,16.97-7.45,34.55-13.33,52.47-18.15,19.46-5.24,39.57-8.21,58.95-13.61.91.35,1.89.61,2.97.74,11.6,1.37,14.47-10.49,16.41-19.3,1.23-5.56-7.32-7.93-8.55-2.36ZM100.27,238.9c-24.9,1.48-49.85,1.29-74.79,1.42-7.91.04-23.53-1.95-14.07-13.92,7.91-10.01,22.08-2.73,32.38-4.31,4.04-.62,7.43-2.19,10.33-5.08,3.72-3.72,5.06-9.41,9.63-12.33,12-7.65,24.46,3.84,32.59,11.53,2.84,2.69,8.29-1,5.69-4.39-.88-1.14-1.8-2.27-2.76-3.36,6.34-2.76,13.25-3.01,19.38-.97-1.84,4.62-3.38,9.37-4.83,13.81-1.89,5.77-3.64,11.59-5.35,17.43-3.36.05-6.99.09-8.19.16ZM223.81,121.42c13.21,4.39,23.11,13.36,35.16,19.75-11.23,5.91-21.61,14.98-31.19,22.93-8.78,7.29-17.15,15.04-25.14,23.17-1.7-10.9-3.86-21.72-6.61-32.43-3.16-12.29-6.44-25.99-12.2-37.66,13.49,1.35,26.6-.2,39.98,4.24ZM131.06,104.05c4.45-.04,8.9-.2,12.83.53,10.83,2.03,20.27,8.11,30.72,10.98,3.1,13.53,8.94,26.56,12.47,40.03,2.92,11.16,5.24,22.46,7.01,33.86-8.64-16.48-18.61-32.19-29.92-47.01-10.03-13.13-20.94-26.73-33.1-38.4ZM202.85,243.05c-8.4-.41-10.43-12.07-19.28-12.89-8.18-.76-18.45,10.71-21.21-2.07-2.09-9.71,2.98-19.81,6.22-29.01,1.6.53,3.17,1.04,4.67,1.48,15.1,4.41,30.07,9.22,45.01,14.15-.1,10.62-1.54,29.03-15.42,28.35ZM259.78,176.82c-17.92,4.89-35.47,10.9-52.46,18.37,8.12-8.36,16.61-16.34,25.56-23.83,11.24-9.42,24.3-16.92,35.16-26.7,9.27,2.42,18.95,2.26,28.16,5.65,7.97,2.93,13.32,7.58,18.43,13.76-18.45,2.97-36.96,7.87-54.86,12.75Z"/>
    <path class="cls-4" d="M173.03,21.4c24.84-7.28,50.99-14.85,76.36-11.29-26.01,8.97-50.92,30.3-61.02,54.69-1.59,3.83,4.23,5.65,6.31,2.66,8.88-12.75,17.58-24.72,30.1-34.22,11.55-8.76,24.21-14.03,37.77-18.45,4.07,7.46,7.99,14.78,10.49,23.04,2.76,9.14,3.53,18.47,4.15,27.96.31,4.74,6.64,4.53,7.21,0,2.02-16.01-2.41-34.13-11.03-48.49.49.23.97.45,1.46.7,19.66,9.92,34.59,27.24,44.09,46.88,5.18,10.72,8.99,22.1,11.39,33.76,2.54,12.33,2.29,24.68,3.82,37.08.63,5.07,7.41,5.16,7.96,0,2.65-24.6-4.54-51.99-14.94-74.08-9.87-20.97-25.95-39.81-46.66-50.66-33.64-17.63-77.17-12.19-110.46,3.37-4,1.87-1.17,8.28,2.98,7.06Z"/>
  </g>
</svg>