<?xml version="1.0" encoding="UTF-8" standalone="no"?><!DOCTYPE svg PUBLIC "-//W3C//DTD SVG 1.1//EN" "http://www.w3.org/Graphics/SVG/1.1/DTD/svg11.dtd"><svg width="100%" height="100%" viewBox="0 0 267 267" version="1.1" xmlns="http://www.w3.org/2000/svg" xmlns:xlink="http://www.w3.org/1999/xlink" xml:space="preserve" xmlns:serif="http://www.serif.com/" style="fill-rule:evenodd;clip-rule:evenodd;stroke-linejoin:round;stroke-miterlimit:2;"><path d="M78.16,72.518c-0.403,0.642 -0.426,1.453 -0.059,2.116c0.367,0.664 1.065,1.075 1.823,1.075l1.483,-0.619c0.337,-0.314 1.046,-0.526 2.012,-0.806c2.058,-0.597 5.07,-1.126 8.838,-1.602c15.125,-1.911 42.071,-2.872 69.006,-2.879c26.934,-0.007 53.858,0.939 68.942,2.865c3.753,0.479 6.751,1.012 8.794,1.616c0.958,0.283 1.658,0.493 1.981,0.815c0.805,0.805 2.107,0.815 2.924,0.022c0.817,-0.793 0.846,-2.095 0.065,-2.924c0,0 -11.001,-11.675 -21.634,-22.309c-0,0 -0.001,-0 -0.001,-0c-1.449,-1.45 -4.264,-2.767 -8.197,-3.775c-5.279,-1.354 -12.719,-2.294 -21.309,-2.863c-23.094,-1.528 -54.601,-0.411 -74.349,2.123c-8.815,1.132 -15.361,2.621 -18.023,4.194c-0,0 -0,0.001 -0,0.001c-12.487,7.379 -22.296,22.95 -22.296,22.95Z" style="fill:#db5f05;"/><path d="M140.941,124.735c0.007,0.008 0.015,0.015 0.022,0.023c0.446,0.445 0.759,1.489 1.153,2.928c0.771,2.809 1.449,6.914 2.017,11.829c2.249,19.433 2.732,51.356 -0.448,66.993c-0.123,0.605 0.029,1.233 0.414,1.715c0.385,0.483 0.964,0.769 1.581,0.783c29.629,0.665 62.041,-0.578 81.172,-3.728c5.056,-0.833 9.206,-1.805 12.176,-2.898c2.279,-0.839 3.925,-1.796 4.898,-2.769c-0,0 -0,0 -0,0c1.978,-1.979 3.691,-6.195 4.92,-12.054c2.63,-12.539 3.519,-33.012 3.161,-53.235c-0.358,-20.191 -1.954,-40.13 -4.244,-51.647c-1.091,-5.487 -2.505,-9.19 -3.837,-10.522c-0.507,-0.507 -1.382,-1.047 -2.652,-1.507c-2.178,-0.791 -5.808,-1.508 -10.561,-2.114c-15.225,-1.941 -42.4,-2.906 -69.567,-2.896c-27.167,0.01 -54.326,0.994 -69.524,2.926c-4.743,0.603 -8.362,1.314 -10.53,2.095c-1.268,0.458 -2.139,0.994 -2.641,1.496c-0.86,0.86 -1.779,2.645 -2.553,5.271c-1.517,5.142 -2.827,13.922 -3.782,24.508c-0.054,0.597 0.152,1.188 0.565,1.623c0.413,0.434 0.992,0.67 1.591,0.646c15.594,-0.61 32.534,-0.28 42.818,1.505c2.497,0.433 4.582,0.946 6.119,1.567c0.767,0.31 1.376,0.618 1.761,0.993c0.013,0.013 15.971,16.469 15.971,16.469Z" style="fill:#ff9100;"/><path d="M144.167,139.813c6.802,7.664 15.435,19.147 15.616,28.228c0.22,11.065 -0.658,28.918 7.794,41.111c-7.309,0.065 -14.685,0.016 -21.897,-0.146c-0.617,-0.014 -1.196,-0.3 -1.581,-0.783c-0.385,-0.482 -0.537,-1.11 -0.414,-1.715c3.164,-15.557 2.701,-47.235 0.482,-66.695Z" style="fill:#de720a;"/><path d="M228.946,152.106c-0.589,-0.588 -2.247,-1.289 -4.771,-1.678c-4.471,-0.689 -12.23,-0.988 -19.958,-0.944c-7.717,0.044 -15.403,0.428 -19.744,1.075c-1.489,0.222 -2.629,0.49 -3.327,0.765c-0.6,0.237 -1.009,0.527 -1.264,0.782c-0.524,0.524 -1.118,1.645 -1.537,3.276c-0.711,2.766 -1.2,7.347 -1.296,11.997c-0.097,4.681 0.209,9.429 1.016,12.485c0.449,1.699 1.104,2.955 1.817,3.667c0.685,0.686 2.368,1.427 4.856,1.887c4.527,0.837 12.201,1.219 19.849,1.181c7.638,-0.039 15.247,-0.496 19.661,-1.296c2.46,-0.445 4.09,-1.164 4.698,-1.772c0.635,-0.636 1.265,-1.833 1.704,-3.499c0.773,-2.932 1.163,-7.603 1.152,-12.267c-0.012,-4.661 -0.426,-9.311 -1.187,-12.208c-0.435,-1.657 -1.057,-2.838 -1.669,-3.451Z" style="fill:#ffe7c8;"/><path d="M193.314,169.902l22.199,0c1.15,0 2.084,-0.933 2.084,-2.083c-0,-1.15 -0.934,-2.084 -2.084,-2.084l-22.199,0c-1.15,0 -2.083,0.934 -2.083,2.084c-0,1.15 0.933,2.083 2.083,2.083Z" style="fill:#ff9100;"/><path d="M183.718,91.874l4.167,0c1.15,0 2.083,-0.933 2.083,-2.083c0,-1.15 -0.933,-2.083 -2.083,-2.083l-4.167,-0c-1.15,-0 -2.083,0.933 -2.083,2.083c-0,1.15 0.933,2.083 2.083,2.083Zm12.5,0l8.333,0c1.15,0 2.084,-0.933 2.084,-2.083c-0,-1.15 -0.934,-2.083 -2.084,-2.083l-8.333,-0c-1.15,-0 -2.083,0.933 -2.083,2.083c-0,1.15 0.933,2.083 2.083,2.083Zm16.667,0l8.333,0c1.15,0 2.083,-0.933 2.083,-2.083c0,-1.15 -0.933,-2.083 -2.083,-2.083l-8.333,-0c-1.15,-0 -2.084,0.933 -2.084,2.083c0,1.15 0.934,2.083 2.084,2.083Zm-114.538,0l4.167,0c1.15,0 2.083,-0.933 2.083,-2.083c0,-1.15 -0.933,-2.083 -2.083,-2.083l-4.167,-0c-1.15,-0 -2.083,0.933 -2.083,2.083c-0,1.15 0.933,2.083 2.083,2.083Zm12.5,0l8.333,0c1.15,0 2.084,-0.933 2.084,-2.083c-0,-1.15 -0.934,-2.083 -2.084,-2.083l-8.333,-0c-1.15,-0 -2.083,0.933 -2.083,2.083c-0,1.15 0.933,2.083 2.083,2.083Zm16.667,0l8.333,0c1.15,0 2.083,-0.933 2.083,-2.083c0,-1.15 -0.933,-2.083 -2.083,-2.083l-8.333,-0c-1.15,-0 -2.084,0.933 -2.084,2.083c0,1.15 0.934,2.083 2.084,2.083Z" style="fill:#ffe7c8;"/><path d="M144.371,43.195c-0.982,0.05 -1.796,0.781 -1.951,1.752l-3.611,22.636c-0.097,0.609 0.081,1.229 0.486,1.695c0.404,0.465 0.994,0.727 1.611,0.716c13.264,-0.25 27.297,-0.255 40.564,-0.013c0.617,0.011 1.206,-0.251 1.611,-0.717c0.404,-0.465 0.582,-1.086 0.485,-1.694l-3.698,-23.18c-0.159,-0.996 -1.008,-1.735 -2.016,-1.755c-10.898,-0.214 -22.573,0.004 -33.481,0.56Z" style="fill:#902c0a;"/><path d="M20.43,122.177c-0.403,0.642 -0.425,1.452 -0.059,2.116c0.367,0.663 1.066,1.075 1.824,1.075l1.476,-0.613c0.208,-0.19 0.661,-0.29 1.26,-0.463c1.503,-0.436 3.704,-0.821 6.455,-1.168c11.175,-1.412 31.084,-2.121 50.985,-2.126c19.899,-0.005 39.791,0.693 50.936,2.115c2.74,0.35 4.929,0.737 6.421,1.178c0.59,0.175 1.037,0.268 1.235,0.467c0.805,0.805 2.108,0.814 2.925,0.021c0.817,-0.793 0.846,-2.094 0.065,-2.923c-0,-0 -8.144,-8.644 -16.017,-16.516c0,-0.001 -0,-0.001 -0,-0.001c-1.118,-1.118 -3.279,-2.157 -6.313,-2.935c-3.93,-1.007 -9.469,-1.709 -15.864,-2.133c-17.118,-1.133 -40.472,-0.304 -55.11,1.574c-6.625,0.85 -11.54,1.992 -13.54,3.174c-0,-0 -0.001,-0 -0.001,-0c-9.337,5.518 -16.678,17.158 -16.678,17.158Z" style="fill:#db5f05;"/><path d="M69.846,100.23c-0.982,0.05 -1.796,0.78 -1.951,1.752l-2.671,16.746c-0.097,0.609 0.08,1.23 0.485,1.695c0.405,0.466 0.995,0.728 1.611,0.716c9.806,-0.185 20.182,-0.188 29.991,-0.009c0.616,0.011 1.206,-0.251 1.61,-0.717c0.404,-0.465 0.582,-1.086 0.485,-1.695l-2.736,-17.148c-0.158,-0.996 -1.008,-1.735 -2.016,-1.755c-8.074,-0.159 -16.726,0.003 -24.808,0.415Z" style="fill:#902c0a;"/><path d="M143.91,121.811c-0.414,-0.414 -1.123,-0.865 -2.16,-1.241c-1.636,-0.594 -4.361,-1.137 -7.93,-1.592c-11.279,-1.438 -31.41,-2.154 -51.536,-2.147c-20.125,0.008 -40.245,0.738 -51.503,2.169c-3.562,0.453 -6.279,0.992 -7.906,1.578c-1.037,0.374 -1.743,0.823 -2.153,1.233c-1.01,1.01 -2.129,3.831 -2.957,8.043c-1.679,8.533 -2.857,23.333 -3.124,38.32c-0.267,15.019 0.386,30.225 2.32,39.525c0.93,4.473 2.261,7.675 3.76,9.175c0,0 0.001,0 0.001,0c1.478,1.478 5.254,2.909 10.744,3.946c11.538,2.178 31.178,3.287 50.823,3.293c19.646,0.006 39.295,-1.091 50.85,-3.275c5.497,-1.039 9.282,-2.475 10.771,-3.964c-0,0 -0,0 -0,0c1.51,-1.51 2.848,-4.717 3.787,-9.189c1.952,-9.306 2.616,-24.498 2.35,-39.506c-0.265,-14.975 -1.452,-29.764 -3.15,-38.306c-0.838,-4.212 -1.965,-7.039 -2.987,-8.061l-0,-0.001Z" style="fill:#feb452;"/><path d="M132.827,180.962c-0.475,-0.474 -1.796,-1.08 -3.83,-1.393c-3.327,-0.513 -9.1,-0.738 -14.851,-0.705c-6.606,0.037 -13.179,0.421 -16.019,1.04c-1.257,0.273 -2.037,0.731 -2.365,1.058c-0.429,0.429 -0.935,1.337 -1.279,2.672c-0.533,2.075 -0.903,5.511 -0.976,9c-0.073,3.519 0.163,7.088 0.77,9.386c0.363,1.374 0.909,2.382 1.485,2.958c0.549,0.549 1.884,1.177 3.877,1.546c3.373,0.623 9.089,0.911 14.786,0.882c5.687,-0.029 11.354,-0.372 14.64,-0.967c1.977,-0.358 3.273,-0.972 3.762,-1.461c0.517,-0.516 1.045,-1.481 1.402,-2.834c0.58,-2.203 0.879,-5.711 0.87,-9.215c-0.009,-3.5 -0.324,-6.992 -0.896,-9.168c-0.354,-1.348 -0.877,-2.3 -1.376,-2.798l-0,-0.001Z" style="fill:#ffe7c8;"/><path d="M98.983,137.327l4.167,-0c1.15,-0 2.083,-0.934 2.083,-2.083c0,-1.15 -0.933,-2.084 -2.083,-2.084l-4.167,0c-1.149,0 -2.083,0.934 -2.083,2.084c0,1.149 0.934,2.083 2.083,2.083Zm12.5,-0l8.334,-0c1.15,-0 2.083,-0.934 2.083,-2.083c0,-1.15 -0.933,-2.084 -2.083,-2.084l-8.334,0c-1.149,0 -2.083,0.934 -2.083,2.084c0,1.149 0.934,2.083 2.083,2.083Zm16.667,-0l0.657,-0c1.15,-0 2.083,-0.934 2.083,-2.083c0,-1.15 -0.933,-2.084 -2.083,-2.084l-0.657,0c-1.15,0 -2.083,0.934 -2.083,2.084c-0,1.149 0.933,2.083 2.083,2.083Zm-92.326,-0l4.167,-0c1.15,-0 2.083,-0.934 2.083,-2.083c0,-1.15 -0.933,-2.084 -2.083,-2.084l-4.167,0c-1.15,0 -2.083,0.934 -2.083,2.084c-0,1.149 0.933,2.083 2.083,2.083Zm12.5,-0l8.334,-0c1.149,-0 2.083,-0.934 2.083,-2.083c-0,-1.15 -0.934,-2.084 -2.083,-2.084l-8.334,0c-1.15,0 -2.083,0.934 -2.083,2.084c-0,1.149 0.933,2.083 2.083,2.083Zm16.667,-0l0.657,-0c1.15,-0 2.083,-0.934 2.083,-2.083c0,-1.15 -0.933,-2.084 -2.083,-2.084l-0.657,0c-1.15,0 -2.083,0.934 -2.083,2.084c-0,1.149 0.933,2.083 2.083,2.083Z" style="fill:#ffe7c8;"/><path d="M38.486,186.534c-4.151,-0 -7.522,3.37 -7.522,7.521c0,4.152 3.371,7.522 7.522,7.522c4.151,-0 7.521,-3.37 7.521,-7.522c0,-4.151 -3.37,-7.521 -7.521,-7.521Zm18.638,-0c-4.151,-0 -7.521,3.37 -7.521,7.521c-0,4.152 3.37,7.522 7.521,7.522c4.152,-0 7.522,-3.37 7.522,-7.522c-0,-4.151 -3.37,-7.521 -7.522,-7.521Z" style="fill:#ffe7c8;"/><path d="M106.083,195.054l16.423,-0c1.15,-0 2.083,-0.934 2.083,-2.084c0,-1.15 -0.933,-2.083 -2.083,-2.083l-16.423,-0c-1.15,-0 -2.084,0.933 -2.084,2.083c0,1.15 0.934,2.084 2.084,2.084Z" style="fill:#feb452;"/><path d="M139.684,65.85c-1.095,0.022 -1.986,0.887 -2.04,1.981l-1.583,32.457c-0.127,2.003 0.577,3.971 1.949,5.439c1.378,1.475 3.306,2.312 5.325,2.312l35.707,-0c2.019,-0 3.947,-0.837 5.325,-2.312c1.372,-1.468 2.076,-3.436 1.949,-5.439c-0,-0 -1.584,-32.47 -1.584,-32.47c-0.053,-1.095 -0.945,-1.961 -2.04,-1.982c-14.029,-0.271 -28.974,-0.266 -43.008,0.014Z" style="fill:#aa2f05;"/><path d="M66.395,116.99c-1.095,0.021 -1.986,0.887 -2.039,1.981l-1.171,24.009c-0.103,1.63 0.471,3.23 1.586,4.424c1.123,1.2 2.693,1.882 4.336,1.882l26.417,-0c1.644,-0 3.214,-0.682 4.336,-1.882c1.115,-1.194 1.689,-2.794 1.587,-4.423c-0,-0 -1.172,-24.02 -1.172,-24.02c-0.053,-1.094 -0.945,-1.96 -2.04,-1.981c-10.386,-0.202 -21.45,-0.198 -31.84,0.01Z" style="fill:#aa2f05;"/></svg>