<?xml version="1.0" encoding="UTF-8"?>
<svg id="Layer_1" data-name="Layer 1" xmlns="http://www.w3.org/2000/svg" viewBox="0 0 294.71 270.44">
  <defs>
    <style>
      .cls-1 {
        fill: #ffb026;
      }

      .cls-1, .cls-2, .cls-3, .cls-4, .cls-5, .cls-6 {
        stroke-width: 0px;
      }

      .cls-2 {
        fill: #e07707;
      }

      .cls-3 {
        fill: #380101;
      }

      .cls-4 {
        fill: #ab6238;
      }

      .cls-5 {
        fill: #f5b67f;
      }

      .cls-6 {
        fill: #e8974f;
      }
    </style>
  </defs>
  <path class="cls-6" d="M276.84,121.04c-3.64.04-7.28.14-10.92.3-1.37.06-2.71-.98-3-2.33-.7-3.21-.99-6.41-1.1-9.63h-1.27V31.4c0-14.49-11.74-26.23-26.23-26.23h-88.58c-9.04,0-16.51,6.61-17.9,15.26-1.81-8.67-9.5-15.19-18.71-15.19H25.73C13.59,5.24,3.74,15.08,3.74,27.22v86.57c0,5.97,4.84,10.81,10.81,10.81h27.63v97.98h246.04v-90.18c0-6.28-5.1-11.42-11.38-11.35Z"/>
  <g>
    <path class="cls-1" d="M85.75,38.43c3.28-1.06,5.63-4.09,6.74-7.35,1.11-3.26,1.19-6.78,1.24-10.22.04-2.93.08-5.89-.46-8.77-.54-2.88-1.7-5.72-3.75-7.82l-52.48-1.29c-.02,10.38-.04,20.77-.06,31.15,0,3.77.21,8.05,3.08,10.5,2.52,2.15,6.36,2.06,9.41.77,3.05-1.29,5.55-3.58,8.15-5.64,2.6-2.06,5.5-3.99,8.8-4.33,6.58-.69,13.03,5.03,19.33,3.01Z"/>
    <path class="cls-1" d="M206.9,37.69c4.51.43,9.03-1.8,11.97-5.24,2.95-3.44,4.44-7.95,4.86-12.45.42-4.51-.17-9.05-.99-13.5l-59.55-.18c-.04,3.78-.08,7.56-.12,11.33-.04,4.16-.06,8.47,1.6,12.29,1.65,3.82,5.46,7.04,9.6,6.64,4.26-.41,7.43-4.31,11.59-5.31,3.63-.87,7.39.6,10.7,2.32,3.31,1.71,6.62,3.74,10.33,4.1Z"/>
    <path class="cls-1" d="M75.85,123.69c-.96,5.17-1.41,10.44-1.34,15.69.05,3.83.62,8.11,3.62,10.5,3.31,2.63,8.16,1.8,12.06.17,3.9-1.63,7.69-3.97,11.91-4.02,4.22-.05,8.06,2.19,11.91,3.92s8.44,2.97,12.16.99c3.02-1.61,4.68-4.95,5.63-8.24,1.77-6.15,1.67-12.83-.29-18.92l-55.66-.09Z"/>
    <path class="cls-1" d="M248.45,121.31l-55.88.08c-.64,3.57-1.29,7.17-1.29,10.8s.69,7.34,2.55,10.45c.82,1.37,1.87,2.62,3.19,3.53,2.8,1.92,6.5,2.07,9.81,1.32,3.31-.74,6.39-2.27,9.55-3.5,3.17-1.23,6.57-2.17,9.93-1.66,3.57.54,6.67,2.66,10.03,3.98,3.36,1.32,7.62,1.65,10.17-.9,1.73-1.73,2.2-4.32,2.46-6.75.6-5.77.42-11.62-.53-17.34Z"/>
  </g>
  <path class="cls-5" d="M280.7,221H39.38c-5.06,0-9.17,4.11-9.17,9.17s4.11,9.17,9.17,9.17h4.34c-.32,4.6-.64,9.19-.96,13.79-.19,2.8-.31,5.88,1.43,8.08,1.84,2.33,5.11,2.85,8.07,3.12,9.57.87,19.21.87,28.78,0,4.08-.37,8.7-1.24,10.85-4.73,1.8-2.93,1.21-6.67.55-10.04-.66-3.4-1.33-6.81-1.99-10.21h44.07c.09,5.39.54,10.77,1.45,16.08.43,2.53,1.04,5.2,2.88,6.98,2.2,2.11,5.53,2.39,8.58,2.48,9.99.31,20-.04,29.94-1.03,2.74-.27,5.74-.73,7.52-2.83,1.93-2.27,1.73-5.6,1.42-8.57-.46-4.37-.92-8.74-1.37-13.11h43.63c.23,4.22.45,8.43.68,12.65.1,1.93.25,3.98,1.38,5.55,1.46,2.03,4.14,2.69,6.59,3.17,7.44,1.45,14.96,2.55,22.51,3.29,3.49.34,7.06.6,10.46-.24s6.66-3,7.98-6.24c1.11-2.72.74-5.78.35-8.69-.42-3.16-.84-6.32-1.25-9.48h3.42c5.06,0,9.17-4.11,9.17-9.17s-4.11-9.17-9.17-9.17Z"/>
  <g>
    <path class="cls-2" d="M200.51,24.16c-5.88-3.88-15.39-3.34-21,.86-2.86,2.14-1.36,7.31,2.6,6.16,2.58-.75,5.07-1.59,7.79-1.68,2.71-.09,5.27.58,7.93,1.03,3.83.66,6.12-4.11,2.69-6.38Z"/>
    <path class="cls-2" d="M53.14,26.91c-2.55,2.3.12,7.1,3.44,5.9,2.14-.78,4.26-1.6,6.57-1.58,2.31.02,4.49.84,6.76,1.1,3.16.37,4.26-3.9,2.43-5.87-4.75-5.12-14.41-3.87-19.2.45Z"/>
    <path class="cls-2" d="M94.44,138.17c-2.85,2.22-.12,5.97,2.61,6.3,2.54.3,4.97-.9,7.53-.71,1.94.15,3.4,1.34,5.25,1.7,2.65.51,5.07-1.6,4.38-4.38-1.97-7.91-14.89-6.71-19.77-2.91Z"/>
    <path class="cls-2" d="M229.48,135.64c-3.96-4.67-15.18-4.26-17.51,1.8-.99,2.57,1.94,5.02,4.33,4.33,1.76-.5,3.14-1.17,5.03-1.15,1.96.03,3.82.74,5.78.74,3.08,0,4.18-3.58,2.37-5.72Z"/>
  </g>
  <g>
    <path class="cls-4" d="M46.59,55.62c3.43.1,6.48-.96,9.33-2.83,1.66-1.09,2.98-2.79,4.65-3.83,5.71-3.56,7-1.82,11.76-.39,15.74,4.73,32.21-6.9,29.11-24.09-.84-4.68-7.8-3.31-7.98,1.08-.32,7.65-3.85,15.07-12.63,15.58-5.59.32-10.36-3.54-15.97-3.24-3.83.21-6.57,1.8-9.53,4.12-6.64,5.21-10.99,6.68-16.78-.57-2.37-2.97-6.65.31-5.94,3.46,1.47,6.45,7.46,10.52,13.98,10.72Z"/>
    <path class="cls-4" d="M161.3,47.3c11.35,5.76,21.08-4.73,32.24-1.4,10.39,3.1,18.73,7.14,28.73-.07,7.37-5.32,11.22-15.46,7.71-24.02-1.48-3.61-7.1-3.44-7.17.97-.12,7.95-2.01,16.44-11.2,18.32-7.17,1.46-12.85-3.62-19.6-4.65-4.76-.72-8.77.38-13.28,1.92-9.42,3.22-21.12,2.5-19.21-11.56.63-4.61-5.69-6.69-7.17-1.98-2.76,8.77.48,18.16,8.94,22.45Z"/>
    <path class="cls-4" d="M98.32,159.28c11.01.27,18.67,7.92,30.02,2.99,7.6-3.31,13.78-11.29,13.16-19.79-.32-4.43-6.29-5.37-7.75-1.05-2.64,7.81-6.24,14.3-15.69,13.8-5.89-.31-11.14-3.67-16.97-4.48-5.52-.77-9.19,1.11-14.38,2.53-13.77,3.76-14.41-7.64-14.55-18.36-.06-4.12-6.7-5.37-7.47-1.01-1.58,9.04-1.37,19.37,6.16,25.83,9.9,8.48,17.01-.7,27.48-.45Z"/>
    <path class="cls-4" d="M161,220.88c3.52-.48,3.33-6.27,0-6.93-17.31-3.41-36.31-1.97-53.92-2.47-17.43-.5-36.69-3.37-53.91-.54-3.53.58-3.31,6.17,0,6.92,17.02,3.82,36.5,1.97,53.91,2.47,17.62.5,36.43,2.95,53.92.55Z"/>
    <path class="cls-4" d="M282.98,215.05c-15.13-4.24-32.74-1.88-48.31-2.1-13.97-.2-32.23.86-44.47-7.14-13.17-8.6-11.07-28.42-10.98-42.09.09-13.78.56-28.46-5.32-41.26-.34-.73-.81-1.24-1.35-1.57.59-.62.97-1.4,1.1-2.22,8.61.76,17.34.84,25.85,1.02,16.04.34,32.31.82,48.35.06,5.56-.27,5.58-8.4,0-8.66-26.62-1.23-53.4,1.27-79.96-2.03-5.67-.7-11.52-1.77-16.6-4.54-9.44-5.13-10.99-14.07-11.43-23.98-.85-18.99-.07-38.49-2.81-57.33-.64-4.41-7.05-2.93-7.34.99-.85,11.39.11,22.98.52,34.39.36,10.31.05,20.95,1.56,31.17.24,1.62.6,3.15,1.03,4.62-.97.38-1.75,1.17-1.99,2.45-1.07,5.66-1.3,11.36-1,17.07-.31-.28-.66-.49-1.04-.66-.19-.68-.56-1.29-1.02-1.81.46-1.34.93-2.68,1.39-4.02.55-1.59,0-3.01-1.02-4.03.12-.25.22-.52.29-.82.87-3.99,2.45-8.61,1.6-12.68-.4-1.92-2.14-2.74-3.82-2.59,1.18-9.01,1.64-18.28.25-27.1-.72-4.59-7.04-2.87-7.48,1.01-1.18,10.38-.85,20.79-2.45,31.16-.6,3.88-1.16,9.31-3.69,12.54-4.18,5.33-11.91,4.98-17.88,5.45-18.7,1.47-39.04.95-57.29,5.34-4.2,1.01-2.95,6.84.97,7.15,13.42,1.06,27.55-1.38,40.96-2.44,7.11-.56,15.82-.2,23.65-1.46.59,1.09,1.66,1.95,3.09,2.05,2,.15,3.9-.08,5.7-.57,1.15,1.35,3.05,1.96,5.18.73.65-.38,1.28-.77,1.9-1.19,1.05.66,2.35.93,3.55.58,1.65,1.47,4,1.92,6.75.59.4-.2.73-.45,1.01-.72.02.2.04.39.07.59.54,4.32,6.51,6.03,8.23,1.72,1.49.3,3.18-.11,4.27-1.11.17.07.34.15.53.21,1.56.49,3.22-.11,4.33-1.23.4.25.83.47,1.27.65,1.25.55,2.55.79,3.92.91,4.63.43,9.49.29,14.19.1-.69.91-1.05,2.07-.74,3.34,4.27,17.51,3.28,34.2,4,52.04.27,6.54.91,13.43,2.99,19.67-1.16.55-2.06,1.63-1.98,3.01.28,4.92.49,9.84.83,14.76,0,.12.03.23.05.34-.14.03-.28.03-.42.06-3.03.65-3.13,5.64,0,6.22,3.88.72,7.87.39,11.81.35,3.96-.04,7.9.07,11.81-.63,1.44-.26,2.21-1.55,2.31-2.9,8.69,2.29,18.17,2.65,26.66,3.02,9.58.42,19.18.29,28.77.31,9.51.01,19.29,1.09,28.74.09,3.74-.4,5-5.76.93-6.89Z"/>
    <path class="cls-4" d="M248.23,146.36c-8.31,6.68-18.48.38-27.71-.03-8.73-.39-20.39,6.44-26.81-2.01-2.34-3.08-7.71-1.47-6.61,2.78,3.68,14.14,19.93,8.53,29.99,7.81,12.48-.9,27.72,9.06,36.9-4.1,2.57-3.69-2.77-6.85-5.76-4.45Z"/>
    <path class="cls-4" d="M185.58,248.16c-.48-.26-.98-.49-1.46-.73,1.75-1.73,1.61-5.42-1.35-5.92-14.01-2.37-28.66-1.27-42.69.39-.44.05-.83.17-1.18.31-.21-.9-.43-1.79-.65-2.62-1.08-4.07-6.91-2.3-6.21,1.71.34,1.93.5,3.93.58,5.89.08,1.98-.19,4.04.42,5.95.39,1.22,1.61,2.07,2.87,2.24.86.5,1.98.64,3.19.13,15.34-6.53,28.22-7.04,43.84-1.05,3.67,1.41,6.02-4.44,2.65-6.29Z"/>
    <path class="cls-4" d="M275.26,240.64c-7.35-.57-14.88-.02-22.22,1.05-.3-1.72-1.6-3.34-3.61-3.34-5.54,0-11.36.16-16.76,1.51-1.96.49-2.73,2.42-2.47,4.14-.01,0-.03.01-.04.02-2.62,1.28-1.73,5.05.48,6-.1.12-.21.23-.3.35-2.68,3.42,1.38,7.64,4.81,4.81,10.07-8.33,27.79-6.88,40.12-7.74,4.38-.3,4.36-6.46,0-6.8Z"/>
    <path class="cls-4" d="M92.82,248.06c.32-.73.42-1.57.19-2.29-.77-2.39-2.7-3.03-4.85-3.81-1.57-.57-3.16-1-4.75-1.51-1.81-.58-3.32.54-3.93,2.02-10.14-2.06-21.5-.99-31.18-1.09-3.68-.04-4.57,5.65-.88,6.5,14.07,3.26,27.87-.75,41.36,5.99,3.96,1.98,7.08-3.07,4.04-5.81Z"/>
  </g>
  <path class="cls-3" d="M294.51,227.86c-.39-2.62-1.54-4.7-3.14-6.33,1.55-2.58,1.54-6,1.4-9.2-.27-6.36-.05-13.2-1.79-19.36-.91-3.22-6.24-3.61-6.92,0-.76,4.05-.6,8.09-.44,12.2.06,1.5,1.37,10.89.19,11.79-.28.21-.52.43-.73.67-.13-.02-.26-.05-.39-.07-9.09-1.08-18.86-.2-28.01-.18-21.54.06-43.09.13-64.61.89-5.1.18-5.11,7.76,0,7.94,28.37.96,56.78-.24,85.16.08,2.75.03,13.69.19,9.83,5.05-2.44,3.07-8.84,1.9-12.73,1.93-9.15.07-18.29.13-27.44.2-16.67.12-33.33.24-50,.36-34.56.25-69.11.5-103.67.75-8.02.06-16.05.12-24.07.17-4,.03-8,.06-12,.09-3.56.03-10.31,1.32-13.68.1-12.47-4.52-1.18-9.8,3.15-10.15,3.31-.27,6.88.15,10.19.22,6.99.16,13.98.31,20.96.47,33.11.72,66.53,2.29,99.63.72,5.07-.24,5.07-7.63,0-7.88-.16,0-.32-.01-.48-.02-.17-13.74-1.42-27.56-2.24-41.27-.86-14.23-1.06-28.69-2.62-42.86-.34-3.13-1.18-5.71-2.39-7.85,5.2-2.65,16.02-1.47,20.91-1.43-1.46,8.64-.2,19.65,5.92,25.29,10.71,9.88,20.6-7.37,30.83-2.17,7.84,3.99,14.43,9.16,22.8,2.61,8.17-6.4,8.05-16.49,6.44-25.8.38,0,.76,0,1.14.01,3.5.05,7,.11,10.49.18,2.96.06,9.3-1.05,11.87.42,4.71,2.68,3.85,10.68,4.22,15.5.92,11.91.24,24.06,2.23,35.85.54,3.23,5.99,3.24,6.53,0,2.49-15.04,1.12-31.83-.99-46.88-1.98-14.06-13.09-13.9-24.61-13.83.13-21.61,1.46-43.29.22-64.88-.83-14.41-.32-41.73-17.28-47.36-10-3.32-22.57-1.41-32.98-1.49-13.13-.1-26.26-.2-39.39-.3-12.95-.1-37.23-4.35-47.65,6.72-.16-.24-.31-.48-.48-.71C120.55-1.66,106.36.17,95.68.09c-15.63-.11-31.27-.16-46.89.24-11.24.29-27.51-1.64-37.7,4.4C2.04,10.1,1.12,21.59.48,31.02c-.96,13.98-.29,28.33.48,42.3.3,5.37,8.12,5.4,8.37,0,.51-11.22-.51-22.44-.34-33.67.16-10.89-.88-26.55,12.48-29.04,3.61-.67,7.35-1.04,11.13-1.27-.34,8.26.05,16.61,1.28,24.77.63,4.22,1.3,8.65,4.36,11.9,3.43,3.64,8.32,4.62,12.87,2.59,5.44-2.43,9.35-11.95,15.94-8.91,4.52,2.09,6.38,5.46,12.12,5.33,4.86-.11,9.39-2.39,12.66-5.9,7.8-8.36,6.36-19.96,3.46-30.18.13,0,.27,0,.4,0,5.18.04,10.54-.29,15.69.28,9.17,1.01,11.76,7.15,12.14,15.51.46,9.97.53,19.97.77,29.94.5,21.05.97,42.09,1.53,63.14-2.05.17-4,.31-5.77.38-14.67.52-29.34,1.04-44.01,1.59-6.77.25-15.82-.58-23.33,1.3-.1-.02-.19-.04-.29-.06-11.26-1.25-22.88.9-34.09-.47-11-1.35-8.85-8.7-8.79-16.88.04-5.25.2-10.49-.74-15.68-.65-3.59-6.59-3.59-7.25,0-1.32,7.21-.92,14.8-.92,22.12,0,5.99.83,12.5,6.01,16.32,5.42,4,13.21,2.98,19.58,2.99,4.97,0,10.04.17,15.09.12-1.42,3.14-1.95,6.79-2.38,10.12-1.25,9.47-1.05,19.08-.68,28.61.19,4.91,7.46,4.93,7.64,0,.36-9.64-3.01-34.91,8.34-38.42,4.95-1.53,10.75-1.83,16.58-1.81-1.83,8.81-.78,20.69,5.66,26.63,10.71,9.88,20.6-7.37,30.83-2.17,7.84,3.99,14.43,9.16,22.8,2.61,9.09-7.12,7.91-18.8,5.86-28.9,4.7-.22,9.4-.35,14.03-.13,7.29.35,10.78,3.17,11.41,10.68.48,5.82.71,11.67,1.06,17.5,1.29,21.15,1.78,42.6,4.1,63.68-34.82-1.34-69.81-.87-104.64-1.65-4.31-.1-10.07-.76-15.65-.64,1.04-10.52,1.63-21.48-.03-31.85-.69-4.32-6.61-2.7-7.03.95-1.21,10.61-1.13,21.42-1.91,32.11-5.33,1.59-9.31,5.06-9.73,12.25-.52,8.96,4.84,12.62,11.73,14.03-.94,7.43-2.52,17,3.28,22.67,6.28,6.15,17.76,3.6,25.52,3.09,7.29-.48,19.4.47,25.57-4.5,6.55-5.27,4.42-13.63,4.42-21.03,27.97-.2,55.94-.41,83.91-.61,1.05,5.72,2.26,13.96-2.99,16.55-5.41,2.67-14.22,2.04-20.07,2.07-3.77.02-14.52,1.12-17.59-1.65-2.78-2.51-.65-7.68-4.26-10.2-.96-.67-2.7-.7-3.65,0-5.12,3.73-1.91,14.26,2.5,17.35,6.48,4.55,18.68,3.52,26.08,3.32,7.37-.2,18.3-.03,24.63-4.57,6.26-4.49,5.5-15.19,4.27-22.93,1.32,0,2.63-.02,3.95-.03,9.76-.07,19.52-.14,29.28-.21.19,7.3-2.26,15.53,3.66,21.2,6.1,5.84,18.67,4.73,26.35,5.24,7.28.48,18.42,2.85,24.73-2.31,7.09-5.8,4.82-16.99,3.91-24.82,7.33-1.28,13.05-4.8,11.68-13.91ZM81.96,34.97c-7.4,3.02-11.13-6.7-18.85-5.89-2.41.25-4.61,1.47-6.52,2.87-1.57,1.15-2.65,2.85-4.15,4.02-2.01,1.57-6.27,3.69-8.99,1.6-2.02-1.55-1.6-11.11-1.79-13.71-.36-4.93-.46-9.86-.57-14.79,5.53-.06,11.07.04,16.39-.05,9.52-.15,19.05-.15,28.57-.1,2.78,8.74,6.03,21.93-4.08,26.05ZM233.87,143c-4.23-2.11-7.25-5.17-12.29-5.48-5.91-.36-8.25,3.73-13.36,4.89-11.89,2.7-11.8-9.23-11.32-17.62,5.02-.06,10.04-.14,15.07-.17,11.19-.06,22.38-.02,33.57.09,1.45,8.31,2.1,25.16-11.67,18.29ZM189.71,10.98c9.16.07,18.32.14,27.49.21,1.62,9.19,2.23,28.84-12.81,22.04-4.78-2.16-8.26-6.12-13.72-6.83-5.91-.77-9.78,2.51-14.56,5.33-11.37,6.68-9.81-12.34-9.08-20.91,7.56.06,15.12.11,22.68.17ZM127.25,127.83c1.59,7.6,3.19,26.98-11.4,19.69-4.23-2.11-7.25-5.17-12.29-5.48-5.91-.36-8.25,3.73-13.36,4.89-12.43,2.82-11.77-10.34-11.26-18.74,2.66.06,5.23.09,7.65.01,11.15-.38,22.3-.77,33.44-1.16,2.36-.08,4.74-.21,7.12-.34,0,.36.01.74.1,1.13ZM134.66,117.07c-.71-26.68-1.26-53.37-1.94-80.05-.14-5.43.26-11.77-.58-17.67.07-.15.15-.29.21-.46,3.59-9.97,16.98-8.51,26.15-8.19-1.98,9.2-2.24,22.86,4.67,29.12,3.12,2.83,7.45,3.52,11.43,2.43,8.14-2.23,11.02-8.88,20.37-4.57,8.85,4.08,15.57,9.84,24.76,2.11,8.73-7.34,8.15-18.59,6.4-28.83,9.69-.43,21.45-.63,25.45,7.47,3.53,7.15,3.9,17,4.63,24.77.7,7.5.98,15.03,1.04,22.57.14,16.73-.57,33.46-.66,50.2-18.37-.27-36.74-.32-55.12-.13-9.98.11-20.32-.38-30.26.56-3.92.37-7.38,1.31-10.04,3.63-7.03-3.8-17.11-3.67-26.51-2.97ZM85.44,258.44c-4.81,2.13-13.79,1.38-18.97,1.7-5.78.35-16.64,3.16-19.14-4.7-1.19-3.76.32-7.61,0-11.52,4.72.1,9.42-.25,12.97-.28,9.69-.07,19.39-.14,29.08-.21.33,5.54,1.94,12.4-3.94,15ZM274.98,255.44c-3.02,7.46-13.07,5.07-19.14,4.7-5.21-.32-14.23.5-18.97-1.7-5.93-2.76-3.96-10.39-3.88-16.04,9.69-.07,19.38-.14,29.07-.21,3.37-.02,8.23.34,13.17.24-.89,4.4,1.31,9.17-.25,13.02Z"/>
</svg>