<?xml version="1.0" encoding="UTF-8"?>
<svg id="Layer_1" data-name="Layer 1" xmlns="http://www.w3.org/2000/svg" viewBox="0 0 368.62 295.86">
  <defs>
    <style>
      .cls-1 {
        fill: #ffb026;
      }

      .cls-1, .cls-2, .cls-3, .cls-4, .cls-5, .cls-6, .cls-7, .cls-8, .cls-9 {
        stroke-width: 0px;
      }

      .cls-2 {
        fill: #e07707;
      }

      .cls-3 {
        fill: #ff4a4a;
      }

      .cls-4 {
        fill: #380101;
      }

      .cls-5 {
        fill: #ab6238;
      }

      .cls-6 {
        fill: #a32c2c;
      }

      .cls-7 {
        fill: #7a7a7a;
      }

      .cls-8 {
        fill: #e8974f;
      }

      .cls-9 {
        fill: #c2c2c2;
      }
    </style>
  </defs>
  <rect class="cls-7" x="62.33" y="121.75" width="243.61" height="113.63"/>
  <path class="cls-8" d="M71.52,192.85s68.48-1.84,76.04,1.36c7.56,3.2,4.94,23.8,4.94,23.8h59.75s-4.76-25.16,2.72-28.22c7.48-3.06,82.95-3.4,82.95-3.4,0,0-3.74,63.57,2.72,105.39H69.14s6.08-50.05,2.38-98.93Z"/>
  <g>
    <path class="cls-1" d="M72.02,192.11c.41,9.24.81,18.48,1.22,27.71,2.74-1.37,6.07-.82,8.9.35,2.83,1.17,5.4,2.92,8.27,3.99,2.87,1.08,6.27,1.4,8.86-.24,2.87-1.82,3.93-5.44,4.6-8.77,1.51-7.52,2.14-15.22,1.9-22.88l-33.75-.16Z"/>
    <path class="cls-1" d="M191.89,219.26l-43.5-.55c.08,5.53.17,11.07.25,16.6.03,2.14.11,4.43,1.36,6.16,1.35,1.87,3.81,2.66,6.12,2.59,2.3-.07,4.51-.88,6.69-1.64,2.18-.76,4.42-1.49,6.73-1.42,4.67.15,8.85,3.6,13.52,3.35,3.39-.18,6.47-2.39,8.24-5.28s2.35-6.39,2.24-9.79c-.11-3.39-.88-6.73-1.64-10.03Z"/>
    <path class="cls-1" d="M295.23,186.39c-6.91.33-13.82.66-20.72.99l-18.51.48c.04,7.25.09,14.51.13,21.76.02,2.88.13,6.04,2.04,8.2,2.08,2.36,5.65,2.75,8.74,2.18s6.01-1.9,9.12-2.38c6.42-.98,12.76,1.76,18.68,4.44,3.2-11.59,3.38-24,.51-35.68Z"/>
  </g>
  <path class="cls-9" d="M328.69,106.58S215.38,25.42,188.19,25.42,39.51,104.31,39.51,104.31c9.07,66.18,3.63,187.46,3.63,187.46h26c6.94-30.48,3.44-101.36,1.28-134.63-.63-9.7,7.01-17.93,16.73-18.03l128.27-1.26,65.23-.45s11.33,1.81,15.7,8.61c4.37,6.8-4.37,72.7,4.3,145.76h24.42c-4.53-58.2,3.63-185.19,3.63-185.19Z"/>
  <path class="cls-3" d="M44.75,81.81c.99-.66,29.3-20.5,29.3-20.5,0,0,79.86-56.21,110.26-56.21s81.98,38.36,81.98,38.36l77.05,51.91s9.59,9.59,5.95,13.89-18.19-2.65-18.19-2.65l-113.75-69.77s-30.79-21.24-70.62,2.77C106.91,63.62,28.87,110.66,28.87,110.66c0,0-6.07,3.62-10.25-3.39s26.12-25.46,26.12-25.46Z"/>
  <g>
    <path class="cls-5" d="M120.43,263.31c.01-.07.03-.13.04-.21.9-8.28.7-16.95.92-25.32,0-.06.03-.1.03-.16,0-.03,0-.06,0-.09,0-.11-.01-.23-.02-.34,0-.17,0-.35.01-.52.04-1.23-.68-2.14-1.64-2.63,2.13-4.63,4-9.28,6.96-13.63.5-.74.7-1.5.68-2.24,7.91,1.29,16.45.45,22.53-1.96,3.9-1.54,3.65-7.62-1.04-7.67-13.76-.16-30.13,5.72-35.47-12.25-1.18-3.96-6.9-3.1-7.08.96-.19,4.12.77,7.58,2.53,10.43-2.19,4.29-2.92,9.04-2.77,13.8-1.09.29-2.12.7-2.96,1.16-1.21.66-1.7,1.77-1.68,2.88-.18.03-.34.08-.52.12-.55.1-1.01.34-1.4.66-2.78-.01-5.53.17-8.26.54-.22-.71-.68-1.35-1.44-1.78-3.97-2.24-11.88-8.27-15.06-1.78-1.16,2.37-1.04,5.52-1.37,8.09-.44,3.5-.88,7.01-1.32,10.51-.23,1.83.81,3.05,2.22,3.59-.7,1.5-1.35,3.03-1.92,4.63-.97,2.72,1.1,4.54,3.36,4.7-.49,3.29-.66,6.75-.57,10.21-1.16.29-2.23,1.07-2.73,2.35-2.54,6.5-1.88,14.51-.56,21.21.55,2.77,4.26,3.79,6.42,2.34.76.13,1.56.03,2.3-.25,2.96,2.88,9.12.54,7.43-4.1-4.5-12.37-10.08-48.77,13.16-44.26,10.33,2,9.68,11.36,10.37,19.69.7,8.44,1.27,16.88,1.94,25.32.4,4.98,7.1,4.86,7.66,0,.84-7.4-.04-14.83-.63-22.23-.05-.58-.08-1.18-.11-1.78Z"/>
    <path class="cls-5" d="M144.06,245.48c5.45,11.11,19.1,4.45,28.34,5.81,8.77,1.28,23.02,3.99,24.92-8.39.64-4.15-4.13-6.2-6.67-2.81-6.09,8.13-15.84,1.88-23.73,2.08-5.74.15-12.61,4.09-17.25-1.01-2.87-3.15-7.32.85-5.61,4.33Z"/>
    <path class="cls-5" d="M296.69,275.51c-.67-6.68-1.35-13.35-2.02-20.03-.17-1.72-.98-2.9-2.03-3.58-.06-1.21-.14-2.41-.24-3.62.22-7.4.62-14.82,1.3-22.18.17-1.85-1.02-3.19-2.55-3.77-1-.85-2.32-1.25-3.67-.72-.02,0-.04.02-.06.02-.24-.3-.52-.56-.84-.78.24-3.03-3.66-5.21-6.59-3.91-1.06.47-2.12.95-3.18,1.43-1.22-.47-2.69-.32-4.04.9-.85.78-1.71,1.56-2.56,2.34-.34.31-.59.64-.81.97-4.15.26-8.56,1.58-12.05-1.4-4.7-4.01-3.72-12.14-3.91-17.57-.13-3.88-6.46-5.18-7.13-.96-1.48,9.36-1.28,21.02,7.61,26.87,4.57,3.01,8.05,1.65,13.14,2.05,5.61.44,8.08,2.19,9.67,7.25,1.31,4.18,1.91,8.72,2.26,13.06.6,7.51.5,15.68-6.87,19.67-5.02,2.72-11.4,3.22-17.02,2.91-7.71-.42-15.5-3.16-18.5-11.03-2.04-5.34-2.24-10.83-5.23-15.9-2.89-4.91-10.56-.46-7.65,4.47,2.79,4.74,3.2,10.3,5.06,15.35-1.66.52-2.97,1.89-2.83,4.06.16,2.42.33,4.84.49,7.25-16.63.13-33.28,1.03-49.9,1.47-16.42.43-33.53-.57-49.77,1.92-4.49.69-2.79,6.87.99,7.3,16.45,1.9,33.99.01,50.53-.43,16.55-.44,33.2-.55,49.73-1.63.78.94,1.9,1.56,3.24,1.48,11.76-.65,23.77.69,35.49.11.72.93,1.85,1.6,3.38,1.7,6.66.42,22.02,3.8,26.2-3.27,2.05-3.47.74-8.07.36-11.83Z"/>
  </g>
  <g>
    <path class="cls-2" d="M295.94,211.96c-5.03-7.74-18.47-9.15-25.16-2.98-2.77,2.55.21,6.43,3.4,5.84,3.09-.57,5.96-1.56,9.14-.97,2.8.52,4.79,2.25,7.28,3.45,3.26,1.59,7.63-1.82,5.34-5.34Z"/>
    <path class="cls-2" d="M162.99,234.85c-2.7,2.12.23,7.06,3.39,5.83,1.67-.65,3.48-1.16,5.29-.97,1.85.19,3.32,1.23,5.07,1.73,2.87.83,6.04-2.71,4.13-5.37-4.09-5.7-12.84-5.18-17.89-1.22Z"/>
    <path class="cls-2" d="M68.48,209.98c-2.08,1.9-.97,5.5,1.64,6.2,2.86.77,5.89-.21,8.84.22,2.97.44,5.57,2.19,8.46,2.61,2.85.41,5.7-2.28,3.97-5.17-3.75-6.26-17.44-8.89-22.92-3.87Z"/>
  </g>
  <path class="cls-7" d="M326.76,105.63c-18.66-13.69-38.89-25.64-60.26-34.65,1-1.28,1.2-3.31-.15-4.36-5.63-4.37-12.79-7.26-20.09-9.56.4-1.49-.01-3.12-1.7-3.88-4.37-1.96-9.09-3.77-14-5.38,2.2-1.9,2.8-5.89-.41-7.26-.35-.15-.71-.29-1.06-.44,0,0,0,0,0-.01-.04-.01-.08-.02-.12-.04-8.76-3.63-17.71-6.15-26.86-7.47-.22-1.98-1.55-3.63-4.16-3.29-3.12.41-6.23.82-9.35,1.23-1.04-1.38-2.76-2.31-4.66-1.93-18.01,3.6-37.33,9.83-51.65,21.74-1.07.89-1.3,1.94-1.03,2.88-.68.34-1.36.69-2.04,1.02-12.08,6.01-26.46,11.51-36.74,20.32-1.05.9-1.21,2.12-.84,3.2-18.41,8.96-36.58,19.58-52.42,31.87-3.49,2.71.95,7.56,4.48,5.81,21.63-10.72,41.24-24.98,63.28-35.1,24.03-11.04,49.56-17.87,76.11-18.02,51.06-.3,98.69,21.25,139.2,50.97,4.6,3.38,9.03-4.31,4.47-7.65Z"/>
  <g>
    <path class="cls-6" d="M186.51,17.3c-20.27-.93-41.75,9.6-57.04,22.25-3.08,2.54.85,6.57,3.97,5.14,17.39-7.94,32.78-20.43,53.08-19.17,16.38,1.01,30.21,10.57,44.64,17.29,3.25,1.51,7.28-2.62,4.14-5.36-12.43-10.82-32.2-19.39-48.78-20.15Z"/>
    <path class="cls-6" d="M120.05,45.52c-1.01.21-1.93.83-2.77,1.39-.85.57-1.78,1.15-2.45,1.92-.92,1.04-1.31,2.66-.5,3.91.76,1.17,2.25,1.93,3.64,1.48,2.07-.66,4.47-2.21,5.73-3.97.74-1.04.47-2.65-.25-3.58-.82-1.06-2.09-1.43-3.39-1.16Z"/>
    <path class="cls-6" d="M259.04,53.79c-1.34-2.69-4.3-4.45-6.74-6.07-2.54-1.68-5.23-3.28-8.19-4.07-2.93-.79-5.91,3.37-3.2,5.5,2.29,1.79,4.81,3.19,7.22,4.79,2.37,1.57,4.53,3.73,7.29,4.56,2.84.85,4.81-2.31,3.62-4.71Z"/>
  </g>
  <g>
    <path class="cls-4" d="M364.72,287.31c-12.19,0-24.38-.04-36.56-.09.56-29.4-.47-58.82.34-88.24.8-28.79,2.8-57.46,4.69-86.19.38.21.75.43,1.13.63,8.47,4.59,25.52,2.92,20.97-10.93-2.22-6.76-12.59-11.81-17.91-15.79-3.54-2.65-8.23,3.37-4.76,6.17,2.75,2.22,17.4,10.56,12.44,15.12-1.71,1.57-8.7-3.29-10.71-4.52-11.34-6.98-22.68-13.95-34.02-20.92-26.43-16.25-52.88-32.49-79.32-48.72-15.81-9.7-33.55-14.08-51.93-9.65-11.44,2.76-20.97,9.23-30.83,15.28-28.68,17.58-57.38,35.13-86.05,52.72-5.63,3.45-11.26,6.91-16.88,10.36-2.11,1.29-9.75,6.76-11.91,5.27-4.51-3.11,1.53-5.69,3.56-7.19,3.84-2.82,7.68-5.64,11.52-8.47,5.39-3.96,11.74-9.46,16.42-12.89,3.85-2.83.11-9.35-3.79-6.48-11.07,8.13-23.26,15.07-33.78,23.99-6.61,5.6-6.5,16.65,2.94,19.48,5.4,1.62,10.86-.93,15.47-3.62,1.91,21.62,3.79,43.19,4.57,64.89.86,23.62-.33,47.25.42,70.85.16,5.19,7.4,4.99,7.92,0,2.42-23.35,1.38-47.43.53-70.85-.84-23.29-2.23-46.72-5.19-69.85,26.57-15.95,52.78-32.53,79.19-48.73,10.43-6.4,20.81-12.91,31.31-19.21,19.94-11.99,42.09-10.59,61.6,1.29,29.44,17.92,58.76,36.02,88.15,54.01,6.86,4.2,13.65,8.69,20.56,12.89-3.06,30.22-4.35,60.71-5.19,91.06-.81,29.24-1.8,58.97.25,88.2-5.6-.03-11.19-.05-16.79-.07-.64-23.13-2.43-46.14-2.25-69.32.09-11.45.43-22.89.98-34.32.49-10.16,2.74-21.31,1.62-31.39-1.4-12.56-12.06-18.89-23.8-18.7-8.86.14-18.46-.2-27.15,1.65-3.37.71-3.58,6.48,0,7.02,7.4,1.12,15.23.43,22.7.25,3.29-.08,7.28-.7,10.51.2,11.89,3.31,8.69,17.09,8.09,26.3-.32,4.84-.62,9.71-.89,14.6-12.68-.03-25.63-.6-38.19,1.14-3.22.44-3.23,6.08,0,6.51,12.41,1.69,25.2,1.13,37.73,1.07-.38,7.76-.67,15.56-.85,23.38-5.63-3.16-11.41-5.7-17.96-3.06-5.08,2.05-13.46,9.12-14.22-1.46-.35-4.97-.27-9.86-.97-14.81-.45-3.16-5.95-3.17-6.39,0-1.19,8.46-3.97,24.14,5.55,29.1,4.51,2.35,9.43.89,13.59-1.39,4.4-2.42,7.59-5.12,12.75-2.53,2.54,1.28,5.02,2.69,7.5,4.08-.19,20.7.57,41.41,2.98,61.66-17.23-.08-34.45-.16-51.68-.15-4.31,0-8.62,0-12.93,0,.15-18.81-.34-38.85-3.77-57.35-1.29-6.93-4.53-10.67-8.87-12.67.15-3.14.02-6.29,0-9.43-.02-3.44-.88-8.36.06-11.65,1.47-5.11,17.59-3.51,22.4-3.99,3.69-.36,5.23-6.2.95-7.03-5.56-1.08-11.18-1.08-16.82-.65-4.44.34-9.73.41-12.9,4.01-2.8,3.17-2.53,7.74-2.56,11.69-.04,4.94-.26,10.02.06,15-4.57-.39-9.55-.16-14.42-.22-10.04-.14-20.08-.27-30.12-.41-2.59-.04-5.21-.14-7.85-.25-.21-6.31,1.62-13.27-2.07-18.83-3.89-5.87-10.74-5.85-17.07-6.07-20.3-.71-40.78-1.25-61.1-.53-.19-3.8-.38-7.59-.59-11.36-.69-12.3-6.56-34.49,11.97-35.43,3.23-.16,6.52.05,9.75.08,34.83.29,69.66.67,104.48.82,10.76.04,21.8.62,32.52-.47,4.71-.48,4.65-6.73,0-7.28-9.74-1.15-19.78-.83-29.57-.97-20.2-.29-40.41-.38-60.61-.56-16.35-.14-32.71-.29-49.06-.42-2.99-.02-6.02-.2-9,0-11.71.81-20.61,10.1-20.77,21.87-.3,21.48,2.63,43.22,2.76,64.77.13,22.52-1.62,44.87-2.25,67.34-5.67,0-11.34,0-17,0-.12,0-.24,0-.36,0,.36-3.03.05-6.22.01-9.22-.05-4.4-.66-8.66-.95-13.03-.28-4.21-6.27-4.22-6.55,0-.29,4.38-.89,8.62-.95,13.03-.04,3-.35,6.15,0,9.16-11.94-.13-23.96-.38-35.82.57-5.02.41-5.03,7.4,0,7.81,11.89.96,23.94.49,35.85.51,28.7.03,57.41.01,86.11.02,64.8,0,129.59,0,194.38,0,14.87,0,29.74-.39,44.6-.39,5.2,0,5.2-8.07,0-8.07ZM187.95,223.39c.39,6.16.92,15.54-4.04,17.36-2.35.86-6.01-2.13-8.14-2.76-2.46-.72-4.79-.86-7.34-.65-3.38.27-10.32,3.83-13.24,2.32-3.17-1.64-2.81-11.29-2.5-16.76,11.75.16,23.5.32,35.26.48ZM102.5,197.35c-.3,3.85-.46,7.7-.95,11.53-.53,4.12-.16,12.32-6.26,11.58-2.82-.34-6.44-3.32-9.32-4.29-3.02-1.02-6.1-1.62-9.24-1.98-.14-5.64-.33-11.27-.57-16.88,8.78.07,17.56.03,26.33.04ZM126.38,286.9c.99-9.64.68-19.84-1.13-29.17-.76-3.94-6.28-2.64-6.58.89-.79,9.28-1.16,18.89-1.22,28.28-14.47,0-28.93,0-43.4.01,2.48-20.92,3.13-42.34,2.85-63.7,5.8,1.14,10.51,3.73,16.23,5.97,4.23,1.66,8.75,1.55,11.99-1.98,3.38-3.69,4.01-9.43,4.73-14.15.8-5.24,1.19-10.44.79-15.67,3.02.02,6.04.04,9.06.1,3.43.07,6.87.15,10.3.24,3.67.1,10.33-.93,13.67.61,5.25,2.41,3.76,9.7,3.72,15.35-4.45-.09-8.89-.02-13.21.51-15.91,1.96-17.26,14.82-15.75,28.26.52,4.61,6.93,4.75,7.28,0,.5-6.83-1.48-14.95,5.79-18.91,3.29-1.79,8.58-1.53,13.36-1.13-1.19,7.33-1.31,17.91,3.23,23.01,5.27,5.92,13.55,1.17,19.67.26,7.94-1.18,15.56,6.32,23.11.88,6.68-4.81,5.93-15.17,5.6-23.16,6.15-.27,16-1.19,19.55,3.13,3.3,4.01,2.59,15.06,3.03,20.06,1.19,13.43,1.6,26.85,2.02,40.31-31.56,0-63.13,0-94.69,0Z"/>
    <path class="cls-4" d="M71.24,69.57c12.46-6.8,24.07-15.64,35.91-23.48,11.94-7.92,23.84-15.88,35.82-23.74,21.47-14.09,47.31-18.2,71.07-6.8,18.09,8.68,34.71,22.35,51.31,33.55,17.21,11.61,34.55,23.01,52.04,34.21,4.08,2.61,7.66-3.73,3.76-6.43-18.59-12.86-37.13-25.78-55.87-38.43-17.84-12.05-36.22-27.85-56.87-34.65-22.6-7.45-47.12-3.62-67.05,9.01-12.57,7.97-24.85,16.46-37.25,24.69-12.62,8.37-26.04,16.15-37.87,25.59-3.78,3.01,1.04,8.66,5.01,6.49Z"/>
  </g>
</svg>