<svg width="194" height="100" viewBox="0 0 194 100" fill="none" xmlns="http://www.w3.org/2000/svg">
<path d="M25.0083 40.9956C25.0166 52.8314 25.0249 57.088 25.0498 57.3534C25.1576 58.5585 25.2488 59.244 25.4146 60.1036C26.0503 63.3846 27.3854 66.2592 29.3838 68.6446C32.1893 71.9946 36.153 74.1506 40.6861 74.7919C46.1285 75.563 51.3111 74.1699 55.2251 70.8835C55.6563 70.5214 56.1925 70.0294 56.433 69.7723L56.5933 69.6037V71.8758V74.1451H60.2557H63.918V49.5725V25H60.228H56.538V40.2908C56.538 50.0397 56.5269 55.7806 56.5103 56.1234C56.3998 58.2627 55.9437 60.0953 55.0869 61.8312C53.6578 64.7307 51.2559 66.8286 48.2541 67.8015C45.5038 68.6971 42.2367 68.5534 39.5887 67.4284C36.7473 66.2177 34.5664 63.9291 33.3917 60.9301C32.7974 59.4098 32.4906 57.8951 32.4077 56.0543C32.3911 55.6673 32.3801 49.9401 32.3801 40.2217V25H28.69H25L25.0083 40.9956Z" fill="black"/>
<path d="M69.3909 49.5725V74.1451H72.9012H76.4116V71.9173V69.6894L76.746 70.0018C77.8544 71.0438 78.9766 71.8924 80.1293 72.5613C84.1095 74.8637 88.767 75.5631 93.3691 74.5431C100.249 73.0174 105.655 67.8154 107.411 61.0296C108.317 57.522 108.187 53.7684 107.037 50.3161C105.246 44.94 101.103 40.6723 95.7739 38.7236C94.0519 38.0934 92.2746 37.723 90.3895 37.6014C89.7372 37.5599 88.0151 37.5848 87.454 37.6456C85.2069 37.8861 83.2471 38.4417 81.3344 39.387C79.6151 40.2383 78.3216 41.1477 76.7986 42.5767L76.4945 42.8614V33.9307V25H72.9427H69.3909V49.5725ZM89.6653 43.9339C92.2469 44.1522 94.6019 45.1224 96.5755 46.7781C96.9293 47.0738 97.6286 47.7648 97.9354 48.1186C99.5551 49.9982 100.564 52.2592 100.871 54.7027C101.183 57.1793 100.78 59.6255 99.6961 61.8174C99.0714 63.0861 98.3638 64.0811 97.3826 65.0762C95.3565 67.1271 92.8191 68.3571 89.9417 68.6778C89.4221 68.7358 87.8134 68.7248 87.2882 68.6612C85.2649 68.4179 83.4987 67.7712 81.843 66.6683C80.4416 65.734 79.2918 64.5731 78.3658 63.1579C77.3127 61.5465 76.6769 59.783 76.4227 57.7818C76.3646 57.3092 76.3397 55.8663 76.3812 55.3329C76.5913 52.6904 77.567 50.2967 79.2613 48.2679C80.8369 46.3801 83.12 44.9344 85.5164 44.307C86.1798 44.1329 86.9731 43.9947 87.6613 43.9366C88.0455 43.9034 89.2811 43.9034 89.6653 43.9339Z" fill="black"/>
<path d="M128.39 37.6514C127.085 37.715 125.888 37.8891 124.7 38.1849C120.031 39.3541 116.051 42.3033 113.517 46.4771C110.846 50.8692 110.103 56.3448 111.49 61.403C113.019 66.9781 117.016 71.4145 122.428 73.5483C124.23 74.2587 126.007 74.665 128.183 74.8695C128.691 74.9165 130.963 74.9165 131.5 74.8695C135.9 74.4826 139.576 72.9236 142.694 70.1236C143.52 69.3801 144.56 68.2468 145.218 67.3706L145.295 67.2684L142.76 65.3943C141.364 64.3606 140.209 63.5092 140.193 63.4982C140.17 63.4844 140.06 63.6032 139.883 63.8299C137.871 66.3894 135.317 67.9732 132.315 68.5205C131.447 68.6808 131.049 68.7112 129.896 68.7112C129.051 68.7112 128.755 68.7029 128.459 68.6642C127.016 68.479 125.855 68.1446 124.658 67.5696C121.817 66.2014 119.65 63.7829 118.55 60.7535C118.334 60.1537 118.099 59.2802 118 58.6859L117.981 58.5837H132.553H147.122L147.108 56.7787C147.092 54.6615 147.056 54.1142 146.837 52.7791C146.108 48.3096 143.946 44.4123 140.676 41.6759C137.78 39.249 134.206 37.8808 130.2 37.6597C129.736 37.6348 128.813 37.6293 128.39 37.6514ZM130.297 43.8927C134.623 44.3847 138.15 47.3229 139.584 51.632C139.709 52.0052 139.93 52.8206 139.93 52.9035C139.93 52.9394 138.631 52.945 129.026 52.945H118.124L118.141 52.8538C118.149 52.8068 118.218 52.5497 118.293 52.2871C118.749 50.6784 119.492 49.2273 120.515 47.942C120.872 47.4942 121.778 46.5821 122.196 46.2476C124.034 44.7882 126.052 44.006 128.431 43.8401C128.752 43.818 129.927 43.8512 130.297 43.8927Z" fill="black"/>
<path d="M165.912 38.0767C164.071 38.1845 162.402 38.7235 160.992 39.6633C160.47 40.0116 160.086 40.3322 159.58 40.8353C159.077 41.3411 158.701 41.7944 158.325 42.3555L158.076 42.7231L158.068 40.5229L158.062 38.3227H154.552H151.042V56.2339V74.145H154.593H158.145V63.6886C158.145 56.806 158.156 53.1049 158.173 52.8589C158.253 51.8031 158.457 50.7997 158.77 49.9401C159.859 46.9245 162.247 45.009 165.287 44.7105C165.47 44.6911 166.294 44.6801 167.341 44.6801H169.091V41.3632V38.0463L167.689 38.0491C166.916 38.0518 166.117 38.0657 165.912 38.0767Z" fill="black"/>
</svg>
