<?xml version="1.0" standalone="no"?>
<!DOCTYPE svg PUBLIC "-//W3C//DTD SVG 20010904//EN"
 "http://www.w3.org/TR/2001/REC-SVG-20010904/DTD/svg10.dtd">
<svg version="1.0" xmlns="http://www.w3.org/2000/svg"
 width="600.000000pt" height="600.000000pt" viewBox="0 0 600.000000 600.000000"
 preserveAspectRatio="xMidYMid meet">

<g transform="translate(0.000000,600.000000) scale(0.100000,-0.100000)"
fill="#000000" stroke="none">
<path d="M480 3294 c-64 -28 -90 -66 -216 -316 -68 -137 -124 -250 -124 -253
0 -3 42 -5 93 -5 l92 0 105 208 c93 183 108 207 131 210 14 2 30 -3 36 -10 6
-7 13 -69 15 -138 3 -111 6 -130 28 -170 14 -24 45 -58 68 -75 40 -27 51 -30
122 -30 71 0 82 3 122 30 39 27 55 54 165 270 67 132 122 243 123 248 0 4 -42
7 -93 7 l-92 0 -98 -195 c-93 -188 -98 -195 -127 -195 -42 0 -50 23 -50 150 0
120 -9 153 -56 209 -55 65 -164 90 -244 55z"/>
<path d="M3027 3269 c-21 -5 -62 -20 -92 -35 -167 -79 -206 -294 -76 -424 80
-80 230 -120 380 -101 147 19 235 69 286 162 25 45 29 65 29 124 0 48 -6 82
-19 110 -38 79 -124 141 -227 165 -52 12 -229 11 -281 -1z m215 -140 c39 -9
63 -22 91 -49 32 -33 37 -44 37 -85 0 -41 -5 -52 -38 -85 -64 -64 -190 -77
-289 -29 -49 24 -73 61 -73 113 0 70 42 115 126 135 55 13 85 13 146 0z"/>
<path d="M1228 3001 c-76 -148 -138 -272 -138 -275 0 -3 40 -6 90 -6 l90 0 25
50 25 50 160 0 160 0 25 -50 25 -50 96 0 95 0 -54 103 c-30 56 -94 180 -141
275 l-87 172 -117 0 -117 0 -137 -269z m259 -49 c-49 -1 -92 0 -95 3 -4 3 16
49 42 103 l49 97 46 -100 47 -100 -89 -3z"/>
<path d="M1780 3195 l0 -75 120 0 120 0 0 -200 0 -200 90 0 90 0 0 200 0 200
120 0 120 0 0 75 0 75 -330 0 -330 0 0 -75z"/>
<path d="M2520 2995 l0 -275 90 0 90 0 0 275 0 275 -90 0 -90 0 0 -275z"/>
<path d="M3640 2995 l0 -275 90 0 90 0 0 192 0 193 142 -193 143 -192 132 0
133 0 0 275 0 275 -87 0 -88 0 3 -185 c2 -102 -1 -185 -6 -185 -5 0 -70 83
-146 185 l-138 185 -134 0 -134 0 0 -275z"/>
<path d="M4470 2995 l0 -275 280 0 280 0 0 65 0 65 -190 0 -190 0 0 45 0 45
185 0 186 0 -3 58 -3 57 -182 3 -183 2 0 40 0 40 190 0 190 0 0 65 0 65 -280
0 -280 0 0 -275z"/>
<path d="M5243 3132 l137 -137 -137 -138 -138 -137 119 0 120 0 80 85 81 85
75 -85 75 -84 120 -1 120 0 -133 133 c-72 73 -132 137 -132 142 0 5 60 69 132
142 l133 133 -119 0 -119 0 -78 -82 -79 -83 -78 83 -77 82 -120 0 -120 0 138
-138z"/>
</g>
</svg>
