<?xml version="1.0" standalone="no"?>
<!DOCTYPE svg PUBLIC "-//W3C//DTD SVG 20010904//EN"
 "http://www.w3.org/TR/2001/REC-SVG-20010904/DTD/svg10.dtd">
<svg version="1.0" xmlns="http://www.w3.org/2000/svg"
 width="260.000000pt" height="190.000000pt" viewBox="0 0 260.000000 190.000000"
 preserveAspectRatio="xMidYMid meet">

<g transform="translate(0.000000,190.000000) scale(0.100000,-0.100000)"
fill="#000000" stroke="none">
<path d="M770 1360 l0 -100 55 0 c42 0 60 -5 75 -20 24 -24 25 -38 4 -68 -15
-22 -18 -22 -269 -22 -241 0 -255 -1 -265 -19 -7 -15 -6 -23 6 -35 13 -14 61
-16 370 -16 l354 0 12 -25 c8 -19 8 -31 0 -50 l-12 -25 -242 0 c-134 0 -249
-4 -256 -9 -8 -4 -12 -19 -10 -32 l3 -24 194 -3 c123 -1 199 -6 208 -13 17
-14 17 -75 1 -86 -7 -4 -83 -10 -168 -13 l-155 -5 0 -25 0 -25 256 -5 c277 -5
289 -8 289 -59 0 -49 -9 -51 -237 -51 l-213 0 0 -38 0 -38 352 -204 c194 -113
378 -220 410 -238 l58 -33 -2 577 -3 577 -385 108 c-212 59 -395 111 -407 114
-23 5 -23 4 -23 -95z"/>
<path d="M370 1325 c-10 -12 -10 -18 0 -30 19 -22 338 -22 346 0 4 8 1 22 -6
30 -18 22 -322 22 -340 0z"/>
<path d="M110 935 c-7 -8 -10 -22 -6 -30 5 -13 30 -15 173 -13 l168 3 0 25 0
25 -161 3 c-134 2 -163 0 -174 -13z"/>
<path d="M291 646 c-6 -7 -9 -21 -5 -30 5 -14 28 -16 169 -16 132 0 165 3 175
15 10 12 10 18 0 30 -17 21 -322 22 -339 1z"/>
</g>
</svg>
