<svg version="1.1" id="el_MEBcgO3hc" xmlns="http://www.w3.org/2000/svg" xmlns:xlink="http://www.w3.org/1999/xlink" x="0px" y="0px" viewBox="0 0 226 180" style="enable-background:new 0 0 226.2 180;" xml:space="preserve"><style>@-webkit-keyframes el_ee6ctPoa3pn__CrQaswsm_Animation{0%{-webkit-transform: rotate(0deg);transform: rotate(0deg);}16.11%{-webkit-transform: rotate(4deg);transform: rotate(4deg);}33.33%{-webkit-transform: rotate(-4deg);transform: rotate(-4deg);}51.11%{-webkit-transform: rotate(4deg);transform: rotate(4deg);}67.78%{-webkit-transform: rotate(-4deg);transform: rotate(-4deg);}84.17%{-webkit-transform: rotate(4deg);transform: rotate(4deg);}100%{-webkit-transform: rotate(0deg);transform: rotate(0deg);}}@keyframes el_ee6ctPoa3pn__CrQaswsm_Animation{0%{-webkit-transform: rotate(0deg);transform: rotate(0deg);}16.11%{-webkit-transform: rotate(4deg);transform: rotate(4deg);}33.33%{-webkit-transform: rotate(-4deg);transform: rotate(-4deg);}51.11%{-webkit-transform: rotate(4deg);transform: rotate(4deg);}67.78%{-webkit-transform: rotate(-4deg);transform: rotate(-4deg);}84.17%{-webkit-transform: rotate(4deg);transform: rotate(4deg);}100%{-webkit-transform: rotate(0deg);transform: rotate(0deg);}}@-webkit-keyframes el_Mai6N91tTlT_YPvHmR-t2_Animation{0%{-webkit-transform: rotate(0deg);transform: rotate(0deg);}16.39%{-webkit-transform: rotate(2deg);transform: rotate(2deg);}33.33%{-webkit-transform: rotate(-2deg);transform: rotate(-2deg);}50.28%{-webkit-transform: rotate(-2deg);transform: rotate(-2deg);}66.67%{-webkit-transform: rotate(2deg);transform: rotate(2deg);}83.89%{-webkit-transform: rotate(-2deg);transform: rotate(-2deg);}100%{-webkit-transform: rotate(0deg);transform: rotate(0deg);}}@keyframes el_Mai6N91tTlT_YPvHmR-t2_Animation{0%{-webkit-transform: rotate(0deg);transform: rotate(0deg);}16.39%{-webkit-transform: rotate(2deg);transform: rotate(2deg);}33.33%{-webkit-transform: rotate(-2deg);transform: rotate(-2deg);}50.28%{-webkit-transform: rotate(-2deg);transform: rotate(-2deg);}66.67%{-webkit-transform: rotate(2deg);transform: rotate(2deg);}83.89%{-webkit-transform: rotate(-2deg);transform: rotate(-2deg);}100%{-webkit-transform: rotate(0deg);transform: rotate(0deg);}}@-webkit-keyframes el_Qgkf_kZ7Ymn_Animation{41.67%{opacity: 0;}45.56%{opacity: 1;}100%{opacity: 1;}0%{opacity: 0;}}@keyframes el_Qgkf_kZ7Ymn_Animation{41.67%{opacity: 0;}45.56%{opacity: 1;}100%{opacity: 1;}0%{opacity: 0;}}@-webkit-keyframes el_56A3HHKK1_n_Animation{49.72%{opacity: 0;}53.89%{opacity: 1;}0%{opacity: 0;}100%{opacity: 1;}}@keyframes el_56A3HHKK1_n_Animation{49.72%{opacity: 0;}53.89%{opacity: 1;}0%{opacity: 0;}100%{opacity: 1;}}@-webkit-keyframes el_56A3HHKK1_n_vlnWphr_P_Animation{49.72%{-webkit-transform: translate(-20px, 0px);transform: translate(-20px, 0px);}53.89%{-webkit-transform: translate(0px, 0px);transform: translate(0px, 0px);}0%{-webkit-transform: translate(-20px, 0px);transform: translate(-20px, 0px);}100%{-webkit-transform: translate(0px, 0px);transform: translate(0px, 0px);}}@keyframes el_56A3HHKK1_n_vlnWphr_P_Animation{49.72%{-webkit-transform: translate(-20px, 0px);transform: translate(-20px, 0px);}53.89%{-webkit-transform: translate(0px, 0px);transform: translate(0px, 0px);}0%{-webkit-transform: translate(-20px, 0px);transform: translate(-20px, 0px);}100%{-webkit-transform: translate(0px, 0px);transform: translate(0px, 0px);}}@-webkit-keyframes el_56A3HHKK1_n_cglanZpA9_Animation{49.72%{-webkit-transform: scale(0, 1);transform: scale(0, 1);}53.89%{-webkit-transform: scale(1, 1);transform: scale(1, 1);}0%{-webkit-transform: scale(0, 1);transform: scale(0, 1);}100%{-webkit-transform: scale(1, 1);transform: scale(1, 1);}}@keyframes el_56A3HHKK1_n_cglanZpA9_Animation{49.72%{-webkit-transform: scale(0, 1);transform: scale(0, 1);}53.89%{-webkit-transform: scale(1, 1);transform: scale(1, 1);}0%{-webkit-transform: scale(0, 1);transform: scale(0, 1);}100%{-webkit-transform: scale(1, 1);transform: scale(1, 1);}}@-webkit-keyframes el_Qgkf_kZ7Ymn_HyW8fyCaf_Animation{41.67%{-webkit-transform: scale(0, 1);transform: scale(0, 1);}45.56%{-webkit-transform: scale(1, 1);transform: scale(1, 1);}100%{-webkit-transform: scale(1, 1);transform: scale(1, 1);}0%{-webkit-transform: scale(0, 1);transform: scale(0, 1);}}@keyframes el_Qgkf_kZ7Ymn_HyW8fyCaf_Animation{41.67%{-webkit-transform: scale(0, 1);transform: scale(0, 1);}45.56%{-webkit-transform: scale(1, 1);transform: scale(1, 1);}100%{-webkit-transform: scale(1, 1);transform: scale(1, 1);}0%{-webkit-transform: scale(0, 1);transform: scale(0, 1);}}@-webkit-keyframes el_br7oy27Mmy1_VHmoD70Sv_Animation{16.67%{-webkit-transform: translate(0px, 0px);transform: translate(0px, 0px);}20.83%{-webkit-transform: translate(-3px, 4px);transform: translate(-3px, 4px);}29.17%{-webkit-transform: translate(-3px, 4px);transform: translate(-3px, 4px);}33.33%{-webkit-transform: translate(0px, 0px);transform: translate(0px, 0px);}37.50%{-webkit-transform: translate(0px, 0px);transform: translate(0px, 0px);}0%{-webkit-transform: translate(0px, 0px);transform: translate(0px, 0px);}}@keyframes el_br7oy27Mmy1_VHmoD70Sv_Animation{16.67%{-webkit-transform: translate(0px, 0px);transform: translate(0px, 0px);}20.83%{-webkit-transform: translate(-3px, 4px);transform: translate(-3px, 4px);}29.17%{-webkit-transform: translate(-3px, 4px);transform: translate(-3px, 4px);}33.33%{-webkit-transform: translate(0px, 0px);transform: translate(0px, 0px);}37.50%{-webkit-transform: translate(0px, 0px);transform: translate(0px, 0px);}0%{-webkit-transform: translate(0px, 0px);transform: translate(0px, 0px);}}@-webkit-keyframes el_br7oy27Mmy1_43IjRwiUx_Animation{16.67%{-webkit-transform: rotate(0deg);transform: rotate(0deg);}20.83%{-webkit-transform: rotate(120deg);transform: rotate(120deg);}29.17%{-webkit-transform: rotate(120deg);transform: rotate(120deg);}33.33%{-webkit-transform: rotate(0deg);transform: rotate(0deg);}0%{-webkit-transform: rotate(0deg);transform: rotate(0deg);}100%{-webkit-transform: rotate(0deg);transform: rotate(0deg);}}@keyframes el_br7oy27Mmy1_43IjRwiUx_Animation{16.67%{-webkit-transform: rotate(0deg);transform: rotate(0deg);}20.83%{-webkit-transform: rotate(120deg);transform: rotate(120deg);}29.17%{-webkit-transform: rotate(120deg);transform: rotate(120deg);}33.33%{-webkit-transform: rotate(0deg);transform: rotate(0deg);}0%{-webkit-transform: rotate(0deg);transform: rotate(0deg);}100%{-webkit-transform: rotate(0deg);transform: rotate(0deg);}}@-webkit-keyframes el_CPG_Xs1MGk_Animation{8.06%{opacity: 0;}12.50%{opacity: 1;}22.78%{opacity: 1;}25%{opacity: 0.5;}26.94%{opacity: 1;}0%{opacity: 0;}100%{opacity: 1;}}@keyframes el_CPG_Xs1MGk_Animation{8.06%{opacity: 0;}12.50%{opacity: 1;}22.78%{opacity: 1;}25%{opacity: 0.5;}26.94%{opacity: 1;}0%{opacity: 0;}100%{opacity: 1;}}@-webkit-keyframes el_CPG_Xs1MGk_OrIxavIk-_Animation{8.06%{-webkit-transform: translate(0px, -30px);transform: translate(0px, -30px);}12.50%{-webkit-transform: translate(0px, 0px);transform: translate(0px, 0px);}100%{-webkit-transform: translate(0px, 0px);transform: translate(0px, 0px);}0%{-webkit-transform: translate(0px, -30px);transform: translate(0px, -30px);}}@keyframes el_CPG_Xs1MGk_OrIxavIk-_Animation{8.06%{-webkit-transform: translate(0px, -30px);transform: translate(0px, -30px);}12.50%{-webkit-transform: translate(0px, 0px);transform: translate(0px, 0px);}100%{-webkit-transform: translate(0px, 0px);transform: translate(0px, 0px);}0%{-webkit-transform: translate(0px, -30px);transform: translate(0px, -30px);}}@-webkit-keyframes el_KlQOvDmic3_70NnUhF69_Animation{0%{-webkit-transform: scale(0, 1);transform: scale(0, 1);}4.17%{-webkit-transform: scale(1, 1);transform: scale(1, 1);}100%{-webkit-transform: scale(1, 1);transform: scale(1, 1);}}@keyframes el_KlQOvDmic3_70NnUhF69_Animation{0%{-webkit-transform: scale(0, 1);transform: scale(0, 1);}4.17%{-webkit-transform: scale(1, 1);transform: scale(1, 1);}100%{-webkit-transform: scale(1, 1);transform: scale(1, 1);}}@-webkit-keyframes el_KlQOvDmic3_S0vvGMQV2_Animation{0%{-webkit-transform: translate(-100px, 0px);transform: translate(-100px, 0px);}4.44%{-webkit-transform: translate(0px, 0px);transform: translate(0px, 0px);}100%{-webkit-transform: translate(0px, 0px);transform: translate(0px, 0px);}}@keyframes el_KlQOvDmic3_S0vvGMQV2_Animation{0%{-webkit-transform: translate(-100px, 0px);transform: translate(-100px, 0px);}4.44%{-webkit-transform: translate(0px, 0px);transform: translate(0px, 0px);}100%{-webkit-transform: translate(0px, 0px);transform: translate(0px, 0px);}}#el_MEBcgO3hc *{-webkit-animation-duration: 12s;animation-duration: 12s;-webkit-animation-iteration-count: infinite;animation-iteration-count: infinite;-webkit-animation-timing-function: cubic-bezier(0, 0, 1, 1);animation-timing-function: cubic-bezier(0, 0, 1, 1);}#el_y6uUkoEUJJ{fill: #C1DDF7;}#el_LD5W4Sr7GX{fill: #363B7C;}#el_eWIvStcAIV{fill: #363B7C;}#el_tWE4B0HkvB{fill: #D7E8F7;}#el_KlQOvDmic3{fill: #FFFFFF;}#el_tD0c__Hehr{fill: #363B7C;}#el_ktBP7jS937{fill: #FFFFFF;}#el_1s8k1ZTmW2{fill: #B54E24;}#el_jgZH-0ZWjl{fill: #E16C2E;}#el_T_djjGmYhUO{fill: #EF8C56;}#el_ZRUITBFOLe9{fill: #DDDDDC;}#el_R6besmtMFNa{fill: #EF8C56;}#el_9mPF1yikq4l{fill: #EF8C56;}#el_G1f_dJThoyB{fill: #C74528;}#el_zhCZUWqIMzw{fill: #F3F3F3;}#el_8kAHTFABEfB{fill: url(#SVGID_1_);}#el_wg3xr5eqd0W{fill: #EF8C56;}#el_p4UpxRVrwWv{fill: #FFFEFE;}#el_Fwn_w046tS2{fill: #FFFEFE;}#el_VHpLdnTv6bO{fill: #FFFEFE;}#el_mty13sBjsXc{fill: #FFFFFF;}#el_ocyWbSgVrP9{fill: #D7E8F7;}#el_ovI9ZFcKBGs{fill: #D7E8F7;}#el_6F8VgXS_TP-{fill: #D7E8F7;}#el_R3FKjYfjLFl{fill: #FFFFFF;}#el_m8XbeB6DjMY{fill: #FFFFFF;}#el_dqwNy-S-kj0{fill: #FFFFFF;}#el_E70LJITc05J{fill: #FFFFFF;}#el_Mai6N91tTlT{fill: #00C0CD;}#el_wWWcPHStqt2{fill: #009DB0;}#el_Nf24n-Ho9rc{fill: #CADFEF;}#el_UBEmra1z5FU{fill: #CADFEF;}#el_AIQoi6-MUST{fill: url(#SVGID_2_);}#el_KVWDGi-53Bu{fill: #363B7C;}#el_sbfgS8YQkme{fill: #FFBDA1;}#el_8eW0W3TKwMP{fill: url(#SVGID_3_);}#el_B0u7vh0kNGL{fill: #FFBDA1;}#el_HO_dU_6_i6u{fill: url(#SVGID_4_);}#el_JTwiD-eJrxg{fill: #FFBDA1;}#el_CRtTq5wTy6k{fill: #241C2B;}#el_bn-7Skwe4PC{fill: #FFBDA1;}#el_bXEAO2MVdTI{fill: #241C2B;}#el_ieRJH8LF9Kt{fill: #03345F;}#el_QQN0lc-gMAz{fill: #30567A;}#el_COk_V9Rp8gk{fill: #30567A;}#el_T_SL6DVJJeH{fill: #FFBDA1;}#el_89qwXy1DMX6{fill: #FFBDA1;}#el_9zrU2ClHfap{fill: #FFBDA1;}#el_qHvTbpZZ0px{fill: #92503E;}#el_L8BzcCEwXkr{fill: url(#SVGID_5_);}#el_4cDrgZDBd73{fill: #C1DDF7;}#el_0TgGrps83aE{fill: #FFBDA1;}#el_CV6VlHXqFl3{fill: #0E0E0E;}#el_aB87ZSOVwmt{fill: #30567A;}#el__LDTXgsyRTc{fill: url(#SVGID_6_);}#el_ee6ctPoa3pn{fill: #363B7C;}#el_UkxRMlYchK_{fill: #FFFFFF;}#el_LjADs8B9MYR{fill: #B54E24;}#el_okmtwCERBZx{fill: #E16C2E;}#el_byL-hTXAjHn{fill: #EF8C56;}#el_SDBcKFHhHQN{fill: #DDDDDC;}#el_giRFg-zMAIu{fill: #EF8C56;}#el_rTHarBPVgvI{fill: #EF8C56;}#el_xU7t79dBDOP{fill: #C74528;}#el_xGWlzYr8Z96{fill: #F3F3F3;}#el_Mkcteyx_9GC{fill: url(#SVGID_7_);}#el_qN46zrXYlyF{fill: #EF8C56;}#el_gEN9604_2Ik{fill: #FFFEFE;}#el_SUJE0dm63ZC{fill: #FFFEFE;}#el_atX9OF_bJwi{fill: #FFFEFE;}#el_Ql093Hp5mp_{fill: #FFBDA1;}#el_pDwmx6PzT2Z{fill: #241C2B;}#el_hndgzdRbIi_{fill: #30567A;}#el_-ZRxm0VNrBQ{fill: #FFBDA1;-webkit-transform: matrix(0.2293, -0.9734, 0.9734, 0.2293, -110.5749, 132.4808);transform: matrix(0.2293, -0.9734, 0.9734, 0.2293, -110.5749, 132.4808);}#el_89a25mLVaeu{fill: #FFBDA1;}#el_yQqCc2j49Zj{fill: #FFBDA1;}#el_tunKpaQZ_yF{fill: #FFBDA1;-webkit-transform: matrix(0.1635, -0.9865, 0.9865, 0.1635, -110.3497, 112.3048);transform: matrix(0.1635, -0.9865, 0.9865, 0.1635, -110.3497, 112.3048);}#el_uBAU3dwcJ4t{-webkit-clip-path: url(#SVGID_10_);clip-path: url(#SVGID_10_);fill: #92503E;}#el_zmJN5HtpLC9{fill: #FFBDA1;-webkit-transform: matrix(0.1635, -0.9865, 0.9865, 0.1635, -111.8912, 110.592);transform: matrix(0.1635, -0.9865, 0.9865, 0.1635, -111.8912, 110.592);}#el_txL4tD0uaOd{fill: #92503E;-webkit-transform: matrix(0.3964, -0.9181, 0.9181, 0.3964, -110.1471, 78.0125);transform: matrix(0.3964, -0.9181, 0.9181, 0.3964, -110.1471, 78.0125);}#el_vCxjWGoBIRA{fill: #FFBDA1;}#el_AnymmlxC1UF{fill: url(#SVGID_11_);}#el_KlQOvDmic3_S0vvGMQV2{-webkit-animation-name: el_KlQOvDmic3_S0vvGMQV2_Animation;animation-name: el_KlQOvDmic3_S0vvGMQV2_Animation;-webkit-transform-origin: 50% 50%;transform-origin: 50% 50%;transform-box: fill-box;-webkit-transform: translate(-100px, 0px);transform: translate(-100px, 0px);-webkit-animation-timing-function: cubic-bezier(0.42, 0, 1, 1);animation-timing-function: cubic-bezier(0.42, 0, 1, 1);}#el_KlQOvDmic3_70NnUhF69{-webkit-animation-name: el_KlQOvDmic3_70NnUhF69_Animation;animation-name: el_KlQOvDmic3_70NnUhF69_Animation;-webkit-transform-origin: 50% 50%;transform-origin: 50% 50%;transform-box: fill-box;-webkit-transform: scale(0, 1);transform: scale(0, 1);-webkit-animation-timing-function: cubic-bezier(0.42, 0, 0.58, 1);animation-timing-function: cubic-bezier(0.42, 0, 0.58, 1);}#el_CPG_Xs1MGk_OrIxavIk-{-webkit-animation-name: el_CPG_Xs1MGk_OrIxavIk-_Animation;animation-name: el_CPG_Xs1MGk_OrIxavIk-_Animation;-webkit-transform-origin: 50% 50%;transform-origin: 50% 50%;transform-box: fill-box;-webkit-transform: translate(0px, -30px);transform: translate(0px, -30px);-webkit-animation-timing-function: cubic-bezier(0.42, 0, 0.58, 1);animation-timing-function: cubic-bezier(0.42, 0, 0.58, 1);}#el_CPG_Xs1MGk{-webkit-animation-name: el_CPG_Xs1MGk_Animation;animation-name: el_CPG_Xs1MGk_Animation;opacity: 0;-webkit-animation-timing-function: cubic-bezier(0.42, 0, 0.58, 1);animation-timing-function: cubic-bezier(0.42, 0, 0.58, 1);}#el_br7oy27Mmy1_43IjRwiUx{-webkit-animation-name: el_br7oy27Mmy1_43IjRwiUx_Animation;animation-name: el_br7oy27Mmy1_43IjRwiUx_Animation;-webkit-transform-origin: 100% 0%;transform-origin: 100% 0%;transform-box: fill-box;-webkit-transform: rotate(0deg);transform: rotate(0deg);-webkit-animation-timing-function: cubic-bezier(0, 0, 0.58, 1);animation-timing-function: cubic-bezier(0, 0, 0.58, 1);}#el_br7oy27Mmy1_VHmoD70Sv{-webkit-animation-name: el_br7oy27Mmy1_VHmoD70Sv_Animation;animation-name: el_br7oy27Mmy1_VHmoD70Sv_Animation;-webkit-transform-origin: 100% 0%;transform-origin: 100% 0%;transform-box: fill-box;-webkit-transform: translate(0px, 0px);transform: translate(0px, 0px);-webkit-animation-timing-function: cubic-bezier(0, 0, 0.58, 1);animation-timing-function: cubic-bezier(0, 0, 0.58, 1);}#el_Qgkf_kZ7Ymn_HyW8fyCaf{-webkit-transform-origin: 50% 50%;transform-origin: 50% 50%;transform-box: fill-box;-webkit-transform: scale(0, 1);transform: scale(0, 1);-webkit-animation-name: el_Qgkf_kZ7Ymn_HyW8fyCaf_Animation;animation-name: el_Qgkf_kZ7Ymn_HyW8fyCaf_Animation;-webkit-animation-timing-function: cubic-bezier(0.42, 0, 0.58, 1);animation-timing-function: cubic-bezier(0.42, 0, 0.58, 1);}#el_56A3HHKK1_n_cglanZpA9{-webkit-animation-name: el_56A3HHKK1_n_cglanZpA9_Animation;animation-name: el_56A3HHKK1_n_cglanZpA9_Animation;-webkit-transform-origin: 50% 50%;transform-origin: 50% 50%;transform-box: fill-box;-webkit-transform: scale(0, 1);transform: scale(0, 1);-webkit-animation-timing-function: cubic-bezier(0.42, 0, 0.58, 1);animation-timing-function: cubic-bezier(0.42, 0, 0.58, 1);}#el_56A3HHKK1_n_vlnWphr_P{-webkit-animation-name: el_56A3HHKK1_n_vlnWphr_P_Animation;animation-name: el_56A3HHKK1_n_vlnWphr_P_Animation;-webkit-transform-origin: 50% 50%;transform-origin: 50% 50%;transform-box: fill-box;-webkit-transform: translate(-20px, 0px);transform: translate(-20px, 0px);-webkit-animation-timing-function: cubic-bezier(0.42, 0, 0.58, 1);animation-timing-function: cubic-bezier(0.42, 0, 0.58, 1);}#el_56A3HHKK1_n{-webkit-animation-name: el_56A3HHKK1_n_Animation;animation-name: el_56A3HHKK1_n_Animation;opacity: 0;-webkit-animation-timing-function: cubic-bezier(0.42, 0, 0.58, 1);animation-timing-function: cubic-bezier(0.42, 0, 0.58, 1);}#el_8IRcx-q5ye4_-UsUAgzwf{-webkit-transform-origin: 50% 50%;transform-origin: 50% 50%;transform-box: fill-box;-webkit-transform: translate(50px, 0px);transform: translate(50px, 0px);}#el_mjMOe5fB71S_4vkIoUWsw{-webkit-transform-origin: 50% 0%;transform-origin: 50% 0%;transform-box: fill-box;-webkit-transform: translate(0px, 0px);transform: translate(0px, 0px);}#el_mjMOe5fB71S_yERbG-Zql{-webkit-transform-origin: 50% 0%;transform-origin: 50% 0%;transform-box: fill-box;-webkit-transform: rotate(0deg);transform: rotate(0deg);}#el_xpkhG5-yErI_B5zcLsRPP{-webkit-transform-origin: 0% 0%;transform-origin: 0% 0%;transform-box: fill-box;-webkit-transform: rotate(0deg);transform: rotate(0deg);}#el_Qgkf_kZ7Ymn{-webkit-animation-name: el_Qgkf_kZ7Ymn_Animation;animation-name: el_Qgkf_kZ7Ymn_Animation;-webkit-animation-timing-function: cubic-bezier(0.42, 0, 0.58, 1);animation-timing-function: cubic-bezier(0.42, 0, 0.58, 1);opacity: 0;}#el_Mai6N91tTlT_YPvHmR-t2{-webkit-animation-name: el_Mai6N91tTlT_YPvHmR-t2_Animation;animation-name: el_Mai6N91tTlT_YPvHmR-t2_Animation;-webkit-transform-origin: 50% 100%;transform-origin: 50% 100%;transform-box: fill-box;-webkit-transform: rotate(0deg);transform: rotate(0deg);-webkit-animation-timing-function: cubic-bezier(0.42, 0, 0.58, 1);animation-timing-function: cubic-bezier(0.42, 0, 0.58, 1);}#el_ee6ctPoa3pn__CrQaswsm{-webkit-animation-name: el_ee6ctPoa3pn__CrQaswsm_Animation;animation-name: el_ee6ctPoa3pn__CrQaswsm_Animation;-webkit-transform-origin: 50% 50%;transform-origin: 50% 50%;transform-box: fill-box;}</style>

<g id="el_oHWEebxyBH">
	<g id="el_Mujiv5kfMs">
		<g id="el_8dlN3mmdvr">
			<path d="M173.8,130.9H30.4c-6,0-10.9-4.9-10.9-10.9v-5.8h165.3v5.8C184.7,126,179.8,130.9,173.8,130.9z" id="el_y6uUkoEUJJ"/>
			<rect x="85.4" y="130.9" width="33.9" height="14.6" id="el_LD5W4Sr7GX"/>
			<path d="M184.7,114.5H19.4V28c0-5.6,4.5-10.1,10.1-10.1h145.1c5.6,0,10.1,4.5,10.1,10.1L184.7,114.5L184.7,114.5z" id="el_eWIvStcAIV"/>
			<g id="el_2YwCyXT3-i">
				<rect x="26.1" y="24.8" width="152.9" height="83.7" id="el_tWE4B0HkvB"/>
				<g id="el_KlQOvDmic3_S0vvGMQV2" data-animator-group="true" data-animator-type="0"><g id="el_KlQOvDmic3_70NnUhF69" data-animator-group="true" data-animator-type="2"><path d="M166.6,100.1H97.5c-1.7,0-3.1-1.4-3.1-3.1V35.5c0-1.7,1.4-3.1,3.1-3.1h69.1c1.7,0,3.1,1.4,3.1,3.1V97&#10;&#9;&#9;&#9;&#9;&#9;C169.7,98.7,168.3,100.1,166.6,100.1z" id="el_KlQOvDmic3"/></g></g>
				<g id="el_CPG_Xs1MGk_OrIxavIk-" data-animator-group="true" data-animator-type="0"><g id="el_CPG_Xs1MGk">
					<path d="M155,93.3h-16c-2.5,0-4.5-2-4.5-4.5v-16c0-2.5,2-4.5,4.5-4.5h16c2.5,0,4.5,2,4.5,4.5v16&#10;&#9;&#9;&#9;&#9;&#9;&#9;C159.5,91.3,157.5,93.3,155,93.3z" id="el_tD0c__Hehr"/>
					
					<!-- <g id="el_6d3GIEr9cH">
						<path d="M155.3,80.9c0,4.6-3.8,8.3-8.4,8.3c-4.6,0-8.3-3.8-8.3-8.4s3.8-8.3,8.4-8.3c0.4,0,1.2,0.1,1.2,0.1&#10;&#9;&#9;&#9;&#9;&#9;&#9;&#9;l6.7,5.9C155,78.5,155.3,80,155.3,80.9z" id="el_ktBP7jS937"/>
						<path d="M154.5,78.7l0.1,0.1c0,0,0,0,0.1,0l0,0c0,0.1,0,0.1-0.1,0.1s-0.2,0-0.3,0c0,0,0,0-0.1,0&#10;&#9;&#9;&#9;&#9;&#9;&#9;&#9;c-0.3,0-0.6,0-0.8,0c-0.1,0-0.3,0-0.4,0c-0.2,0-0.5,0-0.7-0.1c-0.3,0-0.7-0.1-1-0.2c-0.1,0-0.2,0-0.3-0.1&#10;&#9;&#9;&#9;&#9;&#9;&#9;&#9;c-0.4-0.1-0.7-0.3-1.1-0.5c-0.4-0.2-0.7-0.5-1-0.8c-0.3-0.3-0.5-0.7-0.7-1c0,0,0-0.1-0.1-0.1c-0.1-0.2-0.1-0.4-0.2-0.6&#10;&#9;&#9;&#9;&#9;&#9;&#9;&#9;c-0.1-0.4-0.2-0.8-0.2-1.3c0-0.3-0.1-0.5,0-0.8c0,0,0,0,0-0.1c0,0.2,0,0.4,0.1,0.6c0.1,0.6,0.4,1.2,0.9,1.7&#10;&#9;&#9;&#9;&#9;&#9;&#9;&#9;c0.3,0.3,0.7,0.6,1.1,0.8c0.5,0.2,0.9,0.4,1.4,0.6c0.6,0.2,1.1,0.4,1.7,0.7c0.1,0.1,0.3,0.1,0.4,0.2l0,0&#10;&#9;&#9;&#9;&#9;&#9;&#9;&#9;c0.3,0.2,0.6,0.3,0.9,0.6C154.3,78.6,154.4,78.7,154.5,78.7z" id="el_1s8k1ZTmW2"/>
						<path d="M153.7,85.1c-0.2,0.3-0.4,0.6-0.6,0.9c-1.1,1.3-2.5,2.2-4.2,2.6c-0.5,0.1-1,0.2-1.5,0.2s-1,0-1.4,0&#10;&#9;&#9;&#9;&#9;&#9;&#9;&#9;c-1.5-0.2-2.8-0.7-4-1.7c-0.6-0.5-1.2-1.1-1.7-1.8c0,0,0-0.1-0.1-0.1c0-0.1,0-0.1,0-0.2c-0.2-0.2-0.3-0.5-0.4-0.7&#10;&#9;&#9;&#9;&#9;&#9;&#9;&#9;c-0.1-0.2-0.2-0.4-0.3-0.6v-0.1v-0.1l0,0c0.1,0.3,0.3,0.6,0.4,1c0.2,0.3,0.3,0.6,0.5,0.9s0.5,0.7,0.8,1&#10;&#9;&#9;&#9;&#9;&#9;&#9;&#9;c0.1,0.2,0.3,0.3,0.5,0.4c0.2,0.2,0.5,0.4,0.7,0.5c0.4,0.2,0.7,0.5,1.1,0.6c0.4,0.2,0.9,0.4,1.3,0.5c0.3,0.1,0.5,0.1,0.8,0.2&#10;&#9;&#9;&#9;&#9;&#9;&#9;&#9;c0.1,0,0.3,0,0.4,0.1c0.2,0,0.3,0,0.5,0c0.4,0,0.9,0,1.3-0.1c0.2,0,0.4-0.1,0.6-0.1c0.4-0.1,0.8-0.2,1.2-0.4&#10;&#9;&#9;&#9;&#9;&#9;&#9;&#9;c0.4-0.2,0.8-0.3,1.2-0.6c0.2-0.1,0.5-0.3,0.7-0.5c0.3-0.2,0.5-0.4,0.7-0.6c0.1-0.1,0.2-0.2,0.3-0.3c0.2-0.2,0.3-0.3,0.4-0.5&#10;&#9;&#9;&#9;&#9;&#9;&#9;&#9;c0.2-0.3,0.4-0.5,0.6-0.8c0.2-0.3,0.3-0.5,0.4-0.8c0.1-0.2,0.2-0.5,0.3-0.7c0.1-0.4,0.2-0.8,0.3-1.2c0.1,0,0.1,0.1,0.1,0.1&#10;&#9;&#9;&#9;&#9;&#9;&#9;&#9;v0.1c-0.1,0.4-0.2,0.7-0.3,1.1c-0.1,0.3-0.2,0.6-0.4,0.9c-0.1,0.2-0.2,0.3-0.3,0.5C153.8,84.8,153.7,84.9,153.7,85.1&#10;&#9;&#9;&#9;&#9;&#9;&#9;&#9;C153.7,85,153.7,85.1,153.7,85.1z" id="el_jgZH-0ZWjl"/>
						<path d="M139.6,83.5C139.5,83.5,139.5,83.5,139.6,83.5c0,0.1,0,0.2,0,0.2c0.1,0.2,0.2,0.4,0.3,0.6&#10;&#9;&#9;&#9;&#9;&#9;&#9;&#9;c0.1,0.3,0.3,0.5,0.4,0.7c0,0.1,0,0.1,0,0.2c-0.1-0.1-0.2-0.3-0.3-0.4c-0.5-0.8-0.8-1.7-0.9-2.6c-0.1-0.6-0.1-1.2-0.1-1.8&#10;&#9;&#9;&#9;&#9;&#9;&#9;&#9;c0.1-1,0.3-1.9,0.7-2.8c0.4-1,1-1.8,1.8-2.5c0.8-0.7,1.7-1.3,2.7-1.7c0.5-0.2,1-0.3,1.5-0.4c0.6-0.1,1.2-0.1,1.8-0.1&#10;&#9;&#9;&#9;&#9;&#9;&#9;&#9;c0.1,0,0.2,0,0.3,0c0,0.1,0,0.1,0,0.2c0,0,0,0-0.1,0c-0.2,0-0.3,0-0.5,0c-0.3,0-0.6,0-1,0c-0.2,0-0.4,0-0.6,0.1&#10;&#9;&#9;&#9;&#9;&#9;&#9;&#9;c-0.4,0.1-0.9,0.2-1.3,0.4c-0.5,0.2-1,0.4-1.5,0.7c-0.3,0.2-0.6,0.4-0.8,0.6c-0.2,0.2-0.4,0.3-0.6,0.5&#10;&#9;&#9;&#9;&#9;&#9;&#9;&#9;c-0.1,0.2-0.3,0.3-0.4,0.5c-0.2,0.2-0.3,0.4-0.5,0.6c-0.3,0.4-0.5,0.8-0.7,1.2s-0.3,0.8-0.5,1.3c-0.1,0.3-0.1,0.6-0.2,0.9&#10;&#9;&#9;&#9;&#9;&#9;&#9;&#9;c0,0.3-0.1,0.6-0.1,0.9c0,0.4,0,0.8,0.1,1.3c0,0.3,0.1,0.6,0.2,0.9C139.4,82.9,139.5,83.2,139.6,83.5z" id="el_T_djjGmYhUO"/>
						<path d="M147.8,73c0-0.1,0-0.1,0-0.2c0-0.1,0-0.1,0.1,0c0.2,0.2,0.4,0.3,0.6,0.5c0.2,0.2,0.5,0.4,0.8,0.6&#10;&#9;&#9;&#9;&#9;&#9;&#9;&#9;c0.1,0.1,0.3,0.3,0.4,0.4c0.1,0.1,0.3,0.2,0.4,0.4c0.1,0.1,0.3,0.2,0.4,0.4c0.2,0.1,0.3,0.3,0.5,0.4c0.1,0.1,0.3,0.2,0.4,0.4&#10;&#9;&#9;&#9;&#9;&#9;&#9;&#9;c0.2,0.1,0.3,0.3,0.4,0.4c0.1,0.1,0.3,0.2,0.4,0.4c0.2,0.2,0.4,0.4,0.6,0.5c0.1,0.1,0.3,0.2,0.4,0.4c0.2,0.1,0.3,0.3,0.4,0.4&#10;&#9;&#9;&#9;&#9;&#9;&#9;&#9;c0.1,0.1,0.3,0.2,0.4,0.4c0.1,0.1,0.3,0.3,0.4,0.4c0,0,0.1,0,0,0.1c-0.1,0-0.1-0.1-0.2-0.1c-0.3-0.2-0.6-0.4-0.9-0.6l0,0&#10;&#9;&#9;&#9;&#9;&#9;&#9;&#9;c0-0.1-0.1-0.1-0.1-0.2c-0.1-0.1-0.3-0.2-0.4-0.3c-0.1-0.1-0.2-0.2-0.4-0.3c-0.1-0.1-0.3-0.2-0.4-0.3&#10;&#9;&#9;&#9;&#9;&#9;&#9;&#9;c-0.1-0.1-0.3-0.2-0.4-0.3c-0.1-0.1-0.3-0.2-0.4-0.4c-0.1-0.1-0.2-0.2-0.4-0.3s-0.3-0.3-0.5-0.4c-0.1-0.1-0.3-0.2-0.4-0.3&#10;&#9;&#9;&#9;&#9;&#9;&#9;&#9;c-0.2-0.2-0.4-0.3-0.5-0.5c-0.2-0.2-0.3-0.3-0.5-0.5c-0.2-0.1-0.3-0.3-0.5-0.4c-0.2-0.2-0.4-0.3-0.5-0.5l-0.1-0.1&#10;&#9;&#9;&#9;&#9;&#9;&#9;&#9;C147.8,73.1,147.8,73.1,147.8,73z" id="el_ZRUITBFOLe9"/>
						<path d="M153.7,85.1C153.7,85.1,153.7,85,153.7,85.1c0-0.2,0.1-0.3,0.1-0.4c0.1-0.2,0.2-0.3,0.3-0.5&#10;&#9;&#9;&#9;&#9;&#9;&#9;&#9;c0.1-0.3,0.3-0.6,0.4-0.9c0.1-0.3,0.2-0.7,0.3-1.1v-0.1c0-0.1,0-0.1-0.1-0.1c0-0.1,0-0.3,0.1-0.4c0-0.2,0-0.4,0-0.6&#10;&#9;&#9;&#9;&#9;&#9;&#9;&#9;c0-0.2,0-0.4,0-0.6c0-0.2,0-0.3,0-0.5c0-0.3-0.1-0.7-0.2-1c0,0,0.1,0,0.1-0.1c0,0,0,0,0.1,0c0,0,0.1,0,0,0.1&#10;&#9;&#9;&#9;&#9;&#9;&#9;&#9;c0,0.1,0,0.1,0,0.2c0.2,0.7,0.2,1.4,0.2,2.1c0,0.4-0.1,0.8-0.2,1.2c0,0.1-0.1,0.2-0.1,0.3c-0.1,0.5-0.3,1-0.5,1.4&#10;&#9;&#9;&#9;&#9;&#9;&#9;&#9;C154.1,84.5,153.9,84.8,153.7,85.1C153.8,85,153.7,85.1,153.7,85.1z" id="el_R6besmtMFNa"/>
						<path d="M154.6,78.8L154.6,78.8L154.6,78.8z" id="el_9mPF1yikq4l"/>
						<path d="M147.8,73.3C147.7,73.3,147.7,73.3,147.8,73.3c-0.3,0-0.5-0.1-0.7-0.1c-0.1,0-0.3,0-0.4,0&#10;&#9;&#9;&#9;&#9;&#9;&#9;&#9;c-0.2,0-0.3,0-0.5,0s-0.4,0-0.5,0.1c-0.2,0-0.4,0.1-0.6,0.1c-0.3,0.1-0.6,0.2-0.9,0.3c-0.4,0.1-0.7,0.3-1.1,0.5&#10;&#9;&#9;&#9;&#9;&#9;&#9;&#9;c-0.2,0.1-0.5,0.3-0.7,0.5c-0.2,0.1-0.4,0.3-0.5,0.4s-0.2,0.1-0.3,0.2c-0.2,0.2-0.4,0.4-0.6,0.6c-0.2,0.3-0.4,0.6-0.6,0.9&#10;&#9;&#9;&#9;&#9;&#9;&#9;&#9;c-0.2,0.3-0.3,0.5-0.4,0.8c-0.1,0.2-0.2,0.4-0.2,0.6c-0.1,0.4-0.2,0.7-0.3,1.1c0,0.2-0.1,0.4-0.1,0.6c0,0.3,0,0.7,0,1&#10;&#9;&#9;&#9;&#9;&#9;&#9;&#9;c0,0.3,0,0.6,0.1,0.9c0.1,0.4,0.1,0.7,0.3,1c0.1,0.4,0.3,0.7,0.4,1.1c0.2,0.4,0.5,0.8,0.7,1.2c0.1,0.2,0.3,0.4,0.5,0.6&#10;&#9;&#9;&#9;&#9;&#9;&#9;&#9;c0.1,0.1,0.1,0.2,0.2,0.3c0.4,0.4,0.9,0.8,1.4,1.1c0.2,0.1,0.4,0.2,0.6,0.3c0.4,0.2,0.8,0.4,1.3,0.5c0.3,0.1,0.6,0.2,0.9,0.2&#10;&#9;&#9;&#9;&#9;&#9;&#9;&#9;c0.2,0,0.3,0,0.5,0.1c0.3,0,0.6,0,0.9,0c0.2,0,0.3,0,0.5,0c0.1,0,0.3,0,0.4,0c0.2,0,0.5-0.1,0.7-0.1c0.4-0.1,0.8-0.3,1.2-0.4&#10;&#9;&#9;&#9;&#9;&#9;&#9;&#9;c0.4-0.2,0.8-0.4,1.2-0.7c0.2-0.1,0.4-0.3,0.6-0.4c0.2-0.1,0.3-0.3,0.5-0.4c0.2-0.2,0.3-0.3,0.5-0.5s0.4-0.5,0.5-0.7&#10;&#9;&#9;&#9;&#9;&#9;&#9;&#9;c0.2-0.3,0.4-0.7,0.6-1.1c0.1-0.2,0.2-0.4,0.2-0.6c0.1-0.4,0.2-0.7,0.3-1.1c0-0.2,0.1-0.4,0.1-0.6c0-0.3,0-0.7,0-1&#10;&#9;&#9;&#9;&#9;&#9;&#9;&#9;c0-0.5-0.1-1-0.2-1.5l0,0c0.1,0,0.2,0,0.3,0c0.1,0.3,0.1,0.6,0.2,1c0,0.2,0,0.3,0,0.5c0,0.2,0,0.4,0,0.6s0,0.4,0,0.6&#10;&#9;&#9;&#9;&#9;&#9;&#9;&#9;c0,0.1,0,0.3-0.1,0.4c-0.1,0.4-0.2,0.8-0.3,1.2c-0.1,0.2-0.2,0.5-0.3,0.7c-0.1,0.3-0.3,0.6-0.4,0.8c-0.2,0.3-0.4,0.6-0.6,0.8&#10;&#9;&#9;&#9;&#9;&#9;&#9;&#9;c-0.1,0.2-0.3,0.3-0.4,0.5c-0.1,0.1-0.2,0.2-0.3,0.3c-0.2,0.2-0.5,0.4-0.7,0.6s-0.5,0.3-0.7,0.5c-0.4,0.2-0.8,0.4-1.2,0.6&#10;&#9;&#9;&#9;&#9;&#9;&#9;&#9;c-0.4,0.1-0.8,0.3-1.2,0.4c-0.2,0-0.4,0.1-0.6,0.1c-0.4,0.1-0.8,0.1-1.3,0.1c-0.2,0-0.3,0-0.5,0c-0.1,0-0.3,0-0.4-0.1&#10;&#9;&#9;&#9;&#9;&#9;&#9;&#9;c-0.3,0-0.5-0.1-0.8-0.2c-0.5-0.1-0.9-0.3-1.3-0.5c-0.4-0.2-0.8-0.4-1.1-0.6c-0.2-0.2-0.5-0.3-0.7-0.5&#10;&#9;&#9;&#9;&#9;&#9;&#9;&#9;c-0.2-0.1-0.3-0.3-0.5-0.4c-0.3-0.3-0.6-0.6-0.8-1c-0.2-0.3-0.4-0.6-0.5-0.9c-0.2-0.3-0.3-0.6-0.4-1l0,0&#10;&#9;&#9;&#9;&#9;&#9;&#9;&#9;c-0.1-0.3-0.2-0.5-0.2-0.8c-0.1-0.3-0.1-0.6-0.2-0.9c-0.1-0.4-0.1-0.8-0.1-1.3c0-0.3,0-0.6,0.1-0.9c0-0.3,0.1-0.6,0.2-0.9&#10;&#9;&#9;&#9;&#9;&#9;&#9;&#9;c0.1-0.4,0.3-0.9,0.5-1.3c0.2-0.4,0.4-0.8,0.7-1.2c0.2-0.2,0.3-0.4,0.5-0.6c0.1-0.2,0.3-0.3,0.4-0.5c0.2-0.2,0.4-0.3,0.6-0.5&#10;&#9;&#9;&#9;&#9;&#9;&#9;&#9;c0.3-0.2,0.5-0.4,0.8-0.6c0.5-0.3,0.9-0.5,1.5-0.7c0.4-0.2,0.9-0.3,1.3-0.4c0.2,0,0.4-0.1,0.6-0.1c0.3,0,0.6,0,1,0&#10;&#9;&#9;&#9;&#9;&#9;&#9;&#9;c0.2,0,0.4,0,0.5,0c0,0,0,0,0.1,0V73C147.8,73.2,147.8,73.3,147.8,73.3z" id="el_G1f_dJThoyB"/>
						<path d="M147.8,73.3L147.8,73.3c0-0.1,0.1-0.1,0.1,0c0.2,0.2,0.4,0.3,0.5,0.5c0.2,0.1,0.3,0.3,0.5,0.4&#10;&#9;&#9;&#9;&#9;&#9;&#9;&#9;c0.2,0.2,0.3,0.3,0.5,0.5c0.2,0.2,0.4,0.3,0.5,0.5c0.1,0.1,0.3,0.2,0.4,0.3c0.2,0.2,0.3,0.3,0.5,0.4c0.1,0.1,0.2,0.2,0.4,0.3&#10;&#9;&#9;&#9;&#9;&#9;&#9;&#9;c0.1,0.1,0.3,0.2,0.4,0.4c0.1,0.1,0.3,0.2,0.4,0.3c0.1,0.1,0.3,0.2,0.4,0.3c0.1,0.1,0.2,0.2,0.4,0.3c0.1,0.1,0.3,0.2,0.4,0.3&#10;&#9;&#9;&#9;&#9;&#9;&#9;&#9;c0.1,0.1,0.1,0.1,0.1,0.2c-0.2-0.1-0.3-0.1-0.4-0.2c-0.5-0.3-1.1-0.5-1.7-0.7c-0.5-0.2-1-0.4-1.4-0.6s-0.8-0.5-1.1-0.8&#10;&#9;&#9;&#9;&#9;&#9;&#9;&#9;c-0.5-0.5-0.7-1.1-0.9-1.7C147.8,73.7,147.8,73.5,147.8,73.3L147.8,73.3z" id="el_zhCZUWqIMzw"/>
							<linearGradient id="SVGID_1_" gradientUnits="userSpaceOnUse" x1="159.108" y1="98.3047" x2="159.108" y2="82.9934" gradientTransform="matrix(1 6.297763e-03 6.297763e-03 -1 -12.6276 170.4774)">
							<stop offset="3.081102e-07" style="stop-color:#ED5B26"/>
							<stop offset="1" style="stop-color:#CA4627"/>
						</linearGradient>

						<path d="M154.6,80.4c0-0.5-0.1-1-0.2-1.5l0,0c0,0,0,0-0.1,0c-0.3,0-0.6,0-0.8,0c-0.1,0-0.3,0-0.4,0&#10;&#9;&#9;&#9;&#9;&#9;&#9;&#9;c-0.2,0-0.5,0-0.7-0.1c-0.3,0-0.7-0.1-1-0.2l0,0c-0.1,0-0.2,0-0.3-0.1c-0.4-0.1-0.8-0.3-1.1-0.5c-0.4-0.2-0.7-0.5-1-0.8&#10;&#9;&#9;&#9;&#9;&#9;&#9;&#9;c-0.3-0.3-0.5-0.7-0.7-1.1c0,0,0-0.1-0.1-0.1c-0.1-0.2-0.1-0.4-0.2-0.6c-0.1-0.4-0.2-0.8-0.2-1.3c0-0.3-0.1-0.5,0-0.8&#10;&#9;&#9;&#9;&#9;&#9;&#9;&#9;c0,0,0,0,0-0.1l0,0h-0.1c-0.2,0-0.4,0-0.6,0c-0.1,0-0.3,0-0.4,0c-0.2,0-0.3,0-0.5,0s-0.4,0-0.5,0.1c-0.2,0-0.4,0.1-0.6,0.1&#10;&#9;&#9;&#9;&#9;&#9;&#9;&#9;c-0.3,0.1-0.6,0.2-0.9,0.3c-0.4,0.1-0.7,0.3-1.1,0.5c-0.2,0.1-0.5,0.3-0.7,0.5c-0.2,0.1-0.4,0.3-0.5,0.5&#10;&#9;&#9;&#9;&#9;&#9;&#9;&#9;c-0.1,0.1-0.2,0.1-0.3,0.2c-0.2,0.2-0.4,0.4-0.6,0.7c-0.2,0.3-0.4,0.6-0.6,0.9c-0.2,0.3-0.3,0.5-0.4,0.8&#10;&#9;&#9;&#9;&#9;&#9;&#9;&#9;c-0.1,0.2-0.2,0.4-0.2,0.6c-0.1,0.4-0.2,0.8-0.3,1.2c0,0.2-0.1,0.4-0.1,0.6c0,0.3,0,0.7,0,1c0,0.3,0,0.6,0.1,0.9&#10;&#9;&#9;&#9;&#9;&#9;&#9;&#9;c0.1,0.4,0.1,0.7,0.3,1.1c0.1,0.4,0.3,0.7,0.4,1.1c0.2,0.4,0.5,0.8,0.7,1.2c0.1,0.2,0.3,0.4,0.5,0.6c0.1,0.1,0.2,0.2,0.2,0.3&#10;&#9;&#9;&#9;&#9;&#9;&#9;&#9;c0.4,0.4,0.9,0.8,1.4,1.1c0.2,0.1,0.4,0.2,0.6,0.3c0.4,0.2,0.9,0.4,1.3,0.5c0.3,0.1,0.6,0.2,0.9,0.2c0.2,0,0.4,0,0.5,0.1&#10;&#9;&#9;&#9;&#9;&#9;&#9;&#9;c0.3,0,0.6,0,0.9,0c0.2,0,0.3,0,0.5,0c0.1,0,0.3,0,0.4,0c0.3,0,0.5-0.1,0.7-0.1c0.4-0.1,0.8-0.3,1.2-0.4&#10;&#9;&#9;&#9;&#9;&#9;&#9;&#9;c0.4-0.2,0.9-0.4,1.3-0.7c0.2-0.1,0.4-0.3,0.6-0.4c0.2-0.1,0.3-0.3,0.5-0.4c0.2-0.2,0.3-0.4,0.5-0.5c0.2-0.2,0.4-0.5,0.6-0.7&#10;&#9;&#9;&#9;&#9;&#9;&#9;&#9;c0.2-0.3,0.4-0.7,0.6-1.1c0.1-0.2,0.2-0.4,0.2-0.6c0.1-0.4,0.2-0.8,0.3-1.2c0-0.2,0.1-0.4,0.1-0.6&#10;&#9;&#9;&#9;&#9;&#9;&#9;&#9;C154.6,81.1,154.6,80.8,154.6,80.4z M142.8,87.1L142.8,87.1L142.8,87.1L142.8,87.1L142.8,87.1z" id="el_8kAHTFABEfB"/>

						<path d="M147.4,85.6L147.4,85.6L147.4,85.6z" id="el_wg3xr5eqd0W"/>
						<g id="el_jvie2PonjQZ">
							<path d="M147.1,76.5c0.3,0.2,0.5,0.3,0.8,0.5c0.9,0.5,1.7,1.1,2.6,1.6c0,0,0.1,0,0.1,0.1s-0.1,0.1-0.1,0.1&#10;&#9;&#9;&#9;&#9;&#9;&#9;&#9;&#9;c-0.2,0.2-0.4,0.3-0.6,0.5c-0.7,0.6-1.5,1.1-2.3,1.7c0,0-0.1,0-0.1,0.1c-0.1,0.1-0.2,0.1-0.3,0.2c-0.1,0-0.1,0.1-0.2,0.1&#10;&#9;&#9;&#9;&#9;&#9;&#9;&#9;&#9;c-0.1,0-0.1-0.1-0.2-0.1c-0.3-0.2-0.5-0.4-0.8-0.6c-0.2-0.1-0.3-0.2-0.5-0.3c-0.6-0.4-1.2-0.8-1.7-1.2c0,0,0,0-0.1,0&#10;&#9;&#9;&#9;&#9;&#9;&#9;&#9;&#9;c-0.1-0.1-0.3-0.2-0.4-0.4c0,0,0,0,0.1-0.1c0.6-0.4,1.2-0.8,1.8-1.2c0.5-0.3,0.9-0.6,1.4-0.9c0.1,0,0.1-0.1,0.2-0.1&#10;&#9;&#9;&#9;&#9;&#9;&#9;&#9;&#9;C146.9,76.4,146.9,76.4,147.1,76.5C147,76.5,147,76.5,147.1,76.5z" id="el_p4UpxRVrwWv"/>
							<path d="M146.6,84.3c0,0.3,0,0.6,0,0.9c0,0.2,0,0.4,0,0.6v0.1h-0.1c-0.1-0.1-0.2-0.1-0.3-0.2&#10;&#9;&#9;&#9;&#9;&#9;&#9;&#9;&#9;c-0.3-0.2-0.5-0.4-0.8-0.6c-0.2-0.2-0.4-0.3-0.7-0.5h-0.1c0,0,0,0-0.1-0.1c-0.4-0.3-0.9-0.7-1.3-1c-0.1,0-0.1-0.1-0.1-0.2&#10;&#9;&#9;&#9;&#9;&#9;&#9;&#9;&#9;c0-0.7,0-1.5,0-2.2V81c0-0.1,0-0.2,0-0.4c0-0.4,0-0.8,0-1.2v-0.1h0.1c0.6,0.4,1.2,0.8,1.7,1.2l0.1,0.1c0,0,0,0,0.1,0&#10;&#9;&#9;&#9;&#9;&#9;&#9;&#9;&#9;c0.3,0.2,0.6,0.5,0.9,0.7c0.2,0.1,0.3,0.3,0.5,0.3c0.1,0,0.1,0.1,0.1,0.2c0,0.7,0,1.5,0,2.2&#10;&#9;&#9;&#9;&#9;&#9;&#9;&#9;&#9;C146.6,84.2,146.6,84.2,146.6,84.3z" id="el_Fwn_w046tS2"/>
							<path d="M149.4,84.6c-0.3,0.2-0.5,0.4-0.8,0.5c-0.2,0.1-0.3,0.2-0.5,0.3c-0.2,0.1-0.4,0.2-0.6,0.3h-0.1l0,0&#10;&#9;&#9;&#9;&#9;&#9;&#9;&#9;&#9;c0-0.1,0-0.1,0-0.2c0-0.4,0-0.8,0-1.2v-0.1v-0.1c0-0.7,0-1.4,0-2.2c0-0.1,0-0.1,0.1-0.2c0.1-0.1,0.3-0.2,0.4-0.3&#10;&#9;&#9;&#9;&#9;&#9;&#9;&#9;&#9;c0.2-0.2,0.5-0.3,0.7-0.5c0.1-0.1,0.2-0.1,0.3-0.2c0.6-0.5,1.2-0.9,1.9-1.4c0,0,0.1,0,0.1-0.1c0,0.7,0,1.3,0,2&#10;&#9;&#9;&#9;&#9;&#9;&#9;&#9;&#9;c0,0.1,0,0.1,0,0.2c0,0.6,0,1.2,0,1.8c0,0.1,0,0.1-0.1,0.2c-0.2,0.2-0.4,0.3-0.7,0.5C149.8,84.2,149.6,84.4,149.4,84.6z" id="el_VHpLdnTv6bO"/>
						</g>
					</g> -->

				</g>
				</g>
				<g id="el_56A3HHKK1_n_vlnWphr_P" data-animator-group="true" data-animator-type="0"><g id="el_56A3HHKK1_n_cglanZpA9" data-animator-group="true" data-animator-type="2"><g id="el_56A3HHKK1_n">
					<path d="M83.6,100.1H39.3c-1.7,0-3.1-1.4-3.1-3.1V66.7c0-1.7,1.4-3.1,3.1-3.1h44.3c1.7,0,3.1,1.4,3.1,3.1V97&#10;&#9;&#9;&#9;&#9;&#9;&#9;C86.7,98.7,85.3,100.1,83.6,100.1z" id="el_mty13sBjsXc"/>
					<g id="el_A12M6PmII68">
						<g id="el_qhusaSrSh5x">
							<path d="M79.9,89.5H43.1c-0.6,0-1-0.5-1-1v-0.1c0-0.6,0.5-1,1-1h36.8c0.6,0,1,0.5,1,1v0.1&#10;&#9;&#9;&#9;&#9;&#9;&#9;&#9;&#9;C80.9,89,80.4,89.5,79.9,89.5z" id="el_ocyWbSgVrP9"/>
							<path d="M64,94.6H43c-0.6,0-1-0.5-1-1v-0.1c0-0.6,0.5-1,1-1h21c0.6,0,1,0.5,1,1v0.1C65.1,94.1,64.6,94.6,64,94.6&#10;&#9;&#9;&#9;&#9;&#9;&#9;&#9;&#9;z" id="el_ovI9ZFcKBGs"/>
						</g>
						<circle cx="47.6" cy="74.8" r="6.9" id="el_6F8VgXS_TP-"/>
					</g>
				</g></g></g>
				<g id="el_Qgkf_kZ7Ymn_HyW8fyCaf" data-animator-group="true" data-animator-type="2"><g id="el_Qgkf_kZ7Ymn">
					<path d="M76.2,44.7H37.7c-0.6,0-1-0.5-1-1v-0.1c0-0.6,0.5-1,1-1h38.5c0.6,0,1,0.5,1,1v0.1&#10;&#9;&#9;&#9;&#9;&#9;&#9;C77.3,44.2,76.8,44.7,76.2,44.7z" id="el_R3FKjYfjLFl"/>
					<path d="M76.2,58.4H37.7c-0.6,0-1-0.5-1-1v-0.1c0-0.6,0.5-1,1-1h38.5c0.6,0,1,0.5,1,1v0.1&#10;&#9;&#9;&#9;&#9;&#9;&#9;C77.3,58,76.8,58.4,76.2,58.4z" id="el_m8XbeB6DjMY"/>
					<path d="M85.4,51.5H37.7c-0.6,0-1-0.5-1-1v-0.1c0-0.6,0.5-1,1-1h47.6c0.6,0,1,0.5,1,1v0.1&#10;&#9;&#9;&#9;&#9;&#9;&#9;C86.4,51.1,85.9,51.5,85.4,51.5z" id="el_dqwNy-S-kj0"/>
				</g></g>
			</g>
			<circle cx="102.1" cy="121.8" r="3.7" id="el_E70LJITc05J"/>
			<g id="el_BadDbpV8k5S">
				<g id="el_l04zXUIpdWd">
					<g id="el_Mai6N91tTlT_YPvHmR-t2" data-animator-group="true" data-animator-type="1"><path d="M203.3,81.5L203.3,81.5c2.5-2.6,1.3-5.4,0.8-6.3l0,0c-0.1-0.2-0.1-0.3-0.1-0.3l0,0&#10;&#9;&#9;&#9;&#9;&#9;&#9;c-0.7-1.4-1.1-3-1.1-4.7c0-2.9,1.2-5.5,3.1-7.4c1.7-2.3,0.4-5.3,0.4-5.3l0,0c-0.3-0.8-0.4-1.6-0.4-2.4c0-4.1,3.3-7.4,7.4-7.4&#10;&#9;&#9;&#9;&#9;&#9;&#9;c4.1,0,7.4,3.3,7.4,7.4c0,0.9-0.2,1.7-0.4,2.4l0,0c0,0-1.3,3.1,0.4,5.3c1.9,1.9,3.1,4.5,3.1,7.4c0,1.7-0.4,3.3-1.1,4.7l0,0&#10;&#9;&#9;&#9;&#9;&#9;&#9;c0,0,0,0,0,0.1c-0.1,0.1-0.1,0.2-0.2,0.3c-0.5,1-1.4,3.5,0.7,5.9c0.1,0.1,0.1,0.1,0.2,0.2c0,0,0,0,0.1,0.1l0,0&#10;&#9;&#9;&#9;&#9;&#9;&#9;c1.8,2.2,2.8,5,2.8,8c0,7.1-5.7,12.8-12.8,12.8s-12.8-5.7-12.8-12.8C200.5,86.5,201.6,83.7,203.3,81.5z" id="el_Mai6N91tTlT"/></g>
					<path d="M209.6,88.4l3.1,3.1V80.6l-3.9-3.8c-0.2-0.2-0.2-0.5,0-0.7c0.2-0.2,0.5-0.2,0.7,0l3.1,3.1V64.1&#10;&#9;&#9;&#9;&#9;&#9;&#9;c0-0.3,0.2-0.5,0.5-0.5s0.5,0.2,0.5,0.5v9.1l3.1-3c0.2-0.2,0.5-0.2,0.7,0c0.2,0.2,0.2,0.5,0,0.7l-3.8,3.8v11l3.4-3.4&#10;&#9;&#9;&#9;&#9;&#9;&#9;c0.2-0.2,0.5-0.2,0.7,0s0.2,0.5,0,0.7l-4.1,4.1v29.1c0,0.3-0.2,0.5-0.5,0.5s-0.5-0.2-0.5-0.5V93l-3.9-3.8&#10;&#9;&#9;&#9;&#9;&#9;&#9;c-0.2-0.2-0.2-0.5,0-0.7C209.1,88.2,209.4,88.2,209.6,88.4z" id="el_wWWcPHStqt2"/>
				</g>
				<path d="M225.4,117.1h-16.8c-0.3,0-0.6-0.3-0.6-0.6c0-0.3,0.3-0.6,0.6-0.6h16.8c0.3,0,0.6,0.3,0.6,0.6&#10;&#9;&#9;&#9;&#9;&#9;C226,116.9,225.7,117.1,225.4,117.1z" id="el_Nf24n-Ho9rc"/>
			</g>
			<path d="M206.1,151.6H0.5c-0.3,0-0.5-0.2-0.5-0.5s0.2-0.5,0.5-0.5h205.6c0.3,0,0.5,0.2,0.5,0.5&#10;&#9;&#9;&#9;&#9;S206.4,151.6,206.1,151.6z" id="el_UBEmra1z5FU"/>
			<g id="el_UhC9phvyhpi">
				
					<linearGradient id="SVGID_2_" gradientUnits="userSpaceOnUse" x1="115.8499" y1="30.9833" x2="142.3448" y2="30.9833" gradientTransform="matrix(1 0 0 -1 0 199.2333)">
					<stop offset="3.081102e-07" style="stop-color:#ED5B26"/>
					<stop offset="1" style="stop-color:#CA4627"/>
				</linearGradient>
				<path d="M139.1,174.3h-20c-1.8,0-3.2-1.5-3.2-3.2v-5.7c0-1.8,1.5-3.2,3.2-3.2h20c1.8,0,3.2,1.5,3.2,3.2v5.7&#10;&#9;&#9;&#9;&#9;&#9;C142.3,172.9,140.9,174.3,139.1,174.3z" id="el_AIQoi6-MUST"/>
				<path d="M139.1,171.1h-20c-1.8,0-3.2-1.5-3.2-3.2v-5.7c0-1.8,1.5-3.2,3.2-3.2h20c1.8,0,3.2,1.5,3.2,3.2v5.7&#10;&#9;&#9;&#9;&#9;&#9;C142.3,169.6,140.9,171.1,139.1,171.1z" id="el_KVWDGi-53Bu"/>
			</g>
			<g id="el_0Yr6isgZ18-">
				<g id="el_br7oy27Mmy1_VHmoD70Sv" data-animator-group="true" data-animator-type="0"><g id="el_br7oy27Mmy1_43IjRwiUx" data-animator-group="true" data-animator-type="1"><g id="el_br7oy27Mmy1">
					<g id="el_XuLc32sXyH5">
						<path d="M156.9,134.1c-0.6-1.1-0.1-2.5,0.9-3.1c1.1-0.6,2.5-0.2,3.1,0.8s0.1,2.5-0.9,3.1&#10;&#9;&#9;&#9;&#9;&#9;&#9;&#9;C158.9,135.7,157.5,135.2,156.9,134.1z" id="el_sbfgS8YQkme"/>
					</g>
					
						<linearGradient id="SVGID_3_" gradientUnits="userSpaceOnUse" x1="153.495" y1="96.1492" x2="172.939" y2="96.1492" gradientTransform="matrix(-0.4768 -0.879 -0.879 0.4768 326.2265 217.3338)">
						<stop offset="3.081102e-07" style="stop-color:#ED5B26"/>
						<stop offset="1" style="stop-color:#CA4627"/>
					</linearGradient>
					<path d="M170,109l-3.5,11.1l0,0.1l-4.7,11.7l-4.1-1.7l4.7-11.5l3.5-11.1L170,109z" id="el_8eW0W3TKwMP"/>
				</g></g></g>
				<g id="el_5xzhV0vj0Z0">
					<g id="el_R_kSnDyCsr6">
						<path d="M192.3,104.4c-0.7-0.8-2-0.8-2.8,0s-0.9,2.2-0.1,3c0.7,0.8,2,0.8,2.8,0S193,105.2,192.3,104.4z" id="el_B0u7vh0kNGL"/>
						<g id="el_M0cRCpvIHc-">
							
								<linearGradient id="SVGID_4_" gradientUnits="userSpaceOnUse" x1="172.2577" y1="87.3857" x2="191.1755" y2="87.3857" gradientTransform="matrix(1 0 0 -1 0 199.2333)">
								<stop offset="3.081102e-07" style="stop-color:#ED5B26"/>
								<stop offset="1" style="stop-color:#CA4627"/>
							</linearGradient>
							<path d="M182.3,113.4l-7.3-6.3c-0.9-0.6-2-0.2-2.5,0.8s-0.1,2.3,0.8,2.9l7.3,6.3c1.5,1,3.3,0.7,4.5-0.6l6.1-7.6&#10;&#9;&#9;&#9;&#9;&#9;&#9;&#9;&#9;l-2.9-2.9L182.3,113.4z" id="el_HO_dU_6_i6u"/>
						</g>
					</g>
					<polygon points="165.4,162.9 168.4,162.8 168.3,157.6 165.3,157.7 &#9;&#9;&#9;&#9;&#9;" id="el_JTwiD-eJrxg"/>
					<path d="M160.6,165.3l7.8-0.1v-3.4h-4.7C162,161.9,160.6,163.4,160.6,165.3L160.6,165.3z" id="el_CRtTq5wTy6k"/>
					<polygon points="178.5,162.9 175.6,162.8 175,157.6 177.9,157.7 &#9;&#9;&#9;&#9;&#9;" id="el_bn-7Skwe4PC"/>
					<path d="M183.3,165.3l-7.5-0.1l-0.3-3.4h4.8C181.9,161.9,183.3,163.4,183.3,165.3L183.3,165.3z" id="el_bXEAO2MVdTI"/>
					<g id="el_Gpj_nzPHrCb">
						<g id="el_uF4axlozabu">
							<polygon points="165.2,122.7 170.3,122.5 170.9,122.5 176,122.3 176,129.8 165.6,130.1 &#9;&#9;&#9;&#9;&#9;&#9;&#9;" id="el_ieRJH8LF9Kt"/>
						</g>
						<path d="M174.6,160.1h4.6l-2.4-19.2l-0.8-18.5l-4.9,0.8l0.7,17.9c0,0.2,0,0.4,0.1,0.6L174.6,160.1z" id="el_QQN0lc-gMAz"/>
						<path d="M164.4,159.8h4.4l-0.7-18.3l2.5-18.3l-5.4-0.6l-2.1,18.6c0,0.2,0,0.4,0,0.6L164.4,159.8z" id="el_COk_V9Rp8gk"/>
					</g>
					<g id="el_bQjNqR2MwYE">
						<g id="el_dBJ8nqwh-mr">
							<rect x="169.1" y="103.8" width="3" height="4" id="el_T_SL6DVJJeH"/>
							<g id="el_wTB8XN01pEw">
								<circle cx="166.7" cy="101.4" r="1" id="el_89qwXy1DMX6"/>
								<circle cx="174.7" cy="101.4" r="1" id="el_9zrU2ClHfap"/>
								<circle cx="170.7" cy="100.5" r="4.1" id="el_qHvTbpZZ0px"/>
							</g>
							
								<linearGradient id="SVGID_5_" gradientUnits="userSpaceOnUse" x1="164.7167" y1="84.3833" x2="176.4076" y2="84.3833" gradientTransform="matrix(1 0 0 -1 0 199.2333)">
								<stop offset="3.081102e-07" style="stop-color:#ED5B26"/>
								<stop offset="1" style="stop-color:#CA4627"/>
							</linearGradient>
							<path d="M176,123.2h-10.9l-0.4-12.8c0-2.1,1.3-3.9,3.3-3.9h5c2,0,3.3,1.7,3.3,3.9L176,123.2z" id="el_L8BzcCEwXkr"/>
						</g>
					</g>
				</g>
			</g>
			<path d="M133.9,150.4H70.3l0,0c0-2.7,2.2-4.9,4.9-4.9H129C131.7,145.5,133.9,147.7,133.9,150.4L133.9,150.4z" id="el_4cDrgZDBd73"/>
			<g id="el_8IRcx-q5ye4">
				<g id="el_xpkhG5-yErI">
					<g id="el_8j1c_pB7Sbu">
						<path d="M29.3,173.4c0-0.2-0.6-6.1-0.6-6.1l3.1-0.6l0.6,6.1L29.3,173.4z" id="el_0TgGrps83aE"/>
						<path d="M38.1,173l-8.5,1.7l-0.5-2.6l5.9-1.2C36.4,170.6,37.8,171.5,38.1,173L38.1,173z" id="el_CV6VlHXqFl3"/>
					</g>
					<path d="M17.9,140.3l12,9.2l0.4,0.3c0.6,0.5,1,1.2,1.1,2l1.5,16.9l-4.3,0.6l-2.9-17.4l1.5,2.3L13,148.3&#10;&#9;&#9;&#9;&#9;&#9;&#9;L17.9,140.3z" id="el_aB87ZSOVwmt"/>
				</g>
					<linearGradient id="SVGID_6_" gradientUnits="userSpaceOnUse" x1="5.0895" y1="63.3833" x2="21.7514" y2="63.3833" gradientTransform="matrix(1 0 0 -1 0 199.2333)">
					<stop offset="3.081102e-07" style="stop-color:#ED5B26"/>
					<stop offset="1" style="stop-color:#CA4627"/>
				</linearGradient>
				<path d="M10.3,145.8l10.3-3.7c0.9-0.3,1.3-1.2,1.1-2l-4.4-14.2L9,128.5c-3,0.9-4.6,4.1-3.7,7L10.3,145.8z" id="el__LDTXgsyRTc"/>
				<g id="el_ee6ctPoa3pn__CrQaswsm" data-animator-group="true" data-animator-type="1"><path d="M38.1,143.2l-14.2,3.6c-2.2,0.6-4.5-0.8-5-3l-3.6-14.2c-0.6-2.2,0.8-4.5,3-5l14.2-3.6c2.2-0.6,4.5,0.8,5,3&#10;&#9;&#9;&#9;&#9;&#9;l3.6,14.2C41.6,140.4,40.3,142.6,38.1,143.2z" id="el_ee6ctPoa3pn"/></g>
				
				<!-- <g id="el_rw2DGvSx6l3">
					<path d="M36.2,131.8c1.1,4.5-1.6,9-6,10.1c-4.5,1.1-9-1.6-10.1-6c-1.1-4.4,1.6-9,6-10.1c0.4-0.1,1.2-0.2,1.2-0.2&#10;&#9;&#9;&#9;&#9;&#9;&#9;l8,4C35.3,129.6,36,131,36.2,131.8z" id="el_UkxRMlYchK_"/>
					<path d="M34.8,129.9C34.9,129.9,34.9,130,34.8,129.9c0.1,0.1,0.1,0.1,0.2,0.1l0,0c0,0.1,0,0.1-0.1,0.1&#10;&#9;&#9;&#9;&#9;&#9;&#9;s-0.2,0-0.3,0h-0.1c-0.3,0.1-0.5,0.1-0.8,0.2c-0.1,0-0.3,0.1-0.4,0.1c-0.2,0-0.5,0.1-0.7,0.1c-0.3,0-0.7,0.1-1,0.1&#10;&#9;&#9;&#9;&#9;&#9;&#9;c-0.1,0-0.2,0-0.3,0c-0.4,0-0.8-0.1-1.2-0.2c-0.4-0.1-0.8-0.3-1.1-0.6c-0.3-0.2-0.6-0.5-0.9-0.8c0,0,0-0.1-0.1-0.1&#10;&#9;&#9;&#9;&#9;&#9;&#9;c-0.1-0.2-0.2-0.3-0.3-0.5c-0.2-0.4-0.4-0.8-0.5-1.2c-0.1-0.2-0.2-0.5-0.2-0.7c0,0,0,0,0-0.1c0.1,0.2,0.1,0.3,0.2,0.5&#10;&#9;&#9;&#9;&#9;&#9;&#9;c0.3,0.6,0.7,1.1,1.3,1.4c0.4,0.2,0.8,0.4,1.3,0.5c0.5,0.1,1,0.2,1.5,0.3c0.6,0.1,1.2,0.1,1.8,0.3c0.2,0,0.3,0.1,0.5,0.1&#10;&#9;&#9;&#9;&#9;&#9;&#9;c0,0,0,0,0.1,0c0.3,0.1,0.7,0.2,1,0.3L34.8,129.9z" id="el_LjADs8B9MYR"/>
					<path d="M35.8,136.2c-0.1,0.4-0.2,0.7-0.4,1c-0.8,1.6-1.9,2.8-3.4,3.6c-0.4,0.2-0.9,0.4-1.3,0.6&#10;&#9;&#9;&#9;&#9;&#9;&#9;c-0.5,0.2-0.9,0.3-1.4,0.3c-1.5,0.2-2.9,0-4.3-0.6c-0.8-0.3-1.4-0.8-2.1-1.3l-0.1-0.1c0-0.1,0-0.1-0.1-0.2&#10;&#9;&#9;&#9;&#9;&#9;&#9;c-0.2-0.2-0.4-0.4-0.6-0.6c-0.1-0.2-0.3-0.4-0.4-0.5l-0.1-0.1v-0.1l0,0c0.2,0.3,0.4,0.6,0.7,0.8c0.2,0.3,0.5,0.5,0.7,0.7&#10;&#9;&#9;&#9;&#9;&#9;&#9;c0.3,0.3,0.7,0.5,1,0.7c0.2,0.1,0.4,0.2,0.6,0.3c0.3,0.1,0.5,0.3,0.8,0.4c0.4,0.1,0.8,0.3,1.2,0.3c0.5,0.1,0.9,0.1,1.4,0.1&#10;&#9;&#9;&#9;&#9;&#9;&#9;c0.3,0,0.5,0,0.8,0c0.1,0,0.3,0,0.4-0.1c0.2,0,0.3,0,0.5-0.1c0.4-0.1,0.8-0.2,1.2-0.4c0.2-0.1,0.4-0.2,0.6-0.3&#10;&#9;&#9;&#9;&#9;&#9;&#9;c0.4-0.2,0.7-0.4,1.1-0.6c0.4-0.3,0.7-0.5,1-0.8c0.2-0.2,0.4-0.4,0.6-0.7c0.2-0.3,0.4-0.5,0.5-0.8c0.1-0.1,0.1-0.2,0.2-0.4&#10;&#9;&#9;&#9;&#9;&#9;&#9;c0.1-0.2,0.2-0.4,0.3-0.6c0.1-0.3,0.3-0.6,0.3-0.9c0.1-0.3,0.2-0.6,0.2-0.9s0.1-0.5,0.1-0.8c0-0.4,0-0.8,0-1.3&#10;&#9;&#9;&#9;&#9;&#9;&#9;c0.1,0,0.1,0,0.1,0.1v0.1c0,0.4,0,0.7,0,1.1c0,0.3-0.1,0.6-0.1,0.9c0,0.2-0.1,0.4-0.1,0.5C35.8,136,35.7,136.1,35.8,136.2&#10;&#9;&#9;&#9;&#9;&#9;&#9;C35.7,136.2,35.7,136.2,35.8,136.2z" id="el_okmtwCERBZx"/>
					<path d="M21.7,138.3C21.6,138.3,21.6,138.3,21.7,138.3c0,0.1,0,0.2,0.1,0.2c0.1,0.2,0.3,0.4,0.4,0.5&#10;&#9;&#9;&#9;&#9;&#9;&#9;c0.2,0.2,0.4,0.4,0.6,0.6c0,0,0.1,0.1,0.1,0.2c-0.1-0.1-0.3-0.2-0.4-0.4c-0.7-0.7-1.2-1.4-1.6-2.3c-0.2-0.6-0.4-1.1-0.5-1.7&#10;&#9;&#9;&#9;&#9;&#9;&#9;c-0.2-1-0.2-1.9,0-2.9s0.5-2,1.1-2.9c0.6-0.9,1.3-1.7,2.2-2.3c0.4-0.3,0.9-0.6,1.4-0.8c0.5-0.2,1.1-0.4,1.7-0.5&#10;&#9;&#9;&#9;&#9;&#9;&#9;c0.1,0,0.2,0,0.3,0c0,0,0,0.1,0.1,0.2c0,0,0,0-0.1,0c-0.2,0-0.3,0.1-0.5,0.1c-0.3,0.1-0.6,0.2-0.9,0.3&#10;&#9;&#9;&#9;&#9;&#9;&#9;c-0.2,0.1-0.4,0.1-0.6,0.2c-0.4,0.2-0.8,0.4-1.2,0.7c-0.4,0.3-0.9,0.6-1.2,1c-0.2,0.2-0.5,0.5-0.6,0.8&#10;&#9;&#9;&#9;&#9;&#9;&#9;c-0.1,0.2-0.3,0.4-0.4,0.6s-0.2,0.4-0.3,0.6c-0.1,0.2-0.2,0.5-0.3,0.7c-0.2,0.4-0.3,0.9-0.4,1.3c-0.1,0.4-0.1,0.9-0.1,1.3&#10;&#9;&#9;&#9;&#9;&#9;&#9;c0,0.3,0,0.6,0,0.9s0.1,0.6,0.1,0.9c0.1,0.4,0.2,0.8,0.4,1.2c0.1,0.3,0.2,0.6,0.4,0.8C21.4,137.8,21.5,138,21.7,138.3z" id="el_byL-hTXAjHn"/>
					<path d="M26.9,126.1c0-0.1,0-0.1-0.1-0.2c0-0.1,0-0.1,0.1-0.1c0.2,0.1,0.4,0.2,0.7,0.3c0.3,0.1,0.6,0.3,0.9,0.4&#10;&#9;&#9;&#9;&#9;&#9;&#9;c0.2,0.1,0.3,0.2,0.5,0.3c0.2,0.1,0.3,0.2,0.5,0.2c0.2,0.1,0.3,0.2,0.5,0.2c0.2,0.1,0.4,0.2,0.6,0.3c0.2,0.1,0.3,0.2,0.5,0.2&#10;&#9;&#9;&#9;&#9;&#9;&#9;c0.2,0.1,0.4,0.2,0.5,0.3c0.2,0.1,0.3,0.2,0.5,0.2c0.2,0.1,0.5,0.2,0.7,0.4c0.2,0.1,0.3,0.2,0.5,0.2c0.2,0.1,0.4,0.2,0.5,0.3&#10;&#9;&#9;&#9;&#9;&#9;&#9;c0.2,0.1,0.3,0.2,0.5,0.2c0.2,0.1,0.3,0.2,0.5,0.3c0,0,0.1,0,0.1,0.1c-0.1,0-0.2-0.1-0.2-0.1c-0.3-0.1-0.6-0.2-1-0.3&#10;&#9;&#9;&#9;&#9;&#9;&#9;c0,0,0,0-0.1,0c0-0.1-0.1-0.1-0.2-0.1c-0.2-0.1-0.3-0.1-0.5-0.2c-0.1-0.1-0.3-0.1-0.4-0.2c-0.2-0.1-0.3-0.1-0.5-0.2&#10;&#9;&#9;&#9;&#9;&#9;&#9;c-0.1-0.1-0.3-0.1-0.4-0.2c-0.2-0.1-0.3-0.2-0.5-0.2c-0.1-0.1-0.3-0.1-0.4-0.2c-0.2-0.1-0.4-0.2-0.6-0.3&#10;&#9;&#9;&#9;&#9;&#9;&#9;c-0.2-0.1-0.3-0.1-0.4-0.2c-0.2-0.1-0.4-0.2-0.6-0.3c-0.2-0.1-0.4-0.2-0.6-0.3c-0.2-0.1-0.4-0.2-0.6-0.3&#10;&#9;&#9;&#9;&#9;&#9;&#9;c-0.2-0.1-0.4-0.2-0.6-0.3h-0.1C27,126.2,26.9,126.1,26.9,126.1z" id="el_SDBcKFHhHQN"/>
					<path d="M35.8,136.2C35.7,136.2,35.7,136.2,35.8,136.2c0-0.2,0-0.3,0-0.4c0.1-0.2,0.1-0.4,0.1-0.5&#10;&#9;&#9;&#9;&#9;&#9;&#9;c0.1-0.3,0.1-0.6,0.1-0.9c0-0.4,0-0.7,0-1.1v-0.1c0-0.1,0-0.1-0.1-0.1c0-0.1,0-0.3-0.1-0.4c0-0.2-0.1-0.4-0.1-0.6&#10;&#9;&#9;&#9;&#9;&#9;&#9;c-0.1-0.2-0.1-0.4-0.2-0.6c-0.1-0.2-0.1-0.3-0.2-0.5c-0.1-0.3-0.3-0.6-0.4-0.9c0,0,0.1,0,0.1-0.1h0.1c0,0,0.1,0,0.1,0.1&#10;&#9;&#9;&#9;&#9;&#9;&#9;c0,0.1,0.1,0.1,0.1,0.2c0.3,0.6,0.6,1.3,0.7,2c0.1,0.4,0.1,0.8,0.1,1.2c0,0.1,0,0.2,0,0.3c0,0.5,0,1-0.1,1.5&#10;&#9;&#9;&#9;&#9;&#9;&#9;C35.9,135.6,35.9,135.9,35.8,136.2L35.8,136.2z" id="el_giRFg-zMAIu"/>
					<path d="M35.1,130C35,130,35,130,35.1,130C35,129.9,35,130,35.1,130z" id="el_rTHarBPVgvI"/>
					<path d="M27,126.4C27,126.4,27,126.3,27,126.4c-0.3,0-0.5,0.1-0.7,0.1c-0.1,0-0.3,0.1-0.4,0.1s-0.3,0.1-0.4,0.2&#10;&#9;&#9;&#9;&#9;&#9;&#9;c-0.2,0.1-0.3,0.1-0.5,0.2s-0.4,0.2-0.5,0.3c-0.3,0.2-0.5,0.3-0.8,0.5s-0.6,0.5-0.9,0.8c-0.2,0.2-0.4,0.4-0.6,0.6&#10;&#9;&#9;&#9;&#9;&#9;&#9;c-0.1,0.2-0.3,0.4-0.4,0.6c-0.1,0.1-0.1,0.2-0.2,0.3c-0.1,0.3-0.3,0.5-0.4,0.8s-0.3,0.7-0.4,1.1c-0.1,0.3-0.1,0.6-0.2,0.9&#10;&#9;&#9;&#9;&#9;&#9;&#9;c0,0.2-0.1,0.4-0.1,0.7c0,0.4,0,0.8,0,1.2c0,0.2,0.1,0.4,0.1,0.6c0.1,0.3,0.1,0.7,0.2,1s0.2,0.6,0.3,0.8&#10;&#9;&#9;&#9;&#9;&#9;&#9;c0.1,0.3,0.3,0.6,0.5,0.9s0.4,0.6,0.7,0.9c0.3,0.3,0.6,0.7,1,1c0.2,0.1,0.4,0.3,0.6,0.4c0.1,0.1,0.2,0.1,0.3,0.2&#10;&#9;&#9;&#9;&#9;&#9;&#9;c0.5,0.3,1,0.5,1.6,0.7c0.2,0.1,0.4,0.1,0.7,0.2c0.5,0.1,0.9,0.1,1.4,0.2c0.3,0,0.6,0,0.9,0c0.2,0,0.3,0,0.5-0.1&#10;&#9;&#9;&#9;&#9;&#9;&#9;c0.3,0,0.6-0.1,0.9-0.2c0.2,0,0.3-0.1,0.4-0.2c0.1,0,0.2-0.1,0.4-0.1c0.2-0.1,0.5-0.2,0.7-0.3c0.4-0.2,0.7-0.5,1.1-0.7&#10;&#9;&#9;&#9;&#9;&#9;&#9;c0.4-0.3,0.7-0.6,1-1c0.2-0.2,0.3-0.4,0.4-0.6c0.1-0.2,0.3-0.4,0.4-0.5c0.1-0.2,0.2-0.4,0.3-0.6c0.1-0.3,0.2-0.6,0.3-0.9&#10;&#9;&#9;&#9;&#9;&#9;&#9;c0.1-0.4,0.2-0.8,0.3-1.2c0-0.2,0.1-0.4,0.1-0.7c0-0.4,0-0.8,0-1.2c0-0.2-0.1-0.4-0.1-0.6c-0.1-0.3-0.1-0.7-0.2-1&#10;&#9;&#9;&#9;&#9;&#9;&#9;c-0.1-0.5-0.4-0.9-0.6-1.4l0,0c0.1,0,0.2,0,0.3,0c0.2,0.3,0.3,0.6,0.4,0.9c0.1,0.2,0.1,0.3,0.2,0.5c0.1,0.2,0.1,0.4,0.2,0.6&#10;&#9;&#9;&#9;&#9;&#9;&#9;c0,0.2,0.1,0.4,0.1,0.6c0,0.1,0,0.3,0.1,0.4c0,0.4,0,0.8,0,1.3c0,0.3-0.1,0.5-0.1,0.8s-0.1,0.6-0.2,0.9&#10;&#9;&#9;&#9;&#9;&#9;&#9;c-0.1,0.3-0.2,0.6-0.3,0.9c-0.1,0.2-0.2,0.4-0.3,0.6c-0.1,0.1-0.1,0.2-0.2,0.4c-0.2,0.3-0.3,0.5-0.5,0.8&#10;&#9;&#9;&#9;&#9;&#9;&#9;c-0.2,0.2-0.4,0.4-0.6,0.7c-0.3,0.3-0.6,0.6-1,0.8c-0.3,0.2-0.7,0.5-1.1,0.6c-0.2,0.1-0.4,0.2-0.6,0.3&#10;&#9;&#9;&#9;&#9;&#9;&#9;c-0.4,0.2-0.8,0.3-1.2,0.4c-0.2,0-0.3,0.1-0.5,0.1c-0.1,0-0.3,0-0.4,0.1c-0.3,0-0.5,0-0.8,0c-0.5,0-1,0-1.4-0.1&#10;&#9;&#9;&#9;&#9;&#9;&#9;c-0.4-0.1-0.8-0.2-1.2-0.3c-0.3-0.1-0.5-0.2-0.8-0.4c-0.2-0.1-0.4-0.2-0.6-0.3c-0.4-0.2-0.7-0.5-1-0.7s-0.5-0.5-0.7-0.7&#10;&#9;&#9;&#9;&#9;&#9;&#9;c-0.2-0.3-0.4-0.5-0.7-0.8l0,0c-0.1-0.2-0.3-0.5-0.4-0.7c-0.1-0.3-0.3-0.5-0.4-0.8c-0.2-0.4-0.3-0.8-0.4-1.2&#10;&#9;&#9;&#9;&#9;&#9;&#9;c-0.1-0.3-0.1-0.6-0.1-0.9s0-0.6,0-0.9c0-0.4,0-0.9,0.1-1.3c0.1-0.5,0.2-0.9,0.4-1.3c0.1-0.2,0.2-0.5,0.3-0.7&#10;&#9;&#9;&#9;&#9;&#9;&#9;c0.1-0.2,0.2-0.4,0.3-0.6c0.1-0.2,0.3-0.4,0.4-0.6c0.2-0.3,0.4-0.5,0.6-0.8c0.4-0.4,0.8-0.7,1.2-1.1c0.4-0.3,0.8-0.5,1.2-0.7&#10;&#9;&#9;&#9;&#9;&#9;&#9;c0.2-0.1,0.4-0.2,0.6-0.2c0.3-0.1,0.6-0.2,0.9-0.3c0.2,0,0.3-0.1,0.5-0.1c0,0,0,0,0.1,0v0.1C27,126.3,27,126.3,27,126.4z" id="el_xU7t79dBDOP"/>
					<path d="M27,126.4L27,126.4l0.1-0.1c0.2,0.1,0.4,0.2,0.6,0.3c0.2,0.1,0.4,0.2,0.6,0.3c0.2,0.1,0.4,0.2,0.6,0.3&#10;&#9;&#9;&#9;&#9;&#9;&#9;c0.2,0.1,0.4,0.2,0.6,0.3c0.1,0.1,0.3,0.1,0.4,0.2c0.2,0.1,0.4,0.2,0.6,0.3c0.1,0.1,0.3,0.1,0.4,0.2c0.2,0.1,0.3,0.2,0.5,0.2&#10;&#9;&#9;&#9;&#9;&#9;&#9;c0.1,0.1,0.3,0.1,0.4,0.2c0.2,0.1,0.3,0.1,0.5,0.2c0.1,0.1,0.3,0.1,0.4,0.2c0.1,0.1,0.3,0.1,0.5,0.2c0.1,0,0.2,0.1,0.2,0.1&#10;&#9;&#9;&#9;&#9;&#9;&#9;c-0.2,0-0.3-0.1-0.5-0.1c-0.6-0.1-1.2-0.2-1.8-0.3c-0.5-0.1-1-0.1-1.5-0.3c-0.5-0.1-0.9-0.3-1.3-0.5c-0.6-0.3-1-0.8-1.3-1.4&#10;&#9;&#9;&#9;&#9;&#9;&#9;C27.2,126.7,27.1,126.5,27,126.4L27,126.4z" id="el_xGWlzYr8Z96"/>
						<linearGradient id="SVGID_7_" gradientUnits="userSpaceOnUse" x1="-88.8629" y1="-44.151" x2="-88.8629" y2="-59.4623" gradientTransform="matrix(0.9691 -0.2467 -0.2467 -0.9691 101.4315 61.7314)">
						<stop offset="3.081102e-07" style="stop-color:#ED5B26"/>
						<stop offset="1" style="stop-color:#CA4627"/>
					</linearGradient>
					<path d="M35.4,131.5c-0.1-0.5-0.4-0.9-0.6-1.4l0,0h-0.1c-0.3,0.1-0.5,0.1-0.8,0.2c-0.1,0-0.3,0.1-0.4,0.1&#10;&#9;&#9;&#9;&#9;&#9;&#9;c-0.2,0-0.5,0.1-0.7,0.1c-0.3,0-0.7,0.1-1,0.1l0,0c-0.1,0-0.2,0-0.3,0c-0.4,0-0.8-0.1-1.2-0.2c-0.4-0.1-0.8-0.3-1.2-0.6&#10;&#9;&#9;&#9;&#9;&#9;&#9;c-0.3-0.2-0.6-0.5-0.9-0.9c0,0,0-0.1-0.1-0.1c-0.1-0.2-0.2-0.3-0.3-0.5c-0.2-0.4-0.4-0.8-0.5-1.2c-0.1-0.2-0.2-0.5-0.2-0.7&#10;&#9;&#9;&#9;&#9;&#9;&#9;c0,0,0,0,0-0.1l0,0H27c-0.2,0-0.4,0.1-0.6,0.1c-0.1,0-0.3,0.1-0.4,0.1s-0.3,0.1-0.4,0.2c-0.2,0.1-0.3,0.1-0.5,0.2&#10;&#9;&#9;&#9;&#9;&#9;&#9;s-0.4,0.2-0.6,0.3c-0.3,0.2-0.5,0.3-0.8,0.5s-0.6,0.5-0.9,0.8c-0.2,0.2-0.4,0.4-0.6,0.6c-0.1,0.2-0.3,0.4-0.4,0.6&#10;&#9;&#9;&#9;&#9;&#9;&#9;c-0.1,0.1-0.1,0.2-0.2,0.3c-0.1,0.3-0.3,0.5-0.4,0.8c-0.2,0.3-0.3,0.7-0.4,1.1c-0.1,0.3-0.1,0.6-0.2,0.9c0,0.2-0.1,0.4-0.1,0.7&#10;&#9;&#9;&#9;&#9;&#9;&#9;c0,0.4,0,0.8,0,1.2c0,0.2,0.1,0.4,0.1,0.6c0.1,0.3,0.1,0.7,0.2,1s0.2,0.6,0.3,0.8c0.2,0.3,0.3,0.7,0.5,1s0.4,0.6,0.7,0.9&#10;&#9;&#9;&#9;&#9;&#9;&#9;c0.3,0.4,0.7,0.7,1,1c0.2,0.2,0.4,0.3,0.6,0.4c0.1,0.1,0.2,0.1,0.3,0.2c0.5,0.3,1,0.5,1.6,0.7c0.2,0.1,0.4,0.1,0.7,0.2&#10;&#9;&#9;&#9;&#9;&#9;&#9;c0.5,0.1,0.9,0.2,1.4,0.2c0.3,0,0.6,0,1,0c0.2,0,0.3,0,0.5-0.1c0.3,0,0.6-0.1,0.9-0.2c0.2,0,0.3-0.1,0.5-0.2&#10;&#9;&#9;&#9;&#9;&#9;&#9;c0.1,0,0.2-0.1,0.4-0.1c0.2-0.1,0.5-0.2,0.7-0.3c0.4-0.2,0.7-0.5,1.1-0.7c0.4-0.3,0.7-0.6,1-1c0.2-0.2,0.3-0.4,0.4-0.6&#10;&#9;&#9;&#9;&#9;&#9;&#9;c0.1-0.2,0.3-0.4,0.4-0.5c0.1-0.2,0.2-0.4,0.3-0.6c0.1-0.3,0.2-0.6,0.3-0.9c0.1-0.4,0.2-0.8,0.3-1.2c0-0.2,0.1-0.4,0.1-0.7&#10;&#9;&#9;&#9;&#9;&#9;&#9;c0-0.4,0-0.8,0-1.2c0-0.2-0.1-0.4-0.1-0.6C35.6,132.2,35.5,131.8,35.4,131.5z M25.7,141L25.7,141L25.7,141L25.7,141L25.7,141z" id="el_Mkcteyx_9GC"/>
					<path d="M29.7,138.4C29.7,138.3,29.8,138.3,29.7,138.4C29.8,138.4,29.8,138.4,29.7,138.4z" id="el_qN46zrXYlyF"/>
					<g id="el_xfFHILcM0Ov">
						<path d="M27.1,129.6c0.3,0.1,0.6,0.2,0.9,0.3c1,0.3,2,0.6,2.9,0.9H31c0,0.1-0.1,0.1-0.1,0.1&#10;&#9;&#9;&#9;&#9;&#9;&#9;&#9;c-0.2,0.2-0.3,0.4-0.5,0.6c-0.6,0.7-1.2,1.5-1.8,2.2l-0.1,0.1c-0.1,0.1-0.1,0.2-0.2,0.2c-0.1,0.1-0.1,0.1-0.1,0.2&#10;&#9;&#9;&#9;&#9;&#9;&#9;&#9;c-0.1,0-0.1,0-0.2-0.1c-0.3-0.1-0.6-0.2-0.9-0.3c-0.2-0.1-0.4-0.1-0.6-0.2c-0.7-0.2-1.3-0.5-2-0.8c0,0,0,0-0.1,0&#10;&#9;&#9;&#9;&#9;&#9;&#9;&#9;c-0.2-0.1-0.3-0.1-0.5-0.2c0,0,0-0.1,0.1-0.1c0.5-0.5,1-1.1,1.5-1.7c0.4-0.4,0.7-0.8,1.1-1.2c0.1,0,0.1-0.1,0.2-0.1&#10;&#9;&#9;&#9;&#9;&#9;&#9;&#9;S27,129.6,27.1,129.6L27.1,129.6z" id="el_gEN9604_2Ik"/>
						<path d="M28.6,137.3c0.1,0.3,0.2,0.6,0.2,0.9c0,0.2,0.1,0.4,0.1,0.6v0.1h-0.1c-0.1,0-0.2-0.1-0.4-0.1&#10;&#9;&#9;&#9;&#9;&#9;&#9;&#9;c-0.3-0.1-0.6-0.2-0.9-0.3c-0.3-0.1-0.5-0.2-0.8-0.3h-0.1c0,0,0,0-0.1,0c-0.5-0.2-1-0.4-1.5-0.6c-0.1,0-0.1-0.1-0.1-0.1&#10;&#9;&#9;&#9;&#9;&#9;&#9;&#9;c-0.2-0.7-0.4-1.4-0.5-2.1v-0.1c0-0.1-0.1-0.2-0.1-0.4c-0.1-0.4-0.2-0.7-0.3-1.1v-0.1h0.1c0.7,0.2,1.3,0.5,2,0.7h0.1&#10;&#9;&#9;&#9;&#9;&#9;&#9;&#9;c0,0,0,0,0.1,0c0.3,0.1,0.7,0.3,1.1,0.4c0.2,0.1,0.3,0.2,0.5,0.2c0.1,0,0.1,0.1,0.1,0.1c0.2,0.7,0.4,1.4,0.5,2.1&#10;&#9;&#9;&#9;&#9;&#9;&#9;&#9;C28.6,137.2,28.6,137.2,28.6,137.3z" id="el_SUJE0dm63ZC"/>
						<path d="M31.4,136.8c-0.2,0.2-0.4,0.5-0.6,0.7c-0.1,0.1-0.3,0.3-0.4,0.4c-0.2,0.2-0.3,0.3-0.5,0.5&#10;&#9;&#9;&#9;&#9;&#9;&#9;&#9;c0,0-0.1,0-0.1,0.1l0,0c0-0.1,0-0.1-0.1-0.2c-0.1-0.4-0.2-0.8-0.3-1.2V137v-0.1c-0.2-0.7-0.3-1.4-0.5-2.1c0-0.1,0-0.1,0-0.2&#10;&#9;&#9;&#9;&#9;&#9;&#9;&#9;c0.1-0.1,0.2-0.3,0.3-0.4c0.2-0.2,0.4-0.4,0.5-0.7c0.1-0.1,0.1-0.2,0.2-0.2c0.5-0.6,1-1.2,1.4-1.8l0.1-0.1&#10;&#9;&#9;&#9;&#9;&#9;&#9;&#9;c0.2,0.7,0.3,1.3,0.5,1.9c0,0.1,0,0.1,0,0.2c0.2,0.6,0.3,1.2,0.5,1.8c0,0.1,0,0.1,0,0.2c-0.2,0.2-0.3,0.4-0.5,0.6&#10;&#9;&#9;&#9;&#9;&#9;&#9;&#9;C31.8,136.4,31.6,136.6,31.4,136.8z" id="el_atX9OF_bJwi"/>
					</g>
				</g> -->

				<g id="el_mjMOe5fB71S">
					<g id="el_u5k-zuBj2OH">
						<path d="M10.2,178.3c0.1-0.2,0.9-6,0.9-6l3.1,0.2l-0.9,6L10.2,178.3z" id="el_Ql093Hp5mp_"/>
						<path d="M18.9,180h-8.7v-2.7h6C17.7,177.3,18.9,178.5,18.9,180L18.9,180z" id="el_pDwmx6PzT2Z"/>
					</g>
					<path d="M17.4,142.6l1.5,12.1l0.1,0.6c0.1,0.3,0,0.6,0,0.9l-3.9,18.7l-4.6-0.3l2.6-19l0.1,1.5l-2.9-11.8&#10;&#9;&#9;&#9;&#9;&#9;&#9;L17.4,142.6z" id="el_hndgzdRbIi_"/>
				</g>
				<g id="el_MlOpm2wq9Og">
					
						<ellipse cx="28.4" cy="136.1" rx="2" ry="2" id="el_-ZRxm0VNrBQ"/>
					<polygon points="27.2,135 23.1,137.2 24.3,139.1 29.1,136.9 &#9;&#9;&#9;&#9;&#9;" id="el_89a25mLVaeu"/>
				</g>
				<g id="el_5h-qwpzlaHR">
					<g id="el_-WRrpkWDgfS">
						<path d="M15.6,119.9l-1-0.3l-0.5,1.3l0.9,0.2l0.6-0.4C16,120.4,15.9,120,15.6,119.9z" id="el_yQqCc2j49Zj"/>
						<g id="el_uq5Gg-EO08o">
							<g id="el_aRGy5shQk_i">
								
									<ellipse id="el_tunKpaQZ_yF" cx="11.1" cy="121.2" rx="4.1" ry="4.1"/>
							</g>
							<g id="el_ERjwNDmbeVk">
								<defs>
									
										<ellipse id="SVGID_9_" transform="matrix(0.1635 -0.9865 0.9865 0.1635 -110.3497 112.3048)" cx="11.1" cy="121.2" rx="4.1" ry="4.1"/>
								</defs>
								<clipPath id="SVGID_10_">
									<use xlink:href="#SVGID_9_" style="overflow:visible;"/>
								</clipPath>
								<polygon points="12.1,115.9 8,126.1 5.6,119.2 &#9;&#9;&#9;&#9;&#9;&#9;&#9;&#9;" id="el_uBAU3dwcJ4t"/>
							</g>
						</g>
						
							<ellipse cx="9.3" cy="121.3" rx="1.2" ry="1.2" id="el_zmJN5HtpLC9"/>
						
							<ellipse cx="4.3" cy="122.8" rx="3.6" ry="3.6" id="el_txL4tD0uaOd"/>
					</g>
					<path d="M12.9,124.7c0,0.2,0.4,5.7,0.4,5.7l-3.8-2.1l0.1-3.5L12.9,124.7z" id="el_vCxjWGoBIRA"/>
				</g>
				
					<linearGradient id="SVGID_11_" gradientUnits="userSpaceOnUse" x1="5.6677" y1="60.9375" x2="27.2063" y2="60.9375" gradientTransform="matrix(1 0 0 -1 0 199.2333)">
					<stop offset="3.081102e-07" style="stop-color:#ED5B26"/>
					<stop offset="1" style="stop-color:#CA4627"/>
				</linearGradient>
				<path d="M15.4,145.8c-0.8,0-1.5-0.3-2-1l-7.3-10.4c-0.7-1-0.5-2.5,0.6-3.2l0,0c1-0.7,2.5-0.5,3.2,0.6l6.1,8.7&#10;&#9;&#9;&#9;&#9;&#9;l8.9-5.1l2.3,4l-10.8,6.2C16.1,145.7,15.7,145.8,15.4,145.8z" id="el_AnymmlxC1UF"/>
			</g>
		</g>
	</g>
</g>
<script>(function(){var a=document.querySelector('#el_MEBcgO3hc'),b=a.querySelectorAll('style'),c=function(d){b.forEach(function(f){var g=f.textContent;g&amp;&amp;(f.textContent=g.replace(/transform-box:[^;\r\n]*/gi,'transform-box: '+d))})};c('initial'),window.requestAnimationFrame(function(){return c('fill-box')})})();</script></svg>