<?xml version="1.0" encoding="utf-8"?>
<!-- Generator: Adobe Illustrator 25.1.0, SVG Export Plug-In . SVG Version: 6.00 Build 0)  -->
<svg version="1.1" id="Layer_1" xmlns="http://www.w3.org/2000/svg" xmlns:xlink="http://www.w3.org/1999/xlink" x="0px" y="0px"
	 viewBox="0 0 1159 771" style="enable-background:new 0 0 1159 771;" xml:space="preserve">
<style type="text/css">
	.st0{fill:#FFFFFF;}
	.st1{opacity:0.77;}
	.st2{fill:#80BDF6;}
	.st3{fill:#0C61D6;}
	.st4{fill:#FCDB37;}
	.st5{fill:#FCAB97;}
	.st6{fill:#FCDD8B;}
	.st7{fill:#FE5F37;}
	.st8{fill:#DA3925;}
	.st9{fill:#3D81FD;}
	.st10{fill:#E8BB12;}
	.st11{fill:#ABBD45;}
	.st12{fill:#6E7F3B;}
	.st13{fill:#1A2E4F;}
</style>
<g id="Rectangle">
	<g>
		<g>
			<rect class="st0" width="1159" height="771"/>
		</g>
	</g>
</g>
<g id="fon_1_" class="st1">
	<path class="st2" d="M284.77,528.89c53.15,21.64,83.32-0.05,223.65,12.77c85.16,7.78,107.4-94.31,178.18-92.76
		c75.15,1.65,140.69,61.84,190.32,0c40.93-50.99,84.37-154.14,45.72-207.7c-36.3-50.32-97.85-66.95-123.12-64.97
		c-60.68,4.75-71.9,24.78-124.27,16.37c-31.27-5.02-51.39-26.32-69.95-39.21c-47.52-32.99-136.12-28.9-179.88,16.01
		c-45.79,47.01-23.97,89.17-69.73,114.36c-32.76,18.04-65.05,25.89-95.58,49.34C205.27,375.23,191.36,490.85,284.77,528.89z"/>
</g>
<g>
	<path class="st3" d="M415.88,519.58l-0.56-1.25l4.74-2.12l0.56,1.25L415.88,519.58z"/>
	<path class="st3" d="M405.48,523.5l-0.45-1.29l4.89-1.73l0.45,1.29L405.48,523.5z"/>
	<path class="st3" d="M394.82,526.59l-0.35-1.32l5.01-1.34l0.35,1.32L394.82,526.59z"/>
	<path class="st3" d="M383.9,528.84l-0.25-1.34l5.1-0.93l0.25,1.34L383.9,528.84z"/>
	<path class="st3" d="M372.87,530.16l-0.13-1.36l5.16-0.5l0.13,1.36L372.87,530.16z"/>
	<path class="st3" d="M361.71,530.48l0-1.37l5.19-0.02l0.01,1.37L361.71,530.48z"/>
	<path class="st3" d="M350.56,529.74l0.13-1.36l5.16,0.48l-0.13,1.36L350.56,529.74z"/>
	<path class="st3" d="M339.55,527.87l0.27-1.34l5.09,1.01l-0.26,1.34L339.55,527.87z"/>
	<path class="st3" d="M328.79,524.86l0.41-1.3l4.95,1.54l-0.41,1.3L328.79,524.86z"/>
	<path class="st3" d="M318.38,520.71l0.54-1.25l4.76,2.06l-0.54,1.25L318.38,520.71z"/>
	<path class="st3" d="M308.48,515.51l0.67-1.19l4.52,2.54l-0.67,1.19L308.48,515.51z"/>
	<path class="st3" d="M504.39,495.42l-0.56-1.25l4.74-2.12l0.56,1.25L504.39,495.42z"/>
	<path class="st3" d="M493.99,499.33l-0.45-1.29l4.89-1.73l0.45,1.29L493.99,499.33z"/>
	<path class="st3" d="M483.33,502.43l-0.35-1.32l5.01-1.34l0.35,1.32L483.33,502.43z"/>
	<path class="st3" d="M472.41,504.68l-0.25-1.34l5.1-0.93l0.25,1.34L472.41,504.68z"/>
	<path class="st3" d="M461.38,506l-0.13-1.36l5.16-0.5l0.13,1.36L461.38,506z"/>
	<path class="st3" d="M450.21,506.32l0-1.37l5.19-0.02l0.01,1.37L450.21,506.32z"/>
	<path class="st3" d="M299.17,509.33l0.78-1.12l4.25,2.98l-0.78,1.12L299.17,509.33z"/>
	<path class="st3" d="M290.5,502.29l0.89-1.04l3.95,3.37l-0.89,1.04L290.5,502.29z"/>
	<path class="st3" d="M282.54,494.53l0.98-0.95l3.63,3.71l-0.98,0.95L282.54,494.53z"/>
	<path class="st3" d="M275.26,486.07l1.05-0.87l3.29,4.01l-1.05,0.87L275.26,486.07z"/>
	<path class="st3" d="M268.73,477.07l1.12-0.78l2.95,4.27l-1.12,0.78L268.73,477.07z"/>
	<path class="st3" d="M262.96,467.56l1.18-0.68l2.6,4.49l-1.18,0.68L262.96,467.56z"/>
	<path class="st3" d="M257.98,457.63l1.23-0.58l2.23,4.68l-1.23,0.59L257.98,457.63z"/>
	<path class="st3" d="M253.82,447.3l1.28-0.48l1.83,4.85l-1.28,0.48L253.82,447.3z"/>
	<path class="st3" d="M250.56,436.65l1.31-0.37l1.4,4.99l-1.31,0.37L250.56,436.65z"/>
	<path class="st3" d="M248.3,425.73l1.34-0.24l0.92,5.11l-1.34,0.24L248.3,425.73z"/>
	<path class="st3" d="M247.19,414.57l1.36-0.09l0.36,5.17l-1.36,0.09L247.19,414.57z"/>
	<path class="st3" d="M247.45,403.33l1.36,0.08l-0.31,5.18l-1.36-0.08L247.45,403.33z"/>
	<path class="st3" d="M249.41,392.17l1.33,0.3l-1.13,5.06l-1.33-0.3L249.41,392.17z"/>
	<path class="st3" d="M253.46,381.47l1.25,0.56l-2.12,4.73l-1.25-0.56L253.46,381.47z"/>
	<path class="st3" d="M260.05,371.9l1.06,0.86l-3.27,4.03l-1.06-0.86L260.05,371.9z"/>
	<path class="st3" d="M268.92,364.45l0.81,1.09l-4.16,3.1l-0.82-1.09L268.92,364.45z"/>
	<path class="st3" d="M278.26,358.48l0.73,1.15l-4.39,2.77l-0.73-1.15L278.26,358.48z"/>
	<path class="st3" d="M287.37,352.38l0.78,1.12l-4.25,2.96l-0.78-1.12L287.37,352.38z"/>
	<path class="st3" d="M296.09,345.51l0.87,1.05l-4,3.3l-0.87-1.05L296.09,345.51z"/>
	<path class="st3" d="M304.27,337.97l0.94,0.99l-3.75,3.59l-0.94-0.99L304.27,337.97z"/>
	<path class="st3" d="M311.88,329.95l1,0.93l-3.52,3.82l-1-0.93L311.88,329.95z"/>
	<path class="st3" d="M319.04,321.69l1.04,0.89l-3.37,3.94l-1.04-0.89L319.04,321.69z"/>
	<path class="st3" d="M325.9,313.08l1.08,0.83l-3.17,4.1l-1.08-0.83L325.9,313.08z"/>
	<path class="st3" d="M332.27,303.99l1.13,0.76l-2.9,4.3l-1.13-0.76L332.27,303.99z"/>
	<path class="st3" d="M337.99,294.5l1.18,0.68l-2.6,4.49l-1.18-0.68L337.99,294.5z"/>
	<path class="st3" d="M343.02,284.64l1.23,0.6l-2.27,4.66l-1.23-0.6L343.02,284.64z"/>
	<path class="st3" d="M347.31,274.37l1.27,0.5l-1.89,4.83l-1.27-0.5L347.31,274.37z"/>
	<path class="st3" d="M350.57,263.68l1.32,0.36l-1.36,5.01l-1.32-0.36L350.57,263.68z"/>
	<path class="st3" d="M352.64,252.66l1.35,0.22l-0.82,5.12l-1.35-0.22L352.64,252.66z"/>
	<path class="st3" d="M354.07,241.79l1.35,0.19l-0.71,5.14l-1.35-0.19L354.07,241.79z"/>
	<path class="st3" d="M356.48,230.82l1.32,0.35l-1.32,5.01l-1.32-0.35L356.48,230.82z"/>
	<path class="st3" d="M360.79,220.27l1.24,0.58l-2.19,4.7l-1.24-0.58L360.79,220.27z"/>
	<path class="st3" d="M366.66,210.61l1.14,0.75l-2.86,4.33l-1.14-0.75L366.66,210.61z"/>
	<path class="st3" d="M373.76,201.88l1.03,0.9l-3.41,3.91l-1.03-0.9L373.76,201.88z"/>
	<path class="st3" d="M381.9,194.14l0.91,1.02l-3.87,3.45l-0.91-1.02L381.9,194.14z"/>
	<path class="st3" d="M390.87,187.4l0.79,1.11l-4.23,2.99l-0.79-1.11L390.87,187.4z"/>
	<path class="st3" d="M400.44,181.64l0.67,1.19l-4.51,2.56l-0.67-1.19L400.44,181.64z"/>
	<path class="st3" d="M410.47,176.8l0.56,1.24l-4.72,2.15l-0.57-1.24L410.47,176.8z"/>
	<path class="st3" d="M420.85,172.79l0.46,1.28l-4.88,1.77l-0.46-1.28L420.85,172.79z"/>
	<path class="st3" d="M431.5,169.6l0.37,1.31l-5,1.39l-0.37-1.31L431.5,169.6z"/>
	<path class="st3" d="M442.34,167.21l0.27,1.34l-5.09,1.02l-0.27-1.34L442.34,167.21z"/>
	<path class="st3" d="M453.3,165.55l0.18,1.35l-5.14,0.67l-0.18-1.35L453.3,165.55z"/>
	<path class="st3" d="M464.36,164.71l0.08,1.36l-5.18,0.29l-0.08-1.36L464.36,164.71z"/>
	<path class="st3" d="M475.47,164.71l-0.03,1.36l-5.19-0.11l0.03-1.36L475.47,164.71z"/>
	<path class="st3" d="M486.55,165.65l-0.15,1.36l-5.16-0.56l0.15-1.36L486.55,165.65z"/>
	<path class="st3" d="M497.55,167.65l-0.28,1.34l-5.08-1.07l0.28-1.34L497.55,167.65z"/>
	<path class="st3" d="M508.29,170.83l-0.43,1.3l-4.93-1.63l0.43-1.3L508.29,170.83z"/>
	<path class="st3" d="M518.6,175.33l-0.59,1.23l-4.68-2.24l0.59-1.23L518.6,175.33z"/>
	<path class="st3" d="M528.24,181.18l-0.75,1.14l-4.33-2.86l0.75-1.14L528.24,181.18z"/>
	<path class="st3" d="M536.95,188.38l-0.91,1.02l-3.86-3.46l0.91-1.02L536.95,188.38z"/>
	<path class="st3" d="M544.45,196.92l-1.07,0.85l-3.24-4.06l1.07-0.85L544.45,196.92z"/>
	<path class="st3" d="M550.37,206.61l-1.19,0.66l-2.51-4.54l1.19-0.66L550.37,206.61z"/>
	<path class="st3" d="M554.85,216.9l-1.27,0.51l-1.95-4.81l1.27-0.51L554.85,216.9z"/>
	<path class="st3" d="M558.66,227.2l-1.28,0.47l-1.8-4.87l1.28-0.47L558.66,227.2z"/>
	<path class="st3" d="M562.93,237.38l-1.24,0.56l-2.13-4.73l1.24-0.56L562.93,237.38z"/>
	<path class="st3" d="M568.62,247.14l-1.15,0.74l-2.81-4.36l1.15-0.74L568.62,247.14z"/>
	<path class="st3" d="M575.9,255.88l-1.01,0.92l-3.49-3.83l1.01-0.92L575.9,255.88z"/>
	<path class="st3" d="M584.33,263.37l-0.87,1.05l-3.99-3.32l0.87-1.05L584.33,263.37z"/>
	<path class="st3" d="M593.49,269.8l-0.75,1.14l-4.33-2.85l0.75-1.14L593.49,269.8z"/>
	<path class="st3" d="M603.35,275.18l-0.62,1.22l-4.63-2.34l0.62-1.22L603.35,275.18z"/>
	<path class="st3" d="M613.8,279.33l-0.46,1.29l-4.89-1.75l0.46-1.29L613.8,279.33z"/>
	<path class="st3" d="M624.75,282.06l-0.28,1.34l-5.08-1.06l0.28-1.34L624.75,282.06z"/>
	<path class="st3" d="M636.01,283.17l-0.08,1.36l-5.18-0.3l0.08-1.36L636.01,283.17z"/>
	<path class="st3" d="M647.38,282.37l0.18,1.35l-5.14,0.67l-0.18-1.35L647.38,282.37z"/>
	<path class="st3" d="M658.45,278.95l0.49,1.27l-4.84,1.86l-0.49-1.28L658.45,278.95z"/>
	<path class="st3" d="M668.42,273.32l0.73,1.16l-4.39,2.76l-0.73-1.16L668.42,273.32z"/>
	<path class="st3" d="M677.32,266.55l0.85,1.07l-4.05,3.24l-0.85-1.07L677.32,266.55z"/>
	<path class="st3" d="M685.64,259.31l0.9,1.02l-3.88,3.44l-0.9-1.02L685.64,259.31z"/>
	<path class="st3" d="M693.68,252.07l0.91,1.02l-3.86,3.46l-0.91-1.02L693.68,252.07z"/>
	<path class="st3" d="M701.96,244.87l0.89,1.04l-3.95,3.37l-0.89-1.04L701.96,244.87z"/>
	<path class="st3" d="M710.58,238l0.84,1.08l-4.1,3.18l-0.84-1.08L710.58,238z"/>
	<path class="st3" d="M719.58,231.6l0.78,1.12l-4.27,2.95l-0.78-1.12L719.58,231.6z"/>
	<path class="st3" d="M728.81,225.61l0.73,1.15l-4.38,2.78l-0.73-1.15L728.81,225.61z"/>
	<path class="st3" d="M738.27,219.99l0.68,1.18l-4.49,2.6l-0.68-1.18L738.27,219.99z"/>
	<path class="st3" d="M747.99,214.75l0.63,1.21l-4.59,2.41l-0.64-1.21L747.99,214.75z"/>
	<path class="st3" d="M757.89,209.95l0.58,1.24l-4.69,2.21l-0.58-1.24L757.89,209.95z"/>
	<path class="st3" d="M768.03,205.61l0.52,1.26l-4.79,1.98l-0.52-1.26L768.03,205.61z"/>
	<path class="st3" d="M778.42,201.8l0.45,1.29l-4.89,1.72l-0.45-1.29L778.42,201.8z"/>
	<path class="st3" d="M788.99,198.58l0.38,1.31l-4.99,1.43l-0.38-1.31L788.99,198.58z"/>
	<path class="st3" d="M799.76,196.03l0.29,1.33l-5.07,1.11l-0.29-1.33L799.76,196.03z"/>
	<path class="st3" d="M810.72,194.24l0.19,1.35l-5.13,0.74l-0.19-1.35L810.72,194.24z"/>
	<path class="st3" d="M821.8,193.3l0.09,1.36l-5.18,0.32l-0.09-1.36L821.8,193.3z"/>
	<path class="st3" d="M832.94,193.32l-0.04,1.36l-5.19-0.13l0.04-1.36L832.94,193.32z"/>
	<path class="st3" d="M844.05,194.37l-0.17,1.36l-5.15-0.63l0.17-1.36L844.05,194.37z"/>
	<path class="st3" d="M855.01,196.54l-0.3,1.33l-5.06-1.14l0.3-1.33L855.01,196.54z"/>
	<path class="st3" d="M865.7,199.84l-0.44,1.29l-4.91-1.67l0.44-1.29L865.7,199.84z"/>
	<path class="st3" d="M876,204.18l-0.56,1.24l-4.73-2.13l0.56-1.24L876,204.18z"/>
	<path class="st3" d="M885.82,209.42l-0.67,1.19l-4.52-2.54l0.67-1.19L885.82,209.42z"/>
	<path class="st3" d="M895.17,215.46l-0.77,1.13l-4.29-2.91l0.77-1.13L895.17,215.46z"/>
	<path class="st3" d="M903.98,222.24l-0.86,1.06l-4.04-3.25l0.86-1.06L903.98,222.24z"/>
	<path class="st3" d="M912.2,229.73l-0.94,0.99l-3.76-3.58l0.94-0.99L912.2,229.73z"/>
	<path class="st3" d="M919.79,237.9l-1.02,0.91l-3.44-3.88l1.02-0.91L919.79,237.9z"/>
	<path class="st3" d="M926.62,246.7l-1.1,0.81l-3.08-4.17l1.1-0.81L926.62,246.7z"/>
	<path class="st3" d="M932.6,256.13l-1.17,0.7l-2.66-4.45l1.17-0.7L932.6,256.13z"/>
	<path class="st3" d="M937.59,266.13l-1.24,0.57l-2.18-4.7l1.24-0.57L937.59,266.13z"/>
	<path class="st3" d="M941.45,276.66l-1.3,0.43l-1.63-4.92l1.3-0.43L941.45,276.66z"/>
	<path class="st3" d="M944.03,287.58l-1.34,0.27l-1.02-5.09l1.34-0.27L944.03,287.58z"/>
	<path class="st3" d="M945.2,298.79l-1.36,0.09l-0.35-5.18l1.36-0.09L945.2,298.79z"/>
	<path class="st3" d="M944.85,310.03l-1.36-0.09l0.35-5.18l1.36,0.09L944.85,310.03z"/>
	<path class="st3" d="M943.04,321.15l-1.34-0.27l1.01-5.09l1.34,0.27L943.04,321.15z"/>
	<path class="st3" d="M939.89,331.93l-1.3-0.42l1.61-4.93l1.3,0.42L939.89,331.93z"/>
	<path class="st3" d="M935.56,342.26l-1.24-0.56l2.14-4.73l1.24,0.56L935.56,342.26z"/>
	<path class="st3" d="M930.2,352.06l-1.18-0.69l2.61-4.48l1.18,0.69L930.2,352.06z"/>
	<path class="st3" d="M923.93,361.29l-1.11-0.79l3.02-4.22l1.11,0.79L923.93,361.29z"/>
	<path class="st3" d="M916.85,369.91l-1.03-0.89l3.39-3.93l1.03,0.89L916.85,369.91z"/>
	<path class="st3" d="M909.04,377.86l-0.95-0.98l3.73-3.61l0.95,0.98L909.04,377.86z"/>
	<path class="st3" d="M900.52,385.07l-0.85-1.06l4.04-3.25l0.85,1.06L900.52,385.07z"/>
	<path class="st3" d="M891.3,391.38l-0.74-1.15l4.37-2.8l0.74,1.15L891.3,391.38z"/>
	<path class="st3" d="M881.29,396.53l-0.58-1.24l4.7-2.2l0.58,1.24L881.29,396.53z"/>
	<path class="st3" d="M870.69,400.31l-0.42-1.3l4.93-1.6l0.42,1.3L870.69,400.31z"/>
	<path class="st3" d="M860.19,403.67l-0.44-1.29l4.91-1.69l0.44,1.29L860.19,403.67z"/>
	<path class="st3" d="M849.97,408.69l-0.67-1.19l4.53-2.53l0.67,1.19L849.97,408.69z"/>
	<path class="st3" d="M840.82,415.32l-0.84-1.07l4.08-3.2l0.84,1.07L840.82,415.32z"/>
	<path class="st3" d="M832.68,423.26l-1-0.93l3.54-3.8l1,0.93L832.68,423.26z"/>
	<path class="st3" d="M826.17,432.69l-1.17-0.71l2.7-4.43l1.17,0.71L826.17,432.69z"/>
	<path class="st3" d="M821.35,442.82l-1.24-0.56l2.14-4.73l1.24,0.56L821.35,442.82z"/>
	<path class="st3" d="M816.57,452.74l-1.21-0.63l2.38-4.61l1.21,0.63L816.57,452.74z"/>
	<path class="st3" d="M813.04,458.46l-1.15-0.73l2.78-4.38l1.15,0.73L813.04,458.46z"/>
	<path class="st3" d="M805.74,467.17l-1-0.93l3.52-3.81l1,0.93L805.74,467.17z"/>
	<path class="st3" d="M797.14,474.55l-0.85-1.07l4.07-3.22l0.85,1.07L797.14,474.55z"/>
	<path class="st3" d="M787.58,480.59l-0.69-1.18l4.48-2.61l0.69,1.18L787.58,480.59z"/>
	<path class="st3" d="M777.41,485.3l-0.53-1.26l4.77-2.03l0.53,1.26L777.41,485.3z"/>
	<path class="st3" d="M766.75,488.84l-0.39-1.31l4.97-1.49l0.39,1.31L766.75,488.84z"/>
	<path class="st3" d="M755.88,491.3l-0.27-1.34l5.09-1.02l0.27,1.34L755.88,491.3z"/>
	<path class="st3" d="M744.87,492.84l-0.16-1.36l5.15-0.61l0.16,1.36L744.87,492.84z"/>
	<path class="st3" d="M733.8,493.57l-0.07-1.36l5.18-0.25l0.07,1.36L733.8,493.57z"/>
	<path class="st3" d="M722.74,493.61l0.02-1.37l5.19,0.07l-0.02,1.36L722.74,493.61z"/>
	<path class="st3" d="M711.69,493.01l0.09-1.36l5.17,0.35l-0.09,1.36L711.69,493.01z"/>
	<path class="st3" d="M700.73,491.86l0.16-1.36l5.15,0.61l-0.16,1.36L700.73,491.86z"/>
	<path class="st3" d="M689.83,490.17l0.23-1.35l5.12,0.85l-0.23,1.35L689.83,490.17z"/>
	<path class="st3" d="M679.02,487.99l0.29-1.34l5.07,1.09l-0.29,1.33L679.02,487.99z"/>
	<path class="st3" d="M668.31,485.31l0.35-1.32l5.02,1.32l-0.35,1.32L668.31,485.31z"/>
	<path class="st3" d="M657.77,482.13l0.41-1.3l4.95,1.56l-0.41,1.3L657.77,482.13z"/>
	<path class="st3" d="M647.36,478.36l0.49-1.27l4.85,1.85l-0.49,1.28L647.36,478.36z"/>
	<path class="st3" d="M637.19,473.93l0.57-1.24l4.71,2.17l-0.57,1.24L637.19,473.93z"/>
	<path class="st3" d="M627.39,468.74l0.66-1.2l4.54,2.51l-0.66,1.2L627.39,468.74z"/>
	<path class="st3" d="M617.75,463.43l0.63-1.21l4.6,2.4l-0.63,1.21L617.75,463.43z"/>
	<path class="st3" d="M606.85,459.74l0.34-1.32l5.02,1.31l-0.34,1.32L606.85,459.74z"/>
	<path class="st3" d="M595.57,458.3l0.12-1.36l5.16,0.46l-0.12,1.36L595.57,458.3z"/>
	<path class="st3" d="M584.3,458.44l-0.07-1.36l5.18-0.26l0.07,1.36L584.3,458.44z"/>
	<path class="st3" d="M573.15,460.04l-0.24-1.34l5.11-0.91l0.24,1.34L573.15,460.04z"/>
	<path class="st3" d="M562.32,462.92l-0.39-1.31l4.97-1.48l0.39,1.31L562.32,462.92z"/>
	<path class="st3" d="M551.89,466.86l-0.51-1.27l4.81-1.95l0.51,1.27L551.89,466.86z"/>
	<path class="st3" d="M541.84,471.67l-0.62-1.22l4.63-2.34l0.62,1.22L541.84,471.67z"/>
	<path class="st3" d="M532.23,477.18l-0.7-1.17l4.45-2.66l0.7,1.17L532.23,477.18z"/>
	<path class="st3" d="M523,483.28l-0.77-1.13l4.28-2.92l0.77,1.13L523,483.28z"/>
	<path class="st3" d="M514.12,489.86l-0.83-1.09l4.13-3.14l0.83,1.09L514.12,489.86z"/>
</g>
<g id="stars">
	<g>
		<g>
			<g>
				<g>
					<g>
						<path class="st4" d="M446.98,501.82c-1.41,0.87-4.58,3.13-7.06,8.04c-2.68,5.32-2.99,10.66-3.03,12.76
							c-0.07-1.98-0.46-7.74-3.63-13.04c-2.49-4.15-5.45-5.95-6.86-6.66c1.5-0.6,4.8-2.26,7.26-6.66c1.51-2.7,2.26-5.64,2.55-8.45
							c0.56,2.77,1.56,5.63,3.3,8.17C442.17,499.88,445.35,501.28,446.98,501.82z"/>
					</g>
				</g>
			</g>
		</g>
		<g>
			<g>
				<g>
					<g>
						<path class="st4" d="M432.5,99.18c-0.83,0.51-2.68,1.83-4.13,4.71c-1.57,3.11-1.75,6.23-1.77,7.46
							c-0.04-1.16-0.27-4.53-2.12-7.63c-1.46-2.43-3.19-3.48-4.01-3.89c0.88-0.35,2.81-1.32,4.25-3.89c0.89-1.58,1.32-3.3,1.49-4.94
							c0.33,1.62,0.91,3.3,1.93,4.78C429.69,98.05,431.55,98.87,432.5,99.18z"/>
					</g>
				</g>
			</g>
		</g>
		<g>
			<g>
				<g>
					<g>
						<path class="st4" d="M290.09,534.11c-0.89,0.55-2.9,1.98-4.47,5.09c-1.7,3.37-1.89,6.75-1.92,8.08
							c-0.04-1.26-0.29-4.91-2.3-8.26c-1.58-2.63-3.45-3.77-4.35-4.22c0.95-0.38,3.04-1.43,4.6-4.22c0.96-1.71,1.43-3.58,1.62-5.35
							c0.35,1.76,0.99,3.57,2.09,5.18C287.04,532.88,289.06,533.77,290.09,534.11z"/>
					</g>
				</g>
			</g>
		</g>
		<g>
			<g>
				<g>
					<g>
						<path class="st4" d="M233.91,393.02c-0.8,0.49-2.59,1.77-4,4.55c-1.52,3.01-1.69,6.03-1.71,7.22
							c-0.04-1.12-0.26-4.38-2.06-7.38c-1.41-2.35-3.08-3.37-3.88-3.77c0.85-0.34,2.72-1.28,4.11-3.77
							c0.86-1.53,1.28-3.19,1.45-4.78c0.32,1.57,0.88,3.19,1.87,4.62C231.19,391.92,233,392.72,233.91,393.02z"/>
					</g>
				</g>
			</g>
		</g>
		<g>
			<g>
				<g>
					<g>
						<path class="st4" d="M272.78,217.65c-1.41,0.63-4.58,2.28-7.06,5.85c-2.68,3.87-2.99,7.75-3.03,9.28
							c-0.07-1.44-0.46-5.63-3.63-9.48c-2.49-3.02-5.45-4.33-6.86-4.84c1.5-0.44,4.8-1.64,7.26-4.84c1.51-1.97,2.26-4.11,2.55-6.15
							c0.56,2.02,1.56,4.1,3.3,5.94C267.97,216.25,271.16,217.27,272.78,217.65z"/>
					</g>
				</g>
			</g>
		</g>
		<g>
			<g>
				<g>
					<g>
						<path class="st4" d="M766.61,302.08c-0.87,0.73-2.79,2.59-3.97,6.17c-1.28,3.88-0.94,7.53-0.75,8.96
							c-0.25-1.34-1.1-5.21-3.79-8.47c-2.11-2.56-4.3-3.48-5.33-3.82c0.95-0.56,3.03-2.02,4.25-5.25c0.75-1.99,0.96-4.06,0.87-5.99
							c0.66,1.82,1.63,3.66,3.07,5.21C763.16,301.26,765.46,301.88,766.61,302.08z"/>
					</g>
				</g>
			</g>
		</g>
		<g>
			<g>
				<g>
					<g>
						<path class="st4" d="M956.31,354.96c-0.73,0.59-2.34,2.1-3.37,5.04c-1.11,3.18-0.89,6.2-0.75,7.38
							c-0.19-1.11-0.83-4.31-3-7.05c-1.7-2.15-3.5-2.93-4.34-3.23c0.8-0.45,2.53-1.62,3.58-4.27c0.65-1.63,0.85-3.33,0.81-4.93
							c0.52,1.51,1.29,3.05,2.46,4.34C953.47,354.23,955.36,354.78,956.31,354.96z"/>
					</g>
				</g>
			</g>
		</g>
		<g>
			<g>
				<g>
					<g>
						<path class="st4" d="M857.58,153.09c-0.94,0.6-3.04,2.13-4.44,4.96c-1.51,3.06-1.31,5.88-1.17,6.98
							c-0.2-1.03-0.93-3.99-3.62-6.41c-2.11-1.9-4.37-2.52-5.44-2.74c1.03-0.48,3.27-1.69,4.69-4.25c0.87-1.57,1.18-3.19,1.17-4.68
							c0.62,1.39,1.56,2.77,3,3.91C853.98,152.6,856.37,152.98,857.58,153.09z"/>
					</g>
				</g>
			</g>
		</g>
		<g>
			<g>
				<g>
					<g>
						<path class="st4" d="M860.93,489.33c-0.67,0.3-2.18,1.08-3.36,2.78c-1.28,1.84-1.42,3.69-1.44,4.42
							c-0.03-0.69-0.22-2.68-1.73-4.51c-1.18-1.44-2.59-2.06-3.26-2.3c0.71-0.21,2.29-0.78,3.46-2.3c0.72-0.94,1.07-1.95,1.22-2.92
							c0.26,0.96,0.74,1.95,1.57,2.83C858.64,488.67,860.16,489.15,860.93,489.33z"/>
					</g>
				</g>
			</g>
		</g>
		<g>
			<g>
				<g>
					<g>
						<path class="st4" d="M616.38,122.36c-0.97,0.62-3.12,2.18-4.56,5.09c-1.55,3.15-1.34,6.04-1.2,7.17
							c-0.21-1.06-0.96-4.1-3.72-6.58c-2.17-1.95-4.49-2.58-5.59-2.81c1.05-0.49,3.36-1.74,4.82-4.37c0.9-1.62,1.21-3.27,1.2-4.81
							c0.63,1.42,1.6,2.85,3.08,4.01C612.68,121.85,615.14,122.25,616.38,122.36z"/>
					</g>
				</g>
			</g>
		</g>
	</g>
</g>
<g id="man_2">
	<g>
		<g>
			<g>
				<g>
					<path class="st5" d="M789.65,592.64c-1.06-9.66-2.13-19.32-3.19-28.98l-23.57,4.3l11.38,35.12c0.4,0.32,4.47,3.43,8.95,2.03
						C787.67,603.72,790.73,598.43,789.65,592.64z"/>
				</g>
			</g>
		</g>
		<g>
			<g>
				<g>
					<g>
						<path d="M728.21,613.94c-0.93,1.32-1.46,2.9-1.45,4.6c0,0,1.72,0,4.61-0.02l67.88-0.31c1.73,0-0.63-7.53-3.41-15.03
							c-2.07-5.56-4.36-11.11-5.39-13.56c-1.42,0.25-3.31,0.82-3.98,2.18c-0.44,0.9-0.88,2.48-1.59,4.03
							c-1.11,2.44-2.91,4.75-6.42,4.06c-4.18-0.82-4.14-6.49-6.44-10.41c-0.56,0.02-1.11,0.07-1.66,0.1
							c-4.23,3.43-9.19,6.99-14.91,10.43c-4.76,2.84-9.38,5.21-13.79,7.17c-1.15,0.53-2.31,1.02-3.44,1.49
							c-0.64,0.27-1.29,0.52-1.91,0.77c-1.44,0.57-2.85,1.1-4.22,1.59C730.47,611.58,729.14,612.63,728.21,613.94z"/>
					</g>
				</g>
			</g>
			<g>
				<g>
					<g>
						<path d="M726.76,618.55c0,0,1.71-0.01,4.6-0.02l8.84-0.04c0.24-0.92,0.36-1.89,0.35-2.88c-0.01-2.55-0.87-4.93-2.35-6.94
							c-0.64,0.27-1.29,0.52-1.92,0.77c-1.44,0.57-2.84,1.1-4.22,1.58c-1.6,0.56-2.93,1.6-3.86,2.92
							C727.28,615.26,726.75,616.85,726.76,618.55z"/>
					</g>
				</g>
			</g>
			<g>
				<g>
					<g>
						<path class="st3" d="M728.96,620.84l69.26-0.33c1.21-0.01,2.19-0.99,2.18-2.2l-0.01-1.37c-0.01-1.21-0.99-2.19-2.2-2.18
							l-69.26,0.33c-1.21,0.01-2.19,0.99-2.18,2.2l0.01,1.37C726.76,619.87,727.75,620.85,728.96,620.84z"/>
					</g>
				</g>
			</g>
			<g>
				<g>
					<g>
						<path d="M766.95,603.4c-0.48,0-0.93-0.3-1.09-0.78l0,0c-0.01-0.03-1.14-3.25-4.36-6.44c-0.45-0.45-0.45-1.18-0.01-1.63
							c0.45-0.45,1.18-0.46,1.63-0.01c3.62,3.59,4.86,7.18,4.91,7.33c0.2,0.6-0.12,1.26-0.72,1.46
							C767.2,603.38,767.07,603.4,766.95,603.4z"/>
					</g>
				</g>
			</g>
			<g>
				<g>
					<g>
						<path d="M761.21,605.73c-0.48,0-0.93-0.3-1.09-0.78l0,0c-0.01-0.03-1.14-3.26-4.36-6.44c-0.45-0.45-0.45-1.18-0.01-1.63
							c0.45-0.45,1.18-0.46,1.63-0.01c3.62,3.58,4.86,7.18,4.91,7.33c0.2,0.6-0.12,1.26-0.72,1.46
							C761.46,605.71,761.33,605.73,761.21,605.73z"/>
					</g>
				</g>
			</g>
			<g>
				<g>
					<g>
						<path d="M755.47,608.06c-0.48,0-0.93-0.3-1.09-0.78l0,0c-0.01-0.03-1.14-3.26-4.36-6.44c-0.45-0.45-0.45-1.18-0.01-1.63
							c0.45-0.45,1.18-0.46,1.63-0.01c3.62,3.58,4.86,7.18,4.91,7.33c0.2,0.6-0.12,1.26-0.72,1.46
							C755.71,608.04,755.59,608.06,755.47,608.06z"/>
					</g>
				</g>
			</g>
			<g>
				<g>
					<g>
						<path d="M786.46,591.81c-0.44,0.9-0.88,2.48-1.59,4.03c1.19,2.85,4.17,5.84,10.97,7.35c-2.07-5.56-4.36-11.11-5.39-13.56
							C789.02,589.88,787.14,590.45,786.46,591.81z"/>
					</g>
				</g>
			</g>
		</g>
	</g>
	<g>
		<g>
			<g>
				<path class="st5" d="M856.06,568.69c2.24,10.01,4.48,20.02,6.72,30.03c6.79-1.27,13.59-2.54,20.38-3.81l-6.37-38.05
					L856.06,568.69z"/>
			</g>
		</g>
	</g>
	<g>
		<g>
			<g>
				<g>
					<path d="M889.59,609.57v6.52c-2.76,1.6-7.94,4.11-14.89,4.65c-8.9,0.69-15.68-2.23-18.62-3.72v-5.59
						c0.1-0.18,0.2-0.36,0.32-0.56c0.74-1.31,1.6-3.01,2.48-5.03c1.43-3.3,2.24-7.42,3.72-12.1c0.26-0.83,0.6-1.83,1.01-2.97
						c0.98-2.69,3.55-4.47,6.41-4.47h6.15c3.27,0,6.06,2.33,6.7,5.54c0.06,0.32,0.13,0.65,0.21,0.98c0.68,3.02,1.52,5.17,2.79,8.38
						C886.72,603.36,887.94,606.23,889.59,609.57z"/>
				</g>
			</g>
		</g>
		<g>
			<g>
				<g>
					<path class="st3" d="M889.59,610.37c0.24,0.34,0.95,1.4,0.93,2.92c-0.02,1.45-0.68,2.45-0.93,2.79
						c-2.76,1.6-7.94,4.12-14.89,4.65c-8.9,0.69-15.68-2.23-18.62-3.72c-0.19-0.25-1.35-1.79-0.93-3.72
						c0.19-0.89,0.64-1.51,0.93-1.86c0.05-0.09,0.1-0.18,0.15-0.27c0.05-0.09,0.11-0.19,0.16-0.29
						C861.64,612.7,873.31,615.28,889.59,610.37z"/>
				</g>
			</g>
		</g>
		<g>
			<g>
				<g>
					<path d="M866.32,603.05c-0.31,0-0.61-0.15-0.79-0.43c-0.27-0.44-0.14-1.01,0.29-1.28c1.56-0.99,4.78-2.56,8.77-2
						c1.85,0.26,3.62,0.93,5.26,2c0.43,0.28,0.55,0.86,0.27,1.29c-0.28,0.43-0.86,0.55-1.29,0.27c-1.41-0.92-2.93-1.5-4.51-1.72
						c-3.4-0.48-6.17,0.88-7.52,1.73C866.66,603.01,866.49,603.05,866.32,603.05z"/>
				</g>
			</g>
		</g>
	</g>
	<g>
		<g>
			<g>
				<path class="st3" d="M757.82,358.29l-20.33,111.79c-0.31,1.68-0.32,3.4-0.03,5.09l17.76,104.86h45.04l-14.72-110.87l19.92-55.44
					l-5.2-46.77L757.82,358.29z"/>
			</g>
		</g>
	</g>
	<g>
		<g>
			<g>
				<path class="st3" d="M792.55,366.53l20.61,97.52l38.98,116.93h39.84l-32.05-119.53c0,0-10.39-88.35-19.92-102.21
					C830.48,345.39,792.55,366.53,792.55,366.53z"/>
			</g>
		</g>
	</g>
	<g>
		<g>
			<g>
				<path class="st4" d="M710.93,286.31c-2.08,13.74,7.3,25.46,10.59,29.85c8.3,11.07,18.79,29.86,30.82,64.52
					c12.17,1.55,31,2.43,52.97-2.89c16.4-3.97,29.37-10.13,38.52-15.41c-9.69-22.54-20.41-39.88-28.89-52
					c-20.71-29.62-35.72-39.07-47.42-43.39c-1.38-0.51-2.37-0.82-2.66-0.91c-18.07-5.48-42.93-2.22-51.04,11.56
					C711.74,281.18,711.17,284.71,710.93,286.31z"/>
			</g>
		</g>
	</g>
	<g>
		<g>
			<g>
				<path class="st5" d="M725.81,240.34c0.96-0.64,18.35,26.37,18.35,26.37c0.7,6.97-3.69,12.86-9.15,13.82
					c-5.83,1.03-10.31-4.03-10.52-4.28l-12.78-24.94L725.81,240.34z"/>
			</g>
		</g>
	</g>
	<g>
		<g>
			<path class="st5" d="M725.81,240.34l-14.1,10.97l9.25,18.05c1.88,1.45,4.98,3.16,8.61,2.52c5.37-0.95,9.7-6.67,9.17-13.5
				C733.54,250.51,726.41,239.94,725.81,240.34z"/>
		</g>
	</g>
	<g>
		<g>
			<g>
				<path class="st5" d="M694.89,226.61c-0.27,4.25-0.25,9.9,0.84,16.42c0.26,1.56,0.56,2.98,0.88,4.34
					c1.13,4.74,2.47,8.49,3.43,10.85c0.24,0.59,0.48,1.17,0.7,1.71c0,0.01,0.01,0.01,0.01,0.02c4.67,9.95,8.32,10.95,9.43,11.17
					c0.75,0.15,1.49,0.17,2.25,0.08c2.92-0.74,6.12-2.63,9.55-4.65c2.78-1.64,4.77-2.82,6.46-4.54c0.48-0.48,0.94-1.01,1.38-1.61
					c4.11-5.51,3.43-12.25,2.76-18.82c-0.56-5.53-1.32-13.02-7.2-18.61c-0.69-0.66-2.25-2.12-4.35-3.14
					C710.37,214.66,695.97,225.75,694.89,226.61z"/>
			</g>
		</g>
	</g>
	<g>
		<g>
			<g>
				<path class="st5" d="M697.47,239.92c6.16,10.67,23.48,16.92,32.33,10.43c0.36-0.27,0.71-0.55,1.03-0.85c0,0,0-0.01,0.01-0.01
					c1.29-1.19,2.27-2.59,2.99-3.97c1.4-2.66,1.92-5.28,2.12-6.29c0.29-1.49,1.45-7.37-1.62-12.83c-0.79-1.4-1.78-2.63-2.93-3.7
					c-5.66-5.3-15.04-6.62-22.17-4.85c-1.59,0.39-11.64,2.89-13.88,10.73C693.87,233.7,696.55,238.33,697.47,239.92z"/>
			</g>
		</g>
	</g>
	<g>
		<g>
			<g>
				<path d="M710.54,241.66c0.18,1.29,0.92,2.26,1.63,2.15c0.72-0.1,1.15-1.23,0.96-2.52c-0.18-1.29-0.92-2.26-1.63-2.15
					C710.79,239.24,710.36,240.37,710.54,241.66z"/>
			</g>
		</g>
	</g>
	<g>
		<g>
			<g>
				<path d="M704.96,254.23c-1.02,0-1.69-0.27-2.09-0.8c-0.47-0.63-0.32-1.3-0.19-1.83c0.1-0.42,0.21-0.86,0.13-1.49
					c-0.07-0.52-0.22-0.82-0.42-1.19c-0.13-0.24-0.27-0.51-0.39-0.85c-0.57-1.61-0.25-3.51,0.96-5.67c0.26-0.47,0.86-0.63,1.32-0.37
					c0.47,0.26,0.63,0.86,0.37,1.32c-0.93,1.64-1.2,3.01-0.83,4.06c0.08,0.23,0.18,0.42,0.28,0.61c0.23,0.44,0.51,0.98,0.62,1.84
					c0.13,0.98-0.05,1.7-0.16,2.19c-0.02,0.07-0.04,0.15-0.05,0.23c0.27,0.04,1.18,0.1,3.61-0.57c0.52-0.14,1.05,0.16,1.2,0.68
					c0.14,0.52-0.16,1.05-0.68,1.2C707.1,254.02,705.89,254.23,704.96,254.23z M704.5,252.44L704.5,252.44L704.5,252.44z"/>
			</g>
		</g>
	</g>
	<g>
		<g>
			<g>
				<path d="M716.22,241.37c-0.14,0-0.28-0.04-0.41-0.12c-3.17-1.95-7.44-0.88-7.48-0.87c-0.42,0.11-0.85-0.14-0.96-0.57
					c-0.11-0.42,0.14-0.85,0.57-0.96c0.2-0.05,4.97-1.25,8.7,1.06c0.37,0.23,0.49,0.71,0.26,1.08
					C716.74,241.24,716.48,241.37,716.22,241.37z"/>
			</g>
		</g>
	</g>
	<g>
		<g>
			<g>
				<path d="M699.11,243.29c0.18,1.29,0.92,2.26,1.63,2.15c0.72-0.1,1.15-1.23,0.96-2.52c-0.18-1.29-0.92-2.26-1.63-2.15
					C699.36,240.87,698.92,242,699.11,243.29z"/>
			</g>
		</g>
	</g>
	<g>
		<g>
			<g>
				<path d="M704.79,243c-0.14,0-0.28-0.04-0.41-0.12c-3.17-1.95-7.44-0.88-7.48-0.87c-0.42,0.11-0.85-0.14-0.96-0.57
					c-0.11-0.42,0.14-0.85,0.57-0.96c0.2-0.05,4.97-1.25,8.7,1.06c0.37,0.23,0.49,0.71,0.26,1.08
					C705.31,242.87,705.05,243,704.79,243z"/>
			</g>
		</g>
	</g>
	<g>
		<g>
			<g>
				<g>
					<path d="M678.83,228.55c-0.08,0-0.17-0.01-0.26-0.03c-0.46-0.13-0.93-0.27-1.38-0.44c-1.02-0.37-2.01-0.85-2.94-1.42
						c-0.46-0.28-0.6-0.88-0.32-1.34c0.28-0.46,0.88-0.6,1.34-0.32c0.82,0.5,1.7,0.92,2.6,1.26c0.42,0.16,0.83,0.28,1.22,0.39
						c0.52,0.14,0.82,0.68,0.68,1.19C679.65,228.27,679.26,228.55,678.83,228.55z"/>
				</g>
			</g>
		</g>
		<g>
			<g>
				<g>
					<path d="M676.54,236.64c-0.09,0-0.18,0-0.27,0c-0.54-0.01-0.97-0.45-0.96-0.99c0.01-0.54,0.45-0.96,0.99-0.96
						c0.96,0.02,1.93-0.06,2.88-0.23c0.44-0.08,0.86-0.18,1.25-0.28c0.52-0.14,1.05,0.16,1.19,0.68c0.14,0.52-0.16,1.05-0.68,1.19
						c-0.46,0.13-0.94,0.23-1.42,0.32C678.55,236.55,677.54,236.64,676.54,236.64z"/>
				</g>
			</g>
		</g>
	</g>
	<g>
		<g>
			<g>
				<g>
					<g>
						<path class="st5" d="M695.66,391.26c-5.7,3.6-12.89,7.51-21.52,10.9c-7.65,3.01-14.72,4.94-20.76,6.2c0,0-2.62-0.98,0.43-3.83
							l15.62-7.12c0,0-17.7,7.34-20.32,6.36c-2.62-0.98-3.39-4.26-0.99-5.35c0,0-1.97-2.73,0.21-5.9l14.09-5.7
							c0,0-13.11,3.08-14.54,1.55c-1.42-1.53-1.42-1.53,4.59-4.27c6.01-2.74,18.8-4.94,29.18-6.05c10.38-1.11,16.83,0.31,16.83,0.31
							C697.55,382.66,696.61,386.96,695.66,391.26z"/>
					</g>
				</g>
			</g>
		</g>
		<g>
			<g>
				<path class="st4" d="M726.64,281.89c5.6,8.19,13.32,21.04,19.34,38.14c2.74,7.79,5.15,14.63,5.43,20.73
					c1.09,23.85-29.94,44.29-46.17,53.35c-4.9,2.74-11.08,1.27-14.23-3.37c-0.94-1.39-1.89-2.78-2.83-4.17
					c-2.89-4.25-2.4-9.93,1.17-13.62c9.1-9.4,18.19-18.8,27.29-28.2c-4.52-13.1-9.05-26.2-13.57-39.29
					c-3.17-9.76,0.55-19.67,7.86-23.57C717.95,278.14,725.56,281.41,726.64,281.89z"/>
			</g>
		</g>
		<g>
			<g>
				<path class="st4" d="M691.26,375.78c-3.35,1.08-6.69,2.16-10.04,3.24c-0.33,1.98-0.65,5.45,0.42,9.52
					c1.35,5.1,4.15,8.42,5.61,9.94c4.69-2.1,9.37-4.21,14.06-6.31C697.97,386.7,694.62,381.24,691.26,375.78z"/>
			</g>
		</g>
	</g>
	<g>
		<g>
			<g>
				<path d="M701.27,229.57c-0.48,0.81-3.28,5.41-8.25,5.97c-1.05,0.12-3.54,0.4-5.37-1.29c-1.93-1.79-2.08-4.89-1.15-6.78
					c0.96-1.96,3.16-2.51,3.16-2.51c-0.21-0.26-2.09-2.74-1.26-5.35c0.87-2.74,4.39-4.63,8.2-3.66c-0.8-3.4,0.61-6.92,3.46-8.71
					c2.52-1.59,5.79-1.59,8.41-0.02c0.4-2.62,2.78-4.49,5.35-4.26c2.45,0.22,4.42,2.29,4.51,4.82c1.74-1.76,4.29-2.39,6.52-1.61
					c2.64,0.93,4.37,3.68,4.08,6.66c2.52-0.74,5.21,0,6.82,1.87c1.97,2.28,2.01,5.88-0.06,8.46c0,0,7.62-2.09,5.18,6.18
					c0.28,0.38,3.01,4.24,1.47,8.99c-1.6,4.97-8.8,11.62-9.18,11.73c-1.62-0.56-1.51-6.73-3.86-8.51c-1.92-1.45-1.47-2.15-2.4-3.36
					c-3.25-3.81-8.31-8.46-11.56-12.27c-0.74,3.47-3.49,6.09-6.8,6.54C704.32,233.03,701.47,229.79,701.27,229.57z"/>
			</g>
		</g>
		<g>
			<g>
				<g>
					<path class="st5" d="M726.47,238.06c0,0,4.16-4.31,6.46-3.04c2.3,1.26,5.27,7.2-0.52,11.21
						C726.62,250.23,726.47,238.06,726.47,238.06z"/>
				</g>
			</g>
		</g>
		<g>
			<g>
				<g>
					<path d="M730.68,243.72c-0.28,0-0.56-0.15-0.7-0.42c-0.2-0.39-0.05-0.86,0.33-1.06c1.17-0.61,1.47-1.86,1.16-2.46
						c-0.16-0.32-0.56-0.59-1.04-0.7c-0.66-0.15-1.38,0.01-1.95,0.44c-0.35,0.26-0.84,0.19-1.1-0.15c-0.26-0.35-0.19-0.84,0.15-1.1
						c0.95-0.72,2.13-0.98,3.25-0.72c0.95,0.22,1.71,0.77,2.09,1.51c0.69,1.35,0.11,3.56-1.83,4.57
						C730.93,243.69,730.81,243.72,730.68,243.72z"/>
				</g>
			</g>
		</g>
	</g>
	<g>
		<g>
			<g>
				<g>
					<g>
						<path d="M709.88,263.61c-0.35,0-0.66-0.22-0.78-0.56l-0.78-2.27c-0.07-0.21-0.05-0.45,0.05-0.65c0.06-0.12,0.16-0.23,0.27-0.3
							l-0.93-1.03c-0.22-0.24-0.27-0.58-0.14-0.88c0.13-0.3,0.42-0.49,0.74-0.5c0.85-0.02,1.7-0.11,2.53-0.29
							c1.35-0.29,2.64-0.79,3.85-1.48c0.22-0.13,0.48-0.14,0.72-0.05c0.23,0.09,0.41,0.29,0.48,0.53c0.4,1.37,0.36,2.63-0.13,3.75
							c-0.82,1.88-2.75,3.12-5.73,3.71C709.99,263.61,709.94,263.61,709.88,263.61z M710.15,261.02l0.28,0.81
							c2.01-0.51,3.3-1.38,3.83-2.6c0.25-0.57,0.29-1.14,0.26-1.61c-0.86,0.41-1.76,0.74-2.68,0.98c0.11,0.07,0.2,0.16,0.27,0.28
							c0.2,0.34,0.14,0.77-0.15,1.04C711.38,260.43,710.68,260.79,710.15,261.02z"/>
					</g>
				</g>
			</g>
		</g>
	</g>
	<g>
		<g>
			<g>
				<path class="st5" d="M703.81,401c-0.49-2.41,10.99-11.61,18.8-17.55c0.15-0.12,0.31-0.21,0.47-0.32l-0.14-0.16l16.6-8.31
					l10.23,9.01l-11.23,17.31l0-0.01c-0.48,0.81-1.08,1.56-1.81,2.21c-3.29,2.92-6.27,6.11-14.36,10.74
					c-0.83,0.48-2.45,1.38-3.64,0.74c0,0-0.72-0.39-1.02-1.31c-0.43-1.29,1.38-3.34,3.68-5.32c-3.21,2.23-6.66,4.41-8.35,4.75
					c-3.64,0.74-4.38-2.9-4.38-2.9s-2.62,2.05-3.36-1.59c-0.74-3.64,18.61-16.68,18.61-16.68l-12.8,7.92
					C711.09,399.52,704.55,404.65,703.81,401z"/>
			</g>
		</g>
	</g>
	<g>
		<g>
			<g>
				<path class="st4" d="M774.25,269.96c6.39,7.86,16.51,17.89,24.07,34.77c3.44,7.69,6.47,14.44,7.27,20.63
					c3.12,24.17-26.71,47.57-42.46,58.15c-4.76,3.2-11.16,2.22-14.76-2.23c-1.08-1.33-2.15-2.67-3.23-4
					c-3.29-4.07-3.27-9.9,0.05-13.95c8.46-10.33,16.91-20.65,25.37-30.98c-5.7-12.94-11.41-25.88-17.11-38.81
					c-4.05-9.66-1.1-20.05,6.01-24.64C766.29,264.49,773.11,269.56,774.25,269.96z"/>
			</g>
		</g>
		<g>
			<g>
				<path class="st4" d="M747.38,366.03c-3.31,1.38-6.62,2.76-9.94,4.14c-0.17,2.05-0.2,5.59,1.23,9.65
					c1.8,5.07,4.93,8.21,6.54,9.63c4.59-2.54,9.18-5.07,13.77-7.61C755.12,376.57,751.25,371.3,747.38,366.03z"/>
			</g>
		</g>
	</g>
	<g>
		<g>
			<path d="M771.01,334.7c-0.12-0.14-0.2-0.32-0.22-0.51c-0.08-0.57,0.31-1.1,0.88-1.18c0.26-0.04,6.32-0.88,12.84,2.04
				c0.53,0.24,0.76,0.85,0.52,1.38c-0.24,0.52-0.85,0.76-1.38,0.52c-5.94-2.66-11.63-1.88-11.68-1.88
				C771.6,335.12,771.24,334.97,771.01,334.7z"/>
		</g>
	</g>
	<g>
		<g>
			<path d="M758,354.62c-0.33,0.07-0.68,0.07-1.02-0.04c-1-0.31-1.54-1.36-1.2-2.33c0.15-0.44,3.86-10.82,14.13-18.95
				c0.83-0.66,2.04-0.55,2.7,0.24c0.66,0.79,0.53,1.96-0.3,2.62c-9.36,7.42-12.87,17.14-12.9,17.23
				C759.19,354.03,758.64,354.48,758,354.62z"/>
		</g>
	</g>
	<g>
		<g>
			<path d="M771.67,332.94c-0.07,0.33-0.22,0.65-0.46,0.92c-0.7,0.79-1.87,0.85-2.62,0.15c-0.34-0.32-8.3-7.94-11.54-20.64
				c-0.26-1.02,0.33-2.08,1.32-2.37c0.99-0.28,2.01,0.31,2.27,1.34c2.95,11.57,10.4,18.74,10.47,18.81
				C771.62,331.62,771.8,332.3,771.67,332.94z"/>
		</g>
	</g>
	<g>
		<g>
			<path d="M752.74,385.62l-11.75-14.36c-0.36-0.45-0.3-1.1,0.15-1.47c0.45-0.36,1.1-0.3,1.47,0.15l11.75,14.36
				c0.36,0.44,0.3,1.1-0.15,1.47C753.76,386.13,753.11,386.07,752.74,385.62z"/>
		</g>
	</g>
</g>
<g id="shipp">
	<path d="M765.43,597.77H475.31c-4.67,0-8.49-3.82-8.49-8.49v-8.18c0-4.67,3.82-8.49,8.49-8.49h290.12c4.67,0,8.49,3.82,8.49,8.49
		v8.18C773.92,593.95,770.1,597.77,765.43,597.77z"/>
	<path d="M487.81,597.77h-21.07c-5.19,0-9.43-4.24-9.43-9.43V510.7c0-5.19,4.24-9.43,9.43-9.43h21.07c5.19,0,9.43,4.24,9.43,9.43
		v77.64C497.24,593.53,493,597.77,487.81,597.77z"/>
	<g>
		<g>
			<g>
				<g>
					<g>
						<g>
							<g>
								<g>
									<path class="st6" d="M590.82,572.84l-84.91,0.36c-4.34,0.02-7.87-3.48-7.89-7.82l-0.3-71.54
										c-0.02-4.34,3.48-7.87,7.82-7.89l84.91-0.36c4.34-0.02,7.87,3.48,7.89,7.82l0.3,71.54
										C598.66,569.29,595.15,572.82,590.82,572.84z"/>
								</g>
							</g>
						</g>
					</g>
				</g>
			</g>
			<g>
				<g>
					<g>
						<g>
							<g>
								<g>
									<path class="st7" d="M590.82,572.84l-84.91,0.36c-4.34,0.02-7.87-3.48-7.89-7.82l-0.3-71.54
										c-0.02-4.34,3.48-7.87,7.82-7.89l84.91-0.36c4.34-0.02,7.87,3.48,7.89,7.82l0.3,71.54
										C598.66,569.29,595.15,572.82,590.82,572.84z"/>
								</g>
							</g>
						</g>
					</g>
				</g>
			</g>
			<g>
				<g>
					<path class="st8" d="M598.34,495.87c-0.02-5.69-4.66-10.29-10.35-10.27L508,485.94c-5.69,0.02-10.29,4.66-10.27,10.36l0,0.07
						l100.61-0.43L598.34,495.87z"/>
				</g>
			</g>
			<g>
				<g>
					<g>
						<g>
							<g>
								<g>
									
										<rect x="509.48" y="509.66" transform="matrix(1 -4.243493e-03 4.243493e-03 1 -2.1831 2.2183)" class="st0" width="24.37" height="11.79"/>
								</g>
							</g>
						</g>
					</g>
				</g>
			</g>
		</g>
		<g>
			<g>
				<g>
					<g>
						<g>
							<g>
								<g>
									<path class="st6" d="M668.85,571.71l-64.7,0.27c-3.3,0.01-5.99-2.65-6.01-5.96l-0.23-54.51c-0.01-3.3,2.65-5.99,5.96-6.01
										l64.7-0.27c3.3-0.01,5.99,2.65,6.01,5.96l0.23,54.51C674.82,569,672.15,571.69,668.85,571.71z"/>
								</g>
							</g>
						</g>
					</g>
				</g>
			</g>
			<g>
				<g>
					<g>
						<g>
							<g>
								<g>
									<path class="st9" d="M668.85,571.71l-64.7,0.27c-3.3,0.01-5.99-2.65-6.01-5.96l-0.23-54.51c-0.01-3.3,2.65-5.99,5.96-6.01
										l64.7-0.27c3.3-0.01,5.99,2.65,6.01,5.96l0.23,54.51C674.82,569,672.15,571.69,668.85,571.71z"/>
								</g>
							</g>
						</g>
					</g>
				</g>
			</g>
			<g>
				<g>
					<path class="st3" d="M674.58,513.06c-0.02-4.34-3.55-7.84-7.89-7.82l-60.95,0.26c-4.34,0.02-7.84,3.55-7.82,7.89l0,0.05
						l76.66-0.33L674.58,513.06z"/>
				</g>
			</g>
			<g>
				<g>
					<g>
						<g>
							<g>
								<g>
									<g>
										
											<rect x="632.02" y="505.39" transform="matrix(1 -4.234219e-03 4.234219e-03 1 -2.2746 2.6993)" class="st10" width="8.67" height="66.29"/>
									</g>
								</g>
							</g>
						</g>
					</g>
				</g>
			</g>
			<g>
				<g>
					<g>
						<g>
							<g>
								<g>
									
										<rect x="606.87" y="523.57" transform="matrix(1 -4.244097e-03 4.244097e-03 1 -2.2356 2.6198)" class="st0" width="18.57" height="8.98"/>
								</g>
							</g>
						</g>
					</g>
				</g>
			</g>
			<g>
				<g>
					<g>
						<g>
							<g>
								<g>
									
										<rect x="646.69" y="523.49" transform="matrix(1 -4.244097e-03 4.244097e-03 1 -2.2349 2.7888)" class="st0" width="18.57" height="8.98"/>
								</g>
							</g>
						</g>
					</g>
				</g>
			</g>
		</g>
		<g>
			<g>
				<g>
					<g>
						<g>
							<g>
								<g>
									<path class="st6" d="M745.58,571.71l-64.7,0.27c-3.3,0.01-5.99-2.65-6.01-5.96l-0.23-54.51c-0.01-3.3,2.65-5.99,5.96-6.01
										l64.7-0.27c3.3-0.01,5.99,2.65,6.01,5.96l0.23,54.51C751.55,569,748.88,571.69,745.58,571.71z"/>
								</g>
							</g>
						</g>
					</g>
				</g>
			</g>
			<g>
				<g>
					<g>
						<g>
							<g>
								<g>
									<path class="st11" d="M745.58,571.71l-64.7,0.27c-3.3,0.01-5.99-2.65-6.01-5.96l-0.23-54.51c-0.01-3.3,2.65-5.99,5.96-6.01
										l64.7-0.27c3.3-0.01,5.99,2.65,6.01,5.96l0.23,54.51C751.55,569,748.88,571.69,745.58,571.71z"/>
								</g>
							</g>
						</g>
					</g>
				</g>
			</g>
			<g>
				<g>
					<path class="st12" d="M751.31,513.06c-0.02-4.34-3.55-7.84-7.89-7.82l-60.95,0.26c-4.34,0.02-7.84,3.55-7.82,7.89l0,0.05
						l76.66-0.33L751.31,513.06z"/>
				</g>
			</g>
			<g>
				<g>
					<g>
						<g>
							<g>
								<g>
									<g>
										
											<rect x="708.75" y="505.39" transform="matrix(1 -4.234219e-03 4.234219e-03 1 -2.2739 3.0242)" class="st10" width="8.67" height="66.29"/>
									</g>
								</g>
							</g>
						</g>
					</g>
				</g>
			</g>
			<g>
				<g>
					<g>
						<g>
							<g>
								<g>
									
										<rect x="683.6" y="523.57" transform="matrix(1 -4.244097e-03 4.244097e-03 1 -2.2349 2.9454)" class="st0" width="18.57" height="8.98"/>
								</g>
							</g>
						</g>
					</g>
				</g>
			</g>
			<g>
				<g>
					<g>
						<g>
							<g>
								<g>
									
										<rect x="683.77" y="532.63" transform="matrix(1 -4.244097e-03 4.244097e-03 1 -2.2734 2.9462)" class="st0" width="18.57" height="8.98"/>
								</g>
							</g>
						</g>
					</g>
				</g>
			</g>
			<g>
				<g>
					<g>
						<g>
							<g>
								<g>
									
										<rect x="724.15" y="519.04" transform="matrix(1 -4.244119e-03 4.244119e-03 1 -2.2153 3.1175)" class="st0" width="18.57" height="8.98"/>
								</g>
							</g>
						</g>
					</g>
				</g>
			</g>
		</g>
		<g>
			<g>
				<g>
					<g>
						<g>
							<g>
								<g>
									<path class="st6" d="M697.77,505.12l-64.7,0.27c-3.3,0.01-5.99-2.65-6.01-5.96l-0.23-54.51c-0.01-3.3,2.65-5.99,5.96-6.01
										l64.7-0.27c3.3-0.01,5.99,2.65,6.01,5.96l0.23,54.51C703.74,502.41,701.07,505.1,697.77,505.12z"/>
								</g>
							</g>
						</g>
					</g>
				</g>
			</g>
			<g>
				<g>
					<g>
						<g>
							<g>
								<g>
									<path class="st11" d="M697.77,505.12l-64.7,0.27c-3.3,0.01-5.99-2.65-6.01-5.96l-0.23-54.51c-0.01-3.3,2.65-5.99,5.96-6.01
										l64.7-0.27c3.3-0.01,5.99,2.65,6.01,5.96l0.23,54.51C703.74,502.41,701.07,505.1,697.77,505.12z"/>
								</g>
							</g>
						</g>
					</g>
				</g>
			</g>
			<g>
				<g>
					<path class="st12" d="M703.5,446.47c-0.02-4.34-3.55-7.84-7.89-7.82l-60.95,0.26c-4.34,0.02-7.84,3.55-7.82,7.89l0,0.05
						l76.66-0.33L703.5,446.47z"/>
				</g>
			</g>
			<g>
				<g>
					<g>
						<g>
							<g>
								<g>
									<g>
										
											<rect x="660.95" y="438.8" transform="matrix(1 -4.234219e-03 4.234219e-03 1 -1.9923 2.8212)" class="st10" width="8.67" height="66.29"/>
									</g>
								</g>
							</g>
						</g>
					</g>
				</g>
			</g>
			<g>
				<g>
					<g>
						<g>
							<g>
								<g>
									
										<rect x="635.79" y="456.98" transform="matrix(1 -4.244097e-03 4.244097e-03 1 -1.9527 2.7419)" class="st0" width="18.57" height="8.98"/>
								</g>
							</g>
						</g>
					</g>
				</g>
			</g>
		</g>
		<g>
			<g>
				<g>
					<g>
						<g>
							<g>
								<g>
									<path class="st6" d="M584.06,485.12l-49.3,0.21c-2.52,0.01-4.57-2.02-4.58-4.54l-0.18-41.54
										c-0.01-2.52,2.02-4.57,4.54-4.58l49.3-0.21c2.52-0.01,4.57,2.02,4.58,4.54l0.18,41.54
										C588.61,483.05,586.58,485.1,584.06,485.12z"/>
								</g>
							</g>
						</g>
					</g>
				</g>
			</g>
			<g>
				<g>
					<g>
						<g>
							<g>
								<g>
									<path class="st4" d="M584.06,485.12l-49.3,0.21c-2.52,0.01-4.57-2.02-4.58-4.54l-0.18-41.54
										c-0.01-2.52,2.02-4.57,4.54-4.58l49.3-0.21c2.52-0.01,4.57,2.02,4.58,4.54l0.18,41.54
										C588.61,483.05,586.58,485.1,584.06,485.12z"/>
								</g>
							</g>
						</g>
					</g>
				</g>
			</g>
			<g>
				<g>
					<path class="st10" d="M588.43,440.43c-0.01-3.31-2.71-5.98-6.01-5.96l-46.44,0.2c-3.31,0.01-5.98,2.71-5.96,6.01l0,0.04
						l58.42-0.25L588.43,440.43z"/>
				</g>
			</g>
			<g>
				<g>
					<g>
						<g>
							<g>
								<g>
									<g>
										
											<rect x="556" y="434.58" transform="matrix(1 -4.239551e-03 4.239551e-03 1 -1.9445 2.3753)" class="st7" width="6.6" height="50.51"/>
									</g>
								</g>
							</g>
						</g>
					</g>
				</g>
			</g>
		</g>
		<g>
			<g>
				<g>
					<g>
						<g>
							<g>
								<g>
									<path class="st6" d="M689.93,438.75l-49.3,0.21c-2.52,0.01-4.57-2.02-4.58-4.54l-0.18-41.54
										c-0.01-2.52,2.02-4.57,4.54-4.58l49.3-0.21c2.52-0.01,4.57,2.02,4.58,4.54l0.18,41.54
										C694.48,436.69,692.45,438.74,689.93,438.75z"/>
								</g>
							</g>
						</g>
					</g>
				</g>
			</g>
			<g>
				<g>
					<g>
						<g>
							<g>
								<g>
									<path class="st7" d="M689.93,438.75l-49.3,0.21c-2.52,0.01-4.57-2.02-4.58-4.54l-0.18-41.54
										c-0.01-2.52,2.02-4.57,4.54-4.58l49.3-0.21c2.52-0.01,4.57,2.02,4.58,4.54l0.18,41.54
										C694.48,436.69,692.45,438.74,689.93,438.75z"/>
								</g>
							</g>
						</g>
					</g>
				</g>
			</g>
			<g>
				<g>
					<path class="st8" d="M694.3,394.07c-0.01-3.31-2.71-5.98-6.01-5.96l-46.44,0.2c-3.31,0.01-5.98,2.71-5.96,6.01l0,0.04
						l58.42-0.25L694.3,394.07z"/>
				</g>
			</g>
			<g>
				<g>
					<g>
						<g>
							<g>
								<g>
									<g>
										
											<rect x="661.87" y="388.22" transform="matrix(1 -4.254701e-03 4.254701e-03 1 -1.7532 2.8339)" class="st4" width="6.6" height="50.51"/>
									</g>
								</g>
							</g>
						</g>
					</g>
				</g>
			</g>
		</g>
	</g>
	<g>
		<g>
			
				<ellipse transform="matrix(0.9227 -0.3855 0.3855 0.9227 -195.9252 243.6039)" class="st0" cx="509.45" cy="610.33" rx="12.21" ry="12.21"/>
			<ellipse transform="matrix(0.9227 -0.3855 0.3855 0.9227 -195.9252 243.6039)" cx="509.45" cy="610.33" rx="12.21" ry="12.21"/>
			
				<ellipse transform="matrix(0.7071 -0.7071 0.7071 0.7071 -282.3548 538.9984)" class="st0" cx="509.45" cy="610.33" rx="8.74" ry="8.74"/>
		</g>
		<g>
			
				<ellipse transform="matrix(0.9227 -0.3855 0.3855 0.9227 -201.3582 216.5101)" class="st0" cx="439.18" cy="610.33" rx="12.21" ry="12.21"/>
			<ellipse transform="matrix(0.9227 -0.3855 0.3855 0.9227 -201.3582 216.5101)" cx="439.18" cy="610.33" rx="12.21" ry="12.21"/>
			
				<ellipse transform="matrix(0.2289 -0.9735 0.9735 0.2289 -255.4757 898.1477)" class="st0" cx="439.18" cy="610.33" rx="8.74" ry="8.74"/>
		</g>
		<g>
			
				<ellipse transform="matrix(0.9227 -0.3855 0.3855 0.9227 -178.8919 328.5474)" class="st0" cx="729.77" cy="610.33" rx="12.21" ry="12.21"/>
			<ellipse transform="matrix(0.9227 -0.3855 0.3855 0.9227 -178.8919 328.5474)" cx="729.77" cy="610.33" rx="12.21" ry="12.21"/>
			
				<ellipse transform="matrix(0.9387 -0.3448 0.3448 0.9387 -165.676 289.0135)" class="st0" cx="729.77" cy="610.33" rx="8.74" ry="8.74"/>
		</g>
	</g>
	<path d="M438.77,609.88L438.77,609.88c-1.43,0-2.6-1.17-2.6-2.6V420.32c0-1.43,1.17-2.6,2.6-2.6l0,0c1.43,0,2.6,1.17,2.6,2.6
		v186.97C441.36,608.72,440.2,609.88,438.77,609.88z"/>
	<path d="M488.11,519.53h-56.96c-5.02,0-9.13-4.11-9.13-9.13l0,0c0-5.02,4.11-9.13,9.13-9.13h56.96c5.02,0,9.13,4.11,9.13,9.13l0,0
		C497.24,515.42,493.13,519.53,488.11,519.53z"/>
	<path d="M436.53,424.74l-25.27-3.85c-2.11-0.32-3.57-2.31-3.24-4.41l0.27-1.74c0.32-2.11,2.31-3.57,4.41-3.24l25.27,3.85
		c2.11,0.32,3.57,2.31,3.24,4.41l-0.27,1.74C440.62,423.61,438.64,425.07,436.53,424.74z"/>
</g>
<g id="man">
	<g id="man_00000129912956543766636480000002479435768626630827_">
		<g>
			<g>
				<g>
					<path class="st7" d="M458.39,227.49c0,0,20.21,4.21,31.8,28.43c11.59,24.23,22.12,38.97,22.12,38.97
						c13.34-3.86,26.68-7.72,40.03-11.59c3.16,6.67,6.32,13.34,9.48,20.01c-19.91,27.54-51.41,40.45-74.79,32.65
						C455.34,325.41,433.34,275.08,458.39,227.49z"/>
				</g>
			</g>
		</g>
		<g>
			<g>
				<g>
					<path class="st13" d="M456.81,214.85c0,0,1.37,0.12,2.79,7.43c0,0-0.68,4.16-11.22-0.06c-10.53-4.21-16.85-8.43-16.85-8.43
						l8.95-3.91L456.81,214.85z"/>
				</g>
			</g>
		</g>
		<g>
			<g>
				<g>
					<path class="st8" d="M457.86,222.22c4.48,6.95,11.08,17.77,17.91,31.6c11.62,23.53,32.65,92.69,32.65,92.69l0,0
						c0,0-13.9,18.25-47.5,26.5c-33.6,8.26-20.65-153.3-20.65-153.3C446.14,220.55,452,221.38,457.86,222.22z"/>
				</g>
			</g>
		</g>
		<g>
			<g>
				<g>
					<path class="st8" d="M452.6,224.33c0.63-1.76,0.91-3.22,1.05-4.21c0.28-1.98,0.15-3.23,1.05-4.21c0.64-0.7,1.51-0.95,2.11-1.05
						c-3.08-1.69-8.36-4.08-15.35-4.87c-7.68-0.87-13.86,0.61-17.3,1.71c-0.7,3.51-1.4,7.02-2.11,10.53
						c4.1,0.68,8.53,1.25,13.27,1.63C441.55,224.36,447.34,224.46,452.6,224.33z"/>
				</g>
			</g>
		</g>
		<g>
			<g>
				<g>
					<path class="st8" d="M498.48,319.91c0.12,0,0.23-0.02,0.35-0.06c0.55-0.19,0.85-0.8,0.66-1.35
						c-0.09-0.26-9.15-26.4-19.88-56.45c-10.82-30.27-18.92-38.5-19.26-38.83c-0.42-0.41-1.09-0.41-1.5,0.01
						c-0.41,0.42-0.41,1.09,0.01,1.5l0,0c0.08,0.08,8.14,8.36,18.75,38.04c10.73,30.04,19.79,56.17,19.88,56.43
						C497.63,319.63,498.04,319.91,498.48,319.91z"/>
				</g>
			</g>
		</g>
		<g>
			<g>
				<g>
					<path class="st8" d="M393.61,381.27c0,0,8.43,17.91,96.9-20.01l-37.9-133.15c-0.62-2.18-2.73-3.59-4.98-3.32l-22.43,2.69
						L393.61,381.27z"/>
				</g>
			</g>
		</g>
		<g id="man_00000113350395973876327520000018302537714885581470_">
			<g>
				<g>
					<g>
						<g>
							<g>
								<g>
									<path class="st5" d="M487.69,567.71l-0.45,45.62c-2.45,3.76-6.73,5.64-10.43,4.74c-4.92-1.19-8.45-7.19-6.58-13.33
										c-1.17-16.14-2.34-32.28-3.51-48.42L487.69,567.71z"/>
								</g>
							</g>
						</g>
					</g>
					<g>
						<g>
							<g>
								<path d="M484.73,599.68c2.2-0.7,4.47,2.33,7.61,4.76c2.08,1.61,5.39,3.6,10.47,4.76c6.79,1.4,13.59,2.8,20.38,4.2
									c0.53,0.18,2.03,0.78,3.17,2.37c0.77,1.08,1.2,2.38,1.2,3.77v2.99h-68.53l6.8-20.14c1.69-0.32,2.91-0.09,3.67,0.15
									c3.93,1.24,4.33,5.45,8.57,6.66c0.97,0.28,2.07,0.57,2.86,0c1.58-1.14-0.12-4.31,1.9-7.61
									C483.33,600.77,483.82,599.97,484.73,599.68z"/>
							</g>
						</g>
					</g>
					<g>
						<g>
							<g>
								<path d="M527.28,624.43h-67.97c-0.68,0-1.23-0.55-1.23-1.23v-1.34c0-0.68,0.55-1.23,1.23-1.23h67.97
									c0.68,0,1.24,0.55,1.24,1.23v1.34C528.52,623.88,527.96,624.43,527.28,624.43z"/>
							</g>
						</g>
					</g>
					<g>
						<g>
							<g>
								<path class="st0" d="M459.67,621.1h67.42c0.26,0,0.48-0.21,0.48-0.48c0-0.26-0.21-0.48-0.48-0.48h-67.42
									c-0.26,0-0.48,0.21-0.48,0.48C459.2,620.89,459.41,621.1,459.67,621.1z"/>
							</g>
						</g>
					</g>
				</g>
				<g>
					<g>
						<g>
							<path class="st11" d="M490.4,583.08c-4.28,1.88-12.07,4.58-21.89,3.93c-5.46-0.36-10-1.66-13.33-2.93
								c-0.9-16.54-1.54-33.62-1.89-51.21c-0.4-20.44-0.37-40.2,0.02-59.26c-1.13-12.71-2.25-25.41-3.38-38.12
								c-0.77-8.72-1.55-17.44-2.31-26.15l-6.65-45.19c0.1-0.23,0.74-1.66,1.96-3.62l45.08-8.04
								C488.65,353.69,490.4,583.08,490.4,583.08z"/>
						</g>
					</g>
				</g>
			</g>
			<g>
				<g>
					<g>
						<g>
							<g>
								<g>
									<path class="st5" d="M405.51,567.44l-5.37,46.68c2.02,4.16,6.16,6.63,10.06,6.18c5.18-0.59,9.56-6.27,8.43-12.78
										c3.26-16.34,6.52-32.69,9.78-49.03L405.51,567.44z"/>
								</g>
							</g>
						</g>
					</g>
					<g>
						<g>
							<g>
								<path d="M397.85,624.43h45.01c0.57,0,1.02-0.46,1.02-1.02v-1.87c0-0.57-0.46-1.02-1.02-1.02h-45.01
									c-0.57,0-1.02,0.46-1.02,1.02v1.87C396.83,623.97,397.28,624.43,397.85,624.43z"/>
							</g>
						</g>
					</g>
					<g>
						<g>
							<g>
								<path d="M404.67,622.47h39.22c0-1.63,0-3.27,0-4.9c0.03-0.34,0.03-0.66,0-0.98c-0.57-5.95-11.52-9.18-13.73-9.8
									c-0.22-0.21-0.56-0.55-0.98-0.98c-2.09-2.13-3.42-2.94-5.11-5.58c-0.69-1.08-1.67-1.96-2.84-2.47
									c-0.8-0.35-1.75-0.64-2.83-0.77c-3.62-0.44-6.55,1.21-8.25,2.52c-0.96,0.74-1.68,1.74-2.11,2.87
									c-0.8,2.12-1.59,4.25-2.39,6.37c-0.36,0.96-1.74,0.88-1.99-0.11c-0.64-2.58-1.29-5.15-1.93-7.73
									c-0.69,3.5-1.34,7.05-2.01,10.64c-1,5.34-1.98,10.73-1.91,10.93H404.67z"/>
							</g>
						</g>
					</g>
					<g>
						<g>
							<g>
								<path class="st0" d="M414.94,610.62c0.1,0,0.2-0.03,0.28-0.09c3.15-2.24,8.03-4.71,13.39-3.69
									c0.63,0.12,1.26,0.29,1.86,0.49c0.25,0.09,0.53-0.05,0.62-0.3c0.09-0.26-0.05-0.54-0.3-0.62c-0.65-0.22-1.32-0.4-2-0.53
									c-5.7-1.08-10.84,1.5-14.14,3.86c-0.22,0.16-0.27,0.46-0.12,0.68C414.64,610.55,414.79,610.62,414.94,610.62z"/>
							</g>
						</g>
					</g>
					<g>
						<g>
							<g>
								<path class="st0" d="M398.18,621.47h43.89c0.26,0,0.47-0.21,0.47-0.47s-0.21-0.47-0.47-0.47h-43.89
									c-0.26,0-0.47,0.21-0.47,0.47S397.92,621.47,398.18,621.47z"/>
							</g>
						</g>
					</g>
				</g>
				<g>
					<g>
						<g>
							<path class="st11" d="M454.88,360.52c-0.93,18.3-2.07,36.85-3.45,55.64c-0.47,6.47-0.97,12.91-1.49,19.32
								c-4.21,52.26-9.88,102.49-16.65,150.54c-3.87,1.39-10.19,3.12-18.09,2.92c-8-0.21-14.27-2.3-18.08-3.91
								c1.68-39.09,4.43-69.69,6.69-90.79c1.31-12.19,2.16-18.49,2.87-30.26c1.39-23.21,0.42-37.78-0.93-71.26
								c-0.33-8.27-0.75-19.16-1.17-32.22L454.88,360.52z"/>
						</g>
					</g>
				</g>
			</g>
		</g>
		<g>
			<g>
				<g>
					<path class="st0" d="M423.74,219.02c0,0-4.34-3.03-6.12-1.55c-1.78,1.48-3.35,7.14,2.35,9.64
						C425.68,229.61,423.74,219.02,423.74,219.02z"/>
				</g>
			</g>
		</g>
		<g>
			<g>
				<g>
					<path class="st13" d="M420.91,224.66c0.3,0,0.58-0.2,0.67-0.5c0.11-0.37-0.1-0.76-0.47-0.87c-1.12-0.33-1.59-1.37-1.42-1.94
						c0.09-0.31,0.39-0.6,0.79-0.78c0.55-0.24,1.2-0.22,1.77,0.05c0.35,0.17,0.76,0.03,0.93-0.32c0.17-0.35,0.03-0.76-0.32-0.93
						c-0.94-0.46-2.01-0.49-2.94-0.08c-0.79,0.35-1.35,0.95-1.56,1.67c-0.37,1.29,0.51,3.11,2.36,3.66
						C420.78,224.65,420.84,224.66,420.91,224.66z"/>
				</g>
			</g>
		</g>
		<g>
			<g>
				<g>
					<path class="st13" d="M420.03,254.2c0.45,0,0.83-0.35,0.86-0.81l1.34-21.91c0.03-0.47-0.33-0.88-0.81-0.91
						c-0.48-0.02-0.88,0.33-0.91,0.81l-1.34,21.91c-0.03,0.47,0.33,0.88,0.81,0.91C419.99,254.2,420.01,254.2,420.03,254.2z"/>
				</g>
			</g>
		</g>
		<g>
			<g>
				<g>
					<path class="st13" d="M421.03,239.07c0.24,0,0.48-0.1,0.65-0.3c0.31-0.36,0.27-0.9-0.08-1.21c-0.19-0.17-4.78-4.09-9.05-1.6
						c-0.41,0.24-0.55,0.77-0.31,1.18c0.24,0.41,0.76,0.55,1.18,0.31c3.2-1.87,7.02,1.38,7.06,1.41
						C420.63,239.01,420.83,239.07,421.03,239.07z"/>
				</g>
			</g>
		</g>
		<g>
			<g>
				<g>
					<path class="st0" d="M492.08,359.62c-9.27,6.34-62.76,13.73-77.58,13.9c-12.37,0.16-3.41-36.71-3.87-38.68
						c-4.88-20.79-7.3-38.45-8.59-51.54c-0.47-4.77-0.82-9.13-1.04-13.12c-1.05-18.31,4.9-36.33,16.71-50.36
						c0.05-0.06,0.1-0.12,0.16-0.19c0.45-0.53,1-0.97,1.63-1.26c1.3-0.6,2.52-1.06,3.6-1.42c0.01-0.01,0.01-0.01,0.02-0.01
						l20.92,2.99c0.8,0.11,1.56,0.42,2.2,0.91c1.47,1.11,3.33,2.61,5.32,4.53c12.59,12.07,16.47,26.63,18.96,35.81
						C475.36,279.14,492.75,359.17,492.08,359.62z"/>
				</g>
			</g>
		</g>
		<g>
			<g>
				<g>
					<path class="st7" d="M450.18,241.55c0.21,0.45,0.3,0.94,0.26,1.42c-2.14,32.33-4.28,64.67-6.42,97.01
						c-0.59,9.01-1.19,18.02-1.78,27.03c-0.1,1.5-1.31,2.68-2.81,2.74c-5.19,0.21-11.04,0.8-17.38,2.03
						c-11.68,2.28-21.27,6.01-28.44,9.48c1.68-44.34,3.36-88.68,5.04-133.02c0.15-3.91,1.6-7.66,4.13-10.66l0.04-0.05
						c5.24-6.24,10.47-12.47,15.72-18.71l0.96-1.14c0.88-1.05,2.37-1.35,3.59-0.73l0,0l19.67,9.99c0.59,0.3,1.06,0.79,1.34,1.39
						L450.18,241.55z"/>
				</g>
			</g>
		</g>
		<g>
			<g>
				<g>
					<g>
						<g>
							<path class="st7" d="M531.32,273.85c-0.89,0.25-1.8,0.49-2.69,0.74c2.38,1.09,11.38,5.34,12.36,8.49
								c0.11,0.33,0.37,1.19,0,1.7c-0.5,0.7-1.91,0.36-3.09,0c-0.17-0.05-0.36-0.11-0.54-0.17c1.08,0.93,1.89,1.87,2.14,2.73
								c0.09,0.33,0.35,1.18,0,1.7c-0.47,0.7-1.8,0.36-2.9,0c-1.63-0.53-4.1-1.5-7.25-3.4c-0.01,0-0.01,0-0.01,0
								c1.08,1.64,2.16,3.27,3.25,4.9c0.03,1.54-0.5,3.71-3.77,3.48c-0.01,0-0.01,0-0.01,0l-2.72-2.52c-0.43-0.4-1.02-0.57-1.6-0.49
								c-1.17,0.18-1.77,0.16-2.32,0.35c-1.73,0.58-5.22,0.3-10.53,0.42c-1.35,0.03-2.82,0.09-4.41,0.19
								c-1.61,0.11-2.66,0.22-4.29,0.16c-0.1,0-0.2-0.01-0.3-0.01c-0.58-0.03-1.15-0.07-1.46-0.09c-0.05-0.01-0.09-0.01-0.13-0.01
								c-0.18-0.02-0.35-0.04-0.52-0.06c-0.29-0.03-0.54-0.06-0.77-0.1c-0.97-0.13-1.78-0.29-2.4-0.43
								c-0.11-0.11-0.22-0.22-0.33-0.33c-0.4-0.4-0.77-0.8-1.1-1.19c-2.54-2.93-3.21-5.4-2.92-7.42c0-0.03,0.01-0.06,0.01-0.09
								c0.01-0.02,0.01-0.04,0.01-0.06c0.02-0.13,0.05-0.26,0.08-0.38c0.02-0.09,0.04-0.17,0.06-0.25c0.01-0.05,0.02-0.09,0.04-0.14
								c1.11-3.71,5.39-5.63,5.72-5.77c0.02,0,0.02-0.01,0.02-0.01c4.4-0.98,8.8-1.95,13.2-2.93c0.01,0.01,0.01,0.01,0.01,0.02
								c24.33-5.52,30.41-5.55,30.74-4.24c0.18,0.7-1.19,2.1-1.93,2.71c-0.99,0.82-1.97,1.13-5.26,1.75
								C534.52,273.32,533.03,273.58,531.32,273.85z"/>
						</g>
					</g>
				</g>
				<g>
					<g>
						<g>
							<path class="st7" d="M528.36,286.55c0.5,0,0.91-0.38,0.95-0.89c0.04-0.52-0.36-0.98-0.88-1.01l-9.67-0.65
								c-0.52-0.03-0.97,0.36-1.01,0.88c-0.04,0.52,0.36,0.97,0.88,1.01l9.67,0.65C528.31,286.55,528.33,286.55,528.36,286.55z"/>
						</g>
					</g>
				</g>
				<g>
					<g>
						<g>
							<path class="st7" d="M537.2,285.43c0.32,0,0.63-0.16,0.81-0.46c0.27-0.45,0.13-1.03-0.32-1.3l-8.44-5.11
								c-0.73-0.44-1.56-0.65-2.41-0.6l-9.29,0.79c-0.52,0.04-0.91,0.5-0.87,1.03c0.04,0.52,0.5,0.92,1.03,0.86l9.27-0.78
								c0.44-0.03,0.9,0.09,1.29,0.33l8.44,5.11C536.87,285.38,537.04,285.43,537.2,285.43z"/>
						</g>
					</g>
				</g>
				<g>
					<g>
						<g>
							<path class="st7" d="M515.8,276.05c0.01,0,0.03,0,0.04,0l12.72-0.52c0.52-0.02,0.93-0.46,0.91-0.99
								c-0.02-0.52-0.47-0.93-0.99-0.91l-12.72,0.52c-0.52,0.02-0.93,0.46-0.91,0.99C514.87,275.65,515.29,276.05,515.8,276.05z"/>
						</g>
					</g>
				</g>
			</g>
			<g>
				<g>
					<g>
						<path class="st7" d="M416.83,237.62c7.13,1.77,9.61,9.33,16.2,20.35c4.02,6.72,10.15,15.68,19.36,25.44
							c17.69-4.63,35.38-9.25,53.08-13.88c1.73,8.63,3.46,17.27,5.19,25.9c-6.88,4.85-17.66,11.47-31.98,16.52
							c-17.22,6.07-30.77,10.84-44.98,5.33c-16.11-6.25-23.09-21.86-28.4-33.76c-3.6-8.07-13.51-30.25-3.79-40.92
							C405.15,238.63,411.49,236.3,416.83,237.62z"/>
					</g>
				</g>
			</g>
			<g>
				<g>
					<g>
						<path d="M448.42,321.49c1.95,0,3.99-0.12,6.12-0.37c0.58-0.07,1-0.6,0.93-1.18c-0.07-0.58-0.6-1-1.18-0.93
							c-16.38,1.92-29.28-3.83-38.33-17.08c-6.82-9.97-8.79-20.69-8.81-20.79c-0.1-0.58-0.65-0.96-1.23-0.86
							c-0.58,0.1-0.96,0.65-0.86,1.23C405.13,281.93,412.6,321.49,448.42,321.49z"/>
					</g>
				</g>
			</g>
			<g>
				<g>
					<g>
						<path d="M450.11,301.62c0.54,0,1-0.4,1.06-0.95l1.88-17.65l-21.82-30.3c-0.34-0.48-1.01-0.58-1.48-0.24
							c-0.48,0.34-0.59,1.01-0.24,1.48l21.35,29.64l-1.8,16.84c-0.06,0.58,0.36,1.11,0.94,1.17
							C450.04,301.62,450.08,301.62,450.11,301.62z"/>
					</g>
				</g>
			</g>
			<g>
				<g>
					<g>
						<path d="M477.79,277.67c0.09,0,0.17-0.01,0.26-0.03l26.78-6.7c0.57-0.14,0.92-0.72,0.77-1.29c-0.14-0.57-0.72-0.92-1.29-0.77
							l-26.78,6.7c-0.57,0.14-0.92,0.72-0.77,1.29C476.88,277.35,477.31,277.67,477.79,277.67z"/>
					</g>
				</g>
			</g>
		</g>
		<g>
			<g>
				<g>
					<g>
						<path class="st5" d="M439.05,187.02c-1.09-0.35-10.37,30.35-10.37,30.35c1.25,6.88,7.08,11.33,12.58,10.75
							c5.88-0.62,8.79-6.7,8.93-7l5.41-27.45L439.05,187.02z"/>
					</g>
				</g>
			</g>
			<g>
				<g>
					<g>
						<path class="st5" d="M475.65,170.02c0.27,4.25,0.25,9.88-0.84,16.4c-0.26,1.55-0.56,2.98-0.88,4.33
							c-1.13,4.74-2.47,8.48-3.42,10.84c-0.24,0.59-0.47,1.17-0.69,1.71c0,0.01-0.01,0.01-0.01,0.02
							c-4.66,9.94-8.31,10.93-9.42,11.16c-0.75,0.15-1.49,0.17-2.24,0.08c-2.92-0.74-6.12-2.63-9.53-4.64
							c-2.77-1.63-4.76-2.82-6.45-4.53c-0.48-0.48-0.94-1.01-1.38-1.61c-4.1-5.5-3.42-12.24-2.76-18.79
							c0.56-5.52,1.32-13,7.19-18.58c0.69-0.66,2.24-2.12,4.34-3.13C460.18,158.09,474.57,169.16,475.65,170.02z"/>
					</g>
				</g>
			</g>
			<g>
				<g>
					<g>
						<path class="st5" d="M473.07,183.31c-6.15,10.66-23.44,16.9-32.28,10.41c-0.36-0.27-0.71-0.55-1.03-0.85c0,0,0-0.01-0.01-0.01
							c-1.29-1.18-2.26-2.58-2.99-3.97c-1.4-2.66-1.91-5.27-2.12-6.29c-0.29-1.49-1.45-7.36,1.62-12.81c0.79-1.4,1.78-2.63,2.92-3.7
							c5.65-5.3,15.02-6.61,22.14-4.84c1.58,0.39,11.62,2.89,13.86,10.71C476.66,177.1,473.98,181.73,473.07,183.31z"/>
					</g>
				</g>
			</g>
			<g>
				<g>
					<g>
						<path d="M460.02,185.05c-0.18,1.29-0.91,2.25-1.63,2.15c-0.72-0.1-1.15-1.23-0.96-2.52c0.18-1.29,0.91-2.25,1.63-2.15
							C459.77,182.63,460.2,183.76,460.02,185.05z"/>
					</g>
				</g>
			</g>
			<g>
				<g>
					<g>
						<path d="M461.89,196.96c-0.52-0.14-0.82-0.68-0.68-1.2c0.14-0.52,0.68-0.82,1.2-0.68c2.43,0.67,3.34,0.61,3.61,0.57
							c-0.02-0.07-0.04-0.16-0.05-0.23c-0.11-0.48-0.29-1.21-0.16-2.18c0.11-0.86,0.39-1.4,0.62-1.84c0.1-0.19,0.2-0.38,0.28-0.61
							c0.38-1.05,0.1-2.41-0.83-4.05c-0.26-0.47-0.1-1.06,0.37-1.32c0.47-0.26,1.06-0.1,1.32,0.37c1.21,2.15,1.54,4.05,0.96,5.66
							c-0.12,0.34-0.26,0.61-0.39,0.85c-0.19,0.37-0.35,0.67-0.42,1.19c-0.08,0.62,0.02,1.06,0.12,1.49
							c0.13,0.53,0.28,1.19-0.19,1.83c-0.4,0.54-1.07,0.8-2.08,0.8C464.66,197.61,463.46,197.39,461.89,196.96z M466.04,195.82
							L466.04,195.82L466.04,195.82z"/>
					</g>
				</g>
			</g>
			<g>
				<g>
					<g>
						<path d="M454.35,184.76c0.14,0,0.28-0.04,0.41-0.12c3.15-1.94,7.43-0.88,7.47-0.87c0.42,0.11,0.85-0.15,0.96-0.57
							c0.11-0.42-0.14-0.85-0.56-0.96c-0.2-0.05-4.96-1.24-8.69,1.05c-0.37,0.23-0.48,0.71-0.26,1.08
							C453.82,184.63,454.08,184.76,454.35,184.76z"/>
					</g>
				</g>
			</g>
			<g>
				<g>
					<g>
						<path d="M471.43,186.68c-0.18,1.29-0.91,2.25-1.63,2.15c-0.72-0.1-1.15-1.23-0.96-2.52c0.18-1.29,0.91-2.25,1.63-2.15
							C471.19,184.26,471.62,185.39,471.43,186.68z"/>
					</g>
				</g>
			</g>
			<g>
				<g>
					<g>
						<path d="M465.76,186.39c0.14,0,0.28-0.04,0.41-0.12c3.15-1.94,7.43-0.88,7.47-0.87c0.42,0.11,0.85-0.15,0.96-0.57
							c0.11-0.42-0.14-0.85-0.56-0.96c-0.2-0.05-4.96-1.24-8.69,1.05c-0.37,0.23-0.48,0.71-0.26,1.08
							C465.24,186.26,465.5,186.39,465.76,186.39z"/>
					</g>
				</g>
			</g>
			<g>
				<g>
					<g>
						<path d="M447.53,168.7c0.94,0.12,1.85,0.53,3.04,0.96c5.09,1.88,8.08,4.45,9.79,5.64c4.9,3.42,14.29,6.03,18.76,2.15
							c3.83-3.32,3.78-11.16,0.22-16.38c-3.41-5-9.68-7.24-15.05-5.86c-3.19,0.82-5.32,2.73-6.38,3.85
							c-3.48-1.19-6.39-1.29-8.3-1.19c-5.02,0.28-12.7,2.51-13.92,7.31C435.56,165.65,435.19,167.12,447.53,168.7z"/>
					</g>
				</g>
			</g>
			<g>
				<g>
					<g>
						<path d="M456.57,172.11c-2.3,0.28-5.65,1.07-8.45,3.56c-1.94,1.72-2.67,3.41-4.75,7.26c-1.31,2.42-3.25,5.89-5.84,10.05
							c0,0-0.01-0.01-0.01-0.01c-0.12-0.14-1.48-1.84-3.17-4.32c-1.48-2.9-2.02-5.74-2.23-6.85c-0.31-1.63-1.52-8.03,1.77-13.99
							c0.85-1.53,1.91-2.88,3.13-4.05c1.57-0.26,10.37-1.54,16.44,4.2C454.87,169.29,455.86,170.75,456.57,172.11z"/>
					</g>
				</g>
			</g>
			<g>
				<g>
					<g>
						<path class="st5" d="M444.11,181.45c0,0-4.15-4.3-6.45-3.04c-2.3,1.26-5.26,7.19,0.52,11.19
							C443.96,193.61,444.11,181.45,444.11,181.45z"/>
					</g>
				</g>
			</g>
			<g>
				<g>
					<g>
						<path d="M439.9,187.11c0.28,0,0.56-0.15,0.7-0.42c0.2-0.38,0.05-0.86-0.33-1.06c-1.16-0.61-1.46-1.86-1.16-2.46
							c0.16-0.32,0.56-0.59,1.04-0.69c0.66-0.15,1.37,0.01,1.95,0.44c0.35,0.26,0.84,0.19,1.1-0.15c0.26-0.35,0.19-0.84-0.15-1.1
							c-0.94-0.71-2.13-0.98-3.25-0.72c-0.95,0.22-1.71,0.77-2.09,1.51c-0.69,1.35-0.11,3.55,1.83,4.57
							C439.65,187.08,439.78,187.11,439.9,187.11z"/>
					</g>
				</g>
			</g>
			<g>
				<g>
					<g>
						<path d="M450.09,174.55c-0.35,1.32-0.68,2.69-1,4.11c-0.6,2.7-1.06,5.29-1.41,7.75c-0.66-0.03-2.17,0.21-2.54-0.82
							c-0.4-1.1-2.28-12.4-2.28-12.4c0.05-0.31,0.44-2.53,1.85-3.05C446.27,169.56,448.95,171.1,450.09,174.55z"/>
					</g>
				</g>
			</g>
			<g>
				<g>
					<g>
						<path class="st0" d="M474.87,169.5c0.73,0,1.46-0.17,2.07-0.7c1.18-1.03,1.45-3.04,0.6-4.39c-0.85-1.35-2.63-1.66-4.01-1.5
							c-0.96,0.11-2.06,0.49-2.3,1.21c-0.22,0.66,0.39,1.3,0.59,1.51c0.17,0.18,0.46,0.19,0.63,0.01c0.18-0.17,0.19-0.46,0.01-0.63
							c-0.41-0.43-0.39-0.6-0.39-0.6c0.04-0.13,0.56-0.48,1.57-0.6c1.1-0.13,2.5,0.09,3.13,1.08c0.61,0.97,0.4,2.51-0.43,3.23
							c-0.9,0.78-2.32,0.43-3.36,0.18c-3.32-0.82-5.61-3.34-6.94-5.32c-0.14-0.21-0.42-0.26-0.62-0.12
							c-0.21,0.14-0.26,0.42-0.12,0.62c1.42,2.1,3.87,4.8,7.47,5.68C473.36,169.32,474.11,169.5,474.87,169.5z"/>
					</g>
				</g>
			</g>
			<g>
				<g>
					<g>
						<path class="st0" d="M437.88,170.28c0.17,0,0.32-0.09,0.4-0.25c5.5-11.1,15.14-7.76,15.55-7.61c0.23,0.08,0.49-0.04,0.58-0.27
							c0.08-0.23-0.04-0.49-0.27-0.58c-0.11-0.04-10.8-3.77-16.66,8.05c-0.11,0.22-0.02,0.49,0.2,0.6
							C437.75,170.27,437.82,170.28,437.88,170.28z"/>
					</g>
				</g>
			</g>
			<g>
				<g>
					<g>
						<path d="M446.56,178.6c0.1,0.74-0.43,1.41-1.16,1.51c-0.74,0.1-1.41-0.43-1.51-1.16c-0.1-0.74,0.43-1.41,1.16-1.51
							C445.79,177.34,446.47,177.86,446.56,178.6z"/>
					</g>
				</g>
			</g>
			<g>
				<g>
					<g>
						<g>
							<path d="M485.61,149.66c0.05-0.07,0.1-0.14,0.13-0.22c0.19-0.44,0.36-0.9,0.51-1.36c0.34-1.03,0.58-2.1,0.71-3.18
								c0.07-0.53-0.31-1.02-0.84-1.08c-0.53-0.07-1.02,0.31-1.08,0.84c-0.12,0.96-0.33,1.9-0.63,2.81
								c-0.14,0.43-0.29,0.83-0.45,1.2c-0.21,0.49,0.02,1.06,0.51,1.28C484.88,150.12,485.35,149.99,485.61,149.66z"/>
						</g>
					</g>
				</g>
				<g>
					<g>
						<g>
							<path d="M493.36,152.89c0.06-0.07,0.11-0.14,0.17-0.21c0.33-0.43,0.25-1.03-0.18-1.36c-0.43-0.33-1.05-0.23-1.36,0.18
								c-0.58,0.76-1.25,1.47-1.97,2.11c-0.34,0.3-0.67,0.57-1,0.8c-0.43,0.32-0.52,0.93-0.21,1.36c0.32,0.43,0.93,0.52,1.36,0.21
								c0.39-0.29,0.77-0.59,1.13-0.91C492.05,154.4,492.74,153.67,493.36,152.89z"/>
						</g>
					</g>
				</g>
			</g>
			<g>
				<g>
					<g>
						<path d="M448.78,180.12c0,0,0.26,11.05,3.15,13.93c2.88,2.88,8.43-0.02,13.83,2.88c5.4,2.89,3.96,0.95,6.61,0
							c0,0-2.16,21.17-10.82,24.05c-8.65,2.88-25.96-6.73-24.04-13.46c1.92-6.73,7.69-26.93,7.69-26.93L448.78,180.12z"/>
					</g>
				</g>
			</g>
			<g>
				<g>
					<g>
						<path class="st5" d="M463.39,202.21c-0.89-0.19-1.93-0.49-3.04-0.96c-1.93-0.83-3.38-1.88-4.37-2.74
							c-0.31,0.61-0.98,2.03-0.61,3.71c0.36,1.61,1.67,3.46,5.2,4.9l1.41-2.45c0,0-1.48-0.74-2.37-1.93
							c0.15,0.09,0.32,0.18,0.49,0.27c0.54,0.27,1.06,0.44,1.51,0.55C462.2,203.1,462.79,202.66,463.39,202.21z"/>
					</g>
				</g>
			</g>
		</g>
		<g>
			<g>
				<g>
					<path class="st7" d="M450.49,243.29c-0.15-2.96-0.64-6.84-1.98-11.19c-1.26-4.1-2.9-7.41-4.34-9.87c0,0-15.8-5.27-20.01-10.53
						l-7.15,8.98c3.29,3.19,7.14,6.55,11.61,9.86C436.46,236.35,444.05,240.42,450.49,243.29z"/>
				</g>
			</g>
		</g>
		<g>
			<g>
				<g>
					<path d="M434.72,238.14l0.45-0.22c4.61-2.3,6.83-8.99,7.91-12.2c0.14-0.41,0.34-0.7,0.58-0.81c0.42-0.2,1.43,0.04,3.02,1.31
						c0.46,0.37,1.13,0.29,1.49-0.17c0.37-0.46,0.29-1.13-0.17-1.49c-2.11-1.68-3.88-2.21-5.25-1.57c-0.78,0.36-1.36,1.08-1.69,2.06
						c-0.94,2.83-2.87,8.6-6.41,10.74c-3.95-1.79-7.59-4.14-10.84-6.99c-2.56-2.25-4.87-4.8-6.85-7.59c-0.34-0.48-1-0.59-1.48-0.25
						c-0.48,0.34-0.59,1-0.25,1.48c2.08,2.93,4.49,5.6,7.18,7.96c3.54,3.1,7.53,5.64,11.86,7.55L434.72,238.14z"/>
				</g>
			</g>
		</g>
		<g>
			<g>
				<g>
					<g>
						<g>
							<path d="M568.77,270.38c0,0.22-0.03,0.44-0.07,0.66l-8.52,43.89c-0.39,2.01-2.35,3.45-4.75,3.48l-66.85,0.68
								c-0.7,0-1.36-0.1-1.98-0.31c-2.36-0.78-3.96-2.92-3.52-5.15l8.52-43.89c0.39-2.01,2.35-3.45,4.75-3.48l66.85-0.68
								C566.29,265.53,568.82,267.81,568.77,270.38z"/>
						</g>
					</g>
				</g>
				<g>
					<g>
						<g>
							<path class="st3" d="M563.2,266.58l-66.85,0.68c-2.4,0.03-4.36,1.47-4.75,3.48l-8.52,43.89c-0.43,2.23,1.16,4.38,3.52,5.15
								c0.33,0.11,0.68,0.19,1.03,0.24c-0.06-0.42-0.07-0.85,0.01-1.29l8.52-43.89c0.39-2.01,2.35-3.45,4.75-3.48l66.85-0.68
								c0.32,0,0.63,0.03,0.94,0.07C568.38,268.45,566.04,266.54,563.2,266.58z"/>
						</g>
					</g>
				</g>
			</g>
			<g>
				<g>
					<g>
						<g>
							<path class="st5" d="M572.18,296.27c1.29-5.43-2.54-10.76-8.09-11.37c-9.8-1.08-24.52-2.33-25.83-0.24
								c-1.98,3.16,6.33,3.96,6.33,3.96l14.8,3.1c0,0-23.11-3.9-25.09-0.74c-1.98,3.16,1.34,3.48,1.34,3.48s-1.98,3.16,1.18,5.15
								c3.16,1.98,18.12,3.42,18.12,3.42c-3.25-0.59-13.9-2.36-15.12,0.22c-0.42,0.88-0.16,1.66-0.16,1.66
								c0.42,1.29,2.23,1.75,3.16,1.98c9.09,2.22,13.47,1.97,17.88,2.12c3.64,0.12,7.01-1.86,8.65-5.1
								C570.41,301.86,571.47,299.26,572.18,296.27z"/>
						</g>
					</g>
				</g>
			</g>
		</g>
	</g>
</g>
<g id="background">
	<g>
		<g>
			<g>
				<g>
					<g>
						<g>
							<g>
								<g>
									<g>
										<g>
											<g>
												<g>
													<g>
														<g>
															<g>
																<path class="st7" d="M663.26,314.13c-8.25,0-14.93,6.69-14.93,14.93c0,6.67,9.76,25.5,13.5,32.48
																	c0.61,1.15,2.26,1.15,2.87,0c3.74-6.98,13.5-25.81,13.5-32.48C678.19,320.82,671.5,314.13,663.26,314.13z
																	 M664.01,338.13c-5.73,0.45-10.47-4.29-10.02-10.02c0.36-4.51,4.01-8.16,8.51-8.51
																	c5.73-0.45,10.47,4.29,10.02,10.02C672.17,334.13,668.52,337.78,664.01,338.13z"/>
															</g>
														</g>
													</g>
												</g>
											</g>
										</g>
									</g>
								</g>
							</g>
						</g>
					</g>
				</g>
				<g>
					<g>
						<g>
							<g>
								<g>
									<g>
										<g>
											<g>
												<g>
													<g>
														<g>
															<g>
																<g>
																	<path class="st7" d="M663.26,362.92c-0.8,0-1.51-0.42-1.89-1.13c-4.08-7.6-13.56-26.01-13.56-32.72
																		c0-8.52,6.93-15.45,15.45-15.45c8.52,0,15.45,6.93,15.45,15.45c0,6.71-9.48,25.12-13.56,32.72
																		C664.77,362.49,664.06,362.92,663.26,362.92z M663.26,314.64c-7.95,0-14.42,6.47-14.42,14.42
																		c0,6.66,10.28,26.36,13.44,32.24c0.2,0.37,0.56,0.59,0.98,0.59s0.79-0.22,0.98-0.59
																		c3.15-5.88,13.44-25.57,13.44-32.24C677.68,321.11,671.21,314.64,663.26,314.64z M663.27,338.68
																		c-2.6,0-5.1-1.02-6.95-2.87c-2.03-2.03-3.07-4.85-2.84-7.73c0.37-4.75,4.24-8.61,8.98-8.98
																		c2.88-0.23,5.7,0.81,7.73,2.84c2.03,2.03,3.07,4.85,2.84,7.73c-0.37,4.75-4.24,8.61-8.98,8.98l0,0
																		C663.79,338.67,663.53,338.68,663.27,338.68z M663.24,320.09c-0.23,0-0.47,0.01-0.7,0.03
																		c-4.25,0.33-7.7,3.79-8.04,8.04c-0.2,2.58,0.72,5.1,2.54,6.92c1.82,1.82,4.34,2.75,6.92,2.54l0,0
																		c4.25-0.33,7.7-3.79,8.04-8.04c0.2-2.58-0.72-5.1-2.54-6.92C667.81,321,665.58,320.09,663.24,320.09z"/>
																</g>
																<g>
																	<path class="st7" d="M663.26,363.17c-0.9,0-1.69-0.47-2.11-1.26c-4.09-7.62-13.59-26.07-13.59-32.84
																		c0-8.66,7.04-15.7,15.7-15.7c8.66,0,15.7,7.04,15.7,15.7c0,6.77-9.5,25.22-13.59,32.84
																		C664.94,362.69,664.16,363.17,663.26,363.17z M663.26,313.87c-8.38,0-15.2,6.82-15.2,15.2
																		c0,6.65,9.46,25.02,13.53,32.6c0.33,0.62,0.96,1,1.67,1c0.71,0,1.33-0.37,1.67-1c4.07-7.59,13.53-25.95,13.53-32.6
																		C678.45,320.68,671.64,313.87,663.26,313.87z M663.26,362.14c-0.51,0-0.96-0.27-1.2-0.72
																		c-3.16-5.89-13.47-25.63-13.47-32.35c0-8.09,6.58-14.67,14.67-14.67c8.09,0,14.67,6.58,14.67,14.67
																		c0,6.72-10.31,26.46-13.47,32.35C664.22,361.87,663.77,362.14,663.26,362.14z M663.26,314.9
																		c-7.81,0-14.17,6.36-14.17,14.17c0,6.6,10.26,26.25,13.41,32.12c0.15,0.29,0.44,0.46,0.76,0.46
																		c0.32,0,0.61-0.17,0.76-0.46c3.15-5.86,13.41-25.51,13.41-32.12C677.42,321.25,671.07,314.9,663.26,314.9z
																		 M663.27,338.93c-2.7,0-5.23-1.05-7.13-2.95c-2.08-2.09-3.15-4.97-2.91-7.93c0.38-4.87,4.34-8.83,9.21-9.21
																		c2.96-0.23,5.84,0.83,7.93,2.91c2.09,2.08,3.15,4.97,2.92,7.93c-0.38,4.87-4.35,8.83-9.21,9.21
																		C663.8,338.92,663.54,338.93,663.27,338.93z M663.25,319.31c-0.25,0-0.51,0.01-0.77,0.03
																		c-4.62,0.36-8.39,4.13-8.75,8.75c-0.22,2.81,0.79,5.55,2.77,7.53c1.98,1.98,4.71,3,7.53,2.77
																		c4.63-0.36,8.39-4.13,8.75-8.75c0.22-2.81-0.79-5.55-2.77-7.53C668.21,320.31,665.78,319.31,663.25,319.31z
																		 M663.27,337.9c-2.4,0-4.7-0.94-6.4-2.64c-1.87-1.87-2.83-4.47-2.62-7.12c0.34-4.37,3.9-7.93,8.27-8.27
																		c2.68-0.22,5.25,0.74,7.12,2.62c1.87,1.87,2.83,4.47,2.62,7.12c-0.34,4.37-3.9,7.92-8.27,8.27
																		C663.75,337.89,663.51,337.9,663.27,337.9z M663.24,320.34c-0.23,0-0.45,0.01-0.68,0.03
																		c-4.13,0.33-7.48,3.68-7.81,7.81c-0.2,2.51,0.7,4.96,2.47,6.72c1.77,1.77,4.21,2.67,6.73,2.47
																		c4.13-0.33,7.48-3.68,7.81-7.81c0.2-2.51-0.7-4.96-2.47-6.73C667.68,321.23,665.53,320.34,663.24,320.34z"/>
																</g>
															</g>
														</g>
													</g>
												</g>
											</g>
										</g>
									</g>
								</g>
							</g>
						</g>
					</g>
				</g>
			</g>
		</g>
	</g>
	<g>
		<g>
			<g>
				<g>
					<g>
						<g>
							<g>
								<path class="st11" d="M328.01,420c3.78,16.06,5.73,31.21,6.7,40.89c0.04,0.48,0.09,0.95,0.13,1.39
									c-0.1-0.44-0.2-0.89-0.3-1.35l-2.67,0.77c-4.71-12.92-13.03-36.5-19.59-59.12c-9.71-33.47-34.65-70.3-7.42-36.73
									C316.23,379.87,323.45,400.59,328.01,420z"/>
							</g>
						</g>
					</g>
				</g>
			</g>
			<g>
				<g>
					<g>
						<g>
							<g>
								<path class="st11" d="M360.41,421.03c-2.64,2.06-11.55-1.83-23.23-15.29c0,0-0.98,33.09-0.31,54.52l-2.16,0.63
									c0.04,0.48,0.09,0.95,0.13,1.39c-0.1-0.44-0.2-0.89-0.3-1.35c-2.5-11.33-5.49-27-6.53-40.94
									c-0.77-10.39-0.46-19.82,1.94-25.77C338.24,373.68,363.05,418.97,360.41,421.03z"/>
							</g>
						</g>
					</g>
				</g>
			</g>
			<g>
				<g>
					<g>
						<g>
							<g>
								<path class="st11" d="M293.76,407.97c11.21,6.84,27.68,35.96,37.15,54.02l-3.35,0.97c-8.36-10.18-15.21-17.41-20.5-22.56
									c-1.71-1.67-7.14-6.91-12.2-15.25c-5.35-8.82-9.61-20-7.58-21.3C288.56,403.03,291.73,406.74,293.76,407.97z"/>
							</g>
						</g>
					</g>
				</g>
			</g>
			<g>
				<g>
					<g>
						<g>
							<g>
								<path class="st12" d="M325.23,458.38c-0.17,0.05-0.36,0.02-0.51-0.11c-2.41-2.04-2.67-2.91-2.87-3.61
									c-0.08-0.28-0.13-0.45-0.36-0.7c-0.29-0.31-0.75-1.08-1.62-2.52c-1.9-3.17-5.08-8.47-8.03-10.8
									c-1.38-1.09-2.07-2.06-2.09-2.95c-0.01-0.56,0.23-0.97,0.49-1.27c-1.52-0.41-4.1-1.42-6.9-2.96
									c-1.96-1.08-1.66-2.68-1.42-3.97c0.23-1.22,0.32-1.99-0.55-2.65c-0.8-0.6-1.54-1.01-2.19-1.37
									c-1.32-0.73-2.47-1.36-2.4-3.01c0.04-0.95-2.86-2.39-5.57-3.19c-0.29-0.09-0.46-0.39-0.37-0.68
									c0.09-0.29,0.39-0.46,0.68-0.37c1.08,0.32,6.45,2.01,6.36,4.29c-0.04,0.92,0.44,1.24,1.83,2c0.65,0.36,1.46,0.8,2.32,1.45
									c1.46,1.1,1.19,2.56,0.97,3.73c-0.25,1.35-0.33,2.14,0.87,2.8c2.99,1.64,5.88,2.75,7.2,2.99c0.16,0.03,0.6,0.11,0.71,0.52
									c0.11,0.4-0.19,0.66-0.4,0.85c-0.3,0.26-0.52,0.48-0.52,0.81c0.01,0.3,0.23,0.98,1.67,2.11c3.11,2.45,6.36,7.87,8.3,11.1
									c0.67,1.12,1.26,2.1,1.48,2.34c0.4,0.44,0.51,0.81,0.61,1.14c0.16,0.56,0.36,1.26,2.52,3.08c0.23,0.2,0.26,0.54,0.07,0.78
									C325.43,458.29,325.33,458.35,325.23,458.38z M310.95,436.59L310.95,436.59L310.95,436.59z"/>
							</g>
						</g>
					</g>
				</g>
			</g>
			<g>
				<g>
					<g>
						<g>
							<g>
								<path class="st12" d="M329.82,451.87c-0.09,0.03-0.18,0.03-0.28,0.01c-0.3-0.07-0.48-0.36-0.41-0.66
									c0.8-3.45,0.74-6.6-0.2-9.36c-0.51-1.52-1.15-2.54-1.77-3.53c-0.88-1.41-1.71-2.74-2.05-5.19
									c-0.26-1.87-0.14-3.65,0.06-6.61c0.09-1.4,0.21-2.38,0.3-3.1c0.15-1.27,0.21-1.75-0.04-2.61c-0.4-1.36-1.08-1.96-1.94-2.72
									c-0.68-0.6-1.44-1.29-2.13-2.43c-1.93-3.22-2.27-4.62-0.87-9.91c0.71-2.7-2.04-6.85-4.24-10.2c-0.46-0.7-0.9-1.37-1.3-2
									c-0.91-1.45-1.18-2.18-1.03-2.78c0.14-0.57,0.62-0.84,1.13-1.13c0.61-0.35,1.44-0.82,2.24-2.02
									c0.27-0.4,0.36-0.74,0.27-1.04c-0.26-0.9-2.06-1.69-3.8-2.45c-1.85-0.82-3.77-1.66-4.96-2.95c-1.34-1.45-1.49-2.9-1.62-4.17
									c-0.17-1.68-0.32-3.13-2.85-4.78c-0.25-0.17-0.33-0.51-0.16-0.76c0.17-0.25,0.51-0.33,0.76-0.16
									c2.96,1.94,3.16,3.88,3.34,5.59c0.12,1.21,0.24,2.36,1.33,3.54c1.03,1.12,2.84,1.92,4.59,2.69
									c2.15,0.95,4.01,1.76,4.41,3.15c0.18,0.62,0.04,1.28-0.41,1.96c-0.94,1.41-1.95,1.99-2.61,2.36
									c-0.3,0.17-0.58,0.33-0.61,0.45c-0.04,0.16,0.08,0.63,0.9,1.93c0.39,0.63,0.83,1.29,1.29,1.98
									c2.45,3.71,5.23,7.91,4.39,11.08c-1.31,4.95-1.05,6.06,0.75,9.06c0.6,1,1.27,1.6,1.92,2.18c0.87,0.78,1.77,1.58,2.26,3.23
									c0.32,1.07,0.24,1.73,0.08,3.05c-0.09,0.75-0.2,1.67-0.29,3.05c-0.19,2.89-0.31,4.63-0.06,6.38c0.32,2.23,1.05,3.4,1.9,4.76
									c0.65,1.04,1.32,2.12,1.88,3.76c1,2.95,1.08,6.31,0.23,9.96C330.16,451.66,330.01,451.81,329.82,451.87z"/>
							</g>
						</g>
					</g>
				</g>
			</g>
			<g>
				<g>
					<g>
						<g>
							<g>
								<path class="st12" d="M340.14,409.38c-0.16,0.05-0.34,0.02-0.48-0.09c-0.24-0.18-5.89-4.37-7.14-8.68
									c-0.08-0.29,0.08-0.6,0.38-0.68c0.29-0.08,0.6,0.08,0.68,0.38c1.15,3.95,6.68,8.06,6.73,8.1c0.24,0.18,0.3,0.52,0.12,0.77
									C340.35,409.28,340.25,409.35,340.14,409.38z"/>
							</g>
						</g>
					</g>
				</g>
			</g>
			<g>
				<g>
					<g>
						<g>
							<g>
								<path class="st12" d="M331.73,439.8c-0.18,0.05-0.38,0.01-0.52-0.12c-0.22-0.2-0.24-0.55-0.04-0.78
									c0.66-0.72,1.51-2.02,1.33-2.64l-2.71-9.33l0.31-0.23c1.57-1.17,4.07-3.49,4.12-4.73c0.02-0.63-0.23-1.74-0.53-3.02
									c-0.58-2.49-1.3-5.59-0.79-8.34c0.05-0.3,0.34-0.5,0.64-0.44c0.3,0.05,0.5,0.34,0.44,0.64c-0.46,2.52,0.23,5.5,0.78,7.89
									c0.33,1.41,0.59,2.53,0.56,3.31c-0.07,1.91-3.2,4.51-4.26,5.33l2.5,8.6c0.41,1.42-1.24,3.32-1.58,3.69
									C331.91,439.72,331.82,439.77,331.73,439.8z"/>
							</g>
						</g>
					</g>
				</g>
			</g>
		</g>
		<g>
			<g>
				<g>
					<g>
						<g>
							<path class="st0" d="M334.81,457.42l-3.87,1.12l-8.51,2.47c-1.58,0.46-2.33,2.27-1.53,3.72l11.15,20.08
								c0.58,1.05,1.81,1.55,2.96,1.22l3.59-1.04l3.87-1.12l3.59-1.04c1.15-0.33,1.92-1.42,1.85-2.62l-1.32-22.93
								c-0.1-1.65-1.7-2.78-3.28-2.32L334.81,457.42z"/>
						</g>
					</g>
				</g>
			</g>
		</g>
		<g>
			<g>
				<g>
					<g>
						<g>
							<path class="st9" d="M346.29,483.54l-11.05,3.21c-1.5,0.43-3.07-0.21-3.83-1.58l-11.15-20.08c-0.49-0.89-0.56-1.94-0.17-2.88
								c0.39-0.94,1.17-1.64,2.15-1.93l20.88-6.06c0.98-0.28,2.01-0.11,2.84,0.48c0.83,0.59,1.34,1.51,1.4,2.52l1.32,22.93
								C348.77,481.71,347.79,483.1,346.29,483.54z"/>
						</g>
					</g>
				</g>
			</g>
		</g>
	</g>
	<g>
		<g>
			<g>
				<g>
					<g>
						<g>
							<g>
								<path class="st11" d="M871.45,281.62c-3.87,11.77-8.55,22.25-11.73,28.83c-0.16,0.32-0.32,0.64-0.46,0.95
									c0.11-0.32,0.22-0.65,0.34-0.98l-2.01-0.55c2.04-10.12,5.95-28.5,10.61-45.57c6.89-25.26,5.33-58.64,9.64-26.45
									C879.63,251.28,876.14,267.4,871.45,281.62z"/>
							</g>
						</g>
					</g>
				</g>
			</g>
			<g>
				<g>
					<g>
						<g>
							<g>
								<path class="st11" d="M891.81,294.98c-2.5,0.29-6.68-5.7-8.9-18.9c0,0-13.59,20.83-21.56,34.83l-1.63-0.44
									c-0.16,0.32-0.32,0.64-0.46,0.95c0.11-0.32,0.22-0.65,0.34-0.98c2.84-8.24,7.06-19.46,11.85-28.8
									c3.58-6.96,7.47-12.88,11.34-15.76C896.16,255.94,894.31,294.69,891.81,294.98z"/>
							</g>
						</g>
					</g>
				</g>
			</g>
			<g>
				<g>
					<g>
						<g>
							<g>
								<path class="st11" d="M854.21,260.49c4.5,8.78,3.65,33.9,2.65,49.18l-2.53-0.69c-1.37-9.8-2.93-17.12-4.3-22.5
									c-0.44-1.74-1.87-7.23-1.84-14.56c0.03-7.75,1.68-16.58,3.49-16.62C852.82,255.28,853.4,258.91,854.21,260.49z"/>
							</g>
						</g>
					</g>
				</g>
			</g>
			<g>
				<g>
					<g>
						<g>
							<g>
								<path class="st12" d="M854.63,305.13c-0.13-0.04-0.24-0.13-0.28-0.27c-0.75-2.25-0.57-2.91-0.43-3.44
									c0.06-0.21,0.09-0.34,0.04-0.59c-0.06-0.31-0.06-0.99-0.05-2.25c0.02-2.78,0.06-7.42-0.92-10.07
									c-0.46-1.24-0.52-2.13-0.18-2.71c0.21-0.36,0.53-0.53,0.81-0.62c-0.82-0.86-2.07-2.52-3.26-4.6
									c-0.83-1.46-0.02-2.37,0.64-3.1c0.62-0.69,0.99-1.15,0.69-1.91c-0.28-0.7-0.59-1.25-0.87-1.73
									c-0.56-0.99-1.05-1.84-0.36-2.87c0.4-0.59-0.9-2.66-2.32-4.23c-0.15-0.17-0.14-0.43,0.03-0.58
									c0.17-0.15,0.43-0.14,0.58,0.03c0.57,0.63,3.35,3.82,2.4,5.24c-0.39,0.58-0.2,0.97,0.39,2c0.28,0.49,0.62,1.09,0.92,1.84
									c0.51,1.28-0.24,2.11-0.84,2.77c-0.69,0.76-1.05,1.24-0.54,2.14c1.27,2.22,2.69,4.07,3.44,4.73
									c0.09,0.08,0.34,0.3,0.25,0.61c-0.09,0.3-0.38,0.35-0.59,0.39c-0.29,0.05-0.53,0.1-0.65,0.32c-0.11,0.2-0.23,0.72,0.24,2.01
									c1.03,2.79,0.99,7.53,0.97,10.37c-0.01,0.99-0.02,1.84,0.03,2.08c0.09,0.44,0.01,0.72-0.06,0.97
									c-0.12,0.42-0.26,0.95,0.41,2.96c0.07,0.22-0.04,0.45-0.26,0.52C854.79,305.15,854.71,305.16,854.63,305.13z M854.02,285.57
									L854.02,285.57L854.02,285.57z"/>
							</g>
						</g>
					</g>
				</g>
			</g>
			<g>
				<g>
					<g>
						<g>
							<g>
								<path class="st12" d="M860.13,302.76c-0.07-0.02-0.13-0.05-0.18-0.1c-0.16-0.16-0.17-0.42,0-0.58
									c1.87-1.9,3.06-3.94,3.54-6.07c0.27-1.17,0.26-2.08,0.25-2.95c-0.01-1.25-0.02-2.42,0.72-4.13c0.56-1.3,1.34-2.4,2.63-4.22
									c0.61-0.86,1.07-1.44,1.41-1.87c0.6-0.76,0.82-1.04,0.99-1.69c0.27-1.03,0.08-1.68-0.18-2.51c-0.2-0.65-0.42-1.39-0.41-2.39
									c0.03-2.82,0.36-3.85,3.33-6.69c1.51-1.45,1.38-5.19,1.28-8.2c-0.02-0.63-0.04-1.23-0.05-1.79
									c-0.02-1.29,0.1-1.86,0.43-2.19c0.31-0.31,0.73-0.3,1.17-0.28c0.53,0.02,1.25,0.04,2.23-0.42c0.33-0.15,0.52-0.34,0.58-0.56
									c0.18-0.68-0.66-1.89-1.47-3.06c-0.87-1.25-1.77-2.54-2.02-3.83c-0.29-1.45,0.18-2.44,0.6-3.31
									c0.55-1.14,1.02-2.13,0.05-4.18c-0.1-0.21-0.01-0.45,0.2-0.55c0.21-0.1,0.45-0.01,0.55,0.2c1.14,2.4,0.51,3.73-0.05,4.89
									c-0.4,0.83-0.77,1.61-0.53,2.79c0.22,1.12,1.07,2.34,1.89,3.52c1.01,1.45,1.88,2.7,1.59,3.75c-0.13,0.47-0.48,0.84-1.03,1.1
									c-1.16,0.53-2.03,0.51-2.6,0.49c-0.26-0.01-0.5-0.01-0.57,0.05c-0.09,0.09-0.19,0.44-0.18,1.59
									c0.01,0.55,0.03,1.15,0.05,1.77c0.12,3.34,0.25,7.12-1.53,8.82c-2.78,2.66-3.05,3.48-3.07,6.1
									c-0.01,0.88,0.19,1.52,0.38,2.15c0.25,0.84,0.52,1.71,0.18,2.96c-0.22,0.81-0.53,1.2-1.14,1.98
									c-0.35,0.44-0.78,0.99-1.38,1.84c-1.26,1.77-2.01,2.84-2.54,4.07c-0.67,1.55-0.66,2.59-0.65,3.8
									c0.01,0.92,0.02,1.88-0.27,3.14c-0.52,2.29-1.78,4.46-3.76,6.47C860.42,302.76,860.27,302.79,860.13,302.76z"/>
							</g>
						</g>
					</g>
				</g>
			</g>
			<g>
				<g>
					<g>
						<g>
							<g>
								<path class="st12" d="M883.39,279.57c-0.12-0.03-0.22-0.12-0.27-0.24c-0.08-0.21-2.06-5.11-1.17-8.36
									c0.06-0.22,0.29-0.35,0.51-0.29c0.22,0.06,0.35,0.29,0.29,0.51c-0.81,2.98,1.12,7.78,1.14,7.83
									c0.09,0.21-0.02,0.45-0.23,0.54C883.57,279.59,883.47,279.59,883.39,279.57z"/>
							</g>
						</g>
					</g>
				</g>
			</g>
			<g>
				<g>
					<g>
						<g>
							<g>
								<path class="st12" d="M866.08,295.77c-0.13-0.04-0.25-0.14-0.29-0.28c-0.06-0.22,0.06-0.45,0.28-0.51
									c0.71-0.21,1.76-0.71,1.89-1.17l1.92-7.04l0.29-0.03c1.46-0.14,3.98-0.64,4.49-1.42c0.26-0.39,0.53-1.2,0.84-2.14
									c0.61-1.82,1.36-4.09,2.76-5.65c0.15-0.17,0.41-0.19,0.58-0.03c0.17,0.15,0.18,0.41,0.03,0.58
									c-1.28,1.44-2.01,3.61-2.59,5.36c-0.34,1.04-0.62,1.85-0.94,2.34c-0.8,1.19-3.81,1.64-4.82,1.75l-1.77,6.49
									c-0.29,1.07-2.1,1.64-2.46,1.75C866.22,295.79,866.15,295.79,866.08,295.77z"/>
							</g>
						</g>
					</g>
				</g>
			</g>
		</g>
		<g>
			<g>
				<g>
					<g>
						<g>
							<path class="st0" d="M861.15,308.27l-2.92-0.8l-6.42-1.75c-1.2-0.33-2.38,0.54-2.44,1.78l-0.72,17.24
								c-0.04,0.9,0.55,1.71,1.42,1.94l2.71,0.74l2.92,0.8l2.71,0.74c0.87,0.24,1.79-0.16,2.21-0.95l8.14-15.22
								c0.58-1.09,0-2.45-1.19-2.77L861.15,308.27z"/>
						</g>
					</g>
				</g>
			</g>
		</g>
		<g>
			<g>
				<g>
					<g>
						<g>
							<path class="st9" d="M858.27,329.51l-8.34-2.28c-1.13-0.31-1.89-1.34-1.84-2.51l0.72-17.24c0.03-0.76,0.4-1.46,1.02-1.91
								c0.62-0.45,1.39-0.59,2.13-0.39l15.76,4.3c0.74,0.2,1.33,0.72,1.64,1.42c0.3,0.7,0.27,1.49-0.09,2.17l-8.14,15.22
								C860.58,329.31,859.41,329.82,858.27,329.51z"/>
						</g>
					</g>
				</g>
			</g>
		</g>
	</g>
	<g>
		<g>
			<g>
				<g>
					<g>
						<g>
							<path class="st9" d="M613.22,222.9l-21.71,5.65c-2.18,0.57-4.42-0.74-4.99-2.93l-4.63-17.77c-0.57-2.18,0.74-4.42,2.93-4.99
								l21.71-5.65c2.18-0.57,4.42,0.74,4.99,2.93l4.63,17.77C616.72,220.1,615.41,222.33,613.22,222.9z"/>
						</g>
					</g>
				</g>
			</g>
		</g>
		<g>
			<g>
				<g>
					<g>
						<g>
							<g>
								<path class="st7" d="M595.64,200.61c-0.02-0.02-0.07-0.02-0.1,0c-0.03,0.03-0.01,0-0.01-0.01l0.01-0.06l0.02-0.12l0.05-0.23
									l0.09-0.46l0.19-0.9c0.12-0.6,0.27-1.18,0.39-1.77c0.14-0.58,0.27-1.15,0.37-1.72c0.11-0.57,0.22-1.13,0.3-1.67
									c0.17-1.08,0.27-2.17,0.16-2.96c-0.06-0.39-0.16-0.66-0.26-0.75c-0.02-0.03-0.03-0.05-0.06-0.06
									c-0.01-0.01-0.01-0.02-0.02-0.03c-0.01,0-0.03-0.01-0.04-0.02c-0.01-0.02-0.05-0.03-0.09-0.05
									c-0.04-0.03-0.06-0.02-0.08-0.03c-0.06-0.04,0.11,0.04,0.32-0.05c0.25-0.07,0.38-0.23,0.37-0.24c0-0.01-0.03,0.03-0.05,0.06
									c-0.03,0.07-0.06,0.11-0.09,0.19l-0.1,0.27c-0.03,0.11-0.06,0.21-0.09,0.32c-0.23,0.92-0.36,2.05-0.47,3.19
									c-0.1,1.14-0.22,2.33-0.3,3.53c-0.07,0.6-0.11,1.2-0.19,1.82l-0.11,0.92l-0.07,0.46l-0.03,0.23l-0.02,0.12l-0.01,0.06
									c0,0,0,0.01,0,0.01c0-0.01-0.01-0.02-0.02-0.03C595.7,200.6,595.66,200.6,595.64,200.61z M595.6,200.83
									c-0.02-0.01-0.06-0.04-0.08-0.08c-0.02-0.04-0.02-0.07-0.02-0.07l-0.01-0.06l-0.02-0.11l-0.04-0.22l-0.08-0.44l-0.15-0.89
									c-0.1-0.59-0.18-1.19-0.26-1.79c-0.15-1.2-0.25-2.4-0.3-3.61c-0.04-1.21-0.04-2.42,0.16-3.64c0.12-0.6,0.26-1.22,0.64-1.77
									c0.2-0.27,0.47-0.51,0.82-0.62c0.35-0.09,0.71-0.07,1.02,0.05c0.62,0.2,1.17,0.62,1.51,1.18c0.34,0.56,0.47,1.2,0.51,1.82
									c0.05,1.25-0.22,2.45-0.57,3.61c-0.35,1.16-0.81,2.29-1.31,3.38c-0.26,0.55-0.53,1.09-0.81,1.62l-0.43,0.79l-0.22,0.39
									l-0.11,0.2l-0.06,0.1l-0.03,0.05c-0.01,0.01,0,0-0.03,0.05C595.69,200.81,595.63,200.83,595.6,200.83z"/>
							</g>
						</g>
					</g>
				</g>
			</g>
		</g>
		<g>
			<g>
				<g>
					<g>
						<g>
							<g>
								<path class="st7" d="M596.5,200.96c-0.03,0.01-0.05,0.06-0.04,0.09c0.01,0.04-0.01,0.01-0.01,0.01l-0.05-0.04l-0.1-0.07
									l-0.18-0.15l-0.37-0.29l-0.72-0.58c-0.48-0.38-0.93-0.78-1.4-1.15c-0.45-0.38-0.9-0.76-1.37-1.11
									c-0.46-0.35-0.9-0.71-1.35-1.03c-0.89-0.64-1.81-1.23-2.56-1.48c-0.37-0.13-0.67-0.16-0.79-0.11
									c-0.03,0.01-0.06,0-0.08,0.02c-0.01,0-0.02,0-0.03,0.01c-0.01,0.01-0.02,0.02-0.03,0.03c-0.02,0-0.05,0.03-0.08,0.06
									c-0.04,0.02-0.05,0.04-0.06,0.06c-0.06,0.04,0.09-0.08,0.1-0.31c0.05-0.26-0.03-0.45-0.05-0.44c-0.01,0,0.02,0.04,0.03,0.07
									c0.05,0.05,0.07,0.1,0.13,0.17l0.2,0.21c0.08,0.07,0.16,0.15,0.24,0.23c0.71,0.62,1.67,1.25,2.63,1.86
									c0.98,0.61,1.98,1.25,3,1.87c0.5,0.34,1.02,0.64,1.53,0.99l0.77,0.51l0.38,0.27l0.19,0.14l0.1,0.07l0.05,0.04
									c0,0,0.01,0.01,0.01,0.01c-0.01,0-0.02,0-0.03,0.01C596.52,200.91,596.5,200.94,596.5,200.96z M596.68,201.1
									c-0.02,0.02-0.06,0.04-0.11,0.04c-0.05,0-0.07-0.01-0.07-0.01l-0.05-0.02l-0.11-0.03l-0.22-0.06l-0.43-0.13l-0.86-0.27
									c-0.57-0.18-1.14-0.38-1.71-0.58c-1.13-0.41-2.25-0.86-3.35-1.37c-1.09-0.51-2.18-1.07-3.17-1.8
									c-0.48-0.38-0.97-0.79-1.29-1.38c-0.15-0.3-0.24-0.65-0.18-1.01c0.08-0.35,0.26-0.66,0.5-0.88
									c0.46-0.46,1.09-0.76,1.74-0.81c0.65-0.05,1.28,0.12,1.85,0.37c1.14,0.52,2.09,1.31,2.97,2.14c0.87,0.84,1.67,1.75,2.42,2.7
									c0.37,0.48,0.73,0.96,1.08,1.46l0.51,0.75l0.25,0.38l0.12,0.19l0.06,0.1l0.03,0.05c0.01,0.02,0,0,0.03,0.05
									C596.71,201.02,596.7,201.08,596.68,201.1z"/>
							</g>
						</g>
					</g>
				</g>
			</g>
		</g>
		<g>
			<g>
				<g>
					<g>
						<g>
							<g>
								
									<rect x="597.88" y="199.69" transform="matrix(0.9677 -0.2519 0.2519 0.9677 -34.3189 157.7843)" class="st7" width="2.31" height="26.46"/>
							</g>
						</g>
					</g>
				</g>
			</g>
		</g>
	</g>
</g>
</svg>
